<?xml version="1.0" encoding="UTF-8"?>
<svg xmlns="http://www.w3.org/2000/svg" viewBox="0 0 1500 2000">
  <defs>
    <style>
      .ia {
        stroke-width: .18px;
      }

      .ia, .ib, .ic, .id, .ie, .if, .ig, .ih, .ii, .ij, .ik, .il, .im, .in, .io, .ip, .iq, .ir, .is, .it, .iu {
        stroke: #000;
      }

      .ia, .ib, .ic, .ie, .if, .ig, .ih, .ii, .ij, .il, .im, .in, .io, .ip, .iq, .ir, .is, .it, .iu {
        stroke-miterlimit: 10;
      }

      .ia, .ib, .ic, .if, .ig, .ih, .ii, .ij, .il, .im, .in, .io, .ip, .iq, .ir, .is, .it, .iu {
        fill: none;
      }

      .ib, .id, .ie, .ik {
        stroke-width: .5px;
      }

      .ic {
        stroke-dasharray: 1.98 .99;
      }

      .ic, .ig, .ii, .il, .io, .ip, .iu {
        stroke-width: .3px;
      }

      .id {
        font-family: SUITVariable-Regular, 'SUIT Variable';
        font-size: 11.26px;
        font-variation-settings: 'wght' 400;
      }

      .id, .ie, .ik {
        fill: #040000;
      }

      .ie {
        fill-rule: evenodd;
      }

      .if {
        stroke-width: .8px;
      }

      .ig {
        stroke-dasharray: 2.02 1.01;
      }

      .ih {
        stroke-dasharray: 1.88 .94;
      }

      .ih, .im, .in, .ir, .it {
        stroke-width: .25px;
      }

      .ii {
        stroke-dasharray: 2 1;
      }

      .ij {
        stroke-width: .4px;
      }

      .ik {
        font-family: SUITVariable-Medium, 'SUIT Variable';
        font-size: 16.01px;
        font-variation-settings: 'wght' 500;
        font-weight: 500;
      }

      .il {
        stroke-dasharray: 1.98 .99;
      }

      .in, .io {
        stroke-dasharray: 2.07 1.03;
      }

      .iq {
        stroke-width: .6px;
      }

      .ir {
        stroke-dasharray: 1.97 .99;
      }

      .is {
        stroke-width: .1px;
      }

      .it {
        stroke-dasharray: 1.97 .99;
      }

      .iu {
        stroke-dasharray: 1.98 .99;
      }
    </style>
  </defs>
  <g id="e" data-name="F5">
    <g id="f" data-name="HATCH">
      <path class="is" d="M808.35,882.16h217.42M530.84,918.16h494.93M530.84,954.16h494.93M530.84,990.16h494.93M530.84,1026.16h494.93M552.36,1026.78v-143.15M588.36,1026.78v-143.15M624.36,1026.78v-143.15M660.36,1026.78v-143.15M696.36,1026.78v-143.15M732.36,1026.78v-143.15M768.36,1026.78v-143.15M804.36,1026.78v-143.15M840.36,1026.78v-157.32M876.36,1026.78v-157.32M912.36,1026.78v-157.32M948.36,1026.78v-157.32M984.36,1026.78v-157.32M1020.36,1026.78v-157.32"/>
    </g>
    <g id="g" data-name="HATCH">
      <rect class="is" x="435.87" y="869.45" width="94.96" height="157.32"/>
      <path class="is" d="M437.34,1026.78v-157.32M443.36,1026.78v-157.32M449.37,1026.78v-157.32M455.38,1026.78v-157.32M461.4,1026.78v-157.32M467.41,1026.78v-157.32M473.42,1026.78v-157.32M479.44,1026.78v-157.32M485.45,1026.78v-157.32M491.46,1026.78v-157.32M497.48,1026.78v-157.32M503.49,1026.78v-157.32M509.5,1026.78v-157.32M515.52,1026.78v-157.32M521.53,1026.78v-157.32M527.54,1026.78v-157.32"/>
    </g>
    <g id="h" data-name="HATCH">
      <polygon class="is" points="794.17 869.45 794.17 855.28 1038.8 855.28 1038.8 798.02 435.87 798.02 435.87 869.45 530.84 869.45 794.17 869.45"/>
      <path class="is" d="M437.77,869.45v-71.43M445.78,869.45v-71.43M453.8,869.45v-71.43M461.82,869.45v-71.43M469.84,869.45v-71.43M477.85,869.45v-71.43M485.87,869.45v-71.43M493.89,869.45v-71.43M501.91,869.45v-71.43M509.92,869.45v-71.43M517.94,869.45v-71.43M525.96,869.45v-71.43M533.98,869.45v-71.43M541.99,869.45v-71.43M550.01,869.45v-71.43M558.03,869.45v-71.43M566.05,869.45v-71.43M574.06,869.45v-71.43M582.08,869.45v-71.43M590.1,869.45v-71.43M598.12,869.45v-71.43M606.13,869.45v-71.43M614.15,869.45v-71.43M622.17,869.45v-71.43M630.19,869.45v-71.43M638.2,869.45v-71.43M646.22,869.45v-71.43M654.24,869.45v-71.43M662.26,869.45v-71.43M670.28,869.45v-71.43M678.29,869.45v-71.43M686.31,869.45v-71.43M694.33,869.45v-71.43M702.35,869.45v-71.43M710.36,869.45v-71.43M718.38,869.45v-71.43M726.4,869.45v-71.43M734.42,869.45v-71.43M742.43,869.45v-71.43M750.45,869.45v-71.43M758.47,869.45v-71.43M766.49,869.45v-71.43M774.5,869.45v-71.43M782.52,869.45v-71.43M790.54,869.45v-71.43M798.56,855.28v-57.26M806.57,855.28v-57.26M814.59,855.28v-57.26M822.61,855.28v-57.26M830.63,855.28v-57.26M838.64,855.28v-57.26M846.66,855.28v-57.26M854.68,855.28v-57.26M862.7,855.28v-57.26M870.72,855.28v-57.26M878.73,855.28v-57.26M886.75,855.28v-57.26M894.77,855.28v-57.26M902.79,855.28v-57.26M910.8,855.28v-57.26M918.82,855.28v-57.26M926.84,855.28v-57.26M934.86,855.28v-57.26M942.87,855.28v-57.26M950.89,855.28v-57.26M958.91,855.28v-57.26M966.93,855.28v-57.26M974.94,855.28v-57.26M982.96,855.28v-57.26M990.98,855.28v-57.26M999,855.28v-57.26M1007.01,855.28v-57.26M1015.03,855.28v-57.26M1023.05,855.28v-57.26M1031.07,855.28v-57.26"/>
    </g>
    <g id="i" data-name="LWPOLYLINE">
      <polyline class="ia" points="573.36 1201.67 435.87 1201.67 435.87 1189.77"/>
    </g>
    <g id="j" data-name="LWPOLYLINE">
      <polyline class="ia" points="1038.8 1016.29 1050.71 1016.29 1050.71 798.02 435.87 798.02 435.87 869.45"/>
    </g>
    <g id="k" data-name="LINE">
      <line class="ia" x1="1038.8" y1="855.28" x2="1038.8" y2="798.02"/>
    </g>
    <g id="l" data-name="LINE">
      <line class="ia" x1="732.1" y1="1201.67" x2="666.9" y2="1201.67"/>
    </g>
    <g id="m" data-name="LINE">
      <line class="ia" x1="661.23" y1="1201.67" x2="596.03" y2="1201.67"/>
    </g>
    <g id="n" data-name="LINE">
      <line class="ia" x1="1050.71" y1="1021.96" x2="1050.71" y2="1079.22"/>
    </g>
    <g id="o" data-name="LWPOLYLINE">
      <polyline class="ia" points="939.02 1201.67 943.52 1201.67 994.99 1156.35 987.12 1147.41"/>
    </g>
    <g id="p" data-name="LWPOLYLINE">
      <polyline class="ia" points="991.37 1143.67 999.24 1152.6 1050.71 1107.27 1050.71 1101.89"/>
    </g>
    <g id="q" data-name="LINE">
      <line class="ia" x1="1050.71" y1="1021.96" x2="1038.8" y2="1021.96"/>
    </g>
    <g id="r" data-name="LINE">
      <line class="ia" x1="661.23" y1="1201.67" x2="661.23" y2="1189.77"/>
    </g>
    <g id="s" data-name="LINE">
      <line class="ia" x1="666.9" y1="1201.67" x2="666.9" y2="1189.77"/>
    </g>
    <g id="t" data-name="LWPOLYLINE">
      <polyline class="ia" points="916.35 1201.67 838.39 1201.67 838.39 1189.77"/>
    </g>
    <g id="u" data-name="LWPOLYLINE">
      <polyline class="ia" points="754.77 1201.67 832.73 1201.67 832.73 1189.77"/>
    </g>
    <g id="v" data-name="LWPOLYLINE">
      <path class="ia" d="M653.54,1068.53h-9.13v2.72h9.13c.75,0,1.36-.61,1.36-1.36s-.61-1.36-1.36-1.36Z"/>
    </g>
    <g id="w" data-name="LWPOLYLINE">
      <polyline class="ia" points="647.53 1068.53 647.53 1052.03 673.04 1052.03 673.04 1087.75 647.53 1087.75 647.53 1071.25"/>
    </g>
    <g id="x" data-name="LWPOLYLINE">
      <polyline class="ia" points="641.86 1100.48 675.87 1100.48 675.87 1035.28"/>
    </g>
    <g id="y" data-name="LWPOLYLINE">
      <path class="ia" d="M561.17,1080.07h-28.63v-24.38h28.63c6.73,0,12.19,5.46,12.19,12.19s-5.46,12.19-12.19,12.19Z"/>
    </g>
    <g id="z" data-name="LINE">
      <line class="ia" x1="610.68" y1="1094.81" x2="610.68" y2="1040.95"/>
    </g>
    <g id="aa" data-name="LWPOLYLINE">
      <rect class="ia" x="617.48" y="1080.92" width="2.27" height="8.5"/>
    </g>
    <g id="ab" data-name="LWPOLYLINE">
      <polyline class="ia" points="619.75 1086.59 627.12 1086.59 627.12 1060.51 611.81 1060.51 611.81 1086.59 617.48 1086.59"/>
    </g>
    <g id="ac" data-name="LWPOLYLINE">
      <polyline class="ia" points="619.75 1085.45 625.98 1085.45 625.98 1061.64 612.95 1061.64 612.95 1085.45 617.48 1085.45"/>
    </g>
    <g id="ad" data-name="LWPOLYLINE">
      <polygon class="ia" points="1037.1 1021.96 1037.1 856.98 795.31 856.98 795.31 859.25 1034.84 859.25 1034.84 1021.96 1037.1 1021.96"/>
    </g>
    <g id="ae" data-name="LINE">
      <line class="ia" x1="730.11" y1="1187.5" x2="684.19" y2="1187.5"/>
    </g>
    <g id="af" data-name="LINE">
      <line class="ia" x1="683.06" y1="1187.5" x2="598.02" y2="1187.5"/>
    </g>
    <g id="ag" data-name="LINE">
      <line class="ia" x1="729.26" y1="1189.07" x2="685.04" y2="1189.07"/>
    </g>
    <g id="ah" data-name="LINE">
      <line class="ia" x1="682.21" y1="1189.07" x2="598.87" y2="1189.07"/>
    </g>
    <g id="ai" data-name="LINE">
      <line class="ia" x1="914.36" y1="1187.5" x2="756.76" y2="1187.5"/>
    </g>
    <g id="aj" data-name="LINE">
      <line class="ia" x1="913.51" y1="1189.07" x2="757.61" y2="1189.07"/>
    </g>
    <g id="ak" data-name="LINE">
      <line class="ia" x1="939.01" y1="1186.76" x2="1035.82" y2="1101.5"/>
    </g>
    <g id="al" data-name="LINE">
      <line class="ia" x1="1036.22" y1="1103.25" x2="940.69" y2="1187.38"/>
    </g>
    <g id="am" data-name="LINE">
      <line class="ia" x1="571.37" y1="1187.5" x2="443.53" y2="1187.5"/>
    </g>
    <g id="an" data-name="LINE">
      <line class="ia" x1="570.52" y1="1189.07" x2="444.38" y2="1189.08"/>
    </g>
    <g id="ao" data-name="LINE">
      <line class="ia" x1="927.12" y1="1029.04" x2="744" y2="1029.04"/>
    </g>
    <g id="ap" data-name="LINE">
      <line class="ia" x1="744.85" y1="1027.48" x2="926.27" y2="1027.47"/>
    </g>
    <g id="aq" data-name="LWPOLYLINE">
      <polyline class="ia" points="739.18 1049.45 739.18 1054.56 739.75 1054.56 739.75 1049.45"/>
    </g>
    <g id="ar" data-name="LWPOLYLINE">
      <polyline class="ia" points="739.75 1055.12 739.75 1100.48 739.18 1100.48 739.18 1055.12"/>
    </g>
    <g id="as" data-name="LWPOLYLINE">
      <polyline class="ia" points="739.18 1176.73 739.18 1143.56 738.61 1143.56 738.61 1176.73"/>
    </g>
    <g id="at" data-name="LINE">
      <line class="ia" x1="691.56" y1="1028.48" x2="735.78" y2="1028.48"/>
    </g>
    <g id="au" data-name="LINE">
      <line class="ia" x1="683.34" y1="1029.04" x2="643.84" y2="1029.04"/>
    </g>
    <g id="av" data-name="LINE">
      <line class="ia" x1="644.69" y1="1027.48" x2="682.49" y2="1027.48"/>
    </g>
    <g id="aw" data-name="LWPOLYLINE">
      <polyline class="ia" points="929.1 1027.48 1038.1 1027.48 1038.1 1076.38"/>
    </g>
    <g id="ax" data-name="LWPOLYLINE">
      <polyline class="ia" points="928.25 1029.04 1036.54 1029.04 1036.54 1077.23"/>
    </g>
    <g id="ay" data-name="CIRCLE">
      <circle class="im" cx="525.17" cy="1134.49" r="1.42"/>
    </g>
    <g id="az" data-name="LWPOLYLINE">
      <polyline class="im" points="498.24 1048.6 498.24 1134.49 525.17 1134.49"/>
    </g>
    <g id="ba" data-name="LWPOLYLINE">
      <polyline class="im" points="501.44 1051.81 498.24 1048.6 495.03 1051.81"/>
    </g>
    <g id="bb" data-name="LINE">
      <line class="im" x1="1025.76" y1="1097.39" x2="935.53" y2="1176.73"/>
    </g>
    <g id="bc" data-name="LINE">
      <line class="im" x1="916.35" y1="1176.73" x2="754.77" y2="1176.73"/>
    </g>
    <g id="bd" data-name="LINE">
      <line class="im" x1="732.1" y1="1176.73" x2="596.03" y2="1176.73"/>
    </g>
    <g id="be" data-name="LINE">
      <line class="im" x1="1025.76" y1="1079.22" x2="1025.76" y2="1035.28"/>
    </g>
    <g id="bf" data-name="LINE">
      <line class="im" x1="739.18" y1="1035.28" x2="688.16" y2="1035.28"/>
    </g>
    <g id="bg" data-name="LINE">
      <line class="im" x1="469.89" y1="1173.5" x2="580.44" y2="1173.5"/>
    </g>
    <g id="bh" data-name="LINE">
      <line class="im" x1="469.89" y1="1166.35" x2="580.44" y2="1166.35"/>
    </g>
    <g id="bi" data-name="LINE">
      <line class="im" x1="462.07" y1="1049.45" x2="462.07" y2="1165.67"/>
    </g>
    <g id="bj" data-name="LINE">
      <line class="im" x1="469.21" y1="1049.45" x2="469.21" y2="1165.67"/>
    </g>
    <g id="bk" data-name="LINE">
      <line class="im" x1="525.17" y1="1045.77" x2="522.33" y2="1045.77"/>
    </g>
    <g id="bl" data-name="LINE">
      <line class="im" x1="520.35" y1="1045.77" x2="471.31" y2="1045.77"/>
    </g>
    <g id="bm" data-name="LINE">
      <line class="im" x1="525.17" y1="1060.51" x2="522.33" y2="1060.51"/>
    </g>
    <g id="bn" data-name="LINE">
      <line class="im" x1="520.35" y1="1060.51" x2="471.31" y2="1060.51"/>
    </g>
    <g id="bo" data-name="LINE">
      <line class="im" x1="525.17" y1="1075.25" x2="522.33" y2="1075.25"/>
    </g>
    <g id="bp" data-name="LINE">
      <line class="im" x1="520.35" y1="1075.25" x2="471.31" y2="1075.25"/>
    </g>
    <g id="bq" data-name="LINE">
      <line class="im" x1="525.17" y1="1089.99" x2="522.33" y2="1089.99"/>
    </g>
    <g id="br" data-name="LINE">
      <line class="im" x1="520.35" y1="1089.99" x2="471.31" y2="1089.99"/>
    </g>
    <g id="bs" data-name="LINE">
      <line class="im" x1="525.17" y1="1104.73" x2="522.33" y2="1104.73"/>
    </g>
    <g id="bt" data-name="LINE">
      <line class="im" x1="520.35" y1="1104.73" x2="471.31" y2="1104.73"/>
    </g>
    <g id="bu" data-name="LINE">
      <line class="im" x1="525.17" y1="1104.73" x2="523.37" y2="1106.71"/>
    </g>
    <g id="bv" data-name="LINE">
      <line class="im" x1="521.58" y1="1108.7" x2="471.31" y2="1164.26"/>
    </g>
    <g id="bw" data-name="LINE">
      <line class="im" x1="525.17" y1="1100.48" x2="525.17" y2="1106.71"/>
    </g>
    <g id="bx" data-name="LINE">
      <line class="im" x1="525.17" y1="1108.7" x2="525.17" y2="1164.26"/>
    </g>
    <g id="by" data-name="LWPOLYLINE">
      <polyline class="im" points="522.33 1040.95 522.33 1106.71 536.5 1106.71 536.5 1108.7 520.35 1108.7 520.35 1040.95"/>
    </g>
    <g id="bz" data-name="LWPOLYLINE">
      <polyline class="im" points="471.31 1040.95 471.31 1164.26 525.17 1164.26"/>
    </g>
    <g id="ca" data-name="LWPOLYLINE">
      <g>
        <polyline class="im" points="798.71 1091.56 798.71 1090.56 799.71 1090.56"/>
        <line class="ir" x1="800.69" y1="1090.56" x2="865.25" y2="1090.56"/>
        <polyline class="im" points="865.74 1090.56 866.74 1090.56 866.74 1091.56"/>
        <line class="in" x1="866.74" y1="1092.59" x2="866.74" y2="1123.06"/>
        <polyline class="im" points="866.74 1123.57 866.74 1124.57 865.74 1124.57"/>
        <line class="ir" x1="864.76" y1="1124.57" x2="800.2" y2="1124.57"/>
        <polyline class="im" points="799.71 1124.57 798.71 1124.57 798.71 1123.57"/>
        <line class="in" x1="798.71" y1="1122.54" x2="798.71" y2="1092.07"/>
      </g>
    </g>
    <g id="cb" data-name="LWPOLYLINE">
      <g>
        <polyline class="im" points="819.4 1128.41 819.4 1127.41 820.4 1127.41"/>
        <line class="ih" x1="821.34" y1="1127.41" x2="843.44" y2="1127.41"/>
        <polyline class="im" points="843.91 1127.41 844.91 1127.41 844.91 1128.41"/>
        <path class="it" d="M844.91,1129.39v15.02c0,7.04-5.71,12.76-12.76,12.76s-12.76-5.71-12.76-12.76v-15.51"/>
      </g>
    </g>
    <g id="cc" data-name="LWPOLYLINE">
      <g>
        <polyline class="im" points="866.74 1091.56 866.74 1090.56 867.74 1090.56"/>
        <line class="ir" x1="868.73" y1="1090.56" x2="933.28" y2="1090.56"/>
        <polyline class="im" points="933.77 1090.56 934.77 1090.56 934.77 1091.56"/>
        <line class="in" x1="934.77" y1="1092.59" x2="934.77" y2="1123.06"/>
        <polyline class="im" points="934.77 1123.57 934.77 1124.57 933.77 1124.57"/>
        <line class="ir" x1="932.79" y1="1124.57" x2="868.23" y2="1124.57"/>
        <polyline class="im" points="867.74 1124.57 866.74 1124.57 866.74 1123.57"/>
        <line class="in" x1="866.74" y1="1122.54" x2="866.74" y2="1092.07"/>
      </g>
    </g>
    <g id="cd" data-name="LWPOLYLINE">
      <g>
        <polyline class="im" points="887.43 1128.41 887.43 1127.41 888.43 1127.41"/>
        <line class="ih" x1="889.37" y1="1127.41" x2="911.48" y2="1127.41"/>
        <polyline class="im" points="911.95 1127.41 912.95 1127.41 912.95 1128.41"/>
        <path class="it" d="M912.95,1129.39v15.02c0,7.04-5.71,12.76-12.76,12.76s-12.76-5.71-12.76-12.76v-15.51"/>
      </g>
    </g>
    <g id="ce" data-name="LWPOLYLINE">
      <g>
        <line class="ip" x1="739.75" y1="1055.12" x2="740.75" y2="1055.12"/>
        <line class="ig" x1="741.76" y1="1055.12" x2="783.6" y2="1055.12"/>
        <polyline class="ip" points="784.1 1055.12 785.1 1055.12 785.1 1055.69 784.1 1055.69"/>
        <line class="ig" x1="783.09" y1="1055.69" x2="741.25" y2="1055.69"/>
        <line class="ip" x1="740.75" y1="1055.69" x2="739.75" y2="1055.69"/>
      </g>
    </g>
    <g id="cf" data-name="ARC">
      <g>
        <path class="ip" d="M739.75,1100.48c.33,0,.67,0,1-.01"/>
        <path class="il" d="M741.74,1100.43c23.63-1.02,42.57-20.12,43.34-43.82"/>
        <path class="ip" d="M785.09,1056.12c0-.33.01-.67.01-1"/>
      </g>
    </g>
    <g id="cg" data-name="LWPOLYLINE">
      <g>
        <polyline class="ip" points="739.18 1025.78 739.18 1026.78 738.18 1026.78"/>
        <polyline class="ip" points="736.78 1026.78 735.78 1026.78 735.78 1025.78"/>
        <line class="ii" x1="735.78" y1="1024.78" x2="735.78" y2="977.25"/>
        <polyline class="ip" points="735.78 976.75 735.78 975.75 736.78 975.75"/>
        <polyline class="ip" points="738.18 975.75 739.18 975.75 739.18 976.75"/>
        <line class="ii" x1="739.18" y1="977.75" x2="739.18" y2="1025.28"/>
      </g>
    </g>
    <g id="ch" data-name="ARC">
      <g>
        <path class="ip" d="M739.18,975.75c-.33,0-.67,0-1,0"/>
        <path class="iu" d="M737.19,975.79c-26.76,1.03-48.24,22.66-49.01,49.49"/>
        <path class="ip" d="M688.17,1025.78c0,.33,0,.67,0,1"/>
      </g>
    </g>
    <g id="ci" data-name="LWPOLYLINE">
      <g>
        <polyline class="ip" points="607.84 1093.81 607.84 1094.81 606.14 1094.81 606.14 1093.81"/>
        <line class="io" x1="606.14" y1="1092.78" x2="606.14" y2="1062.31"/>
        <polyline class="ip" points="606.14 1061.79 606.14 1060.79 607.84 1060.79 607.84 1061.79"/>
        <line class="io" x1="607.84" y1="1062.83" x2="607.84" y2="1093.29"/>
      </g>
    </g>
    <g id="cj" data-name="ARC">
      <g>
        <path class="ip" d="M607.84,1060.79c-.33,0-.67,0-1,.01"/>
        <path class="ic" d="M605.86,1060.85c-17.37,1-31.24,15.03-32,32.46"/>
        <path class="ip" d="M573.84,1093.81c0,.33-.01.67-.01,1"/>
      </g>
    </g>
    <g id="ck" data-name="LINE">
      <line class="ip" x1="598.87" y1="1181.26" x2="682.21" y2="1181.26"/>
    </g>
    <g id="cl" data-name="LINE">
      <line class="ip" x1="685.04" y1="1181.26" x2="729.26" y2="1181.26"/>
    </g>
    <g id="cm" data-name="LINE">
      <line class="ip" x1="598.87" y1="1189.77" x2="682.21" y2="1189.77"/>
    </g>
    <g id="cn" data-name="LINE">
      <line class="ip" x1="685.04" y1="1189.77" x2="729.26" y2="1189.77"/>
    </g>
    <g id="co" data-name="LINE">
      <line class="ip" x1="757.61" y1="1181.26" x2="913.51" y2="1181.26"/>
    </g>
    <g id="cp" data-name="LINE">
      <line class="ip" x1="757.61" y1="1189.77" x2="913.51" y2="1189.77"/>
    </g>
    <g id="cq" data-name="LINE">
      <line class="ip" x1="935.53" y1="1181.51" x2="1031.06" y2="1097.39"/>
    </g>
    <g id="cr" data-name="LINE">
      <line class="ip" x1="1036.68" y1="1103.77" x2="941.15" y2="1187.9"/>
    </g>
    <g id="cs" data-name="LINE">
      <line class="ip" x1="452.88" y1="1181.26" x2="570.52" y2="1181.26"/>
    </g>
    <g id="ct" data-name="LINE">
      <line class="ip" x1="444.38" y1="1189.77" x2="570.52" y2="1189.77"/>
    </g>
    <g id="cu" data-name="LWPOLYLINE">
      <polyline class="ip" points="929.1 1035.28 1030.3 1035.28 1030.3 1076.38"/>
    </g>
    <g id="cv" data-name="LINE">
      <line class="ip" x1="926.27" y1="1035.28" x2="744.85" y2="1035.28"/>
    </g>
    <g id="cw" data-name="LINE">
      <line class="ip" x1="926.27" y1="1026.78" x2="744.85" y2="1026.78"/>
    </g>
    <g id="cx" data-name="LINE">
      <line class="ip" x1="691.56" y1="1026.78" x2="735.78" y2="1026.78"/>
    </g>
    <g id="cy" data-name="LINE">
      <line class="ip" x1="735.78" y1="1030.18" x2="691.56" y2="1030.18"/>
    </g>
    <g id="cz" data-name="LINE">
      <line class="ip" x1="682.49" y1="1035.28" x2="644.69" y2="1035.28"/>
    </g>
    <g id="da" data-name="LINE">
      <line class="ip" x1="682.49" y1="1026.78" x2="644.69" y2="1026.78"/>
    </g>
    <g id="db" data-name="LWPOLYLINE">
      <polyline class="ip" points="929.1 1026.78 1038.8 1026.78 1038.8 1076.38"/>
    </g>
    <g id="dc" data-name="LWPOLYLINE">
      <polyline class="ip" points="530.84 1026.78 530.84 869.45 435.87 869.45 435.87 1026.78"/>
    </g>
    <g id="dd" data-name="LWPOLYLINE">
      <polyline class="ip" points="1038.8 1026.78 1038.8 855.28 794.17 855.28 794.17 869.45"/>
    </g>
    <g id="de" data-name="LWPOLYLINE">
      <polyline class="ip" points="530.84 883.63 808.35 883.63 808.35 869.45 530.84 869.45"/>
    </g>
    <g id="df" data-name="LWPOLYLINE">
      <rect class="ij" x="596.03" y="1181.26" width="2.83" height="5.67"/>
    </g>
    <g id="dg" data-name="LWPOLYLINE">
      <polyline class="ij" points="596.88 1186.93 596.88 1188.07 598.02 1188.07 598.02 1186.93"/>
    </g>
    <g id="dh" data-name="LINE">
      <line class="ij" x1="597.45" y1="1188.07" x2="597.45" y2="1189.77"/>
    </g>
    <g id="di" data-name="LWPOLYLINE">
      <polyline class="ij" points="596.03 1189.07 596.03 1189.77 598.87 1189.77 598.87 1189.08"/>
    </g>
    <g id="dj" data-name="LWPOLYLINE">
      <rect class="ij" x="729.26" y="1181.26" width="2.83" height="5.67"/>
    </g>
    <g id="dk" data-name="LWPOLYLINE">
      <polyline class="ij" points="730.11 1186.93 730.11 1188.07 731.24 1188.07 731.24 1186.93"/>
    </g>
    <g id="dl" data-name="LINE">
      <line class="ij" x1="730.68" y1="1188.07" x2="730.68" y2="1189.77"/>
    </g>
    <g id="dm" data-name="LWPOLYLINE">
      <polyline class="ij" points="729.26 1189.07 729.26 1189.77 732.1 1189.77 732.1 1189.08"/>
    </g>
    <g id="dn" data-name="LWPOLYLINE">
      <rect class="ij" x="913.51" y="1181.26" width="2.83" height="5.67"/>
    </g>
    <g id="do" data-name="LWPOLYLINE">
      <polyline class="ij" points="914.36 1186.93 914.36 1188.07 915.5 1188.07 915.5 1186.93"/>
    </g>
    <g id="dp" data-name="LINE">
      <line class="ij" x1="914.93" y1="1188.07" x2="914.93" y2="1189.77"/>
    </g>
    <g id="dq" data-name="LWPOLYLINE">
      <polyline class="ij" points="913.51 1189.07 913.51 1189.77 916.35 1189.77 916.35 1189.08"/>
    </g>
    <g id="dr" data-name="LWPOLYLINE">
      <rect class="ij" x="934.92" y="1181.74" width="2.83" height="5.67" transform="translate(-549.25 914.44) rotate(-41.37)"/>
    </g>
    <g id="ds" data-name="LWPOLYLINE">
      <polyline class="ij" points="937.79 1187.08 938.54 1187.93 939.39 1187.18 938.64 1186.33"/>
    </g>
    <g id="dt" data-name="LINE">
      <line class="ij" x1="938.96" y1="1187.56" x2="940.09" y2="1188.83"/>
    </g>
    <g id="du" data-name="LWPOLYLINE">
      <polyline class="ij" points="938.56 1189.24 939.02 1189.77 941.15 1187.9 940.69 1187.38"/>
    </g>
    <g id="dv" data-name="LWPOLYLINE">
      <rect class="ij" x="754.77" y="1181.26" width="2.83" height="5.67"/>
    </g>
    <g id="dw" data-name="LWPOLYLINE">
      <polyline class="ij" points="755.62 1186.93 755.62 1188.07 756.76 1188.07 756.76 1186.93"/>
    </g>
    <g id="dx" data-name="LINE">
      <line class="ij" x1="756.19" y1="1188.07" x2="756.19" y2="1189.77"/>
    </g>
    <g id="dy" data-name="LWPOLYLINE">
      <polyline class="ij" points="754.77 1189.07 754.77 1189.77 757.61 1189.77 757.61 1189.08"/>
    </g>
    <g id="dz" data-name="LWPOLYLINE">
      <rect class="ij" x="1032.58" y="1095.74" width="2.83" height="5.67" transform="translate(-468.04 957.52) rotate(-41.37)"/>
    </g>
    <g id="ea" data-name="LWPOLYLINE">
      <polyline class="ij" points="1035.44 1101.08 1036.19 1101.93 1037.04 1101.18 1036.29 1100.33"/>
    </g>
    <g id="eb" data-name="LINE">
      <line class="ij" x1="1036.62" y1="1101.56" x2="1037.74" y2="1102.83"/>
    </g>
    <g id="ec" data-name="LWPOLYLINE">
      <polyline class="ij" points="1036.21 1103.24 1036.68 1103.77 1038.8 1101.89 1038.35 1101.38"/>
    </g>
    <g id="ed" data-name="LWPOLYLINE">
      <rect class="ij" x="1030.3" y="1076.38" width="5.67" height="2.83"/>
    </g>
    <g id="ee" data-name="LWPOLYLINE">
      <polyline class="ij" points="1035.97 1078.37 1037.1 1078.37 1037.1 1077.23 1035.97 1077.23"/>
    </g>
    <g id="ef" data-name="LINE">
      <line class="ij" x1="1037.1" y1="1077.8" x2="1038.8" y2="1077.8"/>
    </g>
    <g id="eg" data-name="LWPOLYLINE">
      <polyline class="ij" points="1038.1 1079.22 1038.8 1079.22 1038.8 1076.38 1038.11 1076.38"/>
    </g>
    <g id="eh" data-name="LWPOLYLINE">
      <rect class="ij" x="682.21" y="1181.26" width="2.83" height="5.67"/>
    </g>
    <g id="ei" data-name="LWPOLYLINE">
      <polyline class="ij" points="683.06 1186.93 683.06 1188.07 684.19 1188.07 684.19 1186.93"/>
    </g>
    <g id="ej" data-name="LINE">
      <line class="ij" x1="683.62" y1="1188.07" x2="683.62" y2="1189.77"/>
    </g>
    <g id="ek" data-name="LWPOLYLINE">
      <polyline class="ij" points="682.21 1189.07 682.21 1189.77 685.04 1189.77 685.04 1189.08"/>
    </g>
    <g id="el" data-name="LWPOLYLINE">
      <rect class="ij" x="926.27" y="1029.61" width="2.83" height="5.67"/>
    </g>
    <g id="em" data-name="LWPOLYLINE">
      <polyline class="ij" points="928.25 1029.61 928.25 1028.48 927.12 1028.48 927.12 1029.61"/>
    </g>
    <g id="en" data-name="LINE">
      <line class="ij" x1="927.69" y1="1028.48" x2="927.69" y2="1026.78"/>
    </g>
    <g id="eo" data-name="LWPOLYLINE">
      <polyline class="ij" points="929.1 1027.48 929.1 1026.78 926.27 1026.78 926.27 1027.47"/>
    </g>
    <g id="ep" data-name="LWPOLYLINE">
      <rect class="ij" x="742.02" y="1029.61" width="2.83" height="5.67"/>
    </g>
    <g id="eq" data-name="LWPOLYLINE">
      <polyline class="ij" points="744 1029.61 744 1028.48 742.87 1028.48 742.87 1029.61"/>
    </g>
    <g id="er" data-name="LINE">
      <line class="ij" x1="743.43" y1="1028.48" x2="743.43" y2="1026.78"/>
    </g>
    <g id="es" data-name="LWPOLYLINE">
      <polyline class="ij" points="744.85 1027.48 744.85 1026.78 742.02 1026.78 742.02 1027.47"/>
    </g>
    <g id="et" data-name="LWPOLYLINE">
      <rect class="ij" x="641.86" y="1029.61" width="2.83" height="5.67"/>
    </g>
    <g id="eu" data-name="LWPOLYLINE">
      <polyline class="ij" points="643.84 1029.61 643.84 1028.48 642.71 1028.48 642.71 1029.61"/>
    </g>
    <g id="ev" data-name="LINE">
      <line class="ij" x1="643.28" y1="1028.48" x2="643.28" y2="1026.78"/>
    </g>
    <g id="ew" data-name="LWPOLYLINE">
      <polyline class="ij" points="644.69 1027.48 644.69 1026.78 641.86 1026.78 641.86 1027.47"/>
    </g>
    <g id="ex" data-name="LWPOLYLINE">
      <rect class="ij" x="441.54" y="1181.26" width="2.83" height="5.67"/>
    </g>
    <g id="ey" data-name="LWPOLYLINE">
      <polyline class="ij" points="442.39 1186.93 442.39 1188.07 443.53 1188.07 443.53 1186.93"/>
    </g>
    <g id="ez" data-name="LINE">
      <line class="ij" x1="442.96" y1="1188.07" x2="442.96" y2="1189.77"/>
    </g>
    <g id="fa" data-name="LWPOLYLINE">
      <polyline class="ij" points="441.54 1189.07 441.54 1189.77 444.38 1189.77 444.38 1189.08"/>
    </g>
    <g id="fb" data-name="LWPOLYLINE">
      <rect class="ij" x="570.52" y="1181.26" width="2.83" height="5.67"/>
    </g>
    <g id="fc" data-name="LWPOLYLINE">
      <polyline class="ij" points="571.37 1186.93 571.37 1188.07 572.5 1188.07 572.5 1186.93"/>
    </g>
    <g id="fd" data-name="LINE">
      <line class="ij" x1="571.94" y1="1188.07" x2="571.94" y2="1189.77"/>
    </g>
    <g id="fe" data-name="LWPOLYLINE">
      <polyline class="ij" points="570.52 1189.07 570.52 1189.77 573.36 1189.77 573.36 1189.08"/>
    </g>
    <g id="ff" data-name="LWPOLYLINE">
      <rect class="ij" x="682.49" y="1029.61" width="2.83" height="5.67"/>
    </g>
    <g id="fg" data-name="LWPOLYLINE">
      <polyline class="ij" points="684.47 1029.61 684.47 1028.48 683.34 1028.48 683.34 1029.61"/>
    </g>
    <g id="fh" data-name="LINE">
      <line class="ij" x1="683.91" y1="1028.48" x2="683.91" y2="1026.78"/>
    </g>
    <g id="fi" data-name="LWPOLYLINE">
      <polyline class="ij" points="685.32 1027.48 685.32 1026.78 682.49 1026.78 682.49 1027.47"/>
    </g>
    <g id="fj" data-name="LWPOLYLINE">
      <rect class="ij" x="735.78" y="1026.78" width="3.4" height="3.4"/>
    </g>
    <g id="fk" data-name="LWPOLYLINE">
      <rect class="ij" x="688.16" y="1026.78" width="3.4" height="3.4"/>
    </g>
    <g id="fl" data-name="LWPOLYLINE">
      <rect class="ij" x="685.32" y="1029.61" width="2.83" height="5.67"/>
    </g>
    <g id="fm" data-name="LWPOLYLINE">
      <polyline class="ij" points="687.31 1029.61 687.31 1028.48 686.17 1028.48 686.17 1029.61"/>
    </g>
    <g id="fn" data-name="LINE">
      <line class="ij" x1="686.74" y1="1028.48" x2="686.74" y2="1026.78"/>
    </g>
    <g id="fo" data-name="LWPOLYLINE">
      <polyline class="ij" points="688.16 1027.48 688.16 1026.78 685.32 1026.78 685.32 1027.47"/>
    </g>
    <g id="fp" data-name="LWPOLYLINE">
      <rect class="ij" x="739.18" y="1029.61" width="2.83" height="5.67"/>
    </g>
    <g id="fq" data-name="LWPOLYLINE">
      <polyline class="ij" points="741.17 1029.61 741.17 1028.48 740.03 1028.48 740.03 1029.61"/>
    </g>
    <g id="fr" data-name="LINE">
      <line class="ij" x1="740.6" y1="1028.48" x2="740.6" y2="1026.78"/>
    </g>
    <g id="fs" data-name="LWPOLYLINE">
      <polyline class="ij" points="742.02 1027.48 742.02 1026.78 739.18 1026.78 739.18 1027.47"/>
    </g>
    <g id="ft" data-name="LWPOLYLINE">
      <rect class="ij" x="738.05" y="1055.12" width="2.83" height="8.5"/>
    </g>
    <g id="fu" data-name="LWPOLYLINE">
      <rect class="ij" x="570.99" y="1094.81" width="2.83" height="5.67"/>
    </g>
    <g id="fv" data-name="LWPOLYLINE">
      <rect class="ij" x="607.84" y="1094.81" width="2.83" height="5.67"/>
    </g>
    <g id="fw" data-name="LWPOLYLINE">
      <rect class="ij" x="573.83" y="1094.81" width="34.02" height="1.7"/>
    </g>
    <g id="fx" data-name="LWPOLYLINE">
      <polyline class="ij" points="641.86 1026.78 435.87 1026.78 435.87 1189.77 441.54 1189.77"/>
    </g>
    <g id="fy" data-name="LWPOLYLINE">
      <polyline class="ij" points="1038.8 1079.22 1025.76 1079.22 1025.76 1097.39 1031.06 1097.39"/>
    </g>
    <g id="fz" data-name="LWPOLYLINE">
      <polyline class="ij" points="916.35 1189.77 916.35 1176.73 935.53 1176.73 935.53 1181.51"/>
    </g>
    <g id="ga" data-name="LWPOLYLINE">
      <polyline class="ij" points="754.77 1189.77 754.77 1176.73 732.1 1176.73 732.1 1189.77"/>
    </g>
    <g id="gb" data-name="LWPOLYLINE">
      <polyline class="ij" points="596.03 1189.77 596.03 1176.73 573.36 1176.73 573.36 1189.77"/>
    </g>
    <g id="gc" data-name="LWPOLYLINE">
      <rect class="ij" x="738.61" y="1101.04" width="5.67" height="42.52"/>
    </g>
    <g id="gd" data-name="LWPOLYLINE">
      <polyline class="ij" points="570.99 1094.81 530.84 1094.81 530.84 1040.95 636.19 1040.95 636.19 1094.81 610.68 1094.81"/>
    </g>
    <g id="ge" data-name="LWPOLYLINE">
      <polyline class="ij" points="610.68 1100.48 641.86 1100.48 641.86 1035.28"/>
    </g>
    <g id="gf" data-name="LWPOLYLINE">
      <polyline class="ij" points="452.88 1040.95 525.17 1040.95 525.17 1100.48 570.99 1100.48"/>
    </g>
    <g id="gg" data-name="LWPOLYLINE">
      <rect class="ib" x="732.1" y="1189.77" width="22.68" height="11.91"/>
    </g>
    <g id="gh" data-name="LWPOLYLINE">
      <rect class="ib" x="916.35" y="1189.77" width="22.68" height="11.91"/>
    </g>
    <g id="gi" data-name="LWPOLYLINE">
      <rect class="ib" x="573.36" y="1189.77" width="22.68" height="11.91"/>
    </g>
    <g id="gj" data-name="LWPOLYLINE">
      <rect class="ib" x="1038.8" y="1079.22" width="11.91" height="22.68"/>
    </g>
    <g id="gk" data-name="LINE">
      <line class="iq" x1="452.88" y1="1029.61" x2="641.86" y2="1029.61"/>
    </g>
    <g id="gl" data-name="LINE">
      <line class="iq" x1="452.88" y1="1035.28" x2="641.86" y2="1035.28"/>
    </g>
    <g id="gm" data-name="LWPOLYLINE">
      <rect class="iq" x="739.18" y="1165.67" width="8.5" height="8.5"/>
    </g>
    <g id="gn" data-name="LWPOLYLINE">
      <rect class="iq" x="923.43" y="1165.67" width="8.5" height="8.5"/>
    </g>
    <g id="go" data-name="LWPOLYLINE">
      <rect class="iq" x="1014.71" y="1086.3" width="8.5" height="8.5"/>
    </g>
    <g id="gp" data-name="LWPOLYLINE">
      <rect class="iq" x="461.39" y="1165.67" width="8.5" height="8.5"/>
    </g>
    <g id="gq" data-name="LWPOLYLINE">
      <rect class="iq" x="580.44" y="1165.67" width="8.5" height="8.5"/>
    </g>
    <g id="gr" data-name="LWPOLYLINE">
      <rect class="iq" x="1014.71" y="1040.95" width="8.5" height="8.5"/>
    </g>
    <g id="gs" data-name="LWPOLYLINE">
      <rect class="iq" x="923.43" y="1040.95" width="8.5" height="8.5"/>
    </g>
    <g id="gt" data-name="LWPOLYLINE">
      <rect class="iq" x="739.18" y="1040.95" width="8.5" height="8.5"/>
    </g>
    <g id="gu" data-name="LWPOLYLINE">
      <rect class="iq" x="580.44" y="1040.95" width="8.5" height="8.5"/>
    </g>
    <g id="gv" data-name="LWPOLYLINE">
      <rect class="iq" x="461.39" y="1040.95" width="8.5" height="8.5"/>
    </g>
    <g id="gw" data-name="LWPOLYLINE">
      <rect class="iq" x="581.12" y="1166.35" width="7.14" height="7.14"/>
    </g>
    <g id="gx" data-name="LWPOLYLINE">
      <rect class="iq" x="462.07" y="1166.35" width="7.14" height="7.14"/>
    </g>
    <g id="gy" data-name="LWPOLYLINE">
      <rect class="iq" x="462.07" y="1041.63" width="7.14" height="7.14"/>
    </g>
    <g id="gz" data-name="LWPOLYLINE">
      <rect class="iq" x="581.12" y="1041.63" width="7.14" height="7.14"/>
    </g>
    <g id="ha" data-name="LWPOLYLINE">
      <rect class="iq" x="739.86" y="1041.63" width="7.14" height="7.14"/>
    </g>
    <g id="hb" data-name="LWPOLYLINE">
      <rect class="iq" x="739.86" y="1166.35" width="7.14" height="7.14"/>
    </g>
    <g id="hc" data-name="LWPOLYLINE">
      <rect class="iq" x="924.11" y="1166.35" width="7.14" height="7.14"/>
    </g>
    <g id="hd" data-name="LWPOLYLINE">
      <rect class="iq" x="1015.39" y="1086.98" width="7.14" height="7.14"/>
    </g>
    <g id="he" data-name="LWPOLYLINE">
      <rect class="iq" x="1015.39" y="1041.63" width="7.14" height="7.14"/>
    </g>
    <g id="hf" data-name="LWPOLYLINE">
      <rect class="iq" x="924.11" y="1041.63" width="7.14" height="7.14"/>
    </g>
    <g id="hg" data-name="LWPOLYLINE">
      <rect class="if" x="441.54" y="1029.61" width="11.34" height="151.65"/>
    </g>
    <g id="hh" data-name="LWPOLYLINE">
      <polyline class="ip" points="1025.76 1026.78 1025.76 869.45 808.35 869.45"/>
    </g>
  </g>
  <g id="hm" data-name="SCALE">
    <g>
      <g id="hn" data-name="CIRCLE">
        <circle class="ib" cx="112.87" cy="1869.8" r="14.88"/>
      </g>
      <g id="ho" data-name="TEXT">
        <text class="id" transform="translate(116.4 1851.78) rotate(22.03) scale(.9 1)"><tspan x="0" y="0">N</tspan></text>
      </g>
      <g id="hp" data-name="HATCH">
        <path class="ie" d="M118.45,1856c-.23-.09-.46-.18-.7-.26l-5.57,13.78.69.28,5.58-13.8Z"/>
      </g>
      <g id="hq" data-name="HATCH">
        <path class="ie" d="M119.14,1856.3c-.23-.1-.45-.2-.69-.3l-5.58,13.8.69.28,5.57-13.78Z"/>
      </g>
      <g id="hr" data-name="LINE">
        <line class="ib" x1="117.75" y1="1855.74" x2="112.18" y2="1869.52"/>
      </g>
      <g id="hs" data-name="LINE">
        <line class="ib" x1="119.14" y1="1856.3" x2="113.56" y2="1870.08"/>
      </g>
      <g id="ht" data-name="LINE">
        <line class="ib" x1="112.87" y1="1869.8" x2="118.45" y2="1856"/>
      </g>
      <g id="hu" data-name="MTEXT">
        <text class="ik" transform="translate(176.46 1886.03)"><tspan x="0" y="0">0</tspan></text>
      </g>
      <g id="hv" data-name="MTEXT">
        <text class="ik" transform="translate(261.48 1886.03)"><tspan x="0" y="0">3</tspan></text>
      </g>
      <g id="hw" data-name="MTEXT">
        <text class="ik" transform="translate(346.55 1886.03)"><tspan x="0" y="0">6</tspan></text>
      </g>
      <g id="hx" data-name="MTEXT">
        <text class="ik" transform="translate(205.35 1886.03)"><tspan x="0" y="0">1</tspan></text>
      </g>
      <g id="hy" data-name="MTEXT">
        <text class="ik" transform="translate(425.11 1886.03)"><tspan x="0" y="0">9m</tspan></text>
      </g>
      <g id="hz" data-name="LWPOLYLINE">
        <polyline class="ib" points="435.93 1853.39 435.93 1870.4 350.89 1870.4 350.89 1853.39 265.85 1853.39 265.85 1870.4 209.16 1870.4 209.16 1853.39 180.81 1853.39 180.81 1870.4"/>
      </g>
    </g>
  </g>
</svg>