<?xml version="1.0" encoding="UTF-8"?>
<svg xmlns="http://www.w3.org/2000/svg" viewBox="0 0 1500 2000">
  <defs>
    <style>
      .ai {
        stroke-width: .18px;
      }

      .ai, .aj, .ak, .al, .am, .an, .ao {
        stroke: #000;
      }

      .ai, .aj, .al, .an, .ao {
        stroke-miterlimit: 10;
      }

      .ai, .aj, .an, .ao {
        fill: none;
      }

      .aj, .ak, .al, .am {
        stroke-width: .5px;
      }

      .ak {
        font-family: SUITVariable-Regular, 'SUIT Variable';
        font-size: 11.26px;
        font-variation-settings: 'wght' 400;
      }

      .ak, .al, .am {
        fill: #040000;
      }

      .al {
        fill-rule: evenodd;
      }

      .am {
        font-family: SUITVariable-Medium, 'SUIT Variable';
        font-size: 16.01px;
        font-variation-settings: 'wght' 500;
        font-weight: 500;
      }

      .an {
        stroke-width: .25px;
      }

      .ao {
        stroke-width: .1px;
      }
    </style>
  </defs>
  <g id="f" data-name="F6">
    <g id="g" data-name="HATCH">
      <path class="ao" d="M435.87,1021.39v180.28h509.06s105.77-93.15,105.77-93.15v-87.13s-614.83,0-614.83,0M435.87,798.02v71.43h94.96s263.34,0,263.34,0v-14.17h244.63v-57.26H435.87Z"/>
      <path class="ao" d="M443.36,1201.67v-180.28M443.36,869.45v-71.43M451.38,1201.67v-180.28M451.38,869.45v-71.43M459.39,1201.67v-180.28M459.39,869.45v-71.43M467.41,1201.67v-180.28M467.41,869.45v-71.43M475.43,1201.67v-180.28M475.43,869.45v-71.43M483.45,1201.67v-180.28M483.45,869.45v-71.43M491.46,1201.67v-180.28M491.46,869.45v-71.43M499.48,1201.67v-180.28M499.48,869.45v-71.43M507.5,1201.67v-180.28M507.5,869.45v-71.43M515.52,1201.67v-180.28M515.52,869.45v-71.43M523.53,1201.67v-180.28M523.53,869.45v-71.43M531.55,1201.67v-180.28M531.55,869.45v-71.43M539.57,1201.67v-180.28M539.57,869.45v-71.43M547.59,1201.67v-180.28M547.59,869.45v-71.43M555.6,1201.67v-180.28M555.6,869.45v-71.43M563.62,1201.67v-180.28M563.62,869.45v-71.43M571.64,1201.67v-180.28M571.64,869.45v-71.43M579.66,1201.67v-180.28M579.66,869.45v-71.43M587.67,1201.67v-180.28M587.67,869.45v-71.43M595.69,1201.67v-180.28M595.69,869.45v-71.43M603.71,1201.67v-180.28M603.71,869.45v-71.43M611.73,1201.67v-180.28M611.73,869.45v-71.43M619.74,1201.67v-180.28M619.74,869.45v-71.43M627.76,1201.67v-180.28M627.76,869.45v-71.43M635.78,1201.67v-180.28M635.78,869.45v-71.43M643.8,1201.67v-180.28M643.8,869.45v-71.43M651.81,1201.67v-180.28M651.81,869.45v-71.43M659.83,1201.67v-180.28M659.83,869.45v-71.43M667.85,1201.67v-180.28M667.85,869.45v-71.43M675.87,1201.67v-180.28M675.87,869.45v-71.43M683.89,1201.67v-180.28M683.89,869.45v-71.43M691.9,1201.67v-180.28M691.9,869.45v-71.43M699.92,1201.67v-180.28M699.92,869.45v-71.43M707.94,1201.67v-180.28M707.94,869.45v-71.43M715.96,1201.67v-180.28M715.96,869.45v-71.43M723.97,1201.67v-180.28M723.97,869.45v-71.43M731.99,1201.67v-180.28M731.99,869.45v-71.43M740.01,1201.67v-180.28M740.01,869.45v-71.43M748.03,1201.67v-180.28M748.03,869.45v-71.43M756.04,1201.67v-180.28M756.04,869.45v-71.43M764.06,1201.67v-180.28M764.06,869.45v-71.43M772.08,1201.67v-180.28M772.08,869.45v-71.43M780.1,1201.67v-180.28M780.1,869.45v-71.43M788.11,1201.67v-180.28M788.11,869.45v-71.43M796.13,1201.67v-180.28M796.13,855.28v-57.26M804.15,1201.67v-180.28M804.15,855.28v-57.26M812.17,1201.67v-180.28M812.17,855.28v-57.26M820.18,1201.67v-180.28M820.18,855.28v-57.26M828.2,1201.67v-180.28M828.2,855.28v-57.26M836.22,1201.67v-180.28M836.22,855.28v-57.26M844.24,1201.67v-180.28M844.24,855.28v-57.26M852.25,1201.67v-180.28M852.25,855.28v-57.26M860.27,1201.67v-180.28M860.27,855.28v-57.26M868.29,1201.67v-180.28M868.29,855.28v-57.26M876.31,1201.67v-180.28M876.31,855.28v-57.26M884.32,1201.67v-180.28M884.32,855.28v-57.26M892.34,1201.67v-180.28M892.34,855.28v-57.26M900.36,1201.67v-180.28M900.36,855.28v-57.26M908.38,1201.67v-180.28M908.38,855.28v-57.26M916.4,1201.67v-180.28M916.4,855.28v-57.26M924.41,1201.67v-180.28M924.41,855.28v-57.26M932.43,1201.67v-180.28M932.43,855.28v-57.26M940.45,1201.67v-180.28M940.45,855.28v-57.26M948.47,1198.57v-177.18M948.47,855.28v-57.26M956.48,1191.51v-170.11M956.48,855.28v-57.26M964.5,1184.44v-163.05M964.5,855.28v-57.26M972.52,1177.38v-155.99M972.52,855.28v-57.26M980.54,1170.32v-148.93M980.54,855.28v-57.26M988.55,1163.26v-141.87M988.55,855.28v-57.26M996.57,1156.2v-134.81M996.57,855.28v-57.26M1004.59,1149.14v-127.75M1004.59,855.28v-57.26M1012.61,1142.08v-120.69M1012.61,855.28v-57.26M1020.62,1135.02v-113.63M1020.62,855.28v-57.26M1028.64,1127.96v-106.57M1028.64,855.28v-57.26M1036.66,1120.9v-99.51M1036.66,855.28v-57.26M1044.68,1113.84v-92.44"/>
    </g>
    <g id="h" data-name="HATCH">
      <rect class="ao" x="435.87" y="869.45" width="94.96" height="151.94"/>
      <path class="ao" d="M437.34,1021.39v-151.94M443.36,1021.39v-151.94M449.37,1021.39v-151.94M455.38,1021.39v-151.94M461.4,1021.39v-151.94M467.41,1021.39v-151.94M473.42,1021.39v-151.94M479.44,1021.39v-151.94M485.45,1021.39v-151.94M491.46,1021.39v-151.94M497.48,1021.39v-151.94M503.49,1021.39v-151.94M509.5,1021.39v-151.94M515.52,1021.39v-151.94M521.53,1021.39v-151.94M527.54,1021.39v-151.94"/>
    </g>
    <g id="i" data-name="LWPOLYLINE">
      <polyline class="ai" points="530.84 869.45 808.35 869.45 808.35 883.63 530.84 883.63"/>
    </g>
    <g id="j" data-name="LWPOLYLINE">
      <polyline class="ai" points="1025.76 1021.39 1025.76 869.45 808.35 869.45"/>
    </g>
    <g id="k" data-name="LWPOLYLINE">
      <polyline class="ai" points="1038.8 1021.39 1038.8 855.28 794.17 855.28 794.17 869.45"/>
    </g>
    <g id="l" data-name="LWPOLYLINE">
      <polygon class="ai" points="1037.1 1021.96 1037.1 856.98 795.31 856.98 795.31 859.25 1034.84 859.25 1034.84 1021.96 1037.1 1021.96"/>
    </g>
    <g id="m" data-name="LWPOLYLINE">
      <polyline class="ai" points="1050.71 1021.39 1050.71 798.02 435.87 798.02 435.87 869.45"/>
    </g>
    <g id="n" data-name="LINE">
      <line class="ai" x1="1038.8" y1="855.28" x2="1038.8" y2="798.02"/>
    </g>
    <g id="o" data-name="LWPOLYLINE">
      <polyline class="an" points="530.84 1021.39 530.84 869.45 435.87 869.45 435.87 1021.39"/>
    </g>
    <g id="p" data-name="LWPOLYLINE">
      <polygon class="an" points="944.94 1201.67 1050.71 1108.52 1050.71 1021.39 435.87 1021.39 435.87 1201.67 944.94 1201.67"/>
    </g>
    <g id="q" data-name="HATCH">
      <path class="ai" d="M530.84,885.76h494.93M530.84,921.76h494.93M530.84,957.76h494.93M530.84,993.76h494.93M550.72,1021.39v-137.76M586.72,1021.39v-137.76M622.72,1021.39v-137.76M658.72,1021.39v-137.76M694.72,1021.39v-137.76M730.72,1021.39v-137.76M766.72,1021.39v-137.76M802.72,1021.39v-137.76M838.72,1021.39v-151.94M874.72,1021.39v-151.94M910.72,1021.39v-151.94M946.72,1021.39v-151.94M982.72,1021.39v-151.94M1018.72,1021.39v-151.94"/>
    </g>
  </g>
  <g id="u" data-name="SCALE">
    <g>
      <g id="v" data-name="CIRCLE">
        <circle class="aj" cx="112.87" cy="1869.8" r="14.88"/>
      </g>
      <g id="w" data-name="TEXT">
        <text class="ak" transform="translate(116.4 1851.78) rotate(22.03) scale(.9 1)"><tspan x="0" y="0">N</tspan></text>
      </g>
      <g id="x" data-name="HATCH">
        <path class="al" d="M118.45,1856c-.23-.09-.46-.18-.7-.26l-5.57,13.78.69.28,5.58-13.8Z"/>
      </g>
      <g id="y" data-name="HATCH">
        <path class="al" d="M119.14,1856.3c-.23-.1-.45-.2-.69-.3l-5.58,13.8.69.28,5.57-13.78Z"/>
      </g>
      <g id="z" data-name="LINE">
        <line class="aj" x1="117.75" y1="1855.74" x2="112.18" y2="1869.52"/>
      </g>
      <g id="aa" data-name="LINE">
        <line class="aj" x1="119.14" y1="1856.3" x2="113.56" y2="1870.08"/>
      </g>
      <g id="ab" data-name="LINE">
        <line class="aj" x1="112.87" y1="1869.8" x2="118.45" y2="1856"/>
      </g>
      <g id="ac" data-name="MTEXT">
        <text class="am" transform="translate(176.46 1886.03)"><tspan x="0" y="0">0</tspan></text>
      </g>
      <g id="ad" data-name="MTEXT">
        <text class="am" transform="translate(261.48 1886.03)"><tspan x="0" y="0">3</tspan></text>
      </g>
      <g id="ae" data-name="MTEXT">
        <text class="am" transform="translate(346.55 1886.03)"><tspan x="0" y="0">6</tspan></text>
      </g>
      <g id="af" data-name="MTEXT">
        <text class="am" transform="translate(205.35 1886.03)"><tspan x="0" y="0">1</tspan></text>
      </g>
      <g id="ag" data-name="MTEXT">
        <text class="am" transform="translate(425.11 1886.03)"><tspan x="0" y="0">9m</tspan></text>
      </g>
      <g id="ah" data-name="LWPOLYLINE">
        <polyline class="aj" points="435.93 1853.39 435.93 1870.4 350.89 1870.4 350.89 1853.39 265.85 1853.39 265.85 1870.4 209.16 1870.4 209.16 1853.39 180.81 1853.39 180.81 1870.4"/>
      </g>
    </g>
  </g>
</svg>