<?xml version="1.0" encoding="UTF-8"?>
<svg xmlns="http://www.w3.org/2000/svg" viewBox="0 0 2000 1500">
  <defs>
    <style>
      .ah {
        stroke-width: .18px;
      }

      .ah, .ai, .aj, .ak, .al, .am, .an {
        stroke: #000;
      }

      .ah, .ai, .aj, .ak, .am {
        stroke-miterlimit: 10;
      }

      .ah, .ai, .ak, .am {
        fill: none;
      }

      .ai, .aj, .al, .an {
        stroke-width: .5px;
      }

      .aj {
        fill-rule: evenodd;
      }

      .aj, .al, .an {
        fill: #040000;
      }

      .ak {
        stroke-width: .25px;
      }

      .al {
        font-family: ArialMT, Arial;
        font-size: 16.01px;
      }

      .am {
        stroke-width: .1px;
      }

      .an {
        font-family: MalgunGothic, 'Malgun Gothic';
        font-size: 11.26px;
      }
    </style>
  </defs>
  <g id="f" data-name="F6">
    <g id="g" data-name="HATCH">
      <path class="am" d="M685.87,771.39v180.28h509.06s105.77-93.15,105.77-93.15v-87.13s-614.83,0-614.83,0M685.87,548.02v71.43h94.96s263.34,0,263.34,0v-14.17h244.63v-57.26h-602.93Z"/>
      <path class="am" d="M693.36,951.67v-180.28M693.36,619.45v-71.43M701.38,951.67v-180.28M701.38,619.45v-71.43M709.39,951.67v-180.28M709.39,619.45v-71.43M717.41,951.67v-180.28M717.41,619.45v-71.43M725.43,951.67v-180.28M725.43,619.45v-71.43M733.45,951.67v-180.28M733.45,619.45v-71.43M741.46,951.67v-180.28M741.46,619.45v-71.43M749.48,951.67v-180.28M749.48,619.45v-71.43M757.5,951.67v-180.28M757.5,619.45v-71.43M765.52,951.67v-180.28M765.52,619.45v-71.43M773.53,951.67v-180.28M773.53,619.45v-71.43M781.55,951.67v-180.28M781.55,619.45v-71.43M789.57,951.67v-180.28M789.57,619.45v-71.43M797.59,951.67v-180.28M797.59,619.45v-71.43M805.6,951.67v-180.28M805.6,619.45v-71.43M813.62,951.67v-180.28M813.62,619.45v-71.43M821.64,951.67v-180.28M821.64,619.45v-71.43M829.66,951.67v-180.28M829.66,619.45v-71.43M837.67,951.67v-180.28M837.67,619.45v-71.43M845.69,951.67v-180.28M845.69,619.45v-71.43M853.71,951.67v-180.28M853.71,619.45v-71.43M861.73,951.67v-180.28M861.73,619.45v-71.43M869.74,951.67v-180.28M869.74,619.45v-71.43M877.76,951.67v-180.28M877.76,619.45v-71.43M885.78,951.67v-180.28M885.78,619.45v-71.43M893.8,951.67v-180.28M893.8,619.45v-71.43M901.81,951.67v-180.28M901.81,619.45v-71.43M909.83,951.67v-180.28M909.83,619.45v-71.43M917.85,951.67v-180.28M917.85,619.45v-71.43M925.87,951.67v-180.28M925.87,619.45v-71.43M933.89,951.67v-180.28M933.89,619.45v-71.43M941.9,951.67v-180.28M941.9,619.45v-71.43M949.92,951.67v-180.28M949.92,619.45v-71.43M957.94,951.67v-180.28M957.94,619.45v-71.43M965.96,951.67v-180.28M965.96,619.45v-71.43M973.97,951.67v-180.28M973.97,619.45v-71.43M981.99,951.67v-180.28M981.99,619.45v-71.43M990.01,951.67v-180.28M990.01,619.45v-71.43M998.03,951.67v-180.28M998.03,619.45v-71.43M1006.04,951.67v-180.28M1006.04,619.45v-71.43M1014.06,951.67v-180.28M1014.06,619.45v-71.43M1022.08,951.67v-180.28M1022.08,619.45v-71.43M1030.1,951.67v-180.28M1030.1,619.45v-71.43M1038.11,951.67v-180.28M1038.11,619.45v-71.43M1046.13,951.67v-180.28M1046.13,605.28v-57.26M1054.15,951.67v-180.28M1054.15,605.28v-57.26M1062.17,951.67v-180.28M1062.17,605.28v-57.26M1070.18,951.67v-180.28M1070.18,605.28v-57.26M1078.2,951.67v-180.28M1078.2,605.28v-57.26M1086.22,951.67v-180.28M1086.22,605.28v-57.26M1094.24,951.67v-180.28M1094.24,605.28v-57.26M1102.25,951.67v-180.28M1102.25,605.28v-57.26M1110.27,951.67v-180.28M1110.27,605.28v-57.26M1118.29,951.67v-180.28M1118.29,605.28v-57.26M1126.31,951.67v-180.28M1126.31,605.28v-57.26M1134.32,951.67v-180.28M1134.32,605.28v-57.26M1142.34,951.67v-180.28M1142.34,605.28v-57.26M1150.36,951.67v-180.28M1150.36,605.28v-57.26M1158.38,951.67v-180.28M1158.38,605.28v-57.26M1166.4,951.67v-180.28M1166.4,605.28v-57.26M1174.41,951.67v-180.28M1174.41,605.28v-57.26M1182.43,951.67v-180.28M1182.43,605.28v-57.26M1190.45,951.67v-180.28M1190.45,605.28v-57.26M1198.47,948.57v-177.18M1198.47,605.28v-57.26M1206.48,941.51v-170.11M1206.48,605.28v-57.26M1214.5,934.44v-163.05M1214.5,605.28v-57.26M1222.52,927.38v-155.99M1222.52,605.28v-57.26M1230.54,920.32v-148.93M1230.54,605.28v-57.26M1238.55,913.26v-141.87M1238.55,605.28v-57.26M1246.57,906.2v-134.81M1246.57,605.28v-57.26M1254.59,899.14v-127.75M1254.59,605.28v-57.26M1262.61,892.08v-120.69M1262.61,605.28v-57.26M1270.62,885.02v-113.63M1270.62,605.28v-57.26M1278.64,877.96v-106.57M1278.64,605.28v-57.26M1286.66,870.9v-99.51M1286.66,605.28v-57.26M1294.68,863.84v-92.44"/>
    </g>
    <g id="h" data-name="HATCH">
      <rect class="am" x="685.87" y="619.45" width="94.96" height="151.94"/>
      <path class="am" d="M687.34,771.39v-151.94M693.36,771.39v-151.94M699.37,771.39v-151.94M705.38,771.39v-151.94M711.4,771.39v-151.94M717.41,771.39v-151.94M723.42,771.39v-151.94M729.44,771.39v-151.94M735.45,771.39v-151.94M741.46,771.39v-151.94M747.48,771.39v-151.94M753.49,771.39v-151.94M759.5,771.39v-151.94M765.52,771.39v-151.94M771.53,771.39v-151.94M777.54,771.39v-151.94"/>
    </g>
    <g id="i" data-name="LWPOLYLINE">
      <polyline class="ah" points="780.84 619.45 1058.35 619.45 1058.35 633.63 780.84 633.63"/>
    </g>
    <g id="j" data-name="LWPOLYLINE">
      <polyline class="ah" points="1275.76 771.39 1275.76 619.45 1058.35 619.45"/>
    </g>
    <g id="k" data-name="LWPOLYLINE">
      <polyline class="ah" points="1288.8 771.39 1288.8 605.28 1044.17 605.28 1044.17 619.45"/>
    </g>
    <g id="l" data-name="LWPOLYLINE">
      <polygon class="ah" points="1287.1 771.96 1287.1 606.98 1045.31 606.98 1045.31 609.25 1284.84 609.25 1284.84 771.96 1287.1 771.96"/>
    </g>
    <g id="m" data-name="LWPOLYLINE">
      <polyline class="ah" points="1300.71 771.39 1300.71 548.02 685.87 548.02 685.87 619.45"/>
    </g>
    <g id="n" data-name="LINE">
      <line class="ah" x1="1288.8" y1="605.28" x2="1288.8" y2="548.02"/>
    </g>
    <g id="o" data-name="LWPOLYLINE">
      <polyline class="ak" points="780.84 771.39 780.84 619.45 685.87 619.45 685.87 771.39"/>
    </g>
    <g id="p" data-name="LWPOLYLINE">
      <polygon class="ak" points="1194.94 951.67 1300.71 858.52 1300.71 771.39 685.87 771.39 685.87 951.67 1194.94 951.67"/>
    </g>
    <g id="q" data-name="HATCH">
      <path class="ah" d="M780.84,635.76h494.93M780.84,671.76h494.93M780.84,707.76h494.93M780.84,743.76h494.93M800.72,771.39v-137.76M836.72,771.39v-137.76M872.72,771.39v-137.76M908.72,771.39v-137.76M944.72,771.39v-137.76M980.72,771.39v-137.76M1016.72,771.39v-137.76M1052.72,771.39v-137.76M1088.72,771.39v-151.94M1124.72,771.39v-151.94M1160.72,771.39v-151.94M1196.72,771.39v-151.94M1232.72,771.39v-151.94M1268.72,771.39v-151.94"/>
    </g>
  </g>
  <g id="u" data-name="SCALE">
    <g>
      <g id="v" data-name="CIRCLE">
        <circle class="ai" cx="209.01" cy="1387.34" r="14.88"/>
      </g>
      <g id="w" data-name="TEXT">
        <text class="an" transform="translate(212.22 1369.19) rotate(22.03) scale(.9 1)"><tspan x="0" y="0">N</tspan></text>
      </g>
      <g id="x" data-name="HATCH">
        <path class="aj" d="M214.59,1373.55c-.23-.09-.46-.18-.7-.26l-5.57,13.78.69.28,5.58-13.8Z"/>
      </g>
      <g id="y" data-name="HATCH">
        <path class="aj" d="M215.27,1373.84c-.23-.1-.45-.2-.69-.3l-5.58,13.8.69.28,5.57-13.78Z"/>
      </g>
      <g id="z" data-name="LINE">
        <line class="ai" x1="213.89" y1="1373.28" x2="208.31" y2="1387.06"/>
      </g>
      <g id="aa" data-name="LINE">
        <line class="ai" x1="215.27" y1="1373.84" x2="209.7" y2="1387.62"/>
      </g>
      <g id="ab" data-name="LINE">
        <line class="ai" x1="209.01" y1="1387.34" x2="214.59" y2="1373.55"/>
      </g>
      <g id="ac" data-name="MTEXT">
        <text class="al" transform="translate(272.62 1403.44)"><tspan x="0" y="0">0</tspan></text>
      </g>
      <g id="ad" data-name="MTEXT">
        <text class="al" transform="translate(386.14 1403.44)"><tspan x="0" y="0">2</tspan></text>
      </g>
      <g id="ae" data-name="MTEXT">
        <text class="al" transform="translate(329.86 1403.44)"><tspan x="0" y="0">1</tspan></text>
      </g>
      <g id="af" data-name="MTEXT">
        <text class="al" transform="translate(549.62 1403.4)"><tspan x="0" y="0">5m</tspan></text>
      </g>
      <g id="ag" data-name="LWPOLYLINE">
        <polyline class="ai" points="560.44 1387.81 560.44 1370.8 390.36 1370.8 390.36 1387.81 333.67 1387.81 333.67 1370.8 276.98 1370.8 276.98 1387.81"/>
      </g>
    </g>
  </g>
</svg>