<?xml version="1.0" encoding="UTF-8"?>
<svg xmlns="http://www.w3.org/2000/svg" viewBox="0 0 900 1200">
  <defs>
    <style>
      .mn, .mo, .mp, .mq, .mr, .ms, .mt, .mu, .mv, .mw, .mx, .my, .mz, .na, .nb, .nc, .nd, .ne, .nf, .ng, .nh, .ni, .nj, .nk {
        stroke: #000;
      }

      .mn, .mo, .mp, .mq, .mr, .ms, .mv, .mw, .mx, .my, .mz, .na, .nb, .nc, .nd, .ne, .nf, .ng, .nh, .ni, .nj, .nk {
        stroke-miterlimit: 10;
      }

      .mn, .mo, .mr, .mu, .my, .nc, .nf, .nh, .ni, .nk {
        stroke-width: .5px;
      }

      .mn, .mp, .mq, .mr, .ms, .mv, .mw, .mx, .my, .mz, .na, .nb, .nc, .nd, .ne, .nf, .ng, .nh, .ni, .nj, .nk {
        fill: none;
      }

      .mo {
        fill: #040000;
        fill-rule: evenodd;
      }

      .mp {
        stroke-width: .75px;
      }

      .mq {
        stroke-width: .85px;
      }

      .mr {
        stroke-dasharray: 1.98 .99;
      }

      .ms {
        stroke-width: .15px;
      }

      .mt {
        stroke-width: .34px;
      }

      .mv, .mw, .mx, .na, .nb, .nj {
        stroke-width: .4px;
      }

      .mw {
        stroke-dasharray: 1.97 .99;
      }

      .mx {
        stroke-dasharray: 1.88 .94;
      }

      .my {
        stroke-dasharray: 2.04 1.02;
      }

      .mz {
        stroke-width: .25px;
      }

      .na {
        stroke-dasharray: 1.97 .99;
      }

      .nb {
        stroke-dasharray: 1.99 .99;
      }

      .nc {
        stroke-dasharray: 2 1;
      }

      .nd {
        stroke-width: .3px;
      }

      .ne {
        stroke-width: .6px;
      }

      .nf {
        stroke-dasharray: 1.98 .99;
      }

      .ng {
        stroke-width: .9px;
      }

      .nh {
        stroke-dasharray: 1.98 .99;
      }

      .ni {
        stroke-dasharray: 1.98 .99;
      }

      .nj {
        stroke-dasharray: 2.02 1.01;
      }

      .nk {
        stroke-dasharray: 2.07 1.03;
      }
    </style>
  </defs>
  <g id="as" data-name="f2">
    <g id="at" data-name="HATCH">
      <path class="ms" d="M142.72,469.45v-36.28M146.32,469.45v-36.28M149.92,469.45v-36.28M153.52,469.45v-36.28M157.12,469.45v-36.28M160.72,469.45v-36.28M164.32,469.45v-36.28M167.92,469.45v-36.28M171.52,469.45v-36.28M175.12,469.45v-36.28M178.72,469.45v-36.28M182.32,469.45v-36.28M185.92,469.45v-36.28M189.52,469.45v-36.28M193.12,469.45v-36.28M196.72,469.45v-36.28M200.32,469.45v-36.28M203.92,469.45v-36.28M207.52,469.45v-36.28M211.12,469.45v-36.28M214.72,469.45v-36.28M218.32,469.45v-36.28M221.92,469.45v-36.28M225.52,469.45v-36.28M229.12,469.45v-36.28M232.72,469.45v-36.28M236.32,469.45v-36.28M239.92,469.45v-36.28M243.52,469.45v-36.28M247.12,469.45v-36.28M250.72,469.45v-36.28M254.32,469.45v-36.28M257.92,469.45v-36.28M261.52,469.45v-36.28M265.12,469.45v-36.28M268.72,469.45v-36.28M272.32,469.45v-36.28M275.92,469.45v-36.28M279.52,469.45v-36.28M283.12,469.45v-36.28M286.72,469.45v-36.28M290.32,469.45v-36.28M293.92,469.45v-36.28M297.52,469.45v-36.28M301.12,469.45v-36.28M304.72,469.45v-36.28M308.32,469.45v-36.28M311.92,469.45v-36.28M315.52,469.45v-36.28M319.12,469.45v-36.28M322.72,469.45v-36.28M326.32,469.45v-36.28M329.92,469.45v-36.28M333.52,469.45v-36.28M337.12,469.45v-36.28M340.72,469.45v-36.28M344.32,469.45v-36.28M347.92,469.45v-36.28M351.52,469.45v-36.28M355.12,469.45v-36.28M358.72,469.45v-36.28M362.32,469.45v-36.28M365.92,469.45v-36.28M369.52,469.45v-36.28M373.12,469.45v-36.28M376.72,469.45v-36.28M380.32,469.45v-36.28M383.92,469.45v-36.28M387.52,469.45v-36.28M391.12,469.45v-36.28M394.72,469.45v-36.28M398.32,469.45v-36.28M401.92,469.45v-36.28M405.52,469.45v-36.28M409.12,469.45v-36.28M412.72,469.45v-36.28M416.32,469.45v-36.28M419.92,469.45v-36.28M423.52,469.45v-36.28M427.12,469.45v-36.28M430.72,469.45v-36.28M434.93,461.27H139.28M434.93,446.87H139.28"/>
    </g>
    <g id="au" data-name="LWPOLYLINE">
      <polyline class="mz" points="437.76 412.76 437.76 396.06 447.4 396.06"/>
    </g>
    <g id="av" data-name="LWPOLYLINE">
      <polyline class="mz" points="738.8 316.38 447.4 316.38 447.4 396.06 738.8 396.06"/>
    </g>
    <g id="aw" data-name="LWPOLYLINE">
      <rect class="mz" x="450.8" y="318.08" width="53.18" height="76.28"/>
    </g>
    <g id="ax" data-name="LWPOLYLINE">
      <rect class="mz" x="507.38" y="318.08" width="54.88" height="76.28"/>
    </g>
    <g id="ay" data-name="LWPOLYLINE">
      <rect class="mz" x="565.66" y="318.08" width="54.88" height="76.28"/>
    </g>
    <g id="az" data-name="LWPOLYLINE">
      <rect class="mz" x="623.94" y="318.08" width="54.88" height="76.28"/>
    </g>
    <g id="ba" data-name="LWPOLYLINE">
      <rect class="mz" x="682.22" y="318.08" width="53.18" height="76.28"/>
    </g>
    <g id="bb" data-name="LWPOLYLINE">
      <polyline class="mz" points="69.26 727.97 69.26 298.24 456.19 298.24 456.19 305.04 439.18 305.04 439.18 316.38 447.4 316.38"/>
    </g>
    <g id="bc" data-name="LWPOLYLINE">
      <polyline class="mz" points="738.8 305.04 467.53 305.04 467.53 298.24 499.56 298.24 499.56 286.9 57.92 286.9 57.92 803.94 69.26 803.94 69.26 733.64"/>
    </g>
    <g id="bd" data-name="LWPOLYLINE">
      <rect class="mz" x="69.26" y="727.97" width="51.02" height="5.67"/>
    </g>
    <g id="be" data-name="LINE">
      <line class="mz" x1="120.28" y1="733.64" x2="135.87" y2="733.64"/>
    </g>
    <g id="bf" data-name="LINE">
      <line class="mz" x1="120.28" y1="727.97" x2="135.87" y2="727.97"/>
    </g>
    <g id="bg" data-name="LWPOLYLINE">
      <polyline class="mz" points="437.76 409.93 324.38 409.93 324.38 429.77"/>
    </g>
    <g id="bh" data-name="LWPOLYLINE">
      <polyline class="mz" points="437.76 408.79 323.24 408.79 323.24 429.77"/>
    </g>
    <g id="bi" data-name="LWPOLYLINE">
      <polyline class="mz" points="279.02 554.49 279.02 559.6 279.59 559.6 279.59 554.49"/>
    </g>
    <g id="bj" data-name="LWPOLYLINE">
      <polyline class="mz" points="279.59 764.26 279.59 714.37 279.02 714.37 279.02 764.26"/>
    </g>
    <g id="bk" data-name="LWPOLYLINE">
      <rect class="mz" x="279.02" y="663.34" width=".57" height="49.89"/>
    </g>
    <g id="bl" data-name="LWPOLYLINE">
      <polyline class="mz" points="279.59 560.16 279.59 611.19 279.02 611.19 279.02 560.16"/>
    </g>
    <g id="bm" data-name="LWPOLYLINE">
      <rect class="mz" x="279.02" y="612.32" width=".57" height="49.89"/>
    </g>
    <g id="bn" data-name="LINE">
      <line class="mz" x1="427.28" y1="787.5" x2="384.19" y2="787.5"/>
    </g>
    <g id="bo" data-name="LINE">
      <line class="mz" x1="383.06" y1="787.5" x2="300.85" y2="787.5"/>
    </g>
    <g id="bp" data-name="LINE">
      <line class="mz" x1="426.43" y1="789.07" x2="385.04" y2="789.07"/>
    </g>
    <g id="bq" data-name="LINE">
      <line class="mz" x1="382.21" y1="789.07" x2="301.7" y2="789.08"/>
    </g>
    <g id="br" data-name="LINE">
      <line class="mz" x1="611.53" y1="787.5" x2="459.59" y2="787.5"/>
    </g>
    <g id="bs" data-name="LINE">
      <line class="mz" x1="610.68" y1="789.07" x2="460.44" y2="789.07"/>
    </g>
    <g id="bt" data-name="LINE">
      <line class="mz" x1="641.85" y1="786.76" x2="735.82" y2="704.34"/>
    </g>
    <g id="bu" data-name="LINE">
      <line class="mz" x1="736.21" y1="706.08" x2="643.53" y2="787.38"/>
    </g>
    <g id="bv" data-name="LINE">
      <line class="mz" x1="268.54" y1="787.5" x2="143.53" y2="787.5"/>
    </g>
    <g id="bw" data-name="LINE">
      <line class="mz" x1="267.69" y1="789.08" x2="144.38" y2="789.08"/>
    </g>
    <g id="bx" data-name="LINE">
      <line class="mz" x1="736.54" y1="423.25" x2="736.54" y2="532.95"/>
    </g>
    <g id="by" data-name="LINE">
      <line class="mz" x1="738.1" y1="424.1" x2="738.1" y2="532.1"/>
    </g>
    <g id="bz" data-name="LINE">
      <line class="mz" x1="736.54" y1="565.26" x2="736.54" y2="674.4"/>
    </g>
    <g id="ca" data-name="LINE">
      <line class="mz" x1="738.1" y1="566.12" x2="738.1" y2="673.55"/>
    </g>
    <g id="cb" data-name="LWPOLYLINE">
      <polyline class="nd" points="434.93 429.77 135.87 429.77 135.87 469.45"/>
    </g>
    <g id="cc" data-name="LWPOLYLINE">
      <polyline class="nd" points="270.52 803.94 135.87 803.94 135.87 789.77"/>
    </g>
    <g id="cd" data-name="LWPOLYLINE">
      <polyline class="nd" points="613.51 803.94 538.39 803.94 538.39 789.77"/>
    </g>
    <g id="ce" data-name="LWPOLYLINE">
      <polyline class="nd" points="457.61 803.94 532.73 803.94 532.73 789.77"/>
    </g>
    <g id="cf" data-name="LWPOLYLINE">
      <polyline class="nd" points="361.23 789.77 361.23 803.94 298.87 803.94"/>
    </g>
    <g id="cg" data-name="LWPOLYLINE">
      <polyline class="nd" points="429.26 803.94 366.9 803.94 366.9 789.77"/>
    </g>
    <g id="ch" data-name="LWPOLYLINE">
      <polyline class="nd" points="752.98 676.38 752.98 621.96 738.8 621.96"/>
    </g>
    <g id="ci" data-name="LWPOLYLINE">
      <polyline class="nd" points="752.98 704.73 752.98 711.16 702.21 755.68 692.87 745.02"/>
    </g>
    <g id="cj" data-name="LWPOLYLINE">
      <polyline class="nd" points="641.86 803.94 647.19 803.94 697.95 759.42 688.61 748.76"/>
    </g>
    <g id="ck" data-name="LWPOLYLINE">
      <polyline class="nd" points="752.98 534.93 752.98 477.96 738.8 477.96"/>
    </g>
    <g id="cl" data-name="LWPOLYLINE">
      <polyline class="nd" points="752.98 563.28 752.98 616.29 738.8 616.29"/>
    </g>
    <g id="cm" data-name="LWPOLYLINE">
      <polyline class="nd" points="738.8 472.29 752.98 472.29 752.98 305.04 738.8 305.04 738.8 412.76"/>
    </g>
    <g id="cn" data-name="LWPOLYLINE">
      <g>
        <polyline class="mv" points="509.48 652.71 509.48 653.71 510.48 653.71"/>
        <line class="mx" x1="511.42" y1="653.71" x2="533.52" y2="653.71"/>
        <polyline class="mv" points="533.99 653.71 534.99 653.71 534.99 652.71"/>
        <path class="mw" d="M534.99,651.72v-15.02c0-7.04-5.71-12.76-12.76-12.76s-12.76,5.71-12.76,12.76v15.51"/>
      </g>
    </g>
    <g id="co" data-name="LWPOLYLINE">
      <g>
        <polyline class="mv" points="509.48 728.41 509.48 727.41 510.48 727.41"/>
        <line class="mx" x1="511.42" y1="727.41" x2="533.52" y2="727.41"/>
        <polyline class="mv" points="533.99 727.41 534.99 727.41 534.99 728.41"/>
        <path class="mw" d="M534.99,729.39v15.02c0,7.04-5.71,12.76-12.76,12.76s-12.76-5.71-12.76-12.76v-15.51"/>
      </g>
    </g>
    <g id="cp" data-name="LWPOLYLINE">
      <g>
        <polyline class="mv" points="577.51 652.71 577.51 653.71 578.51 653.71"/>
        <line class="mx" x1="579.45" y1="653.71" x2="601.56" y2="653.71"/>
        <polyline class="mv" points="602.03 653.71 603.03 653.71 603.03 652.71"/>
        <path class="mw" d="M603.03,651.72v-15.02c0-7.04-5.71-12.76-12.76-12.76s-12.76,5.71-12.76,12.76v15.51"/>
      </g>
    </g>
    <g id="cq" data-name="LWPOLYLINE">
      <g>
        <polyline class="mv" points="577.51 728.41 577.51 727.41 578.51 727.41"/>
        <line class="mx" x1="579.45" y1="727.41" x2="601.56" y2="727.41"/>
        <polyline class="mv" points="602.03 727.41 603.03 727.41 603.03 728.41"/>
        <path class="mw" d="M603.03,729.39v15.02c0,7.04-5.71,12.76-12.76,12.76s-12.76-5.71-12.76-12.76v-15.51"/>
      </g>
    </g>
    <g id="cr" data-name="LINE">
      <g>
        <line class="mv" x1="624.85" y1="724.57" x2="624.85" y2="723.57"/>
        <line class="na" x1="624.85" y1="722.59" x2="624.85" y2="658.03"/>
        <line class="mv" x1="624.85" y1="657.54" x2="624.85" y2="656.54"/>
      </g>
    </g>
    <g id="cs" data-name="LWPOLYLINE">
      <g>
        <polyline class="mv" points="662.7 677.23 661.7 677.23 661.7 678.23"/>
        <line class="mx" x1="661.7" y1="679.17" x2="661.7" y2="701.27"/>
        <polyline class="mv" points="661.7 701.75 661.7 702.75 662.7 702.75"/>
        <path class="mw" d="M663.69,702.75h15.02c7.04,0,12.76-5.71,12.76-12.76s-5.71-12.76-12.76-12.76h-15.51"/>
      </g>
    </g>
    <g id="ct" data-name="LWPOLYLINE">
      <g>
        <polyline class="mv" points="509.48 485.18 509.48 486.18 510.48 486.18"/>
        <line class="mx" x1="511.42" y1="486.18" x2="533.52" y2="486.18"/>
        <polyline class="mv" points="533.99 486.18 534.99 486.18 534.99 485.18"/>
        <path class="mw" d="M534.99,484.19v-15.02c0-7.04-5.71-12.76-12.76-12.76s-12.76,5.71-12.76,12.76v15.51"/>
      </g>
    </g>
    <g id="cu" data-name="LWPOLYLINE">
      <g>
        <polyline class="mv" points="509.48 560.88 509.48 559.88 510.48 559.88"/>
        <line class="mx" x1="511.42" y1="559.88" x2="533.52" y2="559.88"/>
        <polyline class="mv" points="533.99 559.88 534.99 559.88 534.99 560.88"/>
        <path class="mw" d="M534.99,561.87v15.02c0,7.04-5.71,12.76-12.76,12.76s-12.76-5.71-12.76-12.76v-15.51"/>
      </g>
    </g>
    <g id="cv" data-name="LWPOLYLINE">
      <g>
        <polyline class="mv" points="577.51 485.18 577.51 486.18 578.51 486.18"/>
        <line class="mx" x1="579.45" y1="486.18" x2="601.56" y2="486.18"/>
        <polyline class="mv" points="602.03 486.18 603.03 486.18 603.03 485.18"/>
        <path class="mw" d="M603.03,484.19v-15.02c0-7.04-5.71-12.76-12.76-12.76s-12.76,5.71-12.76,12.76v15.51"/>
      </g>
    </g>
    <g id="cw" data-name="LWPOLYLINE">
      <g>
        <polyline class="mv" points="577.51 560.88 577.51 559.88 578.51 559.88"/>
        <line class="mx" x1="579.45" y1="559.88" x2="601.56" y2="559.88"/>
        <polyline class="mv" points="602.03 559.88 603.03 559.88 603.03 560.88"/>
        <path class="mw" d="M603.03,561.87v15.02c0,7.04-5.71,12.76-12.76,12.76s-12.76-5.71-12.76-12.76v-15.51"/>
      </g>
    </g>
    <g id="cx" data-name="LWPOLYLINE">
      <g>
        <polyline class="mv" points="657.87 489.02 658.87 489.02 658.87 490.02"/>
        <line class="na" x1="658.87" y1="491" x2="658.87" y2="555.55"/>
        <polyline class="mv" points="658.87 556.05 658.87 557.05 657.87 557.05"/>
        <line class="nb" x1="656.87" y1="557.05" x2="490.29" y2="557.05"/>
        <polyline class="mv" points="489.79 557.05 488.79 557.05 488.79 556.05"/>
        <line class="na" x1="488.79" y1="555.06" x2="488.79" y2="490.51"/>
        <polyline class="mv" points="488.79 490.02 488.79 489.02 489.79 489.02"/>
        <line class="nb" x1="490.78" y1="489.02" x2="657.37" y2="489.02"/>
      </g>
    </g>
    <g id="cy" data-name="LWPOLYLINE">
      <g>
        <polyline class="mv" points="662.7 509.71 661.7 509.71 661.7 510.71"/>
        <line class="mx" x1="661.7" y1="511.65" x2="661.7" y2="533.75"/>
        <polyline class="mv" points="661.7 534.22 661.7 535.22 662.7 535.22"/>
        <path class="mw" d="M663.69,535.22h15.02c7.04,0,12.76-5.71,12.76-12.76s-5.71-12.76-12.76-12.76h-15.51"/>
      </g>
    </g>
    <g id="cz" data-name="LINE">
      <g>
        <line class="mv" x1="447.98" y1="690.56" x2="446.98" y2="690.56"/>
        <line class="nj" x1="445.97" y1="690.56" x2="313.42" y2="690.56"/>
        <line class="mv" x1="312.91" y1="690.56" x2="311.91" y2="690.56"/>
      </g>
    </g>
    <g id="da" data-name="LINE">
      <g>
        <line class="mv" x1="379.95" y1="724.57" x2="379.95" y2="723.57"/>
        <line class="na" x1="379.95" y1="722.59" x2="379.95" y2="658.03"/>
        <line class="mv" x1="379.95" y1="657.54" x2="379.95" y2="656.54"/>
      </g>
    </g>
    <g id="db" data-name="LWPOLYLINE">
      <g>
        <polyline class="mv" points="400.64 652.71 400.64 653.71 401.64 653.71"/>
        <line class="mx" x1="402.58" y1="653.71" x2="424.68" y2="653.71"/>
        <polyline class="mv" points="425.15 653.71 426.15 653.71 426.15 652.71"/>
        <path class="mw" d="M426.15,651.72v-15.02c0-7.04-5.71-12.76-12.76-12.76s-12.76,5.71-12.76,12.76v15.51"/>
      </g>
    </g>
    <g id="dc" data-name="LWPOLYLINE">
      <g>
        <polyline class="mv" points="400.64 728.41 400.64 727.41 401.64 727.41"/>
        <line class="mx" x1="402.58" y1="727.41" x2="424.68" y2="727.41"/>
        <polyline class="mv" points="425.15 727.41 426.15 727.41 426.15 728.41"/>
        <path class="mw" d="M426.15,729.39v15.02c0,7.04-5.71,12.76-12.76,12.76s-12.76-5.71-12.76-12.76v-15.51"/>
      </g>
    </g>
    <g id="dd" data-name="LWPOLYLINE">
      <g>
        <polyline class="mv" points="446.98 656.54 447.98 656.54 447.98 657.54"/>
        <polyline class="na" points="447.98 658.53 447.98 690.56 447.98 723.08"/>
        <polyline class="mv" points="447.98 723.57 447.98 724.57 446.98 724.57"/>
        <polyline class="nj" points="445.97 724.57 379.95 724.57 313.42 724.57"/>
        <polyline class="mv" points="312.91 724.57 311.91 724.57 311.91 723.57"/>
        <polyline class="na" points="311.91 722.59 311.91 690.56 311.91 658.03"/>
        <polyline class="mv" points="311.91 657.54 311.91 656.54 312.91 656.54"/>
        <polyline class="nj" points="313.92 656.54 379.95 656.54 446.47 656.54"/>
      </g>
    </g>
    <g id="de" data-name="LWPOLYLINE">
      <g>
        <polyline class="mv" points="332.61 652.71 332.61 653.71 333.61 653.71"/>
        <line class="mx" x1="334.55" y1="653.71" x2="356.65" y2="653.71"/>
        <polyline class="mv" points="357.12 653.71 358.12 653.71 358.12 652.71"/>
        <path class="mw" d="M358.12,651.72v-15.02c0-7.04-5.71-12.76-12.76-12.76s-12.76,5.71-12.76,12.76v15.51"/>
      </g>
    </g>
    <g id="df" data-name="LWPOLYLINE">
      <g>
        <polyline class="mv" points="332.61 728.41 332.61 727.41 333.61 727.41"/>
        <line class="mx" x1="334.55" y1="727.41" x2="356.65" y2="727.41"/>
        <polyline class="mv" points="357.12 727.41 358.12 727.41 358.12 728.41"/>
        <path class="mw" d="M358.12,729.39v15.02c0,7.04-5.71,12.76-12.76,12.76s-12.76-5.71-12.76-12.76v-15.51"/>
      </g>
    </g>
    <g id="dg" data-name="LINE">
      <g>
        <line class="mv" x1="624.85" y1="690.56" x2="623.85" y2="690.56"/>
        <line class="nj" x1="622.84" y1="690.56" x2="490.29" y2="690.56"/>
        <line class="mv" x1="489.79" y1="690.56" x2="488.79" y2="690.56"/>
      </g>
    </g>
    <g id="dh" data-name="LINE">
      <g>
        <line class="mv" x1="556.82" y1="724.57" x2="556.82" y2="723.57"/>
        <line class="na" x1="556.82" y1="722.59" x2="556.82" y2="658.03"/>
        <line class="mv" x1="556.82" y1="657.54" x2="556.82" y2="656.54"/>
      </g>
    </g>
    <g id="di" data-name="LWPOLYLINE">
      <g>
        <polyline class="mv" points="657.87 656.54 658.87 656.54 658.87 657.54"/>
        <polyline class="na" points="658.87 658.53 658.87 690.56 658.87 723.08"/>
        <polyline class="mv" points="658.87 723.57 658.87 724.57 657.87 724.57"/>
        <polyline class="nb" points="656.87 724.57 556.82 724.57 490.29 724.57"/>
        <polyline class="mv" points="489.79 724.57 488.79 724.57 488.79 723.57"/>
        <polyline class="na" points="488.79 722.59 488.79 690.56 488.79 658.03"/>
        <polyline class="mv" points="488.79 657.54 488.79 656.54 489.79 656.54"/>
        <polyline class="nb" points="490.78 656.54 556.82 656.54 657.37 656.54"/>
      </g>
    </g>
    <g id="dj" data-name="LINE">
      <g>
        <line class="mv" x1="624.85" y1="523.03" x2="623.85" y2="523.03"/>
        <line class="nj" x1="622.84" y1="523.03" x2="490.29" y2="523.03"/>
        <line class="mv" x1="489.79" y1="523.03" x2="488.79" y2="523.03"/>
      </g>
    </g>
    <g id="dk" data-name="LINE">
      <g>
        <line class="mv" x1="556.82" y1="557.05" x2="556.82" y2="556.05"/>
        <line class="na" x1="556.82" y1="555.06" x2="556.82" y2="490.51"/>
        <line class="mv" x1="556.82" y1="490.02" x2="556.82" y2="489.02"/>
      </g>
    </g>
    <g id="dl" data-name="LINE">
      <g>
        <line class="mv" x1="624.85" y1="557.05" x2="624.85" y2="556.05"/>
        <line class="na" x1="624.85" y1="555.06" x2="624.85" y2="490.51"/>
        <line class="mv" x1="624.85" y1="490.02" x2="624.85" y2="489.02"/>
      </g>
    </g>
    <g id="dm" data-name="LWPOLYLINE">
      <rect class="mv" x="220.35" y="538.62" width="1.98" height="170.08"/>
    </g>
    <g id="dn" data-name="LWPOLYLINE">
      <rect class="mv" x="228" y="542.59" width="1.98" height="166.11"/>
    </g>
    <g id="do" data-name="LINE">
      <line class="mv" x1="225.17" y1="572.07" x2="222.33" y2="572.07"/>
    </g>
    <g id="dp" data-name="LINE">
      <line class="mv" x1="220.35" y1="572.07" x2="171.31" y2="572.07"/>
    </g>
    <g id="dq" data-name="LINE">
      <line class="mv" x1="225.17" y1="557.33" x2="222.33" y2="557.33"/>
    </g>
    <g id="dr" data-name="LINE">
      <line class="mv" x1="220.35" y1="557.33" x2="171.31" y2="557.33"/>
    </g>
    <g id="ds" data-name="LINE">
      <line class="mv" x1="225.17" y1="542.59" x2="222.33" y2="542.59"/>
    </g>
    <g id="dt" data-name="LINE">
      <line class="mv" x1="220.35" y1="542.59" x2="171.31" y2="542.59"/>
    </g>
    <g id="du" data-name="LINE">
      <line class="mv" x1="225.17" y1="586.81" x2="222.33" y2="586.81"/>
    </g>
    <g id="dv" data-name="LINE">
      <line class="mv" x1="220.35" y1="586.81" x2="171.31" y2="586.81"/>
    </g>
    <g id="dw" data-name="LINE">
      <line class="mv" x1="225.17" y1="601.55" x2="222.33" y2="601.55"/>
    </g>
    <g id="dx" data-name="LINE">
      <line class="mv" x1="220.35" y1="601.55" x2="171.31" y2="601.55"/>
    </g>
    <g id="dy" data-name="LINE">
      <line class="mv" x1="225.17" y1="616.29" x2="222.33" y2="616.29"/>
    </g>
    <g id="dz" data-name="LINE">
      <line class="mv" x1="220.35" y1="616.29" x2="171.31" y2="616.29"/>
    </g>
    <g id="ea" data-name="LINE">
      <line class="mv" x1="225.17" y1="631.03" x2="222.33" y2="631.03"/>
    </g>
    <g id="eb" data-name="LINE">
      <line class="mv" x1="220.35" y1="631.03" x2="171.31" y2="631.03"/>
    </g>
    <g id="ec" data-name="LINE">
      <line class="mv" x1="225.17" y1="645.77" x2="222.33" y2="645.77"/>
    </g>
    <g id="ed" data-name="LINE">
      <line class="mv" x1="220.35" y1="645.77" x2="171.31" y2="645.77"/>
    </g>
    <g id="ee" data-name="LINE">
      <line class="mv" x1="225.17" y1="660.51" x2="222.33" y2="660.51"/>
    </g>
    <g id="ef" data-name="LINE">
      <line class="mv" x1="220.35" y1="660.51" x2="171.31" y2="660.51"/>
    </g>
    <g id="eg" data-name="LINE">
      <line class="mv" x1="225.17" y1="675.25" x2="222.33" y2="675.25"/>
    </g>
    <g id="eh" data-name="LINE">
      <line class="mv" x1="220.35" y1="675.25" x2="171.31" y2="675.25"/>
    </g>
    <g id="ei" data-name="LINE">
      <line class="mv" x1="225.17" y1="689.99" x2="222.33" y2="689.99"/>
    </g>
    <g id="ej" data-name="LINE">
      <line class="mv" x1="220.35" y1="689.99" x2="171.31" y2="689.99"/>
    </g>
    <g id="ek" data-name="LINE">
      <line class="mv" x1="225.17" y1="704.73" x2="222.33" y2="704.73"/>
    </g>
    <g id="el" data-name="LINE">
      <line class="mv" x1="220.35" y1="704.73" x2="171.31" y2="704.73"/>
    </g>
    <g id="em" data-name="LINE">
      <line class="mv" x1="225.17" y1="542.59" x2="225.17" y2="704.73"/>
    </g>
    <g id="en" data-name="LINE">
      <line class="mv" x1="225.17" y1="704.73" x2="222.33" y2="707.86"/>
    </g>
    <g id="eo" data-name="LINE">
      <line class="mv" x1="221.58" y1="708.7" x2="171.31" y2="764.26"/>
    </g>
    <g id="ep" data-name="LINE">
      <line class="mv" x1="225.17" y1="704.73" x2="225.17" y2="764.26"/>
    </g>
    <g id="eq" data-name="LINE">
      <line class="mv" x1="225.17" y1="704.73" x2="228" y2="704.73"/>
    </g>
    <g id="er" data-name="LINE">
      <line class="mv" x1="225.17" y1="689.99" x2="228" y2="689.99"/>
    </g>
    <g id="es" data-name="LINE">
      <line class="mv" x1="225.17" y1="675.25" x2="228" y2="675.25"/>
    </g>
    <g id="et" data-name="LINE">
      <line class="mv" x1="225.17" y1="542.59" x2="225.17" y2="483.63"/>
    </g>
    <g id="eu" data-name="LINE">
      <line class="mv" x1="229.98" y1="704.73" x2="279.02" y2="704.73"/>
    </g>
    <g id="ev" data-name="LINE">
      <line class="mv" x1="229.98" y1="689.99" x2="279.02" y2="689.99"/>
    </g>
    <g id="ew" data-name="LINE">
      <line class="mv" x1="229.98" y1="675.25" x2="279.02" y2="675.25"/>
    </g>
    <g id="ex" data-name="LWPOLYLINE">
      <rect class="mv" x="277.89" y="560.16" width="2.83" height="8.5"/>
    </g>
    <g id="ey" data-name="LWPOLYLINE">
      <rect class="mv" x="279.02" y="526.15" width="5.67" height="2.83"/>
    </g>
    <g id="ez" data-name="LWPOLYLINE">
      <rect class="mv" x="279.02" y="483.63" width="5.67" height="2.83"/>
    </g>
    <g id="fa" data-name="LWPOLYLINE">
      <rect class="mv" x="279.02" y="486.46" width="1.7" height="39.69"/>
    </g>
    <g id="fb" data-name="LWPOLYLINE">
      <rect class="mv" x="375.4" y="469.45" width="2.83" height="8.5"/>
    </g>
    <g id="fc" data-name="LWPOLYLINE">
      <rect class="mv" x="412.25" y="469.45" width="2.83" height="8.5"/>
    </g>
    <g id="fd" data-name="LWPOLYLINE">
      <rect class="mv" x="378.24" y="469.45" width="34.02" height="1.7"/>
    </g>
    <g id="fe" data-name="LWPOLYLINE">
      <rect class="mv" x="239.34" y="469.45" width="2.83" height="14.17"/>
    </g>
    <g id="ff" data-name="LWPOLYLINE">
      <rect class="mv" x="276.19" y="469.45" width="2.83" height="14.17"/>
    </g>
    <g id="fg" data-name="LWPOLYLINE">
      <rect class="mv" x="242.17" y="469.45" width="34.02" height="1.7"/>
    </g>
    <g id="fh" data-name="LWPOLYLINE">
      <rect class="mv" x="141.54" y="781.26" width="2.83" height="5.67"/>
    </g>
    <g id="fi" data-name="LWPOLYLINE">
      <polyline class="mv" points="142.39 786.93 142.39 788.07 143.53 788.07 143.53 786.93"/>
    </g>
    <g id="fj" data-name="LINE">
      <line class="mv" x1="142.96" y1="788.07" x2="142.96" y2="789.77"/>
    </g>
    <g id="fk" data-name="LWPOLYLINE">
      <polyline class="mv" points="141.54 789.07 141.54 789.77 144.38 789.77 144.38 789.08"/>
    </g>
    <g id="fl" data-name="LWPOLYLINE">
      <rect class="mv" x="730.3" y="421.26" width="5.67" height="2.83"/>
    </g>
    <g id="fm" data-name="LWPOLYLINE">
      <polyline class="mv" points="735.97 423.25 737.1 423.25 737.1 422.12 735.97 422.12"/>
    </g>
    <g id="fn" data-name="LINE">
      <line class="mv" x1="737.1" y1="422.68" x2="738.8" y2="422.68"/>
    </g>
    <g id="fo" data-name="LWPOLYLINE">
      <polyline class="mv" points="738.1 424.1 738.8 424.1 738.8 421.26 738.11 421.26"/>
    </g>
    <g id="fp" data-name="LWPOLYLINE">
      <rect class="mv" x="298.87" y="781.26" width="2.83" height="5.67"/>
    </g>
    <g id="fq" data-name="LWPOLYLINE">
      <polyline class="mv" points="299.72 786.93 299.72 788.07 300.85 788.07 300.85 786.93"/>
    </g>
    <g id="fr" data-name="LINE">
      <line class="mv" x1="300.28" y1="788.07" x2="300.28" y2="789.77"/>
    </g>
    <g id="fs" data-name="LWPOLYLINE">
      <polyline class="mv" points="298.87 789.07 298.87 789.77 301.7 789.77 301.7 789.08"/>
    </g>
    <g id="ft" data-name="LWPOLYLINE">
      <rect class="mv" x="426.43" y="781.26" width="2.83" height="5.67"/>
    </g>
    <g id="fu" data-name="LWPOLYLINE">
      <polyline class="mv" points="427.28 786.93 427.28 788.07 428.41 788.07 428.41 786.93"/>
    </g>
    <g id="fv" data-name="LINE">
      <line class="mv" x1="427.84" y1="788.07" x2="427.84" y2="789.77"/>
    </g>
    <g id="fw" data-name="LWPOLYLINE">
      <polyline class="mv" points="426.43 789.07 426.43 789.77 429.26 789.77 429.26 789.08"/>
    </g>
    <g id="fx" data-name="LWPOLYLINE">
      <rect class="mv" x="610.68" y="781.26" width="2.83" height="5.67"/>
    </g>
    <g id="fy" data-name="LWPOLYLINE">
      <polyline class="mv" points="611.53 786.93 611.53 788.07 612.66 788.07 612.66 786.93"/>
    </g>
    <g id="fz" data-name="LINE">
      <line class="mv" x1="612.1" y1="788.07" x2="612.1" y2="789.77"/>
    </g>
    <g id="ga" data-name="LWPOLYLINE">
      <polyline class="mv" points="610.68 789.07 610.68 789.77 613.51 789.77 613.51 789.08"/>
    </g>
    <g id="gb" data-name="LWPOLYLINE">
      <rect class="mv" x="637.76" y="781.74" width="2.83" height="5.67" transform="translate(-359.04 618.23) rotate(-41.37)"/>
    </g>
    <g id="gc" data-name="LWPOLYLINE">
      <polyline class="mv" points="640.63 787.08 641.38 787.93 642.23 787.18 641.48 786.33"/>
    </g>
    <g id="gd" data-name="LINE">
      <line class="mv" x1="641.8" y1="787.56" x2="642.92" y2="788.83"/>
    </g>
    <g id="ge" data-name="LWPOLYLINE">
      <polyline class="mv" points="641.4 789.24 641.86 789.77 643.99 787.9 643.53 787.38"/>
    </g>
    <g id="gf" data-name="LWPOLYLINE">
      <rect class="mv" x="457.61" y="781.26" width="2.83" height="5.67"/>
    </g>
    <g id="gg" data-name="LWPOLYLINE">
      <polyline class="mv" points="458.46 786.93 458.46 788.07 459.59 788.07 459.59 786.93"/>
    </g>
    <g id="gh" data-name="LINE">
      <line class="mv" x1="459.02" y1="788.07" x2="459.02" y2="789.77"/>
    </g>
    <g id="gi" data-name="LWPOLYLINE">
      <polyline class="mv" points="457.61 789.07 457.61 789.77 460.44 789.77 460.44 789.08"/>
    </g>
    <g id="gj" data-name="LWPOLYLINE">
      <rect class="mv" x="732.58" y="698.58" width="2.83" height="5.67" transform="translate(-280.41 660.14) rotate(-41.37)"/>
    </g>
    <g id="gk" data-name="LWPOLYLINE">
      <polyline class="mv" points="735.44 703.91 736.19 704.76 737.04 704.02 736.29 703.16"/>
    </g>
    <g id="gl" data-name="LINE">
      <line class="mv" x1="736.62" y1="704.39" x2="737.74" y2="705.67"/>
    </g>
    <g id="gm" data-name="LWPOLYLINE">
      <polyline class="mv" points="736.21 706.08 736.68 706.6 738.8 704.73 738.35 704.21"/>
    </g>
    <g id="gn" data-name="LWPOLYLINE">
      <rect class="mv" x="382.21" y="781.26" width="2.83" height="5.67"/>
    </g>
    <g id="go" data-name="LWPOLYLINE">
      <polyline class="mv" points="383.06 786.93 383.06 788.07 384.19 788.07 384.19 786.93"/>
    </g>
    <g id="gp" data-name="LINE">
      <line class="mv" x1="383.62" y1="788.07" x2="383.62" y2="789.77"/>
    </g>
    <g id="gq" data-name="LWPOLYLINE">
      <polyline class="mv" points="382.21 789.07 382.21 789.77 385.04 789.77 385.04 789.08"/>
    </g>
    <g id="gr" data-name="LWPOLYLINE">
      <rect class="mv" x="267.69" y="781.26" width="2.83" height="5.67"/>
    </g>
    <g id="gs" data-name="LWPOLYLINE">
      <polyline class="mv" points="268.54 786.93 268.54 788.07 269.67 788.07 269.67 786.93"/>
    </g>
    <g id="gt" data-name="LINE">
      <line class="mv" x1="269.1" y1="788.07" x2="269.1" y2="789.77"/>
    </g>
    <g id="gu" data-name="LWPOLYLINE">
      <polyline class="mv" points="267.69 789.07 267.69 789.77 270.52 789.77 270.52 789.08"/>
    </g>
    <g id="gv" data-name="LWPOLYLINE">
      <rect class="mv" x="730.3" y="673.55" width="5.67" height="2.83"/>
    </g>
    <g id="gw" data-name="LWPOLYLINE">
      <polyline class="mv" points="735.97 675.53 737.1 675.53 737.1 674.4 735.97 674.4"/>
    </g>
    <g id="gx" data-name="LINE">
      <line class="mv" x1="737.1" y1="674.97" x2="738.8" y2="674.97"/>
    </g>
    <g id="gy" data-name="LWPOLYLINE">
      <polyline class="mv" points="738.1 676.38 738.8 676.38 738.8 673.55 738.11 673.55"/>
    </g>
    <g id="gz" data-name="LWPOLYLINE">
      <rect class="mv" x="730.3" y="532.1" width="5.67" height="2.83"/>
    </g>
    <g id="ha" data-name="LWPOLYLINE">
      <polyline class="mv" points="735.97 534.08 737.1 534.08 737.1 532.95 735.97 532.95"/>
    </g>
    <g id="hb" data-name="LINE">
      <line class="mv" x1="737.1" y1="533.52" x2="738.8" y2="533.52"/>
    </g>
    <g id="hc" data-name="LWPOLYLINE">
      <polyline class="mv" points="738.1 534.93 738.8 534.93 738.8 532.1 738.11 532.1"/>
    </g>
    <g id="hd" data-name="LWPOLYLINE">
      <rect class="mv" x="730.3" y="563.28" width="5.67" height="2.83"/>
    </g>
    <g id="he" data-name="LWPOLYLINE">
      <polyline class="mv" points="735.97 565.26 737.1 565.26 737.1 564.13 735.97 564.13"/>
    </g>
    <g id="hf" data-name="LINE">
      <line class="mv" x1="737.1" y1="564.7" x2="738.8" y2="564.7"/>
    </g>
    <g id="hg" data-name="LWPOLYLINE">
      <polyline class="mv" points="738.1 566.12 738.8 566.12 738.8 563.28 738.11 563.28"/>
    </g>
    <g id="hh" data-name="LINE">
      <line class="mv" x1="301.7" y1="781.26" x2="382.21" y2="781.26"/>
    </g>
    <g id="hi" data-name="LINE">
      <line class="mv" x1="385.04" y1="781.26" x2="426.43" y2="781.26"/>
    </g>
    <g id="hj" data-name="LINE">
      <line class="mv" x1="301.7" y1="789.77" x2="382.21" y2="789.77"/>
    </g>
    <g id="hk" data-name="LINE">
      <line class="mv" x1="385.04" y1="789.77" x2="426.43" y2="789.77"/>
    </g>
    <g id="hl" data-name="LINE">
      <line class="mv" x1="460.44" y1="781.26" x2="610.68" y2="781.26"/>
    </g>
    <g id="hm" data-name="LINE">
      <line class="mv" x1="460.44" y1="789.77" x2="610.68" y2="789.77"/>
    </g>
    <g id="hn" data-name="LINE">
      <line class="mv" x1="638.37" y1="781.51" x2="731.06" y2="700.22"/>
    </g>
    <g id="ho" data-name="LINE">
      <line class="mv" x1="736.68" y1="706.6" x2="643.99" y2="787.9"/>
    </g>
    <g id="hp" data-name="LINE">
      <line class="mv" x1="152.88" y1="781.26" x2="267.69" y2="781.26"/>
    </g>
    <g id="hq" data-name="LINE">
      <line class="mv" x1="144.38" y1="789.77" x2="267.69" y2="789.77"/>
    </g>
    <g id="hr" data-name="LINE">
      <line class="mv" x1="730.3" y1="532.1" x2="730.3" y2="424.1"/>
    </g>
    <g id="hs" data-name="LINE">
      <line class="mv" x1="738.8" y1="532.1" x2="738.8" y2="424.1"/>
    </g>
    <g id="ht" data-name="LINE">
      <line class="mv" x1="730.3" y1="673.55" x2="730.3" y2="566.12"/>
    </g>
    <g id="hu" data-name="LINE">
      <line class="mv" x1="738.8" y1="673.55" x2="738.8" y2="566.12"/>
    </g>
    <g id="hv" data-name="LWPOLYLINE">
      <g>
        <line class="mn" x1="279.59" y1="560.16" x2="280.59" y2="560.16"/>
        <line class="nc" x1="281.59" y1="560.16" x2="329.11" y2="560.16"/>
        <polyline class="mn" points="329.61 560.16 330.61 560.16 330.61 560.73 329.61 560.73"/>
        <line class="nc" x1="328.61" y1="560.73" x2="281.09" y2="560.73"/>
        <line class="mn" x1="280.59" y1="560.73" x2="279.59" y2="560.73"/>
      </g>
    </g>
    <g id="hw" data-name="ARC">
      <g>
        <path class="mn" d="M279.59,611.19c.33,0,.67,0,1,0"/>
        <path class="mr" d="M281.58,611.15c26.76-1.03,48.24-22.66,49.01-49.49"/>
        <path class="mn" d="M330.61,561.16c0-.33,0-.67,0-1"/>
      </g>
    </g>
    <g id="hx" data-name="LWPOLYLINE">
      <g>
        <polyline class="mn" points="278.02 486.46 279.02 486.46 279.02 488.16 278.02 488.16"/>
        <line class="my" x1="277.01" y1="488.16" x2="240.85" y2="488.16"/>
        <polyline class="mn" points="240.34 488.16 239.34 488.16 239.34 486.46 240.34 486.46"/>
        <line class="my" x1="241.36" y1="486.46" x2="277.52" y2="486.46"/>
      </g>
    </g>
    <g id="hy" data-name="ARC">
      <g>
        <path class="mn" d="M239.34,486.46c0,.33,0,.67.01,1"/>
        <path class="nf" d="M239.39,488.45c1.01,20.5,17.58,36.91,38.14,37.67"/>
        <path class="mn" d="M278.02,526.13c.33,0,.67.01,1,.01"/>
      </g>
    </g>
    <g id="hz" data-name="LWPOLYLINE">
      <g>
        <polyline class="mn" points="411.39 468.95 412.25 469.45 411.4 470.93 410.54 470.43"/>
        <line class="nk" x1="409.64" y1="469.91" x2="383.26" y2="454.68"/>
        <polyline class="mn" points="382.81 454.42 381.94 453.92 382.79 452.45 383.66 452.95"/>
        <line class="nk" x1="384.55" y1="453.46" x2="410.94" y2="468.7"/>
      </g>
    </g>
    <g id="ia" data-name="ARC">
      <g>
        <path class="mn" d="M382.79,452.45c-.17.29-.33.58-.49.88"/>
        <path class="nh" d="M381.85,454.2c-2.15,4.28-3.37,8.98-3.58,13.77"/>
        <path class="mn" d="M378.25,468.45c0,.33-.01.67-.01,1"/>
      </g>
    </g>
    <g id="ib" data-name="LWPOLYLINE">
      <g>
        <polyline class="mn" points="242.17 468.45 242.17 469.45 243.87 469.45 243.87 468.45"/>
        <line class="nk" x1="243.87" y1="467.42" x2="243.87" y2="436.95"/>
        <polyline class="mn" points="243.87 436.44 243.87 435.44 242.17 435.44 242.17 436.44"/>
        <line class="nk" x1="242.17" y1="437.47" x2="242.17" y2="467.94"/>
      </g>
    </g>
    <g id="ic" data-name="ARC">
      <g>
        <path class="mn" d="M276.19,469.45c0-.33,0-.67-.01-1"/>
        <path class="ni" d="M276.13,467.47c-1-17.37-15.03-31.24-32.46-32"/>
        <path class="mn" d="M243.17,435.45c-.33,0-.67-.01-1-.01"/>
      </g>
    </g>
    <g id="id" data-name="LWPOLYLINE">
      <polyline class="mn" points="231.92 668.94 201.67 661.37 198.77 665.66 197.7 655.36 194.8 659.65 164.55 652.08"/>
    </g>
    <g id="ie" data-name="CIRCLE">
      <circle class="mn" cx="225.17" cy="513.11" r="1.42"/>
    </g>
    <g id="if" data-name="LWPOLYLINE">
      <polyline class="mn" points="201.44 647.1 198.24 650.3 195.03 647.1"/>
    </g>
    <g id="ig" data-name="CIRCLE">
      <circle class="mn" cx="254.5" cy="675.25" r="1.42"/>
    </g>
    <g id="ih" data-name="LWPOLYLINE">
      <polyline class="mn" points="198.24 670.71 198.24 734.49 200.03 736.48 254.5 736.48 254.5 675.25"/>
    </g>
    <g id="ii" data-name="LWPOLYLINE">
      <polyline class="mn" points="201.44 673.92 198.24 670.71 195.03 673.92"/>
    </g>
    <g id="ij" data-name="LWPOLYLINE">
      <polyline class="mn" points="198.24 650.3 198.24 513.11 225.17 513.11"/>
    </g>
    <g id="ik" data-name="LWPOLYLINE">
      <path class="mn" d="M354.16,533.57h-9.13v2.72h9.13c.75,0,1.36-.61,1.36-1.36s-.61-1.36-1.36-1.36Z"/>
    </g>
    <g id="il" data-name="LWPOLYLINE">
      <polyline class="mn" points="350.7 536.29 350.7 551.66 383.58 551.66 383.58 528.98 350.7 528.98 350.7 533.57"/>
    </g>
    <g id="im" data-name="LINE">
      <line class="mn" x1="284.64" y1="526.15" x2="335.66" y2="526.15"/>
    </g>
    <g id="in" data-name="LWPOLYLINE">
      <rect class="mn" x="295.83" y="536.38" width="8.5" height="2.27"/>
    </g>
    <g id="io" data-name="LWPOLYLINE">
      <path class="mn" d="M339.4,488.23h28.63v24.38h-28.63c-6.73,0-12.19-5.46-12.19-12.19s5.46-12.19,12.19-12.19Z"/>
    </g>
    <g id="ip" data-name="LWPOLYLINE">
      <polyline class="mn" points="298.67 536.38 298.67 527.88 327.01 527.88 327.01 547.15 298.67 547.15 298.67 538.65"/>
    </g>
    <g id="iq" data-name="LINE">
      <line class="mn" x1="449.1" y1="483.63" x2="449.1" y2="517.64"/>
    </g>
    <g id="ir" data-name="LWPOLYLINE">
      <polyline class="mn" points="434.93 431.47 137.58 431.47 137.58 469.45"/>
    </g>
    <g id="is" data-name="LWPOLYLINE">
      <polyline class="mn" points="434.93 433.17 139.28 433.17 139.28 469.45"/>
    </g>
    <g id="it" data-name="LINE">
      <line class="mn" x1="279.02" y1="764.26" x2="171.31" y2="764.26"/>
    </g>
    <g id="iu" data-name="LINE">
      <line class="mn" x1="171.31" y1="764.26" x2="171.31" y2="483.63"/>
    </g>
    <g id="iv" data-name="LINE">
      <line class="mn" x1="159.97" y1="483.63" x2="159.97" y2="764.26"/>
    </g>
    <g id="iw" data-name="LINE">
      <line class="mn" x1="341.39" y1="554.49" x2="436.35" y2="554.49"/>
    </g>
    <g id="ix" data-name="LINE">
      <line class="mn" x1="713.29" y1="440.43" x2="449.1" y2="440.43"/>
    </g>
    <g id="iy" data-name="LINE">
      <line class="mn" x1="713.97" y1="441.11" x2="713.97" y2="543.15"/>
    </g>
    <g id="iz" data-name="LINE">
      <line class="mn" x1="279.02" y1="775.6" x2="171.31" y2="775.6"/>
    </g>
    <g id="ja" data-name="LINE">
      <line class="mn" x1="723.95" y1="441.11" x2="723.95" y2="543.15"/>
    </g>
    <g id="jb" data-name="LINE">
      <line class="mn" x1="713.29" y1="430.45" x2="449.1" y2="430.45"/>
    </g>
    <g id="jc" data-name="LINE">
      <line class="mn" x1="727.47" y1="534.93" x2="727.47" y2="426.93"/>
    </g>
    <g id="jd" data-name="LINE">
      <line class="mn" x1="713.97" y1="492.13" x2="723.95" y2="492.13"/>
    </g>
    <g id="je" data-name="LINE">
      <line class="mn" x1="581.2" y1="440.43" x2="581.2" y2="430.45"/>
    </g>
    <g id="jf" data-name="LINE">
      <line class="mn" x1="225.17" y1="775.6" x2="225.17" y2="764.26"/>
    </g>
    <g id="jg" data-name="LINE">
      <line class="mn" x1="159.97" y1="623.94" x2="171.31" y2="623.94"/>
    </g>
    <g id="jh" data-name="LINE">
      <line class="mn" x1="637.58" y1="778.43" x2="727.47" y2="699.6"/>
    </g>
    <g id="ji" data-name="LINE">
      <line class="mn" x1="429.26" y1="778.43" x2="298.87" y2="778.43"/>
    </g>
    <g id="jj" data-name="LINE">
      <line class="mn" x1="457.61" y1="778.43" x2="613.51" y2="778.43"/>
    </g>
    <g id="jk" data-name="LINE">
      <line class="mn" x1="727.47" y1="676.38" x2="727.47" y2="563.28"/>
    </g>
    <g id="jl" data-name="LWPOLYLINE">
      <rect class="ne" x="279.02" y="472.29" width="11.34" height="11.34"/>
    </g>
    <g id="jm" data-name="LWPOLYLINE">
      <rect class="ne" x="279.7" y="472.97" width="9.98" height="9.98"/>
    </g>
    <g id="jn" data-name="LWPOLYLINE">
      <rect class="ne" x="437.76" y="764.26" width="11.34" height="11.34"/>
    </g>
    <g id="jo" data-name="LWPOLYLINE">
      <rect class="ne" x="438.44" y="764.94" width="9.98" height="9.98"/>
    </g>
    <g id="jp" data-name="LWPOLYLINE">
      <rect class="ne" x="622.02" y="764.26" width="11.34" height="11.34"/>
    </g>
    <g id="jq" data-name="LWPOLYLINE">
      <rect class="ne" x="622.7" y="764.94" width="9.98" height="9.98"/>
    </g>
    <g id="jr" data-name="LWPOLYLINE">
      <rect class="ne" x="713.29" y="684.89" width="11.34" height="11.34"/>
    </g>
    <g id="js" data-name="LWPOLYLINE">
      <rect class="ne" x="713.97" y="685.57" width="9.98" height="9.98"/>
    </g>
    <g id="jt" data-name="LWPOLYLINE">
      <rect class="ne" x="713.29" y="543.15" width="11.34" height="11.34"/>
    </g>
    <g id="ju" data-name="LWPOLYLINE">
      <rect class="ne" x="713.97" y="543.83" width="9.98" height="9.98"/>
    </g>
    <g id="jv" data-name="LWPOLYLINE">
      <rect class="ne" x="713.29" y="429.77" width="11.34" height="11.34"/>
    </g>
    <g id="jw" data-name="LWPOLYLINE">
      <rect class="ne" x="713.97" y="430.45" width="9.98" height="9.98"/>
    </g>
    <g id="jx" data-name="LWPOLYLINE">
      <rect class="ne" x="437.76" y="429.77" width="11.34" height="11.34"/>
    </g>
    <g id="jy" data-name="LWPOLYLINE">
      <rect class="ne" x="438.44" y="430.45" width="9.98" height="9.98"/>
    </g>
    <g id="jz" data-name="LWPOLYLINE">
      <rect class="ne" x="436.35" y="541.74" width="14.17" height="14.17"/>
    </g>
    <g id="ka" data-name="LWPOLYLINE">
      <rect class="ne" x="437.03" y="542.42" width="12.81" height="12.81"/>
    </g>
    <g id="kb" data-name="LWPOLYLINE">
      <rect class="ne" x="279.02" y="543.15" width="11.34" height="11.34"/>
    </g>
    <g id="kc" data-name="LWPOLYLINE">
      <rect class="ne" x="279.7" y="543.83" width="9.98" height="9.98"/>
    </g>
    <g id="kd" data-name="LWPOLYLINE">
      <rect class="ne" x="159.97" y="472.29" width="11.34" height="11.34"/>
    </g>
    <g id="ke" data-name="LWPOLYLINE">
      <rect class="ne" x="160.65" y="472.97" width="9.98" height="9.98"/>
    </g>
    <g id="kf" data-name="LWPOLYLINE">
      <rect class="ne" x="159.97" y="764.26" width="11.34" height="11.34"/>
    </g>
    <g id="kg" data-name="LWPOLYLINE">
      <rect class="ne" x="160.65" y="764.94" width="9.98" height="9.98"/>
    </g>
    <g id="kh" data-name="LWPOLYLINE">
      <rect class="ne" x="279.02" y="764.26" width="11.34" height="11.34"/>
    </g>
    <g id="ki" data-name="LWPOLYLINE">
      <rect class="ne" x="279.7" y="764.94" width="9.98" height="9.98"/>
    </g>
    <g id="kj" data-name="LWPOLYLINE">
      <rect class="ne" x="429.26" y="789.77" width="28.35" height="14.17"/>
    </g>
    <g id="kk" data-name="LWPOLYLINE">
      <rect class="ne" x="613.51" y="789.77" width="28.35" height="14.17"/>
    </g>
    <g id="kl" data-name="LWPOLYLINE">
      <rect class="ne" x="270.52" y="789.77" width="28.35" height="14.17"/>
    </g>
    <g id="km" data-name="LWPOLYLINE">
      <rect class="ne" x="738.8" y="676.38" width="14.17" height="28.35"/>
    </g>
    <g id="kn" data-name="LWPOLYLINE">
      <rect class="ne" x="738.8" y="534.93" width="14.17" height="28.35"/>
    </g>
    <g id="ko" data-name="LINE">
      <line class="mp" x1="171.31" y1="472.29" x2="239.34" y2="472.29"/>
    </g>
    <g id="kp" data-name="LINE">
      <line class="mp" x1="239.34" y1="477.96" x2="171.31" y2="477.96"/>
    </g>
    <g id="kq" data-name="LINE">
      <line class="mp" x1="159.97" y1="472.29" x2="152.88" y2="472.29"/>
    </g>
    <g id="kr" data-name="LINE">
      <line class="mp" x1="159.97" y1="477.96" x2="152.88" y2="477.96"/>
    </g>
    <g id="ks" data-name="LWPOLYLINE">
      <polyline class="mp" points="437.76 441.11 437.76 472.29 415.09 472.29"/>
    </g>
    <g id="kt" data-name="LWPOLYLINE">
      <polyline class="mp" points="443.43 441.11 443.43 477.96 415.09 477.96"/>
    </g>
    <g id="ku" data-name="LINE">
      <line class="mp" x1="290.36" y1="472.29" x2="375.4" y2="472.29"/>
    </g>
    <g id="kv" data-name="LINE">
      <line class="mp" x1="290.36" y1="477.96" x2="375.4" y2="477.96"/>
    </g>
    <g id="kw" data-name="LWPOLYLINE">
      <polyline class="mp" points="437.76 429.77 437.76 415.6 738.8 415.6"/>
    </g>
    <g id="kx" data-name="LWPOLYLINE">
      <polyline class="mp" points="443.43 429.77 443.43 421.26 730.3 421.26"/>
    </g>
    <g id="ky" data-name="LWPOLYLINE">
      <rect class="mq" x="141.54" y="472.29" width="11.34" height="308.98"/>
    </g>
    <g id="kz" data-name="LWPOLYLINE">
      <rect class="mq" x="730.87" y="536.63" width="7.94" height="24.94"/>
    </g>
    <g id="la" data-name="LWPOLYLINE">
      <rect class="mq" x="430.96" y="781.83" width="24.94" height="7.94"/>
    </g>
    <g id="lb" data-name="LWPOLYLINE">
      <rect class="mq" x="272.22" y="781.83" width="24.94" height="7.94"/>
    </g>
    <g id="lc" data-name="LWPOLYLINE">
      <rect class="mq" x="615.22" y="781.83" width="21.03" height="7.94"/>
    </g>
    <g id="ld" data-name="LWPOLYLINE">
      <rect class="mq" x="730.87" y="678.08" width="7.94" height="20.26"/>
    </g>
    <g id="le" data-name="LINE">
      <line class="ng" x1="279.02" y1="528.98" x2="279.02" y2="543.15"/>
    </g>
    <g id="lf" data-name="LINE">
      <line class="ng" x1="284.69" y1="528.98" x2="284.69" y2="543.15"/>
    </g>
    <g id="lg" data-name="LWPOLYLINE">
      <polyline class="ng" points="290.36 554.49 341.39 554.49 341.39 523.31 436.35 523.31 436.35 541.74"/>
    </g>
    <g id="lh" data-name="LWPOLYLINE">
      <polyline class="ng" points="375.4 477.96 375.4 517.64 415.09 517.64 415.09 477.96"/>
    </g>
    <g id="li" data-name="LWPOLYLINE">
      <polyline class="ng" points="449.1 441.11 449.1 483.63 420.76 483.63 420.76 517.64 449.1 517.64 449.1 541.74"/>
    </g>
    <g id="lj" data-name="LINE">
      <line class="ng" x1="279.02" y1="469.45" x2="375.4" y2="469.45"/>
    </g>
    <g id="lk" data-name="LWPOLYLINE">
      <polyline class="ng" points="290.36 483.63 369.73 483.63 369.73 517.64 335.72 517.64 335.72 548.82 290.36 548.82"/>
    </g>
    <g id="ll" data-name="LINE">
      <line class="ng" x1="239.34" y1="483.63" x2="171.31" y2="483.63"/>
    </g>
    <g id="lm" data-name="LINE">
      <line class="ng" x1="159.97" y1="483.63" x2="152.88" y2="483.63"/>
    </g>
    <g id="ln" data-name="LWPOLYLINE">
      <polyline class="ng" points="449.1 429.77 449.1 426.93 730.3 426.93 730.3 421.26 738.8 421.26 738.8 412.76 434.93 412.76 434.93 469.45 415.09 469.45"/>
    </g>
    <g id="lo" data-name="LWPOLYLINE">
      <polyline class="ng" points="239.34 469.45 135.87 469.45 135.87 789.77 141.54 789.77 141.54 781.26"/>
    </g>
    <g id="lp" data-name="LWPOLYLINE">
      <polyline class="ng" points="457.61 789.77 457.61 778.43 429.26 778.43 429.26 789.77"/>
    </g>
    <g id="lq" data-name="LWPOLYLINE">
      <polyline class="ng" points="738.8 563.28 727.47 563.28 727.47 534.93 738.8 534.93"/>
    </g>
    <g id="lr" data-name="LWPOLYLINE">
      <polyline class="ng" points="298.87 789.77 298.87 778.43 270.52 778.43 270.52 789.77"/>
    </g>
    <g id="ls" data-name="LWPOLYLINE">
      <polyline class="ng" points="637.58 782.2 637.58 778.43 613.51 778.43 613.51 789.77"/>
    </g>
    <g id="lt" data-name="LWPOLYLINE">
      <polyline class="ng" points="738.8 676.38 727.47 676.38 727.47 699.6 731.76 699.6"/>
    </g>
  </g>
  <g id="ma" data-name="SCALE">
    <g>
      <g id="mb" data-name="CIRCLE">
        <circle class="mn" cx="69.24" cy="1074" r="14.88"/>
      </g>
      <g id="mc" data-name="TEXT">
        <path class="mu" d="M78.85,1058.48l-.86-.35-1.27-8.05-2.62,6.47-.84-.34,3.28-8.1.87.35,1.26,8.02,2.61-6.45.84.34-3.28,8.1Z"/>
      </g>
      <g id="md" data-name="HATCH">
        <path class="mo" d="M74.82,1060.21c-.23-.09-.46-.18-.7-.26l-5.57,13.78.69.28,5.58-13.8Z"/>
      </g>
      <g id="me" data-name="HATCH">
        <path class="mo" d="M75.5,1060.5c-.23-.1-.45-.2-.69-.3l-5.58,13.8.69.28,5.57-13.78Z"/>
      </g>
      <g id="mf" data-name="LINE">
        <line class="mn" x1="74.12" y1="1059.94" x2="68.54" y2="1073.72"/>
      </g>
      <g id="mg" data-name="LINE">
        <line class="mn" x1="75.5" y1="1060.5" x2="69.93" y2="1074.28"/>
      </g>
      <g id="mh" data-name="LINE">
        <line class="mn" x1="69.24" y1="1074" x2="74.82" y2="1060.21"/>
      </g>
      <g id="mi" data-name="MTEXT">
        <path class="mu" d="M52.86,1145.9c-.63-.5-1.13-1.2-1.49-2.1-.36-.9-.54-1.92-.54-3.06s.18-2.14.54-3.04c.36-.9.85-1.59,1.49-2.1.63-.5,1.36-.75,2.17-.75s1.53.25,2.17.75c.63.5,1.13,1.2,1.49,2.1.36.9.54,1.91.54,3.04s-.18,2.16-.54,3.05c-.36.89-.85,1.59-1.49,2.1s-1.36.76-2.17.76-1.53-.25-2.17-.75ZM56.51,1144.86c.44-.41.78-.96,1.02-1.67.24-.71.36-1.52.36-2.44s-.12-1.73-.36-2.45c-.24-.71-.58-1.27-1.02-1.67-.44-.4-.93-.6-1.49-.6s-1.05.2-1.48.6c-.43.4-.77.96-1.02,1.67-.25.71-.37,1.53-.37,2.43s.12,1.75.37,2.46c.25.71.58,1.27,1.02,1.67s.93.61,1.48.61,1.05-.2,1.49-.61Z"/>
      </g>
      <g id="mj" data-name="MTEXT">
        <path class="mu" d="M165.18,1144.72c.19-.17.42-.38.71-.64.93-.85,1.67-1.57,2.24-2.15.57-.58,1.05-1.17,1.44-1.78s.59-1.16.59-1.67c0-.48-.09-.9-.28-1.27s-.45-.66-.78-.86-.71-.31-1.15-.31c-.47,0-.93.16-1.37.48-.44.32-.78.73-1,1.23l-1.2-.51c.3-.7.78-1.28,1.46-1.73.67-.45,1.38-.67,2.11-.67.69,0,1.31.16,1.85.46.54.31.96.74,1.26,1.29.3.55.45,1.18.45,1.9s-.22,1.41-.67,2.14c-.45.73-.98,1.41-1.6,2.04-.62.63-1.42,1.39-2.42,2.27-.49.45-.95.88-1.39,1.3l-.94-.85c.28-.27.51-.49.7-.66ZM164.48,1145.38h7.22v1.18h-7.04l-.18-1.18Z"/>
      </g>
      <g id="mk" data-name="MTEXT">
        <path class="mu" d="M111.84,1146.54h-1.34v-10.08l-1.86,1.2-.67-1.07,2.54-1.62h1.33v11.57Z"/>
      </g>
      <g id="ml" data-name="MTEXT">
        <g>
          <path class="mu" d="M330.05,1139.31c.55-.25,1.08-.38,1.59-.38.77,0,1.45.16,2.06.49.6.33,1.07.78,1.41,1.35s.5,1.24.5,1.98-.17,1.43-.5,2.02-.8,1.05-1.4,1.38-1.29.5-2.07.5c-.6,0-1.16-.12-1.69-.38-.53-.25-.98-.6-1.34-1.05-.37-.45-.62-.95-.74-1.52l1.3-.3c.13.59.42,1.06.89,1.43.46.37.99.55,1.59.55.5,0,.95-.11,1.35-.34.4-.22.71-.54.94-.94.23-.41.34-.86.34-1.36s-.11-.95-.34-1.34c-.23-.39-.54-.69-.94-.91-.4-.22-.85-.33-1.35-.33-.33,0-.68.09-1.04.26-.36.18-.66.4-.9.68l-.99-.86c.34-.38.79-.7,1.34-.95ZM328.37,1140.93l.37-6.03h5.92v1.18h-4.64l-.32,5.04-1.33-.19Z"/>
          <path class="mu" d="M346.78,1140.76c-.29-.34-.67-.5-1.13-.5-.35,0-.66.07-.94.22-.27.14-.49.34-.65.6-.16.26-.24.55-.24.88v4.58h-1.33v-4.45c0-.54-.14-.98-.43-1.32s-.66-.5-1.12-.5c-.34,0-.65.09-.94.26s-.5.42-.66.72c-.15.3-.23.63-.23.98v4.3h-1.33v-7.46h1.33v1.31l-.14-.05c.22-.37.52-.68.9-.91.37-.23.75-.35,1.14-.35.46,0,.9.13,1.32.38.42.26.74.59.95.99.25-.41.59-.74,1.04-.99.45-.26.9-.38,1.36-.38.55,0,1.05.13,1.49.38.44.25.78.59,1.02,1.02.25.43.37.93.37,1.5v4.56h-1.34v-4.45c0-.54-.15-.98-.44-1.32Z"/>
        </g>
      </g>
      <g id="mm" data-name="LWPOLYLINE">
        <polyline class="mn" points="337.82 1130.89 337.82 1113.88 167.74 1113.88 167.74 1130.89 111.05 1130.89 111.05 1113.88 54.35 1113.88 54.35 1130.89"/>
      </g>
    </g>
    <g>
      <g>
        <path class="mt" d="M819.61,1101.04v2.45c0,.78-.16,1.57-.48,2.34-.32.78-.74,1.48-1.26,2.09s-1.06,1.09-1.62,1.41l-.42-.53c.52-.28,1.04-.7,1.54-1.27.5-.57.92-1.21,1.23-1.93.32-.71.48-1.42.48-2.12v-2.45h.53ZM819.69,1101.04v2.45c0,.67.16,1.35.48,2.04.32.69.73,1.3,1.24,1.84.5.54,1.02.95,1.55,1.22l-.42.5c-.57-.31-1.11-.76-1.63-1.34s-.94-1.26-1.27-2c-.33-.75-.49-1.5-.49-2.25v-2.45h.53ZM825.08,1099.9v12.08h-.64v-12.08h.64ZM827.24,1104.97v.57h-2.31v-.57h2.31Z"/>
        <path class="mt" d="M839.11,1107.11v.56h-10.95v-.56h10.95ZM837.61,1100.64v4.58h-7.97v-4.58h7.97ZM830.28,1101.19v3.51h6.71v-3.51h-6.71ZM833.93,1107.42v4.56h-.63v-4.56h.63Z"/>
        <path class="mt" d="M844.32,1100.31v.92c0,.72-.15,1.4-.46,2.03s-.72,1.19-1.23,1.67c-.51.48-1.08.84-1.69,1.11l-.35-.53c.57-.21,1.1-.54,1.58-.97.49-.43.88-.93,1.17-1.5.29-.57.44-1.17.44-1.8v-.92h.55ZM850.19,1106.93v2.63h-6.96v1.97h-.62v-2.49h6.94v-1.55h-6.99v-.56h7.62ZM850.67,1111.26v.55h-8.06v-.55h8.06ZM844.4,1100.31v.92c0,.59.15,1.16.45,1.7.3.55.7,1.02,1.19,1.42.49.4,1.02.71,1.58.92l-.34.52c-.63-.24-1.2-.59-1.71-1.04-.52-.45-.93-.97-1.24-1.58-.31-.61-.46-1.25-.46-1.95v-.92h.53ZM850.19,1099.9v6.36h-.64v-6.36h.64Z"/>
        <path class="mt" d="M817.2,1118.38v1.96h4.16v-1.96h.63v5.25h-5.43v-5.25h.64ZM817.2,1123.07h4.16v-2.18h-4.16v2.18ZM825.22,1124.87v2.66h-6.78v2.09h-.63v-2.6h6.78v-1.6h-6.82v-.55h7.45ZM825.71,1129.26v.55h-7.9v-.55h7.9ZM825.22,1117.9v6.3h-.64v-6.3h.64ZM827.13,1120.7v.56h-2.24v-.56h2.24Z"/>
        <path class="mt" d="M839.07,1127.58v.56h-10.91v-.56h10.91ZM837.14,1122.59l-7.8.46-.11-.6,7.91-.36v.5ZM837.22,1119.2v.56h-7.7v-.56h7.7ZM833.33,1124.29v3.5h-.64v-3.5h.64ZM837.57,1119.2v1.2c0,1.01-.03,1.91-.08,2.7-.05.79-.18,1.71-.38,2.76l-.64-.1c.21-1,.34-1.89.39-2.67.06-.78.08-1.68.08-2.69v-1.2h.63Z"/>
        <path class="mt" d="M841.9,1119.12v7.45h-.63v-7.45h.63ZM848.03,1125.59l.1.59c-1.04.21-2.03.35-2.99.45-.96.09-1.94.14-2.95.14h-.92v-.57h.92c2.04,0,3.99-.2,5.84-.6ZM850.13,1117.9v12.08h-.63v-12.08h.63Z"/>
        <path class="mt" d="M820.53,1140.45c-.34.95-.85,1.84-1.53,2.67s-1.54,1.57-2.57,2.19l-.39-.5c.94-.57,1.74-1.24,2.39-2,.65-.76,1.15-1.59,1.48-2.47.33-.88.5-1.79.5-2.72v-.1h.63c0,1.01-.17,1.99-.5,2.93ZM820.73,1137.51v.56h-4.28v-.56h4.28ZM823.47,1142.43v.55h-2.95v-.55h2.95ZM823.47,1139.39v.55h-2.84v-.55h2.84ZM823.71,1136.25v11.05h-.63v-11.05h.63ZM826.09,1135.9v12.08h-.64v-12.08h.64Z"/>
        <path class="mt" d="M834.1,1136.99v.57h-4.63v4.56h-.64v-5.14h5.28ZM832.8,1141.75c.82-.06,1.64-.17,2.47-.34l.1.56c-.88.17-1.73.29-2.56.35-.83.07-1.87.1-3.11.1h-.88v-.57h.88c1.25,0,2.28-.03,3.1-.09ZM830.78,1143.81v3.5h-.64v-3.5h.64ZM838.08,1147.1v.56h-7.94v-.56h7.94ZM837.46,1135.89v8.76h-.64v-8.76h.64ZM839.38,1139.7v.55h-2.16v-.55h2.16Z"/>
        <path class="mt" d="M844.32,1136.31v.92c0,.72-.15,1.4-.46,2.03s-.72,1.19-1.23,1.67c-.51.48-1.08.84-1.69,1.11l-.35-.53c.57-.21,1.1-.54,1.58-.97.49-.43.88-.93,1.17-1.5.29-.57.44-1.17.44-1.8v-.92h.55ZM850.19,1142.93v2.63h-6.96v1.97h-.62v-2.49h6.94v-1.55h-6.99v-.56h7.62ZM850.67,1147.26v.55h-8.06v-.55h8.06ZM844.4,1136.31v.92c0,.59.15,1.16.45,1.7.3.55.7,1.02,1.19,1.42.49.4,1.02.71,1.58.92l-.34.52c-.63-.24-1.2-.59-1.71-1.04-.52-.45-.93-.97-1.24-1.58-.31-.61-.46-1.25-.46-1.95v-.92h.53ZM850.19,1135.9v6.36h-.64v-6.36h.64Z"/>
        <path class="mt" d="M819.97,1162.81c1.27-.05,2.46-.15,3.58-.32l.06.5c-1.17.2-2.37.32-3.61.38-1.24.06-2.6.09-4.07.09l-.14-.59c1.52,0,2.92-.02,4.19-.07ZM823.28,1155.47v.55h-7.29v-.55h7.29ZM821.09,1157.16c.42.18.74.44.97.78.23.34.35.73.35,1.18s-.12.82-.35,1.15c-.23.33-.56.59-.97.77-.42.18-.9.27-1.45.27s-1.03-.09-1.45-.27c-.42-.18-.74-.44-.97-.77-.23-.33-.34-.72-.34-1.15s.11-.84.34-1.18c.23-.34.55-.59.97-.78.42-.18.9-.27,1.45-.27s1.03.09,1.45.27ZM818.08,1157.88c-.4.31-.59.72-.59,1.21s.2.9.59,1.2c.4.31.92.46,1.56.46s1.16-.15,1.56-.46.6-.71.6-1.2-.2-.9-.6-1.21-.92-.47-1.56-.47-1.16.16-1.56.47ZM819.97,1153.89v1.85h-.66v-1.85h.66ZM819.97,1161.14v1.96h-.66v-1.96h.66ZM825.03,1153.9v12.08h-.64v-12.08h.64ZM827.17,1159.19v.57h-2.3v-.57h2.3Z"/>
        <path class="mt" d="M831.89,1155.16v1.13c0,.7-.15,1.35-.44,1.96s-.7,1.13-1.2,1.58-1.07.78-1.69,1.01l-.34-.52c.57-.21,1.09-.51,1.57-.9s.86-.87,1.15-1.41c.29-.54.43-1.12.43-1.72v-1.13h.52ZM834.87,1154.85v.56h-6.41v-.56h6.41ZM835.74,1161.92c.58.16,1.03.4,1.34.72.31.32.47.7.47,1.15,0,.68-.34,1.21-1.03,1.59s-1.64.57-2.86.57c-.8,0-1.5-.08-2.08-.25-.58-.17-1.03-.42-1.34-.74-.31-.33-.46-.71-.46-1.16s.15-.83.46-1.15c.31-.32.75-.56,1.34-.72.58-.16,1.28-.25,2.08-.25s1.5.08,2.08.25ZM831.95,1162.41c-.49.13-.87.31-1.13.55-.27.23-.4.51-.4.83,0,.49.29.89.88,1.18s1.38.43,2.37.43,1.78-.14,2.37-.43.89-.68.89-1.18c0-.32-.14-.59-.41-.83-.27-.23-.65-.42-1.14-.55-.49-.13-1.06-.2-1.72-.2s-1.22.07-1.71.2ZM831.99,1155.16v1.12c0,.54.14,1.06.41,1.56.27.5.64.94,1.11,1.31.46.37.97.66,1.52.87l-.31.5c-.61-.22-1.16-.55-1.65-.97s-.89-.91-1.18-1.47c-.29-.56-.43-1.16-.43-1.81v-1.12h.53ZM837.45,1153.9v7.36h-.64v-7.36h.64ZM839.36,1157.18v.56h-2.1v-.56h2.1Z"/>
        <path class="mt" d="M844.32,1154.31v.92c0,.72-.15,1.4-.46,2.03s-.72,1.19-1.23,1.67c-.51.48-1.08.84-1.69,1.11l-.35-.53c.57-.21,1.1-.54,1.58-.97.49-.43.88-.93,1.17-1.5.29-.57.44-1.17.44-1.8v-.92h.55ZM850.19,1160.93v2.63h-6.96v1.97h-.62v-2.49h6.94v-1.55h-6.99v-.56h7.62ZM850.67,1165.26v.55h-8.06v-.55h8.06ZM844.4,1154.31v.92c0,.59.15,1.16.45,1.7.3.55.7,1.02,1.19,1.42.49.4,1.02.71,1.58.92l-.34.52c-.63-.24-1.2-.59-1.71-1.04-.52-.45-.93-.97-1.24-1.58-.31-.61-.46-1.25-.46-1.95v-.92h.53ZM850.19,1153.9v6.36h-.64v-6.36h.64Z"/>
      </g>
      <g>
        <path class="mt" d="M805.03,1111.05h-.67v-9.35l-1.26.87-.36-.49,1.62-1.13h.67v10.11Z"/>
        <path class="mt" d="M801.93,1127.81c.2-.19.43-.41.68-.65.84-.79,1.51-1.46,2.02-1.99.51-.53.94-1.09,1.31-1.67s.55-1.12.55-1.61-.09-.9-.28-1.27-.45-.67-.78-.88c-.33-.21-.71-.32-1.13-.32-.47,0-.91.16-1.34.48-.42.32-.75.73-.96,1.24l-.63-.27c.26-.61.66-1.1,1.2-1.48.54-.38,1.12-.57,1.72-.57.55,0,1.04.13,1.47.39.43.26.77.63,1.01,1.09.25.47.37.99.37,1.58s-.19,1.18-.57,1.81-.84,1.23-1.38,1.79c-.54.56-1.23,1.25-2.09,2.05-.59.55-1.04.98-1.36,1.3l-.48-.39c.23-.24.45-.46.65-.65ZM801.27,1128.46h6.02v.59h-5.94l-.08-.59Z"/>
        <path class="mt" d="M806.95,1142.75c.33.44.5.92.5,1.43,0,.57-.14,1.08-.41,1.53s-.65.8-1.13,1.06-1.03.38-1.64.38-1.17-.13-1.65-.38-.86-.6-1.13-1.06-.41-.96-.41-1.53h.67c0,.46.11.87.32,1.23s.51.64.9.84c.38.2.81.3,1.29.3s.92-.1,1.3-.29.68-.46.89-.79.32-.72.32-1.16-.11-.8-.32-1.13-.5-.59-.88-.78c-.38-.19-.8-.28-1.28-.28h-.41v-.62h.39c.45,0,.85-.09,1.21-.26s.64-.41.84-.72c.2-.31.3-.66.3-1.05,0-.6-.21-1.09-.64-1.47-.43-.38-.98-.57-1.65-.57-.44,0-.83.09-1.19.27-.36.18-.63.44-.82.77-.19.33-.29.71-.29,1.13h-.67c0-.53.13-1.01.38-1.43s.6-.75,1.05-.99c.45-.24.96-.36,1.54-.36s1.09.12,1.54.36c.45.24.8.57,1.05.99.25.42.38.9.38,1.43,0,.43-.15.85-.45,1.27s-.69.73-1.16.94c.5.19.92.5,1.25.94Z"/>
        <path class="mt" d="M806.13,1161.48h1.64v.6h-1.64v2.97h-.67v-2.97h-4.61l-.1-.62,4.7-6.52h.67v6.54ZM805.46,1161.48v-5.38l-3.88,5.38h3.88Z"/>
      </g>
    </g>
    <path class="mt" d="M470.44,619.67h-.58v-8.02l-1.08.74-.31-.42,1.39-.97h.58v8.66Z"/>
    <path class="mt" d="M205.15,455.36c.17-.16.37-.35.58-.56.72-.68,1.3-1.25,1.73-1.7.44-.46.81-.93,1.12-1.43.31-.5.47-.96.47-1.38s-.08-.77-.24-1.09c-.16-.32-.38-.57-.67-.75-.28-.18-.61-.27-.97-.27-.4,0-.78.14-1.15.41-.36.28-.64.63-.82,1.06l-.54-.23c.22-.52.57-.94,1.03-1.27.46-.33.96-.49,1.48-.49.47,0,.89.11,1.26.34s.66.54.87.94c.21.4.32.85.32,1.36s-.16,1.01-.49,1.55-.72,1.05-1.18,1.54c-.46.48-1.06,1.07-1.79,1.76-.5.47-.89.84-1.16,1.12l-.41-.34c.2-.21.39-.39.56-.56ZM204.6,455.91h5.16v.5h-5.09l-.07-.5Z"/>
    <path class="mt" d="M251.43,601.76c.28.38.43.78.43,1.22,0,.49-.12.93-.35,1.31-.23.39-.55.69-.97.91-.41.22-.88.32-1.41.32s-1-.11-1.41-.32-.73-.52-.97-.91c-.23-.39-.35-.83-.35-1.31h.58c0,.39.09.74.28,1.05.18.31.44.55.77.72.33.17.7.26,1.1.26s.79-.08,1.12-.25.58-.39.76-.68c.18-.29.27-.62.27-1s-.09-.68-.27-.97c-.18-.28-.43-.51-.76-.67-.32-.16-.69-.24-1.1-.24h-.35v-.53h.34c.38,0,.73-.07,1.04-.22.31-.15.55-.35.72-.62.17-.26.26-.56.26-.9,0-.51-.18-.93-.55-1.26-.37-.33-.84-.49-1.42-.49-.38,0-.72.08-1.02.23-.3.16-.54.38-.7.66-.16.28-.25.61-.25.97h-.58c0-.46.11-.86.32-1.22.22-.36.52-.64.9-.85.38-.2.82-.31,1.32-.31s.94.1,1.32.31c.38.2.68.49.9.85.22.36.32.77.32,1.22,0,.37-.13.73-.38,1.09-.26.36-.59.63-1,.81.43.16.79.43,1.07.8Z"/>
    <path class="mt" d="M311.47,508.63h1.4v.52h-1.4v2.54h-.58v-2.54h-3.95l-.08-.53,4.03-5.59h.58v5.6ZM310.89,508.63v-4.61l-3.32,4.61h3.32Z"/>
  </g>
</svg>