<?xml version="1.0" encoding="UTF-8"?>
<svg xmlns="http://www.w3.org/2000/svg" viewBox="0 0 900 1200">
  <defs>
    <style>
      .ia {
        stroke-width: .18px;
      }

      .ia, .ib, .ic, .id, .ie, .if, .ig, .ih, .ii, .ij, .ik, .il, .im, .in, .io, .ip, .iq, .ir, .is, .it, .iu {
        stroke: #000;
      }

      .ia, .ib, .ic, .ie, .if, .ig, .ih, .ii, .ij, .il, .im, .in, .io, .ip, .iq, .ir, .is, .it, .iu {
        stroke-miterlimit: 10;
      }

      .ia, .ib, .ic, .if, .ig, .ih, .ii, .ij, .il, .im, .in, .io, .ip, .iq, .ir, .is, .it, .iu {
        fill: none;
      }

      .ib, .id, .ie, .ik {
        stroke-width: .5px;
      }

      .ic {
        stroke-dasharray: 1.98 .99;
      }

      .ic, .ig, .ii, .il, .io, .ip, .iu {
        stroke-width: .3px;
      }

      .id {
        font-family: SUITVariable-Regular, 'SUIT Variable';
        font-size: 11.26px;
        font-variation-settings: 'wght' 400;
      }

      .id, .ie, .ik {
        fill: #040000;
      }

      .ie {
        fill-rule: evenodd;
      }

      .if {
        stroke-width: .8px;
      }

      .ig {
        stroke-dasharray: 2.02 1.01;
      }

      .ih {
        stroke-dasharray: 1.88 .94;
      }

      .ih, .im, .in, .ir, .it {
        stroke-width: .25px;
      }

      .ii {
        stroke-dasharray: 2 1;
      }

      .ij {
        stroke-width: .4px;
      }

      .ik {
        font-family: SUITVariable-Medium, 'SUIT Variable';
        font-size: 16.01px;
        font-variation-settings: 'wght' 500;
        font-weight: 500;
      }

      .il {
        stroke-dasharray: 1.98 .99;
      }

      .in, .io {
        stroke-dasharray: 2.07 1.03;
      }

      .iq {
        stroke-width: .6px;
      }

      .ir {
        stroke-dasharray: 1.97 .99;
      }

      .is {
        stroke-width: .1px;
      }

      .it {
        stroke-dasharray: 1.97 .99;
      }

      .iu {
        stroke-dasharray: 1.98 .99;
      }
    </style>
  </defs>
  <g id="e" data-name="F5">
    <g id="f" data-name="HATCH">
      <path class="is" d="M508.35,482.16h217.42M230.84,518.16h494.93M230.84,554.16h494.93M230.84,590.16h494.93M230.84,626.16h494.93M252.36,626.78v-143.15M288.36,626.78v-143.15M324.36,626.78v-143.15M360.36,626.78v-143.15M396.36,626.78v-143.15M432.36,626.78v-143.15M468.36,626.78v-143.15M504.36,626.78v-143.15M540.36,626.78v-157.32M576.36,626.78v-157.32M612.36,626.78v-157.32M648.36,626.78v-157.32M684.36,626.78v-157.32M720.36,626.78v-157.32"/>
    </g>
    <g id="g" data-name="HATCH">
      <rect class="is" x="135.87" y="469.45" width="94.96" height="157.32"/>
      <path class="is" d="M137.34,626.78v-157.32M143.36,626.78v-157.32M149.37,626.78v-157.32M155.38,626.78v-157.32M161.4,626.78v-157.32M167.41,626.78v-157.32M173.42,626.78v-157.32M179.44,626.78v-157.32M185.45,626.78v-157.32M191.46,626.78v-157.32M197.48,626.78v-157.32M203.49,626.78v-157.32M209.5,626.78v-157.32M215.52,626.78v-157.32M221.53,626.78v-157.32M227.54,626.78v-157.32"/>
    </g>
    <g id="h" data-name="HATCH">
      <polygon class="is" points="494.17 469.45 494.17 455.28 738.8 455.28 738.8 398.02 135.87 398.02 135.87 469.45 230.84 469.45 494.17 469.45"/>
      <path class="is" d="M137.77,469.45v-71.43M145.78,469.45v-71.43M153.8,469.45v-71.43M161.82,469.45v-71.43M169.84,469.45v-71.43M177.85,469.45v-71.43M185.87,469.45v-71.43M193.89,469.45v-71.43M201.91,469.45v-71.43M209.92,469.45v-71.43M217.94,469.45v-71.43M225.96,469.45v-71.43M233.98,469.45v-71.43M241.99,469.45v-71.43M250.01,469.45v-71.43M258.03,469.45v-71.43M266.05,469.45v-71.43M274.06,469.45v-71.43M282.08,469.45v-71.43M290.1,469.45v-71.43M298.12,469.45v-71.43M306.13,469.45v-71.43M314.15,469.45v-71.43M322.17,469.45v-71.43M330.19,469.45v-71.43M338.2,469.45v-71.43M346.22,469.45v-71.43M354.24,469.45v-71.43M362.26,469.45v-71.43M370.28,469.45v-71.43M378.29,469.45v-71.43M386.31,469.45v-71.43M394.33,469.45v-71.43M402.35,469.45v-71.43M410.36,469.45v-71.43M418.38,469.45v-71.43M426.4,469.45v-71.43M434.42,469.45v-71.43M442.43,469.45v-71.43M450.45,469.45v-71.43M458.47,469.45v-71.43M466.49,469.45v-71.43M474.5,469.45v-71.43M482.52,469.45v-71.43M490.54,469.45v-71.43M498.56,455.28v-57.26M506.57,455.28v-57.26M514.59,455.28v-57.26M522.61,455.28v-57.26M530.63,455.28v-57.26M538.64,455.28v-57.26M546.66,455.28v-57.26M554.68,455.28v-57.26M562.7,455.28v-57.26M570.72,455.28v-57.26M578.73,455.28v-57.26M586.75,455.28v-57.26M594.77,455.28v-57.26M602.79,455.28v-57.26M610.8,455.28v-57.26M618.82,455.28v-57.26M626.84,455.28v-57.26M634.86,455.28v-57.26M642.87,455.28v-57.26M650.89,455.28v-57.26M658.91,455.28v-57.26M666.93,455.28v-57.26M674.94,455.28v-57.26M682.96,455.28v-57.26M690.98,455.28v-57.26M699,455.28v-57.26M707.01,455.28v-57.26M715.03,455.28v-57.26M723.05,455.28v-57.26M731.07,455.28v-57.26"/>
    </g>
    <g id="i" data-name="LWPOLYLINE">
      <polyline class="ia" points="273.36 801.67 135.87 801.67 135.87 789.77"/>
    </g>
    <g id="j" data-name="LWPOLYLINE">
      <polyline class="ia" points="738.8 616.29 750.71 616.29 750.71 398.02 135.87 398.02 135.87 469.45"/>
    </g>
    <g id="k" data-name="LINE">
      <line class="ia" x1="738.8" y1="455.28" x2="738.8" y2="398.02"/>
    </g>
    <g id="l" data-name="LINE">
      <line class="ia" x1="432.1" y1="801.67" x2="366.9" y2="801.67"/>
    </g>
    <g id="m" data-name="LINE">
      <line class="ia" x1="361.23" y1="801.67" x2="296.03" y2="801.67"/>
    </g>
    <g id="n" data-name="LINE">
      <line class="ia" x1="750.71" y1="621.96" x2="750.71" y2="679.22"/>
    </g>
    <g id="o" data-name="LWPOLYLINE">
      <polyline class="ia" points="639.02 801.67 643.52 801.67 694.99 756.35 687.12 747.41"/>
    </g>
    <g id="p" data-name="LWPOLYLINE">
      <polyline class="ia" points="691.37 743.67 699.24 752.6 750.71 707.27 750.71 701.89"/>
    </g>
    <g id="q" data-name="LINE">
      <line class="ia" x1="750.71" y1="621.96" x2="738.8" y2="621.96"/>
    </g>
    <g id="r" data-name="LINE">
      <line class="ia" x1="361.23" y1="801.67" x2="361.23" y2="789.77"/>
    </g>
    <g id="s" data-name="LINE">
      <line class="ia" x1="366.9" y1="801.67" x2="366.9" y2="789.77"/>
    </g>
    <g id="t" data-name="LWPOLYLINE">
      <polyline class="ia" points="616.35 801.67 538.39 801.67 538.39 789.77"/>
    </g>
    <g id="u" data-name="LWPOLYLINE">
      <polyline class="ia" points="454.77 801.67 532.73 801.67 532.73 789.77"/>
    </g>
    <g id="v" data-name="LWPOLYLINE">
      <path class="ia" d="M353.54,668.53h-9.13v2.72h9.13c.75,0,1.36-.61,1.36-1.36s-.61-1.36-1.36-1.36Z"/>
    </g>
    <g id="w" data-name="LWPOLYLINE">
      <polyline class="ia" points="347.53 668.53 347.53 652.03 373.04 652.03 373.04 687.75 347.53 687.75 347.53 671.25"/>
    </g>
    <g id="x" data-name="LWPOLYLINE">
      <polyline class="ia" points="341.86 700.48 375.87 700.48 375.87 635.28"/>
    </g>
    <g id="y" data-name="LWPOLYLINE">
      <path class="ia" d="M261.17,680.07h-28.63v-24.38h28.63c6.73,0,12.19,5.46,12.19,12.19s-5.46,12.19-12.19,12.19Z"/>
    </g>
    <g id="z" data-name="LINE">
      <line class="ia" x1="310.68" y1="694.81" x2="310.68" y2="640.95"/>
    </g>
    <g id="aa" data-name="LWPOLYLINE">
      <rect class="ia" x="317.48" y="680.92" width="2.27" height="8.5"/>
    </g>
    <g id="ab" data-name="LWPOLYLINE">
      <polyline class="ia" points="319.75 686.59 327.12 686.59 327.12 660.51 311.81 660.51 311.81 686.59 317.48 686.59"/>
    </g>
    <g id="ac" data-name="LWPOLYLINE">
      <polyline class="ia" points="319.75 685.45 325.98 685.45 325.98 661.64 312.95 661.64 312.95 685.45 317.48 685.45"/>
    </g>
    <g id="ad" data-name="LWPOLYLINE">
      <polygon class="ia" points="737.1 621.96 737.1 456.98 495.31 456.98 495.31 459.25 734.84 459.25 734.84 621.96 737.1 621.96"/>
    </g>
    <g id="ae" data-name="LINE">
      <line class="ia" x1="430.11" y1="787.5" x2="384.19" y2="787.5"/>
    </g>
    <g id="af" data-name="LINE">
      <line class="ia" x1="383.06" y1="787.5" x2="298.02" y2="787.5"/>
    </g>
    <g id="ag" data-name="LINE">
      <line class="ia" x1="429.26" y1="789.07" x2="385.04" y2="789.07"/>
    </g>
    <g id="ah" data-name="LINE">
      <line class="ia" x1="382.21" y1="789.07" x2="298.87" y2="789.07"/>
    </g>
    <g id="ai" data-name="LINE">
      <line class="ia" x1="614.36" y1="787.5" x2="456.76" y2="787.5"/>
    </g>
    <g id="aj" data-name="LINE">
      <line class="ia" x1="613.51" y1="789.07" x2="457.61" y2="789.07"/>
    </g>
    <g id="ak" data-name="LINE">
      <line class="ia" x1="639.01" y1="786.76" x2="735.82" y2="701.5"/>
    </g>
    <g id="al" data-name="LINE">
      <line class="ia" x1="736.22" y1="703.25" x2="640.69" y2="787.38"/>
    </g>
    <g id="am" data-name="LINE">
      <line class="ia" x1="271.37" y1="787.5" x2="143.53" y2="787.5"/>
    </g>
    <g id="an" data-name="LINE">
      <line class="ia" x1="270.52" y1="789.07" x2="144.38" y2="789.08"/>
    </g>
    <g id="ao" data-name="LINE">
      <line class="ia" x1="627.12" y1="629.04" x2="444" y2="629.04"/>
    </g>
    <g id="ap" data-name="LINE">
      <line class="ia" x1="444.85" y1="627.48" x2="626.27" y2="627.47"/>
    </g>
    <g id="aq" data-name="LWPOLYLINE">
      <polyline class="ia" points="439.18 649.45 439.18 654.56 439.75 654.56 439.75 649.45"/>
    </g>
    <g id="ar" data-name="LWPOLYLINE">
      <polyline class="ia" points="439.75 655.12 439.75 700.48 439.18 700.48 439.18 655.12"/>
    </g>
    <g id="as" data-name="LWPOLYLINE">
      <polyline class="ia" points="439.18 776.73 439.18 743.56 438.61 743.56 438.61 776.73"/>
    </g>
    <g id="at" data-name="LINE">
      <line class="ia" x1="391.56" y1="628.48" x2="435.78" y2="628.48"/>
    </g>
    <g id="au" data-name="LINE">
      <line class="ia" x1="383.34" y1="629.04" x2="343.84" y2="629.04"/>
    </g>
    <g id="av" data-name="LINE">
      <line class="ia" x1="344.69" y1="627.48" x2="382.49" y2="627.48"/>
    </g>
    <g id="aw" data-name="LWPOLYLINE">
      <polyline class="ia" points="629.1 627.48 738.1 627.48 738.1 676.38"/>
    </g>
    <g id="ax" data-name="LWPOLYLINE">
      <polyline class="ia" points="628.25 629.04 736.54 629.04 736.54 677.23"/>
    </g>
    <g id="ay" data-name="CIRCLE">
      <circle class="im" cx="225.17" cy="734.49" r="1.42"/>
    </g>
    <g id="az" data-name="LWPOLYLINE">
      <polyline class="im" points="198.24 648.6 198.24 734.49 225.17 734.49"/>
    </g>
    <g id="ba" data-name="LWPOLYLINE">
      <polyline class="im" points="201.44 651.81 198.24 648.6 195.03 651.81"/>
    </g>
    <g id="bb" data-name="LINE">
      <line class="im" x1="725.76" y1="697.39" x2="635.53" y2="776.73"/>
    </g>
    <g id="bc" data-name="LINE">
      <line class="im" x1="616.35" y1="776.73" x2="454.77" y2="776.73"/>
    </g>
    <g id="bd" data-name="LINE">
      <line class="im" x1="432.1" y1="776.73" x2="296.03" y2="776.73"/>
    </g>
    <g id="be" data-name="LINE">
      <line class="im" x1="725.76" y1="679.22" x2="725.76" y2="635.28"/>
    </g>
    <g id="bf" data-name="LINE">
      <line class="im" x1="439.18" y1="635.28" x2="388.16" y2="635.28"/>
    </g>
    <g id="bg" data-name="LINE">
      <line class="im" x1="169.89" y1="773.5" x2="280.44" y2="773.5"/>
    </g>
    <g id="bh" data-name="LINE">
      <line class="im" x1="169.89" y1="766.35" x2="280.44" y2="766.35"/>
    </g>
    <g id="bi" data-name="LINE">
      <line class="im" x1="162.07" y1="649.45" x2="162.07" y2="765.67"/>
    </g>
    <g id="bj" data-name="LINE">
      <line class="im" x1="169.21" y1="649.45" x2="169.21" y2="765.67"/>
    </g>
    <g id="bk" data-name="LINE">
      <line class="im" x1="225.17" y1="645.77" x2="222.33" y2="645.77"/>
    </g>
    <g id="bl" data-name="LINE">
      <line class="im" x1="220.35" y1="645.77" x2="171.31" y2="645.77"/>
    </g>
    <g id="bm" data-name="LINE">
      <line class="im" x1="225.17" y1="660.51" x2="222.33" y2="660.51"/>
    </g>
    <g id="bn" data-name="LINE">
      <line class="im" x1="220.35" y1="660.51" x2="171.31" y2="660.51"/>
    </g>
    <g id="bo" data-name="LINE">
      <line class="im" x1="225.17" y1="675.25" x2="222.33" y2="675.25"/>
    </g>
    <g id="bp" data-name="LINE">
      <line class="im" x1="220.35" y1="675.25" x2="171.31" y2="675.25"/>
    </g>
    <g id="bq" data-name="LINE">
      <line class="im" x1="225.17" y1="689.99" x2="222.33" y2="689.99"/>
    </g>
    <g id="br" data-name="LINE">
      <line class="im" x1="220.35" y1="689.99" x2="171.31" y2="689.99"/>
    </g>
    <g id="bs" data-name="LINE">
      <line class="im" x1="225.17" y1="704.73" x2="222.33" y2="704.73"/>
    </g>
    <g id="bt" data-name="LINE">
      <line class="im" x1="220.35" y1="704.73" x2="171.31" y2="704.73"/>
    </g>
    <g id="bu" data-name="LINE">
      <line class="im" x1="225.17" y1="704.73" x2="223.37" y2="706.71"/>
    </g>
    <g id="bv" data-name="LINE">
      <line class="im" x1="221.58" y1="708.7" x2="171.31" y2="764.26"/>
    </g>
    <g id="bw" data-name="LINE">
      <line class="im" x1="225.17" y1="700.48" x2="225.17" y2="706.71"/>
    </g>
    <g id="bx" data-name="LINE">
      <line class="im" x1="225.17" y1="708.7" x2="225.17" y2="764.26"/>
    </g>
    <g id="by" data-name="LWPOLYLINE">
      <polyline class="im" points="222.33 640.95 222.33 706.71 236.5 706.71 236.5 708.7 220.35 708.7 220.35 640.95"/>
    </g>
    <g id="bz" data-name="LWPOLYLINE">
      <polyline class="im" points="171.31 640.95 171.31 764.26 225.17 764.26"/>
    </g>
    <g id="ca" data-name="LWPOLYLINE">
      <g>
        <polyline class="im" points="498.71 691.56 498.71 690.56 499.71 690.56"/>
        <line class="ir" x1="500.69" y1="690.56" x2="565.25" y2="690.56"/>
        <polyline class="im" points="565.74 690.56 566.74 690.56 566.74 691.56"/>
        <line class="in" x1="566.74" y1="692.59" x2="566.74" y2="723.06"/>
        <polyline class="im" points="566.74 723.57 566.74 724.57 565.74 724.57"/>
        <line class="ir" x1="564.76" y1="724.57" x2="500.2" y2="724.57"/>
        <polyline class="im" points="499.71 724.57 498.71 724.57 498.71 723.57"/>
        <line class="in" x1="498.71" y1="722.54" x2="498.71" y2="692.07"/>
      </g>
    </g>
    <g id="cb" data-name="LWPOLYLINE">
      <g>
        <polyline class="im" points="519.4 728.41 519.4 727.41 520.4 727.41"/>
        <line class="ih" x1="521.34" y1="727.41" x2="543.44" y2="727.41"/>
        <polyline class="im" points="543.91 727.41 544.91 727.41 544.91 728.41"/>
        <path class="it" d="M544.91,729.39v15.02c0,7.04-5.71,12.76-12.76,12.76s-12.76-5.71-12.76-12.76v-15.51"/>
      </g>
    </g>
    <g id="cc" data-name="LWPOLYLINE">
      <g>
        <polyline class="im" points="566.74 691.56 566.74 690.56 567.74 690.56"/>
        <line class="ir" x1="568.73" y1="690.56" x2="633.28" y2="690.56"/>
        <polyline class="im" points="633.77 690.56 634.77 690.56 634.77 691.56"/>
        <line class="in" x1="634.77" y1="692.59" x2="634.77" y2="723.06"/>
        <polyline class="im" points="634.77 723.57 634.77 724.57 633.77 724.57"/>
        <line class="ir" x1="632.79" y1="724.57" x2="568.23" y2="724.57"/>
        <polyline class="im" points="567.74 724.57 566.74 724.57 566.74 723.57"/>
        <line class="in" x1="566.74" y1="722.54" x2="566.74" y2="692.07"/>
      </g>
    </g>
    <g id="cd" data-name="LWPOLYLINE">
      <g>
        <polyline class="im" points="587.43 728.41 587.43 727.41 588.43 727.41"/>
        <line class="ih" x1="589.37" y1="727.41" x2="611.48" y2="727.41"/>
        <polyline class="im" points="611.95 727.41 612.95 727.41 612.95 728.41"/>
        <path class="it" d="M612.95,729.39v15.02c0,7.04-5.71,12.76-12.76,12.76s-12.76-5.71-12.76-12.76v-15.51"/>
      </g>
    </g>
    <g id="ce" data-name="LWPOLYLINE">
      <g>
        <line class="ip" x1="439.75" y1="655.12" x2="440.75" y2="655.12"/>
        <line class="ig" x1="441.76" y1="655.12" x2="483.6" y2="655.12"/>
        <polyline class="ip" points="484.1 655.12 485.1 655.12 485.1 655.69 484.1 655.69"/>
        <line class="ig" x1="483.09" y1="655.69" x2="441.25" y2="655.69"/>
        <line class="ip" x1="440.75" y1="655.69" x2="439.75" y2="655.69"/>
      </g>
    </g>
    <g id="cf" data-name="ARC">
      <g>
        <path class="ip" d="M439.75,700.48c.33,0,.67,0,1-.01"/>
        <path class="il" d="M441.74,700.43c23.63-1.02,42.57-20.12,43.34-43.82"/>
        <path class="ip" d="M485.09,656.12c0-.33.01-.67.01-1"/>
      </g>
    </g>
    <g id="cg" data-name="LWPOLYLINE">
      <g>
        <polyline class="ip" points="439.18 625.78 439.18 626.78 438.18 626.78"/>
        <polyline class="ip" points="436.78 626.78 435.78 626.78 435.78 625.78"/>
        <line class="ii" x1="435.78" y1="624.78" x2="435.78" y2="577.25"/>
        <polyline class="ip" points="435.78 576.75 435.78 575.75 436.78 575.75"/>
        <polyline class="ip" points="438.18 575.75 439.18 575.75 439.18 576.75"/>
        <line class="ii" x1="439.18" y1="577.75" x2="439.18" y2="625.28"/>
      </g>
    </g>
    <g id="ch" data-name="ARC">
      <g>
        <path class="ip" d="M439.18,575.75c-.33,0-.67,0-1,0"/>
        <path class="iu" d="M437.19,575.79c-26.76,1.03-48.24,22.66-49.01,49.49"/>
        <path class="ip" d="M388.17,625.78c0,.33,0,.67,0,1"/>
      </g>
    </g>
    <g id="ci" data-name="LWPOLYLINE">
      <g>
        <polyline class="ip" points="307.84 693.81 307.84 694.81 306.14 694.81 306.14 693.81"/>
        <line class="io" x1="306.14" y1="692.78" x2="306.14" y2="662.31"/>
        <polyline class="ip" points="306.14 661.79 306.14 660.79 307.84 660.79 307.84 661.79"/>
        <line class="io" x1="307.84" y1="662.83" x2="307.84" y2="693.29"/>
      </g>
    </g>
    <g id="cj" data-name="ARC">
      <g>
        <path class="ip" d="M307.84,660.79c-.33,0-.67,0-1,.01"/>
        <path class="ic" d="M305.86,660.85c-17.37,1-31.24,15.03-32,32.46"/>
        <path class="ip" d="M273.84,693.81c0,.33-.01.67-.01,1"/>
      </g>
    </g>
    <g id="ck" data-name="LINE">
      <line class="ip" x1="298.87" y1="781.26" x2="382.21" y2="781.26"/>
    </g>
    <g id="cl" data-name="LINE">
      <line class="ip" x1="385.04" y1="781.26" x2="429.26" y2="781.26"/>
    </g>
    <g id="cm" data-name="LINE">
      <line class="ip" x1="298.87" y1="789.77" x2="382.21" y2="789.77"/>
    </g>
    <g id="cn" data-name="LINE">
      <line class="ip" x1="385.04" y1="789.77" x2="429.26" y2="789.77"/>
    </g>
    <g id="co" data-name="LINE">
      <line class="ip" x1="457.61" y1="781.26" x2="613.51" y2="781.26"/>
    </g>
    <g id="cp" data-name="LINE">
      <line class="ip" x1="457.61" y1="789.77" x2="613.51" y2="789.77"/>
    </g>
    <g id="cq" data-name="LINE">
      <line class="ip" x1="635.53" y1="781.51" x2="731.06" y2="697.39"/>
    </g>
    <g id="cr" data-name="LINE">
      <line class="ip" x1="736.68" y1="703.77" x2="641.15" y2="787.9"/>
    </g>
    <g id="cs" data-name="LINE">
      <line class="ip" x1="152.88" y1="781.26" x2="270.52" y2="781.26"/>
    </g>
    <g id="ct" data-name="LINE">
      <line class="ip" x1="144.38" y1="789.77" x2="270.52" y2="789.77"/>
    </g>
    <g id="cu" data-name="LWPOLYLINE">
      <polyline class="ip" points="629.1 635.28 730.3 635.28 730.3 676.38"/>
    </g>
    <g id="cv" data-name="LINE">
      <line class="ip" x1="626.27" y1="635.28" x2="444.85" y2="635.28"/>
    </g>
    <g id="cw" data-name="LINE">
      <line class="ip" x1="626.27" y1="626.78" x2="444.85" y2="626.78"/>
    </g>
    <g id="cx" data-name="LINE">
      <line class="ip" x1="391.56" y1="626.78" x2="435.78" y2="626.78"/>
    </g>
    <g id="cy" data-name="LINE">
      <line class="ip" x1="435.78" y1="630.18" x2="391.56" y2="630.18"/>
    </g>
    <g id="cz" data-name="LINE">
      <line class="ip" x1="382.49" y1="635.28" x2="344.69" y2="635.28"/>
    </g>
    <g id="da" data-name="LINE">
      <line class="ip" x1="382.49" y1="626.78" x2="344.69" y2="626.78"/>
    </g>
    <g id="db" data-name="LWPOLYLINE">
      <polyline class="ip" points="629.1 626.78 738.8 626.78 738.8 676.38"/>
    </g>
    <g id="dc" data-name="LWPOLYLINE">
      <polyline class="ip" points="230.84 626.78 230.84 469.45 135.87 469.45 135.87 626.78"/>
    </g>
    <g id="dd" data-name="LWPOLYLINE">
      <polyline class="ip" points="738.8 626.78 738.8 455.28 494.17 455.28 494.17 469.45"/>
    </g>
    <g id="de" data-name="LWPOLYLINE">
      <polyline class="ip" points="230.84 483.63 508.35 483.63 508.35 469.45 230.84 469.45"/>
    </g>
    <g id="df" data-name="LWPOLYLINE">
      <rect class="ij" x="296.03" y="781.26" width="2.83" height="5.67"/>
    </g>
    <g id="dg" data-name="LWPOLYLINE">
      <polyline class="ij" points="296.88 786.93 296.88 788.07 298.02 788.07 298.02 786.93"/>
    </g>
    <g id="dh" data-name="LINE">
      <line class="ij" x1="297.45" y1="788.07" x2="297.45" y2="789.77"/>
    </g>
    <g id="di" data-name="LWPOLYLINE">
      <polyline class="ij" points="296.03 789.07 296.03 789.77 298.87 789.77 298.87 789.08"/>
    </g>
    <g id="dj" data-name="LWPOLYLINE">
      <rect class="ij" x="429.26" y="781.26" width="2.83" height="5.67"/>
    </g>
    <g id="dk" data-name="LWPOLYLINE">
      <polyline class="ij" points="430.11 786.93 430.11 788.07 431.24 788.07 431.24 786.93"/>
    </g>
    <g id="dl" data-name="LINE">
      <line class="ij" x1="430.68" y1="788.07" x2="430.68" y2="789.77"/>
    </g>
    <g id="dm" data-name="LWPOLYLINE">
      <polyline class="ij" points="429.26 789.07 429.26 789.77 432.1 789.77 432.1 789.08"/>
    </g>
    <g id="dn" data-name="LWPOLYLINE">
      <rect class="ij" x="613.51" y="781.26" width="2.83" height="5.67"/>
    </g>
    <g id="do" data-name="LWPOLYLINE">
      <polyline class="ij" points="614.36 786.93 614.36 788.07 615.5 788.07 615.5 786.93"/>
    </g>
    <g id="dp" data-name="LINE">
      <line class="ij" x1="614.93" y1="788.07" x2="614.93" y2="789.77"/>
    </g>
    <g id="dq" data-name="LWPOLYLINE">
      <polyline class="ij" points="613.51 789.07 613.51 789.77 616.35 789.77 616.35 789.08"/>
    </g>
    <g id="dr" data-name="LWPOLYLINE">
      <rect class="ij" x="634.92" y="781.74" width="2.83" height="5.67" transform="translate(-359.75 616.35) rotate(-41.37)"/>
    </g>
    <g id="ds" data-name="LWPOLYLINE">
      <polyline class="ij" points="637.79 787.08 638.54 787.93 639.39 787.18 638.64 786.33"/>
    </g>
    <g id="dt" data-name="LINE">
      <line class="ij" x1="638.96" y1="787.56" x2="640.09" y2="788.83"/>
    </g>
    <g id="du" data-name="LWPOLYLINE">
      <polyline class="ij" points="638.56 789.24 639.02 789.77 641.15 787.9 640.69 787.38"/>
    </g>
    <g id="dv" data-name="LWPOLYLINE">
      <rect class="ij" x="454.77" y="781.26" width="2.83" height="5.67"/>
    </g>
    <g id="dw" data-name="LWPOLYLINE">
      <polyline class="ij" points="455.62 786.93 455.62 788.07 456.76 788.07 456.76 786.93"/>
    </g>
    <g id="dx" data-name="LINE">
      <line class="ij" x1="456.19" y1="788.07" x2="456.19" y2="789.77"/>
    </g>
    <g id="dy" data-name="LWPOLYLINE">
      <polyline class="ij" points="454.77 789.07 454.77 789.77 457.61 789.77 457.61 789.08"/>
    </g>
    <g id="dz" data-name="LWPOLYLINE">
      <rect class="ij" x="732.58" y="695.74" width="2.83" height="5.67" transform="translate(-278.54 659.43) rotate(-41.37)"/>
    </g>
    <g id="ea" data-name="LWPOLYLINE">
      <polyline class="ij" points="735.44 701.08 736.19 701.93 737.04 701.18 736.29 700.33"/>
    </g>
    <g id="eb" data-name="LINE">
      <line class="ij" x1="736.62" y1="701.56" x2="737.74" y2="702.83"/>
    </g>
    <g id="ec" data-name="LWPOLYLINE">
      <polyline class="ij" points="736.21 703.24 736.68 703.77 738.8 701.89 738.35 701.38"/>
    </g>
    <g id="ed" data-name="LWPOLYLINE">
      <rect class="ij" x="730.3" y="676.38" width="5.67" height="2.83"/>
    </g>
    <g id="ee" data-name="LWPOLYLINE">
      <polyline class="ij" points="735.97 678.37 737.1 678.37 737.1 677.23 735.97 677.23"/>
    </g>
    <g id="ef" data-name="LINE">
      <line class="ij" x1="737.1" y1="677.8" x2="738.8" y2="677.8"/>
    </g>
    <g id="eg" data-name="LWPOLYLINE">
      <polyline class="ij" points="738.1 679.22 738.8 679.22 738.8 676.38 738.11 676.38"/>
    </g>
    <g id="eh" data-name="LWPOLYLINE">
      <rect class="ij" x="382.21" y="781.26" width="2.83" height="5.67"/>
    </g>
    <g id="ei" data-name="LWPOLYLINE">
      <polyline class="ij" points="383.06 786.93 383.06 788.07 384.19 788.07 384.19 786.93"/>
    </g>
    <g id="ej" data-name="LINE">
      <line class="ij" x1="383.62" y1="788.07" x2="383.62" y2="789.77"/>
    </g>
    <g id="ek" data-name="LWPOLYLINE">
      <polyline class="ij" points="382.21 789.07 382.21 789.77 385.04 789.77 385.04 789.08"/>
    </g>
    <g id="el" data-name="LWPOLYLINE">
      <rect class="ij" x="626.27" y="629.61" width="2.83" height="5.67"/>
    </g>
    <g id="em" data-name="LWPOLYLINE">
      <polyline class="ij" points="628.25 629.61 628.25 628.48 627.12 628.48 627.12 629.61"/>
    </g>
    <g id="en" data-name="LINE">
      <line class="ij" x1="627.69" y1="628.48" x2="627.69" y2="626.78"/>
    </g>
    <g id="eo" data-name="LWPOLYLINE">
      <polyline class="ij" points="629.1 627.48 629.1 626.78 626.27 626.78 626.27 627.47"/>
    </g>
    <g id="ep" data-name="LWPOLYLINE">
      <rect class="ij" x="442.02" y="629.61" width="2.83" height="5.67"/>
    </g>
    <g id="eq" data-name="LWPOLYLINE">
      <polyline class="ij" points="444 629.61 444 628.48 442.87 628.48 442.87 629.61"/>
    </g>
    <g id="er" data-name="LINE">
      <line class="ij" x1="443.43" y1="628.48" x2="443.43" y2="626.78"/>
    </g>
    <g id="es" data-name="LWPOLYLINE">
      <polyline class="ij" points="444.85 627.48 444.85 626.78 442.02 626.78 442.02 627.47"/>
    </g>
    <g id="et" data-name="LWPOLYLINE">
      <rect class="ij" x="341.86" y="629.61" width="2.83" height="5.67"/>
    </g>
    <g id="eu" data-name="LWPOLYLINE">
      <polyline class="ij" points="343.84 629.61 343.84 628.48 342.71 628.48 342.71 629.61"/>
    </g>
    <g id="ev" data-name="LINE">
      <line class="ij" x1="343.28" y1="628.48" x2="343.28" y2="626.78"/>
    </g>
    <g id="ew" data-name="LWPOLYLINE">
      <polyline class="ij" points="344.69 627.48 344.69 626.78 341.86 626.78 341.86 627.47"/>
    </g>
    <g id="ex" data-name="LWPOLYLINE">
      <rect class="ij" x="141.54" y="781.26" width="2.83" height="5.67"/>
    </g>
    <g id="ey" data-name="LWPOLYLINE">
      <polyline class="ij" points="142.39 786.93 142.39 788.07 143.53 788.07 143.53 786.93"/>
    </g>
    <g id="ez" data-name="LINE">
      <line class="ij" x1="142.96" y1="788.07" x2="142.96" y2="789.77"/>
    </g>
    <g id="fa" data-name="LWPOLYLINE">
      <polyline class="ij" points="141.54 789.07 141.54 789.77 144.38 789.77 144.38 789.08"/>
    </g>
    <g id="fb" data-name="LWPOLYLINE">
      <rect class="ij" x="270.52" y="781.26" width="2.83" height="5.67"/>
    </g>
    <g id="fc" data-name="LWPOLYLINE">
      <polyline class="ij" points="271.37 786.93 271.37 788.07 272.5 788.07 272.5 786.93"/>
    </g>
    <g id="fd" data-name="LINE">
      <line class="ij" x1="271.94" y1="788.07" x2="271.94" y2="789.77"/>
    </g>
    <g id="fe" data-name="LWPOLYLINE">
      <polyline class="ij" points="270.52 789.07 270.52 789.77 273.36 789.77 273.36 789.08"/>
    </g>
    <g id="ff" data-name="LWPOLYLINE">
      <rect class="ij" x="382.49" y="629.61" width="2.83" height="5.67"/>
    </g>
    <g id="fg" data-name="LWPOLYLINE">
      <polyline class="ij" points="384.47 629.61 384.47 628.48 383.34 628.48 383.34 629.61"/>
    </g>
    <g id="fh" data-name="LINE">
      <line class="ij" x1="383.91" y1="628.48" x2="383.91" y2="626.78"/>
    </g>
    <g id="fi" data-name="LWPOLYLINE">
      <polyline class="ij" points="385.32 627.48 385.32 626.78 382.49 626.78 382.49 627.47"/>
    </g>
    <g id="fj" data-name="LWPOLYLINE">
      <rect class="ij" x="435.78" y="626.78" width="3.4" height="3.4"/>
    </g>
    <g id="fk" data-name="LWPOLYLINE">
      <rect class="ij" x="388.16" y="626.78" width="3.4" height="3.4"/>
    </g>
    <g id="fl" data-name="LWPOLYLINE">
      <rect class="ij" x="385.32" y="629.61" width="2.83" height="5.67"/>
    </g>
    <g id="fm" data-name="LWPOLYLINE">
      <polyline class="ij" points="387.31 629.61 387.31 628.48 386.17 628.48 386.17 629.61"/>
    </g>
    <g id="fn" data-name="LINE">
      <line class="ij" x1="386.74" y1="628.48" x2="386.74" y2="626.78"/>
    </g>
    <g id="fo" data-name="LWPOLYLINE">
      <polyline class="ij" points="388.16 627.48 388.16 626.78 385.32 626.78 385.32 627.47"/>
    </g>
    <g id="fp" data-name="LWPOLYLINE">
      <rect class="ij" x="439.18" y="629.61" width="2.83" height="5.67"/>
    </g>
    <g id="fq" data-name="LWPOLYLINE">
      <polyline class="ij" points="441.17 629.61 441.17 628.48 440.03 628.48 440.03 629.61"/>
    </g>
    <g id="fr" data-name="LINE">
      <line class="ij" x1="440.6" y1="628.48" x2="440.6" y2="626.78"/>
    </g>
    <g id="fs" data-name="LWPOLYLINE">
      <polyline class="ij" points="442.02 627.48 442.02 626.78 439.18 626.78 439.18 627.47"/>
    </g>
    <g id="ft" data-name="LWPOLYLINE">
      <rect class="ij" x="438.05" y="655.12" width="2.83" height="8.5"/>
    </g>
    <g id="fu" data-name="LWPOLYLINE">
      <rect class="ij" x="270.99" y="694.81" width="2.83" height="5.67"/>
    </g>
    <g id="fv" data-name="LWPOLYLINE">
      <rect class="ij" x="307.84" y="694.81" width="2.83" height="5.67"/>
    </g>
    <g id="fw" data-name="LWPOLYLINE">
      <rect class="ij" x="273.83" y="694.81" width="34.02" height="1.7"/>
    </g>
    <g id="fx" data-name="LWPOLYLINE">
      <polyline class="ij" points="341.86 626.78 135.87 626.78 135.87 789.77 141.54 789.77"/>
    </g>
    <g id="fy" data-name="LWPOLYLINE">
      <polyline class="ij" points="738.8 679.22 725.76 679.22 725.76 697.39 731.06 697.39"/>
    </g>
    <g id="fz" data-name="LWPOLYLINE">
      <polyline class="ij" points="616.35 789.77 616.35 776.73 635.53 776.73 635.53 781.51"/>
    </g>
    <g id="ga" data-name="LWPOLYLINE">
      <polyline class="ij" points="454.77 789.77 454.77 776.73 432.1 776.73 432.1 789.77"/>
    </g>
    <g id="gb" data-name="LWPOLYLINE">
      <polyline class="ij" points="296.03 789.77 296.03 776.73 273.36 776.73 273.36 789.77"/>
    </g>
    <g id="gc" data-name="LWPOLYLINE">
      <rect class="ij" x="438.61" y="701.04" width="5.67" height="42.52"/>
    </g>
    <g id="gd" data-name="LWPOLYLINE">
      <polyline class="ij" points="270.99 694.81 230.84 694.81 230.84 640.95 336.19 640.95 336.19 694.81 310.68 694.81"/>
    </g>
    <g id="ge" data-name="LWPOLYLINE">
      <polyline class="ij" points="310.68 700.48 341.86 700.48 341.86 635.28"/>
    </g>
    <g id="gf" data-name="LWPOLYLINE">
      <polyline class="ij" points="152.88 640.95 225.17 640.95 225.17 700.48 270.99 700.48"/>
    </g>
    <g id="gg" data-name="LWPOLYLINE">
      <rect class="ib" x="432.1" y="789.77" width="22.68" height="11.91"/>
    </g>
    <g id="gh" data-name="LWPOLYLINE">
      <rect class="ib" x="616.35" y="789.77" width="22.68" height="11.91"/>
    </g>
    <g id="gi" data-name="LWPOLYLINE">
      <rect class="ib" x="273.36" y="789.77" width="22.68" height="11.91"/>
    </g>
    <g id="gj" data-name="LWPOLYLINE">
      <rect class="ib" x="738.8" y="679.22" width="11.91" height="22.68"/>
    </g>
    <g id="gk" data-name="LINE">
      <line class="iq" x1="152.88" y1="629.61" x2="341.86" y2="629.61"/>
    </g>
    <g id="gl" data-name="LINE">
      <line class="iq" x1="152.88" y1="635.28" x2="341.86" y2="635.28"/>
    </g>
    <g id="gm" data-name="LWPOLYLINE">
      <rect class="iq" x="439.18" y="765.67" width="8.5" height="8.5"/>
    </g>
    <g id="gn" data-name="LWPOLYLINE">
      <rect class="iq" x="623.43" y="765.67" width="8.5" height="8.5"/>
    </g>
    <g id="go" data-name="LWPOLYLINE">
      <rect class="iq" x="714.71" y="686.3" width="8.5" height="8.5"/>
    </g>
    <g id="gp" data-name="LWPOLYLINE">
      <rect class="iq" x="161.39" y="765.67" width="8.5" height="8.5"/>
    </g>
    <g id="gq" data-name="LWPOLYLINE">
      <rect class="iq" x="280.44" y="765.67" width="8.5" height="8.5"/>
    </g>
    <g id="gr" data-name="LWPOLYLINE">
      <rect class="iq" x="714.71" y="640.95" width="8.5" height="8.5"/>
    </g>
    <g id="gs" data-name="LWPOLYLINE">
      <rect class="iq" x="623.43" y="640.95" width="8.5" height="8.5"/>
    </g>
    <g id="gt" data-name="LWPOLYLINE">
      <rect class="iq" x="439.18" y="640.95" width="8.5" height="8.5"/>
    </g>
    <g id="gu" data-name="LWPOLYLINE">
      <rect class="iq" x="280.44" y="640.95" width="8.5" height="8.5"/>
    </g>
    <g id="gv" data-name="LWPOLYLINE">
      <rect class="iq" x="161.39" y="640.95" width="8.5" height="8.5"/>
    </g>
    <g id="gw" data-name="LWPOLYLINE">
      <rect class="iq" x="281.12" y="766.35" width="7.14" height="7.14"/>
    </g>
    <g id="gx" data-name="LWPOLYLINE">
      <rect class="iq" x="162.07" y="766.35" width="7.14" height="7.14"/>
    </g>
    <g id="gy" data-name="LWPOLYLINE">
      <rect class="iq" x="162.07" y="641.63" width="7.14" height="7.14"/>
    </g>
    <g id="gz" data-name="LWPOLYLINE">
      <rect class="iq" x="281.12" y="641.63" width="7.14" height="7.14"/>
    </g>
    <g id="ha" data-name="LWPOLYLINE">
      <rect class="iq" x="439.86" y="641.63" width="7.14" height="7.14"/>
    </g>
    <g id="hb" data-name="LWPOLYLINE">
      <rect class="iq" x="439.86" y="766.35" width="7.14" height="7.14"/>
    </g>
    <g id="hc" data-name="LWPOLYLINE">
      <rect class="iq" x="624.11" y="766.35" width="7.14" height="7.14"/>
    </g>
    <g id="hd" data-name="LWPOLYLINE">
      <rect class="iq" x="715.39" y="686.98" width="7.14" height="7.14"/>
    </g>
    <g id="he" data-name="LWPOLYLINE">
      <rect class="iq" x="715.39" y="641.63" width="7.14" height="7.14"/>
    </g>
    <g id="hf" data-name="LWPOLYLINE">
      <rect class="iq" x="624.11" y="641.63" width="7.14" height="7.14"/>
    </g>
    <g id="hg" data-name="LWPOLYLINE">
      <rect class="if" x="141.54" y="629.61" width="11.34" height="151.65"/>
    </g>
    <g id="hh" data-name="LWPOLYLINE">
      <polyline class="ip" points="725.76 626.78 725.76 469.45 508.35 469.45"/>
    </g>
  </g>
  <g id="hm" data-name="SCALE">
    <g>
      <g id="hn" data-name="CIRCLE">
        <circle class="ib" cx="89.45" cy="1036.35" r="14.88"/>
      </g>
      <g id="ho" data-name="TEXT">
        <text class="id" transform="translate(92.98 1018.33) rotate(22.03) scale(.9 1)"><tspan x="0" y="0">N</tspan></text>
      </g>
      <g id="hp" data-name="HATCH">
        <path class="ie" d="M95.03,1022.56c-.23-.09-.46-.18-.7-.26l-5.57,13.78.69.28,5.58-13.8Z"/>
      </g>
      <g id="hq" data-name="HATCH">
        <path class="ie" d="M95.72,1022.85c-.23-.1-.45-.2-.69-.3l-5.58,13.8.69.28,5.57-13.78Z"/>
      </g>
      <g id="hr" data-name="LINE">
        <line class="ib" x1="94.33" y1="1022.29" x2="88.76" y2="1036.07"/>
      </g>
      <g id="hs" data-name="LINE">
        <line class="ib" x1="95.72" y1="1022.85" x2="90.14" y2="1036.63"/>
      </g>
      <g id="ht" data-name="LINE">
        <line class="ib" x1="89.45" y1="1036.35" x2="95.03" y2="1022.56"/>
      </g>
      <g id="hu" data-name="MTEXT">
        <text class="ik" transform="translate(69.63 1125.63)"><tspan x="0" y="0">0</tspan></text>
      </g>
      <g id="hv" data-name="MTEXT">
        <text class="ik" transform="translate(154.65 1125.63)"><tspan x="0" y="0">3</tspan></text>
      </g>
      <g id="hw" data-name="MTEXT">
        <text class="ik" transform="translate(239.73 1125.63)"><tspan x="0" y="0">6</tspan></text>
      </g>
      <g id="hx" data-name="MTEXT">
        <text class="ik" transform="translate(98.52 1125.63)"><tspan x="0" y="0">1</tspan></text>
      </g>
      <g id="hy" data-name="MTEXT">
        <text class="ik" transform="translate(318.29 1125.63)"><tspan x="0" y="0">9m</tspan></text>
      </g>
      <g id="hz" data-name="LWPOLYLINE">
        <polyline class="ib" points="329.11 1092.99 329.11 1110 244.07 1110 244.07 1092.99 159.03 1092.99 159.03 1110 102.33 1110 102.33 1092.99 73.99 1092.99 73.99 1110"/>
      </g>
    </g>
  </g>
</svg>