<?xml version="1.0" encoding="UTF-8"?>
<svg xmlns="http://www.w3.org/2000/svg" viewBox="0 0 900 1200">
  <defs>
    <style>
      .bx, .by, .bz, .ca, .cb, .cc {
        stroke: #000;
      }

      .bx, .by, .bz, .cb, .cc {
        stroke-miterlimit: 10;
      }

      .bx, .by, .ca {
        stroke-width: .5px;
      }

      .bx, .bz, .cb, .cc {
        fill: none;
      }

      .by {
        fill: #040000;
        fill-rule: evenodd;
      }

      .bz {
        stroke-width: .15px;
      }

      .cb {
        stroke-width: .4px;
      }

      .cc {
        stroke-width: .3px;
      }
    </style>
  </defs>
  <g id="av" data-name="rf">
    <g id="aw" data-name="HATCH">
      <path class="bz" d="M143.36,803.94v-182.55M143.36,469.45v-71.43M151.38,803.94v-182.55M151.38,469.45v-71.43M159.39,803.94v-182.55M159.39,469.45v-71.43M167.41,803.94v-182.55M167.41,469.45v-71.43M175.43,803.94v-182.55M175.43,469.45v-71.43M183.45,803.94v-182.55M183.45,469.45v-71.43M191.46,803.94v-182.55M191.46,469.45v-71.43M199.48,803.94v-182.55M199.48,469.45v-71.43M207.5,803.94v-182.56M207.5,469.45v-71.43M215.52,803.94v-182.56M215.52,469.45v-71.43M223.53,803.94v-182.56M223.53,469.45v-71.43M231.55,803.94v-182.56M231.55,469.45v-71.43M239.57,803.94v-182.56M239.57,469.45v-71.43M247.59,803.94v-182.56M247.59,469.45v-71.43M255.6,803.94v-182.56M255.6,469.45v-71.43M263.62,803.94v-182.56M263.62,469.45v-71.43M271.64,803.94v-182.56M271.64,469.45v-71.43M279.66,803.94v-182.56M279.66,469.45v-71.43M287.67,803.94v-182.56M287.67,469.45v-71.43M295.69,803.94v-182.56M295.69,469.45v-71.43M303.71,803.94v-182.56M303.71,469.45v-71.43M311.73,803.94v-182.57M311.73,469.45v-71.43M319.74,803.94v-182.57M319.74,469.45v-71.43M327.76,803.94v-182.57M327.76,469.45v-71.43M335.78,803.94v-182.57M335.78,469.45v-71.43M343.8,803.94v-182.57M343.8,469.45v-71.43M351.81,803.94v-182.57M351.81,469.45v-71.43M359.83,803.94v-182.57M359.83,469.45v-71.43M367.85,803.94v-182.57M367.85,469.45v-71.43M375.87,803.94v-182.57M375.87,469.45v-71.43M383.89,803.94v-182.57M383.89,469.45v-71.43M391.9,803.94v-182.57M391.9,469.45v-71.43M399.92,803.94v-182.57M399.92,469.45v-71.43M407.94,803.94v-182.57M407.94,469.45v-71.43M415.96,803.94v-182.58M415.96,469.45v-71.43M423.97,803.94v-182.58M423.97,469.45v-71.43M431.99,803.94v-182.58M431.99,469.45v-71.43M440.01,803.94v-182.58M440.01,469.45v-71.43M448.03,803.94v-182.58M448.03,469.45v-71.43M456.04,803.94v-182.58M456.04,469.45v-71.43M464.06,803.94v-182.58M464.06,469.45v-71.43M472.08,803.94v-182.58M472.08,469.45v-71.43M480.1,803.94v-182.58M480.1,469.45v-71.43M488.11,803.94v-182.58M488.11,469.45v-71.43M496.13,803.94v-182.58M496.13,455.28v-57.26M504.15,803.94v-182.58M504.15,455.28v-57.26M512.17,803.94v-182.58M512.17,455.28v-57.26M520.18,803.94v-182.58M520.18,455.28v-57.26M528.2,803.94v-182.59M528.2,455.28v-57.26M536.22,803.94v-182.59M536.22,455.28v-57.26M544.24,803.94v-182.59M544.24,455.28v-57.26M552.25,803.94v-182.59M552.25,455.28v-57.26M560.27,803.94v-182.59M560.27,455.28v-57.26M568.29,803.94v-182.59M568.29,455.28v-57.26M576.31,803.94v-182.59M576.31,455.28v-57.26M584.32,803.94v-182.59M584.32,455.28v-57.26M592.34,803.94v-182.59M592.34,455.28v-57.26M600.36,803.94v-182.59M600.36,455.28v-57.26M608.38,803.94v-182.59M608.38,455.28v-57.26M616.4,803.94v-182.59M616.4,455.28v-57.26M624.41,803.94v-182.59M624.41,455.28v-57.26M632.43,803.94v-182.6M632.43,455.28v-57.26M640.45,803.94v-182.6M640.45,455.28v-57.26M648.47,802.82v-181.48M648.47,455.28v-57.26M656.48,795.79v-174.45M656.48,455.28v-57.26M664.5,788.76v-167.42M664.5,455.28v-57.26M672.52,781.73v-160.39M672.52,455.28v-57.26M680.54,774.69v-153.35M680.54,455.28v-57.26M688.55,767.66v-146.32M688.55,455.28v-57.26M696.57,760.63v-139.29M696.57,455.28v-57.26M704.59,753.6v-132.26M704.59,455.28v-57.26M712.61,746.57v-125.23M712.61,455.28v-57.26M720.62,739.53v-118.2M720.62,455.28v-57.26M728.64,732.5v-111.17M728.64,455.28v-57.26M736.66,725.47v-104.14M736.66,455.28v-57.26M744.68,718.44v-97.11M752.69,711.41v-90.07"/>
    </g>
    <g id="ax" data-name="HATCH">
      <path class="bz" d="M137.34,621.39v-151.94M143.36,621.39v-151.94M149.37,621.39v-151.94M155.38,621.39v-151.94M161.4,621.39v-151.93M167.41,621.39v-151.93M173.42,621.39v-151.93M179.44,621.39v-151.93M185.45,621.39v-151.93M191.46,621.39v-151.93M197.48,621.38v-151.93M203.49,621.38v-151.93M209.5,621.38v-151.93M215.52,621.38v-151.93M221.53,621.38v-151.93M227.54,621.38v-151.93"/>
    </g>
    <g id="ay" data-name="HATCH">
      <path class="bz" d="M230.84,485.76h494.93M230.84,521.76h494.93M230.84,557.76h494.93M230.84,593.76h494.93M250.72,621.38v-137.75M286.72,621.38v-137.75M322.72,621.37v-137.75M358.72,621.37v-137.74M394.72,621.37v-137.74M430.72,621.36v-137.74M466.72,621.36v-137.73M502.72,621.36v-137.73M538.72,621.35v-151.9M574.72,621.35v-151.9M610.72,621.35v-151.89M646.72,621.34v-151.89M682.72,621.34v-151.89M718.72,621.34v-151.88"/>
    </g>
    <g id="az" data-name="LWPOLYLINE">
      <polygon class="cc" points="737.1 621.33 737.1 456.98 495.31 456.98 495.31 459.25 734.84 459.25 734.84 621.33 737.1 621.33"/>
    </g>
    <g id="ba" data-name="LWPOLYLINE">
      <polyline class="cc" points="753 621.39 753 398.02 135.87 398.02 135.87 469.45"/>
    </g>
    <g id="bb" data-name="LINE">
      <line class="cc" x1="738.8" y1="455.28" x2="738.8" y2="398.02"/>
    </g>
    <g id="bc" data-name="LWPOLYLINE">
      <polyline class="cb" points="230.84 469.45 508.35 469.45 508.35 483.63 230.84 483.63"/>
    </g>
    <g id="bd" data-name="LWPOLYLINE">
      <polyline class="cb" points="725.76 621.39 725.76 469.45 508.35 469.45"/>
    </g>
    <g id="be" data-name="LWPOLYLINE">
      <polyline class="cb" points="738.8 621.39 738.8 455.28 494.17 455.28 494.17 469.45"/>
    </g>
    <g id="bf" data-name="LWPOLYLINE">
      <polyline class="cb" points="230.84 621.39 230.84 469.45 135.87 469.45 135.87 621.39"/>
    </g>
    <g id="bg" data-name="LWPOLYLINE">
      <polygon class="bx" points="647.19 803.94 753 711.14 753 621.33 135.87 621.39 135.87 803.94 647.19 803.94"/>
    </g>
  </g>
  <g id="bk" data-name="SCALE">
    <g>
      <g id="bl" data-name="CIRCLE">
        <circle class="bx" cx="69.24" cy="1074" r="14.88"/>
      </g>
      <g id="bm" data-name="TEXT">
        <path class="ca" d="M78.85,1058.48l-.86-.35-1.27-8.05-2.62,6.47-.84-.34,3.28-8.1.87.35,1.26,8.02,2.61-6.45.84.34-3.28,8.1Z"/>
      </g>
      <g id="bn" data-name="HATCH">
        <path class="by" d="M74.82,1060.21c-.23-.09-.46-.18-.7-.26l-5.57,13.78.69.28,5.58-13.8Z"/>
      </g>
      <g id="bo" data-name="HATCH">
        <path class="by" d="M75.5,1060.5c-.23-.1-.45-.2-.69-.3l-5.58,13.8.69.28,5.57-13.78Z"/>
      </g>
      <g id="bp" data-name="LINE">
        <line class="bx" x1="74.12" y1="1059.94" x2="68.54" y2="1073.72"/>
      </g>
      <g id="bq" data-name="LINE">
        <line class="bx" x1="75.5" y1="1060.5" x2="69.93" y2="1074.28"/>
      </g>
      <g id="br" data-name="LINE">
        <line class="bx" x1="69.24" y1="1074" x2="74.82" y2="1060.21"/>
      </g>
      <g id="bs" data-name="MTEXT">
        <path class="ca" d="M52.86,1145.9c-.63-.5-1.13-1.2-1.49-2.1-.36-.9-.54-1.92-.54-3.06s.18-2.14.54-3.04c.36-.9.85-1.59,1.49-2.1.63-.5,1.36-.75,2.17-.75s1.53.25,2.17.75c.63.5,1.13,1.2,1.49,2.1.36.9.54,1.91.54,3.04s-.18,2.16-.54,3.05c-.36.89-.85,1.59-1.49,2.1s-1.36.76-2.17.76-1.53-.25-2.17-.75ZM56.51,1144.86c.44-.41.78-.96,1.02-1.67.24-.71.36-1.52.36-2.44s-.12-1.73-.36-2.45c-.24-.71-.58-1.27-1.02-1.67-.44-.4-.93-.6-1.49-.6s-1.05.2-1.48.6c-.43.4-.77.96-1.02,1.67-.25.71-.37,1.53-.37,2.43s.12,1.75.37,2.46c.25.71.58,1.27,1.02,1.67s.93.61,1.48.61,1.05-.2,1.49-.61Z"/>
      </g>
      <g id="bt" data-name="MTEXT">
        <path class="ca" d="M165.18,1144.72c.19-.17.42-.38.71-.64.93-.85,1.67-1.57,2.24-2.15.57-.58,1.05-1.17,1.44-1.78s.59-1.16.59-1.67c0-.48-.09-.9-.28-1.27s-.45-.66-.78-.86-.71-.31-1.15-.31c-.47,0-.93.16-1.37.48-.44.32-.78.73-1,1.23l-1.2-.51c.3-.7.78-1.28,1.46-1.73.67-.45,1.38-.67,2.11-.67.69,0,1.31.16,1.85.46.54.31.96.74,1.26,1.29.3.55.45,1.18.45,1.9s-.22,1.41-.67,2.14c-.45.73-.98,1.41-1.6,2.04-.62.63-1.42,1.39-2.42,2.27-.49.45-.95.88-1.39,1.3l-.94-.85c.28-.27.51-.49.7-.66ZM164.48,1145.38h7.22v1.18h-7.04l-.18-1.18Z"/>
      </g>
      <g id="bu" data-name="MTEXT">
        <path class="ca" d="M111.84,1146.54h-1.34v-10.08l-1.86,1.2-.67-1.07,2.54-1.62h1.33v11.57Z"/>
      </g>
      <g id="bv" data-name="MTEXT">
        <g>
          <path class="ca" d="M330.05,1139.31c.55-.25,1.08-.38,1.59-.38.77,0,1.45.16,2.06.49.6.33,1.07.78,1.41,1.35s.5,1.24.5,1.98-.17,1.43-.5,2.02-.8,1.05-1.4,1.38-1.29.5-2.07.5c-.6,0-1.16-.12-1.69-.38-.53-.25-.98-.6-1.34-1.05-.37-.45-.62-.95-.74-1.52l1.3-.3c.13.59.42,1.06.89,1.43.46.37.99.55,1.59.55.5,0,.95-.11,1.35-.34.4-.22.71-.54.94-.94.23-.41.34-.86.34-1.36s-.11-.95-.34-1.34c-.23-.39-.54-.69-.94-.91-.4-.22-.85-.33-1.35-.33-.33,0-.68.09-1.04.26-.36.18-.66.4-.9.68l-.99-.86c.34-.38.79-.7,1.34-.95ZM328.37,1140.93l.37-6.03h5.92v1.18h-4.64l-.32,5.04-1.33-.19Z"/>
          <path class="ca" d="M346.78,1140.76c-.29-.34-.67-.5-1.13-.5-.35,0-.66.07-.94.22-.27.14-.49.34-.65.6-.16.26-.24.55-.24.88v4.58h-1.33v-4.45c0-.54-.14-.98-.43-1.32s-.66-.5-1.12-.5c-.34,0-.65.09-.94.26s-.5.42-.66.72c-.15.3-.23.63-.23.98v4.3h-1.33v-7.46h1.33v1.31l-.14-.05c.22-.37.52-.68.9-.91.37-.23.75-.35,1.14-.35.46,0,.9.13,1.32.38.42.26.74.59.95.99.25-.41.59-.74,1.04-.99.45-.26.9-.38,1.36-.38.55,0,1.05.13,1.49.38.44.25.78.59,1.02,1.02.25.43.37.93.37,1.5v4.56h-1.34v-4.45c0-.54-.15-.98-.44-1.32Z"/>
        </g>
      </g>
      <g id="bw" data-name="LWPOLYLINE">
        <polyline class="bx" points="337.82 1130.89 337.82 1113.88 167.74 1113.88 167.74 1130.89 111.05 1130.89 111.05 1113.88 54.35 1113.88 54.35 1130.89"/>
      </g>
    </g>
  </g>
</svg>