<?xml version="1.0" encoding="UTF-8"?>
<svg xmlns="http://www.w3.org/2000/svg" viewBox="0 0 900 1200">
  <defs>
    <style>
      .ai {
        stroke-width: .18px;
      }

      .ai, .aj, .ak, .al, .am, .an, .ao {
        stroke: #000;
      }

      .ai, .aj, .al, .an, .ao {
        stroke-miterlimit: 10;
      }

      .ai, .aj, .an, .ao {
        fill: none;
      }

      .aj, .ak, .al, .am {
        stroke-width: .5px;
      }

      .ak {
        font-family: SUITVariable-Regular, 'SUIT Variable';
        font-size: 11.26px;
        font-variation-settings: 'wght' 400;
      }

      .ak, .al, .am {
        fill: #040000;
      }

      .al {
        fill-rule: evenodd;
      }

      .am {
        font-family: SUITVariable-Medium, 'SUIT Variable';
        font-size: 16.01px;
        font-variation-settings: 'wght' 500;
        font-weight: 500;
      }

      .an {
        stroke-width: .25px;
      }

      .ao {
        stroke-width: .1px;
      }
    </style>
  </defs>
  <g id="f" data-name="F6">
    <g id="g" data-name="HATCH">
      <path class="ao" d="M135.87,621.39v180.28h509.06s105.77-93.15,105.77-93.15v-87.13s-614.83,0-614.83,0M135.87,398.02v71.43h94.96s263.34,0,263.34,0v-14.17h244.63v-57.26H135.87Z"/>
      <path class="ao" d="M143.36,801.67v-180.28M143.36,469.45v-71.43M151.38,801.67v-180.28M151.38,469.45v-71.43M159.39,801.67v-180.28M159.39,469.45v-71.43M167.41,801.67v-180.28M167.41,469.45v-71.43M175.43,801.67v-180.28M175.43,469.45v-71.43M183.45,801.67v-180.28M183.45,469.45v-71.43M191.46,801.67v-180.28M191.46,469.45v-71.43M199.48,801.67v-180.28M199.48,469.45v-71.43M207.5,801.67v-180.28M207.5,469.45v-71.43M215.52,801.67v-180.28M215.52,469.45v-71.43M223.53,801.67v-180.28M223.53,469.45v-71.43M231.55,801.67v-180.28M231.55,469.45v-71.43M239.57,801.67v-180.28M239.57,469.45v-71.43M247.59,801.67v-180.28M247.59,469.45v-71.43M255.6,801.67v-180.28M255.6,469.45v-71.43M263.62,801.67v-180.28M263.62,469.45v-71.43M271.64,801.67v-180.28M271.64,469.45v-71.43M279.66,801.67v-180.28M279.66,469.45v-71.43M287.67,801.67v-180.28M287.67,469.45v-71.43M295.69,801.67v-180.28M295.69,469.45v-71.43M303.71,801.67v-180.28M303.71,469.45v-71.43M311.73,801.67v-180.28M311.73,469.45v-71.43M319.74,801.67v-180.28M319.74,469.45v-71.43M327.76,801.67v-180.28M327.76,469.45v-71.43M335.78,801.67v-180.28M335.78,469.45v-71.43M343.8,801.67v-180.28M343.8,469.45v-71.43M351.81,801.67v-180.28M351.81,469.45v-71.43M359.83,801.67v-180.28M359.83,469.45v-71.43M367.85,801.67v-180.28M367.85,469.45v-71.43M375.87,801.67v-180.28M375.87,469.45v-71.43M383.89,801.67v-180.28M383.89,469.45v-71.43M391.9,801.67v-180.28M391.9,469.45v-71.43M399.92,801.67v-180.28M399.92,469.45v-71.43M407.94,801.67v-180.28M407.94,469.45v-71.43M415.96,801.67v-180.28M415.96,469.45v-71.43M423.97,801.67v-180.28M423.97,469.45v-71.43M431.99,801.67v-180.28M431.99,469.45v-71.43M440.01,801.67v-180.28M440.01,469.45v-71.43M448.03,801.67v-180.28M448.03,469.45v-71.43M456.04,801.67v-180.28M456.04,469.45v-71.43M464.06,801.67v-180.28M464.06,469.45v-71.43M472.08,801.67v-180.28M472.08,469.45v-71.43M480.1,801.67v-180.28M480.1,469.45v-71.43M488.11,801.67v-180.28M488.11,469.45v-71.43M496.13,801.67v-180.28M496.13,455.28v-57.26M504.15,801.67v-180.28M504.15,455.28v-57.26M512.17,801.67v-180.28M512.17,455.28v-57.26M520.18,801.67v-180.28M520.18,455.28v-57.26M528.2,801.67v-180.28M528.2,455.28v-57.26M536.22,801.67v-180.28M536.22,455.28v-57.26M544.24,801.67v-180.28M544.24,455.28v-57.26M552.25,801.67v-180.28M552.25,455.28v-57.26M560.27,801.67v-180.28M560.27,455.28v-57.26M568.29,801.67v-180.28M568.29,455.28v-57.26M576.31,801.67v-180.28M576.31,455.28v-57.26M584.32,801.67v-180.28M584.32,455.28v-57.26M592.34,801.67v-180.28M592.34,455.28v-57.26M600.36,801.67v-180.28M600.36,455.28v-57.26M608.38,801.67v-180.28M608.38,455.28v-57.26M616.4,801.67v-180.28M616.4,455.28v-57.26M624.41,801.67v-180.28M624.41,455.28v-57.26M632.43,801.67v-180.28M632.43,455.28v-57.26M640.45,801.67v-180.28M640.45,455.28v-57.26M648.47,798.57v-177.18M648.47,455.28v-57.26M656.48,791.51v-170.11M656.48,455.28v-57.26M664.5,784.44v-163.05M664.5,455.28v-57.26M672.52,777.38v-155.99M672.52,455.28v-57.26M680.54,770.32v-148.93M680.54,455.28v-57.26M688.55,763.26v-141.87M688.55,455.28v-57.26M696.57,756.2v-134.81M696.57,455.28v-57.26M704.59,749.14v-127.75M704.59,455.28v-57.26M712.61,742.08v-120.69M712.61,455.28v-57.26M720.62,735.02v-113.63M720.62,455.28v-57.26M728.64,727.96v-106.57M728.64,455.28v-57.26M736.66,720.9v-99.51M736.66,455.28v-57.26M744.68,713.84v-92.44"/>
    </g>
    <g id="h" data-name="HATCH">
      <rect class="ao" x="135.87" y="469.45" width="94.96" height="151.94"/>
      <path class="ao" d="M137.34,621.39v-151.94M143.36,621.39v-151.94M149.37,621.39v-151.94M155.38,621.39v-151.94M161.4,621.39v-151.94M167.41,621.39v-151.94M173.42,621.39v-151.94M179.44,621.39v-151.94M185.45,621.39v-151.94M191.46,621.39v-151.94M197.48,621.39v-151.94M203.49,621.39v-151.94M209.5,621.39v-151.94M215.52,621.39v-151.94M221.53,621.39v-151.94M227.54,621.39v-151.94"/>
    </g>
    <g id="i" data-name="LWPOLYLINE">
      <polyline class="ai" points="230.84 469.45 508.35 469.45 508.35 483.63 230.84 483.63"/>
    </g>
    <g id="j" data-name="LWPOLYLINE">
      <polyline class="ai" points="725.76 621.39 725.76 469.45 508.35 469.45"/>
    </g>
    <g id="k" data-name="LWPOLYLINE">
      <polyline class="ai" points="738.8 621.39 738.8 455.28 494.17 455.28 494.17 469.45"/>
    </g>
    <g id="l" data-name="LWPOLYLINE">
      <polygon class="ai" points="737.1 621.96 737.1 456.98 495.31 456.98 495.31 459.25 734.84 459.25 734.84 621.96 737.1 621.96"/>
    </g>
    <g id="m" data-name="LWPOLYLINE">
      <polyline class="ai" points="750.71 621.39 750.71 398.02 135.87 398.02 135.87 469.45"/>
    </g>
    <g id="n" data-name="LINE">
      <line class="ai" x1="738.8" y1="455.28" x2="738.8" y2="398.02"/>
    </g>
    <g id="o" data-name="LWPOLYLINE">
      <polyline class="an" points="230.84 621.39 230.84 469.45 135.87 469.45 135.87 621.39"/>
    </g>
    <g id="p" data-name="LWPOLYLINE">
      <polygon class="an" points="644.94 801.67 750.71 708.52 750.71 621.39 135.87 621.39 135.87 801.67 644.94 801.67"/>
    </g>
    <g id="q" data-name="HATCH">
      <path class="ai" d="M230.84,485.76h494.93M230.84,521.76h494.93M230.84,557.76h494.93M230.84,593.76h494.93M250.72,621.39v-137.76M286.72,621.39v-137.76M322.72,621.39v-137.76M358.72,621.39v-137.76M394.72,621.39v-137.76M430.72,621.39v-137.76M466.72,621.39v-137.76M502.72,621.39v-137.76M538.72,621.39v-151.94M574.72,621.39v-151.94M610.72,621.39v-151.94M646.72,621.39v-151.94M682.72,621.39v-151.94M718.72,621.39v-151.94"/>
    </g>
  </g>
  <g id="u" data-name="SCALE">
    <g>
      <g id="v" data-name="CIRCLE">
        <circle class="aj" cx="89.45" cy="1036.35" r="14.88"/>
      </g>
      <g id="w" data-name="TEXT">
        <text class="ak" transform="translate(92.98 1018.33) rotate(22.03) scale(.9 1)"><tspan x="0" y="0">N</tspan></text>
      </g>
      <g id="x" data-name="HATCH">
        <path class="al" d="M95.03,1022.56c-.23-.09-.46-.18-.7-.26l-5.57,13.78.69.28,5.58-13.8Z"/>
      </g>
      <g id="y" data-name="HATCH">
        <path class="al" d="M95.72,1022.85c-.23-.1-.45-.2-.69-.3l-5.58,13.8.69.28,5.57-13.78Z"/>
      </g>
      <g id="z" data-name="LINE">
        <line class="aj" x1="94.33" y1="1022.29" x2="88.76" y2="1036.07"/>
      </g>
      <g id="aa" data-name="LINE">
        <line class="aj" x1="95.72" y1="1022.85" x2="90.14" y2="1036.63"/>
      </g>
      <g id="ab" data-name="LINE">
        <line class="aj" x1="89.45" y1="1036.35" x2="95.03" y2="1022.56"/>
      </g>
      <g id="ac" data-name="MTEXT">
        <text class="am" transform="translate(69.63 1125.63)"><tspan x="0" y="0">0</tspan></text>
      </g>
      <g id="ad" data-name="MTEXT">
        <text class="am" transform="translate(154.65 1125.63)"><tspan x="0" y="0">3</tspan></text>
      </g>
      <g id="ae" data-name="MTEXT">
        <text class="am" transform="translate(239.73 1125.63)"><tspan x="0" y="0">6</tspan></text>
      </g>
      <g id="af" data-name="MTEXT">
        <text class="am" transform="translate(98.52 1125.63)"><tspan x="0" y="0">1</tspan></text>
      </g>
      <g id="ag" data-name="MTEXT">
        <text class="am" transform="translate(318.29 1125.63)"><tspan x="0" y="0">9m</tspan></text>
      </g>
      <g id="ah" data-name="LWPOLYLINE">
        <polyline class="aj" points="329.11 1092.99 329.11 1110 244.07 1110 244.07 1092.99 159.03 1092.99 159.03 1110 102.33 1110 102.33 1092.99 73.99 1092.99 73.99 1110"/>
      </g>
    </g>
  </g>
</svg>