<?xml version="1.0" encoding="UTF-8"?>
<svg xmlns="http://www.w3.org/2000/svg" viewBox="0 0 900 1200">
  <defs>
    <style>
      .bx, .by, .bz, .ca, .cb, .cc, .cd {
        stroke: #000;
      }

      .bx, .by, .bz, .cc {
        stroke-width: .5px;
      }

      .bx, .bz, .ca, .cb, .cd {
        stroke-miterlimit: 10;
      }

      .bx, .ca, .cb, .cd {
        fill: none;
      }

      .by {
        fill: #231815;
        font-size: 16px;
      }

      .by, .cc {
        font-family: SUITVariable-Medium, 'SUIT Variable';
        font-variation-settings: 'wght' 500;
        font-weight: 500;
      }

      .bz {
        fill: #040000;
        fill-rule: evenodd;
      }

      .ca {
        stroke-width: .15px;
      }

      .cb {
        stroke-width: .4px;
      }

      .cc {
        font-size: 12px;
      }

      .cd {
        stroke-width: .3px;
      }
    </style>
  </defs>
  <g id="av" data-name="rf">
    <g id="aw" data-name="HATCH">
      <path class="ca" d="M143.36,803.94v-182.55M143.36,469.45v-71.43M151.38,803.94v-182.55M151.38,469.45v-71.43M159.39,803.94v-182.55M159.39,469.45v-71.43M167.41,803.94v-182.55M167.41,469.45v-71.43M175.43,803.94v-182.55M175.43,469.45v-71.43M183.45,803.94v-182.55M183.45,469.45v-71.43M191.46,803.94v-182.55M191.46,469.45v-71.43M199.48,803.94v-182.55M199.48,469.45v-71.43M207.5,803.94v-182.56M207.5,469.45v-71.43M215.52,803.94v-182.56M215.52,469.45v-71.43M223.53,803.94v-182.56M223.53,469.45v-71.43M231.55,803.94v-182.56M231.55,469.45v-71.43M239.57,803.94v-182.56M239.57,469.45v-71.43M247.59,803.94v-182.56M247.59,469.45v-71.43M255.6,803.94v-182.56M255.6,469.45v-71.43M263.62,803.94v-182.56M263.62,469.45v-71.43M271.64,803.94v-182.56M271.64,469.45v-71.43M279.66,803.94v-182.56M279.66,469.45v-71.43M287.67,803.94v-182.56M287.67,469.45v-71.43M295.69,803.94v-182.56M295.69,469.45v-71.43M303.71,803.94v-182.56M303.71,469.45v-71.43M311.73,803.94v-182.57M311.73,469.45v-71.43M319.74,803.94v-182.57M319.74,469.45v-71.43M327.76,803.94v-182.57M327.76,469.45v-71.43M335.78,803.94v-182.57M335.78,469.45v-71.43M343.8,803.94v-182.57M343.8,469.45v-71.43M351.81,803.94v-182.57M351.81,469.45v-71.43M359.83,803.94v-182.57M359.83,469.45v-71.43M367.85,803.94v-182.57M367.85,469.45v-71.43M375.87,803.94v-182.57M375.87,469.45v-71.43M383.89,803.94v-182.57M383.89,469.45v-71.43M391.9,803.94v-182.57M391.9,469.45v-71.43M399.92,803.94v-182.57M399.92,469.45v-71.43M407.94,803.94v-182.57M407.94,469.45v-71.43M415.96,803.94v-182.58M415.96,469.45v-71.43M423.97,803.94v-182.58M423.97,469.45v-71.43M431.99,803.94v-182.58M431.99,469.45v-71.43M440.01,803.94v-182.58M440.01,469.45v-71.43M448.03,803.94v-182.58M448.03,469.45v-71.43M456.04,803.94v-182.58M456.04,469.45v-71.43M464.06,803.94v-182.58M464.06,469.45v-71.43M472.08,803.94v-182.58M472.08,469.45v-71.43M480.1,803.94v-182.58M480.1,469.45v-71.43M488.11,803.94v-182.58M488.11,469.45v-71.43M496.13,803.94v-182.58M496.13,455.28v-57.26M504.15,803.94v-182.58M504.15,455.28v-57.26M512.17,803.94v-182.58M512.17,455.28v-57.26M520.18,803.94v-182.58M520.18,455.28v-57.26M528.2,803.94v-182.59M528.2,455.28v-57.26M536.22,803.94v-182.59M536.22,455.28v-57.26M544.24,803.94v-182.59M544.24,455.28v-57.26M552.25,803.94v-182.59M552.25,455.28v-57.26M560.27,803.94v-182.59M560.27,455.28v-57.26M568.29,803.94v-182.59M568.29,455.28v-57.26M576.31,803.94v-182.59M576.31,455.28v-57.26M584.32,803.94v-182.59M584.32,455.28v-57.26M592.34,803.94v-182.59M592.34,455.28v-57.26M600.36,803.94v-182.59M600.36,455.28v-57.26M608.38,803.94v-182.59M608.38,455.28v-57.26M616.4,803.94v-182.59M616.4,455.28v-57.26M624.41,803.94v-182.59M624.41,455.28v-57.26M632.43,803.94v-182.6M632.43,455.28v-57.26M640.45,803.94v-182.6M640.45,455.28v-57.26M648.47,802.82v-181.48M648.47,455.28v-57.26M656.48,795.79v-174.45M656.48,455.28v-57.26M664.5,788.76v-167.42M664.5,455.28v-57.26M672.52,781.73v-160.39M672.52,455.28v-57.26M680.54,774.69v-153.35M680.54,455.28v-57.26M688.55,767.66v-146.32M688.55,455.28v-57.26M696.57,760.63v-139.29M696.57,455.28v-57.26M704.59,753.6v-132.26M704.59,455.28v-57.26M712.61,746.57v-125.23M712.61,455.28v-57.26M720.62,739.53v-118.2M720.62,455.28v-57.26M728.64,732.5v-111.17M728.64,455.28v-57.26M736.66,725.47v-104.14M736.66,455.28v-57.26M744.68,718.44v-97.11M752.69,711.41v-90.07"/>
    </g>
    <g id="ax" data-name="HATCH">
      <path class="ca" d="M137.34,621.39v-151.94M143.36,621.39v-151.94M149.37,621.39v-151.94M155.38,621.39v-151.94M161.4,621.39v-151.93M167.41,621.39v-151.93M173.42,621.39v-151.93M179.44,621.39v-151.93M185.45,621.39v-151.93M191.46,621.39v-151.93M197.48,621.38v-151.93M203.49,621.38v-151.93M209.5,621.38v-151.93M215.52,621.38v-151.93M221.53,621.38v-151.93M227.54,621.38v-151.93"/>
    </g>
    <g id="ay" data-name="HATCH">
      <path class="ca" d="M230.84,485.76h494.93M230.84,521.76h494.93M230.84,557.76h494.93M230.84,593.76h494.93M250.72,621.38v-137.75M286.72,621.38v-137.75M322.72,621.37v-137.75M358.72,621.37v-137.74M394.72,621.37v-137.74M430.72,621.36v-137.74M466.72,621.36v-137.73M502.72,621.36v-137.73M538.72,621.35v-151.9M574.72,621.35v-151.9M610.72,621.35v-151.89M646.72,621.34v-151.89M682.72,621.34v-151.89M718.72,621.34v-151.88"/>
    </g>
    <g id="az" data-name="LWPOLYLINE">
      <polygon class="cd" points="737.1 621.33 737.1 456.98 495.31 456.98 495.31 459.25 734.84 459.25 734.84 621.33 737.1 621.33"/>
    </g>
    <g id="ba" data-name="LWPOLYLINE">
      <polyline class="cd" points="753 621.39 753 398.02 135.87 398.02 135.87 469.45"/>
    </g>
    <g id="bb" data-name="LINE">
      <line class="cd" x1="738.8" y1="455.28" x2="738.8" y2="398.02"/>
    </g>
    <g id="bc" data-name="LWPOLYLINE">
      <polyline class="cb" points="230.84 469.45 508.35 469.45 508.35 483.63 230.84 483.63"/>
    </g>
    <g id="bd" data-name="LWPOLYLINE">
      <polyline class="cb" points="725.76 621.39 725.76 469.45 508.35 469.45"/>
    </g>
    <g id="be" data-name="LWPOLYLINE">
      <polyline class="cb" points="738.8 621.39 738.8 455.28 494.17 455.28 494.17 469.45"/>
    </g>
    <g id="bf" data-name="LWPOLYLINE">
      <polyline class="cb" points="230.84 621.39 230.84 469.45 135.87 469.45 135.87 621.39"/>
    </g>
    <g id="bg" data-name="LWPOLYLINE">
      <polygon class="bx" points="647.19 803.94 753 711.14 753 621.33 135.87 621.39 135.87 803.94 647.19 803.94"/>
    </g>
  </g>
  <g id="bk" data-name="SCALE">
    <g>
      <g id="bl" data-name="CIRCLE">
        <circle class="bx" cx="69.24" cy="1074" r="14.88"/>
      </g>
      <g id="bm" data-name="TEXT">
        <text class="cc" transform="translate(72.45 1055.85) rotate(22.03) scale(.9 1)"><tspan x="0" y="0">N</tspan></text>
      </g>
      <g id="bn" data-name="HATCH">
        <path class="bz" d="M74.82,1060.21c-.23-.09-.46-.18-.7-.26l-5.57,13.78.69.28,5.58-13.8Z"/>
      </g>
      <g id="bo" data-name="HATCH">
        <path class="bz" d="M75.5,1060.5c-.23-.1-.45-.2-.69-.3l-5.58,13.8.69.28,5.57-13.78Z"/>
      </g>
      <g id="bp" data-name="LINE">
        <line class="bx" x1="74.12" y1="1059.94" x2="68.54" y2="1073.72"/>
      </g>
      <g id="bq" data-name="LINE">
        <line class="bx" x1="75.5" y1="1060.5" x2="69.93" y2="1074.28"/>
      </g>
      <g id="br" data-name="LINE">
        <line class="bx" x1="69.24" y1="1074" x2="74.82" y2="1060.21"/>
      </g>
      <g id="bs" data-name="MTEXT">
        <text class="by" transform="translate(50 1146.53)"><tspan x="0" y="0">0</tspan></text>
      </g>
      <g id="bt" data-name="MTEXT">
        <text class="by" transform="translate(163.52 1146.53)"><tspan x="0" y="0">2</tspan></text>
      </g>
      <g id="bu" data-name="MTEXT">
        <text class="by" transform="translate(107.23 1146.53)"><tspan x="0" y="0">1</tspan></text>
      </g>
      <g id="bv" data-name="MTEXT">
        <text class="by" transform="translate(327 1146.48)"><tspan x="0" y="0">5m</tspan></text>
      </g>
      <g id="bw" data-name="LWPOLYLINE">
        <polyline class="bx" points="337.82 1130.89 337.82 1113.88 167.74 1113.88 167.74 1130.89 111.05 1130.89 111.05 1113.88 54.35 1113.88 54.35 1130.89"/>
      </g>
    </g>
  </g>
</svg>