<?xml version="1.0" encoding="UTF-8"?>
<svg xmlns="http://www.w3.org/2000/svg" viewBox="0 0 900 1200">
  <defs>
    <style>
      .ls, .lt, .lu, .lv, .lw, .lx, .ly, .lz, .ma, .mb, .mc, .md, .me, .mf, .mg, .mh, .mi, .mj, .mk, .ml, .mm, .mn, .mo, .mp, .mq, .mr, .ms, .mt, .mu, .mv, .mw, .mx, .my, .mz, .na, .nb, .nc, .nd, .ne, .nf, .ng, .nh, .ni, .nj, .nk, .nl, .nm, .nn, .no {
        stroke: #000;
      }

      .ls, .lt, .lu, .lv, .lw, .lx, .ly, .lz, .ma, .mb, .mc, .md, .me, .mf, .mg, .mh, .mi, .mj, .mk, .mn, .mo, .mp, .mq, .mr, .ms, .mt, .mu, .mv, .mw, .mx, .my, .mz, .na, .nb, .nc, .nd, .ne, .nf, .ng, .nh, .ni, .nj, .nk, .nl, .nm, .nn, .no {
        stroke-miterlimit: 10;
      }

      .ls, .lt, .lu, .lv, .lw, .lx, .ly, .lz, .ma, .mc, .md, .me, .mf, .mg, .mh, .mi, .mj, .mk, .mn, .mo, .mp, .mq, .mr, .ms, .mt, .mu, .mv, .mw, .mx, .my, .mz, .na, .nb, .nc, .nd, .ne, .nf, .ng, .nh, .ni, .nj, .nk, .nl, .nm, .nn, .no {
        fill: none;
      }

      .ls, .lv, .mb, .mg, .mh, .mi, .mm, .ms, .mt, .mw, .na, .nd, .ni, .nn {
        stroke-width: .5px;
      }

      .lt {
        stroke-dasharray: 1.01 2.03;
      }

      .lt, .ma, .mu, .mz, .nf {
        stroke-width: .25px;
      }

      .lu {
        stroke-dasharray: 3.24 1.62;
      }

      .lu, .lx, .ly, .lz, .md, .mf, .mk, .mn, .mo, .mp, .mq, .mr, .mv, .mx, .my, .ng, .nh, .nj, .nk, .nl, .nm, .no {
        stroke-width: .4px;
      }

      .lv {
        stroke-dasharray: 2.03 1.02;
      }

      .lx {
        stroke-dasharray: 3.02 1.51;
      }

      .ly {
        stroke-dasharray: 2.02 1.01;
      }

      .lz {
        stroke-dasharray: 3.04 1.52;
      }

      .ma {
        stroke-dasharray: 1.02 2.04;
      }

      .mb {
        fill: #040000;
        fill-rule: evenodd;
      }

      .mc {
        stroke-width: .75px;
      }

      .md {
        stroke-dasharray: 1.99 .99;
      }

      .me {
        stroke-width: .85px;
      }

      .mf {
        stroke-dasharray: 3.04 1.52;
      }

      .mg {
        stroke-dasharray: 2.02 1.01;
      }

      .mh {
        stroke-dasharray: 1.98 .99;
      }

      .mi {
        stroke-dasharray: 2.05 1.03;
      }

      .mj {
        stroke-width: .15px;
      }

      .mk {
        stroke-dasharray: 3 1.5;
      }

      .ml {
        stroke-width: .34px;
      }

      .mn {
        stroke-dasharray: 2.95 1.48;
      }

      .mp {
        stroke-dasharray: 1.71 .86;
      }

      .mq {
        stroke-dasharray: 1.97 .99;
      }

      .mr {
        stroke-dasharray: 1.88 .94;
      }

      .ms {
        stroke-dasharray: 1.98 .99;
      }

      .mt {
        stroke-dasharray: 2.03 1.01;
      }

      .mv {
        stroke-dasharray: 3.19 1.6;
      }

      .mw {
        stroke-dasharray: 2.01 1;
      }

      .mx {
        stroke-dasharray: 2.01 1.01;
      }

      .my {
        stroke-dasharray: 3.1 1.55;
      }

      .mz {
        stroke-dasharray: 4.07 2.04 1.02 2.04;
      }

      .na {
        stroke-dasharray: 2 1;
      }

      .nb {
        stroke-width: .3px;
      }

      .nc {
        stroke-width: .6px;
      }

      .nd {
        stroke-dasharray: 1.98 .99;
      }

      .ne {
        stroke-width: .9px;
      }

      .nf {
        stroke-dasharray: 4.05 2.03 1.01 2.03;
      }

      .ng {
        stroke-dasharray: 2.97 1.48;
      }

      .nh {
        stroke-dasharray: 2.96 1.48;
      }

      .ni {
        stroke-dasharray: 2 1;
      }

      .nj {
        stroke-dasharray: 2.01 1;
      }

      .nk {
        stroke-dasharray: 1.99 .99;
      }

      .nl {
        stroke-dasharray: 2.02 1.01;
      }

      .nm {
        stroke-dasharray: 2.04 1.02;
      }

      .nn {
        stroke-dasharray: 1.97 .99;
      }

      .no {
        stroke-dasharray: 1.98 .99;
      }
    </style>
  </defs>
  <g id="ar" data-name="f1">
    <g id="as" data-name="LINE">
      <g>
        <line class="mu" x1="433.8" y1="455.28" x2="431.95" y2="454.52"/>
        <line class="lt" x1="430.08" y1="453.74" x2="428.21" y2="452.96"/>
        <line class="nf" x1="427.27" y1="452.58" x2="327.16" y2="411.08"/>
        <line class="mu" x1="326.23" y1="410.69" x2="324.38" y2="409.93"/>
      </g>
    </g>
    <g id="at" data-name="LINE">
      <g>
        <line class="mu" x1="324.38" y1="456.7" x2="326.22" y2="455.91"/>
        <line class="ma" x1="328.09" y1="455.11" x2="329.96" y2="454.31"/>
        <line class="mz" x1="330.9" y1="453.91" x2="431.02" y2="411.11"/>
        <line class="mu" x1="431.96" y1="410.71" x2="433.8" y2="409.93"/>
      </g>
    </g>
    <g id="au" data-name="LWPOLYLINE">
      <polyline class="mu" points="453.07 544.29 458.17 544.29 458.17 544.86 453.07 544.86"/>
    </g>
    <g id="av" data-name="LWPOLYLINE">
      <polyline class="mu" points="697.98 544.86 605.01 544.86 605.01 544.29 697.98 544.29"/>
    </g>
    <g id="aw" data-name="LWPOLYLINE">
      <rect class="mu" x="510.9" y="544.29" width="92.98" height=".57"/>
    </g>
    <g id="ax" data-name="LWPOLYLINE">
      <polyline class="mu" points="458.74 544.86 509.76 544.86 509.76 544.29 458.74 544.29"/>
    </g>
    <g id="ay" data-name="LINE">
      <line class="mu" x1="231.4" y1="458.4" x2="275.62" y2="458.4"/>
    </g>
    <g id="az" data-name="LINE">
      <line class="mu" x1="284.69" y1="459.53" x2="428.13" y2="459.53"/>
    </g>
    <g id="ba" data-name="LINE">
      <line class="mu" x1="445.26" y1="322.05" x2="445.26" y2="388.95"/>
    </g>
    <g id="bb" data-name="LWPOLYLINE">
      <polyline class="mu" points="453.07 395.75 509.2 395.75 509.2 395.19 453.07 395.19"/>
    </g>
    <g id="bc" data-name="LWPOLYLINE">
      <rect class="mu" x="510.33" y="395.19" width="55.56" height=".57"/>
    </g>
    <g id="bd" data-name="LWPOLYLINE">
      <rect class="mu" x="567.02" y="395.19" width="81.07" height=".57"/>
    </g>
    <g id="be" data-name="LWPOLYLINE">
      <polyline class="mu" points="433.8 408.79 323.24 408.79 323.24 456.7"/>
    </g>
    <g id="bf" data-name="LINE">
      <line class="mu" x1="427.28" y1="787.5" x2="300.85" y2="787.5"/>
    </g>
    <g id="bg" data-name="LINE">
      <line class="mu" x1="426.43" y1="789.07" x2="301.7" y2="789.07"/>
    </g>
    <g id="bh" data-name="LINE">
      <line class="mu" x1="611.53" y1="787.5" x2="459.59" y2="787.5"/>
    </g>
    <g id="bi" data-name="LINE">
      <line class="mu" x1="610.68" y1="789.07" x2="460.44" y2="789.07"/>
    </g>
    <g id="bj" data-name="LINE">
      <line class="mu" x1="736.54" y1="674.4" x2="736.54" y2="565.26"/>
    </g>
    <g id="bk" data-name="LINE">
      <line class="mu" x1="738.1" y1="566.12" x2="738.1" y2="673.55"/>
    </g>
    <g id="bl" data-name="LINE">
      <line class="mu" x1="727.47" y1="325.45" x2="727.47" y2="385.55"/>
    </g>
    <g id="bm" data-name="LINE">
      <line class="mu" x1="163.09" y1="489.86" x2="163.09" y2="534.08"/>
    </g>
    <g id="bn" data-name="LINE">
      <line class="mu" x1="446.84" y1="321.2" x2="446.84" y2="389.8"/>
    </g>
    <g id="bo" data-name="LINE">
      <line class="mu" x1="641.85" y1="786.76" x2="735.82" y2="704.34"/>
    </g>
    <g id="bp" data-name="LINE">
      <line class="mu" x1="736.21" y1="706.08" x2="643.53" y2="787.38"/>
    </g>
    <g id="bq" data-name="LWPOLYLINE">
      <line class="nb" x1="279.02" y1="483.63" x2="279.02" y2="557.33"/>
    </g>
    <g id="br" data-name="LWPOLYLINE">
      <g>
        <polyline class="mo" points="344.5 733.78 344.5 734.78 345.5 734.78"/>
        <line class="md" x1="346.5" y1="734.78" x2="399.7" y2="734.78"/>
        <polyline class="mo" points="400.2 734.78 401.2 734.78 401.2 733.78"/>
        <line class="nl" x1="401.2" y1="732.77" x2="401.2" y2="600.22"/>
        <polyline class="mo" points="401.2 599.71 401.2 598.71 400.2 598.71"/>
        <line class="md" x1="399.2" y1="598.71" x2="346" y2="598.71"/>
        <polyline class="mo" points="345.5 598.71 344.5 598.71 344.5 599.71"/>
        <line class="nl" x1="344.5" y1="600.72" x2="344.5" y2="733.27"/>
      </g>
    </g>
    <g id="bs" data-name="LWPOLYLINE">
      <g>
        <polyline class="mo" points="341.8 730.52 342.8 730.52 342.8 729.52"/>
        <line class="mr" x1="342.8" y1="728.58" x2="342.8" y2="706.48"/>
        <polyline class="mo" points="342.8 706.01 342.8 705.01 341.8 705.01"/>
        <path class="mq" d="M340.82,705.01h-15.02c-7.04,0-12.76,5.71-12.76,12.76s5.71,12.76,12.76,12.76h15.51"/>
      </g>
    </g>
    <g id="bt" data-name="LWPOLYLINE">
      <g>
        <polyline class="mo" points="341.8 696.51 342.8 696.51 342.8 695.51"/>
        <line class="mr" x1="342.8" y1="694.57" x2="342.8" y2="672.47"/>
        <polyline class="mo" points="342.8 672 342.8 671 341.8 671"/>
        <path class="mq" d="M340.82,671h-15.02c-7.04,0-12.76,5.71-12.76,12.76s5.71,12.76,12.76,12.76h15.51"/>
      </g>
    </g>
    <g id="bu" data-name="LWPOLYLINE">
      <g>
        <polyline class="mo" points="341.8 662.49 342.8 662.49 342.8 661.49"/>
        <line class="mr" x1="342.8" y1="660.55" x2="342.8" y2="638.45"/>
        <polyline class="mo" points="342.8 637.98 342.8 636.98 341.8 636.98"/>
        <path class="mq" d="M340.82,636.98h-15.02c-7.04,0-12.76,5.71-12.76,12.76s5.71,12.76,12.76,12.76h15.51"/>
      </g>
    </g>
    <g id="bv" data-name="LWPOLYLINE">
      <g>
        <polyline class="mo" points="341.8 628.48 342.8 628.48 342.8 627.48"/>
        <line class="mr" x1="342.8" y1="626.54" x2="342.8" y2="604.44"/>
        <polyline class="mo" points="342.8 603.97 342.8 602.97 341.8 602.97"/>
        <path class="mq" d="M340.82,602.97h-15.02c-7.04,0-12.76,5.71-12.76,12.76s5.71,12.76,12.76,12.76h15.51"/>
      </g>
    </g>
    <g id="bw" data-name="LWPOLYLINE">
      <g>
        <polyline class="mo" points="403.9 730.52 402.9 730.52 402.9 729.52"/>
        <line class="mr" x1="402.9" y1="728.58" x2="402.9" y2="706.48"/>
        <polyline class="mo" points="402.9 706.01 402.9 705.01 403.9 705.01"/>
        <path class="mq" d="M404.89,705.01h15.02c7.04,0,12.76,5.71,12.76,12.76s-5.71,12.76-12.76,12.76h-15.51"/>
      </g>
    </g>
    <g id="bx" data-name="LWPOLYLINE">
      <g>
        <polyline class="mo" points="403.9 696.51 402.9 696.51 402.9 695.51"/>
        <line class="mr" x1="402.9" y1="694.57" x2="402.9" y2="672.47"/>
        <polyline class="mo" points="402.9 672 402.9 671 403.9 671"/>
        <path class="mq" d="M404.89,671h15.02c7.04,0,12.76,5.71,12.76,12.76s-5.71,12.76-12.76,12.76h-15.51"/>
      </g>
    </g>
    <g id="by" data-name="LWPOLYLINE">
      <g>
        <polyline class="mo" points="403.9 662.49 402.9 662.49 402.9 661.49"/>
        <line class="mr" x1="402.9" y1="660.55" x2="402.9" y2="638.45"/>
        <polyline class="mo" points="402.9 637.98 402.9 636.98 403.9 636.98"/>
        <path class="mq" d="M404.89,636.98h15.02c7.04,0,12.76,5.71,12.76,12.76s-5.71,12.76-12.76,12.76h-15.51"/>
      </g>
    </g>
    <g id="bz" data-name="LWPOLYLINE">
      <g>
        <polyline class="mo" points="403.9 628.48 402.9 628.48 402.9 627.48"/>
        <line class="mr" x1="402.9" y1="626.54" x2="402.9" y2="604.44"/>
        <polyline class="mo" points="402.9 603.97 402.9 602.97 403.9 602.97"/>
        <path class="mq" d="M404.89,602.97h15.02c7.04,0,12.76,5.71,12.76,12.76s-5.71,12.76-12.76,12.76h-15.51"/>
      </g>
    </g>
    <g id="ca" data-name="LWPOLYLINE">
      <g>
        <line class="mo" x1="600.41" y1="769.8" x2="600.41" y2="768.8"/>
        <line class="nj" x1="600.41" y1="767.8" x2="600.41" y2="723.12"/>
        <polyline class="mo" points="600.41 722.61 600.41 721.61 599.41 721.61"/>
        <line class="nl" x1="598.4" y1="721.61" x2="465.85" y2="721.61"/>
        <polyline class="mo" points="465.35 721.61 464.35 721.61 464.35 722.61"/>
        <line class="nj" x1="464.35" y1="723.62" x2="464.35" y2="768.3"/>
        <polyline class="mo" points="464.35 768.8 464.35 769.8 465.35 769.8"/>
        <line class="nl" x1="466.35" y1="769.8" x2="598.91" y2="769.8"/>
        <line class="mo" x1="599.41" y1="769.8" x2="600.41" y2="769.8"/>
      </g>
    </g>
    <g id="cb" data-name="CIRCLE">
      <circle class="ly" cx="519.45" cy="646.39" r="25.51" transform="translate(-304.93 556.63) rotate(-45)"/>
    </g>
    <g id="cc" data-name="ARC">
      <g>
        <path class="mo" d="M544.96,646.01c.28.19.56.37.84.54"/>
        <path class="nk" d="M546.67,647.03c6.2,3.15,13.93,1.34,18.03-4.52,4.49-6.42,2.92-15.25-3.49-19.74s-15.25-2.92-19.74,3.49c-.62.89-1.14,1.85-1.54,2.86"/>
        <path class="mo" d="M539.75,629.59c-.11.31-.21.63-.31.95"/>
      </g>
    </g>
    <g id="cd" data-name="CIRCLE">
      <circle class="mx" cx="598.53" cy="648.67" r="28.35" transform="translate(-229.81 953.41) rotate(-67.5)"/>
    </g>
    <g id="ce" data-name="LWPOLYLINE">
      <g>
        <line class="mo" x1="472.85" y1="721.61" x2="472.85" y2="722.61"/>
        <line class="nm" x1="472.85" y1="723.63" x2="472.85" y2="759.79"/>
        <polyline class="mo" points="472.85 760.3 472.85 761.3 473.85 761.3"/>
        <line class="no" x1="474.84" y1="761.3" x2="590.41" y2="761.3"/>
        <polyline class="mo" points="590.91 761.3 591.91 761.3 591.91 760.3"/>
        <line class="nm" x1="591.91" y1="759.28" x2="591.91" y2="723.12"/>
        <line class="mo" x1="591.91" y1="722.61" x2="591.91" y2="721.61"/>
      </g>
    </g>
    <g id="cf" data-name="LWPOLYLINE">
      <g>
        <line class="mo" x1="552.22" y1="761.3" x2="552.22" y2="760.3"/>
        <line class="nm" x1="552.22" y1="759.28" x2="552.22" y2="723.12"/>
        <line class="mo" x1="552.22" y1="722.61" x2="552.22" y2="721.61"/>
      </g>
    </g>
    <g id="cg" data-name="LWPOLYLINE">
      <g>
        <line class="mo" x1="512.54" y1="761.3" x2="512.54" y2="760.3"/>
        <line class="nm" x1="512.54" y1="759.28" x2="512.54" y2="723.12"/>
        <line class="mo" x1="512.54" y1="722.61" x2="512.54" y2="721.61"/>
      </g>
    </g>
    <g id="ch" data-name="LWPOLYLINE">
      <g>
        <line class="mo" x1="720.43" y1="650.25" x2="719.43" y2="650.25"/>
        <line class="nj" x1="718.43" y1="650.25" x2="673.74" y2="650.25"/>
        <polyline class="mo" points="673.24 650.25 672.24 650.25 672.24 649.25"/>
        <line class="md" x1="672.24" y1="648.26" x2="672.24" y2="595.06"/>
        <polyline class="mo" points="672.24 594.56 672.24 593.56 673.24 593.56"/>
        <line class="nj" x1="674.24" y1="593.56" x2="718.93" y2="593.56"/>
        <polyline class="mo" points="719.43 593.56 720.43 593.56 720.43 594.56"/>
        <line class="md" x1="720.43" y1="595.55" x2="720.43" y2="648.76"/>
        <line class="mo" x1="720.43" y1="649.25" x2="720.43" y2="650.25"/>
      </g>
    </g>
    <g id="ci" data-name="LWPOLYLINE">
      <g>
        <line class="mo" x1="672.24" y1="602.06" x2="673.24" y2="602.06"/>
        <line class="nm" x1="674.26" y1="602.06" x2="710.42" y2="602.06"/>
        <polyline class="mo" points="710.93 602.06 711.93 602.06 711.93 603.06"/>
        <line class="nm" x1="711.93" y1="604.08" x2="711.93" y2="640.24"/>
        <polyline class="mo" points="711.93 640.75 711.93 641.75 710.93 641.75"/>
        <line class="nm" x1="709.91" y1="641.75" x2="673.75" y2="641.75"/>
        <line class="mo" x1="673.24" y1="641.75" x2="672.24" y2="641.75"/>
      </g>
    </g>
    <g id="cj" data-name="LWPOLYLINE">
      <g>
        <line class="mo" x1="652.25" y1="745.06" x2="651.59" y2="744.31"/>
        <line class="nj" x1="650.93" y1="743.55" x2="621.48" y2="709.95"/>
        <polyline class="mo" points="621.15 709.57 620.49 708.82 621.25 708.16"/>
        <line class="md" x1="621.99" y1="707.5" x2="662" y2="672.44"/>
        <polyline class="mo" points="662.38 672.11 663.13 671.45 663.79 672.2"/>
        <line class="nj" x1="664.45" y1="672.96" x2="693.9" y2="706.56"/>
        <polyline class="mo" points="694.23 706.94 694.89 707.69 694.14 708.35"/>
        <line class="md" x1="693.39" y1="709.01" x2="653.38" y2="744.07"/>
        <line class="mo" x1="653.01" y1="744.4" x2="652.25" y2="745.06"/>
      </g>
    </g>
    <g id="ck" data-name="LWPOLYLINE">
      <g>
        <line class="mo" x1="656.74" y1="677.06" x2="657.39" y2="677.81"/>
        <line class="nm" x1="658.07" y1="678.57" x2="681.9" y2="705.77"/>
        <polyline class="mo" points="682.23 706.15 682.89 706.9 682.14 707.56"/>
        <line class="nm" x1="681.37" y1="708.23" x2="654.18" y2="732.06"/>
        <polyline class="mo" points="653.8 732.4 653.04 733.06 652.39 732.3"/>
        <line class="nm" x1="651.71" y1="731.54" x2="627.88" y2="704.35"/>
        <line class="mo" x1="627.55" y1="703.96" x2="626.89" y2="703.21"/>
      </g>
    </g>
    <g id="cl" data-name="LINE">
      <line class="mo" x1="222.33" y1="572.07" x2="171.31" y2="572.07"/>
    </g>
    <g id="cm" data-name="LINE">
      <line class="mo" x1="222.33" y1="586.81" x2="171.31" y2="586.81"/>
    </g>
    <g id="cn" data-name="LINE">
      <line class="mo" x1="222.33" y1="601.55" x2="171.31" y2="601.55"/>
    </g>
    <g id="co" data-name="LINE">
      <line class="mo" x1="222.33" y1="616.29" x2="171.31" y2="616.29"/>
    </g>
    <g id="cp" data-name="LINE">
      <line class="mo" x1="222.33" y1="631.03" x2="200.22" y2="631.03"/>
    </g>
    <g id="cq" data-name="LINE">
      <line class="mo" x1="648.1" y1="392.92" x2="648.1" y2="319.22"/>
    </g>
    <g id="cr" data-name="LINE">
      <line class="mo" x1="633.07" y1="392.92" x2="633.07" y2="319.22"/>
    </g>
    <g id="cs" data-name="LINE">
      <line class="mo" x1="618.05" y1="392.92" x2="618.05" y2="319.22"/>
    </g>
    <g id="ct" data-name="LINE">
      <line class="mo" x1="603.02" y1="392.92" x2="603.02" y2="319.22"/>
    </g>
    <g id="cu" data-name="LINE">
      <line class="mo" x1="588" y1="392.92" x2="588" y2="319.22"/>
    </g>
    <g id="cv" data-name="LINE">
      <line class="mo" x1="572.98" y1="392.92" x2="572.98" y2="319.22"/>
    </g>
    <g id="cw" data-name="LINE">
      <line class="mo" x1="557.95" y1="392.92" x2="557.95" y2="319.22"/>
    </g>
    <g id="cx" data-name="LINE">
      <line class="mo" x1="542.93" y1="392.92" x2="542.93" y2="319.22"/>
    </g>
    <g id="cy" data-name="LINE">
      <line class="mo" x1="527.91" y1="392.92" x2="527.91" y2="319.22"/>
    </g>
    <g id="cz" data-name="LWPOLYLINE">
      <polyline class="mo" points="433.8 409.93 324.38 409.93 324.38 456.7"/>
    </g>
    <g id="da" data-name="LINE">
      <g>
        <line class="mo" x1="222.33" y1="645.77" x2="220.83" y2="645.77"/>
        <line class="my" x1="219.28" y1="645.77" x2="173.58" y2="645.77"/>
        <line class="mo" x1="172.81" y1="645.77" x2="171.31" y2="645.77"/>
      </g>
    </g>
    <g id="db" data-name="LINE">
      <g>
        <line class="mo" x1="222.33" y1="660.51" x2="220.83" y2="660.51"/>
        <line class="my" x1="219.28" y1="660.51" x2="173.58" y2="660.51"/>
        <line class="mo" x1="172.81" y1="660.51" x2="171.31" y2="660.51"/>
      </g>
    </g>
    <g id="dc" data-name="LINE">
      <g>
        <line class="mo" x1="222.33" y1="675.25" x2="220.83" y2="675.25"/>
        <line class="my" x1="219.28" y1="675.25" x2="173.58" y2="675.25"/>
        <line class="mo" x1="172.81" y1="675.25" x2="171.31" y2="675.25"/>
      </g>
    </g>
    <g id="dd" data-name="LINE">
      <g>
        <line class="mo" x1="200.22" y1="631.03" x2="198.72" y2="631.03"/>
        <line class="lu" x1="197.1" y1="631.03" x2="173.62" y2="631.03"/>
        <line class="mo" x1="172.81" y1="631.03" x2="171.31" y2="631.03"/>
      </g>
    </g>
    <g id="de" data-name="LINE">
      <g>
        <line class="mo" x1="298.87" y1="803.94" x2="300.37" y2="803.94"/>
        <line class="mk" x1="301.87" y1="803.94" x2="427.01" y2="803.94"/>
        <line class="mo" x1="427.76" y1="803.94" x2="429.26" y2="803.94"/>
      </g>
    </g>
    <g id="df" data-name="LINE">
      <g>
        <line class="mo" x1="457.61" y1="803.94" x2="459.11" y2="803.94"/>
        <line class="ng" x1="460.59" y1="803.94" x2="611.27" y2="803.94"/>
        <line class="mo" x1="612.01" y1="803.94" x2="613.51" y2="803.94"/>
      </g>
    </g>
    <g id="dg" data-name="LINE">
      <g>
        <line class="mo" x1="752.98" y1="676.38" x2="752.98" y2="674.88"/>
        <line class="lx" x1="752.98" y1="673.37" x2="752.98" y2="565.53"/>
        <line class="mo" x1="752.98" y1="564.78" x2="752.98" y2="563.28"/>
      </g>
    </g>
    <g id="dh" data-name="LINE">
      <g>
        <line class="mo" x1="752.98" y1="534.93" x2="752.98" y2="533.43"/>
        <line class="mn" x1="752.98" y1="531.96" x2="752.98" y2="417.55"/>
        <line class="mo" x1="752.98" y1="416.81" x2="752.98" y2="415.31"/>
      </g>
    </g>
    <g id="di" data-name="LWPOLYLINE">
      <g>
        <line class="mo" x1="752.98" y1="386.97" x2="752.98" y2="385.47"/>
        <line class="lz" x1="752.98" y1="383.95" x2="752.98" y2="307.3"/>
        <polyline class="mo" points="752.98 306.54 752.98 305.04 751.48 305.04"/>
        <line class="mv" x1="749.88" y1="305.04" x2="741.1" y2="305.04"/>
        <line class="mo" x1="740.3" y1="305.04" x2="738.8" y2="305.04"/>
      </g>
    </g>
    <g id="dj" data-name="LWPOLYLINE">
      <g>
        <line class="mo" x1="270.52" y1="803.94" x2="269.02" y2="803.94"/>
        <line class="nh" x1="267.54" y1="803.94" x2="139.53" y2="803.94"/>
        <polyline class="mo" points="138.79 803.94 137.29 803.94 137.29 802.44"/>
        <line class="mo" x1="137.29" y1="799.77" x2="137.29" y2="798.27"/>
      </g>
    </g>
    <g id="dk" data-name="LWPOLYLINE">
      <g>
        <line class="mo" x1="641.86" y1="803.94" x2="643.36" y2="803.94"/>
        <polyline class="mf" points="644.88 803.94 647.19 803.94 751.28 712.64"/>
        <polyline class="mo" points="751.85 712.14 752.98 711.15 752.98 709.65"/>
        <line class="mp" x1="752.98" y1="708.79" x2="752.98" y2="706.66"/>
        <line class="mo" x1="752.98" y1="706.23" x2="752.98" y2="704.73"/>
      </g>
    </g>
    <g id="dl" data-name="LWPOLYLINE">
      <rect class="mo" x="458.74" y="543.15" width="8.5" height="2.83"/>
    </g>
    <g id="dm" data-name="LWPOLYLINE">
      <rect class="mo" x="275.62" y="456.7" width="3.4" height="3.4"/>
    </g>
    <g id="dn" data-name="LWPOLYLINE">
      <rect class="mo" x="228" y="456.7" width="3.4" height="3.4"/>
    </g>
    <g id="do" data-name="LWPOLYLINE">
      <rect class="mo" x="428.13" y="456.7" width="2.83" height="5.67"/>
    </g>
    <g id="dp" data-name="LWPOLYLINE">
      <rect class="mo" x="281.86" y="456.7" width="2.83" height="5.67"/>
    </g>
    <g id="dq" data-name="LWPOLYLINE">
      <rect class="mo" x="447.4" y="388.95" width="5.67" height="2.83"/>
    </g>
    <g id="dr" data-name="LWPOLYLINE">
      <rect class="mo" x="447.4" y="319.22" width="5.67" height="2.83"/>
    </g>
    <g id="ds" data-name="LWPOLYLINE">
      <rect class="mo" x="298.87" y="781.26" width="2.83" height="5.67"/>
    </g>
    <g id="dt" data-name="LWPOLYLINE">
      <rect class="mo" x="426.43" y="781.26" width="2.83" height="5.67"/>
    </g>
    <g id="du" data-name="LWPOLYLINE">
      <rect class="mo" x="457.61" y="781.26" width="2.83" height="5.67"/>
    </g>
    <g id="dv" data-name="LWPOLYLINE">
      <rect class="mo" x="610.68" y="781.26" width="2.83" height="5.67"/>
    </g>
    <g id="dw" data-name="LWPOLYLINE">
      <rect class="mo" x="730.3" y="673.55" width="5.67" height="2.83"/>
    </g>
    <g id="dx" data-name="LWPOLYLINE">
      <rect class="mo" x="730.3" y="563.28" width="5.67" height="2.83"/>
    </g>
    <g id="dy" data-name="LWPOLYLINE">
      <rect class="mo" x="683.81" y="540.32" width="14.17" height="2.83"/>
    </g>
    <g id="dz" data-name="LWPOLYLINE">
      <rect class="mo" x="683.81" y="407.09" width="14.17" height="2.83"/>
    </g>
    <g id="ea" data-name="LWPOLYLINE">
      <rect class="mo" x="683.81" y="409.93" width="1.7" height="65.2"/>
    </g>
    <g id="eb" data-name="LWPOLYLINE">
      <rect class="mo" x="683.81" y="475.12" width="1.7" height="65.2"/>
    </g>
    <g id="ec" data-name="LWPOLYLINE">
      <rect class="mo" x="229.13" y="718.9" width="5.67" height="2.83"/>
    </g>
    <g id="ed" data-name="LWPOLYLINE">
      <rect class="mo" x="229.13" y="758.59" width="5.67" height="2.83"/>
    </g>
    <g id="ee" data-name="LWPOLYLINE">
      <rect class="mo" x="233.1" y="721.74" width="1.7" height="36.85"/>
    </g>
    <g id="ef" data-name="LWPOLYLINE">
      <rect class="mo" x="117.45" y="727.97" width="2.83" height="5.67"/>
    </g>
    <g id="eg" data-name="LWPOLYLINE">
      <rect class="mo" x="72.1" y="731.94" width="45.35" height="1.7"/>
    </g>
    <g id="eh" data-name="LWPOLYLINE">
      <polyline class="mo" points="427.28 786.93 427.28 788.07 428.41 788.07 428.41 786.93"/>
    </g>
    <g id="ei" data-name="LINE">
      <line class="mo" x1="427.84" y1="788.07" x2="427.84" y2="789.77"/>
    </g>
    <g id="ej" data-name="LWPOLYLINE">
      <polyline class="mo" points="426.43 789.07 426.43 789.77 429.26 789.77 429.26 789.08"/>
    </g>
    <g id="ek" data-name="LWPOLYLINE">
      <polyline class="mo" points="299.72 786.93 299.72 788.07 300.85 788.07 300.85 786.93"/>
    </g>
    <g id="el" data-name="LINE">
      <line class="mo" x1="300.28" y1="788.07" x2="300.28" y2="789.77"/>
    </g>
    <g id="em" data-name="LWPOLYLINE">
      <polyline class="mo" points="298.87 789.07 298.87 789.77 301.7 789.77 301.7 789.08"/>
    </g>
    <g id="en" data-name="LWPOLYLINE">
      <polyline class="mo" points="458.46 786.93 458.46 788.07 459.59 788.07 459.59 786.93"/>
    </g>
    <g id="eo" data-name="LINE">
      <line class="mo" x1="459.02" y1="788.07" x2="459.02" y2="789.77"/>
    </g>
    <g id="ep" data-name="LWPOLYLINE">
      <polyline class="mo" points="457.61 789.07 457.61 789.77 460.44 789.77 460.44 789.08"/>
    </g>
    <g id="eq" data-name="LWPOLYLINE">
      <polyline class="mo" points="611.53 786.93 611.53 788.07 612.66 788.07 612.66 786.93"/>
    </g>
    <g id="er" data-name="LINE">
      <line class="mo" x1="612.1" y1="788.07" x2="612.1" y2="789.77"/>
    </g>
    <g id="es" data-name="LWPOLYLINE">
      <polyline class="mo" points="610.68 789.07 610.68 789.77 613.51 789.77 613.51 789.08"/>
    </g>
    <g id="et" data-name="LWPOLYLINE">
      <polyline class="mo" points="735.97 675.53 737.1 675.53 737.1 674.4 735.97 674.4"/>
    </g>
    <g id="eu" data-name="LINE">
      <line class="mo" x1="737.1" y1="674.97" x2="738.8" y2="674.97"/>
    </g>
    <g id="ev" data-name="LWPOLYLINE">
      <polyline class="mo" points="738.1 676.38 738.8 676.38 738.8 673.55 738.11 673.55"/>
    </g>
    <g id="ew" data-name="LWPOLYLINE">
      <polyline class="mo" points="735.97 565.26 737.1 565.26 737.1 564.13 735.97 564.13"/>
    </g>
    <g id="ex" data-name="LINE">
      <line class="mo" x1="737.1" y1="564.7" x2="738.8" y2="564.7"/>
    </g>
    <g id="ey" data-name="LWPOLYLINE">
      <polyline class="mo" points="738.1 566.12 738.8 566.12 738.8 563.28 738.11 563.28"/>
    </g>
    <g id="ez" data-name="LWPOLYLINE">
      <rect class="mo" x="725.77" y="385.55" width="3.4" height="3.4"/>
    </g>
    <g id="fa" data-name="LWPOLYLINE">
      <rect class="mo" x="725.76" y="322.05" width="3.4" height="3.4"/>
    </g>
    <g id="fb" data-name="LWPOLYLINE">
      <rect class="mo" x="161.39" y="534.08" width="3.4" height="3.4"/>
    </g>
    <g id="fc" data-name="LWPOLYLINE">
      <rect class="mo" x="161.39" y="486.46" width="3.4" height="3.4"/>
    </g>
    <g id="fd" data-name="LWPOLYLINE">
      <rect class="mo" x="69.26" y="727.97" width="2.83" height="5.67"/>
    </g>
    <g id="fe" data-name="LWPOLYLINE">
      <rect class="mo" x="721.51" y="388.95" width="5.67" height="2.83"/>
    </g>
    <g id="ff" data-name="LWPOLYLINE">
      <polyline class="mo" points="727.18 390.93 728.32 390.93 728.32 389.8 727.18 389.8"/>
    </g>
    <g id="fg" data-name="LINE">
      <line class="mo" x1="728.32" y1="390.37" x2="730.02" y2="390.37"/>
    </g>
    <g id="fh" data-name="LWPOLYLINE">
      <polyline class="mo" points="729.32 391.78 730.02 391.78 730.02 388.95 729.33 388.95"/>
    </g>
    <g id="fi" data-name="LWPOLYLINE">
      <rect class="mo" x="721.51" y="319.22" width="5.67" height="2.83"/>
    </g>
    <g id="fj" data-name="LWPOLYLINE">
      <polyline class="mo" points="727.18 321.2 728.32 321.2 728.32 320.07 727.18 320.07"/>
    </g>
    <g id="fk" data-name="LINE">
      <line class="mo" x1="728.32" y1="320.63" x2="730.02" y2="320.63"/>
    </g>
    <g id="fl" data-name="LWPOLYLINE">
      <polyline class="mo" points="729.32 322.05 730.02 322.05 730.02 319.22 729.33 319.22"/>
    </g>
    <g id="fm" data-name="LWPOLYLINE">
      <rect class="mo" x="162.8" y="483.63" width="8.5" height="2.83"/>
    </g>
    <g id="fn" data-name="LWPOLYLINE">
      <polyline class="mo" points="162.8 484.48 161.67 484.48 161.67 485.61 162.8 485.61"/>
    </g>
    <g id="fo" data-name="LINE">
      <line class="mo" x1="161.67" y1="485.04" x2="159.97" y2="485.04"/>
    </g>
    <g id="fp" data-name="LWPOLYLINE">
      <polyline class="mo" points="160.67 483.63 159.97 483.63 159.97 486.46 160.66 486.46"/>
    </g>
    <g id="fq" data-name="LWPOLYLINE">
      <rect class="mo" x="162.8" y="537.49" width="8.5" height="2.83"/>
    </g>
    <g id="fr" data-name="LWPOLYLINE">
      <polyline class="mo" points="162.8 538.34 161.67 538.34 161.67 539.47 162.8 539.47"/>
    </g>
    <g id="fs" data-name="LINE">
      <line class="mo" x1="161.67" y1="538.9" x2="159.97" y2="538.9"/>
    </g>
    <g id="ft" data-name="LWPOLYLINE">
      <polyline class="mo" points="160.67 537.49 159.97 537.49 159.97 540.32 160.66 540.32"/>
    </g>
    <g id="fu" data-name="LWPOLYLINE">
      <rect class="mo" x="225.17" y="458.12" width="2.83" height="14.17"/>
    </g>
    <g id="fv" data-name="LWPOLYLINE">
      <polyline class="mo" points="227.15 458.12 227.15 456.98 226.02 456.98 226.02 458.12"/>
    </g>
    <g id="fw" data-name="LINE">
      <line class="mo" x1="226.58" y1="456.98" x2="226.58" y2="455.28"/>
    </g>
    <g id="fx" data-name="LWPOLYLINE">
      <polyline class="mo" points="228 455.98 228 455.28 225.17 455.28 225.17 455.97"/>
    </g>
    <g id="fy" data-name="LWPOLYLINE">
      <rect class="mo" x="279.01" y="458.12" width="2.83" height="14.17"/>
    </g>
    <g id="fz" data-name="LWPOLYLINE">
      <polyline class="mo" points="281 458.12 281 456.98 279.86 456.98 279.86 458.12"/>
    </g>
    <g id="ga" data-name="LINE">
      <line class="mo" x1="280.43" y1="456.98" x2="280.43" y2="455.28"/>
    </g>
    <g id="gb" data-name="LWPOLYLINE">
      <polyline class="mo" points="281.85 455.98 281.85 455.28 279.01 455.28 279.01 455.97"/>
    </g>
    <g id="gc" data-name="LWPOLYLINE">
      <rect class="mo" x="430.95" y="458.12" width="2.83" height="14.17"/>
    </g>
    <g id="gd" data-name="LWPOLYLINE">
      <polyline class="mo" points="432.94 458.12 432.94 456.98 431.8 456.98 431.8 458.12"/>
    </g>
    <g id="ge" data-name="LINE">
      <line class="mo" x1="432.37" y1="456.98" x2="432.37" y2="455.28"/>
    </g>
    <g id="gf" data-name="LWPOLYLINE">
      <polyline class="mo" points="433.79 455.98 433.79 455.28 430.95 455.28 430.95 455.97"/>
    </g>
    <g id="gg" data-name="LWPOLYLINE">
      <rect class="mo" x="447.4" y="388.95" width="5.67" height="2.83"/>
    </g>
    <g id="gh" data-name="LWPOLYLINE">
      <polyline class="mo" points="447.4 390.93 446.27 390.93 446.27 389.8 447.4 389.8"/>
    </g>
    <g id="gi" data-name="LINE">
      <line class="mo" x1="446.27" y1="390.37" x2="444.57" y2="390.37"/>
    </g>
    <g id="gj" data-name="LWPOLYLINE">
      <polyline class="mo" points="445.27 391.78 444.57 391.78 444.57 388.95 445.26 388.95"/>
    </g>
    <g id="gk" data-name="LWPOLYLINE">
      <rect class="mo" x="447.4" y="319.22" width="5.67" height="2.83"/>
    </g>
    <g id="gl" data-name="LWPOLYLINE">
      <polyline class="mo" points="447.4 321.2 446.27 321.2 446.27 320.07 447.4 320.07"/>
    </g>
    <g id="gm" data-name="LINE">
      <line class="mo" x1="446.27" y1="320.63" x2="444.57" y2="320.63"/>
    </g>
    <g id="gn" data-name="LWPOLYLINE">
      <polyline class="mo" points="445.27 322.05 444.57 322.05 444.57 319.22 445.26 319.22"/>
    </g>
    <g id="go" data-name="LWPOLYLINE">
      <rect class="mo" x="637.76" y="781.74" width="2.83" height="5.67" transform="translate(-359.04 618.23) rotate(-41.37)"/>
    </g>
    <g id="gp" data-name="LWPOLYLINE">
      <polyline class="mo" points="640.63 787.08 641.38 787.93 642.23 787.18 641.48 786.33"/>
    </g>
    <g id="gq" data-name="LINE">
      <line class="mo" x1="641.8" y1="787.56" x2="642.92" y2="788.83"/>
    </g>
    <g id="gr" data-name="LWPOLYLINE">
      <polyline class="mo" points="641.4 789.24 641.86 789.77 643.99 787.9 643.53 787.38"/>
    </g>
    <g id="gs" data-name="LWPOLYLINE">
      <rect class="mo" x="732.58" y="698.58" width="2.83" height="5.67" transform="translate(-280.41 660.14) rotate(-41.37)"/>
    </g>
    <g id="gt" data-name="LWPOLYLINE">
      <polyline class="mo" points="735.44 703.91 736.19 704.76 737.04 704.02 736.29 703.16"/>
    </g>
    <g id="gu" data-name="LINE">
      <line class="mo" x1="736.62" y1="704.39" x2="737.74" y2="705.67"/>
    </g>
    <g id="gv" data-name="LWPOLYLINE">
      <polyline class="mo" points="736.21 706.08 736.68 706.6 738.8 704.73 738.35 704.21"/>
    </g>
    <g id="gw" data-name="LINE">
      <line class="mo" x1="275.62" y1="456.7" x2="231.4" y2="456.7"/>
    </g>
    <g id="gx" data-name="LINE">
      <line class="mo" x1="275.62" y1="460.1" x2="231.4" y2="460.1"/>
    </g>
    <g id="gy" data-name="LINE">
      <line class="mo" x1="428.13" y1="456.7" x2="284.69" y2="456.7"/>
    </g>
    <g id="gz" data-name="LINE">
      <line class="mo" x1="428.13" y1="462.37" x2="284.69" y2="462.37"/>
    </g>
    <g id="ha" data-name="LINE">
      <line class="mo" x1="444.57" y1="322.05" x2="444.57" y2="388.95"/>
    </g>
    <g id="hb" data-name="LINE">
      <line class="mo" x1="453.07" y1="388.95" x2="453.07" y2="322.05"/>
    </g>
    <g id="hc" data-name="LINE">
      <line class="mo" x1="301.7" y1="781.26" x2="426.43" y2="781.26"/>
    </g>
    <g id="hd" data-name="LINE">
      <line class="mo" x1="301.7" y1="789.77" x2="426.43" y2="789.77"/>
    </g>
    <g id="he" data-name="LINE">
      <line class="mo" x1="460.44" y1="781.26" x2="610.68" y2="781.26"/>
    </g>
    <g id="hf" data-name="LINE">
      <line class="mo" x1="643.99" y1="787.89" x2="736.67" y2="706.6"/>
    </g>
    <g id="hg" data-name="LINE">
      <line class="mo" x1="730.3" y1="673.55" x2="730.3" y2="566.12"/>
    </g>
    <g id="hh" data-name="LINE">
      <line class="mo" x1="460.44" y1="789.77" x2="610.68" y2="789.77"/>
    </g>
    <g id="hi" data-name="LINE">
      <line class="mo" x1="738.8" y1="566.12" x2="738.8" y2="673.55"/>
    </g>
    <g id="hj" data-name="LINE">
      <line class="mo" x1="729.17" y1="385.55" x2="729.17" y2="325.45"/>
    </g>
    <g id="hk" data-name="LINE">
      <line class="mo" x1="725.76" y1="385.55" x2="725.76" y2="325.45"/>
    </g>
    <g id="hl" data-name="LINE">
      <line class="mo" x1="164.79" y1="534.08" x2="164.79" y2="489.86"/>
    </g>
    <g id="hm" data-name="LINE">
      <line class="mo" x1="161.39" y1="534.08" x2="161.39" y2="489.86"/>
    </g>
    <g id="hn" data-name="LINE">
      <line class="mo" x1="638.37" y1="781.51" x2="731.06" y2="700.22"/>
    </g>
    <g id="ho" data-name="LWPOLYLINE">
      <g>
        <line class="ls" x1="458.74" y1="544.86" x2="458.74" y2="545.86"/>
        <line class="na" x1="458.74" y1="546.86" x2="458.74" y2="594.38"/>
        <polyline class="ls" points="458.74 594.88 458.74 595.88 459.31 595.88 459.31 594.88"/>
        <line class="na" x1="459.31" y1="593.88" x2="459.31" y2="546.36"/>
        <line class="ls" x1="459.31" y1="545.86" x2="459.31" y2="544.86"/>
      </g>
    </g>
    <g id="hp" data-name="ARC">
      <g>
        <path class="ls" d="M458.74,595.88c.33,0,.67,0,1,0"/>
        <path class="mh" d="M460.73,595.84c26.76-1.03,48.24-22.66,49.01-49.49"/>
        <path class="ls" d="M509.75,545.86c0-.33,0-.67,0-1"/>
      </g>
    </g>
    <g id="hq" data-name="LWPOLYLINE">
      <g>
        <polyline class="ls" points="229 456.7 228 456.7 228 455.7"/>
        <line class="na" x1="228" y1="454.7" x2="228" y2="407.18"/>
        <polyline class="ls" points="228 406.67 228 405.67 229 405.67"/>
        <polyline class="ls" points="230.4 405.67 231.4 405.67 231.4 406.67"/>
        <line class="na" x1="231.4" y1="407.68" x2="231.4" y2="455.2"/>
        <polyline class="ls" points="231.4 455.7 231.4 456.7 230.4 456.7"/>
      </g>
    </g>
    <g id="hr" data-name="ARC">
      <g>
        <path class="ls" d="M279.02,456.7c0-.33,0-.67,0-1"/>
        <path class="ms" d="M278.99,454.71c-1.03-26.76-22.66-48.24-49.49-49.01"/>
        <path class="ls" d="M229,405.68c-.33,0-.67,0-1,0"/>
      </g>
    </g>
    <g id="hs" data-name="LWPOLYLINE">
      <g>
        <polyline class="ls" points="160.39 486.46 161.39 486.46 161.39 487.46"/>
        <polyline class="ls" points="161.39 488.86 161.39 489.86 160.39 489.86"/>
        <line class="na" x1="159.39" y1="489.86" x2="111.86" y2="489.86"/>
        <polyline class="ls" points="111.36 489.86 110.36 489.86 110.36 488.86"/>
        <polyline class="ls" points="110.36 487.46 110.36 486.46 111.36 486.46"/>
        <line class="na" x1="112.36" y1="486.46" x2="159.89" y2="486.46"/>
      </g>
    </g>
    <g id="ht" data-name="ARC">
      <g>
        <path class="ls" d="M110.36,486.46c0,.33,0,.67,0,1"/>
        <path class="mh" d="M110.4,488.45c1.03,26.76,22.66,48.24,49.49,49.01"/>
        <path class="ls" d="M160.39,537.48c.33,0,.67,0,1,0"/>
      </g>
    </g>
    <g id="hu" data-name="LWPOLYLINE">
      <g>
        <polyline class="ls" points="682.81 409.93 683.81 409.93 683.81 411.63 682.81 411.63"/>
        <line class="nn" x1="681.82" y1="411.63" x2="620.11" y2="411.63"/>
        <polyline class="ls" points="619.61 411.63 618.61 411.63 618.61 409.93 619.61 409.93"/>
        <line class="nn" x1="620.6" y1="409.93" x2="682.32" y2="409.93"/>
      </g>
    </g>
    <g id="hv" data-name="LWPOLYLINE">
      <g>
        <polyline class="ls" points="682.81 540.32 683.81 540.32 683.81 538.62 682.81 538.62"/>
        <line class="nn" x1="681.82" y1="538.62" x2="620.11" y2="538.62"/>
        <polyline class="ls" points="619.61 538.62 618.61 538.62 618.61 540.32 619.61 540.32"/>
        <line class="nn" x1="620.6" y1="540.32" x2="682.32" y2="540.32"/>
      </g>
    </g>
    <g id="hw" data-name="ARC">
      <g>
        <path class="ls" d="M618.61,409.93c0,.33,0,.67,0,1"/>
        <path class="mw" d="M618.65,411.93c1.04,34.58,29.02,62.4,63.67,63.18"/>
        <path class="ls" d="M682.81,475.12c.33,0,.67,0,1,0"/>
      </g>
    </g>
    <g id="hx" data-name="ARC">
      <g>
        <path class="ls" d="M683.81,475.12c-.33,0-.67,0-1,0"/>
        <path class="mw" d="M681.81,475.15c-34.58,1.04-62.4,29.02-63.18,63.67"/>
        <path class="ls" d="M618.62,539.32c0,.33,0,.67,0,1"/>
      </g>
    </g>
    <g id="hy" data-name="LWPOLYLINE">
      <g>
        <polyline class="ls" points="730.17 325.45 729.17 325.45 729.17 324.45"/>
        <polyline class="ls" points="729.17 323.05 729.17 322.05 730.17 322.05"/>
        <line class="mt" x1="731.18" y1="322.05" x2="794.56" y2="322.05"/>
        <polyline class="ls" points="795.06 322.05 796.06 322.05 796.06 323.05"/>
        <polyline class="ls" points="796.06 324.45 796.06 325.45 795.06 325.45"/>
        <line class="mt" x1="794.05" y1="325.45" x2="730.67" y2="325.45"/>
      </g>
    </g>
    <g id="hz" data-name="ARC">
      <g>
        <path class="ls" d="M729.17,388.95c.33,0,.67,0,1,0"/>
        <path class="ni" d="M731.17,388.92c35.53-1.04,64.1-29.78,64.88-65.38"/>
        <path class="ls" d="M796.06,323.05c0-.33,0-.67,0-1"/>
      </g>
    </g>
    <g id="ia" data-name="LWPOLYLINE">
      <g>
        <polyline class="ls" points="235.8 758.59 234.8 758.59 234.8 756.89 235.8 756.89"/>
        <line class="mi" x1="236.83" y1="756.89" x2="270.14" y2="756.89"/>
        <polyline class="ls" points="270.65 756.89 271.65 756.89 271.65 758.59 270.65 758.59"/>
        <line class="mi" x1="269.63" y1="758.59" x2="236.32" y2="758.59"/>
      </g>
    </g>
    <g id="ib" data-name="ARC">
      <g>
        <path class="ls" d="M271.65,758.59c0-.33,0-.67-.01-1"/>
        <path class="lv" d="M271.6,756.57c-1.02-18.92-16.3-34.04-35.29-34.8"/>
        <path class="ls" d="M235.8,721.75c-.33,0-.67-.01-1-.01"/>
      </g>
    </g>
    <g id="ic" data-name="LWPOLYLINE">
      <g>
        <polyline class="ls" points="72.1 734.64 72.1 733.64 73.8 733.64 73.8 734.64"/>
        <line class="mg" x1="73.8" y1="735.65" x2="73.8" y2="777.49"/>
        <polyline class="ls" points="73.8 778 73.8 779 72.1 779 72.1 778"/>
        <line class="mg" x1="72.1" y1="776.99" x2="72.1" y2="735.15"/>
      </g>
    </g>
    <g id="id" data-name="ARC">
      <g>
        <path class="ls" d="M72.1,779c.33,0,.67,0,1-.01"/>
        <path class="nd" d="M74.08,778.95c23.63-1.02,42.57-20.12,43.34-43.82"/>
        <path class="ls" d="M117.44,734.64c0-.33.01-.67.01-1"/>
      </g>
    </g>
    <g id="ie" data-name="LWPOLYLINE">
      <polyline class="ls" points="233.91 639.46 203.66 631.89 200.76 636.18 199.68 625.88 196.78 630.17 166.54 622.6"/>
    </g>
    <g id="if" data-name="CIRCLE">
      <circle class="ls" cx="279.02" cy="520.48" r="1.42"/>
    </g>
    <g id="ig" data-name="CIRCLE">
      <circle class="ls" cx="673.04" cy="392.92" r="1.42"/>
    </g>
    <g id="ih" data-name="LWPOLYLINE">
      <polyline class="ls" points="673.04 392.92 673.04 356.07 501.83 356.07 501.83 390.08"/>
    </g>
    <g id="ii" data-name="LWPOLYLINE">
      <polyline class="ls" points="505.03 386.88 501.83 390.08 498.62 386.88"/>
    </g>
    <g id="ij" data-name="LWPOLYLINE">
      <polyline class="ls" points="279.02 520.48 196.82 520.48 196.82 621.48"/>
    </g>
    <g id="ik" data-name="LWPOLYLINE">
      <polyline class="ls" points="200.03 618.27 196.82 621.48 193.61 618.27"/>
    </g>
    <g id="il" data-name="LWPOLYLINE">
      <polyline class="ls" points="228.01 472.12 228.01 486.29 171.31 486.46"/>
    </g>
    <g id="im" data-name="LWPOLYLINE">
      <polyline class="ls" points="451.94 540.32 451.94 481.36 433.8 481.36"/>
    </g>
    <g id="in" data-name="LWPOLYLINE">
      <polyline class="ls" points="250.68 579.49 250.68 563 276.19 563 276.19 598.71 250.68 598.71 250.68 582.22"/>
    </g>
    <g id="io" data-name="LWPOLYLINE">
      <rect class="ls" x="240.47" y="686.02" width="34.02" height="32.88"/>
    </g>
    <g id="ip" data-name="LWPOLYLINE">
      <polyline class="ls" points="234.8 758.87 279.02 758.87 279.02 781.26"/>
    </g>
    <g id="iq" data-name="LWPOLYLINE">
      <path class="ls" d="M193.13,782.68h-28.63v-24.38h28.63c6.73,0,12.19,5.46,12.19,12.19s-5.46,12.19-12.19,12.19Z"/>
    </g>
    <g id="ir" data-name="LWPOLYLINE">
      <rect class="ls" x="185.48" y="693.91" width="1.42" height="10.2"/>
    </g>
    <g id="is" data-name="LWPOLYLINE">
      <polyline class="ls" points="186.9 698.3 202.77 698.3 202.77 717.3 169.61 717.3 169.61 698.3 185.48 698.3"/>
    </g>
    <g id="it" data-name="LINE">
      <line class="ls" x1="211.28" y1="718.9" x2="162.8" y2="718.9"/>
    </g>
    <g id="iu" data-name="LWPOLYLINE">
      <path class="ls" d="M255.55,579.49h-9.13v2.72h9.13c.75,0,1.36-.61,1.36-1.36s-.61-1.36-1.36-1.36Z"/>
    </g>
    <g id="iv" data-name="LWPOLYLINE">
      <polyline class="ls" points="453.07 392.92 475.75 392.92 475.75 319.22"/>
    </g>
    <g id="iw" data-name="LWPOLYLINE">
      <polyline class="ls" points="234.8 557.33 279.02 557.33 279.02 718.9 274.49 718.9"/>
    </g>
    <g id="ix" data-name="LINE">
      <line class="ls" x1="240.47" y1="718.9" x2="234.8" y2="718.9"/>
    </g>
    <g id="iy" data-name="LINE">
      <line class="ls" x1="475.75" y1="392.92" x2="697.98" y2="392.92"/>
    </g>
    <g id="iz" data-name="LINE">
      <line class="ls" x1="699.12" y1="391.78" x2="699.12" y2="319.22"/>
    </g>
    <g id="ja" data-name="LWPOLYLINE">
      <rect class="nc" x="279.02" y="472.29" width="11.34" height="11.34"/>
    </g>
    <g id="jb" data-name="LWPOLYLINE">
      <rect class="nc" x="279.7" y="472.97" width="9.98" height="9.98"/>
    </g>
    <g id="jc" data-name="LWPOLYLINE">
      <rect class="nc" x="159.97" y="472.29" width="11.34" height="11.34"/>
    </g>
    <g id="jd" data-name="LWPOLYLINE">
      <rect class="nc" x="160.65" y="472.97" width="9.98" height="9.98"/>
    </g>
    <g id="je" data-name="LWPOLYLINE">
      <polyline class="nc" points="434.93 540.32 433.8 540.32 433.8 575.47 453.07 575.47 453.07 540.32 451.94 540.32"/>
    </g>
    <g id="jf" data-name="LWPOLYLINE">
      <polyline class="nc" points="453.07 781.26 453.07 748.95 433.8 748.95 433.8 781.26"/>
    </g>
    <g id="jg" data-name="LWPOLYLINE">
      <polyline class="nc" points="730.3 558.46 697.98 558.46 697.98 539.19 738.8 539.19"/>
    </g>
    <g id="jh" data-name="LWPOLYLINE">
      <polyline class="nc" points="738.8 391.78 697.98 391.78 697.98 411.06 738.8 411.06"/>
    </g>
    <g id="ji" data-name="LWPOLYLINE">
      <polyline class="nc" points="451.94 409.93 453.07 409.93 453.07 391.78 433.8 391.78 433.8 409.93 434.93 409.93"/>
    </g>
    <g id="jj" data-name="LINE">
      <line class="nc" x1="120.28" y1="733.64" x2="137.29" y2="733.64"/>
    </g>
    <g id="jk" data-name="LINE">
      <line class="nc" x1="120.28" y1="727.97" x2="137.29" y2="727.97"/>
    </g>
    <g id="jl" data-name="LWPOLYLINE">
      <rect class="nc" x="429.26" y="789.77" width="28.35" height="14.17"/>
    </g>
    <g id="jm" data-name="LWPOLYLINE">
      <rect class="nc" x="613.51" y="789.77" width="28.35" height="14.17"/>
    </g>
    <g id="jn" data-name="LWPOLYLINE">
      <rect class="nc" x="270.52" y="789.77" width="28.35" height="14.17"/>
    </g>
    <g id="jo" data-name="LWPOLYLINE">
      <rect class="nc" x="738.8" y="676.38" width="14.17" height="28.35"/>
    </g>
    <g id="jp" data-name="LWPOLYLINE">
      <rect class="nc" x="738.8" y="534.93" width="14.17" height="28.35"/>
    </g>
    <g id="jq" data-name="LWPOLYLINE">
      <rect class="nc" x="738.8" y="389.8" width="14.17" height="22.68"/>
    </g>
    <g id="jr" data-name="LINE">
      <line class="mc" x1="270.52" y1="789.77" x2="159.97" y2="789.77"/>
    </g>
    <g id="js" data-name="LWPOLYLINE">
      <polyline class="mc" points="142.96 789.77 142.96 795.44 270.52 795.44"/>
    </g>
    <g id="jt" data-name="LWPOLYLINE">
      <polyline class="mc" points="165.64 540.32 165.64 686.59 154.3 686.59"/>
    </g>
    <g id="ju" data-name="LINE">
      <line class="me" x1="142.96" y1="574.34" x2="142.96" y2="750.08"/>
    </g>
    <g id="jv" data-name="LINE">
      <line class="me" x1="154.3" y1="574.34" x2="154.3" y2="750.08"/>
    </g>
    <g id="jw" data-name="LWPOLYLINE">
      <polyline class="me" points="225.17 460.95 142.96 460.95 142.96 483.63 154.3 483.63 154.3 472.29 225.17 472.29"/>
    </g>
    <g id="jx" data-name="LWPOLYLINE">
      <polyline class="me" points="437.76 409.93 437.76 478.52 449.1 478.52 449.1 409.93"/>
    </g>
    <g id="jy" data-name="LWPOLYLINE">
      <polygon class="me" points="69.26 803.94 69.26 298.24 456.19 298.24 456.19 305.04 439.18 305.04 439.18 316.38 738.8 316.38 738.8 305.04 467.53 305.04 467.53 298.24 499.56 298.24 499.56 286.9 57.92 286.9 57.92 803.94 69.26 803.94"/>
    </g>
    <g id="jz" data-name="LINE">
      <line class="ne" x1="451.94" y1="409.93" x2="451.94" y2="481.36"/>
    </g>
    <g id="ka" data-name="LWPOLYLINE">
      <rect class="ne" x="216.95" y="691.97" width="12.19" height="20.98"/>
    </g>
    <g id="kb" data-name="LWPOLYLINE">
      <polyline class="ne" points="225.17 455.28 137.29 455.28 137.29 486.46 159.97 486.46"/>
    </g>
    <g id="kc" data-name="LWPOLYLINE">
      <polyline class="ne" points="439.18 316.38 439.18 319.22 738.8 319.22 738.8 316.38"/>
    </g>
    <g id="kd" data-name="LWPOLYLINE">
      <polyline class="ne" points="270.52 798.27 137.29 798.27 137.29 537.49 159.97 537.49"/>
    </g>
    <g id="ke" data-name="LWPOLYLINE">
      <polyline class="ne" points="229.13 761.42 229.13 786.93 162.8 786.93 162.8 692.26 211.28 692.26 211.28 718.9 234.8 718.9 234.8 557.33 222.33 557.33 222.33 686.59 171.31 686.59 171.31 540.32"/>
    </g>
    <g id="kf" data-name="LINE">
      <line class="ne" x1="433.8" y1="409.93" x2="433.8" y2="540.32"/>
    </g>
    <g id="kg" data-name="LWPOLYLINE">
      <polyline class="ne" points="738.8 563.28 730.3 563.28 730.3 557.33"/>
    </g>
    <g id="kh" data-name="LWPOLYLINE">
      <polyline class="ne" points="738.8 676.38 730.3 676.38 730.3 681.34"/>
    </g>
    <g id="ki" data-name="LWPOLYLINE">
      <polyline class="ne" points="613.51 789.77 613.51 781.26 619.18 781.26"/>
    </g>
    <g id="kj" data-name="LWPOLYLINE">
      <polyline class="ne" points="457.61 789.77 457.61 781.26 451.94 781.26"/>
    </g>
    <g id="kk" data-name="LWPOLYLINE">
      <polyline class="ne" points="429.26 789.77 429.26 781.26 434.93 781.26"/>
    </g>
    <g id="kl" data-name="LWPOLYLINE">
      <polyline class="ne" points="298.87 789.77 298.87 781.26 279.02 781.26 279.02 786.93 234.8 786.93 234.8 761.42"/>
    </g>
    <g id="km" data-name="LINE">
      <line class="ne" x1="731.06" y1="700.22" x2="731.06" y2="698.35"/>
    </g>
    <g id="kn" data-name="LINE">
      <line class="ne" x1="638.37" y1="781.51" x2="636.19" y2="781.51"/>
    </g>
    <g id="ko" data-name="LWPOLYLINE">
      <rect class="lw" x="434.93" y="540.32" width="17.01" height="34.02"/>
    </g>
    <g id="kp" data-name="LWPOLYLINE">
      <rect class="lw" x="434.93" y="750.08" width="17.01" height="39.69"/>
    </g>
    <g id="kq" data-name="LWPOLYLINE">
      <rect class="lw" x="619.18" y="750.08" width="17.01" height="39.69"/>
    </g>
    <g id="kr" data-name="LWPOLYLINE">
      <rect class="lw" x="142.96" y="750.08" width="17.01" height="39.69"/>
    </g>
    <g id="ks" data-name="LWPOLYLINE">
      <rect class="lw" x="699.12" y="681.34" width="39.69" height="17.01"/>
    </g>
    <g id="kt" data-name="LWPOLYLINE">
      <rect class="lw" x="699.12" y="540.32" width="39.69" height="17.01"/>
    </g>
    <g id="ku" data-name="LWPOLYLINE">
      <rect class="lw" x="699.12" y="392.92" width="39.69" height="17.01"/>
    </g>
    <g id="kv" data-name="LWPOLYLINE">
      <rect class="lw" x="142.96" y="540.32" width="17.01" height="34.02"/>
    </g>
    <g id="kw" data-name="LWPOLYLINE">
      <rect class="lw" x="434.93" y="392.92" width="17.01" height="17.01"/>
    </g>
    <g id="kx" data-name="HATCH">
      <path class="mj" d="M69.26,302.16h386.93M69.26,338.16h375.31M69.26,374.16h375.31M69.26,410.16h253.98M69.26,446.16h253.98M69.26,482.16h68.03M69.26,518.16h92.13M69.26,554.16h68.03M69.26,590.16h68.03M69.26,626.16h68.03M69.26,662.16h68.03M69.26,698.16h68.03M84.27,731.94v-433.7M120.27,727.97v-429.73M156.27,537.49v-51.02M156.27,455.28v-157.04M192.27,455.28v-157.04M228.27,456.7v-158.46M264.27,456.7v-158.46M300.27,456.7v-158.46M336.27,408.79v-110.55M372.27,408.79v-110.55M408.27,408.79v-110.55M444.27,391.78v-72.57M444.27,305.04v-6.8"/>
    </g>
  </g>
  <g id="lf" data-name="SCALE">
    <polygon class="mm" points="729.08 475.12 738.8 480.74 738.8 469.51 729.08 475.12"/>
    <g>
      <g id="lg" data-name="CIRCLE">
        <circle class="ls" cx="69.24" cy="1074" r="14.88"/>
      </g>
      <g id="lh" data-name="TEXT">
        <path class="mm" d="M78.85,1058.48l-.86-.35-1.27-8.05-2.62,6.47-.84-.34,3.28-8.1.87.35,1.26,8.02,2.61-6.45.84.34-3.28,8.1Z"/>
      </g>
      <g id="li" data-name="HATCH">
        <path class="mb" d="M74.82,1060.21c-.23-.09-.46-.18-.7-.26l-5.57,13.78.69.28,5.58-13.8Z"/>
      </g>
      <g id="lj" data-name="HATCH">
        <path class="mb" d="M75.5,1060.5c-.23-.1-.45-.2-.69-.3l-5.58,13.8.69.28,5.57-13.78Z"/>
      </g>
      <g id="lk" data-name="LINE">
        <line class="ls" x1="74.12" y1="1059.94" x2="68.54" y2="1073.72"/>
      </g>
      <g id="ll" data-name="LINE">
        <line class="ls" x1="75.5" y1="1060.5" x2="69.93" y2="1074.28"/>
      </g>
      <g id="lm" data-name="LINE">
        <line class="ls" x1="69.24" y1="1074" x2="74.82" y2="1060.21"/>
      </g>
      <g id="ln" data-name="MTEXT">
        <path class="mm" d="M52.86,1145.9c-.63-.5-1.13-1.2-1.49-2.1-.36-.9-.54-1.92-.54-3.06s.18-2.14.54-3.04c.36-.9.85-1.59,1.49-2.1.63-.5,1.36-.75,2.17-.75s1.53.25,2.17.75c.63.5,1.13,1.2,1.49,2.1.36.9.54,1.91.54,3.04s-.18,2.16-.54,3.05c-.36.89-.85,1.59-1.49,2.1s-1.36.76-2.17.76-1.53-.25-2.17-.75ZM56.51,1144.86c.44-.41.78-.96,1.02-1.67.24-.71.36-1.52.36-2.44s-.12-1.73-.36-2.45c-.24-.71-.58-1.27-1.02-1.67-.44-.4-.93-.6-1.49-.6s-1.05.2-1.48.6c-.43.4-.77.96-1.02,1.67-.25.71-.37,1.53-.37,2.43s.12,1.75.37,2.46c.25.71.58,1.27,1.02,1.67s.93.61,1.48.61,1.05-.2,1.49-.61Z"/>
      </g>
      <g id="lo" data-name="MTEXT">
        <path class="mm" d="M165.18,1144.72c.19-.17.42-.38.71-.64.93-.85,1.67-1.57,2.24-2.15.57-.58,1.05-1.17,1.44-1.78s.59-1.16.59-1.67c0-.48-.09-.9-.28-1.27s-.45-.66-.78-.86-.71-.31-1.15-.31c-.47,0-.93.16-1.37.48-.44.32-.78.73-1,1.23l-1.2-.51c.3-.7.78-1.28,1.46-1.73.67-.45,1.38-.67,2.11-.67.69,0,1.31.16,1.85.46.54.31.96.74,1.26,1.29.3.55.45,1.18.45,1.9s-.22,1.41-.67,2.14c-.45.73-.98,1.41-1.6,2.04-.62.63-1.42,1.39-2.42,2.27-.49.45-.95.88-1.39,1.3l-.94-.85c.28-.27.51-.49.7-.66ZM164.48,1145.38h7.22v1.18h-7.04l-.18-1.18Z"/>
      </g>
      <g id="lp" data-name="MTEXT">
        <path class="mm" d="M111.84,1146.54h-1.34v-10.08l-1.86,1.2-.67-1.07,2.54-1.62h1.33v11.57Z"/>
      </g>
      <g id="lq" data-name="MTEXT">
        <g>
          <path class="mm" d="M330.05,1139.31c.55-.25,1.08-.38,1.59-.38.77,0,1.45.16,2.06.49.6.33,1.07.78,1.41,1.35s.5,1.24.5,1.98-.17,1.43-.5,2.02-.8,1.05-1.4,1.38-1.29.5-2.07.5c-.6,0-1.16-.12-1.69-.38-.53-.25-.98-.6-1.34-1.05-.37-.45-.62-.95-.74-1.52l1.3-.3c.13.59.42,1.06.89,1.43.46.37.99.55,1.59.55.5,0,.95-.11,1.35-.34.4-.22.71-.54.94-.94.23-.41.34-.86.34-1.36s-.11-.95-.34-1.34c-.23-.39-.54-.69-.94-.91-.4-.22-.85-.33-1.35-.33-.33,0-.68.09-1.04.26-.36.18-.66.4-.9.68l-.99-.86c.34-.38.79-.7,1.34-.95ZM328.37,1140.93l.37-6.03h5.92v1.18h-4.64l-.32,5.04-1.33-.19Z"/>
          <path class="mm" d="M346.78,1140.76c-.29-.34-.67-.5-1.13-.5-.35,0-.66.07-.94.22-.27.14-.49.34-.65.6-.16.26-.24.55-.24.88v4.58h-1.33v-4.45c0-.54-.14-.98-.43-1.32s-.66-.5-1.12-.5c-.34,0-.65.09-.94.26s-.5.42-.66.72c-.15.3-.23.63-.23.98v4.3h-1.33v-7.46h1.33v1.31l-.14-.05c.22-.37.52-.68.9-.91.37-.23.75-.35,1.14-.35.46,0,.9.13,1.32.38.42.26.74.59.95.99.25-.41.59-.74,1.04-.99.45-.26.9-.38,1.36-.38.55,0,1.05.13,1.49.38.44.25.78.59,1.02,1.02.25.43.37.93.37,1.5v4.56h-1.34v-4.45c0-.54-.15-.98-.44-1.32Z"/>
        </g>
      </g>
      <g id="lr" data-name="LWPOLYLINE">
        <polyline class="ls" points="337.82 1130.89 337.82 1113.88 167.74 1113.88 167.74 1130.89 111.05 1130.89 111.05 1113.88 54.35 1113.88 54.35 1130.89"/>
      </g>
    </g>
    <g>
      <g>
        <path class="ml" d="M826.83,1106.96v.56h-10.91v-.56h10.91ZM821.61,1101.01v.62c0,.68-.24,1.31-.72,1.88-.48.57-1.08,1.04-1.8,1.41s-1.44.63-2.16.78l-.28-.55c.63-.1,1.28-.32,1.96-.66s1.26-.76,1.72-1.26c.47-.5.7-1.04.7-1.61v-.62h.57ZM825.74,1100.76v.55h-8.74v-.55h8.74ZM821.69,1107.25v4.72h-.64v-4.72h.64ZM821.72,1101.01v.62c0,.57.23,1.11.7,1.61.47.5,1.04.92,1.73,1.26s1.34.55,1.95.66l-.27.55c-.73-.15-1.45-.41-2.16-.78s-1.31-.84-1.79-1.41c-.48-.57-.72-1.19-.72-1.88v-.62h.56Z"/>
        <path class="ml" d="M831.86,1102.59v1.33c0,.81-.15,1.59-.46,2.34-.31.75-.71,1.41-1.22,1.98s-1.05,1.01-1.64,1.33l-.41-.5c.56-.27,1.08-.67,1.57-1.2s.88-1.14,1.18-1.83c.3-.69.45-1.4.45-2.13v-1.33h.53ZM834.83,1102.09v.55h-6.41v-.55h6.41ZM831.96,1100.08v2.35h-.64v-2.35h.64ZM831.94,1102.59v1.33c0,.67.14,1.33.43,1.99s.67,1.23,1.14,1.74.98.9,1.53,1.18l-.39.5c-.58-.3-1.11-.73-1.6-1.28-.49-.55-.88-1.19-1.18-1.91-.29-.72-.44-1.46-.44-2.23v-1.33h.52ZM837.32,1099.9v12.08h-.64v-12.08h.64ZM839.47,1105.07v.55h-2.31v-.55h2.31Z"/>
        <path class="ml" d="M844.12,1101.16v1.13c0,.7-.15,1.35-.44,1.96s-.7,1.13-1.2,1.58-1.07.78-1.69,1.01l-.34-.52c.57-.21,1.09-.51,1.57-.9s.86-.87,1.15-1.41c.29-.54.43-1.12.43-1.72v-1.13h.52ZM847.1,1100.85v.56h-6.41v-.56h6.41ZM847.98,1107.92c.58.16,1.03.4,1.34.72.31.32.47.7.47,1.15,0,.68-.34,1.21-1.03,1.59s-1.64.57-2.86.57c-.8,0-1.5-.08-2.08-.25-.58-.17-1.03-.42-1.34-.74-.31-.33-.46-.71-.46-1.16s.15-.83.46-1.15c.31-.32.75-.56,1.34-.72.58-.16,1.28-.25,2.08-.25s1.5.08,2.08.25ZM844.19,1108.41c-.49.13-.87.31-1.13.55-.27.23-.4.51-.4.83,0,.49.29.89.88,1.18s1.38.43,2.37.43,1.78-.14,2.37-.43.89-.68.89-1.18c0-.32-.14-.59-.41-.83-.27-.23-.65-.42-1.14-.55-.49-.13-1.06-.2-1.72-.2s-1.22.07-1.71.2ZM844.22,1101.16v1.12c0,.54.14,1.06.41,1.56.27.5.64.94,1.11,1.31.46.37.97.66,1.52.87l-.31.5c-.61-.22-1.16-.55-1.65-.97s-.89-.91-1.18-1.47c-.29-.56-.43-1.16-.43-1.81v-1.12h.53ZM849.68,1099.9v7.36h-.64v-7.36h.64ZM851.6,1103.18v.56h-2.1v-.56h2.1Z"/>
        <path class="ml" d="M857.39,1100.94v10.11h-.48v-10.11h.48Z"/>
        <path class="ml" d="M873.84,1106.23v.53h-10.91v-.53h10.91ZM873.17,1100.84v.53h-9.62v-.53h9.62ZM872.39,1107.73v2.24h-7.39v1.51h-.64v-2.03h7.39v-1.19h-7.43v-.53h8.08ZM872.78,1111.27v.53h-8.43v-.53h8.43ZM871.21,1102.39c.65.27.97.67.97,1.2s-.32.92-.97,1.18c-.65.27-1.58.4-2.81.4s-2.17-.13-2.83-.4c-.65-.27-.98-.66-.98-1.18s.32-.93.97-1.2c.65-.27,1.59-.41,2.82-.41s2.17.13,2.82.41ZM866.09,1102.78c-.55.2-.83.48-.83.83s.27.61.83.8,1.32.29,2.31.29,1.74-.1,2.29-.29.82-.46.82-.8-.28-.63-.83-.83c-.55-.2-1.32-.3-2.3-.3s-1.75.1-2.3.3ZM868.72,1099.64v1.58h-.64v-1.58h.64ZM868.72,1105.03v1.43h-.64v-1.43h.64Z"/>
        <path class="ml" d="M821.78,1119.11v4.07h-4.7v3.51h-.63v-4.09h4.7v-2.94h-4.75v-.56h5.38ZM820.57,1126.33c.87-.07,1.75-.18,2.66-.35l.07.56c-.94.17-1.85.29-2.73.35-.88.07-1.95.1-3.22.1h-.91v-.56h.91c1.28,0,2.35-.03,3.22-.1ZM825.1,1117.9v12.08h-.64v-12.08h.64ZM827.24,1122.87v.57h-2.31v-.57h2.31Z"/>
        <path class="ml" d="M839.11,1124.22v.56h-10.95v-.56h10.95ZM835.81,1118.55c.63.2,1.11.47,1.45.83s.5.78.5,1.25-.17.91-.5,1.26c-.34.36-.82.63-1.45.82-.63.19-1.36.29-2.2.29s-1.56-.1-2.18-.29c-.63-.19-1.11-.46-1.45-.82-.34-.35-.51-.77-.51-1.26s.17-.89.51-1.25.82-.64,1.45-.83c.62-.2,1.35-.29,2.18-.29s1.57.1,2.2.29ZM830.28,1126.2v3.08h-.63v-3.08h.63ZM837.89,1129.09v.59h-8.25v-.59h8.25ZM831.8,1119.06c-.53.15-.94.37-1.23.64-.29.27-.43.59-.43.95s.14.67.43.95c.29.28.7.49,1.23.63.53.14,1.13.22,1.81.22s1.3-.07,1.82-.22c.52-.14.93-.35,1.23-.63s.44-.59.44-.96-.15-.67-.44-.94c-.29-.27-.7-.48-1.23-.64-.52-.15-1.13-.23-1.82-.23s-1.29.08-1.81.23ZM834.04,1124.55v2.94h-.66v-2.94h.66Z"/>
        <path class="ml" d="M844.35,1119.51v2.39c0,.76-.17,1.52-.52,2.28-.35.77-.79,1.45-1.32,2.06s-1.09,1.06-1.66,1.37l-.39-.52c.52-.27,1.04-.69,1.56-1.25.52-.56.94-1.19,1.28-1.9s.5-1.39.5-2.05v-2.39h.55ZM847.51,1119.19v.56h-6.73v-.56h6.73ZM844.43,1119.51v2.39c0,.67.17,1.34.51,2,.34.66.77,1.25,1.29,1.76.52.51,1.06.89,1.61,1.14l-.41.53c-.59-.3-1.15-.73-1.7-1.29-.55-.56-.99-1.2-1.34-1.92s-.52-1.46-.52-2.22v-2.39h.55ZM850.16,1117.9v12.08h-.64v-12.08h.64Z"/>
        <path class="ml" d="M819.97,1144.81c1.27-.05,2.46-.15,3.58-.32l.06.5c-1.17.2-2.37.32-3.61.38-1.24.06-2.6.09-4.07.09l-.14-.59c1.52,0,2.92-.02,4.19-.07ZM823.28,1137.47v.55h-7.29v-.55h7.29ZM821.09,1139.16c.42.18.74.44.97.78.23.34.35.73.35,1.18s-.12.82-.35,1.15c-.23.33-.56.59-.97.77-.42.18-.9.27-1.45.27s-1.03-.09-1.45-.27c-.42-.18-.74-.44-.97-.77-.23-.33-.34-.72-.34-1.15s.11-.84.34-1.18c.23-.34.55-.59.97-.78.42-.18.9-.27,1.45-.27s1.03.09,1.45.27ZM818.08,1139.88c-.4.31-.59.72-.59,1.21s.2.9.59,1.2c.4.31.92.46,1.56.46s1.16-.15,1.56-.46.6-.71.6-1.2-.2-.9-.6-1.21-.92-.47-1.56-.47-1.16.16-1.56.47ZM819.97,1135.89v1.85h-.66v-1.85h.66ZM819.97,1143.14v1.96h-.66v-1.96h.66ZM825.03,1135.9v12.08h-.64v-12.08h.64ZM827.17,1141.19v.57h-2.3v-.57h2.3Z"/>
        <path class="ml" d="M831.89,1137.16v1.13c0,.7-.15,1.35-.44,1.96s-.7,1.13-1.2,1.58-1.07.78-1.69,1.01l-.34-.52c.57-.21,1.09-.51,1.57-.9s.86-.87,1.15-1.41c.29-.54.43-1.12.43-1.72v-1.13h.52ZM834.87,1136.85v.56h-6.41v-.56h6.41ZM835.74,1143.92c.58.16,1.03.4,1.34.72.31.32.47.7.47,1.15,0,.68-.34,1.21-1.03,1.59s-1.64.57-2.86.57c-.8,0-1.5-.08-2.08-.25-.58-.17-1.03-.42-1.34-.74-.31-.33-.46-.71-.46-1.16s.15-.83.46-1.15c.31-.32.75-.56,1.34-.72.58-.16,1.28-.25,2.08-.25s1.5.08,2.08.25ZM831.95,1144.41c-.49.13-.87.31-1.13.55-.27.23-.4.51-.4.83,0,.49.29.89.88,1.18s1.38.43,2.37.43,1.78-.14,2.37-.43.89-.68.89-1.18c0-.32-.14-.59-.41-.83-.27-.23-.65-.42-1.14-.55-.49-.13-1.06-.2-1.72-.2s-1.22.07-1.71.2ZM831.98,1137.16v1.12c0,.54.14,1.06.41,1.56.27.5.64.94,1.11,1.31.46.37.97.66,1.52.87l-.31.5c-.61-.22-1.16-.55-1.65-.97s-.89-.91-1.18-1.47c-.29-.56-.43-1.16-.43-1.81v-1.12h.53ZM837.44,1135.9v7.36h-.64v-7.36h.64ZM839.36,1139.18v.56h-2.1v-.56h2.1Z"/>
        <path class="ml" d="M844.32,1136.31v.92c0,.72-.15,1.4-.46,2.03s-.72,1.19-1.23,1.67c-.51.48-1.08.84-1.69,1.11l-.35-.53c.57-.21,1.1-.54,1.58-.97.49-.43.88-.93,1.17-1.5.29-.57.44-1.17.44-1.8v-.92h.55ZM850.18,1142.93v2.63h-6.96v1.97h-.62v-2.49h6.94v-1.55h-6.99v-.56h7.62ZM850.67,1147.26v.55h-8.06v-.55h8.06ZM844.4,1136.31v.92c0,.59.15,1.16.45,1.7.3.55.7,1.02,1.19,1.42.49.4,1.02.71,1.58.92l-.34.52c-.63-.24-1.2-.59-1.71-1.04-.52-.45-.93-.97-1.24-1.58-.31-.61-.46-1.25-.46-1.95v-.92h.53ZM850.18,1135.9v6.36h-.64v-6.36h.64Z"/>
        <path class="ml" d="M826.89,1161.76v.55h-10.96v-.55h10.96ZM826.16,1155.37v.56h-9.62v-.56h9.62ZM824.15,1157.3c.66.35.99.83.99,1.46s-.33,1.11-.99,1.45c-.66.34-1.58.51-2.76.51s-2.11-.17-2.77-.51-.99-.82-.99-1.45.33-1.11.99-1.46c.66-.34,1.58-.52,2.78-.52s2.11.17,2.77.52ZM819.12,1157.7c-.56.26-.84.62-.84,1.06s.28.79.84,1.05c.56.26,1.32.39,2.27.39s1.69-.13,2.25-.39c.56-.26.83-.61.83-1.05s-.28-.8-.83-1.06c-.56-.26-1.3-.39-2.25-.39s-1.71.13-2.27.39ZM821.69,1153.79v1.95h-.63v-1.95h.63ZM821.69,1162.12v3.88h-.63v-3.88h.63Z"/>
        <path class="ml" d="M831.98,1155.12v1.15c0,.69-.15,1.34-.46,1.96-.3.62-.71,1.16-1.22,1.62-.51.47-1.07.83-1.69,1.08l-.34-.53c.56-.21,1.08-.53,1.56-.95s.87-.91,1.16-1.46.44-1.12.44-1.72v-1.15h.53ZM834.94,1154.9v.56h-6.41v-.56h6.41ZM836.96,1162.15c.69.39,1.04.93,1.04,1.62s-.35,1.22-1.04,1.6c-.69.39-1.65.58-2.88.58s-2.2-.19-2.9-.58c-.7-.39-1.05-.92-1.05-1.6,0-.47.16-.86.47-1.19.31-.33.77-.58,1.36-.76.59-.18,1.3-.27,2.12-.27,1.22,0,2.18.2,2.88.59ZM832.34,1162.29c-.5.14-.88.33-1.16.59-.27.26-.41.55-.41.89s.14.61.41.86c.27.25.66.44,1.16.57.5.13,1.08.2,1.74.2s1.23-.07,1.73-.2c.5-.14.88-.33,1.16-.57.27-.25.41-.53.41-.86s-.14-.63-.41-.89c-.27-.26-.66-.45-1.16-.59-.5-.13-1.08-.2-1.73-.2s-1.24.07-1.74.2ZM832.08,1155.12v1.13c0,.54.14,1.06.42,1.57.28.5.65.95,1.12,1.34.47.39.98.68,1.54.88l-.36.53c-.6-.23-1.14-.57-1.64-1-.49-.43-.89-.94-1.18-1.5s-.44-1.17-.44-1.81v-1.13h.55ZM837.56,1157.19v.56h-3.02v-.56h3.02ZM837.96,1153.9v7.21h-.64v-7.21h.64Z"/>
      </g>
      <g>
        <path class="ml" d="M805.03,1111.05h-.67v-9.35l-1.26.87-.36-.49,1.62-1.13h.67v10.11Z"/>
        <path class="ml" d="M801.92,1127.81c.2-.19.43-.41.68-.65.84-.79,1.51-1.46,2.02-1.99s.95-1.09,1.31-1.67c.36-.58.55-1.12.55-1.61s-.09-.9-.28-1.27-.45-.67-.78-.88-.71-.32-1.13-.32c-.47,0-.91.16-1.34.48-.42.32-.74.73-.96,1.24l-.63-.27c.26-.61.66-1.1,1.2-1.48.54-.38,1.12-.57,1.72-.57.55,0,1.04.13,1.47.39.43.26.77.63,1.02,1.09.25.47.37.99.37,1.58s-.19,1.18-.57,1.81-.84,1.23-1.38,1.79c-.54.56-1.23,1.25-2.09,2.05-.59.55-1.04.98-1.36,1.3l-.48-.39c.23-.24.45-.46.65-.65ZM801.27,1128.46h6.02v.59h-5.94l-.08-.59Z"/>
        <path class="ml" d="M806.95,1142.75c.33.44.5.92.5,1.43,0,.57-.13,1.08-.41,1.53-.27.45-.65.8-1.13,1.06-.48.25-1.03.38-1.65.38s-1.16-.13-1.64-.38c-.48-.25-.86-.6-1.13-1.06-.27-.45-.41-.96-.41-1.53h.67c0,.46.11.87.32,1.23.21.36.51.64.9.84.38.2.81.3,1.29.3s.92-.1,1.3-.29.68-.46.89-.79.31-.72.31-1.16-.1-.8-.31-1.13-.5-.59-.88-.78c-.38-.19-.81-.28-1.28-.28h-.41v-.62h.39c.45,0,.85-.09,1.21-.26.36-.17.64-.41.84-.72.2-.31.3-.66.3-1.05,0-.6-.21-1.09-.64-1.47-.43-.38-.98-.57-1.65-.57-.44,0-.84.09-1.19.27-.35.18-.63.44-.82.77-.19.33-.29.71-.29,1.13h-.67c0-.53.13-1.01.38-1.43s.6-.75,1.05-.99c.45-.24.96-.36,1.54-.36s1.09.12,1.54.36c.45.24.8.57,1.05.99s.38.9.38,1.43c0,.43-.15.85-.45,1.27s-.69.73-1.16.94c.5.19.92.5,1.25.94Z"/>
        <path class="ml" d="M806.13,1161.48h1.64v.6h-1.64v2.97h-.67v-2.97h-4.61l-.1-.62,4.7-6.52h.67v6.54ZM805.46,1161.48v-5.38l-3.88,5.38h3.88Z"/>
      </g>
    </g>
    <path class="ml" d="M562.13,475.12h-.58v-8.02l-1.08.74-.31-.42,1.39-.97h.58v8.66Z"/>
    <path class="ml" d="M465.58,661.91c.17-.16.37-.35.58-.56.72-.68,1.3-1.25,1.73-1.7s.81-.93,1.12-1.43.47-.96.47-1.38-.08-.77-.24-1.09c-.16-.32-.38-.57-.67-.75-.28-.18-.61-.27-.97-.27-.4,0-.78.14-1.15.41-.36.28-.64.63-.82,1.06l-.54-.23c.22-.52.57-.94,1.03-1.27.46-.33.96-.49,1.48-.49.47,0,.89.11,1.26.34s.66.54.87.94c.21.4.32.85.32,1.36s-.16,1.01-.49,1.55c-.33.54-.72,1.05-1.18,1.54-.46.48-1.06,1.07-1.79,1.76-.5.47-.89.84-1.16,1.12l-.41-.34c.2-.21.39-.39.56-.56ZM465.02,662.47h5.16v.5h-5.09l-.07-.5Z"/>
    <path class="ml" d="M198.23,741.44c.28.38.43.78.43,1.22,0,.49-.12.93-.35,1.31-.23.39-.55.69-.97.91-.41.22-.88.32-1.41.32s-1-.11-1.41-.32-.73-.52-.97-.91c-.23-.39-.35-.83-.35-1.31h.58c0,.39.09.74.28,1.05.18.31.44.55.77.72.33.17.7.26,1.1.26s.79-.08,1.12-.25.58-.39.76-.68c.18-.29.27-.62.27-1s-.09-.68-.27-.97c-.18-.28-.43-.51-.76-.67-.32-.16-.69-.24-1.1-.24h-.35v-.53h.34c.38,0,.73-.07,1.04-.22.31-.15.55-.35.72-.62.17-.26.26-.56.26-.9,0-.51-.18-.93-.55-1.26-.37-.33-.84-.49-1.42-.49-.38,0-.72.08-1.02.23-.3.16-.54.38-.7.66-.16.28-.25.61-.25.97h-.58c0-.46.11-.86.32-1.22.22-.36.52-.64.9-.85.38-.2.82-.31,1.32-.31s.94.1,1.32.31c.38.2.68.49.9.85.22.36.32.77.32,1.22,0,.37-.13.73-.38,1.09-.26.36-.59.63-1,.81.43.16.79.43,1.07.8Z"/>
    <path class="ml" d="M201.51,366.42h1.4v.52h-1.4v2.54h-.58v-2.54h-3.95l-.08-.53,4.03-5.59h.58v5.6ZM200.93,366.42v-4.61l-3.32,4.61h3.32Z"/>
    <polygon class="mm" points="103.28 794.22 97.66 803.94 108.89 803.94 103.28 794.22"/>
  </g>
</svg>