<?xml version="1.0" encoding="UTF-8"?>
<svg xmlns="http://www.w3.org/2000/svg" viewBox="0 0 900 1200">
  <defs>
    <style>
      .mm, .mn, .mo, .mp, .mq, .mr, .ms, .mt, .mu, .mv, .mw, .mx, .my, .mz, .na, .nb, .nc, .nd, .ne, .nf, .ng, .nh, .ni, .nj, .nk, .nl, .nm, .nn, .no, .np, .nq, .nr, .ns, .nt, .nu, .nv, .nw, .nx, .ny, .nz, .oa {
        stroke: #000;
      }

      .mm, .mn, .mo, .mp, .mq, .mr, .ms, .mt, .mu, .mv, .my, .mz, .na, .nb, .nc, .nd, .ne, .nf, .ng, .nh, .ni, .nj, .nk, .nl, .nm, .nn, .no, .np, .nq, .nr, .ns, .nt, .nu, .nv, .nw, .nx, .ny, .nz, .oa {
        stroke-miterlimit: 10;
      }

      .mm, .mn, .mo, .mp, .mr, .ms, .mt, .mu, .mv, .my, .mz, .na, .nb, .nc, .nd, .ne, .nf, .ng, .nh, .ni, .nj, .nk, .nl, .nm, .nn, .no, .np, .nq, .nr, .ns, .nt, .nu, .nv, .nw, .nx, .ny, .nz, .oa {
        fill: none;
      }

      .mm, .mq, .mu, .mv, .mx, .ne, .nf, .ni, .nn, .no, .nt, .nu, .nw, .nx {
        stroke-width: .5px;
      }

      .mn {
        stroke-dasharray: 4.52 2.26;
      }

      .mn, .mr, .my, .na, .nd, .nh, .nr {
        stroke-width: .75px;
      }

      .mo {
        stroke-dasharray: 3.07 1.54;
      }

      .mo, .mt, .mz, .nb, .nc, .nj, .nk, .nl, .np, .ns, .nv, .ny, .nz, .oa {
        stroke-width: .4px;
      }

      .mq {
        fill: #040000;
        fill-rule: evenodd;
      }

      .ms {
        stroke-width: .85px;
      }

      .mt {
        stroke-dasharray: 1.03;
      }

      .mu {
        stroke-dasharray: 2.02 1.01;
      }

      .mv {
        stroke-dasharray: 2.02 1.01;
      }

      .mw {
        stroke-width: .34px;
      }

      .my {
        stroke-dasharray: 3.93 1.97;
      }

      .na {
        stroke-dasharray: 4.08 2.04;
      }

      .nb {
        stroke-dasharray: 1.97 .99;
      }

      .nc {
        stroke-dasharray: 1.88 .94;
      }

      .nd {
        stroke-dasharray: 4.52 2.26;
      }

      .ne {
        stroke-dasharray: 2.04 1.02;
      }

      .nf {
        stroke-dasharray: 2.01 1;
      }

      .ng {
        stroke-width: .25px;
      }

      .nh {
        stroke-dasharray: 3.89 1.95;
      }

      .ni {
        stroke-dasharray: 2.04 1.02;
      }

      .nj {
        stroke-dasharray: 1.97 .99;
      }

      .nk {
        stroke-dasharray: 1.99 .99;
      }

      .nl {
        stroke-dasharray: 1.98 .99;
      }

      .nm {
        stroke-width: .6px;
      }

      .nn {
        stroke-dasharray: 1.98 .99;
      }

      .no {
        stroke-dasharray: 1.98 .99;
      }

      .np {
        stroke-dasharray: 2.03 1.01;
      }

      .nq {
        stroke-width: .9px;
      }

      .nr {
        stroke-dasharray: 4.08 2.04;
      }

      .ns {
        stroke-dasharray: 3.04 1.52;
      }

      .nt {
        stroke-dasharray: 1.98 .99;
      }

      .nu {
        stroke-dasharray: 1.98 .99;
      }

      .nv {
        stroke-dasharray: 2.02 1.01;
      }

      .nw {
        stroke-dasharray: 2.07 1.03;
      }

      .nx {
        stroke-dasharray: 1.99 1;
      }

      .ny {
        stroke-dasharray: 3.08 1.54;
      }

      .nz {
        stroke-dasharray: 3.04 1.52;
      }

      .oa {
        stroke-dasharray: 3.03 1.51;
      }
    </style>
  </defs>
  <g id="aq" data-name="f B1">
    <g id="ar" data-name="LWPOLYLINE">
      <polyline class="ng" points="475.75 468.32 520.54 468.32 520.54 467.75 475.75 467.75"/>
    </g>
    <g id="as" data-name="LINE">
      <line class="ng" x1="468.95" y1="454.71" x2="468.95" y2="413.33"/>
    </g>
    <g id="at" data-name="LINE">
      <line class="ng" x1="326.08" y1="482.49" x2="387.87" y2="482.49"/>
    </g>
    <g id="au" data-name="LINE">
      <line class="ng" x1="394.11" y1="534.08" x2="394.11" y2="495.53"/>
    </g>
    <g id="av" data-name="LWPOLYLINE">
      <polyline class="ng" points="467.95 472.29 467.95 481.48 403.75 481.48"/>
    </g>
    <g id="aw" data-name="LWPOLYLINE">
      <polyline class="ng" points="402.9 483.06 469.51 483.06 469.51 471.44"/>
    </g>
    <g id="ax" data-name="CIRCLE">
      <circle class="nl" cx="521.97" cy="597.65" r="11.33"/>
    </g>
    <g id="ay" data-name="CIRCLE">
      <circle class="nl" cx="552.75" cy="626.36" r="11.33"/>
    </g>
    <g id="az" data-name="CIRCLE">
      <circle class="nl" cx="581.46" cy="595.57" r="11.33"/>
    </g>
    <g id="ba" data-name="CIRCLE">
      <circle class="nl" cx="550.68" cy="566.86" r="11.33"/>
    </g>
    <g id="bb" data-name="LINE">
      <g>
        <line class="mz" x1="276" y1="587.38" x2="276" y2="588.38"/>
        <line class="nv" x1="276" y1="589.38" x2="276" y2="721.93"/>
        <line class="mz" x1="276" y1="722.44" x2="276" y2="723.44"/>
      </g>
    </g>
    <g id="bc" data-name="LINE">
      <g>
        <line class="mz" x1="310.01" y1="655.41" x2="309.01" y2="655.41"/>
        <line class="nj" x1="308.03" y1="655.41" x2="243.47" y2="655.41"/>
        <line class="mz" x1="242.98" y1="655.41" x2="241.98" y2="655.41"/>
      </g>
    </g>
    <g id="bd" data-name="LINE">
      <g>
        <line class="mz" x1="310.01" y1="587.38" x2="309.01" y2="587.38"/>
        <line class="nj" x1="308.03" y1="587.38" x2="243.47" y2="587.38"/>
        <line class="mz" x1="242.98" y1="587.38" x2="241.98" y2="587.38"/>
      </g>
    </g>
    <g id="be" data-name="ARC">
      <g>
        <path class="mz" d="M586.23,606.98c.14.32.38.57.67.71"/>
        <path class="mz" d="M587.21,607.81c.27.06.56.04.83-.08.05-.02.09-.04.14-.07"/>
      </g>
    </g>
    <g id="bf" data-name="LINE">
      <line class="mt" x1="585.83" y1="606.03" x2="586.23" y2="606.98"/>
    </g>
    <g id="bg" data-name="ARC">
      <g>
        <path class="mz" d="M588.19,607.66c.29-.16.58-.34.86-.52"/>
        <path class="np" d="M589.87,606.56c5.37-4.1,7.07-11.63,3.68-17.71-1.17-2.1-2.86-3.85-4.9-5.09"/>
        <path class="mz" d="M588.22,583.5c-.29-.16-.59-.31-.89-.46"/>
      </g>
    </g>
    <g id="bh" data-name="ARC">
      <g>
        <path class="mz" d="M587.33,583.04c-.32-.15-.67-.17-.98-.08"/>
        <path class="mz" d="M586.04,583.1c-.24.14-.44.35-.57.62-.02.05-.04.1-.06.14"/>
      </g>
    </g>
    <g id="bi" data-name="LINE">
      <line class="mt" x1="585.09" y1="584.84" x2="585.42" y2="583.86"/>
    </g>
    <g id="bj" data-name="ARC">
      <g>
        <path class="mz" d="M586.23,606.98c.14.32.38.57.67.71"/>
        <path class="mz" d="M587.21,607.81c.27.06.56.04.83-.08.05-.02.09-.04.14-.07"/>
      </g>
    </g>
    <g id="bk" data-name="LINE">
      <line class="mt" x1="585.83" y1="606.03" x2="586.23" y2="606.98"/>
    </g>
    <g id="bl" data-name="ARC">
      <g>
        <path class="mz" d="M587.33,583.04c-.32-.15-.67-.17-.98-.08"/>
        <path class="mz" d="M586.04,583.1c-.24.14-.44.35-.57.62-.02.05-.04.1-.06.14"/>
      </g>
    </g>
    <g id="bm" data-name="LINE">
      <line class="mt" x1="585.09" y1="584.84" x2="585.42" y2="583.86"/>
    </g>
    <g id="bn" data-name="LWPOLYLINE">
      <g>
        <polyline class="mz" points="564.06 584.42 564.02 583.42 563.02 583.45"/>
        <line class="nc" x1="562.08" y1="583.48" x2="539.99" y2="584.25"/>
        <polyline class="mz" points="539.52 584.27 538.52 584.31 538.56 585.31"/>
        <line class="nc" x1="538.59" y1="586.25" x2="539.36" y2="608.33"/>
        <polyline class="mz" points="539.38 608.8 539.41 609.8 540.41 609.77"/>
        <line class="nc" x1="541.35" y1="609.73" x2="563.44" y2="608.96"/>
        <polyline class="mz" points="563.91 608.95 564.91 608.91 564.88 607.91"/>
        <line class="nc" x1="564.84" y1="606.97" x2="564.07" y2="584.89"/>
      </g>
    </g>
    <g id="bo" data-name="ARC">
      <g>
        <path class="mz" d="M516.11,610.18c.32.15.67.17.98.08"/>
        <path class="mz" d="M517.39,610.12c.24-.14.44-.35.57-.62.02-.05.04-.1.06-.14"/>
      </g>
    </g>
    <g id="bp" data-name="LINE">
      <line class="mt" x1="518.35" y1="608.38" x2="518.01" y2="609.36"/>
    </g>
    <g id="bq" data-name="ARC">
      <g>
        <path class="mz" d="M515.25,585.56c-.29.16-.58.34-.86.52"/>
        <path class="np" d="M513.56,586.66c-5.37,4.1-7.07,11.63-3.68,17.71,1.17,2.1,2.86,3.85,4.9,5.09"/>
        <path class="mz" d="M515.22,609.72c.29.16.59.31.89.46"/>
      </g>
    </g>
    <g id="br" data-name="ARC">
      <g>
        <path class="mz" d="M517.21,586.24c-.14-.32-.38-.57-.67-.71"/>
        <path class="mz" d="M516.22,585.41c-.27-.06-.56-.04-.83.08-.05.02-.09.04-.14.07"/>
      </g>
    </g>
    <g id="bs" data-name="LINE">
      <line class="mt" x1="517.61" y1="587.19" x2="517.21" y2="586.24"/>
    </g>
    <g id="bt" data-name="ARC">
      <g>
        <path class="mz" d="M516.11,610.18c.32.15.67.17.98.08"/>
        <path class="mz" d="M517.39,610.12c.24-.14.44-.35.57-.62.02-.05.04-.1.06-.14"/>
      </g>
    </g>
    <g id="bu" data-name="LINE">
      <line class="mt" x1="518.35" y1="608.38" x2="518.01" y2="609.36"/>
    </g>
    <g id="bv" data-name="ARC">
      <g>
        <path class="mz" d="M517.21,586.24c-.14-.32-.38-.57-.67-.71"/>
        <path class="mz" d="M516.22,585.41c-.27-.06-.56-.04-.83.08-.05.02-.09.04-.14.07"/>
      </g>
    </g>
    <g id="bw" data-name="LINE">
      <line class="mt" x1="517.61" y1="587.19" x2="517.21" y2="586.24"/>
    </g>
    <g id="bx" data-name="ARC">
      <g>
        <path class="mz" d="M562.09,562.1c.32-.14.57-.38.71-.67"/>
        <path class="mz" d="M562.91,561.11c.06-.27.04-.56-.08-.83-.02-.05-.04-.09-.07-.14"/>
      </g>
    </g>
    <g id="by" data-name="LINE">
      <line class="mt" x1="561.14" y1="562.5" x2="562.09" y2="562.1"/>
    </g>
    <g id="bz" data-name="ARC">
      <g>
        <path class="mz" d="M562.77,560.14c-.16-.29-.34-.58-.52-.86"/>
        <path class="np" d="M561.67,558.46c-4.1-5.37-11.63-7.07-17.71-3.68-2.1,1.17-3.85,2.86-5.09,4.9"/>
        <path class="mz" d="M538.61,560.11c-.16.29-.31.59-.46.89"/>
      </g>
    </g>
    <g id="ca" data-name="ARC">
      <g>
        <path class="mz" d="M538.15,561c-.15.32-.17.67-.08.98"/>
        <path class="mz" d="M538.2,562.28c.14.24.35.44.62.57.05.02.1.04.14.06"/>
      </g>
    </g>
    <g id="cb" data-name="LINE">
      <line class="mt" x1="539.95" y1="563.24" x2="538.97" y2="562.91"/>
    </g>
    <g id="cc" data-name="ARC">
      <g>
        <path class="mz" d="M562.09,562.1c.32-.14.57-.38.71-.67"/>
        <path class="mz" d="M562.91,561.11c.06-.27.04-.56-.08-.83-.02-.05-.04-.09-.07-.14"/>
      </g>
    </g>
    <g id="cd" data-name="LINE">
      <line class="mt" x1="561.14" y1="562.5" x2="562.09" y2="562.1"/>
    </g>
    <g id="ce" data-name="ARC">
      <g>
        <path class="mz" d="M538.15,561c-.15.32-.17.67-.08.98"/>
        <path class="mz" d="M538.2,562.28c.14.24.35.44.62.57.05.02.1.04.14.06"/>
      </g>
    </g>
    <g id="cf" data-name="LINE">
      <line class="mt" x1="539.95" y1="563.24" x2="538.97" y2="562.91"/>
    </g>
    <g id="cg" data-name="ARC">
      <g>
        <path class="mz" d="M565.28,632.22c.15-.32.17-.67.08-.98"/>
        <path class="mz" d="M565.23,630.94c-.14-.24-.35-.44-.62-.57-.05-.02-.1-.04-.14-.06"/>
      </g>
    </g>
    <g id="ch" data-name="LINE">
      <line class="mt" x1="563.49" y1="629.98" x2="564.47" y2="630.31"/>
    </g>
    <g id="ci" data-name="ARC">
      <g>
        <path class="mz" d="M540.66,633.08c.16.29.34.58.52.86"/>
        <path class="np" d="M541.77,634.76c4.1,5.37,11.63,7.07,17.71,3.68,2.1-1.17,3.85-2.86,5.09-4.9"/>
        <path class="mz" d="M564.83,633.11c.16-.29.31-.59.46-.89"/>
      </g>
    </g>
    <g id="cj" data-name="ARC">
      <g>
        <path class="mz" d="M541.34,631.12c-.32.14-.57.38-.71.67"/>
        <path class="mz" d="M540.52,632.1c-.06.27-.04.56.08.83.02.05.04.09.07.14"/>
      </g>
    </g>
    <g id="ck" data-name="LINE">
      <line class="mt" x1="542.3" y1="630.72" x2="541.34" y2="631.12"/>
    </g>
    <g id="cl" data-name="ARC">
      <g>
        <path class="mz" d="M565.28,632.22c.15-.32.17-.67.08-.98"/>
        <path class="mz" d="M565.23,630.94c-.14-.24-.35-.44-.62-.57-.05-.02-.1-.04-.14-.06"/>
      </g>
    </g>
    <g id="cm" data-name="LINE">
      <line class="mt" x1="563.49" y1="629.98" x2="564.47" y2="630.31"/>
    </g>
    <g id="cn" data-name="ARC">
      <g>
        <path class="mz" d="M541.34,631.12c-.32.14-.57.38-.71.67"/>
        <path class="mz" d="M540.52,632.1c-.06.27-.04.56.08.83.02.05.04.09.07.14"/>
      </g>
    </g>
    <g id="co" data-name="LINE">
      <line class="mt" x1="542.3" y1="630.72" x2="541.34" y2="631.12"/>
    </g>
    <g id="cp" data-name="CIRCLE">
      <circle class="nl" cx="617.68" cy="669.03" r="11.33"/>
    </g>
    <g id="cq" data-name="CIRCLE">
      <circle class="nl" cx="655.96" cy="686.54" r="11.33"/>
    </g>
    <g id="cr" data-name="CIRCLE">
      <path class="nl" d="M684.8,648.27c0-6.26-5.07-11.33-11.33-11.33s-11.33,5.07-11.33,11.33,5.07,11.33,11.33,11.33,11.33-5.07,11.33-11.33Z"/>
    </g>
    <g id="cs" data-name="CIRCLE">
      <path class="nl" d="M646.52,630.76c0-6.26-5.07-11.33-11.33-11.33s-11.33,5.07-11.33,11.33,5.07,11.33,11.33,11.33,11.33-5.07,11.33-11.33Z"/>
    </g>
    <g id="ct" data-name="ARC">
      <g>
        <path class="mz" d="M681.59,657.59c.23.27.54.42.86.46"/>
        <path class="mz" d="M682.79,658.06c.27-.03.54-.14.77-.33.04-.03.08-.07.11-.11"/>
      </g>
    </g>
    <g id="cu" data-name="LINE">
      <line class="mt" x1="680.91" y1="656.81" x2="681.59" y2="657.59"/>
    </g>
    <g id="cv" data-name="ARC">
      <g>
        <path class="mz" d="M683.67,657.61c.23-.25.44-.5.65-.76"/>
        <path class="np" d="M684.92,656.04c3.8-5.59,3.03-13.27-2.1-17.97-1.77-1.62-3.93-2.75-6.25-3.29"/>
        <path class="mz" d="M676.06,634.68c-.33-.06-.66-.11-.99-.15"/>
      </g>
    </g>
    <g id="cw" data-name="ARC">
      <g>
        <path class="mz" d="M675.07,634.53c-.35-.04-.68.05-.95.24"/>
        <path class="mz" d="M673.87,634.98c-.18.21-.31.47-.34.76,0,.05,0,.1,0,.16"/>
      </g>
    </g>
    <g id="cx" data-name="LINE">
      <line class="mt" x1="673.52" y1="636.94" x2="673.52" y2="635.9"/>
    </g>
    <g id="cy" data-name="ARC">
      <g>
        <path class="mz" d="M681.59,657.59c.23.27.54.42.86.46"/>
        <path class="mz" d="M682.79,658.06c.27-.03.54-.14.77-.33.04-.03.08-.07.11-.11"/>
      </g>
    </g>
    <g id="cz" data-name="LINE">
      <line class="mt" x1="680.91" y1="656.81" x2="681.59" y2="657.59"/>
    </g>
    <g id="da" data-name="ARC">
      <g>
        <path class="mz" d="M675.07,634.53c-.35-.04-.68.05-.95.24"/>
        <path class="mz" d="M673.87,634.98c-.18.21-.31.47-.34.76,0,.05,0,.1,0,.16"/>
      </g>
    </g>
    <g id="db" data-name="LINE">
      <line class="mt" x1="673.52" y1="636.94" x2="673.52" y2="635.9"/>
    </g>
    <g id="dc" data-name="LWPOLYLINE">
      <g>
        <path class="mz" d="M653.43,643.18c-.22-.6-.35-.93-.35-.93l-.94.35"/>
        <line class="nc" x1="651.26" y1="642.92" x2="630.55" y2="650.63"/>
        <polyline class="mz" points="630.11 650.8 629.17 651.15 629.52 652.08"/>
        <line class="nc" x1="629.85" y1="652.96" x2="637.56" y2="673.68"/>
        <polyline class="mz" points="637.72 674.12 638.07 675.05 639.01 674.71"/>
        <line class="nc" x1="639.89" y1="674.38" x2="660.6" y2="666.67"/>
        <path class="mz" d="M661.04,666.5l.94-.35s-.13-.34-.35-.93"/>
        <path class="nc" d="M661.3,664.34c-1.71-4.6-6.19-16.64-7.71-20.72"/>
      </g>
    </g>
    <g id="dd" data-name="ARC">
      <g>
        <path class="mz" d="M616.07,682.77c.35.04.68-.05.95-.24"/>
        <path class="mz" d="M617.27,682.32c.18-.21.31-.47.34-.76,0-.05,0-.1,0-.16"/>
      </g>
    </g>
    <g id="de" data-name="LINE">
      <line class="mt" x1="617.63" y1="680.36" x2="617.63" y2="681.4"/>
    </g>
    <g id="df" data-name="ARC">
      <g>
        <path class="mz" d="M607.48,659.69c-.23.25-.44.5-.65.76"/>
        <path class="np" d="M606.23,661.26c-3.8,5.59-3.03,13.27,2.1,17.97,1.77,1.62,3.93,2.75,6.25,3.29"/>
        <path class="mz" d="M615.08,682.62c.33.06.66.11.99.15"/>
      </g>
    </g>
    <g id="dg" data-name="ARC">
      <g>
        <path class="mz" d="M609.55,659.71c-.23-.27-.54-.42-.86-.46"/>
        <path class="mz" d="M608.36,659.24c-.27.03-.54.14-.77.33-.04.03-.08.07-.11.11"/>
      </g>
    </g>
    <g id="dh" data-name="LINE">
      <line class="mt" x1="610.23" y1="660.49" x2="609.55" y2="659.71"/>
    </g>
    <g id="di" data-name="ARC">
      <g>
        <path class="mz" d="M616.07,682.77c.35.04.68-.05.95-.24"/>
        <path class="mz" d="M617.27,682.32c.18-.21.31-.47.34-.76,0-.05,0-.1,0-.16"/>
      </g>
    </g>
    <g id="dj" data-name="LINE">
      <line class="mt" x1="617.63" y1="680.36" x2="617.63" y2="681.4"/>
    </g>
    <g id="dk" data-name="ARC">
      <g>
        <path class="mz" d="M609.55,659.71c-.23-.27-.54-.42-.86-.46"/>
        <path class="mz" d="M608.36,659.24c-.27.03-.54.14-.77.33-.04.03-.08.07-.11.11"/>
      </g>
    </g>
    <g id="dl" data-name="LINE">
      <line class="mt" x1="610.23" y1="660.49" x2="609.55" y2="659.71"/>
    </g>
    <g id="dm" data-name="ARC">
      <g>
        <path class="mz" d="M644.51,622.63c.27-.23.42-.54.46-.86"/>
        <path class="mz" d="M644.98,621.44c-.03-.27-.14-.54-.33-.77-.03-.04-.07-.08-.11-.11"/>
      </g>
    </g>
    <g id="dn" data-name="LINE">
      <line class="mt" x1="643.73" y1="623.31" x2="644.51" y2="622.63"/>
    </g>
    <g id="do" data-name="ARC">
      <g>
        <path class="mz" d="M644.54,620.56c-.25-.23-.5-.44-.76-.65"/>
        <path class="np" d="M642.96,619.31c-5.59-3.8-13.27-3.03-17.97,2.1-1.62,1.77-2.75,3.93-3.29,6.25"/>
        <path class="mz" d="M621.6,628.16c-.06.33-.11.66-.15.99"/>
      </g>
    </g>
    <g id="dp" data-name="ARC">
      <g>
        <path class="mz" d="M621.45,629.15c-.04.35.05.68.24.95"/>
        <path class="mz" d="M621.91,630.35c.21.18.47.31.76.34.05,0,.1,0,.16,0"/>
      </g>
    </g>
    <g id="dq" data-name="LINE">
      <line class="mt" x1="623.86" y1="630.71" x2="622.82" y2="630.7"/>
    </g>
    <g id="dr" data-name="ARC">
      <g>
        <path class="mz" d="M644.51,622.63c.27-.23.42-.54.46-.86"/>
        <path class="mz" d="M644.98,621.44c-.03-.27-.14-.54-.33-.77-.03-.04-.07-.08-.11-.11"/>
      </g>
    </g>
    <g id="ds" data-name="LINE">
      <line class="mt" x1="643.73" y1="623.31" x2="644.51" y2="622.63"/>
    </g>
    <g id="dt" data-name="ARC">
      <g>
        <path class="mz" d="M621.45,629.15c-.04.35.05.68.24.95"/>
        <path class="mz" d="M621.91,630.35c.21.18.47.31.76.34.05,0,.1,0,.16,0"/>
      </g>
    </g>
    <g id="du" data-name="LINE">
      <line class="mt" x1="623.86" y1="630.71" x2="622.82" y2="630.7"/>
    </g>
    <g id="dv" data-name="ARC">
      <g>
        <path class="mz" d="M669.7,688.15c.04-.35-.05-.68-.24-.95"/>
        <path class="mz" d="M669.24,686.95c-.21-.18-.47-.31-.76-.34-.05,0-.1,0-.16,0"/>
      </g>
    </g>
    <g id="dw" data-name="LINE">
      <line class="mt" x1="667.29" y1="686.59" x2="668.32" y2="686.6"/>
    </g>
    <g id="dx" data-name="ARC">
      <g>
        <path class="mz" d="M646.61,696.74c.25.23.5.44.76.65"/>
        <path class="np" d="M648.19,697.99c5.59,3.8,13.27,3.03,17.97-2.1,1.62-1.77,2.75-3.93,3.29-6.25"/>
        <path class="mz" d="M669.54,689.14c.06-.33.11-.66.15-.99"/>
      </g>
    </g>
    <g id="dy" data-name="ARC">
      <g>
        <path class="mz" d="M646.63,694.67c-.27.23-.42.54-.46.86"/>
        <path class="mz" d="M646.16,695.86c.03.27.14.54.33.77.03.04.07.08.11.11"/>
      </g>
    </g>
    <g id="dz" data-name="LINE">
      <line class="mt" x1="647.41" y1="693.99" x2="646.63" y2="694.67"/>
    </g>
    <g id="ea" data-name="ARC">
      <g>
        <path class="mz" d="M669.7,688.15c.04-.35-.05-.68-.24-.95"/>
        <path class="mz" d="M669.24,686.95c-.21-.18-.47-.31-.76-.34-.05,0-.1,0-.16,0"/>
      </g>
    </g>
    <g id="eb" data-name="LINE">
      <line class="mt" x1="667.29" y1="686.59" x2="668.32" y2="686.6"/>
    </g>
    <g id="ec" data-name="ARC">
      <g>
        <path class="mz" d="M646.63,694.67c-.27.23-.42.54-.46.86"/>
        <path class="mz" d="M646.16,695.86c.03.27.14.54.33.77.03.04.07.08.11.11"/>
      </g>
    </g>
    <g id="ed" data-name="LINE">
      <line class="mt" x1="647.41" y1="693.99" x2="646.63" y2="694.67"/>
    </g>
    <g id="ee" data-name="LWPOLYLINE">
      <g>
        <polyline class="mz" points="263.24 550.66 263.24 551.66 264.24 551.66"/>
        <line class="nc" x1="265.18" y1="551.66" x2="287.28" y2="551.66"/>
        <path class="mz" d="M287.75,551.66h1v-1"/>
        <path class="nb" d="M288.75,549.68v-15.03c0-7.04-5.71-12.76-12.76-12.76s-12.76,5.71-12.76,12.76v15.51"/>
      </g>
    </g>
    <g id="ef" data-name="LWPOLYLINE">
      <g>
        <polyline class="mz" points="239.28 583.12 240.28 583.12 240.28 582.12"/>
        <line class="nc" x1="240.28" y1="581.18" x2="240.28" y2="559.08"/>
        <polyline class="mz" points="240.28 558.61 240.28 557.61 239.28 557.61"/>
        <path class="nb" d="M238.29,557.61h-15.02c-7.04,0-12.76,5.71-12.76,12.76s5.71,12.76,12.76,12.76h15.51"/>
      </g>
    </g>
    <g id="eg" data-name="LWPOLYLINE">
      <g>
        <polyline class="mz" points="312.71 557.61 311.71 557.61 311.71 558.61"/>
        <line class="nc" x1="311.71" y1="559.55" x2="311.71" y2="581.65"/>
        <polyline class="mz" points="311.71 582.12 311.71 583.12 312.71 583.12"/>
        <path class="nb" d="M313.7,583.12h15.02c7.04,0,12.76-5.71,12.76-12.76s-5.71-12.76-12.76-12.76h-15.51"/>
      </g>
    </g>
    <g id="eh" data-name="LWPOLYLINE">
      <g>
        <polyline class="mz" points="239.28 617.14 240.28 617.14 240.28 616.14"/>
        <line class="nc" x1="240.28" y1="615.2" x2="240.28" y2="593.1"/>
        <polyline class="mz" points="240.28 592.63 240.28 591.63 239.28 591.63"/>
        <path class="nb" d="M238.29,591.63h-15.02c-7.04,0-12.76,5.71-12.76,12.76s5.71,12.76,12.76,12.76h15.51"/>
      </g>
    </g>
    <g id="ei" data-name="LWPOLYLINE">
      <g>
        <polyline class="mz" points="312.71 591.63 311.71 591.63 311.71 592.63"/>
        <line class="nc" x1="311.71" y1="593.57" x2="311.71" y2="615.67"/>
        <polyline class="mz" points="311.71 616.14 311.71 617.14 312.71 617.14"/>
        <path class="nb" d="M313.7,617.14h15.02c7.04,0,12.76-5.71,12.76-12.76s-5.71-12.76-12.76-12.76h-15.51"/>
      </g>
    </g>
    <g id="ej" data-name="LWPOLYLINE">
      <g>
        <polyline class="mz" points="239.28 651.15 240.28 651.15 240.28 650.15"/>
        <line class="nc" x1="240.28" y1="649.21" x2="240.28" y2="627.11"/>
        <polyline class="mz" points="240.28 626.64 240.28 625.64 239.28 625.64"/>
        <path class="nb" d="M238.29,625.64h-15.02c-7.04,0-12.76,5.71-12.76,12.76s5.71,12.76,12.76,12.76h15.51"/>
      </g>
    </g>
    <g id="ek" data-name="LWPOLYLINE">
      <g>
        <polyline class="mz" points="312.71 625.64 311.71 625.64 311.71 626.64"/>
        <line class="nc" x1="311.71" y1="627.58" x2="311.71" y2="649.68"/>
        <polyline class="mz" points="311.71 650.15 311.71 651.15 312.71 651.15"/>
        <path class="nb" d="M313.7,651.15h15.02c7.04,0,12.76-5.71,12.76-12.76s-5.71-12.76-12.76-12.76h-15.51"/>
      </g>
    </g>
    <g id="el" data-name="LWPOLYLINE">
      <g>
        <polyline class="mz" points="239.28 685.17 240.28 685.17 240.28 684.17"/>
        <line class="nc" x1="240.28" y1="683.23" x2="240.28" y2="661.13"/>
        <polyline class="mz" points="240.28 660.66 240.28 659.66 239.28 659.66"/>
        <path class="nb" d="M238.29,659.66h-15.02c-7.04,0-12.76,5.71-12.76,12.76s5.71,12.76,12.76,12.76h15.51"/>
      </g>
    </g>
    <g id="em" data-name="LWPOLYLINE">
      <g>
        <polyline class="mz" points="312.71 659.66 311.71 659.66 311.71 660.66"/>
        <line class="nc" x1="311.71" y1="661.6" x2="311.71" y2="683.7"/>
        <polyline class="mz" points="311.71 684.17 311.71 685.17 312.71 685.17"/>
        <path class="nb" d="M313.7,685.17h15.02c7.04,0,12.76-5.71,12.76-12.76s-5.71-12.76-12.76-12.76h-15.51"/>
      </g>
    </g>
    <g id="en" data-name="LWPOLYLINE">
      <g>
        <polyline class="mz" points="239.28 719.19 240.28 719.19 240.28 718.19"/>
        <line class="nc" x1="240.28" y1="717.25" x2="240.28" y2="695.14"/>
        <polyline class="mz" points="240.28 694.67 240.28 693.67 239.28 693.67"/>
        <path class="nb" d="M238.29,693.67h-15.02c-7.04,0-12.76,5.71-12.76,12.76s5.71,12.76,12.76,12.76h15.51"/>
      </g>
    </g>
    <g id="eo" data-name="LWPOLYLINE">
      <g>
        <polyline class="mz" points="312.71 693.67 311.71 693.67 311.71 694.67"/>
        <line class="nc" x1="311.71" y1="695.61" x2="311.71" y2="717.72"/>
        <polyline class="mz" points="311.71 718.19 311.71 719.19 312.71 719.19"/>
        <path class="nb" d="M313.7,719.19h15.02c7.04,0,12.76-5.71,12.76-12.76s-5.71-12.76-12.76-12.76h-15.51"/>
      </g>
    </g>
    <g id="ep" data-name="LWPOLYLINE">
      <g>
        <polyline class="mz" points="310.01 722.44 310.01 723.44 309.01 723.44"/>
        <line class="nj" x1="308.03" y1="723.44" x2="243.47" y2="723.44"/>
        <polyline class="mz" points="242.98 723.44 241.98 723.44 241.98 722.44"/>
        <line class="nk" x1="241.98" y1="721.44" x2="241.98" y2="554.86"/>
        <polyline class="mz" points="241.98 554.36 241.98 553.36 242.98 553.36"/>
        <line class="nj" x1="243.97" y1="553.36" x2="308.52" y2="553.36"/>
        <polyline class="mz" points="309.01 553.36 310.01 553.36 310.01 554.36"/>
        <line class="nk" x1="310.01" y1="555.35" x2="310.01" y2="721.94"/>
      </g>
    </g>
    <g id="eq" data-name="CIRCLE">
      <path class="nl" d="M568.73,711.02c0-6.26-5.07-11.33-11.33-11.33s-11.33,5.07-11.33,11.33,5.07,11.33,11.33,11.33,11.33-5.07,11.33-11.33Z"/>
    </g>
    <g id="er" data-name="CIRCLE">
      <path class="nl" d="M543.86,677.06c0-6.26-5.07-11.33-11.33-11.33s-11.33,5.07-11.33,11.33,5.07,11.33,11.33,11.33,11.33-5.07,11.33-11.33Z"/>
    </g>
    <g id="es" data-name="CIRCLE">
      <path class="nl" d="M509.9,701.93c0-6.26-5.07-11.33-11.33-11.33s-11.33,5.07-11.33,11.33,5.07,11.33,11.33,11.33,11.33-5.07,11.33-11.33Z"/>
    </g>
    <g id="et" data-name="CIRCLE">
      <path class="nl" d="M534.77,735.89c0-6.26-5.07-11.33-11.33-11.33s-11.33,5.07-11.33,11.33,5.07,11.33,11.33,11.33,11.33-5.07,11.33-11.33Z"/>
    </g>
    <g id="eu" data-name="ARC">
      <g>
        <path class="mz" d="M496.02,689.83c-.07-.34-.27-.63-.53-.83"/>
        <path class="mz" d="M495.21,688.84c-.25-.11-.54-.14-.83-.08-.05.01-.1.02-.15.04"/>
      </g>
    </g>
    <g id="ev" data-name="LINE">
      <line class="mt" x1="496.24" y1="690.85" x2="496.02" y2="689.83"/>
    </g>
    <g id="ew" data-name="ARC">
      <g>
        <path class="mz" d="M494.22,688.8c-.32.11-.63.22-.94.35"/>
        <path class="np" d="M492.36,689.57c-6.05,3.02-9.11,10.1-6.93,16.71.75,2.28,2.09,4.32,3.86,5.92"/>
        <path class="mz" d="M489.68,712.53c.25.21.52.42.79.61"/>
      </g>
    </g>
    <g id="ex" data-name="ARC">
      <g>
        <path class="mz" d="M490.47,713.15c.29.21.62.29.95.26"/>
        <path class="mz" d="M491.74,713.33c.26-.09.5-.26.67-.5.03-.04.06-.09.08-.13"/>
      </g>
    </g>
    <g id="ey" data-name="LINE">
      <line class="mt" x1="493" y1="711.8" x2="492.49" y2="712.7"/>
    </g>
    <g id="ez" data-name="ARC">
      <g>
        <path class="mz" d="M496.02,689.83c-.07-.34-.27-.63-.53-.83"/>
        <path class="mz" d="M495.21,688.84c-.25-.11-.54-.14-.83-.08-.05.01-.1.02-.15.04"/>
      </g>
    </g>
    <g id="fa" data-name="LINE">
      <line class="mt" x1="496.24" y1="690.85" x2="496.02" y2="689.83"/>
    </g>
    <g id="fb" data-name="ARC">
      <g>
        <path class="mz" d="M490.47,713.15c.29.21.62.29.95.26"/>
        <path class="mz" d="M491.74,713.33c.26-.09.5-.26.67-.5.03-.04.06-.09.08-.13"/>
      </g>
    </g>
    <g id="fc" data-name="LINE">
      <line class="mt" x1="493" y1="711.8" x2="492.49" y2="712.7"/>
    </g>
    <g id="fd" data-name="LWPOLYLINE">
      <g>
        <polyline class="mz" points="513.58 716.15 513.43 717.14 514.42 717.29"/>
        <line class="nc" x1="515.35" y1="717.43" x2="537.19" y2="720.8"/>
        <polyline class="mz" points="537.66 720.88 538.64 721.03 538.8 720.04"/>
        <line class="nc" x1="538.94" y1="719.11" x2="542.31" y2="697.27"/>
        <polyline class="mz" points="542.38 696.8 542.54 695.82 541.55 695.66"/>
        <line class="nc" x1="540.62" y1="695.52" x2="518.78" y2="692.15"/>
        <polyline class="mz" points="518.31 692.08 517.32 691.92 517.17 692.91"/>
        <line class="nc" x1="517.03" y1="693.84" x2="513.66" y2="715.68"/>
      </g>
    </g>
    <g id="fe" data-name="ARC">
      <g>
        <path class="mz" d="M565.5,699.8c-.29-.21-.62-.29-.95-.26"/>
        <path class="mz" d="M564.23,699.62c-.26.09-.5.26-.67.5-.03.04-.06.09-.08.13"/>
      </g>
    </g>
    <g id="ff" data-name="LINE">
      <line class="mt" x1="562.97" y1="701.15" x2="563.48" y2="700.25"/>
    </g>
    <g id="fg" data-name="ARC">
      <g>
        <path class="mz" d="M561.74,724.15c.32-.11.63-.22.94-.35"/>
        <path class="np" d="M563.6,723.38c6.05-3.02,9.11-10.1,6.93-16.71-.75-2.28-2.09-4.32-3.86-5.92"/>
        <path class="mz" d="M566.29,700.42c-.25-.21-.52-.42-.79-.61"/>
      </g>
    </g>
    <g id="fh" data-name="ARC">
      <g>
        <path class="mz" d="M559.95,723.12c.07.34.27.63.53.83"/>
        <path class="mz" d="M560.76,724.11c.25.11.54.14.83.08.05-.01.1-.02.15-.04"/>
      </g>
    </g>
    <g id="fi" data-name="LINE">
      <line class="mt" x1="559.73" y1="722.1" x2="559.95" y2="723.12"/>
    </g>
    <g id="fj" data-name="ARC">
      <g>
        <path class="mz" d="M565.5,699.8c-.29-.21-.62-.29-.95-.26"/>
        <path class="mz" d="M564.23,699.62c-.26.09-.5.26-.67.5-.03.04-.06.09-.08.13"/>
      </g>
    </g>
    <g id="fk" data-name="LINE">
      <line class="mt" x1="562.97" y1="701.15" x2="563.48" y2="700.25"/>
    </g>
    <g id="fl" data-name="ARC">
      <g>
        <path class="mz" d="M559.95,723.12c.07.34.27.63.53.83"/>
        <path class="mz" d="M560.76,724.11c.25.11.54.14.83.08.05-.01.1-.02.15-.04"/>
      </g>
    </g>
    <g id="fm" data-name="LINE">
      <line class="mt" x1="559.73" y1="722.1" x2="559.95" y2="723.12"/>
    </g>
    <g id="fn" data-name="ARC">
      <g>
        <path class="mz" d="M511.34,738.44c-.34.07-.63.27-.83.53"/>
        <path class="mz" d="M510.35,739.25c-.11.25-.14.54-.08.83.01.05.02.1.04.15"/>
      </g>
    </g>
    <g id="fo" data-name="LINE">
      <line class="mt" x1="512.36" y1="738.22" x2="511.34" y2="738.44"/>
    </g>
    <g id="fp" data-name="ARC">
      <g>
        <path class="mz" d="M510.31,740.24c.11.32.22.63.35.94"/>
        <path class="np" d="M511.08,742.1c3.02,6.05,10.1,9.11,16.71,6.93,2.28-.75,4.32-2.09,5.92-3.86"/>
        <path class="mz" d="M534.04,744.78c.21-.25.42-.52.61-.79"/>
      </g>
    </g>
    <g id="fq" data-name="ARC">
      <g>
        <path class="mz" d="M534.66,743.99c.21-.29.29-.62.26-.95"/>
        <path class="mz" d="M534.84,742.72c-.09-.26-.26-.5-.5-.67-.04-.03-.09-.06-.13-.08"/>
      </g>
    </g>
    <g id="fr" data-name="LINE">
      <line class="mt" x1="533.31" y1="741.46" x2="534.21" y2="741.97"/>
    </g>
    <g id="fs" data-name="ARC">
      <g>
        <path class="mz" d="M511.34,738.44c-.34.07-.63.27-.83.53"/>
        <path class="mz" d="M510.35,739.25c-.11.25-.14.54-.08.83.01.05.02.1.04.15"/>
      </g>
    </g>
    <g id="ft" data-name="LINE">
      <line class="mt" x1="512.36" y1="738.22" x2="511.34" y2="738.44"/>
    </g>
    <g id="fu" data-name="ARC">
      <g>
        <path class="mz" d="M534.66,743.99c.21-.29.29-.62.26-.95"/>
        <path class="mz" d="M534.84,742.72c-.09-.26-.26-.5-.5-.67-.04-.03-.09-.06-.13-.08"/>
      </g>
    </g>
    <g id="fv" data-name="LINE">
      <line class="mt" x1="533.31" y1="741.46" x2="534.21" y2="741.97"/>
    </g>
    <g id="fw" data-name="ARC">
      <g>
        <path class="mz" d="M521.31,668.96c-.21.29-.29.62-.26.95"/>
        <path class="mz" d="M521.13,670.23c.09.26.26.5.5.67.04.03.09.06.13.08"/>
      </g>
    </g>
    <g id="fx" data-name="LINE">
      <line class="mt" x1="522.66" y1="671.49" x2="521.76" y2="670.98"/>
    </g>
    <g id="fy" data-name="ARC">
      <g>
        <path class="mz" d="M545.66,672.72c-.11-.32-.22-.63-.35-.94"/>
        <path class="np" d="M544.89,670.86c-3.02-6.05-10.1-9.11-16.71-6.93-2.28.75-4.32,2.09-5.92,3.86"/>
        <path class="mz" d="M521.93,668.17c-.21.25-.42.52-.61.79"/>
      </g>
    </g>
    <g id="fz" data-name="ARC">
      <g>
        <path class="mz" d="M544.63,674.51c.34-.07.63-.27.83-.53"/>
        <path class="mz" d="M545.62,673.7c.11-.25.14-.54.08-.83-.01-.05-.02-.1-.04-.15"/>
      </g>
    </g>
    <g id="ga" data-name="LINE">
      <line class="mt" x1="543.61" y1="674.73" x2="544.63" y2="674.51"/>
    </g>
    <g id="gb" data-name="ARC">
      <g>
        <path class="mz" d="M521.31,668.96c-.21.29-.29.62-.26.95"/>
        <path class="mz" d="M521.13,670.23c.09.26.26.5.5.67.04.03.09.06.13.08"/>
      </g>
    </g>
    <g id="gc" data-name="LINE">
      <line class="mt" x1="522.66" y1="671.49" x2="521.76" y2="670.98"/>
    </g>
    <g id="gd" data-name="ARC">
      <g>
        <path class="mz" d="M544.63,674.51c.34-.07.63-.27.83-.53"/>
        <path class="mz" d="M545.62,673.7c.11-.25.14-.54.08-.83-.01-.05-.02-.1-.04-.15"/>
      </g>
    </g>
    <g id="ge" data-name="LINE">
      <line class="mt" x1="543.61" y1="674.73" x2="544.63" y2="674.51"/>
    </g>
    <g id="gf" data-name="LINE">
      <line class="mz" x1="603.02" y1="319.22" x2="603.02" y2="356.07"/>
    </g>
    <g id="gg" data-name="LINE">
      <line class="mz" x1="588" y1="319.22" x2="588" y2="392.92"/>
    </g>
    <g id="gh" data-name="LINE">
      <line class="mz" x1="572.98" y1="319.22" x2="572.98" y2="392.92"/>
    </g>
    <g id="gi" data-name="LINE">
      <line class="mz" x1="557.95" y1="319.22" x2="557.95" y2="392.92"/>
    </g>
    <g id="gj" data-name="LINE">
      <line class="mz" x1="542.93" y1="319.22" x2="542.93" y2="392.92"/>
    </g>
    <g id="gk" data-name="LINE">
      <line class="mz" x1="527.91" y1="319.22" x2="527.91" y2="392.92"/>
    </g>
    <g id="gl" data-name="LINE">
      <line class="mz" x1="475.75" y1="319.22" x2="527.91" y2="392.92"/>
    </g>
    <g id="gm" data-name="LINE">
      <line class="mz" x1="475.75" y1="392.92" x2="520.54" y2="392.92"/>
    </g>
    <g id="gn" data-name="LINE">
      <line class="mz" x1="475.75" y1="407.94" x2="520.54" y2="407.94"/>
    </g>
    <g id="go" data-name="LINE">
      <line class="mz" x1="475.75" y1="422.97" x2="520.54" y2="422.97"/>
    </g>
    <g id="gp" data-name="LINE">
      <line class="mz" x1="475.75" y1="437.99" x2="520.54" y2="437.99"/>
    </g>
    <g id="gq" data-name="LINE">
      <g>
        <line class="mz" x1="648.1" y1="319.22" x2="648.1" y2="320.72"/>
        <line class="mo" x1="648.1" y1="322.25" x2="648.1" y2="390.65"/>
        <line class="mz" x1="648.1" y1="391.42" x2="648.1" y2="392.92"/>
      </g>
    </g>
    <g id="gr" data-name="LINE">
      <g>
        <line class="mz" x1="633.07" y1="319.22" x2="633.07" y2="320.72"/>
        <line class="mo" x1="633.07" y1="322.25" x2="633.07" y2="390.65"/>
        <line class="mz" x1="633.07" y1="391.42" x2="633.07" y2="392.92"/>
      </g>
    </g>
    <g id="gs" data-name="LINE">
      <g>
        <line class="mz" x1="618.05" y1="319.22" x2="618.05" y2="320.72"/>
        <line class="mo" x1="618.05" y1="322.25" x2="618.05" y2="390.65"/>
        <line class="mz" x1="618.05" y1="391.42" x2="618.05" y2="392.92"/>
      </g>
    </g>
    <g id="gt" data-name="LINE">
      <g>
        <line class="mz" x1="699.12" y1="319.22" x2="699.12" y2="320.72"/>
        <line class="mo" x1="699.12" y1="322.25" x2="699.12" y2="390.65"/>
        <line class="mz" x1="699.12" y1="391.42" x2="699.12" y2="392.92"/>
      </g>
    </g>
    <g id="gu" data-name="LINE">
      <g>
        <line class="mz" x1="603.02" y1="356.07" x2="603.02" y2="357.57"/>
        <line class="ny" x1="603.02" y1="359.11" x2="603.02" y2="390.65"/>
        <line class="mz" x1="603.02" y1="391.42" x2="603.02" y2="392.92"/>
      </g>
    </g>
    <g id="gv" data-name="LWPOLYLINE">
      <g>
        <line class="mz" x1="324.38" y1="409.93" x2="324.38" y2="411.43"/>
        <line class="oa" x1="324.38" y1="412.94" x2="324.38" y2="453.02"/>
        <polyline class="mz" points="324.38 453.78 324.38 455.28 325.88 455.28"/>
        <line class="ns" x1="327.4" y1="455.28" x2="431.54" y2="455.28"/>
        <polyline class="mz" points="432.3 455.28 433.8 455.28 433.8 453.78"/>
        <line class="oa" x1="433.8" y1="452.27" x2="433.8" y2="412.18"/>
        <line class="mz" x1="433.8" y1="411.43" x2="433.8" y2="409.93"/>
      </g>
    </g>
    <g id="gw" data-name="LINE">
      <g>
        <line class="mz" x1="433.8" y1="455.28" x2="432.41" y2="454.71"/>
        <line class="nz" x1="431.01" y1="454.12" x2="326.47" y2="410.79"/>
        <line class="mz" x1="325.76" y1="410.5" x2="324.38" y2="409.93"/>
      </g>
    </g>
    <g id="gx" data-name="LINE">
      <g>
        <line class="mz" x1="433.8" y1="409.93" x2="432.41" y2="410.5"/>
        <line class="nz" x1="431.01" y1="411.08" x2="326.47" y2="454.42"/>
        <line class="mz" x1="325.76" y1="454.71" x2="324.38" y2="455.28"/>
      </g>
    </g>
    <g id="gy" data-name="LWPOLYLINE">
      <rect class="mz" x="467.24" y="409.93" width="3.4" height="3.4"/>
    </g>
    <g id="gz" data-name="LWPOLYLINE">
      <rect class="mz" x="475.75" y="466.62" width="8.5" height="2.83"/>
    </g>
    <g id="ha" data-name="LWPOLYLINE">
      <rect class="mz" x="467.24" y="454.71" width="3.4" height="3.4"/>
    </g>
    <g id="hb" data-name="LWPOLYLINE">
      <rect class="mz" x="324.38" y="480.79" width="1.7" height="5.67"/>
    </g>
    <g id="hc" data-name="LWPOLYLINE">
      <rect class="mz" x="387.87" y="480.79" width="1.7" height="5.67"/>
    </g>
    <g id="hd" data-name="LWPOLYLINE">
      <rect class="mz" x="392.41" y="489.3" width="5.67" height="2.83"/>
    </g>
    <g id="he" data-name="LWPOLYLINE">
      <rect class="mz" x="392.41" y="537.49" width="5.67" height="2.83"/>
    </g>
    <g id="hf" data-name="LWPOLYLINE">
      <rect class="mz" x="392.41" y="492.13" width="3.4" height="3.4"/>
    </g>
    <g id="hg" data-name="LWPOLYLINE">
      <rect class="mz" x="392.41" y="534.08" width="3.4" height="3.4"/>
    </g>
    <g id="hh" data-name="LWPOLYLINE">
      <rect class="mz" x="603.87" y="483.63" width="2.83" height="5.67"/>
    </g>
    <g id="hi" data-name="LWPOLYLINE">
      <rect class="mz" x="646.39" y="483.63" width="2.83" height="5.67"/>
    </g>
    <g id="hj" data-name="LWPOLYLINE">
      <rect class="mz" x="606.71" y="483.63" width="39.69" height="1.7"/>
    </g>
    <g id="hk" data-name="LWPOLYLINE">
      <rect class="mz" x="551.72" y="443.94" width="5.67" height="2.83"/>
    </g>
    <g id="hl" data-name="LWPOLYLINE">
      <rect class="mz" x="551.72" y="480.79" width="5.67" height="2.83"/>
    </g>
    <g id="hm" data-name="LWPOLYLINE">
      <rect class="mz" x="555.69" y="446.78" width="1.7" height="34.02"/>
    </g>
    <g id="hn" data-name="LWPOLYLINE">
      <rect class="mz" x="658.87" y="443.94" width="5.67" height="2.83"/>
    </g>
    <g id="ho" data-name="LWPOLYLINE">
      <rect class="mz" x="658.87" y="480.79" width="5.67" height="2.83"/>
    </g>
    <g id="hp" data-name="LWPOLYLINE">
      <rect class="mz" x="662.84" y="446.78" width="1.7" height="34.02"/>
    </g>
    <g id="hq" data-name="LWPOLYLINE">
      <rect class="mz" x="470.08" y="469.45" width="5.67" height="2.83"/>
    </g>
    <g id="hr" data-name="LWPOLYLINE">
      <polyline class="mz" points="470.08 471.44 468.95 471.44 468.95 470.3 470.08 470.3"/>
    </g>
    <g id="hs" data-name="LINE">
      <line class="mz" x1="468.95" y1="470.87" x2="467.24" y2="470.87"/>
    </g>
    <g id="ht" data-name="LWPOLYLINE">
      <polyline class="mz" points="467.95 472.29 467.24 472.29 467.24 469.45 467.94 469.45"/>
    </g>
    <g id="hu" data-name="LWPOLYLINE">
      <rect class="mz" x="400.91" y="483.63" width="2.83" height="5.67"/>
    </g>
    <g id="hv" data-name="LWPOLYLINE">
      <polyline class="mz" points="401.76 483.63 401.76 482.49 402.9 482.49 402.9 483.63"/>
    </g>
    <g id="hw" data-name="LINE">
      <line class="mz" x1="402.33" y1="482.49" x2="402.33" y2="480.79"/>
    </g>
    <g id="hx" data-name="LWPOLYLINE">
      <polyline class="mz" points="400.91 481.49 400.91 480.79 403.75 480.79 403.75 481.48"/>
    </g>
    <g id="hy" data-name="LWPOLYLINE">
      <rect class="mz" x="389.58" y="483.63" width="2.83" height="5.67"/>
    </g>
    <g id="hz" data-name="LWPOLYLINE">
      <polyline class="mz" points="390.43 483.63 390.43 482.49 391.56 482.49 391.56 483.63"/>
    </g>
    <g id="ia" data-name="LINE">
      <line class="mz" x1="390.99" y1="482.49" x2="390.99" y2="480.79"/>
    </g>
    <g id="ib" data-name="LWPOLYLINE">
      <polyline class="mz" points="389.58 481.49 389.58 480.79 392.41 480.79 392.41 481.48"/>
    </g>
    <g id="ic" data-name="LWPOLYLINE">
      <rect class="mz" x="321.54" y="483.63" width="2.83" height="5.67"/>
    </g>
    <g id="id" data-name="LWPOLYLINE">
      <polyline class="mz" points="322.39 483.63 322.39 482.49 323.53 482.49 323.53 483.63"/>
    </g>
    <g id="ie" data-name="LINE">
      <line class="mz" x1="322.96" y1="482.49" x2="322.96" y2="480.79"/>
    </g>
    <g id="if" data-name="LWPOLYLINE">
      <polyline class="mz" points="321.54 481.49 321.54 480.79 324.38 480.79 324.38 481.48"/>
    </g>
    <g id="ig" data-name="LWPOLYLINE">
      <rect class="mz" x="470.08" y="458.12" width="5.67" height="2.83"/>
    </g>
    <g id="ih" data-name="LWPOLYLINE">
      <polyline class="mz" points="470.08 460.1 468.95 460.1 468.95 458.97 470.08 458.97"/>
    </g>
    <g id="ii" data-name="LINE">
      <line class="mz" x1="468.95" y1="459.53" x2="467.24" y2="459.53"/>
    </g>
    <g id="ij" data-name="LWPOLYLINE">
      <polyline class="mz" points="467.95 460.95 467.24 460.95 467.24 458.12 467.94 458.12"/>
    </g>
    <g id="ik" data-name="LWPOLYLINE">
      <rect class="mz" x="470.08" y="407.09" width="5.67" height="2.83"/>
    </g>
    <g id="il" data-name="LWPOLYLINE">
      <polyline class="mz" points="470.08 409.08 468.95 409.08 468.95 407.94 470.08 407.94"/>
    </g>
    <g id="im" data-name="LINE">
      <line class="mz" x1="468.95" y1="408.51" x2="467.24" y2="408.51"/>
    </g>
    <g id="in" data-name="LWPOLYLINE">
      <polyline class="mz" points="467.95 409.93 467.24 409.93 467.24 407.09 467.94 407.09"/>
    </g>
    <g id="io" data-name="LINE">
      <line class="mz" x1="326.08" y1="480.79" x2="387.87" y2="480.79"/>
    </g>
    <g id="ip" data-name="LINE">
      <line class="mz" x1="326.08" y1="486.46" x2="387.87" y2="486.46"/>
    </g>
    <g id="iq" data-name="LINE">
      <line class="mz" x1="467.24" y1="454.71" x2="467.24" y2="413.33"/>
    </g>
    <g id="ir" data-name="LINE">
      <line class="mz" x1="470.65" y1="413.33" x2="470.65" y2="454.71"/>
    </g>
    <g id="is" data-name="LINE">
      <line class="mz" x1="392.41" y1="534.08" x2="392.41" y2="495.53"/>
    </g>
    <g id="it" data-name="LINE">
      <line class="mz" x1="395.81" y1="495.53" x2="395.81" y2="534.08"/>
    </g>
    <g id="iu" data-name="LWPOLYLINE">
      <polyline class="mz" points="403.75 480.79 467.24 480.79 467.24 472.29"/>
    </g>
    <g id="iv" data-name="LWPOLYLINE">
      <polyline class="mz" points="403.75 489.3 475.75 489.3 475.75 472.29"/>
    </g>
    <g id="iw" data-name="LWPOLYLINE">
      <g>
        <polyline class="mm" points="466.24 409.93 467.24 409.93 467.24 410.93"/>
        <polyline class="mm" points="467.24 412.33 467.24 413.33 466.24 413.33"/>
        <line class="nf" x1="465.24" y1="413.33" x2="420.56" y2="413.33"/>
        <polyline class="mm" points="420.06 413.33 419.06 413.33 419.06 412.33"/>
        <polyline class="mm" points="419.06 410.93 419.06 409.93 420.06 409.93"/>
        <line class="nf" x1="421.06" y1="409.93" x2="465.74" y2="409.93"/>
      </g>
    </g>
    <g id="ix" data-name="ARC">
      <g>
        <path class="mm" d="M419.06,409.93c0,.33,0,.67.01,1"/>
        <path class="mv" d="M419.1,411.94c1.03,25.18,21.39,45.38,46.64,46.16"/>
        <path class="mm" d="M466.24,458.1c.33,0,.67.01,1,.01"/>
      </g>
    </g>
    <g id="iy" data-name="LWPOLYLINE">
      <g>
        <line class="mm" x1="475.75" y1="468.32" x2="475.75" y2="469.32"/>
        <line class="nx" x1="475.75" y1="470.31" x2="475.75" y2="511.61"/>
        <polyline class="mm" points="475.75 512.11 475.75 513.11 476.32 513.11 476.32 512.11"/>
        <line class="nx" x1="476.32" y1="511.11" x2="476.32" y2="469.82"/>
        <line class="mm" x1="476.32" y1="469.32" x2="476.32" y2="468.32"/>
      </g>
    </g>
    <g id="iz" data-name="ARC">
      <g>
        <path class="mm" d="M475.75,513.11c.33,0,.67,0,1-.01"/>
        <path class="ni" d="M477.77,513.06c23.3-1.03,41.97-19.87,42.74-43.23"/>
        <path class="mm" d="M520.53,469.32c0-.33.01-.67.01-1"/>
      </g>
    </g>
    <g id="ja" data-name="LWPOLYLINE">
      <g>
        <polyline class="mm" points="391.41 492.13 392.41 492.13 392.41 493.13"/>
        <polyline class="mm" points="392.41 494.53 392.41 495.53 391.41 495.53"/>
        <line class="mu" x1="390.4" y1="495.53" x2="348.56" y2="495.53"/>
        <polyline class="mm" points="348.06 495.53 347.06 495.53 347.06 494.53"/>
        <polyline class="mm" points="347.06 493.13 347.06 492.13 348.06 492.13"/>
        <line class="mu" x1="349.06" y1="492.13" x2="390.91" y2="492.13"/>
      </g>
    </g>
    <g id="jb" data-name="ARC">
      <g>
        <path class="mm" d="M347.06,492.13c0,.33,0,.67.01,1"/>
        <path class="no" d="M347.1,494.12c1.02,23.63,20.12,42.57,43.82,43.34"/>
        <path class="mm" d="M391.41,537.47c.33,0,.67.01,1,.01"/>
      </g>
    </g>
    <g id="jc" data-name="LWPOLYLINE">
      <g>
        <path class="mm" d="M646.39,482.63v1h-1.7v-1"/>
        <line class="ne" x1="644.69" y1="481.61" x2="644.69" y2="445.45"/>
        <path class="mm" d="M644.69,444.94v-1h1.7v1"/>
        <path class="ne" d="M646.39,445.95v36.17"/>
      </g>
    </g>
    <g id="jd" data-name="LWPOLYLINE">
      <g>
        <polyline class="mm" points="557.89 479.93 557.39 480.79 555.91 479.94 556.41 479.08"/>
        <line class="nw" x1="556.93" y1="478.18" x2="572.16" y2="451.8"/>
        <polyline class="mm" points="572.42 451.35 572.92 450.48 574.39 451.33 573.89 452.2"/>
        <line class="nw" x1="573.38" y1="453.09" x2="558.14" y2="479.48"/>
      </g>
    </g>
    <g id="je" data-name="ARC">
      <g>
        <path class="mm" d="M574.39,451.33c-.29-.17-.58-.33-.88-.49"/>
        <path class="nt" d="M572.64,450.39c-4.28-2.15-8.98-3.37-13.77-3.58"/>
        <path class="mm" d="M558.39,446.79c-.33-.01-.67-.01-1-.01"/>
      </g>
    </g>
    <g id="jf" data-name="ARC">
      <g>
        <path class="mm" d="M646.39,443.94c-.33,0-.67,0-1,.01"/>
        <path class="nn" d="M644.41,443.99c-20.5,1.01-36.91,17.58-37.67,38.14"/>
        <path class="mm" d="M606.72,482.63c0,.33-.01.67-.01,1"/>
      </g>
    </g>
    <g id="jg" data-name="LWPOLYLINE">
      <g>
        <polyline class="mm" points="665.54 480.79 664.54 480.79 664.54 479.09 665.54 479.09"/>
        <line class="nw" x1="666.57" y1="479.09" x2="697.04" y2="479.09"/>
        <polyline class="mm" points="697.55 479.09 698.55 479.09 698.55 480.79 697.55 480.79"/>
        <line class="nw" x1="696.52" y1="480.79" x2="666.05" y2="480.79"/>
      </g>
    </g>
    <g id="jh" data-name="ARC">
      <g>
        <path class="mm" d="M698.55,480.79c0-.33,0-.67-.01-1"/>
        <path class="nu" d="M698.49,478.8c-1-17.37-15.03-31.24-32.46-32"/>
        <path class="mm" d="M665.54,446.79c-.33,0-.67-.01-1-.01"/>
      </g>
    </g>
    <g id="ji" data-name="LWPOLYLINE">
      <polyline class="mm" points="614.9 308.63 603.88 352.63 608.18 355.53 597.87 356.6 602.16 359.51 591.15 403.5"/>
    </g>
    <g id="jj" data-name="CIRCLE">
      <circle class="mm" cx="498.14" cy="437.99" r="1.42"/>
    </g>
    <g id="jk" data-name="LWPOLYLINE">
      <polyline class="mm" points="592.54 356.07 501.83 356.07 498.14 358.68 498.14 437.99"/>
    </g>
    <g id="jl" data-name="LWPOLYLINE">
      <polyline class="mm" points="589.33 352.86 592.54 356.07 589.33 359.27"/>
    </g>
    <g id="jm" data-name="LWPOLYLINE">
      <polyline class="mm" points="398.08 710.4 434.93 710.4 434.93 750.08"/>
    </g>
    <g id="jn" data-name="LINE">
      <line class="mm" x1="398.08" y1="540.32" x2="434.93" y2="540.32"/>
    </g>
    <g id="jo" data-name="LWPOLYLINE">
      <polyline class="mm" points="406.58 606.87 406.58 590.37 432.1 590.37 432.1 626.09 406.58 626.09 406.58 609.59"/>
    </g>
    <g id="jp" data-name="LWPOLYLINE">
      <path class="mm" d="M569.01,440.26v-28.63h24.38v28.63c0,6.73-5.46,12.19-12.19,12.19s-12.19-5.46-12.19-12.19Z"/>
    </g>
    <g id="jq" data-name="LWPOLYLINE">
      <rect class="mm" x="625.42" y="411.49" width="2.27" height="8.5"/>
    </g>
    <g id="jr" data-name="LWPOLYLINE">
      <path class="mm" d="M609.54,409.93v22.82c0,.63.51,1.13,1.13,1.13h31.75c.63,0,1.13-.51,1.13-1.13v-22.82"/>
    </g>
    <g id="js" data-name="LWPOLYLINE">
      <polyline class="mm" points="625.42 415.74 613.51 415.74 613.51 432.75 639.59 432.75 639.59 415.74 627.69 415.74"/>
    </g>
    <g id="jt" data-name="LWPOLYLINE">
      <path class="mm" d="M411.46,606.87h-9.13v2.72h9.13c.75,0,1.36-.61,1.36-1.36s-.61-1.36-1.36-1.36Z"/>
    </g>
    <g id="ju" data-name="LINE">
      <line class="mm" x1="321.54" y1="489.3" x2="392.41" y2="489.3"/>
    </g>
    <g id="jv" data-name="LINE">
      <line class="mm" x1="475.75" y1="409.93" x2="475.75" y2="458.12"/>
    </g>
    <g id="jw" data-name="LINE">
      <line class="mm" x1="434.93" y1="574.34" x2="434.93" y2="710.4"/>
    </g>
    <g id="jx" data-name="LWPOLYLINE">
      <rect class="nm" x="392.41" y="480.79" width="8.5" height="8.5"/>
    </g>
    <g id="jy" data-name="LWPOLYLINE">
      <rect class="nm" x="467.24" y="460.95" width="8.5" height="8.5"/>
    </g>
    <g id="jz" data-name="LINE">
      <line class="ms" x1="619.18" y1="769.93" x2="451.94" y2="769.93"/>
    </g>
    <g id="ka" data-name="LINE">
      <line class="ms" x1="619.18" y1="775.6" x2="451.94" y2="775.6"/>
    </g>
    <g id="kb" data-name="LINE">
      <line class="ms" x1="434.93" y1="775.6" x2="162.8" y2="775.6"/>
    </g>
    <g id="kc" data-name="LINE">
      <line class="ms" x1="718.96" y1="682.05" x2="718.96" y2="557.33"/>
    </g>
    <g id="kd" data-name="LINE">
      <line class="ms" x1="724.63" y1="682.05" x2="724.63" y2="557.33"/>
    </g>
    <g id="ke" data-name="LINE">
      <line class="ms" x1="157.14" y1="574.34" x2="157.14" y2="750.08"/>
    </g>
    <g id="kf" data-name="LINE">
      <line class="ms" x1="718.96" y1="540.32" x2="718.96" y2="407.09"/>
    </g>
    <g id="kg" data-name="LINE">
      <line class="ms" x1="724.63" y1="540.32" x2="724.63" y2="407.09"/>
    </g>
    <g id="kh" data-name="LINE">
      <line class="ms" x1="636.19" y1="765.82" x2="712" y2="699.06"/>
    </g>
    <g id="ki" data-name="LINE">
      <line class="ms" x1="636.19" y1="773.38" x2="720.58" y2="699.06"/>
    </g>
    <g id="kj" data-name="LWPOLYLINE">
      <line class="ms" x1="162.8" y1="574.34" x2="162.8" y2="750.08"/>
    </g>
    <g id="kk" data-name="LWPOLYLINE">
      <polyline class="ms" points="162.8 540.32 162.81 489.3 321.54 489.3"/>
    </g>
    <g id="kl" data-name="LWPOLYLINE">
      <polyline class="ms" points="157.14 540.32 157.14 483.63 321.54 483.63"/>
    </g>
    <g id="km" data-name="LWPOLYLINE">
      <polyline class="ms" points="162.8 769.93 392.41 769.93 392.41 540.32"/>
    </g>
    <g id="kn" data-name="LWPOLYLINE">
      <polyline class="ms" points="434.93 769.93 398.08 769.93 398.08 540.32"/>
    </g>
    <g id="ko" data-name="LWPOLYLINE">
      <polyline class="nq" points="738.8 316.38 738.8 319.22 475.75 319.22 475.75 407.09"/>
    </g>
    <g id="kp" data-name="LINE">
      <line class="nq" x1="398.08" y1="568.67" x2="434.93" y2="568.67"/>
    </g>
    <g id="kq" data-name="LINE">
      <line class="nq" x1="398.08" y1="574.34" x2="434.93" y2="574.34"/>
    </g>
    <g id="kr" data-name="LWPOLYLINE">
      <polyline class="nq" points="551.72 443.94 551.72 409.93 526.21 409.93 526.21 483.63 603.87 483.63"/>
    </g>
    <g id="ks" data-name="LINE">
      <line class="nq" x1="649.23" y1="489.3" x2="718.96" y2="489.3"/>
    </g>
    <g id="kt" data-name="LWPOLYLINE">
      <polyline class="nq" points="649.23 483.63 717.26 483.63 717.26 409.93 664.54 409.93 664.54 443.94 647.53 443.94 647.53 409.93 557.39 409.93 557.39 443.94"/>
    </g>
    <g id="ku" data-name="LWPOLYLINE">
      <polyline class="nq" points="738.8 395.75 738.8 392.92 520.54 392.92 520.54 489.3 603.87 489.3"/>
    </g>
    <g id="kv" data-name="LWPOLYLINE">
      <polyline class="nq" points="321.54 480.79 321.54 409.93 467.24 409.93"/>
    </g>
    <g id="kw" data-name="LWPOLYLINE">
      <rect class="mp" x="434.93" y="540.32" width="17.01" height="34.02"/>
    </g>
    <g id="kx" data-name="LWPOLYLINE">
      <rect class="mp" x="142.96" y="540.32" width="19.84" height="34.02"/>
    </g>
    <g id="ky" data-name="LWPOLYLINE">
      <rect class="mp" x="699.12" y="540.32" width="39.69" height="17.01"/>
    </g>
    <g id="kz" data-name="LWPOLYLINE">
      <rect class="mp" x="699.12" y="682.05" width="39.69" height="17.01"/>
    </g>
    <g id="la" data-name="LWPOLYLINE">
      <rect class="mp" x="434.93" y="750.08" width="17.01" height="39.69"/>
    </g>
    <g id="lb" data-name="LWPOLYLINE">
      <rect class="mp" x="619.18" y="750.08" width="17.01" height="39.69"/>
    </g>
    <g id="lc" data-name="LWPOLYLINE">
      <rect class="mp" x="142.96" y="750.08" width="19.84" height="39.69"/>
    </g>
    <g id="ld" data-name="LINE">
      <line class="mp" x1="619.18" y1="789.77" x2="451.94" y2="789.77"/>
    </g>
    <g id="le" data-name="LINE">
      <line class="mp" x1="619.18" y1="778.43" x2="451.94" y2="778.43"/>
    </g>
    <g id="lf" data-name="LINE">
      <line class="mp" x1="434.93" y1="789.77" x2="162.8" y2="789.77"/>
    </g>
    <g id="lg" data-name="LINE">
      <line class="mp" x1="434.93" y1="778.43" x2="162.8" y2="778.43"/>
    </g>
    <g id="lh" data-name="LINE">
      <line class="mp" x1="738.8" y1="682.05" x2="738.8" y2="557.33"/>
    </g>
    <g id="li" data-name="LINE">
      <line class="mp" x1="727.47" y1="682.05" x2="727.47" y2="557.33"/>
    </g>
    <g id="lj" data-name="LINE">
      <line class="mp" x1="142.96" y1="574.34" x2="142.96" y2="750.75"/>
    </g>
    <g id="lk" data-name="LINE">
      <line class="mp" x1="154.3" y1="574.34" x2="154.3" y2="750.08"/>
    </g>
    <g id="ll" data-name="LWPOLYLINE">
      <polyline class="mp" points="727.47 540.32 727.47 407.09 661.7 407.09 661.7 441.11 650.36 441.11 650.36 407.09 523.37 407.09 523.37 395.75 738.8 395.75 738.8 540.32"/>
    </g>
    <g id="lm" data-name="LWPOLYLINE">
      <polyline class="mp" points="636.19 789.77 639.02 789.77 738.8 701.89 738.8 699.06"/>
    </g>
    <g id="ln" data-name="LINE">
      <line class="mp" x1="636.19" y1="777.16" x2="724.87" y2="699.06"/>
    </g>
    <g id="lo" data-name="LWPOLYLINE">
      <polyline class="mp" points="154.3 540.32 154.3 480.79 318.71 480.79 318.71 407.09 472.91 407.09 472.91 316.38 738.8 316.38 738.8 305.04 461.58 305.04 461.58 395.75 307.37 395.75 307.37 469.45 142.96 469.45 142.96 540.32"/>
    </g>
    <g id="lp" data-name="LWPOLYLINE">
      <g>
        <line class="mr" x1="142.96" y1="588.51" x2="140.96" y2="588.51"/>
        <line class="nd" x1="138.7" y1="588.51" x2="133.05" y2="588.51"/>
        <polyline class="mr" points="131.92 588.51 129.92 588.51 129.92 590.51"/>
        <line class="my" x1="129.92" y1="592.48" x2="129.92" y2="656.39"/>
        <polyline class="mr" points="129.92 657.38 129.92 659.38 131.92 659.38"/>
        <line class="mn" x1="134.18" y1="659.38" x2="139.83" y2="659.38"/>
        <line class="mr" x1="140.96" y1="659.38" x2="142.96" y2="659.38"/>
      </g>
    </g>
    <g id="lq" data-name="LWPOLYLINE">
      <g>
        <line class="mr" x1="142.96" y1="577.17" x2="140.96" y2="577.17"/>
        <line class="na" x1="138.92" y1="577.17" x2="121.6" y2="577.17"/>
        <polyline class="mr" points="120.58 577.17 118.58 577.17 118.58 579.17"/>
        <line class="nh" x1="118.58" y1="581.12" x2="118.58" y2="667.74"/>
        <polyline class="mr" points="118.58 668.71 118.58 670.71 120.58 670.71"/>
        <line class="nr" x1="122.62" y1="670.71" x2="139.94" y2="670.71"/>
        <line class="mr" x1="140.96" y1="670.71" x2="142.96" y2="670.71"/>
      </g>
    </g>
  </g>
  <g id="lz" data-name="SCALE">
    <g>
      <g>
        <path class="mw" d="M819.97,1108.8c1.32-.05,2.57-.15,3.75-.3l.04.5c-1.21.19-2.47.31-3.78.37s-2.71.09-4.21.09l-.13-.59c1.57,0,3.01-.03,4.33-.08ZM823.31,1101.48v.56h-7.38v-.56h7.38ZM821.09,1103.16c.43.18.76.44.99.78s.35.73.35,1.18-.12.82-.35,1.15c-.23.33-.56.59-.99.77-.43.18-.92.27-1.48.27s-1.06-.09-1.48-.27c-.42-.18-.75-.44-.98-.77-.23-.33-.35-.72-.35-1.15s.12-.84.35-1.18c.23-.34.56-.59.98-.78.42-.18.91-.27,1.48-.27s1.05.09,1.48.27ZM818.01,1103.89c-.41.32-.62.72-.62,1.22s.21.88.62,1.19.94.46,1.6.46,1.2-.15,1.6-.46c.41-.31.61-.7.61-1.19s-.2-.91-.61-1.23c-.41-.31-.94-.47-1.6-.47s-1.19.16-1.6.48ZM819.95,1099.87v1.88h-.64v-1.88h.64ZM819.96,1107.08v2h-.66v-2h.66ZM825.25,1099.9v12.08h-.66v-12.08h.66Z"/>
        <path class="mw" d="M832.27,1108.54c1.27-.05,2.5-.16,3.69-.35l.06.49c-1.22.22-2.47.37-3.73.43-1.26.06-2.69.09-4.29.09l-.11-.59c1.65,0,3.11-.02,4.39-.07ZM833.39,1101.18c.48.23.85.55,1.12.97.27.42.4.89.4,1.44s-.13,1.02-.4,1.43c-.27.42-.64.74-1.12.97-.48.23-1.02.34-1.63.34s-1.18-.11-1.66-.34c-.48-.23-.85-.55-1.12-.97-.27-.42-.4-.89-.4-1.43s.13-1.02.4-1.44c.27-.42.64-.74,1.12-.97.48-.23,1.03-.34,1.66-.34s1.15.11,1.63.34ZM830.45,1101.69c-.38.19-.68.45-.9.78-.22.33-.33.7-.33,1.11s.11.78.33,1.11c.22.33.52.59.91.78.39.19.82.28,1.31.28s.92-.09,1.3-.28c.38-.19.68-.45.9-.78.21-.33.32-.7.32-1.11s-.11-.78-.32-1.11c-.21-.33-.51-.59-.9-.78-.38-.19-.82-.28-1.3-.28s-.93.09-1.32.28ZM837.49,1099.9v12.08h-.66v-12.08h.66Z"/>
        <path class="mw" d="M843.98,1100.31v.92c0,.72-.15,1.4-.46,2.03s-.72,1.19-1.23,1.67c-.51.48-1.08.84-1.69,1.11l-.35-.53c.57-.21,1.1-.54,1.58-.97.49-.43.88-.93,1.17-1.5.29-.57.44-1.17.44-1.8v-.92h.55ZM849.85,1106.93v2.63h-6.96v1.97h-.62v-2.49h6.94v-1.55h-6.99v-.56h7.62ZM850.34,1111.26v.55h-8.06v-.55h8.06ZM844.07,1100.31v.92c0,.59.15,1.16.45,1.7.3.55.7,1.02,1.19,1.42.49.4,1.02.71,1.58.92l-.34.52c-.63-.24-1.2-.59-1.71-1.04-.52-.45-.93-.97-1.24-1.58-.31-.61-.46-1.25-.46-1.95v-.92h.53ZM849.85,1099.9v6.36h-.64v-6.36h.64Z"/>
        <path class="mw" d="M821.44,1119.11v4.07h-4.7v3.51h-.63v-4.09h4.7v-2.94h-4.75v-.56h5.38ZM820.24,1126.33c.87-.07,1.75-.18,2.66-.35l.07.56c-.94.17-1.85.29-2.73.35-.88.07-1.95.1-3.22.1h-.91v-.56h.91c1.28,0,2.35-.03,3.22-.1ZM824.76,1117.9v12.08h-.64v-12.08h.64ZM826.9,1122.87v.57h-2.31v-.57h2.31Z"/>
        <path class="mw" d="M838.78,1124.22v.56h-10.95v-.56h10.95ZM835.48,1118.55c.63.2,1.11.47,1.45.83s.5.78.5,1.25-.17.91-.5,1.26c-.34.36-.82.63-1.45.82-.63.19-1.36.29-2.2.29s-1.56-.1-2.18-.29c-.63-.19-1.11-.46-1.45-.82-.34-.35-.51-.77-.51-1.26s.17-.89.51-1.25.82-.64,1.45-.83c.62-.2,1.35-.29,2.18-.29s1.57.1,2.2.29ZM829.94,1126.2v3.08h-.63v-3.08h.63ZM837.56,1129.09v.59h-8.25v-.59h8.25ZM831.46,1119.06c-.53.15-.94.37-1.23.64-.29.27-.43.59-.43.95s.14.67.43.95c.29.28.7.49,1.23.63.53.14,1.13.22,1.81.22s1.3-.07,1.82-.22c.52-.14.93-.35,1.23-.63s.44-.59.44-.96-.15-.67-.44-.94c-.29-.27-.7-.48-1.23-.64-.52-.15-1.13-.23-1.82-.23s-1.29.08-1.81.23ZM833.71,1124.55v2.94h-.66v-2.94h.66Z"/>
        <path class="mw" d="M844.01,1119.51v2.39c0,.76-.17,1.52-.52,2.28-.35.77-.79,1.45-1.32,2.06s-1.09,1.06-1.66,1.37l-.39-.52c.52-.27,1.04-.69,1.56-1.25.52-.56.94-1.19,1.28-1.9s.5-1.39.5-2.05v-2.39h.55ZM847.18,1119.19v.56h-6.73v-.56h6.73ZM844.1,1119.51v2.39c0,.67.17,1.34.51,2,.34.66.77,1.25,1.29,1.76.52.51,1.06.89,1.61,1.14l-.41.53c-.59-.3-1.15-.73-1.7-1.29-.55-.56-.99-1.2-1.34-1.92s-.52-1.46-.52-2.22v-2.39h.55ZM849.82,1117.9v12.08h-.64v-12.08h.64Z"/>
        <path class="mw" d="M819.64,1144.81c1.27-.05,2.46-.15,3.58-.32l.06.5c-1.17.2-2.37.32-3.61.38-1.24.06-2.6.09-4.07.09l-.14-.59c1.52,0,2.92-.02,4.19-.07ZM822.94,1137.47v.55h-7.29v-.55h7.29ZM820.75,1139.16c.42.18.74.44.97.78.23.34.35.73.35,1.18s-.12.82-.35,1.15c-.23.33-.56.59-.97.77-.42.18-.9.27-1.45.27s-1.03-.09-1.45-.27c-.42-.18-.74-.44-.97-.77-.23-.33-.34-.72-.34-1.15s.11-.84.34-1.18c.23-.34.55-.59.97-.78.42-.18.9-.27,1.45-.27s1.03.09,1.45.27ZM817.74,1139.88c-.4.31-.59.72-.59,1.21s.2.9.59,1.2c.4.31.92.46,1.56.46s1.16-.15,1.56-.46.6-.71.6-1.2-.2-.9-.6-1.21-.92-.47-1.56-.47-1.16.16-1.56.47ZM819.64,1135.89v1.85h-.66v-1.85h.66ZM819.64,1143.14v1.96h-.66v-1.96h.66ZM824.69,1135.9v12.08h-.64v-12.08h.64ZM826.83,1141.19v.57h-2.3v-.57h2.3Z"/>
        <path class="mw" d="M831.55,1137.16v1.13c0,.7-.15,1.35-.44,1.96s-.7,1.13-1.2,1.58-1.07.78-1.69,1.01l-.34-.52c.57-.21,1.09-.51,1.57-.9s.86-.87,1.15-1.41c.29-.54.43-1.12.43-1.72v-1.13h.52ZM834.53,1136.85v.56h-6.41v-.56h6.41ZM835.41,1143.92c.58.16,1.03.4,1.34.72.31.32.47.7.47,1.15,0,.68-.34,1.21-1.03,1.59s-1.64.57-2.86.57c-.8,0-1.5-.08-2.08-.25-.58-.17-1.03-.42-1.34-.74-.31-.33-.46-.71-.46-1.16s.15-.83.46-1.15c.31-.32.75-.56,1.34-.72.58-.16,1.28-.25,2.08-.25s1.5.08,2.08.25ZM831.61,1144.41c-.49.13-.87.31-1.13.55-.27.23-.4.51-.4.83,0,.49.29.89.88,1.18s1.38.43,2.37.43,1.78-.14,2.37-.43.89-.68.89-1.18c0-.32-.14-.59-.41-.83-.27-.23-.65-.42-1.14-.55-.49-.13-1.06-.2-1.72-.2s-1.22.07-1.71.2ZM831.65,1137.16v1.12c0,.54.14,1.06.41,1.56.27.5.64.94,1.11,1.31.46.37.97.66,1.52.87l-.31.5c-.61-.22-1.16-.55-1.65-.97s-.89-.91-1.18-1.47c-.29-.56-.43-1.16-.43-1.81v-1.12h.53ZM837.11,1135.9v7.36h-.64v-7.36h.64ZM839.03,1139.18v.56h-2.1v-.56h2.1Z"/>
        <path class="mw" d="M843.98,1136.31v.92c0,.72-.15,1.4-.46,2.03s-.72,1.19-1.23,1.67c-.51.48-1.08.84-1.69,1.11l-.35-.53c.57-.21,1.1-.54,1.58-.97.49-.43.88-.93,1.17-1.5.29-.57.44-1.17.44-1.8v-.92h.55ZM849.85,1142.93v2.63h-6.96v1.97h-.62v-2.49h6.94v-1.55h-6.99v-.56h7.62ZM850.34,1147.26v.55h-8.06v-.55h8.06ZM844.07,1136.31v.92c0,.59.15,1.16.45,1.7.3.55.7,1.02,1.19,1.42.49.4,1.02.71,1.58.92l-.34.52c-.63-.24-1.2-.59-1.71-1.04-.52-.45-.93-.97-1.24-1.58-.31-.61-.46-1.25-.46-1.95v-.92h.53ZM849.85,1135.9v6.36h-.64v-6.36h.64Z"/>
      </g>
      <g>
        <path class="mw" d="M804.69,1111.05h-.67v-9.35l-1.26.87-.36-.49,1.62-1.13h.67v10.11Z"/>
        <path class="mw" d="M801.59,1127.81c.2-.19.43-.41.68-.65.84-.79,1.51-1.46,2.02-1.99.51-.53.94-1.09,1.31-1.67s.55-1.12.55-1.61-.09-.9-.28-1.27-.45-.67-.78-.88c-.33-.21-.71-.32-1.13-.32-.47,0-.91.16-1.34.48-.42.32-.75.73-.96,1.24l-.63-.27c.26-.61.66-1.1,1.2-1.48.54-.38,1.12-.57,1.72-.57.55,0,1.04.13,1.47.39.43.26.77.63,1.01,1.09.25.47.37.99.37,1.58s-.19,1.18-.57,1.81-.84,1.23-1.38,1.79c-.54.56-1.23,1.25-2.09,2.05-.59.55-1.04.98-1.36,1.3l-.48-.39c.23-.24.45-.46.65-.65ZM800.94,1128.46h6.02v.59h-5.94l-.08-.59Z"/>
        <path class="mw" d="M806.62,1142.75c.33.44.5.92.5,1.43,0,.57-.14,1.08-.41,1.53s-.65.8-1.13,1.06-1.03.38-1.64.38-1.17-.13-1.65-.38-.86-.6-1.13-1.06-.41-.96-.41-1.53h.67c0,.46.11.87.32,1.23s.51.64.9.84c.38.2.81.3,1.29.3s.92-.1,1.3-.29.68-.46.89-.79.32-.72.32-1.16-.11-.8-.32-1.13-.5-.59-.88-.78c-.38-.19-.8-.28-1.28-.28h-.41v-.62h.39c.45,0,.85-.09,1.21-.26s.64-.41.84-.72c.2-.31.3-.66.3-1.05,0-.6-.21-1.09-.64-1.47-.43-.38-.98-.57-1.65-.57-.44,0-.83.09-1.19.27-.36.18-.63.44-.82.77-.19.33-.29.71-.29,1.13h-.67c0-.53.13-1.01.38-1.43s.6-.75,1.05-.99c.45-.24.96-.36,1.54-.36s1.09.12,1.54.36c.45.24.8.57,1.05.99.25.42.38.9.38,1.43,0,.43-.15.85-.45,1.27s-.69.73-1.16.94c.5.19.92.5,1.25.94Z"/>
      </g>
    </g>
    <g>
      <g id="ma" data-name="CIRCLE">
        <circle class="mm" cx="69.24" cy="1074" r="14.88"/>
      </g>
      <g id="mb" data-name="TEXT">
        <path class="mx" d="M78.85,1058.48l-.86-.35-1.27-8.05-2.62,6.47-.84-.34,3.28-8.1.87.35,1.26,8.02,2.61-6.45.84.34-3.28,8.1Z"/>
      </g>
      <g id="mc" data-name="HATCH">
        <path class="mq" d="M74.82,1060.21c-.23-.09-.46-.18-.7-.26l-5.57,13.78.69.28,5.58-13.8Z"/>
      </g>
      <g id="md" data-name="HATCH">
        <path class="mq" d="M75.5,1060.5c-.23-.1-.45-.2-.69-.3l-5.58,13.8.69.28,5.57-13.78Z"/>
      </g>
      <g id="me" data-name="LINE">
        <line class="mm" x1="74.12" y1="1059.94" x2="68.54" y2="1073.72"/>
      </g>
      <g id="mf" data-name="LINE">
        <line class="mm" x1="75.5" y1="1060.5" x2="69.93" y2="1074.28"/>
      </g>
      <g id="mg" data-name="LINE">
        <line class="mm" x1="69.24" y1="1074" x2="74.82" y2="1060.21"/>
      </g>
      <g id="mh" data-name="MTEXT">
        <path class="mx" d="M52.86,1145.9c-.63-.5-1.13-1.2-1.49-2.1-.36-.9-.54-1.92-.54-3.06s.18-2.14.54-3.04c.36-.9.85-1.59,1.49-2.1.63-.5,1.36-.75,2.17-.75s1.53.25,2.17.75c.63.5,1.13,1.2,1.49,2.1.36.9.54,1.91.54,3.04s-.18,2.16-.54,3.05c-.36.89-.85,1.59-1.49,2.1s-1.36.76-2.17.76-1.53-.25-2.17-.75ZM56.51,1144.86c.44-.41.78-.96,1.02-1.67.24-.71.36-1.52.36-2.44s-.12-1.73-.36-2.45c-.24-.71-.58-1.27-1.02-1.67-.44-.4-.93-.6-1.49-.6s-1.05.2-1.48.6c-.43.4-.77.96-1.02,1.67-.25.71-.37,1.53-.37,2.43s.12,1.75.37,2.46c.25.71.58,1.27,1.02,1.67s.93.61,1.48.61,1.05-.2,1.49-.61Z"/>
      </g>
      <g id="mi" data-name="MTEXT">
        <path class="mx" d="M165.18,1144.72c.19-.17.42-.38.71-.64.93-.85,1.67-1.57,2.24-2.15.57-.58,1.05-1.17,1.44-1.78s.59-1.16.59-1.67c0-.48-.09-.9-.28-1.27s-.45-.66-.78-.86-.71-.31-1.15-.31c-.47,0-.93.16-1.37.48-.44.32-.78.73-1,1.23l-1.2-.51c.3-.7.78-1.28,1.46-1.73.67-.45,1.38-.67,2.11-.67.69,0,1.31.16,1.85.46.54.31.96.74,1.26,1.29.3.55.45,1.18.45,1.9s-.22,1.41-.67,2.14c-.45.73-.98,1.41-1.6,2.04-.62.63-1.42,1.39-2.42,2.27-.49.45-.95.88-1.39,1.3l-.94-.85c.28-.27.51-.49.7-.66ZM164.48,1145.38h7.22v1.18h-7.04l-.18-1.18Z"/>
      </g>
      <g id="mj" data-name="MTEXT">
        <path class="mx" d="M111.84,1146.54h-1.34v-10.08l-1.86,1.2-.67-1.07,2.54-1.62h1.33v11.57Z"/>
      </g>
      <g id="mk" data-name="MTEXT">
        <g>
          <path class="mx" d="M330.05,1139.31c.55-.25,1.08-.38,1.59-.38.77,0,1.45.16,2.06.49.6.33,1.07.78,1.41,1.35s.5,1.24.5,1.98-.17,1.43-.5,2.02-.8,1.05-1.4,1.38-1.29.5-2.07.5c-.6,0-1.16-.12-1.69-.38-.53-.25-.98-.6-1.34-1.05-.37-.45-.62-.95-.74-1.52l1.3-.3c.13.59.42,1.06.89,1.43.46.37.99.55,1.59.55.5,0,.95-.11,1.35-.34.4-.22.71-.54.94-.94.23-.41.34-.86.34-1.36s-.11-.95-.34-1.34c-.23-.39-.54-.69-.94-.91-.4-.22-.85-.33-1.35-.33-.33,0-.68.09-1.04.26-.36.18-.66.4-.9.68l-.99-.86c.34-.38.79-.7,1.34-.95ZM328.37,1140.93l.37-6.03h5.92v1.18h-4.64l-.32,5.04-1.33-.19Z"/>
          <path class="mx" d="M346.78,1140.76c-.29-.34-.67-.5-1.13-.5-.35,0-.66.07-.94.22-.27.14-.49.34-.65.6-.16.26-.24.55-.24.88v4.58h-1.33v-4.45c0-.54-.14-.98-.43-1.32s-.66-.5-1.12-.5c-.34,0-.65.09-.94.26s-.5.42-.66.72c-.15.3-.23.63-.23.98v4.3h-1.33v-7.46h1.33v1.31l-.14-.05c.22-.37.52-.68.9-.91.37-.23.75-.35,1.14-.35.46,0,.9.13,1.32.38.42.26.74.59.95.99.25-.41.59-.74,1.04-.99.45-.26.9-.38,1.36-.38.55,0,1.05.13,1.49.38.44.25.78.59,1.02,1.02.25.43.37.93.37,1.5v4.56h-1.34v-4.45c0-.54-.15-.98-.44-1.32Z"/>
        </g>
      </g>
      <g id="ml" data-name="LWPOLYLINE">
        <polyline class="mm" points="337.82 1130.89 337.82 1113.88 167.74 1113.88 167.74 1130.89 111.05 1130.89 111.05 1113.88 54.35 1113.88 54.35 1130.89"/>
      </g>
    </g>
    <path class="mw" d="M192.46,622.48h-.58v-8.02l-1.08.74-.31-.42,1.39-.97h.58v8.66Z"/>
    <path class="mw" d="M603.79,454.43c.28.38.43.78.43,1.22,0,.49-.12.93-.35,1.31-.23.39-.55.69-.97.91-.41.22-.88.32-1.41.32s-1-.11-1.41-.32-.73-.52-.97-.91c-.23-.39-.35-.83-.35-1.31h.58c0,.39.09.74.28,1.05.18.31.44.55.77.72.33.17.7.26,1.1.26s.79-.08,1.12-.25.58-.39.76-.68c.18-.29.27-.62.27-1s-.09-.68-.27-.97c-.18-.28-.43-.51-.76-.67-.32-.16-.69-.24-1.1-.24h-.35v-.53h.34c.38,0,.73-.07,1.04-.22.31-.15.55-.35.72-.62.17-.26.26-.56.26-.9,0-.51-.18-.93-.55-1.26-.37-.33-.84-.49-1.42-.49-.38,0-.72.08-1.02.23-.3.16-.54.38-.7.66-.16.28-.25.61-.25.97h-.58c0-.46.11-.86.32-1.22.22-.36.52-.64.9-.85.38-.2.82-.31,1.32-.31s.94.1,1.32.31c.38.2.68.49.9.85.22.36.32.77.32,1.22,0,.37-.13.73-.38,1.09-.26.36-.59.63-1,.81.43.16.79.43,1.07.8Z"/>
    <path class="mw" d="M475.44,644.07c.17-.16.37-.35.58-.56.72-.68,1.3-1.25,1.73-1.7s.81-.93,1.12-1.43.47-.96.47-1.38-.08-.77-.24-1.09c-.16-.32-.38-.57-.67-.75-.28-.18-.61-.27-.97-.27-.4,0-.78.14-1.15.41-.36.28-.64.63-.82,1.06l-.54-.23c.22-.52.57-.94,1.03-1.27.46-.33.96-.49,1.48-.49.47,0,.89.11,1.26.34s.66.54.87.94c.21.4.32.85.32,1.36s-.16,1.01-.49,1.55c-.33.54-.72,1.05-1.18,1.54-.46.48-1.06,1.07-1.79,1.76-.5.47-.89.84-1.16,1.12l-.41-.34c.2-.21.39-.39.56-.56ZM474.89,644.62h5.16v.5h-5.09l-.07-.5Z"/>
  </g>
</svg>