<?xml version="1.0" encoding="UTF-8"?>
<svg xmlns="http://www.w3.org/2000/svg" viewBox="0 0 900 1200">
  <defs>
    <style>
      .jl, .jm, .jn, .jo, .jp, .jq, .jr, .js, .jt, .ju, .jv, .jw, .jx, .jy, .jz, .ka, .kb, .kc, .kd, .ke, .kf {
        stroke: #000;
      }

      .jl, .jm, .jn, .jo, .jp, .jq, .jt, .ju, .jv, .jw, .jx, .jy, .jz, .ka, .kb, .kc, .kd, .ke, .kf {
        stroke-miterlimit: 10;
      }

      .jl, .jm, .jo, .jp, .js, .jy, .kb, .kd, .ke {
        stroke-width: .5px;
      }

      .jl, .jn, .jo, .jp, .jq, .jt, .ju, .jv, .jw, .jx, .jy, .jz, .ka, .kb, .kc, .kd, .ke, .kf {
        fill: none;
      }

      .jm {
        fill: #040000;
        fill-rule: evenodd;
      }

      .jn {
        stroke-width: .75px;
      }

      .jo {
        stroke-dasharray: 2.02 1.01;
      }

      .jp {
        stroke-dasharray: 1.98 .99;
      }

      .jq {
        stroke-width: .15px;
      }

      .jr {
        stroke-width: .34px;
      }

      .jt, .ju, .jv, .jx, .kf {
        stroke-width: .4px;
      }

      .ju {
        stroke-dasharray: 1.97 .99;
      }

      .jv {
        stroke-dasharray: 1.88 .94;
      }

      .jw {
        stroke-width: .25px;
      }

      .jx {
        stroke-dasharray: 1.97 .99;
      }

      .jy {
        stroke-dasharray: 2 1;
      }

      .jz {
        stroke-width: .3px;
      }

      .ka {
        stroke-width: .6px;
      }

      .kb {
        stroke-dasharray: 1.98 .99;
      }

      .kc {
        stroke-width: .9px;
      }

      .kd {
        stroke-dasharray: 1.98 .99;
      }

      .ke, .kf {
        stroke-dasharray: 2.07 1.03;
      }
    </style>
  </defs>
  <g id="au" data-name="f4">
    <g id="av" data-name="HATCH">
      <path class="jq" d="M137.77,467.75v-69.73M145.78,467.75v-69.73M153.8,467.75v-69.73M161.82,467.75v-69.73M169.84,467.75v-69.73M177.85,467.75v-69.73M185.87,467.75v-69.73M193.89,467.75v-69.73M201.91,467.75v-69.73M209.92,467.75v-69.73M217.94,467.75v-69.73M225.96,467.75v-69.73M233.98,467.75v-69.73M241.99,467.75v-69.73M250.01,467.75v-69.73M258.03,467.75v-69.73M266.05,467.75v-69.73M274.06,467.75v-69.73M282.08,467.75v-69.73M290.1,467.75v-69.73M298.12,467.75v-69.73M306.13,467.75v-69.73M314.15,467.75v-69.73M322.17,467.75v-69.73M330.19,467.75v-69.73M338.2,467.75v-69.73M346.22,467.75v-69.73M354.24,467.75v-69.73M362.26,467.75v-69.73M370.28,467.75v-69.73M378.29,467.75v-69.73M386.31,467.75v-69.73M394.33,467.75v-69.73M402.35,467.75v-69.73M410.36,467.75v-69.73M418.38,467.75v-69.73M426.4,467.75v-69.73M434.42,467.75v-69.73M442.43,467.75v-69.73M450.45,467.75v-69.73M458.47,467.75v-69.73M466.49,467.75v-69.73M474.5,467.75v-69.73M482.52,467.75v-69.73M490.54,467.75v-69.73M498.56,455.28v-57.26M506.57,455.28v-57.26M514.59,455.28v-57.26M522.61,455.28v-57.26M530.63,455.28v-57.26M538.64,455.28v-57.26M546.66,455.28v-57.26M554.68,455.28v-57.26M562.7,455.28v-57.26M570.72,455.28v-57.26M578.73,455.28v-57.26M586.75,455.28v-57.26M594.77,455.28v-57.26M602.79,455.28v-57.26M610.8,455.28v-57.26M618.82,455.28v-57.26M626.84,455.28v-57.26M634.86,455.28v-57.26M642.87,455.28v-57.26M650.89,455.28v-57.26M658.91,455.28v-57.26M666.93,455.28v-57.26M674.94,455.28v-57.26M682.96,455.28v-57.26M690.98,455.28v-57.26M699,455.28v-57.26M707.01,455.28v-57.26M715.03,455.28v-57.26M723.05,455.28v-57.26M731.07,455.28v-57.26"/>
    </g>
    <g id="aw" data-name="HATCH">
      <path class="jq" d="M230.84,482.16h496.63M230.84,518.16h496.63M230.84,554.16h496.63M230.84,590.16h496.63M230.84,626.16h496.63M252.36,626.78v-144.85M288.36,626.78v-144.85M324.36,626.78v-144.85M360.36,626.78v-144.85M396.36,626.78v-144.85M432.36,626.78v-144.85M468.36,626.78v-144.85M504.36,626.78v-144.85M540.36,626.78v-159.02M576.36,626.78v-159.02M612.36,626.78v-159.02M648.36,626.78v-159.02M684.36,626.78v-159.02M720.36,626.78v-159.02"/>
    </g>
    <g id="ax" data-name="HATCH">
      <path class="jq" d="M137.34,626.78v-159.02M143.36,626.78v-159.02M149.37,626.78v-159.02M155.38,626.78v-159.02M161.4,626.78v-159.02M167.41,626.78v-159.02M173.42,626.78v-159.02M179.44,626.78v-159.02M185.45,626.78v-159.02M191.46,626.78v-159.02M197.48,626.78v-159.02M203.49,626.78v-159.02M209.5,626.78v-159.02M215.52,626.78v-159.02M221.53,626.78v-159.02M227.54,626.78v-159.02"/>
    </g>
    <g id="ay" data-name="LINE">
      <line class="jw" x1="427.28" y1="787.5" x2="384.19" y2="787.5"/>
    </g>
    <g id="az" data-name="LINE">
      <line class="jw" x1="383.06" y1="787.5" x2="300.85" y2="787.5"/>
    </g>
    <g id="ba" data-name="LINE">
      <line class="jw" x1="426.43" y1="789.07" x2="385.04" y2="789.07"/>
    </g>
    <g id="bb" data-name="LINE">
      <line class="jw" x1="382.21" y1="789.07" x2="301.7" y2="789.08"/>
    </g>
    <g id="bc" data-name="LINE">
      <line class="jw" x1="611.53" y1="787.5" x2="459.59" y2="787.5"/>
    </g>
    <g id="bd" data-name="LINE">
      <line class="jw" x1="610.68" y1="789.07" x2="460.44" y2="789.07"/>
    </g>
    <g id="be" data-name="LINE">
      <line class="jw" x1="641.85" y1="786.76" x2="735.82" y2="704.34"/>
    </g>
    <g id="bf" data-name="LINE">
      <line class="jw" x1="736.21" y1="706.08" x2="643.53" y2="787.38"/>
    </g>
    <g id="bg" data-name="LINE">
      <line class="jw" x1="268.54" y1="787.5" x2="143.53" y2="787.5"/>
    </g>
    <g id="bh" data-name="LINE">
      <line class="jw" x1="267.69" y1="789.08" x2="144.38" y2="789.08"/>
    </g>
    <g id="bi" data-name="LINE">
      <line class="jw" x1="627.12" y1="629.04" x2="444" y2="629.04"/>
    </g>
    <g id="bj" data-name="LINE">
      <line class="jw" x1="444.85" y1="627.48" x2="626.27" y2="627.47"/>
    </g>
    <g id="bk" data-name="LWPOLYLINE">
      <polyline class="jw" points="439.18 649.45 439.18 654.56 439.75 654.56 439.75 649.45"/>
    </g>
    <g id="bl" data-name="LWPOLYLINE">
      <polyline class="jw" points="439.75 655.12 439.75 700.48 439.18 700.48 439.18 655.12"/>
    </g>
    <g id="bm" data-name="LWPOLYLINE">
      <polyline class="jw" points="439.18 778.43 439.18 743.56 438.61 743.56 438.61 778.43"/>
    </g>
    <g id="bn" data-name="LINE">
      <line class="jw" x1="391.56" y1="628.48" x2="435.78" y2="628.48"/>
    </g>
    <g id="bo" data-name="LINE">
      <line class="jw" x1="383.34" y1="629.04" x2="343.84" y2="629.04"/>
    </g>
    <g id="bp" data-name="LINE">
      <line class="jw" x1="344.69" y1="627.48" x2="382.49" y2="627.48"/>
    </g>
    <g id="bq" data-name="LWPOLYLINE">
      <polyline class="jw" points="629.1 627.48 738.1 627.48 738.1 673.55"/>
    </g>
    <g id="br" data-name="LWPOLYLINE">
      <polyline class="jw" points="628.25 629.04 736.54 629.04 736.54 674.4"/>
    </g>
    <g id="bs" data-name="LWPOLYLINE">
      <polyline class="jz" points="270.52 803.94 135.87 803.94 135.87 789.77"/>
    </g>
    <g id="bt" data-name="LWPOLYLINE">
      <polyline class="jz" points="738.8 616.29 752.98 616.29 752.98 398.02 135.87 398.02 135.87 469.45"/>
    </g>
    <g id="bu" data-name="LINE">
      <line class="jz" x1="738.8" y1="455.28" x2="738.8" y2="398.02"/>
    </g>
    <g id="bv" data-name="LWPOLYLINE">
      <polyline class="jz" points="613.51 803.94 538.39 803.94 538.39 789.77"/>
    </g>
    <g id="bw" data-name="LWPOLYLINE">
      <polyline class="jz" points="457.61 803.94 532.73 803.94 532.73 789.77"/>
    </g>
    <g id="bx" data-name="LWPOLYLINE">
      <polyline class="jz" points="361.23 789.77 361.23 803.94 298.87 803.94"/>
    </g>
    <g id="by" data-name="LWPOLYLINE">
      <polyline class="jz" points="429.26 803.94 366.9 803.94 366.9 789.77"/>
    </g>
    <g id="bz" data-name="LWPOLYLINE">
      <polyline class="jz" points="752.98 676.38 752.98 621.96 738.8 621.96"/>
    </g>
    <g id="ca" data-name="LWPOLYLINE">
      <polyline class="jz" points="752.98 704.73 752.98 711.16 702.21 755.68 692.87 745.02"/>
    </g>
    <g id="cb" data-name="LWPOLYLINE">
      <polyline class="jz" points="641.86 803.94 647.19 803.94 697.95 759.42 688.61 748.76"/>
    </g>
    <g id="cc" data-name="LWPOLYLINE">
      <g>
        <path class="jt" d="M498.71,691.55v-1h1"/>
        <line class="jx" x1="500.69" y1="690.56" x2="565.25" y2="690.56"/>
        <polyline class="jt" points="565.74 690.56 566.74 690.56 566.74 691.56"/>
        <line class="kf" x1="566.74" y1="692.59" x2="566.74" y2="723.06"/>
        <polyline class="jt" points="566.74 723.57 566.74 724.57 565.74 724.57"/>
        <line class="jx" x1="564.76" y1="724.57" x2="500.2" y2="724.57"/>
        <path class="jt" d="M499.71,724.57h-1v-1"/>
        <path class="kf" d="M498.71,722.55v-30.47"/>
      </g>
    </g>
    <g id="cd" data-name="LWPOLYLINE">
      <g>
        <polyline class="jt" points="519.4 728.41 519.4 727.41 520.4 727.41"/>
        <line class="jv" x1="521.34" y1="727.41" x2="543.44" y2="727.41"/>
        <polyline class="jt" points="543.91 727.41 544.91 727.41 544.91 728.41"/>
        <path class="ju" d="M544.91,729.39v15.02c0,7.04-5.71,12.76-12.76,12.76s-12.76-5.71-12.76-12.76v-15.51"/>
      </g>
    </g>
    <g id="ce" data-name="LWPOLYLINE">
      <g>
        <path class="jt" d="M566.74,691.55v-1h1"/>
        <line class="jx" x1="568.73" y1="690.56" x2="633.28" y2="690.56"/>
        <polyline class="jt" points="633.77 690.56 634.77 690.56 634.77 691.56"/>
        <line class="kf" x1="634.77" y1="692.59" x2="634.77" y2="723.06"/>
        <polyline class="jt" points="634.77 723.57 634.77 724.57 633.77 724.57"/>
        <line class="jx" x1="632.79" y1="724.57" x2="568.23" y2="724.57"/>
        <path class="jt" d="M567.74,724.57h-1v-1"/>
        <path class="kf" d="M566.74,722.55v-30.47"/>
      </g>
    </g>
    <g id="cf" data-name="LWPOLYLINE">
      <g>
        <polyline class="jt" points="587.43 728.41 587.43 727.41 588.43 727.41"/>
        <line class="jv" x1="589.37" y1="727.41" x2="611.48" y2="727.41"/>
        <polyline class="jt" points="611.95 727.41 612.95 727.41 612.95 728.41"/>
        <path class="ju" d="M612.95,729.39v15.02c0,7.04-5.71,12.76-12.76,12.76s-12.76-5.71-12.76-12.76v-15.51"/>
      </g>
    </g>
    <g id="cg" data-name="LINE">
      <line class="jt" x1="225.17" y1="645.77" x2="222.33" y2="645.77"/>
    </g>
    <g id="ch" data-name="LINE">
      <line class="jt" x1="220.35" y1="645.77" x2="171.31" y2="645.77"/>
    </g>
    <g id="ci" data-name="LINE">
      <line class="jt" x1="225.17" y1="660.51" x2="222.33" y2="660.51"/>
    </g>
    <g id="cj" data-name="LINE">
      <line class="jt" x1="220.35" y1="660.51" x2="171.31" y2="660.51"/>
    </g>
    <g id="ck" data-name="LINE">
      <line class="jt" x1="225.17" y1="675.25" x2="222.33" y2="675.25"/>
    </g>
    <g id="cl" data-name="LINE">
      <line class="jt" x1="220.35" y1="675.25" x2="171.31" y2="675.25"/>
    </g>
    <g id="cm" data-name="LINE">
      <line class="jt" x1="225.17" y1="689.99" x2="222.33" y2="689.99"/>
    </g>
    <g id="cn" data-name="LINE">
      <line class="jt" x1="220.35" y1="689.99" x2="171.31" y2="689.99"/>
    </g>
    <g id="co" data-name="LINE">
      <line class="jt" x1="225.17" y1="704.73" x2="222.33" y2="704.73"/>
    </g>
    <g id="cp" data-name="LINE">
      <line class="jt" x1="220.35" y1="704.73" x2="171.31" y2="704.73"/>
    </g>
    <g id="cq" data-name="LINE">
      <line class="jt" x1="225.17" y1="704.73" x2="223.37" y2="706.71"/>
    </g>
    <g id="cr" data-name="LINE">
      <line class="jt" x1="221.58" y1="708.7" x2="171.31" y2="764.26"/>
    </g>
    <g id="cs" data-name="LINE">
      <line class="jt" x1="225.17" y1="700.48" x2="225.17" y2="706.71"/>
    </g>
    <g id="ct" data-name="LINE">
      <line class="jt" x1="225.17" y1="708.7" x2="225.17" y2="764.26"/>
    </g>
    <g id="cu" data-name="LWPOLYLINE">
      <polyline class="jt" points="222.33 640.95 222.33 706.71 236.5 706.71 236.5 708.7 220.35 708.7 220.35 640.95"/>
    </g>
    <g id="cv" data-name="LWPOLYLINE">
      <polyline class="jt" points="171.31 640.95 171.31 764.26 225.17 764.26"/>
    </g>
    <g id="cw" data-name="LWPOLYLINE">
      <rect class="jt" x="298.87" y="781.26" width="2.83" height="5.67"/>
    </g>
    <g id="cx" data-name="LWPOLYLINE">
      <polyline class="jt" points="299.72 786.93 299.72 788.07 300.85 788.07 300.85 786.93"/>
    </g>
    <g id="cy" data-name="LINE">
      <line class="jt" x1="300.28" y1="788.07" x2="300.28" y2="789.77"/>
    </g>
    <g id="cz" data-name="LWPOLYLINE">
      <polyline class="jt" points="298.87 789.07 298.87 789.77 301.7 789.77 301.7 789.08"/>
    </g>
    <g id="da" data-name="LWPOLYLINE">
      <rect class="jt" x="426.43" y="781.26" width="2.83" height="5.67"/>
    </g>
    <g id="db" data-name="LWPOLYLINE">
      <polyline class="jt" points="427.28 786.93 427.28 788.07 428.41 788.07 428.41 786.93"/>
    </g>
    <g id="dc" data-name="LINE">
      <line class="jt" x1="427.84" y1="788.07" x2="427.84" y2="789.77"/>
    </g>
    <g id="dd" data-name="LWPOLYLINE">
      <polyline class="jt" points="426.43 789.07 426.43 789.77 429.26 789.77 429.26 789.08"/>
    </g>
    <g id="de" data-name="LWPOLYLINE">
      <rect class="jt" x="610.68" y="781.26" width="2.83" height="5.67"/>
    </g>
    <g id="df" data-name="LWPOLYLINE">
      <polyline class="jt" points="611.53 786.93 611.53 788.07 612.66 788.07 612.66 786.93"/>
    </g>
    <g id="dg" data-name="LINE">
      <line class="jt" x1="612.1" y1="788.07" x2="612.1" y2="789.77"/>
    </g>
    <g id="dh" data-name="LWPOLYLINE">
      <polyline class="jt" points="610.68 789.07 610.68 789.77 613.51 789.77 613.51 789.08"/>
    </g>
    <g id="di" data-name="LWPOLYLINE">
      <rect class="jt" x="637.76" y="781.74" width="2.83" height="5.67" transform="translate(-359.04 618.23) rotate(-41.37)"/>
    </g>
    <g id="dj" data-name="LWPOLYLINE">
      <polyline class="jt" points="640.63 787.08 641.38 787.93 642.23 787.18 641.48 786.33"/>
    </g>
    <g id="dk" data-name="LINE">
      <line class="jt" x1="641.8" y1="787.56" x2="642.92" y2="788.83"/>
    </g>
    <g id="dl" data-name="LWPOLYLINE">
      <polyline class="jt" points="641.4 789.24 641.86 789.77 643.99 787.9 643.53 787.38"/>
    </g>
    <g id="dm" data-name="LWPOLYLINE">
      <rect class="jt" x="457.61" y="781.26" width="2.83" height="5.67"/>
    </g>
    <g id="dn" data-name="LWPOLYLINE">
      <polyline class="jt" points="458.46 786.93 458.46 788.07 459.59 788.07 459.59 786.93"/>
    </g>
    <g id="do" data-name="LINE">
      <line class="jt" x1="459.02" y1="788.07" x2="459.02" y2="789.77"/>
    </g>
    <g id="dp" data-name="LWPOLYLINE">
      <polyline class="jt" points="457.61 789.07 457.61 789.77 460.44 789.77 460.44 789.08"/>
    </g>
    <g id="dq" data-name="LWPOLYLINE">
      <rect class="jt" x="732.58" y="698.58" width="2.83" height="5.67" transform="translate(-280.41 660.14) rotate(-41.37)"/>
    </g>
    <g id="dr" data-name="LWPOLYLINE">
      <polyline class="jt" points="735.44 703.91 736.19 704.76 737.04 704.02 736.29 703.16"/>
    </g>
    <g id="ds" data-name="LINE">
      <line class="jt" x1="736.62" y1="704.39" x2="737.74" y2="705.67"/>
    </g>
    <g id="dt" data-name="LWPOLYLINE">
      <polyline class="jt" points="736.21 706.08 736.68 706.6 738.8 704.73 738.35 704.21"/>
    </g>
    <g id="du" data-name="LWPOLYLINE">
      <rect class="jt" x="730.3" y="673.55" width="5.67" height="2.83"/>
    </g>
    <g id="dv" data-name="LWPOLYLINE">
      <polyline class="jt" points="735.97 675.53 737.1 675.53 737.1 674.4 735.97 674.4"/>
    </g>
    <g id="dw" data-name="LINE">
      <line class="jt" x1="737.1" y1="674.97" x2="738.8" y2="674.97"/>
    </g>
    <g id="dx" data-name="LWPOLYLINE">
      <polyline class="jt" points="738.1 676.38 738.8 676.38 738.8 673.55 738.11 673.55"/>
    </g>
    <g id="dy" data-name="LWPOLYLINE">
      <rect class="jt" x="382.21" y="781.26" width="2.83" height="5.67"/>
    </g>
    <g id="dz" data-name="LWPOLYLINE">
      <polyline class="jt" points="383.06 786.93 383.06 788.07 384.19 788.07 384.19 786.93"/>
    </g>
    <g id="ea" data-name="LINE">
      <line class="jt" x1="383.62" y1="788.07" x2="383.62" y2="789.77"/>
    </g>
    <g id="eb" data-name="LWPOLYLINE">
      <polyline class="jt" points="382.21 789.07 382.21 789.77 385.04 789.77 385.04 789.08"/>
    </g>
    <g id="ec" data-name="LWPOLYLINE">
      <rect class="jt" x="626.27" y="629.61" width="2.83" height="5.67"/>
    </g>
    <g id="ed" data-name="LWPOLYLINE">
      <polyline class="jt" points="628.25 629.61 628.25 628.48 627.12 628.48 627.12 629.61"/>
    </g>
    <g id="ee" data-name="LINE">
      <line class="jt" x1="627.69" y1="628.48" x2="627.69" y2="626.78"/>
    </g>
    <g id="ef" data-name="LWPOLYLINE">
      <polyline class="jt" points="629.1 627.48 629.1 626.78 626.27 626.78 626.27 627.47"/>
    </g>
    <g id="eg" data-name="LWPOLYLINE">
      <rect class="jt" x="442.02" y="629.61" width="2.83" height="5.67"/>
    </g>
    <g id="eh" data-name="LWPOLYLINE">
      <polyline class="jt" points="444 629.61 444 628.48 442.87 628.48 442.87 629.61"/>
    </g>
    <g id="ei" data-name="LINE">
      <line class="jt" x1="443.43" y1="628.48" x2="443.43" y2="626.78"/>
    </g>
    <g id="ej" data-name="LWPOLYLINE">
      <polyline class="jt" points="444.85 627.48 444.85 626.78 442.02 626.78 442.02 627.47"/>
    </g>
    <g id="ek" data-name="LWPOLYLINE">
      <rect class="jt" x="341.86" y="629.61" width="2.83" height="5.67"/>
    </g>
    <g id="el" data-name="LWPOLYLINE">
      <polyline class="jt" points="343.84 629.61 343.84 628.48 342.71 628.48 342.71 629.61"/>
    </g>
    <g id="em" data-name="LINE">
      <line class="jt" x1="343.28" y1="628.48" x2="343.28" y2="626.78"/>
    </g>
    <g id="en" data-name="LWPOLYLINE">
      <polyline class="jt" points="344.69 627.48 344.69 626.78 341.86 626.78 341.86 627.47"/>
    </g>
    <g id="eo" data-name="LWPOLYLINE">
      <rect class="jt" x="141.54" y="781.26" width="2.83" height="5.67"/>
    </g>
    <g id="ep" data-name="LWPOLYLINE">
      <polyline class="jt" points="142.39 786.93 142.39 788.07 143.53 788.07 143.53 786.93"/>
    </g>
    <g id="eq" data-name="LINE">
      <line class="jt" x1="142.96" y1="788.07" x2="142.96" y2="789.77"/>
    </g>
    <g id="er" data-name="LWPOLYLINE">
      <polyline class="jt" points="141.54 789.07 141.54 789.77 144.38 789.77 144.38 789.08"/>
    </g>
    <g id="es" data-name="LWPOLYLINE">
      <rect class="jt" x="267.69" y="781.26" width="2.83" height="5.67"/>
    </g>
    <g id="et" data-name="LWPOLYLINE">
      <polyline class="jt" points="268.54 786.93 268.54 788.07 269.67 788.07 269.67 786.93"/>
    </g>
    <g id="eu" data-name="LINE">
      <line class="jt" x1="269.1" y1="788.07" x2="269.1" y2="789.77"/>
    </g>
    <g id="ev" data-name="LWPOLYLINE">
      <polyline class="jt" points="267.69 789.07 267.69 789.77 270.52 789.77 270.52 789.08"/>
    </g>
    <g id="ew" data-name="LWPOLYLINE">
      <rect class="jt" x="438.05" y="655.12" width="2.83" height="8.5"/>
    </g>
    <g id="ex" data-name="LWPOLYLINE">
      <rect class="jt" x="382.49" y="629.61" width="2.83" height="5.67"/>
    </g>
    <g id="ey" data-name="LWPOLYLINE">
      <polyline class="jt" points="384.47 629.61 384.47 628.48 383.34 628.48 383.34 629.61"/>
    </g>
    <g id="ez" data-name="LINE">
      <line class="jt" x1="383.91" y1="628.48" x2="383.91" y2="626.78"/>
    </g>
    <g id="fa" data-name="LWPOLYLINE">
      <polyline class="jt" points="385.32 627.48 385.32 626.78 382.49 626.78 382.49 627.47"/>
    </g>
    <g id="fb" data-name="LWPOLYLINE">
      <rect class="jt" x="435.78" y="626.78" width="3.4" height="3.4"/>
    </g>
    <g id="fc" data-name="LWPOLYLINE">
      <rect class="jt" x="388.16" y="626.78" width="3.4" height="3.4"/>
    </g>
    <g id="fd" data-name="LWPOLYLINE">
      <rect class="jt" x="270.99" y="694.81" width="2.83" height="5.67"/>
    </g>
    <g id="fe" data-name="LWPOLYLINE">
      <rect class="jt" x="307.84" y="694.81" width="2.83" height="5.67"/>
    </g>
    <g id="ff" data-name="LWPOLYLINE">
      <rect class="jt" x="273.83" y="694.81" width="34.02" height="1.7"/>
    </g>
    <g id="fg" data-name="LWPOLYLINE">
      <rect class="jt" x="385.32" y="629.61" width="2.83" height="5.67"/>
    </g>
    <g id="fh" data-name="LWPOLYLINE">
      <polyline class="jt" points="387.31 629.61 387.31 628.48 386.17 628.48 386.17 629.61"/>
    </g>
    <g id="fi" data-name="LINE">
      <line class="jt" x1="386.74" y1="628.48" x2="386.74" y2="626.78"/>
    </g>
    <g id="fj" data-name="LWPOLYLINE">
      <polyline class="jt" points="388.16 627.48 388.16 626.78 385.32 626.78 385.32 627.47"/>
    </g>
    <g id="fk" data-name="LWPOLYLINE">
      <rect class="jt" x="439.18" y="629.61" width="2.83" height="5.67"/>
    </g>
    <g id="fl" data-name="LWPOLYLINE">
      <polyline class="jt" points="441.17 629.61 441.17 628.48 440.03 628.48 440.03 629.61"/>
    </g>
    <g id="fm" data-name="LINE">
      <line class="jt" x1="440.6" y1="628.48" x2="440.6" y2="626.78"/>
    </g>
    <g id="fn" data-name="LWPOLYLINE">
      <polyline class="jt" points="442.02 627.48 442.02 626.78 439.18 626.78 439.18 627.47"/>
    </g>
    <g id="fo" data-name="LINE">
      <line class="jt" x1="301.7" y1="781.26" x2="382.21" y2="781.26"/>
    </g>
    <g id="fp" data-name="LINE">
      <line class="jt" x1="385.04" y1="781.26" x2="426.43" y2="781.26"/>
    </g>
    <g id="fq" data-name="LINE">
      <line class="jt" x1="301.7" y1="789.77" x2="382.21" y2="789.77"/>
    </g>
    <g id="fr" data-name="LINE">
      <line class="jt" x1="385.04" y1="789.77" x2="426.43" y2="789.77"/>
    </g>
    <g id="fs" data-name="LINE">
      <line class="jt" x1="460.44" y1="781.26" x2="610.68" y2="781.26"/>
    </g>
    <g id="ft" data-name="LINE">
      <line class="jt" x1="460.44" y1="789.77" x2="610.68" y2="789.77"/>
    </g>
    <g id="fu" data-name="LINE">
      <line class="jt" x1="638.37" y1="781.51" x2="731.06" y2="700.22"/>
    </g>
    <g id="fv" data-name="LINE">
      <line class="jt" x1="736.68" y1="706.6" x2="643.99" y2="787.9"/>
    </g>
    <g id="fw" data-name="LINE">
      <line class="jt" x1="152.88" y1="781.26" x2="267.69" y2="781.26"/>
    </g>
    <g id="fx" data-name="LINE">
      <line class="jt" x1="144.38" y1="789.77" x2="267.69" y2="789.77"/>
    </g>
    <g id="fy" data-name="LWPOLYLINE">
      <polyline class="jt" points="629.1 635.28 730.3 635.28 730.3 673.55"/>
    </g>
    <g id="fz" data-name="LINE">
      <line class="jt" x1="626.27" y1="635.28" x2="444.85" y2="635.28"/>
    </g>
    <g id="ga" data-name="LINE">
      <line class="jt" x1="626.27" y1="626.78" x2="444.85" y2="626.78"/>
    </g>
    <g id="gb" data-name="LINE">
      <line class="jt" x1="391.56" y1="626.78" x2="435.78" y2="626.78"/>
    </g>
    <g id="gc" data-name="LINE">
      <line class="jt" x1="435.78" y1="630.18" x2="391.56" y2="630.18"/>
    </g>
    <g id="gd" data-name="LINE">
      <line class="jt" x1="382.49" y1="635.28" x2="344.69" y2="635.28"/>
    </g>
    <g id="ge" data-name="LINE">
      <line class="jt" x1="382.49" y1="626.78" x2="344.69" y2="626.78"/>
    </g>
    <g id="gf" data-name="LWPOLYLINE">
      <polyline class="jt" points="629.1 626.78 738.8 626.78 738.8 673.55"/>
    </g>
    <g id="gg" data-name="LWPOLYLINE">
      <g>
        <line class="jl" x1="439.75" y1="655.12" x2="440.75" y2="655.12"/>
        <line class="jo" x1="441.76" y1="655.12" x2="483.6" y2="655.12"/>
        <polyline class="jl" points="484.1 655.12 485.1 655.12 485.1 655.69 484.1 655.69"/>
        <line class="jo" x1="483.09" y1="655.69" x2="441.25" y2="655.69"/>
        <line class="jl" x1="440.75" y1="655.69" x2="439.75" y2="655.69"/>
      </g>
    </g>
    <g id="gh" data-name="ARC">
      <g>
        <path class="jl" d="M439.75,700.48c.33,0,.67,0,1-.01"/>
        <path class="kb" d="M441.74,700.43c23.63-1.02,42.57-20.12,43.34-43.82"/>
        <path class="jl" d="M485.09,656.12c0-.33.01-.67.01-1"/>
      </g>
    </g>
    <g id="gi" data-name="LWPOLYLINE">
      <g>
        <polyline class="jl" points="439.18 625.78 439.18 626.78 438.18 626.78"/>
        <polyline class="jl" points="436.78 626.78 435.78 626.78 435.78 625.78"/>
        <line class="jy" x1="435.78" y1="624.78" x2="435.78" y2="577.25"/>
        <polyline class="jl" points="435.78 576.75 435.78 575.75 436.78 575.75"/>
        <polyline class="jl" points="438.18 575.75 439.18 575.75 439.18 576.75"/>
        <line class="jy" x1="439.18" y1="577.75" x2="439.18" y2="625.28"/>
      </g>
    </g>
    <g id="gj" data-name="ARC">
      <g>
        <path class="jl" d="M439.18,575.75c-.33,0-.67,0-1,0"/>
        <path class="jp" d="M437.19,575.79c-26.76,1.03-48.24,22.66-49.01,49.49"/>
        <path class="jl" d="M388.17,625.78c0,.33,0,.67,0,1"/>
      </g>
    </g>
    <g id="gk" data-name="LWPOLYLINE">
      <g>
        <polyline class="jl" points="307.84 693.81 307.84 694.81 306.14 694.81 306.14 693.81"/>
        <line class="ke" x1="306.14" y1="692.78" x2="306.14" y2="662.31"/>
        <polyline class="jl" points="306.14 661.79 306.14 660.79 307.84 660.79 307.84 661.79"/>
        <line class="ke" x1="307.84" y1="662.83" x2="307.84" y2="693.29"/>
      </g>
    </g>
    <g id="gl" data-name="ARC">
      <g>
        <path class="jl" d="M307.84,660.79c-.33,0-.67,0-1,.01"/>
        <path class="kd" d="M305.86,660.85c-17.37,1-31.24,15.03-32,32.46"/>
        <path class="jl" d="M273.84,693.81c0,.33-.01.67-.01,1"/>
      </g>
    </g>
    <g id="gm" data-name="CIRCLE">
      <circle class="jl" cx="225.17" cy="734.49" r="1.42"/>
    </g>
    <g id="gn" data-name="LWPOLYLINE">
      <polyline class="jl" points="198.24 648.6 198.24 734.49 225.17 734.49"/>
    </g>
    <g id="go" data-name="LWPOLYLINE">
      <polyline class="jl" points="201.44 651.81 198.24 648.6 195.03 651.81"/>
    </g>
    <g id="gp" data-name="LWPOLYLINE">
      <path class="jl" d="M353.54,668.53h-9.13v2.72h9.13c.75,0,1.36-.61,1.36-1.36s-.61-1.36-1.36-1.36Z"/>
    </g>
    <g id="gq" data-name="LWPOLYLINE">
      <polyline class="jl" points="347.53 668.53 347.53 652.03 373.04 652.03 373.04 687.75 347.53 687.75 347.53 671.25"/>
    </g>
    <g id="gr" data-name="LWPOLYLINE">
      <polyline class="jl" points="341.86 700.48 375.87 700.48 375.87 635.28"/>
    </g>
    <g id="gs" data-name="LWPOLYLINE">
      <path class="jl" d="M261.17,680.07h-28.63v-24.38h28.63c6.73,0,12.19,5.46,12.19,12.19s-5.46,12.19-12.19,12.19Z"/>
    </g>
    <g id="gt" data-name="LINE">
      <line class="jl" x1="310.68" y1="694.81" x2="310.68" y2="640.95"/>
    </g>
    <g id="gu" data-name="LWPOLYLINE">
      <rect class="jl" x="318.39" y="679.77" width="2.27" height="8.5"/>
    </g>
    <g id="gv" data-name="LWPOLYLINE">
      <polyline class="jl" points="320.66 685.44 328.03 685.44 328.03 659.36 312.72 659.36 312.72 685.44 318.39 685.44"/>
    </g>
    <g id="gw" data-name="LWPOLYLINE">
      <polygon class="jl" points="737.1 621.96 737.1 456.98 495.31 456.98 495.31 459.25 734.84 459.25 734.84 621.96 737.1 621.96"/>
    </g>
    <g id="gx" data-name="LINE">
      <line class="jl" x1="613.51" y1="778.43" x2="457.61" y2="778.43"/>
    </g>
    <g id="gy" data-name="LINE">
      <line class="jl" x1="429.26" y1="778.43" x2="298.87" y2="778.43"/>
    </g>
    <g id="gz" data-name="LINE">
      <line class="jl" x1="727.47" y1="676.38" x2="727.47" y2="635.28"/>
    </g>
    <g id="ha" data-name="LINE">
      <line class="jl" x1="439.18" y1="635.28" x2="388.16" y2="635.28"/>
    </g>
    <g id="hb" data-name="LWPOLYLINE">
      <polyline class="jl" points="230.84 626.78 230.84 467.75 135.87 467.75 135.87 626.78"/>
    </g>
    <g id="hc" data-name="LWPOLYLINE">
      <polyline class="jl" points="738.8 626.78 738.8 455.28 494.17 455.28 494.17 467.75"/>
    </g>
    <g id="hd" data-name="LWPOLYLINE">
      <polyline class="jl" points="230.84 481.93 508.35 481.93 508.35 467.75 230.84 467.75"/>
    </g>
    <g id="he" data-name="LINE">
      <line class="jl" x1="169.89" y1="773.5" x2="280.44" y2="773.5"/>
    </g>
    <g id="hf" data-name="LINE">
      <line class="jl" x1="169.89" y1="766.35" x2="280.44" y2="766.35"/>
    </g>
    <g id="hg" data-name="LINE">
      <line class="jl" x1="162.07" y1="649.45" x2="162.07" y2="765.67"/>
    </g>
    <g id="hh" data-name="LINE">
      <line class="jl" x1="169.21" y1="649.45" x2="169.21" y2="765.67"/>
    </g>
    <g id="hi" data-name="LWPOLYLINE">
      <polyline class="jl" points="727.47 626.78 727.47 467.75 508.35 467.75"/>
    </g>
    <g id="hj" data-name="LINE">
      <line class="jl" x1="637.58" y1="778.43" x2="727.47" y2="699.6"/>
    </g>
    <g id="hk" data-name="LWPOLYLINE">
      <rect class="ka" x="439.18" y="765.67" width="8.5" height="8.5"/>
    </g>
    <g id="hl" data-name="LWPOLYLINE">
      <rect class="ka" x="439.86" y="766.35" width="7.14" height="7.14"/>
    </g>
    <g id="hm" data-name="LWPOLYLINE">
      <rect class="ka" x="623.43" y="765.67" width="8.5" height="8.5"/>
    </g>
    <g id="hn" data-name="LWPOLYLINE">
      <rect class="ka" x="624.11" y="766.35" width="7.14" height="7.14"/>
    </g>
    <g id="ho" data-name="LWPOLYLINE">
      <rect class="ka" x="714.71" y="686.3" width="8.5" height="8.5"/>
    </g>
    <g id="hp" data-name="LWPOLYLINE">
      <rect class="ka" x="715.39" y="686.98" width="7.14" height="7.14"/>
    </g>
    <g id="hq" data-name="LWPOLYLINE">
      <rect class="ka" x="161.39" y="765.67" width="8.5" height="8.5"/>
    </g>
    <g id="hr" data-name="LWPOLYLINE">
      <rect class="ka" x="162.07" y="766.35" width="7.14" height="7.14"/>
    </g>
    <g id="hs" data-name="LWPOLYLINE">
      <rect class="ka" x="280.44" y="765.67" width="8.5" height="8.5"/>
    </g>
    <g id="ht" data-name="LWPOLYLINE">
      <rect class="ka" x="281.12" y="766.35" width="7.14" height="7.14"/>
    </g>
    <g id="hu" data-name="LWPOLYLINE">
      <rect class="ka" x="714.71" y="640.95" width="8.5" height="8.5"/>
    </g>
    <g id="hv" data-name="LWPOLYLINE">
      <rect class="ka" x="715.39" y="641.63" width="7.14" height="7.14"/>
    </g>
    <g id="hw" data-name="LWPOLYLINE">
      <rect class="ka" x="623.43" y="640.95" width="8.5" height="8.5"/>
    </g>
    <g id="hx" data-name="LWPOLYLINE">
      <rect class="ka" x="624.11" y="641.63" width="7.14" height="7.14"/>
    </g>
    <g id="hy" data-name="LWPOLYLINE">
      <rect class="ka" x="439.18" y="640.95" width="8.5" height="8.5"/>
    </g>
    <g id="hz" data-name="LWPOLYLINE">
      <rect class="ka" x="439.86" y="641.63" width="7.14" height="7.14"/>
    </g>
    <g id="ia" data-name="LWPOLYLINE">
      <rect class="ka" x="280.44" y="640.95" width="8.5" height="8.5"/>
    </g>
    <g id="ib" data-name="LWPOLYLINE">
      <rect class="ka" x="281.12" y="641.63" width="7.14" height="7.14"/>
    </g>
    <g id="ic" data-name="LWPOLYLINE">
      <rect class="ka" x="161.39" y="640.95" width="8.5" height="8.5"/>
    </g>
    <g id="id" data-name="LWPOLYLINE">
      <rect class="ka" x="162.07" y="641.63" width="7.14" height="7.14"/>
    </g>
    <g id="ie" data-name="LWPOLYLINE">
      <rect class="ka" x="429.26" y="789.77" width="28.35" height="14.17"/>
    </g>
    <g id="if" data-name="LWPOLYLINE">
      <rect class="ka" x="613.51" y="789.77" width="28.35" height="14.17"/>
    </g>
    <g id="ig" data-name="LWPOLYLINE">
      <rect class="ka" x="270.52" y="789.77" width="28.35" height="14.17"/>
    </g>
    <g id="ih" data-name="LWPOLYLINE">
      <rect class="ka" x="738.8" y="676.38" width="14.17" height="28.35"/>
    </g>
    <g id="ii" data-name="LINE">
      <line class="jn" x1="152.88" y1="629.61" x2="341.86" y2="629.61"/>
    </g>
    <g id="ij" data-name="LINE">
      <line class="jn" x1="152.88" y1="635.28" x2="341.86" y2="635.28"/>
    </g>
    <g id="ik" data-name="LWPOLYLINE">
      <polyline class="kc" points="341.86 626.78 135.87 626.78 135.87 789.77 141.54 789.77"/>
    </g>
    <g id="il" data-name="LWPOLYLINE">
      <polyline class="kc" points="152.88 640.95 225.17 640.95 225.17 700.48 270.99 700.48"/>
    </g>
    <g id="im" data-name="LWPOLYLINE">
      <polyline class="kc" points="270.99 694.81 230.84 694.81 230.84 640.95 336.19 640.95 336.19 694.81 310.68 694.81"/>
    </g>
    <g id="in" data-name="LWPOLYLINE">
      <polyline class="kc" points="738.8 676.38 727.47 676.38 727.47 699.6 731.76 699.6"/>
    </g>
    <g id="io" data-name="LWPOLYLINE">
      <polyline class="kc" points="613.51 789.77 613.51 778.43 637.58 778.43 637.58 782.2"/>
    </g>
    <g id="ip" data-name="LWPOLYLINE">
      <polyline class="kc" points="457.61 789.77 457.61 778.43 429.26 778.43 429.26 789.77"/>
    </g>
    <g id="iq" data-name="LWPOLYLINE">
      <rect class="kc" x="438.61" y="701.04" width="5.67" height="42.52"/>
    </g>
    <g id="ir" data-name="LWPOLYLINE">
      <polyline class="kc" points="310.68 700.48 341.86 700.48 341.86 635.28"/>
    </g>
    <g id="is" data-name="LWPOLYLINE">
      <rect class="kc" x="141.54" y="629.61" width="11.34" height="151.65"/>
    </g>
    <g id="it" data-name="LWPOLYLINE">
      <polyline class="kc" points="298.87 789.77 298.87 778.43 270.52 778.43 270.52 789.77"/>
    </g>
  </g>
  <g id="iy" data-name="SCALE">
    <g>
      <g id="iz" data-name="CIRCLE">
        <circle class="jl" cx="69.24" cy="1074" r="14.88"/>
      </g>
      <g id="ja" data-name="TEXT">
        <path class="js" d="M78.85,1058.48l-.86-.35-1.27-8.05-2.62,6.47-.84-.34,3.28-8.1.87.35,1.26,8.02,2.61-6.45.84.34-3.28,8.1Z"/>
      </g>
      <g id="jb" data-name="HATCH">
        <path class="jm" d="M74.82,1060.21c-.23-.09-.46-.18-.7-.26l-5.57,13.78.69.28,5.58-13.8Z"/>
      </g>
      <g id="jc" data-name="HATCH">
        <path class="jm" d="M75.5,1060.5c-.23-.1-.45-.2-.69-.3l-5.58,13.8.69.28,5.57-13.78Z"/>
      </g>
      <g id="jd" data-name="LINE">
        <line class="jl" x1="74.12" y1="1059.94" x2="68.54" y2="1073.72"/>
      </g>
      <g id="je" data-name="LINE">
        <line class="jl" x1="75.5" y1="1060.5" x2="69.93" y2="1074.28"/>
      </g>
      <g id="jf" data-name="LINE">
        <line class="jl" x1="69.24" y1="1074" x2="74.82" y2="1060.21"/>
      </g>
      <g id="jg" data-name="MTEXT">
        <path class="js" d="M52.86,1145.9c-.63-.5-1.13-1.2-1.49-2.1-.36-.9-.54-1.92-.54-3.06s.18-2.14.54-3.04c.36-.9.85-1.59,1.49-2.1.63-.5,1.36-.75,2.17-.75s1.53.25,2.17.75c.63.5,1.13,1.2,1.49,2.1.36.9.54,1.91.54,3.04s-.18,2.16-.54,3.05c-.36.89-.85,1.59-1.49,2.1s-1.36.76-2.17.76-1.53-.25-2.17-.75ZM56.51,1144.86c.44-.41.78-.96,1.02-1.67.24-.71.36-1.52.36-2.44s-.12-1.73-.36-2.45c-.24-.71-.58-1.27-1.02-1.67-.44-.4-.93-.6-1.49-.6s-1.05.2-1.48.6c-.43.4-.77.96-1.02,1.67-.25.71-.37,1.53-.37,2.43s.12,1.75.37,2.46c.25.71.58,1.27,1.02,1.67s.93.61,1.48.61,1.05-.2,1.49-.61Z"/>
      </g>
      <g id="jh" data-name="MTEXT">
        <path class="js" d="M165.18,1144.72c.19-.17.42-.38.71-.64.93-.85,1.67-1.57,2.24-2.15.57-.58,1.05-1.17,1.44-1.78s.59-1.16.59-1.67c0-.48-.09-.9-.28-1.27s-.45-.66-.78-.86-.71-.31-1.15-.31c-.47,0-.93.16-1.37.48-.44.32-.78.73-1,1.23l-1.2-.51c.3-.7.78-1.28,1.46-1.73.67-.45,1.38-.67,2.11-.67.69,0,1.31.16,1.85.46.54.31.96.74,1.26,1.29.3.55.45,1.18.45,1.9s-.22,1.41-.67,2.14c-.45.73-.98,1.41-1.6,2.04-.62.63-1.42,1.39-2.42,2.27-.49.45-.95.88-1.39,1.3l-.94-.85c.28-.27.51-.49.7-.66ZM164.48,1145.38h7.22v1.18h-7.04l-.18-1.18Z"/>
      </g>
      <g id="ji" data-name="MTEXT">
        <path class="js" d="M111.84,1146.54h-1.34v-10.08l-1.86,1.2-.67-1.07,2.54-1.62h1.33v11.57Z"/>
      </g>
      <g id="jj" data-name="MTEXT">
        <g>
          <path class="js" d="M330.05,1139.31c.55-.25,1.08-.38,1.59-.38.77,0,1.45.16,2.06.49.6.33,1.07.78,1.41,1.35s.5,1.24.5,1.98-.17,1.43-.5,2.02-.8,1.05-1.4,1.38-1.29.5-2.07.5c-.6,0-1.16-.12-1.69-.38-.53-.25-.98-.6-1.34-1.05-.37-.45-.62-.95-.74-1.52l1.3-.3c.13.59.42,1.06.89,1.43.46.37.99.55,1.59.55.5,0,.95-.11,1.35-.34.4-.22.71-.54.94-.94.23-.41.34-.86.34-1.36s-.11-.95-.34-1.34c-.23-.39-.54-.69-.94-.91-.4-.22-.85-.33-1.35-.33-.33,0-.68.09-1.04.26-.36.18-.66.4-.9.68l-.99-.86c.34-.38.79-.7,1.34-.95ZM328.37,1140.93l.37-6.03h5.92v1.18h-4.64l-.32,5.04-1.33-.19Z"/>
          <path class="js" d="M346.78,1140.76c-.29-.34-.67-.5-1.13-.5-.35,0-.66.07-.94.22-.27.14-.49.34-.65.6-.16.26-.24.55-.24.88v4.58h-1.33v-4.45c0-.54-.14-.98-.43-1.32s-.66-.5-1.12-.5c-.34,0-.65.09-.94.26s-.5.42-.66.72c-.15.3-.23.63-.23.98v4.3h-1.33v-7.46h1.33v1.31l-.14-.05c.22-.37.52-.68.9-.91.37-.23.75-.35,1.14-.35.46,0,.9.13,1.32.38.42.26.74.59.95.99.25-.41.59-.74,1.04-.99.45-.26.9-.38,1.36-.38.55,0,1.05.13,1.49.38.44.25.78.59,1.02,1.02.25.43.37.93.37,1.5v4.56h-1.34v-4.45c0-.54-.15-.98-.44-1.32Z"/>
        </g>
      </g>
      <g id="jk" data-name="LWPOLYLINE">
        <polyline class="jl" points="337.82 1130.89 337.82 1113.88 167.74 1113.88 167.74 1130.89 111.05 1130.89 111.05 1113.88 54.35 1113.88 54.35 1130.89"/>
      </g>
    </g>
    <g>
      <g>
        <path class="jr" d="M820.6,1101.43v.55h-3.85v6.51h-.64v-7.06h4.49ZM819.39,1108.18c.66-.05,1.31-.15,1.97-.3l.1.56c-.68.15-1.36.25-2.02.3-.67.05-1.53.08-2.6.08h-.73v-.56h.73c1.04,0,1.9-.03,2.55-.08ZM822.97,1100.22v11.1h-.62v-11.1h.62ZM825.32,1104.89v.56h-2.56v-.56h2.56ZM825.74,1099.9v12.08h-.63v-12.08h.63Z"/>
        <path class="jr" d="M838.79,1109.84v.56h-10.96v-.56h10.96ZM837.67,1101.13v.56h-8.79v-.56h8.79ZM837.67,1105.99v.56h-8.78v-.56h8.78ZM831.58,1101.55v4.62h-.66v-4.62h.66ZM831.78,1106.43v3.58h-.66v-3.58h.66ZM835.43,1106.43v3.58h-.64v-3.58h.64ZM835.61,1101.55v4.62h-.63v-4.62h.63Z"/>
        <path class="jr" d="M843.98,1100.31v.92c0,.72-.15,1.4-.46,2.03-.31.63-.72,1.19-1.23,1.67-.51.48-1.08.84-1.69,1.11l-.35-.53c.57-.21,1.1-.54,1.58-.97.49-.43.88-.93,1.17-1.5.29-.57.44-1.17.44-1.8v-.92h.54ZM849.85,1106.93v2.63h-6.96v1.97h-.62v-2.49h6.94v-1.55h-6.99v-.56h7.62ZM850.34,1111.26v.55h-8.06v-.55h8.06ZM844.07,1100.31v.92c0,.59.15,1.16.45,1.7.3.55.7,1.02,1.19,1.42.49.4,1.02.71,1.58.92l-.34.52c-.62-.24-1.2-.59-1.71-1.04s-.93-.97-1.24-1.58c-.31-.61-.46-1.25-.46-1.95v-.92h.53ZM849.85,1099.9v6.36h-.64v-6.36h.64Z"/>
        <path class="jr" d="M820.59,1119.46v.55h-3.84v6.5h-.64v-7.04h4.48ZM819.36,1126.28c.63-.05,1.28-.15,1.93-.3l.08.56c-.66.15-1.31.25-1.95.29-.64.05-1.5.07-2.57.07h-.74v-.55h.74c1.04,0,1.87-.03,2.51-.08ZM819.96,1122.73v.55h-3.43v-.55h3.43ZM823.05,1122.61v.56h-2.37v-.56h2.37ZM823.36,1118.24v11.06h-.63v-11.06h.63ZM825.76,1117.9v12.08h-.63v-12.08h.63Z"/>
        <path class="jr" d="M833.68,1119.11v4.07h-4.71v3.51h-.63v-4.09h4.7v-2.94h-4.75v-.56h5.38ZM832.47,1126.33c.87-.07,1.76-.18,2.66-.35l.07.56c-.94.17-1.85.29-2.73.35-.88.07-1.95.1-3.22.1h-.91v-.56h.91c1.28,0,2.35-.03,3.22-.1ZM837,1117.9v12.08h-.64v-12.08h.64ZM839.14,1122.87v.57h-2.31v-.57h2.31Z"/>
        <path class="jr" d="M851.03,1127.67v.56h-10.96v-.56h10.96ZM845.73,1118.81v.98c0,.81-.25,1.56-.76,2.25s-1.12,1.27-1.86,1.74c-.74.47-1.45.79-2.14.98l-.31-.55c.61-.13,1.26-.41,1.97-.83.7-.42,1.3-.95,1.8-1.58.49-.63.74-1.3.74-2.01v-.98h.56ZM845.83,1118.81v.98c0,.71.25,1.38.74,2.01s1.1,1.16,1.81,1.59c.71.43,1.37.71,1.97.83l-.32.55c-.69-.19-1.4-.51-2.14-.98-.74-.47-1.36-1.05-1.87-1.74-.51-.69-.76-1.44-.76-2.25v-.98h.57Z"/>
        <path class="jr" d="M819.64,1144.81c1.27-.05,2.46-.15,3.58-.32l.06.5c-1.17.2-2.37.32-3.61.38-1.24.06-2.6.09-4.07.09l-.14-.59c1.52,0,2.92-.02,4.19-.07ZM822.94,1137.47v.55h-7.29v-.55h7.29ZM820.75,1139.16c.42.18.74.44.97.78s.35.73.35,1.18-.12.82-.35,1.15c-.23.33-.56.59-.97.77-.42.18-.9.27-1.45.27s-1.03-.09-1.45-.27c-.42-.18-.74-.44-.97-.77-.23-.33-.34-.72-.34-1.15s.12-.84.34-1.18.55-.59.97-.78c.42-.18.9-.27,1.45-.27s1.03.09,1.45.27ZM817.74,1139.88c-.4.31-.59.72-.59,1.21s.2.9.59,1.2.92.46,1.56.46,1.17-.15,1.56-.46.59-.71.59-1.2-.2-.9-.59-1.21-.92-.47-1.56-.47-1.16.16-1.56.47ZM819.64,1135.89v1.85h-.66v-1.85h.66ZM819.64,1143.14v1.96h-.66v-1.96h.66ZM824.69,1135.9v12.08h-.64v-12.08h.64ZM826.83,1141.19v.57h-2.3v-.57h2.3Z"/>
        <path class="jr" d="M831.55,1137.16v1.13c0,.7-.15,1.35-.44,1.96s-.7,1.13-1.2,1.58-1.07.78-1.69,1.01l-.34-.52c.57-.21,1.09-.51,1.57-.9s.86-.87,1.15-1.41c.29-.54.43-1.12.43-1.72v-1.13h.52ZM834.53,1136.85v.56h-6.41v-.56h6.41ZM835.41,1143.92c.58.16,1.03.4,1.34.72s.47.7.47,1.15c0,.68-.34,1.21-1.03,1.59s-1.64.57-2.86.57c-.8,0-1.5-.08-2.08-.25-.58-.17-1.03-.42-1.34-.74-.31-.33-.46-.71-.46-1.16s.15-.83.46-1.15.75-.56,1.34-.72c.58-.16,1.28-.25,2.08-.25s1.5.08,2.08.25ZM831.61,1144.41c-.49.13-.87.31-1.13.55s-.4.51-.4.83c0,.49.29.89.88,1.18s1.38.43,2.37.43,1.78-.14,2.37-.43.89-.68.89-1.18c0-.32-.14-.59-.41-.83-.27-.23-.65-.42-1.14-.55-.49-.13-1.06-.2-1.72-.2s-1.22.07-1.71.2ZM831.65,1137.16v1.12c0,.54.14,1.06.41,1.56.28.5.64.94,1.11,1.31.46.37.97.66,1.52.87l-.31.5c-.61-.22-1.16-.55-1.65-.97-.49-.42-.89-.91-1.18-1.47s-.43-1.16-.43-1.81v-1.12h.53ZM837.11,1135.9v7.36h-.64v-7.36h.64ZM839.03,1139.18v.56h-2.1v-.56h2.1Z"/>
        <path class="jr" d="M843.98,1136.31v.92c0,.72-.15,1.4-.46,2.03-.31.63-.72,1.19-1.23,1.67-.51.48-1.08.84-1.69,1.11l-.35-.53c.57-.21,1.1-.54,1.58-.97.49-.43.88-.93,1.17-1.5.29-.57.44-1.17.44-1.8v-.92h.54ZM849.85,1142.93v2.63h-6.96v1.97h-.62v-2.49h6.94v-1.55h-6.99v-.56h7.62ZM850.34,1147.26v.55h-8.06v-.55h8.06ZM844.07,1136.31v.92c0,.59.15,1.16.45,1.7.3.55.7,1.02,1.19,1.42.49.4,1.02.71,1.58.92l-.34.52c-.62-.24-1.2-.59-1.71-1.04s-.93-.97-1.24-1.58c-.31-.61-.46-1.25-.46-1.95v-.92h.53ZM849.85,1135.9v6.36h-.64v-6.36h.64Z"/>
      </g>
      <g>
        <path class="jr" d="M804.69,1111.05h-.67v-9.35l-1.26.87-.36-.49,1.62-1.13h.67v10.11Z"/>
        <path class="jr" d="M801.59,1127.81c.2-.19.43-.41.68-.65.84-.79,1.51-1.46,2.02-1.99.51-.53.94-1.09,1.31-1.67s.55-1.12.55-1.61-.09-.9-.28-1.27-.45-.67-.78-.88c-.33-.21-.71-.32-1.13-.32-.47,0-.91.16-1.34.48-.42.32-.75.73-.96,1.24l-.63-.27c.26-.61.66-1.1,1.2-1.48.54-.38,1.12-.57,1.72-.57.55,0,1.04.13,1.47.39.43.26.77.63,1.01,1.09.25.47.37.99.37,1.58s-.19,1.18-.57,1.81-.84,1.23-1.38,1.79c-.54.56-1.23,1.25-2.09,2.05-.59.55-1.04.98-1.36,1.3l-.48-.39c.23-.24.45-.46.65-.65ZM800.94,1128.46h6.02v.59h-5.94l-.08-.59Z"/>
        <path class="jr" d="M806.62,1142.75c.33.44.5.92.5,1.43,0,.57-.14,1.08-.41,1.53s-.65.8-1.13,1.06-1.03.38-1.64.38-1.17-.13-1.65-.38-.86-.6-1.13-1.06-.41-.96-.41-1.53h.67c0,.46.11.87.32,1.23s.51.64.9.84c.38.2.81.3,1.29.3s.92-.1,1.3-.29.68-.46.89-.79.32-.72.32-1.16-.11-.8-.32-1.13-.5-.59-.88-.78c-.38-.19-.8-.28-1.28-.28h-.41v-.62h.39c.45,0,.85-.09,1.21-.26s.64-.41.84-.72c.2-.31.3-.66.3-1.05,0-.6-.21-1.09-.64-1.47-.43-.38-.98-.57-1.65-.57-.44,0-.83.09-1.19.27-.36.18-.63.44-.82.77-.19.33-.29.71-.29,1.13h-.67c0-.53.13-1.01.38-1.43s.6-.75,1.05-.99c.45-.24.96-.36,1.54-.36s1.09.12,1.54.36c.45.24.8.57,1.05.99.25.42.38.9.38,1.43,0,.43-.15.85-.45,1.27s-.69.73-1.16.94c.5.19.92.5,1.25.94Z"/>
      </g>
    </g>
    <path class="jr" d="M568.47,685.44h-.58v-8.02l-1.08.74-.31-.42,1.39-.97h.58v8.66Z"/>
    <path class="jr" d="M448.92,539.97c.17-.16.37-.35.58-.56.72-.68,1.3-1.25,1.73-1.7.44-.46.81-.93,1.12-1.43.31-.5.47-.96.47-1.38s-.08-.77-.24-1.09c-.16-.32-.38-.57-.67-.75-.28-.18-.61-.27-.97-.27-.4,0-.78.14-1.15.41-.36.28-.64.63-.82,1.06l-.54-.23c.22-.52.57-.94,1.03-1.27.46-.33.96-.49,1.48-.49.47,0,.89.11,1.26.34s.66.54.87.94c.21.4.32.85.32,1.36s-.16,1.01-.49,1.55c-.33.54-.72,1.05-1.18,1.54s-1.06,1.07-1.79,1.76c-.5.47-.89.84-1.16,1.12l-.41-.34c.2-.21.39-.39.56-.56ZM448.36,540.52h5.16v.5h-5.09l-.07-.5Z"/>
    <path class="jr" d="M286.79,661.33c.28.38.43.78.43,1.22,0,.49-.12.93-.35,1.31-.23.39-.55.69-.97.91-.41.22-.88.32-1.41.32s-1-.11-1.41-.32-.73-.52-.97-.91c-.23-.39-.35-.83-.35-1.31h.58c0,.39.09.74.28,1.05.18.31.44.55.77.72.33.17.7.26,1.1.26s.79-.08,1.12-.25.58-.39.76-.68c.18-.29.27-.62.27-1s-.09-.68-.27-.97c-.18-.28-.43-.51-.76-.67-.32-.16-.69-.24-1.1-.24h-.35v-.53h.34c.38,0,.73-.07,1.04-.22.31-.15.55-.35.72-.62.17-.26.26-.56.26-.9,0-.51-.18-.93-.55-1.26-.37-.33-.84-.49-1.42-.49-.38,0-.72.08-1.02.23-.3.16-.54.38-.7.66-.16.28-.25.61-.25.97h-.58c0-.46.11-.86.32-1.22.22-.36.52-.64.9-.85.38-.2.82-.31,1.32-.31s.94.1,1.32.31c.38.2.68.49.9.85.22.36.32.77.32,1.22,0,.37-.13.73-.38,1.09-.26.36-.59.63-1,.81.43.16.79.43,1.07.8Z"/>
  </g>
</svg>