<?xml version="1.0" encoding="UTF-8"?>
<svg xmlns="http://www.w3.org/2000/svg" viewBox="0 0 900 1200">
  <defs>
    <style>
      .nk, .nl, .nm, .nn, .no, .np, .nq, .nr, .ns, .nt, .nu, .nv, .nw, .nx, .ny, .nz, .oa {
        stroke: #000;
      }

      .nk, .nl, .nm, .nn, .no, .np, .nq, .nt, .nu, .nv, .nw, .nx, .ny, .nz {
        fill: none;
      }

      .nk, .nl, .nm, .nn, .no, .np, .nq, .nt, .nu, .nv, .nw, .nx, .ny, .nz, .oa {
        stroke-miterlimit: 10;
      }

      .nk, .ns {
        stroke-width: .5px;
      }

      .nm {
        stroke-width: .75px;
      }

      .nn {
        stroke-width: .85px;
      }

      .no {
        stroke-dasharray: 2 1;
      }

      .no, .nt, .nw, .nz {
        stroke-width: .25px;
      }

      .np {
        stroke-dasharray: 1.97 .98;
      }

      .np, .nu {
        stroke-width: .4px;
      }

      .nq, .oa {
        stroke-width: .15px;
      }

      .nr {
        stroke-width: .34px;
      }

      .nt {
        stroke-dasharray: 1.98 .99;
      }

      .nv {
        stroke-width: 2px;
      }

      .nx {
        stroke-width: .6px;
      }

      .ny {
        stroke-width: .9px;
      }

      .nz {
        stroke-dasharray: 2.01 1;
      }

      .oa {
        fill: #d6d6d6;
        fill-rule: evenodd;
      }
    </style>
  </defs>
  <g id="aw" data-name="sec">
    <g id="ax" data-name="HATCH">
      <path class="oa" d="M241.65,499.9h368.5v-13.04h-5.67v5.67H247.32v-5.67h-5.67v13.04M241.65,336.63h368.5s0-7.37,0-7.37h-52.44v-10.77h-11.34v10.77h-144.57v-10.77h-8.5v10.77h-145.98s0-5.67,0-5.67h-5.67s0,13.04,0,13.04M604.49,647.31H247.32s0-5.67,0-5.67h-5.67v13.04h19.84v20.98h17.01v-20.98h192.76v20.98h17.01v-20.98h130.39v20.98s17.01,0,17.01,0v-34.02h-31.18v5.67M636.09,813.42H238.82v185.95s17.01,0,17.01,0v-17.01h215.43v17.01h17.01v-17.01h218.27v17.01h17.01v-185.95h-11.34v111.97h-19.46v8.5h-53.67v8.5s-15.02,0-15.02,0v8.5s-15.02,0-15.02,0v8.5s-15.02,0-15.02,0v11.62h-335.34v-7.09h-5.67v7.09h-2.83v-150.24h221.1v20.98h17.01v-20.98h147.83v-7.37M609.86,971.02l45.07-28.63h57.27v28.63h-102.34M401.81,177.89h-160.16v-5.67h160.16v5.67Z"/>
    </g>
    <g id="ay" data-name="HATCH">
      <path class="nq" d="M554.88,252.72h-5.67v65.76s5.67,0,5.67,0v-65.76M247.32,177.89h-5.67v25.51s5.67,0,5.67,0v-25.51M247.32,336.63h-5.67v26.65s5.67,0,5.67,0v-26.65M247.32,447.18h-5.67v39.69h5.67v-39.69M241.65,518.05h5.67v-18.14h-5.67v18.14M241.65,641.64h5.67v-39.69h-5.67v39.69M241.65,674.52h5.67v-19.84h-5.67v19.84M252.99,963.94h5.67v-143.15h-5.67v143.15M723.54,648.58h-11.34v164.84s11.34,0,11.34,0v-164.84Z"/>
      <path class="nq" d="M241.65,178.27l.38-.38M241.65,183.36l5.47-5.47M241.65,188.45l5.67-5.67M241.65,193.55l5.67-5.67M241.65,198.64l5.67-5.67M241.98,203.4l5.34-5.34M247.07,203.4l.25-.25M241.65,341.19l4.56-4.56M241.65,346.28l5.67-5.67M241.65,351.37l5.67-5.67M241.65,356.46l5.67-5.67M241.65,361.55l5.67-5.67M245.02,363.28l2.3-2.3M241.65,448.1l.92-.92M241.65,453.2l5.67-5.67M241.65,458.29l5.67-5.67M241.65,463.38l5.67-5.67M241.65,468.47l5.67-5.67M241.65,473.56l5.67-5.67M241.65,478.65l5.67-5.67M241.65,483.74l5.67-5.67M243.62,486.87l3.7-3.7M241.65,504.11l4.2-4.2M241.65,509.2l5.67-5.67M241.65,514.29l5.67-5.67M242.99,518.05l4.34-4.34M549.21,257.64l4.92-4.92M549.21,262.73l5.67-5.67M549.21,267.82l5.67-5.67M549.21,272.92l5.67-5.67M549.21,278.01l5.67-5.67M549.21,283.1l5.67-5.67M549.21,288.19l5.67-5.67M549.21,293.28l5.67-5.67M241.65,605.93l3.98-3.98M549.21,298.37l5.67-5.67M241.65,611.02l5.67-5.67M549.21,303.46l5.67-5.67M241.65,616.11l5.67-5.67M549.21,308.55l5.67-5.67M241.65,621.2l5.67-5.67M549.21,313.65l5.67-5.67M241.65,626.3l5.67-5.67M549.46,318.49l5.42-5.42M241.65,631.39l5.67-5.67M554.55,318.49l.33-.33M241.65,636.48l5.67-5.67M241.65,641.57l5.67-5.67M246.68,641.64l.65-.65M241.65,656.84l2.17-2.17M241.65,661.93l5.67-5.67M241.65,667.02l5.67-5.67M241.65,672.12l5.67-5.67M244.34,674.52l2.98-2.98M252.99,823.69l2.91-2.91M252.99,828.79l5.67-5.67M252.99,833.88l5.67-5.67M252.99,838.97l5.67-5.67M252.99,844.06l5.67-5.67M252.99,849.15l5.67-5.67M252.99,854.24l5.67-5.67M252.99,859.33l5.67-5.67M252.99,864.42l5.67-5.67M252.99,869.52l5.67-5.67M252.99,874.61l5.67-5.67M252.99,879.7l5.67-5.67M252.99,884.79l5.67-5.67M252.99,889.88l5.67-5.67M252.99,894.97l5.67-5.67M252.99,900.06l5.67-5.67M252.99,905.15l5.67-5.67M252.99,910.24l5.67-5.67M252.99,915.34l5.67-5.67M252.99,920.43l5.67-5.67M252.99,925.52l5.67-5.67M252.99,930.61l5.67-5.67M252.99,935.7l5.67-5.67M252.99,940.79l5.67-5.67M252.99,945.88l5.67-5.67M252.99,950.97l5.67-5.67M252.99,956.07l5.67-5.67M252.99,961.16l5.67-5.67M255.3,963.94l3.36-3.36M712.2,649.59l1.01-1.01M712.2,654.68l6.1-6.1M712.2,659.77l11.19-11.19M712.2,664.86l11.34-11.34M712.2,669.95l11.34-11.34M712.2,675.04l11.34-11.34M712.2,680.13l11.34-11.34M712.2,685.23l11.34-11.34M712.2,690.32l11.34-11.34M712.2,695.41l11.34-11.34M712.2,700.5l11.34-11.34M712.2,705.59l11.34-11.34M712.2,710.68l11.34-11.34M712.2,715.77l11.34-11.34M712.2,720.86l11.34-11.34M712.2,725.96l11.34-11.34M712.2,731.05l11.34-11.34M712.2,736.14l11.34-11.34M712.2,741.23l11.34-11.34M712.2,746.32l11.34-11.34M712.2,751.41l11.34-11.34M712.2,756.5l11.34-11.34M712.2,761.59l11.34-11.34M712.2,766.68l11.34-11.34M712.2,771.78l11.34-11.34M712.2,776.87l11.34-11.34M712.2,781.96l11.34-11.34M712.2,787.05l11.34-11.34M712.2,792.14l11.34-11.34M712.2,797.23l11.34-11.34M712.2,802.32l11.34-11.34M712.2,807.41l11.34-11.34M712.2,812.5l11.34-11.34M716.38,813.42l7.16-7.16M721.48,813.42l2.07-2.07"/>
    </g>
    <g id="az" data-name="LWPOLYLINE">
      <polyline class="nw" points="637.37 819.65 637.37 768.63 636.8 768.63 636.8 819.65"/>
    </g>
    <g id="ba" data-name="LWPOLYLINE">
      <rect class="nw" x="483.73" y="676.22" width=".57" height="134.93"/>
    </g>
    <g id="bb" data-name="LINE">
      <line class="nw" x1="241.09" y1="597.13" x2="241.09" y2="522.87"/>
    </g>
    <g id="bc" data-name="LINE">
      <line class="nw" x1="239.52" y1="596.28" x2="239.51" y2="523.72"/>
    </g>
    <g id="bd" data-name="LWPOLYLINE">
      <rect class="nw" x="561.4" y="832.69" width=".57" height="130.11"/>
    </g>
    <g id="be" data-name="LWPOLYLINE">
      <line class="nw" x1="634.97" y1="635.6" x2="712.16" y2="642.84"/>
    </g>
    <g id="bf" data-name="LWPOLYLINE">
      <line class="nw" x1="633.66" y1="637.36" x2="713.12" y2="644.81"/>
    </g>
    <g id="bg" data-name="LINE">
      <line class="nw" x1="241.09" y1="811.43" x2="241.09" y2="676.5"/>
    </g>
    <g id="bh" data-name="LINE">
      <line class="nw" x1="239.52" y1="810.58" x2="239.52" y2="677.35"/>
    </g>
    <g id="bi" data-name="LINE">
      <line class="nw" x1="241.09" y1="442.36" x2="241.09" y2="368.09"/>
    </g>
    <g id="bj" data-name="LINE">
      <line class="nw" x1="239.52" y1="441.51" x2="239.51" y2="368.94"/>
    </g>
    <g id="bk" data-name="LINE">
      <line class="nw" x1="399.54" y1="316.5" x2="399.54" y2="179.87"/>
    </g>
    <g id="bl" data-name="LINE">
      <line class="nw" x1="401.12" y1="180.72" x2="401.12" y2="315.65"/>
    </g>
    <g id="bm" data-name="LINE">
      <line class="nw" x1="241.09" y1="321.61" x2="241.09" y2="280.22"/>
    </g>
    <g id="bn" data-name="LINE">
      <line class="nw" x1="241.09" y1="279.09" x2="241.09" y2="207.09"/>
    </g>
    <g id="bo" data-name="LINE">
      <line class="nw" x1="239.52" y1="320.76" x2="239.52" y2="281.07"/>
    </g>
    <g id="bp" data-name="LINE">
      <line class="nw" x1="239.52" y1="278.24" x2="239.52" y2="207.94"/>
    </g>
    <g id="bq" data-name="LWPOLYLINE">
      <polyline class="nw" points="723.54 648.58 734.88 648.58 734.88 817.39"/>
    </g>
    <g id="br" data-name="LWPOLYLINE">
      <polyline class="nw" points="484.3 786.2 489.02 786.2 489.02 718.17 484.3 718.17"/>
    </g>
    <g id="bs" data-name="LWPOLYLINE">
      <polyline class="nw" points="484.3 719.59 487.61 719.59 487.61 784.79 484.3 784.79"/>
    </g>
    <g id="bt" data-name="LWPOLYLINE">
      <polyline class="nw" points="483.73 719.59 480.42 719.59 480.42 784.79 483.73 784.79"/>
    </g>
    <g id="bu" data-name="LWPOLYLINE">
      <polyline class="nw" points="483.73 786.2 479.01 786.2 479.01 718.17 483.73 718.17"/>
    </g>
    <g id="bv" data-name="LWPOLYLINE">
      <polyline class="nw" points="561.97 929.35 566.69 929.35 566.69 861.32 561.97 861.32"/>
    </g>
    <g id="bw" data-name="LWPOLYLINE">
      <polyline class="nw" points="561.97 862.74 565.28 862.74 565.28 927.94 561.97 927.94"/>
    </g>
    <g id="bx" data-name="LWPOLYLINE">
      <polyline class="nw" points="561.4 862.74 558.09 862.74 558.09 927.94 561.4 927.94"/>
    </g>
    <g id="by" data-name="LWPOLYLINE">
      <polyline class="nw" points="561.4 929.35 556.68 929.35 556.68 861.32 561.4 861.32"/>
    </g>
    <g id="bz" data-name="LWPOLYLINE">
      <rect class="nw" x="459.92" y="642.77" width="8.5" height="2.83"/>
    </g>
    <g id="ca" data-name="LWPOLYLINE">
      <polyline class="nw" points="468.99 510.68 468.99 645.04 472.68 645.04"/>
    </g>
    <g id="cb" data-name="LWPOLYLINE">
      <polyline class="nw" points="264.33 645.04 314.22 645.04 314.22 510.68"/>
    </g>
    <g id="cc" data-name="LWPOLYLINE">
      <polyline class="nw" points="365.24 510.68 365.24 645.04 315.35 645.04 315.35 510.68"/>
    </g>
    <g id="cd" data-name="LWPOLYLINE">
      <line class="nw" x1="468.43" y1="513.51" x2="468.43" y2="642.77"/>
    </g>
    <g id="ce" data-name="LWPOLYLINE">
      <polyline class="nw" points="459.92 645.04 417.4 645.04 417.4 510.68"/>
    </g>
    <g id="cf" data-name="LWPOLYLINE">
      <polyline class="nw" points="416.27 510.68 416.27 645.04 366.38 645.04 366.38 510.68"/>
    </g>
    <g id="cg" data-name="LWPOLYLINE">
      <rect class="nw" x="459.92" y="510.68" width="8.5" height="2.83"/>
    </g>
    <g id="ch" data-name="LWPOLYLINE">
      <rect class="nw" x="420.99" y="543.84" width="1.42" height="68.03"/>
    </g>
    <g id="ci" data-name="LWPOLYLINE">
      <line class="nw" x1="309.69" y1="766.36" x2="309.69" y2="675.65"/>
    </g>
    <g id="cj" data-name="LWPOLYLINE">
      <line class="nw" x1="342.57" y1="766.36" x2="342.57" y2="675.65"/>
    </g>
    <g id="ck" data-name="LWPOLYLINE">
      <line class="nw" x1="279.64" y1="684.16" x2="309.69" y2="684.16"/>
    </g>
    <g id="cl" data-name="LWPOLYLINE">
      <line class="nw" x1="309.69" y1="803.21" x2="279.64" y2="803.21"/>
    </g>
    <g id="cm" data-name="LWPOLYLINE">
      <polyline class="nw" points="279.64 685.86 307.98 685.86 307.98 801.51 279.64 801.51"/>
    </g>
    <g id="cn" data-name="LWPOLYLINE">
      <polyline class="nw" points="468.99 355.9 468.99 490.27 472.68 490.27"/>
    </g>
    <g id="co" data-name="LWPOLYLINE">
      <polyline class="nw" points="264.33 490.27 314.22 490.27 314.22 355.9"/>
    </g>
    <g id="cp" data-name="LWPOLYLINE">
      <polyline class="nw" points="365.24 355.9 365.24 490.27 315.35 490.27 315.35 355.9"/>
    </g>
    <g id="cq" data-name="LWPOLYLINE">
      <line class="nw" x1="468.43" y1="358.74" x2="468.43" y2="488"/>
    </g>
    <g id="cr" data-name="LWPOLYLINE">
      <polyline class="nw" points="459.92 490.27 417.4 490.27 417.4 355.9"/>
    </g>
    <g id="cs" data-name="LWPOLYLINE">
      <polyline class="nw" points="416.27 355.9 416.27 490.27 366.38 490.27 366.38 355.9"/>
    </g>
    <g id="ct" data-name="LWPOLYLINE">
      <rect class="nw" x="459.92" y="355.9" width="8.5" height="2.83"/>
    </g>
    <g id="cu" data-name="LWPOLYLINE">
      <rect class="nw" x="420.99" y="389.07" width="1.42" height="68.03"/>
    </g>
    <g id="cv" data-name="LWPOLYLINE">
      <rect class="nw" x="459.92" y="488" width="8.5" height="2.83"/>
    </g>
    <g id="cw" data-name="LINE">
      <line class="nw" x1="544.96" y1="251.02" x2="401.81" y2="251.02"/>
    </g>
    <g id="cx" data-name="LINE">
      <line class="nw" x1="544.96" y1="252.72" x2="401.81" y2="252.72"/>
    </g>
    <g id="cy" data-name="LWPOLYLINE">
      <line class="nw" x1="488.27" y1="844.31" x2="539.29" y2="844.31"/>
    </g>
    <g id="cz" data-name="LWPOLYLINE">
      <rect class="nw" x="489.97" y="846.02" width="47.62" height="115.65"/>
    </g>
    <g id="da" data-name="LWPOLYLINE">
      <rect class="nw" x="493.37" y="849.42" width="40.82" height="108.85"/>
    </g>
    <g id="db" data-name="LWPOLYLINE">
      <g>
        <line class="nw" x1="489.97" y1="846.02" x2="490.6" y2="846.79"/>
        <line class="no" x1="491.24" y1="847.56" x2="536.64" y2="902.68"/>
        <polyline class="nw" points="536.95 903.07 537.59 903.84 536.95 904.61"/>
        <line class="no" x1="536.32" y1="905.38" x2="490.92" y2="960.51"/>
        <line class="nw" x1="490.6" y1="960.9" x2="489.97" y2="961.67"/>
      </g>
    </g>
    <g id="dc" data-name="LWPOLYLINE">
      <g>
        <line class="nw" x1="279.64" y1="701.78" x2="280.2" y2="702.61"/>
        <line class="nt" x1="280.75" y1="703.43" x2="307.15" y2="742.45"/>
        <polyline class="nw" points="307.42 742.86 307.98 743.68 307.42 744.51"/>
        <line class="nt" x1="306.87" y1="745.33" x2="280.48" y2="784.35"/>
        <line class="nw" x1="280.2" y1="784.76" x2="279.64" y2="785.59"/>
      </g>
    </g>
    <g id="dd" data-name="LWPOLYLINE">
      <g>
        <line class="nw" x1="417.4" y1="510.68" x2="418.01" y2="511.47"/>
        <line class="nz" x1="418.61" y1="512.27" x2="467.52" y2="576.66"/>
        <polyline class="nw" points="467.82 577.06 468.43 577.86 467.82 578.65"/>
        <line class="nz" x1="467.21" y1="579.45" x2="418.31" y2="643.84"/>
        <line class="nw" x1="418.01" y1="644.24" x2="417.4" y2="645.04"/>
      </g>
    </g>
    <g id="de" data-name="LWPOLYLINE">
      <g>
        <line class="nw" x1="417.4" y1="355.91" x2="418.01" y2="356.7"/>
        <line class="nz" x1="418.61" y1="357.5" x2="467.52" y2="421.89"/>
        <polyline class="nw" points="467.82 422.29 468.43 423.09 467.82 423.88"/>
        <line class="nz" x1="467.21" y1="424.68" x2="418.31" y2="489.07"/>
        <line class="nw" x1="418.01" y1="489.47" x2="417.4" y2="490.27"/>
      </g>
    </g>
    <g id="df" data-name="LWPOLYLINE">
      <rect class="nw" x="364.96" y="324.16" width="8.5" height="2.83"/>
    </g>
    <g id="dg" data-name="LINE">
      <line class="nw" x1="373.46" y1="194.9" x2="373.46" y2="324.16"/>
    </g>
    <g id="dh" data-name="LWPOLYLINE">
      <rect class="nw" x="364.96" y="192.06" width="8.5" height="2.83"/>
    </g>
    <g id="di" data-name="LWPOLYLINE">
      <polyline class="nw" points="364.96 326.99 328.11 326.99 328.11 192.06 364.96 192.06"/>
    </g>
    <g id="dj" data-name="LWPOLYLINE">
      <rect class="nw" x="331.7" y="225.79" width="1.42" height="68.03"/>
    </g>
    <g id="dk" data-name="LWPOLYLINE">
      <polyline class="nw" points="379.13 192.06 374.03 192.06 374.03 326.99 379.13 326.99"/>
    </g>
    <g id="dl" data-name="LWPOLYLINE">
      <polyline class="nw" points="262.91 326.99 285.02 326.99 285.02 192.06 262.91 192.06"/>
    </g>
    <g id="dm" data-name="LWPOLYLINE">
      <rect class="nw" x="570.47" y="846.02" width="50.46" height="81.64"/>
    </g>
    <g id="dn" data-name="LINE">
      <line class="nw" x1="547.8" y1="847.15" x2="547.8" y2="926.52"/>
    </g>
    <g id="do" data-name="LWPOLYLINE">
      <rect class="nw" x="573.87" y="849.42" width="43.65" height="74.83"/>
    </g>
    <g id="dp" data-name="LWPOLYLINE">
      <rect class="nu" x="241.65" y="596.28" width="5.67" height="2.83"/>
    </g>
    <g id="dq" data-name="LWPOLYLINE">
      <polyline class="nu" points="241.65 597.13 240.52 597.13 240.52 598.27 241.65 598.27"/>
    </g>
    <g id="dr" data-name="LINE">
      <line class="nu" x1="240.52" y1="597.7" x2="238.82" y2="597.7"/>
    </g>
    <g id="ds" data-name="LWPOLYLINE">
      <polyline class="nu" points="239.52 596.28 238.82 596.28 238.82 599.12 239.51 599.12"/>
    </g>
    <g id="dt" data-name="LWPOLYLINE">
      <rect class="nu" x="241.65" y="674.52" width="5.67" height="2.83"/>
    </g>
    <g id="du" data-name="LWPOLYLINE">
      <polyline class="nu" points="241.65 675.37 240.52 675.37 240.52 676.5 241.65 676.5"/>
    </g>
    <g id="dv" data-name="LINE">
      <line class="nu" x1="240.52" y1="675.94" x2="238.82" y2="675.94"/>
    </g>
    <g id="dw" data-name="LWPOLYLINE">
      <polyline class="nu" points="239.52 674.52 238.82 674.52 238.82 677.35 239.51 677.35"/>
    </g>
    <g id="dx" data-name="LWPOLYLINE">
      <rect class="nu" x="241.65" y="810.58" width="5.67" height="2.83"/>
    </g>
    <g id="dy" data-name="LWPOLYLINE">
      <polyline class="nu" points="241.65 811.43 240.52 811.43 240.52 812.57 241.65 812.57"/>
    </g>
    <g id="dz" data-name="LINE">
      <line class="nu" x1="240.52" y1="812" x2="238.82" y2="812"/>
    </g>
    <g id="ea" data-name="LWPOLYLINE">
      <polyline class="nu" points="239.52 810.58 238.82 810.58 238.82 813.42 239.51 813.42"/>
    </g>
    <g id="eb" data-name="LWPOLYLINE">
      <rect class="nu" x="241.65" y="520.88" width="5.67" height="2.83"/>
    </g>
    <g id="ec" data-name="LWPOLYLINE">
      <polyline class="nu" points="241.65 521.73 240.52 521.73 240.52 522.87 241.65 522.87"/>
    </g>
    <g id="ed" data-name="LINE">
      <line class="nu" x1="240.52" y1="522.3" x2="238.82" y2="522.3"/>
    </g>
    <g id="ee" data-name="LWPOLYLINE">
      <polyline class="nu" points="239.52 520.88 238.82 520.88 238.82 523.72 239.51 523.72"/>
    </g>
    <g id="ef" data-name="LWPOLYLINE">
      <rect class="nu" x="241.65" y="441.51" width="5.67" height="2.83"/>
    </g>
    <g id="eg" data-name="LWPOLYLINE">
      <polyline class="nu" points="241.65 442.36 240.52 442.36 240.52 443.5 241.65 443.5"/>
    </g>
    <g id="eh" data-name="LINE">
      <line class="nu" x1="240.52" y1="442.93" x2="238.82" y2="442.93"/>
    </g>
    <g id="ei" data-name="LWPOLYLINE">
      <polyline class="nu" points="239.52 441.51 238.82 441.51 238.82 444.35 239.51 444.35"/>
    </g>
    <g id="ej" data-name="LWPOLYLINE">
      <rect class="nu" x="241.65" y="366.11" width="5.67" height="2.83"/>
    </g>
    <g id="ek" data-name="LWPOLYLINE">
      <polyline class="nu" points="241.65 366.96 240.52 366.96 240.52 368.09 241.65 368.09"/>
    </g>
    <g id="el" data-name="LINE">
      <line class="nu" x1="240.52" y1="367.53" x2="238.82" y2="367.53"/>
    </g>
    <g id="em" data-name="LWPOLYLINE">
      <polyline class="nu" points="239.52 366.11 238.82 366.11 238.82 368.94 239.51 368.94"/>
    </g>
    <g id="en" data-name="LWPOLYLINE">
      <rect class="nu" x="393.31" y="315.65" width="5.67" height="2.83"/>
    </g>
    <g id="eo" data-name="LWPOLYLINE">
      <polyline class="nu" points="398.98 317.64 400.11 317.64 400.11 316.5 398.98 316.5"/>
    </g>
    <g id="ep" data-name="LINE">
      <line class="nu" x1="400.11" y1="317.07" x2="401.81" y2="317.07"/>
    </g>
    <g id="eq" data-name="LWPOLYLINE">
      <polyline class="nu" points="401.11 318.49 401.81 318.49 401.81 315.65 401.12 315.65"/>
    </g>
    <g id="er" data-name="LWPOLYLINE">
      <rect class="nu" x="393.31" y="177.89" width="5.67" height="2.83"/>
    </g>
    <g id="es" data-name="LWPOLYLINE">
      <polyline class="nu" points="398.98 179.87 400.11 179.87 400.11 178.74 398.98 178.74"/>
    </g>
    <g id="et" data-name="LINE">
      <line class="nu" x1="400.11" y1="179.31" x2="401.81" y2="179.31"/>
    </g>
    <g id="eu" data-name="LWPOLYLINE">
      <polyline class="nu" points="401.11 180.72 401.81 180.72 401.81 177.89 401.12 177.89"/>
    </g>
    <g id="ev" data-name="LWPOLYLINE">
      <rect class="nu" x="241.65" y="320.76" width="5.67" height="2.83"/>
    </g>
    <g id="ew" data-name="LWPOLYLINE">
      <polyline class="nu" points="241.65 321.61 240.52 321.61 240.52 322.74 241.65 322.74"/>
    </g>
    <g id="ex" data-name="LINE">
      <line class="nu" x1="240.52" y1="322.17" x2="238.82" y2="322.17"/>
    </g>
    <g id="ey" data-name="LWPOLYLINE">
      <polyline class="nu" points="239.52 320.76 238.82 320.76 238.82 323.59 239.51 323.59"/>
    </g>
    <g id="ez" data-name="LWPOLYLINE">
      <rect class="nu" x="241.65" y="206.24" width="5.67" height="2.83"/>
    </g>
    <g id="fa" data-name="LWPOLYLINE">
      <polyline class="nu" points="241.65 207.09 240.52 207.09 240.52 208.22 241.65 208.22"/>
    </g>
    <g id="fb" data-name="LINE">
      <line class="nu" x1="240.52" y1="207.65" x2="238.82" y2="207.65"/>
    </g>
    <g id="fc" data-name="LWPOLYLINE">
      <polyline class="nu" points="239.52 206.24 238.82 206.24 238.82 209.07 239.51 209.07"/>
    </g>
    <g id="fd" data-name="LWPOLYLINE">
      <rect class="nu" x="241.65" y="278.24" width="5.67" height="2.83"/>
    </g>
    <g id="fe" data-name="LWPOLYLINE">
      <polyline class="nu" points="241.65 279.09 240.52 279.09 240.52 280.22 241.65 280.22"/>
    </g>
    <g id="ff" data-name="LINE">
      <line class="nu" x1="240.52" y1="279.65" x2="238.82" y2="279.65"/>
    </g>
    <g id="fg" data-name="LWPOLYLINE">
      <polyline class="nu" points="239.52 278.24 238.82 278.24 238.82 281.07 239.51 281.07"/>
    </g>
    <g id="fh" data-name="LINE">
      <line class="nu" x1="247.32" y1="523.72" x2="247.32" y2="596.28"/>
    </g>
    <g id="fi" data-name="LINE">
      <line class="nu" x1="238.82" y1="523.72" x2="238.82" y2="596.28"/>
    </g>
    <g id="fj" data-name="LINE">
      <line class="nu" x1="247.32" y1="677.35" x2="247.32" y2="810.58"/>
    </g>
    <g id="fk" data-name="LINE">
      <line class="nu" x1="238.82" y1="677.35" x2="238.82" y2="810.58"/>
    </g>
    <g id="fl" data-name="LINE">
      <line class="nu" x1="247.32" y1="368.94" x2="247.32" y2="441.51"/>
    </g>
    <g id="fm" data-name="LINE">
      <line class="nu" x1="238.82" y1="368.94" x2="238.82" y2="441.51"/>
    </g>
    <g id="fn" data-name="LINE">
      <line class="nu" x1="393.31" y1="315.65" x2="393.31" y2="191.5"/>
    </g>
    <g id="fo" data-name="LINE">
      <line class="nu" x1="401.81" y1="315.65" x2="401.81" y2="180.72"/>
    </g>
    <g id="fp" data-name="LINE">
      <line class="nu" x1="247.32" y1="207.94" x2="247.32" y2="278.24"/>
    </g>
    <g id="fq" data-name="LINE">
      <line class="nu" x1="247.32" y1="281.07" x2="247.32" y2="320.76"/>
    </g>
    <g id="fr" data-name="LINE">
      <line class="nu" x1="238.82" y1="207.94" x2="238.82" y2="278.24"/>
    </g>
    <g id="fs" data-name="LINE">
      <line class="nu" x1="238.82" y1="281.07" x2="238.82" y2="320.76"/>
    </g>
    <g id="ft" data-name="LWPOLYLINE">
      <polyline class="nu" points="224.65 675.65 224.65 811.72 238.82 811.72"/>
    </g>
    <g id="fu" data-name="LINE">
      <line class="nu" x1="587.48" y1="645.61" x2="587.48" y2="499.9"/>
    </g>
    <g id="fv" data-name="LINE">
      <line class="nu" x1="598.82" y1="645.61" x2="598.82" y2="500.19"/>
    </g>
    <g id="fw" data-name="LWPOLYLINE">
      <polyline class="nu" points="238.82 635.97 224.65 635.97 224.65 520.88"/>
    </g>
    <g id="fx" data-name="LWPOLYLINE">
      <polyline class="nu" points="453.12 766.36 309.69 766.36 309.69 811.72"/>
    </g>
    <g id="fy" data-name="LINE">
      <line class="nu" x1="453.12" y1="767.5" x2="309.69" y2="767.5"/>
    </g>
    <g id="fz" data-name="LINE">
      <line class="nu" x1="310.82" y1="767.5" x2="310.82" y2="811.72"/>
    </g>
    <g id="ga" data-name="LWPOLYLINE">
      <path class="nu" d="M450.79,766.36v-10.77c0-1.39-1.13-2.52-2.52-2.52h-6.24c-1.39,0-2.52,1.13-2.52,2.52v1.51h1.11v-1.23c0-.94.76-1.7,1.7-1.7h5.67c.94,0,1.7.76,1.7,1.7v10.49"/>
    </g>
    <g id="gb" data-name="LINE">
      <line class="nu" x1="587.48" y1="490.83" x2="587.48" y2="337.21"/>
    </g>
    <g id="gc" data-name="LINE">
      <line class="nu" x1="598.82" y1="490.83" x2="598.82" y2="337.21"/>
    </g>
    <g id="gd" data-name="LWPOLYLINE">
      <polyline class="nu" points="238.82 481.2 224.65 481.2 224.65 357.61"/>
    </g>
    <g id="ge" data-name="LINE">
      <line class="nu" x1="318.19" y1="963.37" x2="318.19" y2="841.76"/>
    </g>
    <g id="gf" data-name="LINE">
      <line class="nu" x1="310.82" y1="806.05" x2="453.12" y2="806.05"/>
    </g>
    <g id="gg" data-name="LINE">
      <line class="nu" x1="430.44" y1="806.05" x2="430.44" y2="767.5"/>
    </g>
    <g id="gh" data-name="LINE">
      <line class="nu" x1="407.76" y1="806.05" x2="407.76" y2="767.5"/>
    </g>
    <g id="gi" data-name="LINE">
      <line class="nu" x1="385.09" y1="806.05" x2="385.09" y2="767.5"/>
    </g>
    <g id="gj" data-name="LINE">
      <line class="nu" x1="362.41" y1="806.05" x2="362.41" y2="767.5"/>
    </g>
    <g id="gk" data-name="LINE">
      <line class="nu" x1="352.2" y1="919.15" x2="352.2" y2="963.37"/>
    </g>
    <g id="gl" data-name="LINE">
      <line class="nu" x1="352.2" y1="957.7" x2="454.25" y2="957.7"/>
    </g>
    <g id="gm" data-name="LWPOLYLINE">
      <polyline class="nu" points="454.25 918.02 352.2 918.02 352.2 919.15 454.25 919.15"/>
    </g>
    <g id="gn" data-name="LINE">
      <line class="nu" x1="386.98" y1="957.7" x2="386.98" y2="919.15"/>
    </g>
    <g id="go" data-name="LINE">
      <line class="nu" x1="420.61" y1="957.7" x2="420.61" y2="919.15"/>
    </g>
    <g id="gp" data-name="LWPOLYLINE">
      <polyline class="nu" points="224.65 206.24 224.65 317.92 238.82 317.92"/>
    </g>
    <g id="gq" data-name="LWPOLYLINE">
      <path class="nu" d="M421.08,918.02v-10.77c0-1.39-1.13-2.52-2.52-2.52h-6.24c-1.39,0-2.52,1.13-2.52,2.52v1.51h1.11v-1.23c0-.94.76-1.7,1.7-1.7h5.67c.94,0,1.7.76,1.7,1.7v10.49"/>
    </g>
    <g id="gr" data-name="LINE">
      <line class="nu" x1="352.2" y1="918.02" x2="352.2" y2="841.76"/>
    </g>
    <g id="gs" data-name="LINE">
      <line class="nu" x1="539.29" y1="847.15" x2="539.29" y2="926.52"/>
    </g>
    <g id="gt" data-name="LWPOLYLINE">
      <polyline class="nu" points="557.43 861.32 557.43 847.15 539.29 847.15 539.29 844.31 560.27 844.31"/>
    </g>
    <g id="gu" data-name="LWPOLYLINE">
      <polyline class="nu" points="556.68 929.35 539.29 929.35 539.29 926.52 556.68 926.52"/>
    </g>
    <g id="gv" data-name="LWPOLYLINE">
      <g>
        <line class="nu" x1="570.47" y1="846.02" x2="571.25" y2="846.64"/>
        <line class="np" x1="572.01" y1="847.26" x2="619.77" y2="885.9"/>
        <polyline class="nu" points="620.15 886.21 620.93 886.83 620.15 887.46"/>
        <line class="np" x1="619.39" y1="888.08" x2="571.63" y2="926.71"/>
        <line class="nu" x1="571.25" y1="927.02" x2="570.47" y2="927.65"/>
      </g>
    </g>
    <g id="gw" data-name="LWPOLYLINE">
      <polyline class="nw" points="328.11 192.63 373.46 259.53 328.11 326.99"/>
    </g>
    <g id="gx" data-name="LINE">
      <line class="nk" x1="638.08" y1="820.79" x2="709.37" y2="820.79"/>
    </g>
    <g id="gy" data-name="LWPOLYLINE">
      <polygon class="nk" points="639.64 802.08 639.64 644.75 706.54 651.03 706.54 802.08 639.64 802.08"/>
    </g>
    <g id="gz" data-name="LWPOLYLINE">
      <polyline class="nk" points="709.37 804.91 638.08 804.91 638.08 811.72"/>
    </g>
    <g id="ha" data-name="LINE">
      <line class="nk" x1="488.27" y1="800.38" x2="618.66" y2="800.38"/>
    </g>
    <g id="hb" data-name="LINE">
      <line class="nk" x1="547.23" y1="800.38" x2="547.23" y2="699.46"/>
    </g>
    <g id="hc" data-name="LINE">
      <line class="nk" x1="618.66" y1="699.46" x2="488.27" y2="699.46"/>
    </g>
    <g id="hd" data-name="LINE">
      <line class="nk" x1="517.75" y1="699.46" x2="517.75" y2="800.38"/>
    </g>
    <g id="he" data-name="LWPOLYLINE">
      <rect class="nk" x="482.6" y="808.88" width="2.83" height="2.83"/>
    </g>
    <g id="hf" data-name="LWPOLYLINE">
      <rect class="nk" x="482.6" y="675.65" width="2.83" height="2.83"/>
    </g>
    <g id="hg" data-name="LWPOLYLINE">
      <rect class="nk" x="560.27" y="960.53" width="2.83" height="2.83"/>
    </g>
    <g id="hh" data-name="LWPOLYLINE">
      <rect class="nk" x="560.27" y="832.13" width="2.83" height="2.83"/>
    </g>
    <g id="hi" data-name="LINE">
      <line class="nk" x1="510.94" y1="645.61" x2="510.94" y2="510.68"/>
    </g>
    <g id="hj" data-name="LINE">
      <line class="nk" x1="553.46" y1="510.68" x2="553.46" y2="645.61"/>
    </g>
    <g id="hk" data-name="LINE">
      <line class="nk" x1="532.2" y1="510.68" x2="532.2" y2="645.61"/>
    </g>
    <g id="hl" data-name="LINE">
      <line class="nk" x1="510.94" y1="490.83" x2="510.94" y2="355.9"/>
    </g>
    <g id="hm" data-name="LINE">
      <line class="nk" x1="553.46" y1="355.9" x2="553.46" y2="490.83"/>
    </g>
    <g id="hn" data-name="LINE">
      <line class="nk" x1="532.2" y1="355.92" x2="532.2" y2="490.83"/>
    </g>
    <g id="ho" data-name="LINE">
      <line class="nk" x1="285.59" y1="191.5" x2="285.59" y2="327.56"/>
    </g>
    <g id="hp" data-name="LINE">
      <line class="nk" x1="327.54" y1="191.5" x2="327.54" y2="327.56"/>
    </g>
    <g id="hq" data-name="LINE">
      <line class="nk" x1="539.29" y1="832.13" x2="539.29" y2="847.15"/>
    </g>
    <g id="hr" data-name="LINE">
      <line class="nk" x1="539.29" y1="929.35" x2="539.29" y2="963.37"/>
    </g>
    <g id="hs" data-name="LINE">
      <line class="nk" x1="568.77" y1="929.35" x2="566.69" y2="929.35"/>
    </g>
    <g id="ht" data-name="LINE">
      <line class="nk" x1="560.27" y1="844.31" x2="568.77" y2="844.31"/>
    </g>
    <g id="hu" data-name="LINE">
      <line class="nk" x1="622.63" y1="844.31" x2="622.63" y2="832.13"/>
    </g>
    <g id="hv" data-name="LINE">
      <line class="nk" x1="622.63" y1="929.35" x2="622.63" y2="937.86"/>
    </g>
    <g id="hw" data-name="LWPOLYLINE">
      <line class="nk" x1="233.72" y1="171.09" x2="395.01" y2="171.09"/>
    </g>
    <g id="hx" data-name="LWPOLYLINE">
      <line class="nk" x1="233.72" y1="170.52" x2="395.01" y2="170.52"/>
    </g>
    <g id="hy" data-name="LWPOLYLINE">
      <line class="nk" x1="233.72" y1="172.22" x2="233.72" y2="167.68"/>
    </g>
    <g id="hz" data-name="LWPOLYLINE">
      <line class="nk" x1="232.58" y1="172.22" x2="232.58" y2="167.68"/>
    </g>
    <g id="ia" data-name="LWPOLYLINE">
      <line class="nk" x1="396.14" y1="172.22" x2="396.14" y2="167.68"/>
    </g>
    <g id="ib" data-name="LWPOLYLINE">
      <line class="nk" x1="395.01" y1="172.22" x2="395.01" y2="167.68"/>
    </g>
    <g id="ic" data-name="LWPOLYLINE">
      <line class="nk" x1="557.72" y1="321.32" x2="625.46" y2="321.32"/>
    </g>
    <g id="id" data-name="LWPOLYLINE">
      <line class="nk" x1="557.72" y1="319.62" x2="625.46" y2="319.62"/>
    </g>
    <g id="ie" data-name="LWPOLYLINE">
      <line class="nk" x1="625.46" y1="323.59" x2="625.46" y2="317.35"/>
    </g>
    <g id="if" data-name="LWPOLYLINE">
      <line class="nk" x1="626.6" y1="323.59" x2="626.6" y2="317.35"/>
    </g>
    <g id="ig" data-name="LWPOLYLINE">
      <polyline class="nk" points="636.09 820.79 638.08 820.79 638.08 811.72 637.51 811.72 637.51 819.65 636.66 819.65 636.66 811.72 636.09 811.72 636.09 813.42"/>
    </g>
    <g id="ih" data-name="LWPOLYLINE">
      <rect class="nk" x="568.77" y="844.31" width="53.86" height="85.04"/>
    </g>
    <g id="ii" data-name="LWPOLYLINE">
      <polygon class="nx" points="634.72 637.63 634.74 637.46 635.86 637.56 635.49 641.52 635.32 641.5 635.68 637.72 634.72 637.63"/>
    </g>
    <g id="ij" data-name="LWPOLYLINE">
      <polygon class="nx" points="638.11 637.95 638.12 637.78 636.99 637.67 636.62 641.62 636.79 641.64 637.15 637.86 638.11 637.95"/>
    </g>
    <g id="ik" data-name="LWPOLYLINE">
      <polygon class="nx" points="708.75 644.57 708.77 644.4 709.9 644.51 709.53 648.46 709.36 648.44 709.71 644.66 708.75 644.57"/>
    </g>
    <g id="il" data-name="LWPOLYLINE">
      <polygon class="nx" points="712.14 644.89 712.16 644.72 711.03 644.61 710.66 648.56 710.83 648.58 711.18 644.8 712.14 644.89"/>
    </g>
    <g id="im" data-name="LWPOLYLINE">
      <polygon class="nx" points="713.23 644.82 713.12 644.81 713.29 642.94 712.16 642.84 712.17 642.73 713.41 642.84 713.23 644.82"/>
    </g>
    <g id="in" data-name="LWPOLYLINE">
      <polygon class="nx" points="633.55 637.35 633.66 637.36 633.84 635.5 634.97 635.6 634.98 635.49 633.74 635.37 633.55 637.35"/>
    </g>
    <g id="io" data-name="LWPOLYLINE">
      <polygon class="nx" points="712.53 645.18 712.53 648.58 718.2 648.58 718.2 645.18 718.03 645.18 718.03 648.41 712.7 648.41 712.7 645.18 712.53 645.18"/>
    </g>
    <g id="ip" data-name="LWPOLYLINE">
      <polygon class="nx" points="628.81 638.24 628.81 641.64 634.47 641.64 634.47 638.24 634.3 638.24 634.3 641.47 628.98 641.47 628.98 638.24 628.81 638.24"/>
    </g>
    <g id="iq" data-name="LWPOLYLINE">
      <path class="nx" d="M593.35,501.1v8.96c0,.34.28.62.62.62h4.85v.57h-11.34v-.57h4.85c.34,0,.62-.28.62-.62v-8.96c0-.34-.28-.62-.62-.62h-4.85s0-.57,0-.57h11.34v.57h-4.85c-.34,0-.62.28-.62.62Z"/>
    </g>
    <g id="ir" data-name="LWPOLYLINE">
      <path class="nx" d="M258.86,501.1v8.96c0,.34.28.62.62.62h4.85v.57h-11.34v-.57h4.85c.34,0,.62-.28.62-.62v-8.96c0-.34-.28-.62-.62-.62h-4.85v-.57h11.34v.57h-4.85c-.34,0-.62.28-.62.62Z"/>
    </g>
    <g id="is" data-name="LWPOLYLINE">
      <path class="nx" d="M472.68,499.9h14.17v.57h-6.26c-.34,0-.62.28-.62.62v11.79c0,.34.28.62.62.62h6.26v.57h-14.17v-.57h6.26c.34,0,.62-.28.62-.62v-11.79c0-.34-.28-.62-.62-.62h-6.26v-.57Z"/>
    </g>
    <g id="it" data-name="LWPOLYLINE">
      <path class="nx" d="M593.35,337.83v8.96c0,.34.28.62.62.62h4.85v.57h-11.34v-.57h4.85c.34,0,.62-.28.62-.62v-8.96c0-.34-.28-.62-.62-.62h-4.85v-.57h11.34v.57h-4.85c-.34,0-.62.28-.62.62Z"/>
    </g>
    <g id="iu" data-name="LWPOLYLINE">
      <path class="nx" d="M258.86,337.83v8.96c0,.34.28.62.62.62h4.85v.57h-11.34v-.57h4.85c.34,0,.62-.28.62-.62v-8.96c0-.34-.28-.62-.62-.62h-4.85v-.57h11.34v.57h-4.85c-.34,0-.62.28-.62.62Z"/>
    </g>
    <g id="iv" data-name="LWPOLYLINE">
      <path class="nx" d="M472.68,336.64h14.17v.57h-6.26c-.34,0-.62.28-.62.62v11.79c0,.34.28.62.62.62h6.26v.57h-14.17v-.57h6.26c.34,0,.62-.28.62-.62v-11.79c0-.34-.28-.62-.62-.62h-6.26v-.57Z"/>
    </g>
    <g id="iw" data-name="LWPOLYLINE">
      <path class="nx" d="M384.21,178.46c-.34,0-.62.28-.62.62v6.12c0,.34.28.62.62.62h3.43v.57h-8.5v-.57h3.43c.34,0,.62-.28.62-.62v-6.12c0-.34-.28-.62-.62-.62h-3.43v-.57h8.5v.57s-3.43,0-3.43,0Z"/>
    </g>
    <g id="ix" data-name="LWPOLYLINE">
      <path class="nx" d="M259.48,178.46c-.34,0-.62.28-.62.62v6.12c0,.34.28.62.62.62h3.43v.57h-8.5v-.57h3.43c.34,0,.62-.28.62-.62v-6.12c0-.34-.28-.62-.62-.62h-3.43v-.57h8.5v.57h-3.43Z"/>
    </g>
    <g id="iy" data-name="LWPOLYLINE">
      <path class="nx" d="M593.97,395.32c-.34,0-.62.28-.62.62v6.12c0,.34.28.62.62.62h3.43v.57h-8.5v-.57h3.43c.34,0,.62-.28.62-.62v-6.12c0-.34-.28-.62-.62-.62h-3.43v-.57h8.5v.57h-3.43Z"/>
    </g>
    <g id="iz" data-name="LWPOLYLINE">
      <path class="nx" d="M593.97,436.13c-.34,0-.62.28-.62.62v6.12c0,.34.28.62.62.62h3.43v.57h-8.5v-.57h3.43c.34,0,.62-.28.62-.62v-6.12c0-.34-.28-.62-.62-.62h-3.43v-.57h8.5v.57h-3.43Z"/>
    </g>
    <g id="ja" data-name="LWPOLYLINE">
      <path class="nx" d="M593.97,547.24c-.34,0-.62.28-.62.62v6.12c0,.34.28.62.62.62h3.43v.57h-8.5v-.57h3.43c.34,0,.62-.28.62-.62v-6.12c0-.34-.28-.62-.62-.62h-3.43v-.57h8.5v.57h-3.43Z"/>
    </g>
    <g id="jb" data-name="LWPOLYLINE">
      <path class="nx" d="M593.97,590.9c-.34,0-.62.28-.62.62v6.12c0,.34.28.62.62.62h3.43v.57h-8.5v-.57h3.43c.34,0,.62-.28.62-.62v-6.12c0-.34-.28-.62-.62-.62h-3.43v-.57h8.5v.57h-3.43Z"/>
    </g>
    <g id="jc" data-name="LWPOLYLINE">
      <polyline class="nx" points="590.6 963.37 590.6 954.87 605.62 954.87 605.62 946.36 620.65 946.36 620.65 937.86 635.67 937.86 635.67 929.35 689.34 929.35 689.34 920.85 709.37 920.85"/>
    </g>
    <g id="jd" data-name="LWPOLYLINE">
      <polyline class="nx" points="592.3 963.37 592.3 956.57 607.32 956.57 607.32 948.06 622.35 948.06 622.35 939.56 637.37 939.56 637.37 931.05 691.04 931.05 691.04 922.55 709.37 922.55"/>
    </g>
    <g id="je" data-name="LWPOLYLINE">
      <polyline class="nx" points="238.82 674.52 238.82 675.65 224.65 675.65 224.65 641.64 238.82 641.64"/>
    </g>
    <g id="jf" data-name="LWPOLYLINE">
      <polyline class="nx" points="241.65 520.88 224.65 520.88 224.65 486.87 238.82 486.87"/>
    </g>
    <g id="jg" data-name="LWPOLYLINE">
      <polyline class="nx" points="238.82 357.61 224.65 357.61 224.65 323.59 238.82 323.59"/>
    </g>
    <g id="jh" data-name="LWPOLYLINE">
      <polyline class="nx" points="616.96 520.88 631.13 520.88 631.13 486.87 616.96 486.87"/>
    </g>
    <g id="ji" data-name="LWPOLYLINE">
      <polyline class="nx" points="616.96 357.61 631.13 357.61 631.13 323.59 616.96 323.59 616.96 329.26"/>
    </g>
    <g id="jj" data-name="LWPOLYLINE">
      <polyline class="nx" points="238.82 206.24 224.65 206.24 224.65 172.22 241.65 172.22"/>
    </g>
    <g id="jk" data-name="LWPOLYLINE">
      <rect class="nx" x="224.65" y="166.55" width="183.23" height="1.13"/>
    </g>
    <g id="jl" data-name="LINE">
      <line class="nx" x1="401.81" y1="318.49" x2="546.38" y2="318.49"/>
    </g>
    <g id="jm" data-name="LWPOLYLINE">
      <polyline class="nx" points="557.72 316.22 631.13 316.22 631.13 317.35 557.72 317.35"/>
    </g>
    <g id="jn" data-name="LWPOLYLINE">
      <line class="nx" x1="636.8" y1="641.52" x2="709.37" y2="648.33"/>
    </g>
    <g id="jo" data-name="LWPOLYLINE">
      <line class="nx" x1="637.15" y1="637.86" x2="709.71" y2="644.66"/>
    </g>
    <g id="jp" data-name="LINE">
      <line class="nx" x1="618.66" y1="675.65" x2="618.66" y2="811.72"/>
    </g>
    <g id="jq" data-name="LINE">
      <line class="nx" x1="636.79" y1="641.64" x2="636.8" y2="768.63"/>
    </g>
    <g id="jr" data-name="LINE">
      <line class="nx" x1="618.66" y1="676.79" x2="488.27" y2="676.79"/>
    </g>
    <g id="js" data-name="LINE">
      <line class="nx" x1="488.27" y1="675.65" x2="488.27" y2="718.17"/>
    </g>
    <g id="jt" data-name="LINE">
      <line class="nx" x1="488.27" y1="786.2" x2="488.27" y2="811.72"/>
    </g>
    <g id="ju" data-name="LINE">
      <line class="nx" x1="453.12" y1="675.65" x2="453.12" y2="811.72"/>
    </g>
    <g id="jv" data-name="LINE">
      <line class="nx" x1="471.83" y1="675.65" x2="278.5" y2="675.65"/>
    </g>
    <g id="jw" data-name="LINE">
      <line class="nx" x1="279.64" y1="675.65" x2="279.64" y2="811.72"/>
    </g>
    <g id="jx" data-name="LINE">
      <line class="nx" x1="486.85" y1="500.47" x2="486.85" y2="645.61"/>
    </g>
    <g id="jy" data-name="LINE">
      <line class="nx" x1="472.68" y1="500.47" x2="472.68" y2="645.61"/>
    </g>
    <g id="jz" data-name="LINE">
      <line class="nx" x1="264.33" y1="510.68" x2="472.68" y2="510.68"/>
    </g>
    <g id="ka" data-name="LINE">
      <line class="nx" x1="587.48" y1="510.68" x2="486.85" y2="510.68"/>
    </g>
    <g id="kb" data-name="LINE">
      <line class="nx" x1="264.33" y1="500.47" x2="264.33" y2="645.61"/>
    </g>
    <g id="kc" data-name="LINE">
      <line class="nx" x1="252.99" y1="500.47" x2="252.99" y2="645.61"/>
    </g>
    <g id="kd" data-name="LINE">
      <line class="nx" x1="486.85" y1="336.63" x2="486.85" y2="490.83"/>
    </g>
    <g id="ke" data-name="LINE">
      <line class="nx" x1="472.68" y1="336.63" x2="472.68" y2="490.83"/>
    </g>
    <g id="kf" data-name="LINE">
      <line class="nx" x1="264.33" y1="347.41" x2="472.68" y2="347.41"/>
    </g>
    <g id="kg" data-name="LINE">
      <line class="nx" x1="587.48" y1="347.41" x2="486.85" y2="347.41"/>
    </g>
    <g id="kh" data-name="LINE">
      <line class="nx" x1="264.33" y1="337.21" x2="264.33" y2="490.83"/>
    </g>
    <g id="ki" data-name="LINE">
      <line class="nx" x1="252.99" y1="337.21" x2="252.99" y2="490.83"/>
    </g>
    <g id="kj" data-name="LINE">
      <line class="nx" x1="262.91" y1="185.83" x2="379.18" y2="185.83"/>
    </g>
    <g id="kk" data-name="LINE">
      <line class="nx" x1="379.13" y1="178.5" x2="379.13" y2="327.56"/>
    </g>
    <g id="kl" data-name="LINE">
      <line class="nx" x1="262.91" y1="178.46" x2="262.91" y2="327.56"/>
    </g>
    <g id="km" data-name="LINE">
      <line class="nx" x1="254.41" y1="178.46" x2="254.41" y2="327.56"/>
    </g>
    <g id="kn" data-name="LINE">
      <line class="nx" x1="278.5" y1="841.76" x2="278.5" y2="963.37"/>
    </g>
    <g id="ko" data-name="LINE">
      <line class="nx" x1="488.27" y1="841.76" x2="488.27" y2="963.37"/>
    </g>
    <g id="kp" data-name="LINE">
      <line class="nx" x1="454.25" y1="963.37" x2="454.25" y2="841.76"/>
    </g>
    <g id="kq" data-name="LINE">
      <line class="nx" x1="471.26" y1="841.76" x2="258.66" y2="841.76"/>
    </g>
    <g id="kr" data-name="LINE">
      <line class="nx" x1="588.9" y1="555.18" x2="588.9" y2="511.24"/>
    </g>
    <g id="ks" data-name="LINE">
      <line class="nx" x1="597.4" y1="554.61" x2="597.4" y2="511.24"/>
    </g>
    <g id="kt" data-name="LINE">
      <line class="nx" x1="588.9" y1="590.33" x2="588.9" y2="645.61"/>
    </g>
    <g id="ku" data-name="LINE">
      <line class="nx" x1="597.4" y1="590.33" x2="597.4" y2="645.61"/>
    </g>
    <g id="kv" data-name="LINE">
      <line class="nx" x1="597.4" y1="435.56" x2="597.4" y2="490.83"/>
    </g>
    <g id="kw" data-name="LINE">
      <line class="nx" x1="588.9" y1="435.56" x2="588.9" y2="490.83"/>
    </g>
    <g id="kx" data-name="LINE">
      <line class="nx" x1="597.4" y1="403.26" x2="597.4" y2="355.92"/>
    </g>
    <g id="ky" data-name="LINE">
      <line class="nx" x1="588.9" y1="403.26" x2="588.9" y2="355.92"/>
    </g>
    <g id="kz" data-name="LINE">
      <line class="nx" x1="387.64" y1="178.5" x2="387.64" y2="327.56"/>
    </g>
    <g id="la" data-name="LINE">
      <line class="nx" x1="258.66" y1="963.37" x2="594" y2="963.37"/>
    </g>
    <g id="lb" data-name="LINE">
      <line class="nx" x1="258.66" y1="963.94" x2="594" y2="963.94"/>
    </g>
    <g id="lc" data-name="LWPOLYLINE">
      <polyline class="nx" points="622.63 820.79 622.63 832.13 493.94 832.13 493.94 826.46 488.27 826.46"/>
    </g>
    <g id="ld" data-name="LWPOLYLINE">
      <polyline class="nx" points="621.5 820.79 621.5 830.99 495.07 830.99 495.07 825.32 488.27 825.32"/>
    </g>
    <g id="le" data-name="LINE">
      <line class="nx" x1="251.86" y1="645.61" x2="601.65" y2="645.61"/>
    </g>
    <g id="lf" data-name="LINE">
      <line class="nx" x1="247.32" y1="811.72" x2="636.09" y2="811.72"/>
    </g>
    <g id="lg" data-name="LWPOLYLINE">
      <line class="nx" x1="250.16" y1="490.83" x2="601.65" y2="490.83"/>
    </g>
    <g id="lh" data-name="LINE">
      <line class="nx" x1="250.16" y1="327.56" x2="393.31" y2="327.56"/>
    </g>
    <g id="li" data-name="LWPOLYLINE">
      <polyline class="nx" points="251.86 191.5 393.31 191.5 393.31 177.89"/>
    </g>
    <g id="lj" data-name="LWPOLYLINE">
      <polyline class="nx" points="251.86 190.36 392.17 190.36 392.17 177.89"/>
    </g>
    <g id="lk" data-name="LINE">
      <line class="nx" x1="264.33" y1="355.92" x2="486.85" y2="355.92"/>
    </g>
    <g id="ll" data-name="LINE">
      <line class="nx" x1="264.33" y1="354.62" x2="487.15" y2="354.62"/>
    </g>
    <g id="lm" data-name="LINE">
      <line class="nx" x1="601.65" y1="355.92" x2="486.85" y2="355.92"/>
    </g>
    <g id="ln" data-name="LINE">
      <line class="nx" x1="601.65" y1="354.62" x2="486.85" y2="354.62"/>
    </g>
    <g id="lo" data-name="LINE">
      <line class="nx" x1="546.38" y1="318.49" x2="546.38" y2="252.72"/>
    </g>
    <g id="lp" data-name="LINE">
      <line class="nx" x1="557.72" y1="252.72" x2="557.72" y2="318.49"/>
    </g>
    <g id="lq" data-name="LWPOLYLINE">
      <rect class="nx" x="544.96" y="251.02" width="14.17" height="1.7"/>
    </g>
    <g id="lr" data-name="LWPOLYLINE">
      <polyline class="nx" points="709.37 925.39 709.37 648.58 712.2 648.58"/>
    </g>
    <g id="ls" data-name="LINE">
      <line class="nx" x1="601.65" y1="647.31" x2="601.65" y2="499.9"/>
    </g>
    <g id="lt" data-name="LWPOLYLINE">
      <line class="nx" x1="401.81" y1="319.62" x2="546.38" y2="319.62"/>
    </g>
    <g id="lu" data-name="LINE">
      <line class="nx" x1="601.65" y1="492.53" x2="601.65" y2="336.63"/>
    </g>
    <g id="lv" data-name="LINE">
      <line class="nm" x1="604.49" y1="486.87" x2="604.49" y2="336.63"/>
    </g>
    <g id="lw" data-name="LINE">
      <line class="nm" x1="610.16" y1="486.87" x2="610.16" y2="336.63"/>
    </g>
    <g id="lx" data-name="LINE">
      <line class="nm" x1="604.49" y1="641.64" x2="604.49" y2="499.9"/>
    </g>
    <g id="ly" data-name="LINE">
      <line class="nm" x1="610.16" y1="641.64" x2="610.16" y2="499.9"/>
    </g>
    <g id="lz" data-name="LINE">
      <line class="nn" x1="258.66" y1="963.94" x2="258.66" y2="820.79"/>
    </g>
    <g id="ma" data-name="LINE">
      <line class="nn" x1="252.99" y1="963.94" x2="252.99" y2="820.79"/>
    </g>
    <g id="mb" data-name="LWPOLYLINE">
      <polyline class="nn" points="712.2 813.42 712.2 648.58 723.54 648.58 723.54 813.42"/>
    </g>
    <g id="mc" data-name="LWPOLYLINE">
      <polyline class="nn" points="549.21 318.49 549.21 252.72 554.88 252.72 554.88 318.49"/>
    </g>
    <g id="md" data-name="LWPOLYLINE">
      <polyline class="nn" points="241.65 654.68 241.65 674.52 247.32 674.52 247.32 654.68"/>
    </g>
    <g id="me" data-name="LWPOLYLINE">
      <polyline class="nn" points="241.65 641.64 241.65 601.95 247.32 601.95 247.32 641.64"/>
    </g>
    <g id="mf" data-name="LWPOLYLINE">
      <polyline class="nn" points="241.65 499.9 241.65 518.05 247.32 518.05 247.32 499.9"/>
    </g>
    <g id="mg" data-name="LWPOLYLINE">
      <polyline class="nn" points="241.65 486.87 241.65 447.18 247.32 447.18 247.32 486.87"/>
    </g>
    <g id="mh" data-name="LWPOLYLINE">
      <polyline class="nn" points="241.65 336.63 241.65 363.28 247.32 363.28 247.32 336.63"/>
    </g>
    <g id="mi" data-name="LWPOLYLINE">
      <polyline class="nn" points="241.65 177.89 241.65 203.4 247.32 203.4 247.32 177.89"/>
    </g>
    <g id="mj" data-name="LINE">
      <line class="ny" x1="616.96" y1="641.64" x2="616.96" y2="520.88"/>
    </g>
    <g id="mk" data-name="LWPOLYLINE">
      <polyline class="ny" points="238.82 641.64 238.82 599.12 251.86 599.12 251.86 647.31"/>
    </g>
    <g id="ml" data-name="LWPOLYLINE">
      <polyline class="ny" points="247.32 522.3 251.86 522.3 251.86 499.9"/>
    </g>
    <g id="mm" data-name="LINE">
      <line class="ny" x1="616.96" y1="486.87" x2="616.96" y2="357.61"/>
    </g>
    <g id="mn" data-name="LWPOLYLINE">
      <rect class="ny" x="241.65" y="172.22" width="160.16" height="5.67"/>
    </g>
    <g id="mo" data-name="LINE">
      <line class="ny" x1="238.82" y1="486.87" x2="238.82" y2="444.35"/>
    </g>
    <g id="mp" data-name="LWPOLYLINE">
      <polyline class="ny" points="247.32 442.93 250.16 442.93 250.16 492.53"/>
    </g>
    <g id="mq" data-name="LINE">
      <line class="ny" x1="238.82" y1="357.61" x2="238.82" y2="366.11"/>
    </g>
    <g id="mr" data-name="LWPOLYLINE">
      <polyline class="ny" points="247.32 367.53 250.16 367.53 250.16 336.63"/>
    </g>
    <g id="ms" data-name="LWPOLYLINE">
      <polyline class="ny" points="247.32 322.17 250.16 322.17 250.16 329.26"/>
    </g>
    <g id="mt" data-name="LWPOLYLINE">
      <polyline class="ny" points="247.32 207.65 251.86 207.65 251.86 177.89"/>
    </g>
    <g id="mu" data-name="LINE">
      <line class="ny" x1="608.46" y1="329.26" x2="616.96" y2="329.26"/>
    </g>
    <g id="mv" data-name="LWPOLYLINE">
      <polygon class="nl" points="712.2 942.39 654.93 942.39 609.86 971.02 712.2 971.02 712.2 942.39"/>
    </g>
    <g id="mw" data-name="LWPOLYLINE">
      <polygon class="nl" points="712.2 925.39 692.74 925.39 692.74 933.89 639.07 933.89 639.07 942.39 624.05 942.39 624.05 950.9 609.02 950.9 609.02 959.4 594 959.4 594 971.02 258.66 971.02 258.66 963.94 252.99 963.94 252.99 971.02 250.16 971.02 250.16 820.79 471.26 820.79 471.26 841.76 488.27 841.76 488.27 820.79 636.09 820.79 636.09 813.42 238.82 813.42 238.82 999.37 255.83 999.37 255.83 982.36 471.26 982.36 471.26 999.37 488.27 999.37 488.27 982.36 706.54 982.36 706.54 999.37 723.54 999.37 723.54 813.42 712.2 813.42 712.2 925.39"/>
    </g>
    <g id="mx" data-name="LWPOLYLINE">
      <polyline class="nl" points="471.26 654.68 471.26 675.65 488.27 675.65 488.27 654.68 618.66 654.68 618.66 675.65 635.67 675.65 635.67 641.64 604.49 641.64 604.49 647.31 247.32 647.31 247.32 641.64 241.65 641.64 241.65 654.68 261.5 654.68 261.5 675.65 278.5 675.65 278.5 654.68 471.26 654.68"/>
    </g>
    <g id="my" data-name="LWPOLYLINE">
      <polygon class="nl" points="546.38 329.26 546.38 318.49 557.72 318.49 557.72 329.26 610.16 329.26 610.16 336.63 241.65 336.63 241.65 323.59 247.32 323.59 247.32 329.26 393.31 329.26 393.31 318.49 401.81 318.49 401.81 329.26 546.38 329.26"/>
    </g>
    <g id="mz" data-name="LWPOLYLINE">
      <polygon class="nl" points="610.16 486.87 604.49 486.87 604.49 492.53 247.32 492.53 247.32 486.87 241.65 486.87 241.65 499.9 610.16 499.9 610.16 486.87"/>
    </g>
    <g id="na" data-name="LINE">
      <line class="nv" x1="238.82" y1="817.39" y2="817.39"/>
    </g>
    <g id="nb" data-name="LINE">
      <line class="nv" x1="900" y1="817.39" x2="723.54" y2="817.39"/>
    </g>
  </g>
  <g id="ne" data-name="SCALE">
    <g>
      <g id="nf" data-name="MTEXT">
        <path class="ns" d="M52.86,1145.9c-.63-.5-1.13-1.2-1.49-2.1-.36-.9-.54-1.92-.54-3.06s.18-2.14.54-3.04c.36-.9.85-1.59,1.49-2.1.63-.5,1.36-.75,2.17-.75s1.53.25,2.17.75c.63.5,1.13,1.2,1.49,2.1.36.9.54,1.91.54,3.04s-.18,2.16-.54,3.05-.85,1.59-1.49,2.1-1.36.76-2.17.76-1.53-.25-2.17-.75ZM56.51,1144.86c.44-.41.78-.96,1.02-1.67.24-.71.36-1.52.36-2.44s-.12-1.73-.36-2.45c-.24-.71-.58-1.27-1.02-1.67-.44-.4-.93-.6-1.49-.6s-1.05.2-1.48.6c-.43.4-.77.96-1.02,1.67-.24.71-.37,1.53-.37,2.43s.12,1.75.37,2.46c.25.71.58,1.27,1.02,1.67s.92.61,1.48.61,1.05-.2,1.49-.61Z"/>
      </g>
      <g id="ng" data-name="MTEXT">
        <path class="ns" d="M165.18,1144.72c.19-.17.42-.38.71-.64.93-.85,1.67-1.57,2.24-2.15.57-.58,1.04-1.17,1.44-1.78s.59-1.16.59-1.67c0-.48-.09-.9-.28-1.27s-.45-.66-.78-.86c-.33-.21-.71-.31-1.15-.31-.47,0-.93.16-1.37.48-.44.32-.78.73-1,1.23l-1.2-.51c.3-.7.78-1.28,1.46-1.73.67-.45,1.38-.67,2.11-.67.69,0,1.31.16,1.85.46.54.31.96.74,1.26,1.29.3.55.45,1.18.45,1.9s-.22,1.41-.67,2.14-.98,1.41-1.6,2.04c-.62.63-1.42,1.39-2.42,2.27-.49.45-.95.88-1.39,1.3l-.94-.85c.28-.27.51-.49.7-.66ZM164.48,1145.38h7.22v1.18h-7.04l-.18-1.18Z"/>
      </g>
      <g id="nh" data-name="MTEXT">
        <path class="ns" d="M111.84,1146.54h-1.34v-10.08l-1.86,1.2-.67-1.07,2.54-1.62h1.33v11.57Z"/>
      </g>
      <g id="ni" data-name="MTEXT">
        <g>
          <path class="ns" d="M330.05,1139.31c.55-.25,1.08-.38,1.59-.38.77,0,1.45.16,2.06.49.6.33,1.07.78,1.41,1.35s.5,1.24.5,1.98-.17,1.43-.5,2.02-.8,1.05-1.4,1.38c-.6.34-1.29.5-2.07.5-.6,0-1.16-.12-1.69-.38-.53-.25-.98-.6-1.34-1.05s-.62-.95-.74-1.52l1.3-.3c.13.59.42,1.06.89,1.43.46.37.99.55,1.59.55.5,0,.95-.11,1.35-.34.4-.22.71-.54.94-.94s.34-.86.34-1.36-.11-.95-.34-1.34c-.23-.39-.54-.69-.94-.91s-.85-.33-1.35-.33c-.33,0-.68.09-1.04.26s-.66.4-.9.68l-.99-.86c.34-.38.79-.7,1.34-.95ZM328.38,1140.93l.37-6.03h5.92v1.18h-4.64l-.32,5.04-1.33-.19Z"/>
          <path class="ns" d="M346.78,1140.76c-.29-.34-.67-.5-1.13-.5-.35,0-.66.07-.94.22-.27.14-.49.34-.65.6s-.24.55-.24.88v4.58h-1.33v-4.45c0-.54-.14-.98-.43-1.32s-.66-.5-1.12-.5c-.34,0-.65.09-.94.26-.28.18-.5.42-.66.72-.16.3-.23.63-.23.98v4.3h-1.33v-7.46h1.33v1.31l-.14-.05c.22-.37.52-.68.9-.91.37-.23.75-.35,1.13-.35.46,0,.9.13,1.32.38.42.26.74.59.95.99.25-.41.59-.74,1.04-.99.45-.26.9-.38,1.36-.38.55,0,1.05.13,1.49.38.44.25.78.59,1.02,1.02.25.43.37.93.37,1.5v4.56h-1.34v-4.45c0-.54-.15-.98-.44-1.32Z"/>
        </g>
      </g>
      <g id="nj" data-name="LWPOLYLINE">
        <polyline class="nk" points="337.82 1130.89 337.82 1113.88 167.74 1113.88 167.74 1130.89 111.05 1130.89 111.05 1113.88 54.35 1113.88 54.35 1130.89"/>
      </g>
    </g>
    <g>
      <g>
        <path class="nr" d="M826.83,1106.96v.56h-10.91v-.56h10.91ZM821.61,1101.01v.62c0,.68-.24,1.31-.72,1.88s-1.08,1.04-1.8,1.41-1.44.63-2.16.78l-.28-.55c.63-.1,1.28-.32,1.96-.66s1.26-.76,1.72-1.26c.47-.5.7-1.04.7-1.61v-.62h.57ZM825.74,1100.76v.55h-8.74v-.55h8.74ZM821.7,1107.25v4.72h-.64v-4.72h.64ZM821.72,1101.01v.62c0,.57.23,1.11.7,1.61.47.5,1.04.92,1.73,1.26s1.34.55,1.95.66l-.27.55c-.73-.15-1.45-.41-2.16-.78-.71-.37-1.31-.84-1.79-1.41-.48-.57-.72-1.19-.72-1.88v-.62h.56Z"/>
        <path class="nr" d="M831.86,1102.59v1.33c0,.81-.15,1.59-.46,2.34-.31.75-.71,1.41-1.22,1.98s-1.05,1.01-1.64,1.33l-.41-.5c.56-.27,1.08-.67,1.57-1.2s.88-1.14,1.18-1.83.45-1.4.45-2.13v-1.33h.53ZM834.83,1102.09v.55h-6.41v-.55h6.41ZM831.96,1100.08v2.35h-.64v-2.35h.64ZM831.94,1102.59v1.33c0,.67.14,1.33.43,1.99s.67,1.23,1.14,1.74c.48.51.98.9,1.53,1.18l-.39.5c-.58-.3-1.11-.73-1.6-1.28-.49-.55-.88-1.19-1.18-1.91-.29-.72-.44-1.46-.44-2.23v-1.33h.52ZM837.32,1099.9v12.08h-.64v-12.08h.64ZM839.47,1105.07v.55h-2.31v-.55h2.31Z"/>
        <path class="nr" d="M844.12,1101.16v1.13c0,.7-.15,1.35-.44,1.96-.29.61-.7,1.13-1.2,1.58-.51.44-1.07.78-1.69,1.01l-.34-.52c.57-.21,1.09-.51,1.57-.9.48-.4.86-.87,1.15-1.41.29-.54.43-1.12.43-1.72v-1.13h.52ZM847.11,1100.85v.56h-6.41v-.56h6.41ZM847.98,1107.92c.58.16,1.03.4,1.34.72s.47.7.47,1.15c0,.68-.34,1.21-1.03,1.59-.69.38-1.64.57-2.86.57-.8,0-1.5-.08-2.08-.25-.58-.17-1.03-.42-1.34-.74-.31-.33-.46-.71-.46-1.16s.15-.83.46-1.15c.31-.32.75-.56,1.34-.72.58-.16,1.28-.25,2.08-.25s1.5.08,2.08.25ZM844.19,1108.41c-.49.13-.87.31-1.13.55-.27.23-.4.51-.4.83,0,.49.29.89.88,1.18s1.38.43,2.37.43,1.78-.14,2.37-.43c.59-.29.89-.68.89-1.18,0-.32-.14-.59-.41-.83s-.65-.42-1.14-.55c-.49-.13-1.06-.2-1.72-.2s-1.22.07-1.71.2ZM844.22,1101.16v1.12c0,.54.14,1.06.41,1.56.27.5.64.94,1.11,1.31.46.37.97.66,1.52.87l-.31.5c-.61-.22-1.16-.55-1.65-.97s-.89-.91-1.18-1.47-.43-1.16-.43-1.81v-1.12h.53ZM849.68,1099.9v7.36h-.64v-7.36h.64ZM851.6,1103.18v.56h-2.1v-.56h2.1Z"/>
        <path class="nr" d="M857.39,1100.94v10.11h-.48v-10.11h.48Z"/>
        <path class="nr" d="M873.84,1106.23v.53h-10.91v-.53h10.91ZM873.17,1100.84v.53h-9.62v-.53h9.62ZM872.39,1107.73v2.24h-7.39v1.51h-.64v-2.03h7.39v-1.19h-7.43v-.53h8.08ZM872.78,1111.27v.53h-8.43v-.53h8.43ZM871.21,1102.39c.65.27.97.67.97,1.2s-.33.92-.97,1.18c-.65.27-1.58.4-2.81.4s-2.17-.13-2.83-.4c-.65-.27-.98-.66-.98-1.18s.32-.93.97-1.2c.65-.27,1.59-.41,2.82-.41s2.17.13,2.82.41ZM866.09,1102.78c-.55.2-.83.48-.83.83s.27.61.83.8,1.32.29,2.31.29,1.74-.1,2.29-.29.82-.46.82-.8-.28-.63-.83-.83c-.55-.2-1.32-.3-2.3-.3s-1.75.1-2.3.3ZM868.72,1099.64v1.58h-.64v-1.58h.64ZM868.72,1105.03v1.43h-.64v-1.43h.64Z"/>
        <path class="nr" d="M821.78,1119.11v4.07h-4.7v3.51h-.63v-4.09h4.7v-2.94h-4.75v-.56h5.38ZM820.58,1126.33c.87-.07,1.75-.18,2.66-.35l.07.56c-.94.17-1.85.29-2.73.35-.88.07-1.95.1-3.22.1h-.91v-.56h.91c1.28,0,2.35-.03,3.22-.1ZM825.1,1117.9v12.08h-.64v-12.08h.64ZM827.24,1122.87v.57h-2.31v-.57h2.31Z"/>
        <path class="nr" d="M839.11,1124.22v.56h-10.95v-.56h10.95ZM835.81,1118.55c.63.2,1.11.47,1.45.83s.5.78.5,1.25-.17.91-.5,1.26c-.34.36-.82.63-1.45.82-.63.19-1.37.29-2.21.29s-1.56-.1-2.18-.29c-.63-.19-1.11-.46-1.45-.82-.34-.35-.51-.77-.51-1.26s.17-.89.51-1.25c.34-.36.82-.64,1.45-.83.62-.2,1.35-.29,2.18-.29s1.57.1,2.21.29ZM830.28,1126.2v3.08h-.63v-3.08h.63ZM837.89,1129.09v.59h-8.25v-.59h8.25ZM831.8,1119.06c-.53.15-.94.37-1.23.64-.29.27-.43.59-.43.95s.14.67.43.95c.29.28.7.49,1.23.63.53.14,1.13.22,1.81.22s1.3-.07,1.82-.22c.52-.14.93-.35,1.22-.63s.44-.59.44-.96-.15-.67-.44-.94c-.29-.27-.7-.48-1.22-.64-.52-.15-1.13-.23-1.82-.23s-1.29.08-1.81.23ZM834.04,1124.55v2.94h-.66v-2.94h.66Z"/>
        <path class="nr" d="M844.35,1119.51v2.39c0,.76-.17,1.52-.52,2.28-.35.77-.79,1.45-1.32,2.06s-1.09,1.06-1.66,1.37l-.39-.52c.52-.27,1.04-.69,1.56-1.25.52-.56.95-1.19,1.28-1.9s.5-1.39.5-2.05v-2.39h.55ZM847.51,1119.19v.56h-6.73v-.56h6.73ZM844.43,1119.51v2.39c0,.67.17,1.34.51,2,.34.66.77,1.25,1.29,1.76.52.51,1.06.89,1.61,1.14l-.41.53c-.59-.3-1.16-.73-1.7-1.29-.55-.56-.99-1.2-1.34-1.92-.34-.72-.52-1.46-.52-2.22v-2.39h.55ZM850.16,1117.9v12.08h-.64v-12.08h.64Z"/>
        <path class="nr" d="M819.61,1137.04v2.45c0,.78-.16,1.57-.48,2.34-.32.78-.74,1.48-1.26,2.09s-1.06,1.09-1.62,1.41l-.42-.53c.52-.28,1.04-.7,1.54-1.27s.92-1.21,1.23-1.93c.32-.71.48-1.42.48-2.12v-2.45h.53ZM819.69,1137.04v2.45c0,.67.16,1.35.48,2.04.32.69.74,1.3,1.24,1.84.5.54,1.02.95,1.55,1.22l-.42.5c-.57-.31-1.11-.76-1.63-1.34-.52-.59-.94-1.26-1.27-2-.33-.75-.49-1.5-.49-2.25v-2.45h.53ZM825.08,1135.9v12.08h-.64v-12.08h.64ZM827.24,1140.97v.57h-2.31v-.57h2.31Z"/>
        <path class="nr" d="M839.11,1143.11v.56h-10.95v-.56h10.95ZM837.61,1136.64v4.58h-7.97v-4.58h7.97ZM830.28,1137.19v3.51h6.71v-3.51h-6.71ZM833.93,1143.42v4.56h-.63v-4.56h.63Z"/>
        <path class="nr" d="M844.32,1136.31v.92c0,.72-.15,1.4-.46,2.03-.31.63-.72,1.19-1.23,1.67-.51.48-1.08.84-1.69,1.11l-.35-.53c.57-.21,1.1-.54,1.58-.97.49-.43.88-.93,1.17-1.5.29-.57.44-1.17.44-1.8v-.92h.54ZM850.19,1142.93v2.63h-6.96v1.97h-.62v-2.49h6.94v-1.55h-6.99v-.56h7.62ZM850.67,1147.26v.55h-8.06v-.55h8.06ZM844.4,1136.31v.92c0,.59.15,1.16.45,1.7.3.55.7,1.02,1.19,1.42.49.4,1.02.71,1.58.92l-.34.52c-.62-.24-1.2-.59-1.71-1.04s-.93-.97-1.24-1.58c-.31-.61-.46-1.25-.46-1.95v-.92h.53ZM850.19,1135.9v6.36h-.64v-6.36h.64Z"/>
        <path class="nr" d="M820.94,1155.43v.55h-3.85v6.51h-.64v-7.06h4.49ZM819.73,1162.18c.66-.05,1.31-.15,1.97-.3l.1.56c-.68.15-1.36.25-2.02.3-.67.05-1.53.08-2.6.08h-.73v-.56h.73c1.04,0,1.9-.03,2.55-.08ZM823.3,1154.22v11.1h-.62v-11.1h.62ZM825.66,1158.89v.56h-2.56v-.56h2.56ZM826.08,1153.9v12.08h-.63v-12.08h.63Z"/>
        <path class="nr" d="M839.12,1163.84v.56h-10.96v-.56h10.96ZM838.01,1155.13v.56h-8.79v-.56h8.79ZM838.01,1159.99v.56h-8.78v-.56h8.78ZM831.92,1155.55v4.62h-.66v-4.62h.66ZM832.11,1160.43v3.58h-.66v-3.58h.66ZM835.77,1160.43v3.58h-.64v-3.58h.64ZM835.95,1155.55v4.62h-.63v-4.62h.63Z"/>
        <path class="nr" d="M844.32,1154.31v.92c0,.72-.15,1.4-.46,2.03-.31.63-.72,1.19-1.23,1.67-.51.48-1.08.84-1.69,1.11l-.35-.53c.57-.21,1.1-.54,1.58-.97.49-.43.88-.93,1.17-1.5.29-.57.44-1.17.44-1.8v-.92h.54ZM850.19,1160.93v2.63h-6.96v1.97h-.62v-2.49h6.94v-1.55h-6.99v-.56h7.62ZM850.67,1165.26v.55h-8.06v-.55h8.06ZM844.4,1154.31v.92c0,.59.15,1.16.45,1.7.3.55.7,1.02,1.19,1.42.49.4,1.02.71,1.58.92l-.34.52c-.62-.24-1.2-.59-1.71-1.04s-.93-.97-1.24-1.58c-.31-.61-.46-1.25-.46-1.95v-.92h.53ZM850.19,1153.9v6.36h-.64v-6.36h.64Z"/>
      </g>
      <g>
        <path class="nr" d="M805.03,1111.05h-.67v-9.35l-1.26.87-.36-.49,1.62-1.13h.67v10.11Z"/>
        <path class="nr" d="M801.93,1127.81c.2-.19.43-.41.68-.65.84-.79,1.51-1.46,2.02-1.99.51-.53.94-1.09,1.31-1.67s.55-1.12.55-1.61-.09-.9-.28-1.27-.45-.67-.78-.88c-.33-.21-.71-.32-1.13-.32-.47,0-.91.16-1.34.48-.42.32-.75.73-.96,1.24l-.63-.27c.26-.61.66-1.1,1.2-1.48.54-.38,1.12-.57,1.72-.57.55,0,1.04.13,1.47.39.43.26.77.63,1.01,1.09.25.47.37.99.37,1.58s-.19,1.18-.57,1.81-.84,1.23-1.38,1.79c-.54.56-1.23,1.25-2.09,2.05-.59.55-1.04.98-1.36,1.3l-.48-.39c.23-.24.45-.46.65-.65ZM801.27,1128.46h6.02v.59h-5.94l-.08-.59Z"/>
        <path class="nr" d="M806.95,1142.75c.33.44.5.92.5,1.43,0,.57-.14,1.08-.41,1.53s-.65.8-1.13,1.06-1.03.38-1.64.38-1.17-.13-1.65-.38-.86-.6-1.13-1.06-.41-.96-.41-1.53h.67c0,.46.11.87.32,1.23s.51.64.9.84c.38.2.81.3,1.29.3s.92-.1,1.3-.29.68-.46.89-.79.32-.72.32-1.16-.11-.8-.32-1.13-.5-.59-.88-.78c-.38-.19-.8-.28-1.28-.28h-.41v-.62h.39c.45,0,.85-.09,1.21-.26s.64-.41.84-.72c.2-.31.3-.66.3-1.05,0-.6-.21-1.09-.64-1.47-.43-.38-.98-.57-1.65-.57-.44,0-.83.09-1.19.27-.36.18-.63.44-.82.77-.19.33-.29.71-.29,1.13h-.67c0-.53.13-1.01.38-1.43s.6-.75,1.05-.99c.45-.24.96-.36,1.54-.36s1.09.12,1.54.36c.45.24.8.57,1.05.99.25.42.38.9.38,1.43,0,.43-.15.85-.45,1.27s-.69.73-1.16.94c.5.19.92.5,1.25.94Z"/>
        <path class="nr" d="M806.13,1161.48h1.64v.6h-1.64v2.97h-.67v-2.97h-4.61l-.1-.62,4.7-6.52h.67v6.54ZM805.46,1161.48v-5.38l-3.88,5.38h3.88Z"/>
      </g>
    </g>
    <path class="nr" d="M561.12,741.64h-.58v-8.02l-1.08.74-.31-.42,1.39-.97h.58v8.66Z"/>
    <path class="nr" d="M373.17,740.58c.17-.16.37-.35.58-.56.72-.68,1.3-1.25,1.73-1.7.44-.46.81-.93,1.12-1.43.31-.5.47-.96.47-1.38s-.08-.77-.24-1.09c-.16-.32-.38-.57-.67-.75-.28-.18-.61-.27-.97-.27-.4,0-.78.14-1.15.41-.36.28-.64.63-.82,1.06l-.54-.23c.22-.52.57-.94,1.03-1.27.46-.33.96-.49,1.48-.49.47,0,.89.11,1.26.34s.66.54.87.94c.21.4.32.85.32,1.36s-.16,1.01-.49,1.55c-.33.54-.72,1.05-1.18,1.54-.46.48-1.06,1.07-1.79,1.76-.5.47-.89.84-1.16,1.12l-.41-.34c.2-.21.39-.39.56-.56ZM372.62,741.14h5.16v.5h-5.09l-.07-.5Z"/>
    <path class="nr" d="M342.66,582.66c.28.38.43.78.43,1.22,0,.49-.12.93-.35,1.31-.23.39-.55.69-.97.91-.41.22-.88.32-1.41.32s-1-.11-1.41-.32-.73-.52-.97-.91c-.23-.39-.35-.83-.35-1.31h.58c0,.39.09.74.28,1.05.18.31.44.55.77.72.33.17.7.26,1.1.26s.79-.08,1.12-.25.58-.39.76-.68c.18-.29.27-.62.27-1s-.09-.68-.27-.97c-.18-.28-.43-.51-.76-.67-.32-.16-.69-.24-1.1-.24h-.35v-.53h.34c.38,0,.73-.07,1.04-.22.31-.15.55-.35.72-.62.17-.26.26-.56.26-.9,0-.51-.18-.93-.55-1.26s-.84-.49-1.42-.49c-.38,0-.72.08-1.02.23-.3.16-.54.38-.7.66-.16.28-.25.61-.25.97h-.58c0-.46.11-.86.32-1.22.22-.36.52-.64.9-.85.38-.2.82-.31,1.32-.31s.94.1,1.32.31.68.49.9.85c.22.36.32.77.32,1.22,0,.37-.13.73-.38,1.09-.26.36-.59.63-1,.81.43.16.79.43,1.07.8Z"/>
    <path class="nr" d="M305.62,261.93h1.4v.52h-1.4v2.54h-.58v-2.54h-3.95l-.08-.53,4.03-5.59h.58v5.6ZM305.05,261.93v-4.61l-3.32,4.61h3.32Z"/>
    <path class="nr" d="M342.66,428.21c.28.38.43.78.43,1.22,0,.49-.12.93-.35,1.31-.23.39-.55.69-.97.91-.41.22-.88.32-1.41.32s-1-.11-1.41-.32-.73-.52-.97-.91c-.23-.39-.35-.83-.35-1.31h.58c0,.39.09.74.28,1.05.18.31.44.55.77.72.33.17.7.26,1.1.26s.79-.08,1.12-.25.58-.39.76-.68c.18-.29.27-.62.27-1s-.09-.68-.27-.97c-.18-.28-.43-.51-.76-.67-.32-.16-.69-.24-1.1-.24h-.35v-.53h.34c.38,0,.73-.07,1.04-.22.31-.15.55-.35.72-.62.17-.26.26-.56.26-.9,0-.51-.18-.93-.55-1.26s-.84-.49-1.42-.49c-.38,0-.72.08-1.02.23-.3.16-.54.38-.7.66-.16.28-.25.61-.25.97h-.58c0-.46.11-.86.32-1.22.22-.36.52-.64.9-.85.38-.2.82-.31,1.32-.31s.94.1,1.32.31.68.49.9.85c.22.36.32.77.32,1.22,0,.37-.13.73-.38,1.09-.26.36-.59.63-1,.81.43.16.79.43,1.07.8Z"/>
    <path class="nr" d="M373.17,892.07c.17-.16.37-.35.58-.56.72-.68,1.3-1.25,1.73-1.7.44-.46.81-.93,1.12-1.43.31-.5.47-.96.47-1.38s-.08-.77-.24-1.09c-.16-.32-.38-.57-.67-.75-.28-.18-.61-.27-.97-.27-.4,0-.78.14-1.15.41-.36.28-.64.63-.82,1.06l-.54-.23c.22-.52.57-.94,1.03-1.27.46-.33.96-.49,1.48-.49.47,0,.89.11,1.26.34s.66.54.87.94c.21.4.32.85.32,1.36s-.16,1.01-.49,1.55c-.33.54-.72,1.05-1.18,1.54-.46.48-1.06,1.07-1.79,1.76-.5.47-.89.84-1.16,1.12l-.41-.34c.2-.21.39-.39.56-.56ZM372.62,892.62h5.16v.5h-5.09l-.07-.5Z"/>
  </g>
</svg>