<?xml version="1.0" encoding="UTF-8"?>
<svg xmlns="http://www.w3.org/2000/svg" viewBox="0 0 900 1200">
  <defs>
    <style>
      .jl, .jm, .jn, .jo, .jp, .jq, .jr, .js, .jt, .ju, .jv, .jw, .jx, .jy, .jz, .ka, .kb, .kc, .kd, .ke, .kf, .kg, .kh {
        stroke: #000;
      }

      .jl, .jm, .jn, .jp, .jq, .jw, .jz, .kd, .kf, .kg {
        stroke-width: .5px;
      }

      .jl, .jn, .jo, .jp, .jq, .jr, .jt, .ju, .jv, .jx, .jy, .jz, .ka, .kb, .kd, .ke, .kf, .kg, .kh {
        stroke-miterlimit: 10;
      }

      .jl, .jo, .jp, .jq, .jr, .jt, .ju, .jv, .jx, .jy, .jz, .ka, .kb, .kd, .ke, .kf, .kg, .kh {
        fill: none;
      }

      .jm {
        fill: #231815;
        font-size: 16px;
      }

      .jm, .jw {
        font-family: SUITVariable-Medium, 'SUIT Variable';
        font-variation-settings: 'wght' 500;
        font-weight: 500;
      }

      .jn {
        fill: #040000;
        fill-rule: evenodd;
      }

      .jo {
        stroke-width: .75px;
      }

      .jp {
        stroke-dasharray: 2.02 1.01;
      }

      .jq {
        stroke-dasharray: 1.98 .99;
      }

      .jr {
        stroke-width: .15px;
      }

      .js, .jw {
        font-size: 12px;
      }

      .js, .kc {
        font-family: SUITVariable-ExtraLight, 'SUIT Variable';
        font-variation-settings: 'wght' 200;
        font-weight: 200;
        stroke-width: .34px;
      }

      .jt, .ju, .jv, .jy, .kh {
        stroke-width: .4px;
      }

      .ju {
        stroke-dasharray: 1.97 .99;
      }

      .jv {
        stroke-dasharray: 1.88 .94;
      }

      .jx {
        stroke-width: .25px;
      }

      .jy {
        stroke-dasharray: 1.97 .99;
      }

      .jz {
        stroke-dasharray: 2 1;
      }

      .ka {
        stroke-width: .3px;
      }

      .kb {
        stroke-width: .6px;
      }

      .kc {
        font-size: 14px;
      }

      .kd {
        stroke-dasharray: 1.98 .99;
      }

      .ke {
        stroke-width: .9px;
      }

      .kf {
        stroke-dasharray: 1.98 .99;
      }

      .kg, .kh {
        stroke-dasharray: 2.07 1.03;
      }
    </style>
  </defs>
  <g id="au" data-name="f4">
    <g id="av" data-name="HATCH">
      <path class="jr" d="M137.77,467.75v-69.73M145.78,467.75v-69.73M153.8,467.75v-69.73M161.82,467.75v-69.73M169.84,467.75v-69.73M177.85,467.75v-69.73M185.87,467.75v-69.73M193.89,467.75v-69.73M201.91,467.75v-69.73M209.92,467.75v-69.73M217.94,467.75v-69.73M225.96,467.75v-69.73M233.98,467.75v-69.73M241.99,467.75v-69.73M250.01,467.75v-69.73M258.03,467.75v-69.73M266.05,467.75v-69.73M274.06,467.75v-69.73M282.08,467.75v-69.73M290.1,467.75v-69.73M298.12,467.75v-69.73M306.13,467.75v-69.73M314.15,467.75v-69.73M322.17,467.75v-69.73M330.19,467.75v-69.73M338.2,467.75v-69.73M346.22,467.75v-69.73M354.24,467.75v-69.73M362.26,467.75v-69.73M370.28,467.75v-69.73M378.29,467.75v-69.73M386.31,467.75v-69.73M394.33,467.75v-69.73M402.35,467.75v-69.73M410.36,467.75v-69.73M418.38,467.75v-69.73M426.4,467.75v-69.73M434.42,467.75v-69.73M442.43,467.75v-69.73M450.45,467.75v-69.73M458.47,467.75v-69.73M466.49,467.75v-69.73M474.5,467.75v-69.73M482.52,467.75v-69.73M490.54,467.75v-69.73M498.56,455.28v-57.26M506.57,455.28v-57.26M514.59,455.28v-57.26M522.61,455.28v-57.26M530.63,455.28v-57.26M538.64,455.28v-57.26M546.66,455.28v-57.26M554.68,455.28v-57.26M562.7,455.28v-57.26M570.72,455.28v-57.26M578.73,455.28v-57.26M586.75,455.28v-57.26M594.77,455.28v-57.26M602.79,455.28v-57.26M610.8,455.28v-57.26M618.82,455.28v-57.26M626.84,455.28v-57.26M634.86,455.28v-57.26M642.87,455.28v-57.26M650.89,455.28v-57.26M658.91,455.28v-57.26M666.93,455.28v-57.26M674.94,455.28v-57.26M682.96,455.28v-57.26M690.98,455.28v-57.26M699,455.28v-57.26M707.01,455.28v-57.26M715.03,455.28v-57.26M723.05,455.28v-57.26M731.07,455.28v-57.26"/>
    </g>
    <g id="aw" data-name="HATCH">
      <path class="jr" d="M230.84,482.16h496.63M230.84,518.16h496.63M230.84,554.16h496.63M230.84,590.16h496.63M230.84,626.16h496.63M252.36,626.78v-144.85M288.36,626.78v-144.85M324.36,626.78v-144.85M360.36,626.78v-144.85M396.36,626.78v-144.85M432.36,626.78v-144.85M468.36,626.78v-144.85M504.36,626.78v-144.85M540.36,626.78v-159.02M576.36,626.78v-159.02M612.36,626.78v-159.02M648.36,626.78v-159.02M684.36,626.78v-159.02M720.36,626.78v-159.02"/>
    </g>
    <g id="ax" data-name="HATCH">
      <path class="jr" d="M137.34,626.78v-159.02M143.36,626.78v-159.02M149.37,626.78v-159.02M155.38,626.78v-159.02M161.4,626.78v-159.02M167.41,626.78v-159.02M173.42,626.78v-159.02M179.44,626.78v-159.02M185.45,626.78v-159.02M191.46,626.78v-159.02M197.48,626.78v-159.02M203.49,626.78v-159.02M209.5,626.78v-159.02M215.52,626.78v-159.02M221.53,626.78v-159.02M227.54,626.78v-159.02"/>
    </g>
    <g id="ay" data-name="LINE">
      <line class="jx" x1="427.28" y1="787.5" x2="384.19" y2="787.5"/>
    </g>
    <g id="az" data-name="LINE">
      <line class="jx" x1="383.06" y1="787.5" x2="300.85" y2="787.5"/>
    </g>
    <g id="ba" data-name="LINE">
      <line class="jx" x1="426.43" y1="789.07" x2="385.04" y2="789.07"/>
    </g>
    <g id="bb" data-name="LINE">
      <line class="jx" x1="382.21" y1="789.07" x2="301.7" y2="789.08"/>
    </g>
    <g id="bc" data-name="LINE">
      <line class="jx" x1="611.53" y1="787.5" x2="459.59" y2="787.5"/>
    </g>
    <g id="bd" data-name="LINE">
      <line class="jx" x1="610.68" y1="789.07" x2="460.44" y2="789.07"/>
    </g>
    <g id="be" data-name="LINE">
      <line class="jx" x1="641.85" y1="786.76" x2="735.82" y2="704.34"/>
    </g>
    <g id="bf" data-name="LINE">
      <line class="jx" x1="736.21" y1="706.08" x2="643.53" y2="787.38"/>
    </g>
    <g id="bg" data-name="LINE">
      <line class="jx" x1="268.54" y1="787.5" x2="143.53" y2="787.5"/>
    </g>
    <g id="bh" data-name="LINE">
      <line class="jx" x1="267.69" y1="789.08" x2="144.38" y2="789.08"/>
    </g>
    <g id="bi" data-name="LINE">
      <line class="jx" x1="627.12" y1="629.04" x2="444" y2="629.04"/>
    </g>
    <g id="bj" data-name="LINE">
      <line class="jx" x1="444.85" y1="627.48" x2="626.27" y2="627.47"/>
    </g>
    <g id="bk" data-name="LWPOLYLINE">
      <polyline class="jx" points="439.18 649.45 439.18 654.56 439.75 654.56 439.75 649.45"/>
    </g>
    <g id="bl" data-name="LWPOLYLINE">
      <polyline class="jx" points="439.75 655.12 439.75 700.48 439.18 700.48 439.18 655.12"/>
    </g>
    <g id="bm" data-name="LWPOLYLINE">
      <polyline class="jx" points="439.18 778.43 439.18 743.56 438.61 743.56 438.61 778.43"/>
    </g>
    <g id="bn" data-name="LINE">
      <line class="jx" x1="391.56" y1="628.48" x2="435.78" y2="628.48"/>
    </g>
    <g id="bo" data-name="LINE">
      <line class="jx" x1="383.34" y1="629.04" x2="343.84" y2="629.04"/>
    </g>
    <g id="bp" data-name="LINE">
      <line class="jx" x1="344.69" y1="627.48" x2="382.49" y2="627.48"/>
    </g>
    <g id="bq" data-name="LWPOLYLINE">
      <polyline class="jx" points="629.1 627.48 738.1 627.48 738.1 673.55"/>
    </g>
    <g id="br" data-name="LWPOLYLINE">
      <polyline class="jx" points="628.25 629.04 736.54 629.04 736.54 674.4"/>
    </g>
    <g id="bs" data-name="LWPOLYLINE">
      <polyline class="ka" points="270.52 803.94 135.87 803.94 135.87 789.77"/>
    </g>
    <g id="bt" data-name="LWPOLYLINE">
      <polyline class="ka" points="738.8 616.29 752.98 616.29 752.98 398.02 135.87 398.02 135.87 469.45"/>
    </g>
    <g id="bu" data-name="LINE">
      <line class="ka" x1="738.8" y1="455.28" x2="738.8" y2="398.02"/>
    </g>
    <g id="bv" data-name="LWPOLYLINE">
      <polyline class="ka" points="613.51 803.94 538.39 803.94 538.39 789.77"/>
    </g>
    <g id="bw" data-name="LWPOLYLINE">
      <polyline class="ka" points="457.61 803.94 532.73 803.94 532.73 789.77"/>
    </g>
    <g id="bx" data-name="LWPOLYLINE">
      <polyline class="ka" points="361.23 789.77 361.23 803.94 298.87 803.94"/>
    </g>
    <g id="by" data-name="LWPOLYLINE">
      <polyline class="ka" points="429.26 803.94 366.9 803.94 366.9 789.77"/>
    </g>
    <g id="bz" data-name="LWPOLYLINE">
      <polyline class="ka" points="752.98 676.38 752.98 621.96 738.8 621.96"/>
    </g>
    <g id="ca" data-name="LWPOLYLINE">
      <polyline class="ka" points="752.98 704.73 752.98 711.16 702.21 755.68 692.87 745.02"/>
    </g>
    <g id="cb" data-name="LWPOLYLINE">
      <polyline class="ka" points="641.86 803.94 647.19 803.94 697.95 759.42 688.61 748.76"/>
    </g>
    <g id="cc" data-name="LWPOLYLINE">
      <g>
        <path class="jt" d="M498.71,691.55v-1h1"/>
        <line class="jy" x1="500.69" y1="690.56" x2="565.25" y2="690.56"/>
        <polyline class="jt" points="565.74 690.56 566.74 690.56 566.74 691.56"/>
        <line class="kh" x1="566.74" y1="692.59" x2="566.74" y2="723.06"/>
        <polyline class="jt" points="566.74 723.57 566.74 724.57 565.74 724.57"/>
        <line class="jy" x1="564.76" y1="724.57" x2="500.2" y2="724.57"/>
        <path class="jt" d="M499.71,724.57h-1v-1"/>
        <path class="kh" d="M498.71,722.55v-30.47"/>
      </g>
    </g>
    <g id="cd" data-name="LWPOLYLINE">
      <g>
        <polyline class="jt" points="519.4 728.41 519.4 727.41 520.4 727.41"/>
        <line class="jv" x1="521.34" y1="727.41" x2="543.44" y2="727.41"/>
        <polyline class="jt" points="543.91 727.41 544.91 727.41 544.91 728.41"/>
        <path class="ju" d="M544.91,729.39v15.02c0,7.04-5.71,12.76-12.76,12.76s-12.76-5.71-12.76-12.76v-15.51"/>
      </g>
    </g>
    <g id="ce" data-name="LWPOLYLINE">
      <g>
        <path class="jt" d="M566.74,691.55v-1h1"/>
        <line class="jy" x1="568.73" y1="690.56" x2="633.28" y2="690.56"/>
        <polyline class="jt" points="633.77 690.56 634.77 690.56 634.77 691.56"/>
        <line class="kh" x1="634.77" y1="692.59" x2="634.77" y2="723.06"/>
        <polyline class="jt" points="634.77 723.57 634.77 724.57 633.77 724.57"/>
        <line class="jy" x1="632.79" y1="724.57" x2="568.23" y2="724.57"/>
        <path class="jt" d="M567.74,724.57h-1v-1"/>
        <path class="kh" d="M566.74,722.55v-30.47"/>
      </g>
    </g>
    <g id="cf" data-name="LWPOLYLINE">
      <g>
        <polyline class="jt" points="587.43 728.41 587.43 727.41 588.43 727.41"/>
        <line class="jv" x1="589.37" y1="727.41" x2="611.48" y2="727.41"/>
        <polyline class="jt" points="611.95 727.41 612.95 727.41 612.95 728.41"/>
        <path class="ju" d="M612.95,729.39v15.02c0,7.04-5.71,12.76-12.76,12.76s-12.76-5.71-12.76-12.76v-15.51"/>
      </g>
    </g>
    <g id="cg" data-name="LINE">
      <line class="jt" x1="225.17" y1="645.77" x2="222.33" y2="645.77"/>
    </g>
    <g id="ch" data-name="LINE">
      <line class="jt" x1="220.35" y1="645.77" x2="171.31" y2="645.77"/>
    </g>
    <g id="ci" data-name="LINE">
      <line class="jt" x1="225.17" y1="660.51" x2="222.33" y2="660.51"/>
    </g>
    <g id="cj" data-name="LINE">
      <line class="jt" x1="220.35" y1="660.51" x2="171.31" y2="660.51"/>
    </g>
    <g id="ck" data-name="LINE">
      <line class="jt" x1="225.17" y1="675.25" x2="222.33" y2="675.25"/>
    </g>
    <g id="cl" data-name="LINE">
      <line class="jt" x1="220.35" y1="675.25" x2="171.31" y2="675.25"/>
    </g>
    <g id="cm" data-name="LINE">
      <line class="jt" x1="225.17" y1="689.99" x2="222.33" y2="689.99"/>
    </g>
    <g id="cn" data-name="LINE">
      <line class="jt" x1="220.35" y1="689.99" x2="171.31" y2="689.99"/>
    </g>
    <g id="co" data-name="LINE">
      <line class="jt" x1="225.17" y1="704.73" x2="222.33" y2="704.73"/>
    </g>
    <g id="cp" data-name="LINE">
      <line class="jt" x1="220.35" y1="704.73" x2="171.31" y2="704.73"/>
    </g>
    <g id="cq" data-name="LINE">
      <line class="jt" x1="225.17" y1="704.73" x2="223.37" y2="706.71"/>
    </g>
    <g id="cr" data-name="LINE">
      <line class="jt" x1="221.58" y1="708.7" x2="171.31" y2="764.26"/>
    </g>
    <g id="cs" data-name="LINE">
      <line class="jt" x1="225.17" y1="700.48" x2="225.17" y2="706.71"/>
    </g>
    <g id="ct" data-name="LINE">
      <line class="jt" x1="225.17" y1="708.7" x2="225.17" y2="764.26"/>
    </g>
    <g id="cu" data-name="LWPOLYLINE">
      <polyline class="jt" points="222.33 640.95 222.33 706.71 236.5 706.71 236.5 708.7 220.35 708.7 220.35 640.95"/>
    </g>
    <g id="cv" data-name="LWPOLYLINE">
      <polyline class="jt" points="171.31 640.95 171.31 764.26 225.17 764.26"/>
    </g>
    <g id="cw" data-name="LWPOLYLINE">
      <rect class="jt" x="298.87" y="781.26" width="2.83" height="5.67"/>
    </g>
    <g id="cx" data-name="LWPOLYLINE">
      <polyline class="jt" points="299.72 786.93 299.72 788.07 300.85 788.07 300.85 786.93"/>
    </g>
    <g id="cy" data-name="LINE">
      <line class="jt" x1="300.28" y1="788.07" x2="300.28" y2="789.77"/>
    </g>
    <g id="cz" data-name="LWPOLYLINE">
      <polyline class="jt" points="298.87 789.07 298.87 789.77 301.7 789.77 301.7 789.08"/>
    </g>
    <g id="da" data-name="LWPOLYLINE">
      <rect class="jt" x="426.43" y="781.26" width="2.83" height="5.67"/>
    </g>
    <g id="db" data-name="LWPOLYLINE">
      <polyline class="jt" points="427.28 786.93 427.28 788.07 428.41 788.07 428.41 786.93"/>
    </g>
    <g id="dc" data-name="LINE">
      <line class="jt" x1="427.84" y1="788.07" x2="427.84" y2="789.77"/>
    </g>
    <g id="dd" data-name="LWPOLYLINE">
      <polyline class="jt" points="426.43 789.07 426.43 789.77 429.26 789.77 429.26 789.08"/>
    </g>
    <g id="de" data-name="LWPOLYLINE">
      <rect class="jt" x="610.68" y="781.26" width="2.83" height="5.67"/>
    </g>
    <g id="df" data-name="LWPOLYLINE">
      <polyline class="jt" points="611.53 786.93 611.53 788.07 612.66 788.07 612.66 786.93"/>
    </g>
    <g id="dg" data-name="LINE">
      <line class="jt" x1="612.1" y1="788.07" x2="612.1" y2="789.77"/>
    </g>
    <g id="dh" data-name="LWPOLYLINE">
      <polyline class="jt" points="610.68 789.07 610.68 789.77 613.51 789.77 613.51 789.08"/>
    </g>
    <g id="di" data-name="LWPOLYLINE">
      <rect class="jt" x="637.76" y="781.74" width="2.83" height="5.67" transform="translate(-359.04 618.23) rotate(-41.37)"/>
    </g>
    <g id="dj" data-name="LWPOLYLINE">
      <polyline class="jt" points="640.63 787.08 641.38 787.93 642.23 787.18 641.48 786.33"/>
    </g>
    <g id="dk" data-name="LINE">
      <line class="jt" x1="641.8" y1="787.56" x2="642.92" y2="788.83"/>
    </g>
    <g id="dl" data-name="LWPOLYLINE">
      <polyline class="jt" points="641.4 789.24 641.86 789.77 643.99 787.9 643.53 787.38"/>
    </g>
    <g id="dm" data-name="LWPOLYLINE">
      <rect class="jt" x="457.61" y="781.26" width="2.83" height="5.67"/>
    </g>
    <g id="dn" data-name="LWPOLYLINE">
      <polyline class="jt" points="458.46 786.93 458.46 788.07 459.59 788.07 459.59 786.93"/>
    </g>
    <g id="do" data-name="LINE">
      <line class="jt" x1="459.02" y1="788.07" x2="459.02" y2="789.77"/>
    </g>
    <g id="dp" data-name="LWPOLYLINE">
      <polyline class="jt" points="457.61 789.07 457.61 789.77 460.44 789.77 460.44 789.08"/>
    </g>
    <g id="dq" data-name="LWPOLYLINE">
      <rect class="jt" x="732.58" y="698.58" width="2.83" height="5.67" transform="translate(-280.41 660.14) rotate(-41.37)"/>
    </g>
    <g id="dr" data-name="LWPOLYLINE">
      <polyline class="jt" points="735.44 703.91 736.19 704.76 737.04 704.02 736.29 703.16"/>
    </g>
    <g id="ds" data-name="LINE">
      <line class="jt" x1="736.62" y1="704.39" x2="737.74" y2="705.67"/>
    </g>
    <g id="dt" data-name="LWPOLYLINE">
      <polyline class="jt" points="736.21 706.08 736.68 706.6 738.8 704.73 738.35 704.21"/>
    </g>
    <g id="du" data-name="LWPOLYLINE">
      <rect class="jt" x="730.3" y="673.55" width="5.67" height="2.83"/>
    </g>
    <g id="dv" data-name="LWPOLYLINE">
      <polyline class="jt" points="735.97 675.53 737.1 675.53 737.1 674.4 735.97 674.4"/>
    </g>
    <g id="dw" data-name="LINE">
      <line class="jt" x1="737.1" y1="674.97" x2="738.8" y2="674.97"/>
    </g>
    <g id="dx" data-name="LWPOLYLINE">
      <polyline class="jt" points="738.1 676.38 738.8 676.38 738.8 673.55 738.11 673.55"/>
    </g>
    <g id="dy" data-name="LWPOLYLINE">
      <rect class="jt" x="382.21" y="781.26" width="2.83" height="5.67"/>
    </g>
    <g id="dz" data-name="LWPOLYLINE">
      <polyline class="jt" points="383.06 786.93 383.06 788.07 384.19 788.07 384.19 786.93"/>
    </g>
    <g id="ea" data-name="LINE">
      <line class="jt" x1="383.62" y1="788.07" x2="383.62" y2="789.77"/>
    </g>
    <g id="eb" data-name="LWPOLYLINE">
      <polyline class="jt" points="382.21 789.07 382.21 789.77 385.04 789.77 385.04 789.08"/>
    </g>
    <g id="ec" data-name="LWPOLYLINE">
      <rect class="jt" x="626.27" y="629.61" width="2.83" height="5.67"/>
    </g>
    <g id="ed" data-name="LWPOLYLINE">
      <polyline class="jt" points="628.25 629.61 628.25 628.48 627.12 628.48 627.12 629.61"/>
    </g>
    <g id="ee" data-name="LINE">
      <line class="jt" x1="627.69" y1="628.48" x2="627.69" y2="626.78"/>
    </g>
    <g id="ef" data-name="LWPOLYLINE">
      <polyline class="jt" points="629.1 627.48 629.1 626.78 626.27 626.78 626.27 627.47"/>
    </g>
    <g id="eg" data-name="LWPOLYLINE">
      <rect class="jt" x="442.02" y="629.61" width="2.83" height="5.67"/>
    </g>
    <g id="eh" data-name="LWPOLYLINE">
      <polyline class="jt" points="444 629.61 444 628.48 442.87 628.48 442.87 629.61"/>
    </g>
    <g id="ei" data-name="LINE">
      <line class="jt" x1="443.43" y1="628.48" x2="443.43" y2="626.78"/>
    </g>
    <g id="ej" data-name="LWPOLYLINE">
      <polyline class="jt" points="444.85 627.48 444.85 626.78 442.02 626.78 442.02 627.47"/>
    </g>
    <g id="ek" data-name="LWPOLYLINE">
      <rect class="jt" x="341.86" y="629.61" width="2.83" height="5.67"/>
    </g>
    <g id="el" data-name="LWPOLYLINE">
      <polyline class="jt" points="343.84 629.61 343.84 628.48 342.71 628.48 342.71 629.61"/>
    </g>
    <g id="em" data-name="LINE">
      <line class="jt" x1="343.28" y1="628.48" x2="343.28" y2="626.78"/>
    </g>
    <g id="en" data-name="LWPOLYLINE">
      <polyline class="jt" points="344.69 627.48 344.69 626.78 341.86 626.78 341.86 627.47"/>
    </g>
    <g id="eo" data-name="LWPOLYLINE">
      <rect class="jt" x="141.54" y="781.26" width="2.83" height="5.67"/>
    </g>
    <g id="ep" data-name="LWPOLYLINE">
      <polyline class="jt" points="142.39 786.93 142.39 788.07 143.53 788.07 143.53 786.93"/>
    </g>
    <g id="eq" data-name="LINE">
      <line class="jt" x1="142.96" y1="788.07" x2="142.96" y2="789.77"/>
    </g>
    <g id="er" data-name="LWPOLYLINE">
      <polyline class="jt" points="141.54 789.07 141.54 789.77 144.38 789.77 144.38 789.08"/>
    </g>
    <g id="es" data-name="LWPOLYLINE">
      <rect class="jt" x="267.69" y="781.26" width="2.83" height="5.67"/>
    </g>
    <g id="et" data-name="LWPOLYLINE">
      <polyline class="jt" points="268.54 786.93 268.54 788.07 269.67 788.07 269.67 786.93"/>
    </g>
    <g id="eu" data-name="LINE">
      <line class="jt" x1="269.1" y1="788.07" x2="269.1" y2="789.77"/>
    </g>
    <g id="ev" data-name="LWPOLYLINE">
      <polyline class="jt" points="267.69 789.07 267.69 789.77 270.52 789.77 270.52 789.08"/>
    </g>
    <g id="ew" data-name="LWPOLYLINE">
      <rect class="jt" x="438.05" y="655.12" width="2.83" height="8.5"/>
    </g>
    <g id="ex" data-name="LWPOLYLINE">
      <rect class="jt" x="382.49" y="629.61" width="2.83" height="5.67"/>
    </g>
    <g id="ey" data-name="LWPOLYLINE">
      <polyline class="jt" points="384.47 629.61 384.47 628.48 383.34 628.48 383.34 629.61"/>
    </g>
    <g id="ez" data-name="LINE">
      <line class="jt" x1="383.91" y1="628.48" x2="383.91" y2="626.78"/>
    </g>
    <g id="fa" data-name="LWPOLYLINE">
      <polyline class="jt" points="385.32 627.48 385.32 626.78 382.49 626.78 382.49 627.47"/>
    </g>
    <g id="fb" data-name="LWPOLYLINE">
      <rect class="jt" x="435.78" y="626.78" width="3.4" height="3.4"/>
    </g>
    <g id="fc" data-name="LWPOLYLINE">
      <rect class="jt" x="388.16" y="626.78" width="3.4" height="3.4"/>
    </g>
    <g id="fd" data-name="LWPOLYLINE">
      <rect class="jt" x="270.99" y="694.81" width="2.83" height="5.67"/>
    </g>
    <g id="fe" data-name="LWPOLYLINE">
      <rect class="jt" x="307.84" y="694.81" width="2.83" height="5.67"/>
    </g>
    <g id="ff" data-name="LWPOLYLINE">
      <rect class="jt" x="273.83" y="694.81" width="34.02" height="1.7"/>
    </g>
    <g id="fg" data-name="LWPOLYLINE">
      <rect class="jt" x="385.32" y="629.61" width="2.83" height="5.67"/>
    </g>
    <g id="fh" data-name="LWPOLYLINE">
      <polyline class="jt" points="387.31 629.61 387.31 628.48 386.17 628.48 386.17 629.61"/>
    </g>
    <g id="fi" data-name="LINE">
      <line class="jt" x1="386.74" y1="628.48" x2="386.74" y2="626.78"/>
    </g>
    <g id="fj" data-name="LWPOLYLINE">
      <polyline class="jt" points="388.16 627.48 388.16 626.78 385.32 626.78 385.32 627.47"/>
    </g>
    <g id="fk" data-name="LWPOLYLINE">
      <rect class="jt" x="439.18" y="629.61" width="2.83" height="5.67"/>
    </g>
    <g id="fl" data-name="LWPOLYLINE">
      <polyline class="jt" points="441.17 629.61 441.17 628.48 440.03 628.48 440.03 629.61"/>
    </g>
    <g id="fm" data-name="LINE">
      <line class="jt" x1="440.6" y1="628.48" x2="440.6" y2="626.78"/>
    </g>
    <g id="fn" data-name="LWPOLYLINE">
      <polyline class="jt" points="442.02 627.48 442.02 626.78 439.18 626.78 439.18 627.47"/>
    </g>
    <g id="fo" data-name="LINE">
      <line class="jt" x1="301.7" y1="781.26" x2="382.21" y2="781.26"/>
    </g>
    <g id="fp" data-name="LINE">
      <line class="jt" x1="385.04" y1="781.26" x2="426.43" y2="781.26"/>
    </g>
    <g id="fq" data-name="LINE">
      <line class="jt" x1="301.7" y1="789.77" x2="382.21" y2="789.77"/>
    </g>
    <g id="fr" data-name="LINE">
      <line class="jt" x1="385.04" y1="789.77" x2="426.43" y2="789.77"/>
    </g>
    <g id="fs" data-name="LINE">
      <line class="jt" x1="460.44" y1="781.26" x2="610.68" y2="781.26"/>
    </g>
    <g id="ft" data-name="LINE">
      <line class="jt" x1="460.44" y1="789.77" x2="610.68" y2="789.77"/>
    </g>
    <g id="fu" data-name="LINE">
      <line class="jt" x1="638.37" y1="781.51" x2="731.06" y2="700.22"/>
    </g>
    <g id="fv" data-name="LINE">
      <line class="jt" x1="736.68" y1="706.6" x2="643.99" y2="787.9"/>
    </g>
    <g id="fw" data-name="LINE">
      <line class="jt" x1="152.88" y1="781.26" x2="267.69" y2="781.26"/>
    </g>
    <g id="fx" data-name="LINE">
      <line class="jt" x1="144.38" y1="789.77" x2="267.69" y2="789.77"/>
    </g>
    <g id="fy" data-name="LWPOLYLINE">
      <polyline class="jt" points="629.1 635.28 730.3 635.28 730.3 673.55"/>
    </g>
    <g id="fz" data-name="LINE">
      <line class="jt" x1="626.27" y1="635.28" x2="444.85" y2="635.28"/>
    </g>
    <g id="ga" data-name="LINE">
      <line class="jt" x1="626.27" y1="626.78" x2="444.85" y2="626.78"/>
    </g>
    <g id="gb" data-name="LINE">
      <line class="jt" x1="391.56" y1="626.78" x2="435.78" y2="626.78"/>
    </g>
    <g id="gc" data-name="LINE">
      <line class="jt" x1="435.78" y1="630.18" x2="391.56" y2="630.18"/>
    </g>
    <g id="gd" data-name="LINE">
      <line class="jt" x1="382.49" y1="635.28" x2="344.69" y2="635.28"/>
    </g>
    <g id="ge" data-name="LINE">
      <line class="jt" x1="382.49" y1="626.78" x2="344.69" y2="626.78"/>
    </g>
    <g id="gf" data-name="LWPOLYLINE">
      <polyline class="jt" points="629.1 626.78 738.8 626.78 738.8 673.55"/>
    </g>
    <g id="gg" data-name="LWPOLYLINE">
      <g>
        <line class="jl" x1="439.75" y1="655.12" x2="440.75" y2="655.12"/>
        <line class="jp" x1="441.76" y1="655.12" x2="483.6" y2="655.12"/>
        <polyline class="jl" points="484.1 655.12 485.1 655.12 485.1 655.69 484.1 655.69"/>
        <line class="jp" x1="483.09" y1="655.69" x2="441.25" y2="655.69"/>
        <line class="jl" x1="440.75" y1="655.69" x2="439.75" y2="655.69"/>
      </g>
    </g>
    <g id="gh" data-name="ARC">
      <g>
        <path class="jl" d="M439.75,700.48c.33,0,.67,0,1-.01"/>
        <path class="kd" d="M441.74,700.43c23.63-1.02,42.57-20.12,43.34-43.82"/>
        <path class="jl" d="M485.09,656.12c0-.33.01-.67.01-1"/>
      </g>
    </g>
    <g id="gi" data-name="LWPOLYLINE">
      <g>
        <polyline class="jl" points="439.18 625.78 439.18 626.78 438.18 626.78"/>
        <polyline class="jl" points="436.78 626.78 435.78 626.78 435.78 625.78"/>
        <line class="jz" x1="435.78" y1="624.78" x2="435.78" y2="577.25"/>
        <polyline class="jl" points="435.78 576.75 435.78 575.75 436.78 575.75"/>
        <polyline class="jl" points="438.18 575.75 439.18 575.75 439.18 576.75"/>
        <line class="jz" x1="439.18" y1="577.75" x2="439.18" y2="625.28"/>
      </g>
    </g>
    <g id="gj" data-name="ARC">
      <g>
        <path class="jl" d="M439.18,575.75c-.33,0-.67,0-1,0"/>
        <path class="jq" d="M437.19,575.79c-26.76,1.03-48.24,22.66-49.01,49.49"/>
        <path class="jl" d="M388.17,625.78c0,.33,0,.67,0,1"/>
      </g>
    </g>
    <g id="gk" data-name="LWPOLYLINE">
      <g>
        <polyline class="jl" points="307.84 693.81 307.84 694.81 306.14 694.81 306.14 693.81"/>
        <line class="kg" x1="306.14" y1="692.78" x2="306.14" y2="662.31"/>
        <polyline class="jl" points="306.14 661.79 306.14 660.79 307.84 660.79 307.84 661.79"/>
        <line class="kg" x1="307.84" y1="662.83" x2="307.84" y2="693.29"/>
      </g>
    </g>
    <g id="gl" data-name="ARC">
      <g>
        <path class="jl" d="M307.84,660.79c-.33,0-.67,0-1,.01"/>
        <path class="kf" d="M305.86,660.85c-17.37,1-31.24,15.03-32,32.46"/>
        <path class="jl" d="M273.84,693.81c0,.33-.01.67-.01,1"/>
      </g>
    </g>
    <g id="gm" data-name="CIRCLE">
      <circle class="jl" cx="225.17" cy="734.49" r="1.42"/>
    </g>
    <g id="gn" data-name="LWPOLYLINE">
      <polyline class="jl" points="198.24 648.6 198.24 734.49 225.17 734.49"/>
    </g>
    <g id="go" data-name="LWPOLYLINE">
      <polyline class="jl" points="201.44 651.81 198.24 648.6 195.03 651.81"/>
    </g>
    <g id="gp" data-name="LWPOLYLINE">
      <path class="jl" d="M353.54,668.53h-9.13v2.72h9.13c.75,0,1.36-.61,1.36-1.36s-.61-1.36-1.36-1.36Z"/>
    </g>
    <g id="gq" data-name="LWPOLYLINE">
      <polyline class="jl" points="347.53 668.53 347.53 652.03 373.04 652.03 373.04 687.75 347.53 687.75 347.53 671.25"/>
    </g>
    <g id="gr" data-name="LWPOLYLINE">
      <polyline class="jl" points="341.86 700.48 375.87 700.48 375.87 635.28"/>
    </g>
    <g id="gs" data-name="LWPOLYLINE">
      <path class="jl" d="M261.17,680.07h-28.63v-24.38h28.63c6.73,0,12.19,5.46,12.19,12.19s-5.46,12.19-12.19,12.19Z"/>
    </g>
    <g id="gt" data-name="LINE">
      <line class="jl" x1="310.68" y1="694.81" x2="310.68" y2="640.95"/>
    </g>
    <g id="gu" data-name="LWPOLYLINE">
      <rect class="jl" x="318.39" y="679.77" width="2.27" height="8.5"/>
    </g>
    <g id="gv" data-name="LWPOLYLINE">
      <polyline class="jl" points="320.66 685.44 328.03 685.44 328.03 659.36 312.72 659.36 312.72 685.44 318.39 685.44"/>
    </g>
    <g id="gw" data-name="LWPOLYLINE">
      <polygon class="jl" points="737.1 621.96 737.1 456.98 495.31 456.98 495.31 459.25 734.84 459.25 734.84 621.96 737.1 621.96"/>
    </g>
    <g id="gx" data-name="LINE">
      <line class="jl" x1="613.51" y1="778.43" x2="457.61" y2="778.43"/>
    </g>
    <g id="gy" data-name="LINE">
      <line class="jl" x1="429.26" y1="778.43" x2="298.87" y2="778.43"/>
    </g>
    <g id="gz" data-name="LINE">
      <line class="jl" x1="727.47" y1="676.38" x2="727.47" y2="635.28"/>
    </g>
    <g id="ha" data-name="LINE">
      <line class="jl" x1="439.18" y1="635.28" x2="388.16" y2="635.28"/>
    </g>
    <g id="hb" data-name="LWPOLYLINE">
      <polyline class="jl" points="230.84 626.78 230.84 467.75 135.87 467.75 135.87 626.78"/>
    </g>
    <g id="hc" data-name="LWPOLYLINE">
      <polyline class="jl" points="738.8 626.78 738.8 455.28 494.17 455.28 494.17 467.75"/>
    </g>
    <g id="hd" data-name="LWPOLYLINE">
      <polyline class="jl" points="230.84 481.93 508.35 481.93 508.35 467.75 230.84 467.75"/>
    </g>
    <g id="he" data-name="LINE">
      <line class="jl" x1="169.89" y1="773.5" x2="280.44" y2="773.5"/>
    </g>
    <g id="hf" data-name="LINE">
      <line class="jl" x1="169.89" y1="766.35" x2="280.44" y2="766.35"/>
    </g>
    <g id="hg" data-name="LINE">
      <line class="jl" x1="162.07" y1="649.45" x2="162.07" y2="765.67"/>
    </g>
    <g id="hh" data-name="LINE">
      <line class="jl" x1="169.21" y1="649.45" x2="169.21" y2="765.67"/>
    </g>
    <g id="hi" data-name="LWPOLYLINE">
      <polyline class="jl" points="727.47 626.78 727.47 467.75 508.35 467.75"/>
    </g>
    <g id="hj" data-name="LINE">
      <line class="jl" x1="637.58" y1="778.43" x2="727.47" y2="699.6"/>
    </g>
    <g id="hk" data-name="LWPOLYLINE">
      <rect class="kb" x="439.18" y="765.67" width="8.5" height="8.5"/>
    </g>
    <g id="hl" data-name="LWPOLYLINE">
      <rect class="kb" x="439.86" y="766.35" width="7.14" height="7.14"/>
    </g>
    <g id="hm" data-name="LWPOLYLINE">
      <rect class="kb" x="623.43" y="765.67" width="8.5" height="8.5"/>
    </g>
    <g id="hn" data-name="LWPOLYLINE">
      <rect class="kb" x="624.11" y="766.35" width="7.14" height="7.14"/>
    </g>
    <g id="ho" data-name="LWPOLYLINE">
      <rect class="kb" x="714.71" y="686.3" width="8.5" height="8.5"/>
    </g>
    <g id="hp" data-name="LWPOLYLINE">
      <rect class="kb" x="715.39" y="686.98" width="7.14" height="7.14"/>
    </g>
    <g id="hq" data-name="LWPOLYLINE">
      <rect class="kb" x="161.39" y="765.67" width="8.5" height="8.5"/>
    </g>
    <g id="hr" data-name="LWPOLYLINE">
      <rect class="kb" x="162.07" y="766.35" width="7.14" height="7.14"/>
    </g>
    <g id="hs" data-name="LWPOLYLINE">
      <rect class="kb" x="280.44" y="765.67" width="8.5" height="8.5"/>
    </g>
    <g id="ht" data-name="LWPOLYLINE">
      <rect class="kb" x="281.12" y="766.35" width="7.14" height="7.14"/>
    </g>
    <g id="hu" data-name="LWPOLYLINE">
      <rect class="kb" x="714.71" y="640.95" width="8.5" height="8.5"/>
    </g>
    <g id="hv" data-name="LWPOLYLINE">
      <rect class="kb" x="715.39" y="641.63" width="7.14" height="7.14"/>
    </g>
    <g id="hw" data-name="LWPOLYLINE">
      <rect class="kb" x="623.43" y="640.95" width="8.5" height="8.5"/>
    </g>
    <g id="hx" data-name="LWPOLYLINE">
      <rect class="kb" x="624.11" y="641.63" width="7.14" height="7.14"/>
    </g>
    <g id="hy" data-name="LWPOLYLINE">
      <rect class="kb" x="439.18" y="640.95" width="8.5" height="8.5"/>
    </g>
    <g id="hz" data-name="LWPOLYLINE">
      <rect class="kb" x="439.86" y="641.63" width="7.14" height="7.14"/>
    </g>
    <g id="ia" data-name="LWPOLYLINE">
      <rect class="kb" x="280.44" y="640.95" width="8.5" height="8.5"/>
    </g>
    <g id="ib" data-name="LWPOLYLINE">
      <rect class="kb" x="281.12" y="641.63" width="7.14" height="7.14"/>
    </g>
    <g id="ic" data-name="LWPOLYLINE">
      <rect class="kb" x="161.39" y="640.95" width="8.5" height="8.5"/>
    </g>
    <g id="id" data-name="LWPOLYLINE">
      <rect class="kb" x="162.07" y="641.63" width="7.14" height="7.14"/>
    </g>
    <g id="ie" data-name="LWPOLYLINE">
      <rect class="kb" x="429.26" y="789.77" width="28.35" height="14.17"/>
    </g>
    <g id="if" data-name="LWPOLYLINE">
      <rect class="kb" x="613.51" y="789.77" width="28.35" height="14.17"/>
    </g>
    <g id="ig" data-name="LWPOLYLINE">
      <rect class="kb" x="270.52" y="789.77" width="28.35" height="14.17"/>
    </g>
    <g id="ih" data-name="LWPOLYLINE">
      <rect class="kb" x="738.8" y="676.38" width="14.17" height="28.35"/>
    </g>
    <g id="ii" data-name="LINE">
      <line class="jo" x1="152.88" y1="629.61" x2="341.86" y2="629.61"/>
    </g>
    <g id="ij" data-name="LINE">
      <line class="jo" x1="152.88" y1="635.28" x2="341.86" y2="635.28"/>
    </g>
    <g id="ik" data-name="LWPOLYLINE">
      <polyline class="ke" points="341.86 626.78 135.87 626.78 135.87 789.77 141.54 789.77"/>
    </g>
    <g id="il" data-name="LWPOLYLINE">
      <polyline class="ke" points="152.88 640.95 225.17 640.95 225.17 700.48 270.99 700.48"/>
    </g>
    <g id="im" data-name="LWPOLYLINE">
      <polyline class="ke" points="270.99 694.81 230.84 694.81 230.84 640.95 336.19 640.95 336.19 694.81 310.68 694.81"/>
    </g>
    <g id="in" data-name="LWPOLYLINE">
      <polyline class="ke" points="738.8 676.38 727.47 676.38 727.47 699.6 731.76 699.6"/>
    </g>
    <g id="io" data-name="LWPOLYLINE">
      <polyline class="ke" points="613.51 789.77 613.51 778.43 637.58 778.43 637.58 782.2"/>
    </g>
    <g id="ip" data-name="LWPOLYLINE">
      <polyline class="ke" points="457.61 789.77 457.61 778.43 429.26 778.43 429.26 789.77"/>
    </g>
    <g id="iq" data-name="LWPOLYLINE">
      <rect class="ke" x="438.61" y="701.04" width="5.67" height="42.52"/>
    </g>
    <g id="ir" data-name="LWPOLYLINE">
      <polyline class="ke" points="310.68 700.48 341.86 700.48 341.86 635.28"/>
    </g>
    <g id="is" data-name="LWPOLYLINE">
      <rect class="ke" x="141.54" y="629.61" width="11.34" height="151.65"/>
    </g>
    <g id="it" data-name="LWPOLYLINE">
      <polyline class="ke" points="298.87 789.77 298.87 778.43 270.52 778.43 270.52 789.77"/>
    </g>
  </g>
  <g id="iy" data-name="SCALE">
    <g>
      <g id="iz" data-name="CIRCLE">
        <circle class="jl" cx="69.24" cy="1074" r="14.88"/>
      </g>
      <g id="ja" data-name="TEXT">
        <text class="jw" transform="translate(72.45 1055.85) rotate(22.03) scale(.9 1)"><tspan x="0" y="0">N</tspan></text>
      </g>
      <g id="jb" data-name="HATCH">
        <path class="jn" d="M74.82,1060.21c-.23-.09-.46-.18-.7-.26l-5.57,13.78.69.28,5.58-13.8Z"/>
      </g>
      <g id="jc" data-name="HATCH">
        <path class="jn" d="M75.5,1060.5c-.23-.1-.45-.2-.69-.3l-5.58,13.8.69.28,5.57-13.78Z"/>
      </g>
      <g id="jd" data-name="LINE">
        <line class="jl" x1="74.12" y1="1059.94" x2="68.54" y2="1073.72"/>
      </g>
      <g id="je" data-name="LINE">
        <line class="jl" x1="75.5" y1="1060.5" x2="69.93" y2="1074.28"/>
      </g>
      <g id="jf" data-name="LINE">
        <line class="jl" x1="69.24" y1="1074" x2="74.82" y2="1060.21"/>
      </g>
      <g id="jg" data-name="MTEXT">
        <text class="jm" transform="translate(50 1146.53)"><tspan x="0" y="0">0</tspan></text>
      </g>
      <g id="jh" data-name="MTEXT">
        <text class="jm" transform="translate(163.52 1146.53)"><tspan x="0" y="0">2</tspan></text>
      </g>
      <g id="ji" data-name="MTEXT">
        <text class="jm" transform="translate(107.23 1146.53)"><tspan x="0" y="0">1</tspan></text>
      </g>
      <g id="jj" data-name="MTEXT">
        <text class="jm" transform="translate(327 1146.48)"><tspan x="0" y="0">5m</tspan></text>
      </g>
      <g id="jk" data-name="LWPOLYLINE">
        <polyline class="jl" points="337.82 1130.89 337.82 1113.88 167.74 1113.88 167.74 1130.89 111.05 1130.89 111.05 1113.88 54.35 1113.88 54.35 1130.89"/>
      </g>
    </g>
    <g>
      <text class="kc" transform="translate(814.96 1111.05)"><tspan x="0" y="0">대표실</tspan><tspan x="0" y="18">테라스</tspan><tspan x="0" y="36">화장실</tspan></text>
      <text class="kc" transform="translate(801.74 1111.05)"><tspan x="0" y="0">1</tspan><tspan x="-1.58" y="18">2</tspan><tspan x="-1.74" y="36">3</tspan></text>
    </g>
    <text class="js" transform="translate(565.94 685.44)"><tspan x="0" y="0">1</tspan></text>
    <text class="js" transform="translate(447.69 541.03)"><tspan x="0" y="0">2</tspan></text>
    <text class="js" transform="translate(281.12 665.01)"><tspan x="0" y="0">3</tspan></text>
  </g>
</svg>