<?xml version="1.0" encoding="UTF-8"?>
<svg xmlns="http://www.w3.org/2000/svg" viewBox="0 0 900 1200">
  <defs>
    <style>
      .ly, .lz, .ma, .mb, .mc, .md, .me, .mf, .mg, .mh, .mi, .mj, .mk, .ml, .mm, .mn, .mo, .mp, .mq, .mr, .ms, .mt, .mu, .mv, .mw, .mx {
        stroke: #000;
      }

      .ly, .lz, .ma, .md, .mj, .mk, .mo, .mr, .mu, .mv, .mx {
        stroke-width: .5px;
      }

      .ly, .ma, .mb, .mc, .md, .me, .mg, .mh, .mi, .mk, .ml, .mm, .mn, .mo, .mp, .mq, .mr, .mt, .mu, .mv, .mw, .mx {
        stroke-miterlimit: 10;
      }

      .ly, .mb, .mc, .md, .me, .mg, .mh, .mi, .mk, .ml, .mm, .mn, .mo, .mp, .mq, .mr, .mt, .mu, .mv, .mw, .mx {
        fill: none;
      }

      .lz {
        fill: #231815;
        font-size: 16px;
      }

      .lz, .mj {
        font-family: SUITVariable-Medium, 'SUIT Variable';
        font-variation-settings: 'wght' 500;
        font-weight: 500;
      }

      .ma {
        fill: #040000;
        fill-rule: evenodd;
      }

      .mb {
        stroke-width: .75px;
      }

      .mc {
        stroke-width: .85px;
      }

      .md {
        stroke-dasharray: 1.98 .99;
      }

      .me {
        stroke-width: .15px;
      }

      .mf, .mj {
        font-size: 12px;
      }

      .mf, .ms {
        font-family: SUITVariable-ExtraLight, 'SUIT Variable';
        font-variation-settings: 'wght' 200;
        font-weight: 200;
        stroke-width: .34px;
      }

      .mg, .mh, .mi, .mm, .mn, .mw {
        stroke-width: .4px;
      }

      .mh {
        stroke-dasharray: 1.97 .99;
      }

      .mi {
        stroke-dasharray: 1.88 .94;
      }

      .mk {
        stroke-dasharray: 2.04 1.02;
      }

      .ml {
        stroke-width: .25px;
      }

      .mm {
        stroke-dasharray: 1.97 .99;
      }

      .mn {
        stroke-dasharray: 1.99 .99;
      }

      .mo {
        stroke-dasharray: 2 1;
      }

      .mp {
        stroke-width: .3px;
      }

      .mq {
        stroke-width: .6px;
      }

      .mr {
        stroke-dasharray: 1.98 .99;
      }

      .ms {
        font-size: 14px;
      }

      .mt {
        stroke-width: .9px;
      }

      .mu {
        stroke-dasharray: 1.98 .99;
      }

      .mv {
        stroke-dasharray: 1.98 .99;
      }

      .mw {
        stroke-dasharray: 2.02 1.01;
      }

      .mx {
        stroke-dasharray: 2.07 1.03;
      }
    </style>
  </defs>
  <g id="at" data-name="f3">
    <g id="au" data-name="HATCH">
      <path class="me" d="M142.72,469.45v-36.28M146.32,469.45v-36.28M149.92,469.45v-36.28M153.52,469.45v-36.28M157.12,469.45v-36.28M160.72,469.45v-36.28M164.32,469.45v-36.28M167.92,469.45v-36.28M171.52,469.45v-36.28M175.12,469.45v-36.28M178.72,469.45v-36.28M182.32,469.45v-36.28M185.92,469.45v-36.28M189.52,469.45v-36.28M193.12,469.45v-36.28M196.72,469.45v-36.28M200.32,469.45v-36.28M203.92,469.45v-36.28M207.52,469.45v-36.28M211.12,469.45v-36.28M214.72,469.45v-36.28M218.32,469.45v-36.28M221.92,469.45v-36.28M225.52,469.45v-36.28M229.12,469.45v-36.28M232.72,469.45v-36.28M236.32,469.45v-36.28M239.92,469.45v-36.28M243.52,469.45v-36.28M247.12,469.45v-36.28M250.72,469.45v-36.28M254.32,469.45v-36.28M257.92,469.45v-36.28M261.52,469.45v-36.28M265.12,469.45v-36.28M268.72,469.45v-36.28M272.32,469.45v-36.28M275.92,469.45v-36.28M279.52,469.45v-36.28M283.12,469.45v-36.28M286.72,469.45v-36.28M290.32,469.45v-36.28M293.92,469.45v-36.28M297.52,469.45v-36.28M301.12,469.45v-36.28M304.72,469.45v-36.28M308.32,469.45v-36.28M311.92,469.45v-36.28M315.52,469.45v-36.28M319.12,469.45v-36.28M322.72,469.45v-36.28M326.32,469.45v-36.28M329.92,469.45v-36.28M333.52,469.45v-36.28M337.12,469.45v-36.28M340.72,469.45v-36.28M344.32,469.45v-36.28M347.92,469.45v-36.28M351.52,469.45v-36.28M355.12,469.45v-36.28M358.72,469.45v-36.28M362.32,469.45v-36.28M365.92,469.45v-36.28M369.52,469.45v-36.28M373.12,469.45v-36.28M376.72,469.45v-36.28M380.32,469.45v-36.28M383.92,469.45v-36.28M387.52,469.45v-36.28M391.12,469.45v-36.28M394.72,469.45v-36.28M398.32,469.45v-36.28M401.92,469.45v-36.28M405.52,469.45v-36.28M409.12,469.45v-36.28M412.72,469.45v-36.28M416.32,469.45v-36.28M419.92,469.45v-36.28M423.52,469.45v-36.28M427.12,469.45v-36.28M430.72,469.45v-36.28M434.93,461.27H139.28M434.93,446.87H139.28"/>
    </g>
    <g id="av" data-name="LWPOLYLINE">
      <polyline class="ml" points="279.02 554.49 279.02 559.6 279.59 559.6 279.59 554.49"/>
    </g>
    <g id="aw" data-name="LWPOLYLINE">
      <polyline class="ml" points="279.59 764.26 279.59 714.37 279.02 714.37 279.02 764.26"/>
    </g>
    <g id="ax" data-name="LWPOLYLINE">
      <rect class="ml" x="279.02" y="663.34" width=".57" height="49.89"/>
    </g>
    <g id="ay" data-name="LWPOLYLINE">
      <polyline class="ml" points="279.59 560.16 279.59 611.19 279.02 611.19 279.02 560.16"/>
    </g>
    <g id="az" data-name="LWPOLYLINE">
      <rect class="ml" x="279.02" y="612.32" width=".57" height="49.89"/>
    </g>
    <g id="ba" data-name="LINE">
      <line class="ml" x1="427.28" y1="787.5" x2="384.19" y2="787.5"/>
    </g>
    <g id="bb" data-name="LINE">
      <line class="ml" x1="383.06" y1="787.5" x2="300.85" y2="787.5"/>
    </g>
    <g id="bc" data-name="LINE">
      <line class="ml" x1="426.43" y1="789.07" x2="385.04" y2="789.07"/>
    </g>
    <g id="bd" data-name="LINE">
      <line class="ml" x1="382.21" y1="789.07" x2="301.7" y2="789.08"/>
    </g>
    <g id="be" data-name="LINE">
      <line class="ml" x1="611.53" y1="787.5" x2="459.59" y2="787.5"/>
    </g>
    <g id="bf" data-name="LINE">
      <line class="ml" x1="610.68" y1="789.07" x2="460.44" y2="789.07"/>
    </g>
    <g id="bg" data-name="LINE">
      <line class="ml" x1="641.85" y1="786.76" x2="735.82" y2="704.34"/>
    </g>
    <g id="bh" data-name="LINE">
      <line class="ml" x1="736.21" y1="706.08" x2="643.53" y2="787.38"/>
    </g>
    <g id="bi" data-name="LINE">
      <line class="ml" x1="268.54" y1="787.5" x2="143.53" y2="787.5"/>
    </g>
    <g id="bj" data-name="LINE">
      <line class="ml" x1="267.69" y1="789.08" x2="144.38" y2="789.08"/>
    </g>
    <g id="bk" data-name="LINE">
      <line class="ml" x1="736.54" y1="423.25" x2="736.54" y2="532.95"/>
    </g>
    <g id="bl" data-name="LINE">
      <line class="ml" x1="738.1" y1="424.1" x2="738.1" y2="532.1"/>
    </g>
    <g id="bm" data-name="LINE">
      <line class="ml" x1="736.54" y1="565.26" x2="736.54" y2="674.4"/>
    </g>
    <g id="bn" data-name="LINE">
      <line class="ml" x1="738.1" y1="566.12" x2="738.1" y2="673.55"/>
    </g>
    <g id="bo" data-name="LWPOLYLINE">
      <polyline class="mp" points="434.93 429.77 135.87 429.77 135.87 469.45"/>
    </g>
    <g id="bp" data-name="LWPOLYLINE">
      <polyline class="mp" points="738.8 472.29 752.98 472.29 752.98 398.02 434.93 398.02 434.93 412.76"/>
    </g>
    <g id="bq" data-name="LWPOLYLINE">
      <polyline class="mp" points="270.52 803.94 135.87 803.94 135.87 789.77"/>
    </g>
    <g id="br" data-name="LWPOLYLINE">
      <polyline class="mp" points="613.51 803.94 538.39 803.94 538.39 789.77"/>
    </g>
    <g id="bs" data-name="LWPOLYLINE">
      <polyline class="mp" points="457.61 803.94 532.73 803.94 532.73 789.77"/>
    </g>
    <g id="bt" data-name="LWPOLYLINE">
      <polyline class="mp" points="361.23 789.77 361.23 803.94 298.87 803.94"/>
    </g>
    <g id="bu" data-name="LWPOLYLINE">
      <polyline class="mp" points="429.26 803.94 366.9 803.94 366.9 789.77"/>
    </g>
    <g id="bv" data-name="LWPOLYLINE">
      <polyline class="mp" points="752.98 676.38 752.98 621.96 738.8 621.96"/>
    </g>
    <g id="bw" data-name="LWPOLYLINE">
      <polyline class="mp" points="752.98 704.73 752.98 711.16 702.21 755.68 692.87 745.02"/>
    </g>
    <g id="bx" data-name="LWPOLYLINE">
      <polyline class="mp" points="641.86 803.94 647.19 803.94 697.95 759.42 688.61 748.76"/>
    </g>
    <g id="by" data-name="LWPOLYLINE">
      <polyline class="mp" points="752.98 534.93 752.98 477.96 738.8 477.96"/>
    </g>
    <g id="bz" data-name="LWPOLYLINE">
      <polyline class="mp" points="752.98 563.28 752.98 616.29 738.8 616.29"/>
    </g>
    <g id="ca" data-name="LWPOLYLINE">
      <g>
        <polyline class="mg" points="509.48 652.71 509.48 653.71 510.48 653.71"/>
        <line class="mi" x1="511.42" y1="653.71" x2="533.52" y2="653.71"/>
        <polyline class="mg" points="533.99 653.71 534.99 653.71 534.99 652.71"/>
        <path class="mh" d="M534.99,651.72v-15.02c0-7.04-5.71-12.76-12.76-12.76s-12.76,5.71-12.76,12.76v15.51"/>
      </g>
    </g>
    <g id="cb" data-name="LWPOLYLINE">
      <g>
        <polyline class="mg" points="509.48 728.41 509.48 727.41 510.48 727.41"/>
        <line class="mi" x1="511.42" y1="727.41" x2="533.52" y2="727.41"/>
        <polyline class="mg" points="533.99 727.41 534.99 727.41 534.99 728.41"/>
        <path class="mh" d="M534.99,729.39v15.02c0,7.04-5.71,12.76-12.76,12.76s-12.76-5.71-12.76-12.76v-15.51"/>
      </g>
    </g>
    <g id="cc" data-name="LWPOLYLINE">
      <g>
        <polyline class="mg" points="577.51 652.71 577.51 653.71 578.51 653.71"/>
        <line class="mi" x1="579.45" y1="653.71" x2="601.56" y2="653.71"/>
        <polyline class="mg" points="602.03 653.71 603.03 653.71 603.03 652.71"/>
        <path class="mh" d="M603.03,651.72v-15.02c0-7.04-5.71-12.76-12.76-12.76s-12.76,5.71-12.76,12.76v15.51"/>
      </g>
    </g>
    <g id="cd" data-name="LWPOLYLINE">
      <g>
        <polyline class="mg" points="577.51 728.41 577.51 727.41 578.51 727.41"/>
        <line class="mi" x1="579.45" y1="727.41" x2="601.56" y2="727.41"/>
        <polyline class="mg" points="602.03 727.41 603.03 727.41 603.03 728.41"/>
        <path class="mh" d="M603.03,729.39v15.02c0,7.04-5.71,12.76-12.76,12.76s-12.76-5.71-12.76-12.76v-15.51"/>
      </g>
    </g>
    <g id="ce" data-name="LINE">
      <g>
        <line class="mg" x1="624.85" y1="724.57" x2="624.85" y2="723.57"/>
        <line class="mm" x1="624.85" y1="722.59" x2="624.85" y2="658.03"/>
        <line class="mg" x1="624.85" y1="657.54" x2="624.85" y2="656.54"/>
      </g>
    </g>
    <g id="cf" data-name="LWPOLYLINE">
      <g>
        <polyline class="mg" points="662.7 677.23 661.7 677.23 661.7 678.23"/>
        <line class="mi" x1="661.7" y1="679.17" x2="661.7" y2="701.27"/>
        <polyline class="mg" points="661.7 701.75 661.7 702.75 662.7 702.75"/>
        <path class="mh" d="M663.69,702.75h15.02c7.04,0,12.76-5.71,12.76-12.76s-5.71-12.76-12.76-12.76h-15.51"/>
      </g>
    </g>
    <g id="cg" data-name="LWPOLYLINE">
      <g>
        <polyline class="mg" points="509.48 485.18 509.48 486.18 510.48 486.18"/>
        <line class="mi" x1="511.42" y1="486.18" x2="533.52" y2="486.18"/>
        <polyline class="mg" points="533.99 486.18 534.99 486.18 534.99 485.18"/>
        <path class="mh" d="M534.99,484.19v-15.02c0-7.04-5.71-12.76-12.76-12.76s-12.76,5.71-12.76,12.76v15.51"/>
      </g>
    </g>
    <g id="ch" data-name="LWPOLYLINE">
      <g>
        <polyline class="mg" points="509.48 560.88 509.48 559.88 510.48 559.88"/>
        <line class="mi" x1="511.42" y1="559.88" x2="533.52" y2="559.88"/>
        <polyline class="mg" points="533.99 559.88 534.99 559.88 534.99 560.88"/>
        <path class="mh" d="M534.99,561.87v15.02c0,7.04-5.71,12.76-12.76,12.76s-12.76-5.71-12.76-12.76v-15.51"/>
      </g>
    </g>
    <g id="ci" data-name="LWPOLYLINE">
      <g>
        <polyline class="mg" points="577.51 485.18 577.51 486.18 578.51 486.18"/>
        <line class="mi" x1="579.45" y1="486.18" x2="601.56" y2="486.18"/>
        <polyline class="mg" points="602.03 486.18 603.03 486.18 603.03 485.18"/>
        <path class="mh" d="M603.03,484.19v-15.02c0-7.04-5.71-12.76-12.76-12.76s-12.76,5.71-12.76,12.76v15.51"/>
      </g>
    </g>
    <g id="cj" data-name="LWPOLYLINE">
      <g>
        <polyline class="mg" points="577.51 560.88 577.51 559.88 578.51 559.88"/>
        <line class="mi" x1="579.45" y1="559.88" x2="601.56" y2="559.88"/>
        <polyline class="mg" points="602.03 559.88 603.03 559.88 603.03 560.88"/>
        <path class="mh" d="M603.03,561.87v15.02c0,7.04-5.71,12.76-12.76,12.76s-12.76-5.71-12.76-12.76v-15.51"/>
      </g>
    </g>
    <g id="ck" data-name="LWPOLYLINE">
      <g>
        <polyline class="mg" points="657.87 489.02 658.87 489.02 658.87 490.02"/>
        <line class="mm" x1="658.87" y1="491" x2="658.87" y2="555.55"/>
        <polyline class="mg" points="658.87 556.05 658.87 557.05 657.87 557.05"/>
        <line class="mn" x1="656.87" y1="557.05" x2="490.29" y2="557.05"/>
        <polyline class="mg" points="489.79 557.05 488.79 557.05 488.79 556.05"/>
        <line class="mm" x1="488.79" y1="555.06" x2="488.79" y2="490.51"/>
        <polyline class="mg" points="488.79 490.02 488.79 489.02 489.79 489.02"/>
        <line class="mn" x1="490.78" y1="489.02" x2="657.37" y2="489.02"/>
      </g>
    </g>
    <g id="cl" data-name="LWPOLYLINE">
      <g>
        <polyline class="mg" points="662.7 509.71 661.7 509.71 661.7 510.71"/>
        <line class="mi" x1="661.7" y1="511.65" x2="661.7" y2="533.75"/>
        <polyline class="mg" points="661.7 534.22 661.7 535.22 662.7 535.22"/>
        <path class="mh" d="M663.69,535.22h15.02c7.04,0,12.76-5.71,12.76-12.76s-5.71-12.76-12.76-12.76h-15.51"/>
      </g>
    </g>
    <g id="cm" data-name="LINE">
      <g>
        <line class="mg" x1="447.98" y1="690.56" x2="446.98" y2="690.56"/>
        <line class="mw" x1="445.97" y1="690.56" x2="313.42" y2="690.56"/>
        <line class="mg" x1="312.91" y1="690.56" x2="311.91" y2="690.56"/>
      </g>
    </g>
    <g id="cn" data-name="LINE">
      <g>
        <line class="mg" x1="379.95" y1="724.57" x2="379.95" y2="723.57"/>
        <line class="mm" x1="379.95" y1="722.59" x2="379.95" y2="658.03"/>
        <line class="mg" x1="379.95" y1="657.54" x2="379.95" y2="656.54"/>
      </g>
    </g>
    <g id="co" data-name="LWPOLYLINE">
      <g>
        <polyline class="mg" points="400.64 652.71 400.64 653.71 401.64 653.71"/>
        <line class="mi" x1="402.58" y1="653.71" x2="424.68" y2="653.71"/>
        <polyline class="mg" points="425.15 653.71 426.15 653.71 426.15 652.71"/>
        <path class="mh" d="M426.15,651.72v-15.02c0-7.04-5.71-12.76-12.76-12.76s-12.76,5.71-12.76,12.76v15.51"/>
      </g>
    </g>
    <g id="cp" data-name="LWPOLYLINE">
      <g>
        <polyline class="mg" points="400.64 728.41 400.64 727.41 401.64 727.41"/>
        <line class="mi" x1="402.58" y1="727.41" x2="424.68" y2="727.41"/>
        <polyline class="mg" points="425.15 727.41 426.15 727.41 426.15 728.41"/>
        <path class="mh" d="M426.15,729.39v15.02c0,7.04-5.71,12.76-12.76,12.76s-12.76-5.71-12.76-12.76v-15.51"/>
      </g>
    </g>
    <g id="cq" data-name="LWPOLYLINE">
      <g>
        <polyline class="mg" points="446.98 656.54 447.98 656.54 447.98 657.54"/>
        <polyline class="mm" points="447.98 658.53 447.98 690.56 447.98 723.08"/>
        <polyline class="mg" points="447.98 723.57 447.98 724.57 446.98 724.57"/>
        <polyline class="mw" points="445.97 724.57 379.95 724.57 313.42 724.57"/>
        <polyline class="mg" points="312.91 724.57 311.91 724.57 311.91 723.57"/>
        <polyline class="mm" points="311.91 722.59 311.91 690.56 311.91 658.03"/>
        <polyline class="mg" points="311.91 657.54 311.91 656.54 312.91 656.54"/>
        <polyline class="mw" points="313.92 656.54 379.95 656.54 446.47 656.54"/>
      </g>
    </g>
    <g id="cr" data-name="LWPOLYLINE">
      <g>
        <polyline class="mg" points="332.61 652.71 332.61 653.71 333.61 653.71"/>
        <line class="mi" x1="334.55" y1="653.71" x2="356.65" y2="653.71"/>
        <polyline class="mg" points="357.12 653.71 358.12 653.71 358.12 652.71"/>
        <path class="mh" d="M358.12,651.72v-15.02c0-7.04-5.71-12.76-12.76-12.76s-12.76,5.71-12.76,12.76v15.51"/>
      </g>
    </g>
    <g id="cs" data-name="LWPOLYLINE">
      <g>
        <polyline class="mg" points="332.61 728.41 332.61 727.41 333.61 727.41"/>
        <line class="mi" x1="334.55" y1="727.41" x2="356.65" y2="727.41"/>
        <polyline class="mg" points="357.12 727.41 358.12 727.41 358.12 728.41"/>
        <path class="mh" d="M358.12,729.39v15.02c0,7.04-5.71,12.76-12.76,12.76s-12.76-5.71-12.76-12.76v-15.51"/>
      </g>
    </g>
    <g id="ct" data-name="LINE">
      <g>
        <line class="mg" x1="624.85" y1="690.56" x2="623.85" y2="690.56"/>
        <line class="mw" x1="622.84" y1="690.56" x2="490.29" y2="690.56"/>
        <line class="mg" x1="489.79" y1="690.56" x2="488.79" y2="690.56"/>
      </g>
    </g>
    <g id="cu" data-name="LINE">
      <g>
        <line class="mg" x1="556.82" y1="724.57" x2="556.82" y2="723.57"/>
        <line class="mm" x1="556.82" y1="722.59" x2="556.82" y2="658.03"/>
        <line class="mg" x1="556.82" y1="657.54" x2="556.82" y2="656.54"/>
      </g>
    </g>
    <g id="cv" data-name="LWPOLYLINE">
      <g>
        <polyline class="mg" points="657.87 656.54 658.87 656.54 658.87 657.54"/>
        <polyline class="mm" points="658.87 658.53 658.87 690.56 658.87 723.08"/>
        <polyline class="mg" points="658.87 723.57 658.87 724.57 657.87 724.57"/>
        <polyline class="mn" points="656.87 724.57 556.82 724.57 490.29 724.57"/>
        <polyline class="mg" points="489.79 724.57 488.79 724.57 488.79 723.57"/>
        <polyline class="mm" points="488.79 722.59 488.79 690.56 488.79 658.03"/>
        <polyline class="mg" points="488.79 657.54 488.79 656.54 489.79 656.54"/>
        <polyline class="mn" points="490.78 656.54 556.82 656.54 657.37 656.54"/>
      </g>
    </g>
    <g id="cw" data-name="LINE">
      <g>
        <line class="mg" x1="624.85" y1="523.03" x2="623.85" y2="523.03"/>
        <line class="mw" x1="622.84" y1="523.03" x2="490.29" y2="523.03"/>
        <line class="mg" x1="489.79" y1="523.03" x2="488.79" y2="523.03"/>
      </g>
    </g>
    <g id="cx" data-name="LINE">
      <g>
        <line class="mg" x1="556.82" y1="557.05" x2="556.82" y2="556.05"/>
        <line class="mm" x1="556.82" y1="555.06" x2="556.82" y2="490.51"/>
        <line class="mg" x1="556.82" y1="490.02" x2="556.82" y2="489.02"/>
      </g>
    </g>
    <g id="cy" data-name="LINE">
      <g>
        <line class="mg" x1="624.85" y1="557.05" x2="624.85" y2="556.05"/>
        <line class="mm" x1="624.85" y1="555.06" x2="624.85" y2="490.51"/>
        <line class="mg" x1="624.85" y1="490.02" x2="624.85" y2="489.02"/>
      </g>
    </g>
    <g id="cz" data-name="LWPOLYLINE">
      <rect class="mg" x="220.35" y="538.62" width="1.98" height="170.08"/>
    </g>
    <g id="da" data-name="LWPOLYLINE">
      <rect class="mg" x="228" y="542.59" width="1.98" height="166.11"/>
    </g>
    <g id="db" data-name="LINE">
      <line class="mg" x1="225.17" y1="572.07" x2="222.33" y2="572.07"/>
    </g>
    <g id="dc" data-name="LINE">
      <line class="mg" x1="220.35" y1="572.07" x2="171.31" y2="572.07"/>
    </g>
    <g id="dd" data-name="LINE">
      <line class="mg" x1="225.17" y1="557.33" x2="222.33" y2="557.33"/>
    </g>
    <g id="de" data-name="LINE">
      <line class="mg" x1="220.35" y1="557.33" x2="171.31" y2="557.33"/>
    </g>
    <g id="df" data-name="LINE">
      <line class="mg" x1="225.17" y1="542.59" x2="222.33" y2="542.59"/>
    </g>
    <g id="dg" data-name="LINE">
      <line class="mg" x1="220.35" y1="542.59" x2="171.31" y2="542.59"/>
    </g>
    <g id="dh" data-name="LINE">
      <line class="mg" x1="225.17" y1="586.81" x2="222.33" y2="586.81"/>
    </g>
    <g id="di" data-name="LINE">
      <line class="mg" x1="220.35" y1="586.81" x2="171.31" y2="586.81"/>
    </g>
    <g id="dj" data-name="LINE">
      <line class="mg" x1="225.17" y1="601.55" x2="222.33" y2="601.55"/>
    </g>
    <g id="dk" data-name="LINE">
      <line class="mg" x1="220.35" y1="601.55" x2="171.31" y2="601.55"/>
    </g>
    <g id="dl" data-name="LINE">
      <line class="mg" x1="225.17" y1="616.29" x2="222.33" y2="616.29"/>
    </g>
    <g id="dm" data-name="LINE">
      <line class="mg" x1="220.35" y1="616.29" x2="171.31" y2="616.29"/>
    </g>
    <g id="dn" data-name="LINE">
      <line class="mg" x1="225.17" y1="631.03" x2="222.33" y2="631.03"/>
    </g>
    <g id="do" data-name="LINE">
      <line class="mg" x1="220.35" y1="631.03" x2="171.31" y2="631.03"/>
    </g>
    <g id="dp" data-name="LINE">
      <line class="mg" x1="225.17" y1="645.77" x2="222.33" y2="645.77"/>
    </g>
    <g id="dq" data-name="LINE">
      <line class="mg" x1="220.35" y1="645.77" x2="171.31" y2="645.77"/>
    </g>
    <g id="dr" data-name="LINE">
      <line class="mg" x1="225.17" y1="660.51" x2="222.33" y2="660.51"/>
    </g>
    <g id="ds" data-name="LINE">
      <line class="mg" x1="220.35" y1="660.51" x2="171.31" y2="660.51"/>
    </g>
    <g id="dt" data-name="LINE">
      <line class="mg" x1="225.17" y1="675.25" x2="222.33" y2="675.25"/>
    </g>
    <g id="du" data-name="LINE">
      <line class="mg" x1="220.35" y1="675.25" x2="171.31" y2="675.25"/>
    </g>
    <g id="dv" data-name="LINE">
      <line class="mg" x1="225.17" y1="689.99" x2="222.33" y2="689.99"/>
    </g>
    <g id="dw" data-name="LINE">
      <line class="mg" x1="220.35" y1="689.99" x2="171.31" y2="689.99"/>
    </g>
    <g id="dx" data-name="LINE">
      <line class="mg" x1="225.17" y1="704.73" x2="222.33" y2="704.73"/>
    </g>
    <g id="dy" data-name="LINE">
      <line class="mg" x1="220.35" y1="704.73" x2="171.31" y2="704.73"/>
    </g>
    <g id="dz" data-name="LINE">
      <line class="mg" x1="225.17" y1="542.59" x2="225.17" y2="704.73"/>
    </g>
    <g id="ea" data-name="LINE">
      <line class="mg" x1="225.17" y1="704.73" x2="222.33" y2="707.86"/>
    </g>
    <g id="eb" data-name="LINE">
      <line class="mg" x1="221.58" y1="708.7" x2="171.31" y2="764.26"/>
    </g>
    <g id="ec" data-name="LINE">
      <line class="mg" x1="225.17" y1="704.73" x2="225.17" y2="764.26"/>
    </g>
    <g id="ed" data-name="LINE">
      <line class="mg" x1="225.17" y1="704.73" x2="228" y2="704.73"/>
    </g>
    <g id="ee" data-name="LINE">
      <line class="mg" x1="225.17" y1="689.99" x2="228" y2="689.99"/>
    </g>
    <g id="ef" data-name="LINE">
      <line class="mg" x1="225.17" y1="675.25" x2="228" y2="675.25"/>
    </g>
    <g id="eg" data-name="LINE">
      <line class="mg" x1="225.17" y1="542.59" x2="225.17" y2="483.63"/>
    </g>
    <g id="eh" data-name="LINE">
      <line class="mg" x1="225.17" y1="542.59" x2="222.33" y2="539.48"/>
    </g>
    <g id="ei" data-name="LINE">
      <line class="mg" x1="221.54" y1="538.62" x2="171.31" y2="483.63"/>
    </g>
    <g id="ej" data-name="LWPOLYLINE">
      <rect class="mg" x="277.89" y="560.16" width="2.83" height="8.5"/>
    </g>
    <g id="ek" data-name="LWPOLYLINE">
      <rect class="mg" x="279.02" y="526.15" width="5.67" height="2.83"/>
    </g>
    <g id="el" data-name="LWPOLYLINE">
      <rect class="mg" x="279.02" y="483.63" width="5.67" height="2.83"/>
    </g>
    <g id="em" data-name="LWPOLYLINE">
      <rect class="mg" x="279.02" y="486.46" width="1.7" height="39.69"/>
    </g>
    <g id="en" data-name="LWPOLYLINE">
      <rect class="mg" x="375.4" y="469.45" width="2.83" height="8.5"/>
    </g>
    <g id="eo" data-name="LWPOLYLINE">
      <rect class="mg" x="412.25" y="469.45" width="2.83" height="8.5"/>
    </g>
    <g id="ep" data-name="LWPOLYLINE">
      <rect class="mg" x="378.24" y="469.45" width="34.02" height="1.7"/>
    </g>
    <g id="eq" data-name="LWPOLYLINE">
      <rect class="mg" x="239.34" y="469.45" width="2.83" height="14.17"/>
    </g>
    <g id="er" data-name="LWPOLYLINE">
      <rect class="mg" x="276.19" y="469.45" width="2.83" height="14.17"/>
    </g>
    <g id="es" data-name="LWPOLYLINE">
      <rect class="mg" x="242.17" y="469.45" width="34.02" height="1.7"/>
    </g>
    <g id="et" data-name="LWPOLYLINE">
      <rect class="mg" x="141.54" y="781.26" width="2.83" height="5.67"/>
    </g>
    <g id="eu" data-name="LWPOLYLINE">
      <polyline class="mg" points="142.39 786.93 142.39 788.07 143.53 788.07 143.53 786.93"/>
    </g>
    <g id="ev" data-name="LINE">
      <line class="mg" x1="142.96" y1="788.07" x2="142.96" y2="789.77"/>
    </g>
    <g id="ew" data-name="LWPOLYLINE">
      <polyline class="mg" points="141.54 789.07 141.54 789.77 144.38 789.77 144.38 789.08"/>
    </g>
    <g id="ex" data-name="LWPOLYLINE">
      <rect class="mg" x="730.3" y="421.26" width="5.67" height="2.83"/>
    </g>
    <g id="ey" data-name="LWPOLYLINE">
      <polyline class="mg" points="735.97 423.25 737.1 423.25 737.1 422.12 735.97 422.12"/>
    </g>
    <g id="ez" data-name="LINE">
      <line class="mg" x1="737.1" y1="422.68" x2="738.8" y2="422.68"/>
    </g>
    <g id="fa" data-name="LWPOLYLINE">
      <polyline class="mg" points="738.1 424.1 738.8 424.1 738.8 421.26 738.11 421.26"/>
    </g>
    <g id="fb" data-name="LWPOLYLINE">
      <rect class="mg" x="298.87" y="781.26" width="2.83" height="5.67"/>
    </g>
    <g id="fc" data-name="LWPOLYLINE">
      <polyline class="mg" points="299.72 786.93 299.72 788.07 300.85 788.07 300.85 786.93"/>
    </g>
    <g id="fd" data-name="LINE">
      <line class="mg" x1="300.28" y1="788.07" x2="300.28" y2="789.77"/>
    </g>
    <g id="fe" data-name="LWPOLYLINE">
      <polyline class="mg" points="298.87 789.07 298.87 789.77 301.7 789.77 301.7 789.08"/>
    </g>
    <g id="ff" data-name="LWPOLYLINE">
      <rect class="mg" x="426.43" y="781.26" width="2.83" height="5.67"/>
    </g>
    <g id="fg" data-name="LWPOLYLINE">
      <polyline class="mg" points="427.28 786.93 427.28 788.07 428.41 788.07 428.41 786.93"/>
    </g>
    <g id="fh" data-name="LINE">
      <line class="mg" x1="427.84" y1="788.07" x2="427.84" y2="789.77"/>
    </g>
    <g id="fi" data-name="LWPOLYLINE">
      <polyline class="mg" points="426.43 789.07 426.43 789.77 429.26 789.77 429.26 789.08"/>
    </g>
    <g id="fj" data-name="LWPOLYLINE">
      <rect class="mg" x="610.68" y="781.26" width="2.83" height="5.67"/>
    </g>
    <g id="fk" data-name="LWPOLYLINE">
      <polyline class="mg" points="611.53 786.93 611.53 788.07 612.66 788.07 612.66 786.93"/>
    </g>
    <g id="fl" data-name="LINE">
      <line class="mg" x1="612.1" y1="788.07" x2="612.1" y2="789.77"/>
    </g>
    <g id="fm" data-name="LWPOLYLINE">
      <polyline class="mg" points="610.68 789.07 610.68 789.77 613.51 789.77 613.51 789.08"/>
    </g>
    <g id="fn" data-name="LWPOLYLINE">
      <rect class="mg" x="637.76" y="781.74" width="2.83" height="5.67" transform="translate(-359.04 618.23) rotate(-41.37)"/>
    </g>
    <g id="fo" data-name="LWPOLYLINE">
      <polyline class="mg" points="640.63 787.08 641.38 787.93 642.23 787.18 641.48 786.33"/>
    </g>
    <g id="fp" data-name="LINE">
      <line class="mg" x1="641.8" y1="787.56" x2="642.92" y2="788.83"/>
    </g>
    <g id="fq" data-name="LWPOLYLINE">
      <polyline class="mg" points="641.4 789.24 641.86 789.77 643.99 787.9 643.53 787.38"/>
    </g>
    <g id="fr" data-name="LWPOLYLINE">
      <rect class="mg" x="457.61" y="781.26" width="2.83" height="5.67"/>
    </g>
    <g id="fs" data-name="LWPOLYLINE">
      <polyline class="mg" points="458.46 786.93 458.46 788.07 459.59 788.07 459.59 786.93"/>
    </g>
    <g id="ft" data-name="LINE">
      <line class="mg" x1="459.02" y1="788.07" x2="459.02" y2="789.77"/>
    </g>
    <g id="fu" data-name="LWPOLYLINE">
      <polyline class="mg" points="457.61 789.07 457.61 789.77 460.44 789.77 460.44 789.08"/>
    </g>
    <g id="fv" data-name="LWPOLYLINE">
      <rect class="mg" x="732.58" y="698.58" width="2.83" height="5.67" transform="translate(-280.41 660.14) rotate(-41.37)"/>
    </g>
    <g id="fw" data-name="LWPOLYLINE">
      <polyline class="mg" points="735.44 703.91 736.19 704.76 737.04 704.02 736.29 703.16"/>
    </g>
    <g id="fx" data-name="LINE">
      <line class="mg" x1="736.62" y1="704.39" x2="737.74" y2="705.67"/>
    </g>
    <g id="fy" data-name="LWPOLYLINE">
      <polyline class="mg" points="736.21 706.08 736.68 706.6 738.8 704.73 738.35 704.21"/>
    </g>
    <g id="fz" data-name="LWPOLYLINE">
      <rect class="mg" x="382.21" y="781.26" width="2.83" height="5.67"/>
    </g>
    <g id="ga" data-name="LWPOLYLINE">
      <polyline class="mg" points="383.06 786.93 383.06 788.07 384.19 788.07 384.19 786.93"/>
    </g>
    <g id="gb" data-name="LINE">
      <line class="mg" x1="383.62" y1="788.07" x2="383.62" y2="789.77"/>
    </g>
    <g id="gc" data-name="LWPOLYLINE">
      <polyline class="mg" points="382.21 789.07 382.21 789.77 385.04 789.77 385.04 789.08"/>
    </g>
    <g id="gd" data-name="LWPOLYLINE">
      <rect class="mg" x="267.69" y="781.26" width="2.83" height="5.67"/>
    </g>
    <g id="ge" data-name="LWPOLYLINE">
      <polyline class="mg" points="268.54 786.93 268.54 788.07 269.67 788.07 269.67 786.93"/>
    </g>
    <g id="gf" data-name="LINE">
      <line class="mg" x1="269.1" y1="788.07" x2="269.1" y2="789.77"/>
    </g>
    <g id="gg" data-name="LWPOLYLINE">
      <polyline class="mg" points="267.69 789.07 267.69 789.77 270.52 789.77 270.52 789.08"/>
    </g>
    <g id="gh" data-name="LWPOLYLINE">
      <rect class="mg" x="730.3" y="673.55" width="5.67" height="2.83"/>
    </g>
    <g id="gi" data-name="LWPOLYLINE">
      <polyline class="mg" points="735.97 675.53 737.1 675.53 737.1 674.4 735.97 674.4"/>
    </g>
    <g id="gj" data-name="LINE">
      <line class="mg" x1="737.1" y1="674.97" x2="738.8" y2="674.97"/>
    </g>
    <g id="gk" data-name="LWPOLYLINE">
      <polyline class="mg" points="738.1 676.38 738.8 676.38 738.8 673.55 738.11 673.55"/>
    </g>
    <g id="gl" data-name="LWPOLYLINE">
      <rect class="mg" x="730.3" y="532.1" width="5.67" height="2.83"/>
    </g>
    <g id="gm" data-name="LWPOLYLINE">
      <polyline class="mg" points="735.97 534.08 737.1 534.08 737.1 532.95 735.97 532.95"/>
    </g>
    <g id="gn" data-name="LINE">
      <line class="mg" x1="737.1" y1="533.52" x2="738.8" y2="533.52"/>
    </g>
    <g id="go" data-name="LWPOLYLINE">
      <polyline class="mg" points="738.1 534.93 738.8 534.93 738.8 532.1 738.11 532.1"/>
    </g>
    <g id="gp" data-name="LWPOLYLINE">
      <rect class="mg" x="730.3" y="563.28" width="5.67" height="2.83"/>
    </g>
    <g id="gq" data-name="LWPOLYLINE">
      <polyline class="mg" points="735.97 565.26 737.1 565.26 737.1 564.13 735.97 564.13"/>
    </g>
    <g id="gr" data-name="LINE">
      <line class="mg" x1="737.1" y1="564.7" x2="738.8" y2="564.7"/>
    </g>
    <g id="gs" data-name="LWPOLYLINE">
      <polyline class="mg" points="738.1 566.12 738.8 566.12 738.8 563.28 738.11 563.28"/>
    </g>
    <g id="gt" data-name="LINE">
      <line class="mg" x1="301.7" y1="781.26" x2="382.21" y2="781.26"/>
    </g>
    <g id="gu" data-name="LINE">
      <line class="mg" x1="385.04" y1="781.26" x2="426.43" y2="781.26"/>
    </g>
    <g id="gv" data-name="LINE">
      <line class="mg" x1="301.7" y1="789.77" x2="382.21" y2="789.77"/>
    </g>
    <g id="gw" data-name="LINE">
      <line class="mg" x1="385.04" y1="789.77" x2="426.43" y2="789.77"/>
    </g>
    <g id="gx" data-name="LINE">
      <line class="mg" x1="460.44" y1="781.26" x2="610.68" y2="781.26"/>
    </g>
    <g id="gy" data-name="LINE">
      <line class="mg" x1="460.44" y1="789.77" x2="610.68" y2="789.77"/>
    </g>
    <g id="gz" data-name="LINE">
      <line class="mg" x1="638.37" y1="781.51" x2="731.06" y2="700.22"/>
    </g>
    <g id="ha" data-name="LINE">
      <line class="mg" x1="736.68" y1="706.6" x2="643.99" y2="787.9"/>
    </g>
    <g id="hb" data-name="LINE">
      <line class="mg" x1="152.88" y1="781.26" x2="267.69" y2="781.26"/>
    </g>
    <g id="hc" data-name="LINE">
      <line class="mg" x1="144.38" y1="789.77" x2="267.69" y2="789.77"/>
    </g>
    <g id="hd" data-name="LINE">
      <line class="mg" x1="730.3" y1="532.1" x2="730.3" y2="424.1"/>
    </g>
    <g id="he" data-name="LINE">
      <line class="mg" x1="738.8" y1="532.1" x2="738.8" y2="424.1"/>
    </g>
    <g id="hf" data-name="LINE">
      <line class="mg" x1="730.3" y1="673.55" x2="730.3" y2="566.12"/>
    </g>
    <g id="hg" data-name="LINE">
      <line class="mg" x1="738.8" y1="673.55" x2="738.8" y2="566.12"/>
    </g>
    <g id="hh" data-name="LWPOLYLINE">
      <g>
        <line class="ly" x1="279.59" y1="560.16" x2="280.59" y2="560.16"/>
        <line class="mo" x1="281.59" y1="560.16" x2="329.11" y2="560.16"/>
        <polyline class="ly" points="329.61 560.16 330.61 560.16 330.61 560.73 329.61 560.73"/>
        <line class="mo" x1="328.61" y1="560.73" x2="281.09" y2="560.73"/>
        <line class="ly" x1="280.59" y1="560.73" x2="279.59" y2="560.73"/>
      </g>
    </g>
    <g id="hi" data-name="ARC">
      <g>
        <path class="ly" d="M279.59,611.19c.33,0,.67,0,1,0"/>
        <path class="md" d="M281.58,611.15c26.76-1.03,48.24-22.66,49.01-49.49"/>
        <path class="ly" d="M330.61,561.16c0-.33,0-.67,0-1"/>
      </g>
    </g>
    <g id="hj" data-name="LWPOLYLINE">
      <g>
        <polyline class="ly" points="278.02 486.46 279.02 486.46 279.02 488.16 278.02 488.16"/>
        <line class="mk" x1="277.01" y1="488.16" x2="240.85" y2="488.16"/>
        <polyline class="ly" points="240.34 488.16 239.34 488.16 239.34 486.46 240.34 486.46"/>
        <line class="mk" x1="241.36" y1="486.46" x2="277.52" y2="486.46"/>
      </g>
    </g>
    <g id="hk" data-name="ARC">
      <g>
        <path class="ly" d="M239.34,486.46c0,.33,0,.67.01,1"/>
        <path class="mr" d="M239.39,488.45c1.01,20.5,17.58,36.91,38.14,37.67"/>
        <path class="ly" d="M278.02,526.13c.33,0,.67.01,1,.01"/>
      </g>
    </g>
    <g id="hl" data-name="LWPOLYLINE">
      <g>
        <polyline class="ly" points="411.39 468.95 412.25 469.45 411.4 470.93 410.54 470.43"/>
        <line class="mx" x1="409.64" y1="469.91" x2="383.26" y2="454.68"/>
        <polyline class="ly" points="382.81 454.42 381.94 453.92 382.79 452.45 383.66 452.95"/>
        <line class="mx" x1="384.55" y1="453.46" x2="410.94" y2="468.7"/>
      </g>
    </g>
    <g id="hm" data-name="ARC">
      <g>
        <path class="ly" d="M382.79,452.45c-.17.29-.33.58-.49.88"/>
        <path class="mu" d="M381.85,454.2c-2.15,4.28-3.37,8.98-3.58,13.77"/>
        <path class="ly" d="M378.25,468.45c0,.33-.01.67-.01,1"/>
      </g>
    </g>
    <g id="hn" data-name="LWPOLYLINE">
      <g>
        <polyline class="ly" points="242.17 468.45 242.17 469.45 243.87 469.45 243.87 468.45"/>
        <line class="mx" x1="243.87" y1="467.42" x2="243.87" y2="436.95"/>
        <polyline class="ly" points="243.87 436.44 243.87 435.44 242.17 435.44 242.17 436.44"/>
        <line class="mx" x1="242.17" y1="437.47" x2="242.17" y2="467.94"/>
      </g>
    </g>
    <g id="ho" data-name="ARC">
      <g>
        <path class="ly" d="M276.19,469.45c0-.33,0-.67-.01-1"/>
        <path class="mv" d="M276.13,467.47c-1-17.37-15.03-31.24-32.46-32"/>
        <path class="ly" d="M243.17,435.45c-.33,0-.67-.01-1-.01"/>
      </g>
    </g>
    <g id="hp" data-name="LWPOLYLINE">
      <polyline class="ly" points="231.92 668.94 201.67 661.37 198.77 665.66 197.7 655.36 194.8 659.65 164.55 652.08"/>
    </g>
    <g id="hq" data-name="CIRCLE">
      <circle class="ly" cx="225.17" cy="513.11" r="1.42"/>
    </g>
    <g id="hr" data-name="LWPOLYLINE">
      <polyline class="ly" points="198.24 650.3 198.24 513.11 225.17 513.11"/>
    </g>
    <g id="hs" data-name="LWPOLYLINE">
      <polyline class="ly" points="198.24 670.71 198.24 734.49 200.03 736.48 225.17 736.48"/>
    </g>
    <g id="ht" data-name="LWPOLYLINE">
      <polyline class="ly" points="201.44 647.1 198.24 650.3 195.03 647.1"/>
    </g>
    <g id="hu" data-name="LWPOLYLINE">
      <polyline class="ly" points="201.44 673.92 198.24 670.71 195.03 673.92"/>
    </g>
    <g id="hv" data-name="CIRCLE">
      <circle class="ly" cx="225.17" cy="736.48" r="1.42"/>
    </g>
    <g id="hw" data-name="LWPOLYLINE">
      <path class="ly" d="M354.16,533.57h-9.13v2.72h9.13c.75,0,1.36-.61,1.36-1.36s-.61-1.36-1.36-1.36Z"/>
    </g>
    <g id="hx" data-name="LWPOLYLINE">
      <polyline class="ly" points="350.7 536.29 350.7 551.66 383.58 551.66 383.58 528.98 350.7 528.98 350.7 533.57"/>
    </g>
    <g id="hy" data-name="LINE">
      <line class="ly" x1="284.64" y1="526.15" x2="335.66" y2="526.15"/>
    </g>
    <g id="hz" data-name="LWPOLYLINE">
      <rect class="ly" x="295.83" y="536.38" width="8.5" height="2.27"/>
    </g>
    <g id="ia" data-name="LWPOLYLINE">
      <path class="ly" d="M339.4,488.23h28.63v24.38h-28.63c-6.73,0-12.19-5.46-12.19-12.19s5.46-12.19,12.19-12.19Z"/>
    </g>
    <g id="ib" data-name="LWPOLYLINE">
      <polyline class="ly" points="298.67 536.38 298.67 527.88 327.01 527.88 327.01 547.15 298.67 547.15 298.67 538.65"/>
    </g>
    <g id="ic" data-name="LINE">
      <line class="ly" x1="449.1" y1="483.63" x2="449.1" y2="517.64"/>
    </g>
    <g id="id" data-name="LWPOLYLINE">
      <polyline class="ly" points="434.93 431.47 137.58 431.47 137.58 469.45"/>
    </g>
    <g id="ie" data-name="LWPOLYLINE">
      <polyline class="ly" points="434.93 433.17 139.28 433.17 139.28 469.45"/>
    </g>
    <g id="if" data-name="LINE">
      <line class="ly" x1="279.02" y1="764.26" x2="171.31" y2="764.26"/>
    </g>
    <g id="ig" data-name="LINE">
      <line class="ly" x1="171.31" y1="764.26" x2="171.31" y2="483.63"/>
    </g>
    <g id="ih" data-name="LINE">
      <line class="ly" x1="159.97" y1="483.63" x2="159.97" y2="764.26"/>
    </g>
    <g id="ii" data-name="LINE">
      <line class="ly" x1="341.39" y1="554.49" x2="436.35" y2="554.49"/>
    </g>
    <g id="ij" data-name="LINE">
      <line class="ly" x1="713.29" y1="440.43" x2="449.1" y2="440.43"/>
    </g>
    <g id="ik" data-name="LINE">
      <line class="ly" x1="713.97" y1="441.11" x2="713.97" y2="543.15"/>
    </g>
    <g id="il" data-name="LINE">
      <line class="ly" x1="279.02" y1="775.6" x2="171.31" y2="775.6"/>
    </g>
    <g id="im" data-name="LINE">
      <line class="ly" x1="723.95" y1="441.11" x2="723.95" y2="543.15"/>
    </g>
    <g id="in" data-name="LINE">
      <line class="ly" x1="713.29" y1="430.45" x2="449.1" y2="430.45"/>
    </g>
    <g id="io" data-name="LINE">
      <line class="ly" x1="727.47" y1="534.93" x2="727.47" y2="426.93"/>
    </g>
    <g id="ip" data-name="LINE">
      <line class="ly" x1="713.97" y1="492.13" x2="723.95" y2="492.13"/>
    </g>
    <g id="iq" data-name="LINE">
      <line class="ly" x1="581.2" y1="440.43" x2="581.2" y2="430.45"/>
    </g>
    <g id="ir" data-name="LINE">
      <line class="ly" x1="225.17" y1="775.6" x2="225.17" y2="764.26"/>
    </g>
    <g id="is" data-name="LINE">
      <line class="ly" x1="159.97" y1="623.94" x2="171.31" y2="623.94"/>
    </g>
    <g id="it" data-name="LINE">
      <line class="ly" x1="429.26" y1="778.43" x2="298.87" y2="778.43"/>
    </g>
    <g id="iu" data-name="LINE">
      <line class="ly" x1="457.61" y1="778.43" x2="613.51" y2="778.43"/>
    </g>
    <g id="iv" data-name="LINE">
      <line class="ly" x1="727.47" y1="676.38" x2="727.47" y2="563.28"/>
    </g>
    <g id="iw" data-name="LINE">
      <line class="ly" x1="637.58" y1="778.43" x2="727.47" y2="699.6"/>
    </g>
    <g id="ix" data-name="LWPOLYLINE">
      <rect class="mq" x="279.02" y="472.29" width="11.34" height="11.34"/>
    </g>
    <g id="iy" data-name="LWPOLYLINE">
      <rect class="mq" x="279.7" y="472.97" width="9.98" height="9.98"/>
    </g>
    <g id="iz" data-name="LWPOLYLINE">
      <rect class="mq" x="437.76" y="764.26" width="11.34" height="11.34"/>
    </g>
    <g id="ja" data-name="LWPOLYLINE">
      <rect class="mq" x="438.44" y="764.94" width="9.98" height="9.98"/>
    </g>
    <g id="jb" data-name="LWPOLYLINE">
      <rect class="mq" x="622.02" y="764.26" width="11.34" height="11.34"/>
    </g>
    <g id="jc" data-name="LWPOLYLINE">
      <rect class="mq" x="622.7" y="764.94" width="9.98" height="9.98"/>
    </g>
    <g id="jd" data-name="LWPOLYLINE">
      <rect class="mq" x="713.29" y="684.89" width="11.34" height="11.34"/>
    </g>
    <g id="je" data-name="LWPOLYLINE">
      <rect class="mq" x="713.97" y="685.57" width="9.98" height="9.98"/>
    </g>
    <g id="jf" data-name="LWPOLYLINE">
      <rect class="mq" x="713.29" y="543.15" width="11.34" height="11.34"/>
    </g>
    <g id="jg" data-name="LWPOLYLINE">
      <rect class="mq" x="713.97" y="543.83" width="9.98" height="9.98"/>
    </g>
    <g id="jh" data-name="LWPOLYLINE">
      <rect class="mq" x="713.29" y="429.77" width="11.34" height="11.34"/>
    </g>
    <g id="ji" data-name="LWPOLYLINE">
      <rect class="mq" x="713.97" y="430.45" width="9.98" height="9.98"/>
    </g>
    <g id="jj" data-name="LWPOLYLINE">
      <rect class="mq" x="437.76" y="429.77" width="11.34" height="11.34"/>
    </g>
    <g id="jk" data-name="LWPOLYLINE">
      <rect class="mq" x="438.44" y="430.45" width="9.98" height="9.98"/>
    </g>
    <g id="jl" data-name="LWPOLYLINE">
      <rect class="mq" x="436.35" y="541.74" width="14.17" height="14.17"/>
    </g>
    <g id="jm" data-name="LWPOLYLINE">
      <rect class="mq" x="437.03" y="542.42" width="12.81" height="12.81"/>
    </g>
    <g id="jn" data-name="LWPOLYLINE">
      <rect class="mq" x="279.02" y="543.15" width="11.34" height="11.34"/>
    </g>
    <g id="jo" data-name="LWPOLYLINE">
      <rect class="mq" x="279.7" y="543.83" width="9.98" height="9.98"/>
    </g>
    <g id="jp" data-name="LWPOLYLINE">
      <rect class="mq" x="159.97" y="472.29" width="11.34" height="11.34"/>
    </g>
    <g id="jq" data-name="LWPOLYLINE">
      <rect class="mq" x="160.65" y="472.97" width="9.98" height="9.98"/>
    </g>
    <g id="jr" data-name="LWPOLYLINE">
      <rect class="mq" x="159.97" y="764.26" width="11.34" height="11.34"/>
    </g>
    <g id="js" data-name="LWPOLYLINE">
      <rect class="mq" x="160.65" y="764.94" width="9.98" height="9.98"/>
    </g>
    <g id="jt" data-name="LWPOLYLINE">
      <rect class="mq" x="279.02" y="764.26" width="11.34" height="11.34"/>
    </g>
    <g id="ju" data-name="LWPOLYLINE">
      <rect class="mq" x="279.7" y="764.94" width="9.98" height="9.98"/>
    </g>
    <g id="jv" data-name="LWPOLYLINE">
      <rect class="mq" x="429.26" y="789.77" width="28.35" height="14.17"/>
    </g>
    <g id="jw" data-name="LWPOLYLINE">
      <rect class="mq" x="613.51" y="789.77" width="28.35" height="14.17"/>
    </g>
    <g id="jx" data-name="LWPOLYLINE">
      <rect class="mq" x="270.52" y="789.77" width="28.35" height="14.17"/>
    </g>
    <g id="jy" data-name="LWPOLYLINE">
      <rect class="mq" x="738.8" y="676.38" width="14.17" height="28.35"/>
    </g>
    <g id="jz" data-name="LWPOLYLINE">
      <rect class="mq" x="738.8" y="534.93" width="14.17" height="28.35"/>
    </g>
    <g id="ka" data-name="LINE">
      <line class="mb" x1="171.31" y1="472.29" x2="239.34" y2="472.29"/>
    </g>
    <g id="kb" data-name="LINE">
      <line class="mb" x1="239.34" y1="477.96" x2="171.31" y2="477.96"/>
    </g>
    <g id="kc" data-name="LINE">
      <line class="mb" x1="159.97" y1="472.29" x2="152.88" y2="472.29"/>
    </g>
    <g id="kd" data-name="LINE">
      <line class="mb" x1="159.97" y1="477.96" x2="152.88" y2="477.96"/>
    </g>
    <g id="ke" data-name="LWPOLYLINE">
      <polyline class="mb" points="437.76 441.11 437.76 472.29 415.09 472.29"/>
    </g>
    <g id="kf" data-name="LWPOLYLINE">
      <polyline class="mb" points="443.43 441.11 443.43 477.96 415.09 477.96"/>
    </g>
    <g id="kg" data-name="LINE">
      <line class="mb" x1="290.36" y1="472.29" x2="375.4" y2="472.29"/>
    </g>
    <g id="kh" data-name="LINE">
      <line class="mb" x1="290.36" y1="477.96" x2="375.4" y2="477.96"/>
    </g>
    <g id="ki" data-name="LWPOLYLINE">
      <polyline class="mb" points="437.76 429.77 437.76 415.6 738.8 415.6"/>
    </g>
    <g id="kj" data-name="LWPOLYLINE">
      <polyline class="mb" points="443.43 429.77 443.43 421.26 730.3 421.26"/>
    </g>
    <g id="kk" data-name="LWPOLYLINE">
      <rect class="mc" x="141.54" y="472.29" width="11.34" height="308.98"/>
    </g>
    <g id="kl" data-name="LWPOLYLINE">
      <rect class="mc" x="730.87" y="536.63" width="7.94" height="24.94"/>
    </g>
    <g id="km" data-name="LWPOLYLINE">
      <rect class="mc" x="430.96" y="781.83" width="24.94" height="7.94"/>
    </g>
    <g id="kn" data-name="LWPOLYLINE">
      <rect class="mc" x="272.22" y="781.83" width="24.94" height="7.94"/>
    </g>
    <g id="ko" data-name="LWPOLYLINE">
      <rect class="mc" x="615.22" y="781.83" width="21.03" height="7.94"/>
    </g>
    <g id="kp" data-name="LWPOLYLINE">
      <rect class="mc" x="730.87" y="678.08" width="7.94" height="20.26"/>
    </g>
    <g id="kq" data-name="LINE">
      <line class="mt" x1="279.02" y1="528.98" x2="279.02" y2="543.15"/>
    </g>
    <g id="kr" data-name="LINE">
      <line class="mt" x1="284.69" y1="528.98" x2="284.69" y2="543.15"/>
    </g>
    <g id="ks" data-name="LWPOLYLINE">
      <polyline class="mt" points="290.36 554.49 341.39 554.49 341.39 523.31 436.35 523.31 436.35 541.74"/>
    </g>
    <g id="kt" data-name="LWPOLYLINE">
      <polyline class="mt" points="375.4 477.96 375.4 517.64 415.09 517.64 415.09 477.96"/>
    </g>
    <g id="ku" data-name="LWPOLYLINE">
      <polyline class="mt" points="449.1 441.11 449.1 483.63 420.76 483.63 420.76 517.64 449.1 517.64 449.1 541.74"/>
    </g>
    <g id="kv" data-name="LINE">
      <line class="mt" x1="279.02" y1="469.45" x2="375.4" y2="469.45"/>
    </g>
    <g id="kw" data-name="LWPOLYLINE">
      <polyline class="mt" points="290.36 483.63 369.73 483.63 369.73 517.64 335.72 517.64 335.72 548.82 290.36 548.82"/>
    </g>
    <g id="kx" data-name="LINE">
      <line class="mt" x1="239.34" y1="483.63" x2="171.31" y2="483.63"/>
    </g>
    <g id="ky" data-name="LINE">
      <line class="mt" x1="159.97" y1="483.63" x2="152.88" y2="483.63"/>
    </g>
    <g id="kz" data-name="LWPOLYLINE">
      <polyline class="mt" points="449.1 429.77 449.1 426.93 730.3 426.93 730.3 421.26 738.8 421.26 738.8 412.76 434.93 412.76 434.93 469.45 415.09 469.45"/>
    </g>
    <g id="la" data-name="LWPOLYLINE">
      <polyline class="mt" points="239.34 469.45 135.87 469.45 135.87 789.77 141.54 789.77 141.54 781.26"/>
    </g>
    <g id="lb" data-name="LWPOLYLINE">
      <polyline class="mt" points="457.61 789.77 457.61 778.43 429.26 778.43 429.26 789.77"/>
    </g>
    <g id="lc" data-name="LWPOLYLINE">
      <polyline class="mt" points="738.8 563.28 727.47 563.28 727.47 534.93 738.8 534.93"/>
    </g>
    <g id="ld" data-name="LWPOLYLINE">
      <polyline class="mt" points="298.87 789.77 298.87 778.43 270.52 778.43 270.52 789.77"/>
    </g>
    <g id="le" data-name="LWPOLYLINE">
      <polyline class="mt" points="738.8 676.38 727.47 676.38 727.47 699.6 731.76 699.6"/>
    </g>
    <g id="lf" data-name="LWPOLYLINE">
      <polyline class="mt" points="637.58 782.2 637.58 778.43 613.51 778.43 613.51 789.77"/>
    </g>
  </g>
  <g id="ll" data-name="SCALE">
    <g>
      <g id="lm" data-name="CIRCLE">
        <circle class="ly" cx="69.24" cy="1074" r="14.88"/>
      </g>
      <g id="ln" data-name="TEXT">
        <text class="mj" transform="translate(72.45 1055.85) rotate(22.03) scale(.9 1)"><tspan x="0" y="0">N</tspan></text>
      </g>
      <g id="lo" data-name="HATCH">
        <path class="ma" d="M74.82,1060.21c-.23-.09-.46-.18-.7-.26l-5.57,13.78.69.28,5.58-13.8Z"/>
      </g>
      <g id="lp" data-name="HATCH">
        <path class="ma" d="M75.5,1060.5c-.23-.1-.45-.2-.69-.3l-5.58,13.8.69.28,5.57-13.78Z"/>
      </g>
      <g id="lq" data-name="LINE">
        <line class="ly" x1="74.12" y1="1059.94" x2="68.54" y2="1073.72"/>
      </g>
      <g id="lr" data-name="LINE">
        <line class="ly" x1="75.5" y1="1060.5" x2="69.93" y2="1074.28"/>
      </g>
      <g id="ls" data-name="LINE">
        <line class="ly" x1="69.24" y1="1074" x2="74.82" y2="1060.21"/>
      </g>
      <g id="lt" data-name="MTEXT">
        <text class="lz" transform="translate(50 1146.53)"><tspan x="0" y="0">0</tspan></text>
      </g>
      <g id="lu" data-name="MTEXT">
        <text class="lz" transform="translate(163.52 1146.53)"><tspan x="0" y="0">2</tspan></text>
      </g>
      <g id="lv" data-name="MTEXT">
        <text class="lz" transform="translate(107.23 1146.53)"><tspan x="0" y="0">1</tspan></text>
      </g>
      <g id="lw" data-name="MTEXT">
        <text class="lz" transform="translate(327 1146.48)"><tspan x="0" y="0">5m</tspan></text>
      </g>
      <g id="lx" data-name="LWPOLYLINE">
        <polyline class="ly" points="337.82 1130.89 337.82 1113.88 167.74 1113.88 167.74 1130.89 111.05 1130.89 111.05 1113.88 54.35 1113.88 54.35 1130.89"/>
      </g>
    </g>
    <text class="mf" transform="translate(203.92 456.42)"><tspan x="0" y="0">2</tspan></text>
    <g>
      <text class="ms" transform="translate(815.3 1111.05)"><tspan x="0" y="0">사무실</tspan><tspan x="0" y="18">발코니</tspan><tspan x="0" y="36">계단실</tspan><tspan x="0" y="54">화장실</tspan></text>
      <text class="ms" transform="translate(802.07 1111.05)"><tspan x="0" y="0">1</tspan><tspan x="-1.58" y="18">2</tspan><tspan x="-1.74" y="36">3</tspan><tspan x="-2.07" y="54">4</tspan></text>
    </g>
    <text class="mf" transform="translate(467.91 619.67)"><tspan x="0" y="0">1</tspan></text>
    <text class="mf" transform="translate(245.76 605.44)"><tspan x="0" y="0">3</tspan></text>
    <text class="mf" transform="translate(306.21 511.69)"><tspan x="0" y="0">4</tspan></text>
  </g>
</svg>