<?xml version="1.0" encoding="UTF-8"?>
<svg xmlns="http://www.w3.org/2000/svg" viewBox="0 0 2000 1500">
  <defs>
    <style>
      .ly {
        fill-rule: evenodd;
      }

      .ly, .lz, .ma, .mb, .mc, .md, .me, .mf, .mg, .mh, .mi, .mj, .mk, .ml, .mm, .mn, .mo, .mp, .mq, .mr, .ms, .mt, .mu, .mv, .mw {
        stroke: #000;
      }

      .ly, .lz, .ma, .mb, .mc, .md, .mg, .mh, .mi, .mj, .mk, .ml, .mm, .mn, .mo, .mp, .mq, .mr, .ms, .mt, .mu, .mv, .mw {
        stroke-miterlimit: 10;
      }

      .ly, .lz, .mc, .mf, .mj, .ml, .mo, .mr, .mt, .mu, .mw {
        stroke-width: .5px;
      }

      .lz, .ma, .mb, .mc, .md, .mg, .mh, .mi, .mj, .mk, .mm, .mn, .mo, .mp, .mq, .mr, .ms, .mt, .mu, .mv, .mw {
        fill: none;
      }

      .ma {
        stroke-width: .75px;
      }

      .mb {
        stroke-width: .85px;
      }

      .mc {
        stroke-dasharray: 1.98 .99;
      }

      .md {
        stroke-width: .15px;
      }

      .me {
        stroke-width: .34px;
      }

      .mg, .mh, .mi, .mm, .mn, .mv {
        stroke-width: .4px;
      }

      .mh {
        stroke-dasharray: 1.97 .99;
      }

      .mi {
        stroke-dasharray: 1.88 .94;
      }

      .mj {
        stroke-dasharray: 2.04 1.02;
      }

      .mk {
        stroke-width: .25px;
      }

      .mm {
        stroke-dasharray: 1.97 .99;
      }

      .mn {
        stroke-dasharray: 1.99 .99;
      }

      .mo {
        stroke-dasharray: 2 1;
      }

      .mp {
        stroke-width: .3px;
      }

      .mq {
        stroke-width: .6px;
      }

      .mr {
        stroke-dasharray: 1.98 .99;
      }

      .ms {
        stroke-width: .9px;
      }

      .mt {
        stroke-dasharray: 1.98 .99;
      }

      .mu {
        stroke-dasharray: 1.98 .99;
      }

      .mv {
        stroke-dasharray: 2.02 1.01;
      }

      .mw {
        stroke-dasharray: 2.07 1.03;
      }
    </style>
  </defs>
  <g id="at" data-name="f3">
    <g id="au" data-name="HATCH">
      <path class="md" d="M692.72,619.45v-36.28M696.32,619.45v-36.28M699.92,619.45v-36.28M703.52,619.45v-36.28M707.12,619.45v-36.28M710.72,619.45v-36.28M714.32,619.45v-36.28M717.92,619.45v-36.28M721.52,619.45v-36.28M725.12,619.45v-36.28M728.72,619.45v-36.28M732.32,619.45v-36.28M735.92,619.45v-36.28M739.52,619.45v-36.28M743.12,619.45v-36.28M746.72,619.45v-36.28M750.32,619.45v-36.28M753.92,619.45v-36.28M757.52,619.45v-36.28M761.12,619.45v-36.28M764.72,619.45v-36.28M768.32,619.45v-36.28M771.92,619.45v-36.28M775.52,619.45v-36.28M779.12,619.45v-36.28M782.72,619.45v-36.28M786.32,619.45v-36.28M789.92,619.45v-36.28M793.52,619.45v-36.28M797.12,619.45v-36.28M800.72,619.45v-36.28M804.32,619.45v-36.28M807.92,619.45v-36.28M811.52,619.45v-36.28M815.12,619.45v-36.28M818.72,619.45v-36.28M822.32,619.45v-36.28M825.92,619.45v-36.28M829.52,619.45v-36.28M833.12,619.45v-36.28M836.72,619.45v-36.28M840.32,619.45v-36.28M843.92,619.45v-36.28M847.52,619.45v-36.28M851.12,619.45v-36.28M854.72,619.45v-36.28M858.32,619.45v-36.28M861.92,619.45v-36.28M865.52,619.45v-36.28M869.12,619.45v-36.28M872.72,619.45v-36.28M876.32,619.45v-36.28M879.92,619.45v-36.28M883.52,619.45v-36.28M887.12,619.45v-36.28M890.72,619.45v-36.28M894.32,619.45v-36.28M897.92,619.45v-36.28M901.52,619.45v-36.28M905.12,619.45v-36.28M908.72,619.45v-36.28M912.32,619.45v-36.28M915.92,619.45v-36.28M919.52,619.45v-36.28M923.12,619.45v-36.28M926.72,619.45v-36.28M930.32,619.45v-36.28M933.92,619.45v-36.28M937.52,619.45v-36.28M941.12,619.45v-36.28M944.72,619.45v-36.28M948.32,619.45v-36.28M951.92,619.45v-36.28M955.52,619.45v-36.28M959.12,619.45v-36.28M962.72,619.45v-36.28M966.32,619.45v-36.28M969.92,619.45v-36.28M973.52,619.45v-36.28M977.12,619.45v-36.28M980.72,619.45v-36.28M984.93,611.27h-295.65M984.93,596.87h-295.65"/>
    </g>
    <g id="av" data-name="LWPOLYLINE">
      <polyline class="mk" points="829.02 704.49 829.02 709.6 829.59 709.6 829.59 704.49"/>
    </g>
    <g id="aw" data-name="LWPOLYLINE">
      <polyline class="mk" points="829.59 914.26 829.59 864.37 829.02 864.37 829.02 914.26"/>
    </g>
    <g id="ax" data-name="LWPOLYLINE">
      <rect class="mk" x="829.02" y="813.34" width=".57" height="49.89"/>
    </g>
    <g id="ay" data-name="LWPOLYLINE">
      <polyline class="mk" points="829.59 710.16 829.59 761.19 829.02 761.19 829.02 710.16"/>
    </g>
    <g id="az" data-name="LWPOLYLINE">
      <rect class="mk" x="829.02" y="762.32" width=".57" height="49.89"/>
    </g>
    <g id="ba" data-name="LINE">
      <line class="mk" x1="977.28" y1="937.5" x2="934.19" y2="937.5"/>
    </g>
    <g id="bb" data-name="LINE">
      <line class="mk" x1="933.06" y1="937.5" x2="850.85" y2="937.5"/>
    </g>
    <g id="bc" data-name="LINE">
      <line class="mk" x1="976.43" y1="939.07" x2="935.04" y2="939.07"/>
    </g>
    <g id="bd" data-name="LINE">
      <line class="mk" x1="932.21" y1="939.07" x2="851.7" y2="939.08"/>
    </g>
    <g id="be" data-name="LINE">
      <line class="mk" x1="1161.53" y1="937.5" x2="1009.59" y2="937.5"/>
    </g>
    <g id="bf" data-name="LINE">
      <line class="mk" x1="1160.68" y1="939.07" x2="1010.44" y2="939.07"/>
    </g>
    <g id="bg" data-name="LINE">
      <line class="mk" x1="1191.85" y1="936.76" x2="1285.82" y2="854.34"/>
    </g>
    <g id="bh" data-name="LINE">
      <line class="mk" x1="1286.21" y1="856.08" x2="1193.53" y2="937.38"/>
    </g>
    <g id="bi" data-name="LINE">
      <line class="mk" x1="818.54" y1="937.5" x2="693.53" y2="937.5"/>
    </g>
    <g id="bj" data-name="LINE">
      <line class="mk" x1="817.69" y1="939.08" x2="694.38" y2="939.08"/>
    </g>
    <g id="bk" data-name="LINE">
      <line class="mk" x1="1286.54" y1="573.25" x2="1286.54" y2="682.95"/>
    </g>
    <g id="bl" data-name="LINE">
      <line class="mk" x1="1288.1" y1="574.1" x2="1288.1" y2="682.1"/>
    </g>
    <g id="bm" data-name="LINE">
      <line class="mk" x1="1286.54" y1="715.26" x2="1286.54" y2="824.4"/>
    </g>
    <g id="bn" data-name="LINE">
      <line class="mk" x1="1288.1" y1="716.12" x2="1288.1" y2="823.55"/>
    </g>
    <g id="bo" data-name="LWPOLYLINE">
      <polyline class="mp" points="984.93 579.77 685.87 579.77 685.87 619.45"/>
    </g>
    <g id="bp" data-name="LWPOLYLINE">
      <polyline class="mp" points="1288.8 622.29 1302.98 622.29 1302.98 548.02 984.93 548.02 984.93 562.76"/>
    </g>
    <g id="bq" data-name="LWPOLYLINE">
      <polyline class="mp" points="820.52 953.94 685.87 953.94 685.87 939.77"/>
    </g>
    <g id="br" data-name="LWPOLYLINE">
      <polyline class="mp" points="1163.51 953.94 1088.39 953.94 1088.39 939.77"/>
    </g>
    <g id="bs" data-name="LWPOLYLINE">
      <polyline class="mp" points="1007.61 953.94 1082.73 953.94 1082.73 939.77"/>
    </g>
    <g id="bt" data-name="LWPOLYLINE">
      <polyline class="mp" points="911.23 939.77 911.23 953.94 848.87 953.94"/>
    </g>
    <g id="bu" data-name="LWPOLYLINE">
      <polyline class="mp" points="979.26 953.94 916.9 953.94 916.9 939.77"/>
    </g>
    <g id="bv" data-name="LWPOLYLINE">
      <polyline class="mp" points="1302.98 826.38 1302.98 771.96 1288.8 771.96"/>
    </g>
    <g id="bw" data-name="LWPOLYLINE">
      <polyline class="mp" points="1302.98 854.73 1302.98 861.16 1252.21 905.68 1242.87 895.02"/>
    </g>
    <g id="bx" data-name="LWPOLYLINE">
      <polyline class="mp" points="1191.86 953.94 1197.19 953.94 1247.95 909.42 1238.61 898.76"/>
    </g>
    <g id="by" data-name="LWPOLYLINE">
      <polyline class="mp" points="1302.98 684.93 1302.98 627.96 1288.8 627.96"/>
    </g>
    <g id="bz" data-name="LWPOLYLINE">
      <polyline class="mp" points="1302.98 713.28 1302.98 766.29 1288.8 766.29"/>
    </g>
    <g id="ca" data-name="LWPOLYLINE">
      <g>
        <polyline class="mg" points="1059.48 802.71 1059.48 803.71 1060.48 803.71"/>
        <line class="mi" x1="1061.42" y1="803.71" x2="1083.52" y2="803.71"/>
        <polyline class="mg" points="1083.99 803.71 1084.99 803.71 1084.99 802.71"/>
        <path class="mh" d="M1084.99,801.72v-15.02c0-7.04-5.71-12.76-12.76-12.76s-12.76,5.71-12.76,12.76v15.51"/>
      </g>
    </g>
    <g id="cb" data-name="LWPOLYLINE">
      <g>
        <polyline class="mg" points="1059.48 878.41 1059.48 877.41 1060.48 877.41"/>
        <line class="mi" x1="1061.42" y1="877.41" x2="1083.52" y2="877.41"/>
        <polyline class="mg" points="1083.99 877.41 1084.99 877.41 1084.99 878.41"/>
        <path class="mh" d="M1084.99,879.39v15.02c0,7.04-5.71,12.76-12.76,12.76s-12.76-5.71-12.76-12.76v-15.51"/>
      </g>
    </g>
    <g id="cc" data-name="LWPOLYLINE">
      <g>
        <polyline class="mg" points="1127.51 802.71 1127.51 803.71 1128.51 803.71"/>
        <line class="mi" x1="1129.45" y1="803.71" x2="1151.56" y2="803.71"/>
        <polyline class="mg" points="1152.03 803.71 1153.03 803.71 1153.03 802.71"/>
        <path class="mh" d="M1153.03,801.72v-15.02c0-7.04-5.71-12.76-12.76-12.76s-12.76,5.71-12.76,12.76v15.51"/>
      </g>
    </g>
    <g id="cd" data-name="LWPOLYLINE">
      <g>
        <polyline class="mg" points="1127.51 878.41 1127.51 877.41 1128.51 877.41"/>
        <line class="mi" x1="1129.45" y1="877.41" x2="1151.56" y2="877.41"/>
        <polyline class="mg" points="1152.03 877.41 1153.03 877.41 1153.03 878.41"/>
        <path class="mh" d="M1153.03,879.39v15.02c0,7.04-5.71,12.76-12.76,12.76s-12.76-5.71-12.76-12.76v-15.51"/>
      </g>
    </g>
    <g id="ce" data-name="LINE">
      <g>
        <line class="mg" x1="1174.85" y1="874.57" x2="1174.85" y2="873.57"/>
        <line class="mm" x1="1174.85" y1="872.59" x2="1174.85" y2="808.03"/>
        <line class="mg" x1="1174.85" y1="807.54" x2="1174.85" y2="806.54"/>
      </g>
    </g>
    <g id="cf" data-name="LWPOLYLINE">
      <g>
        <polyline class="mg" points="1212.7 827.23 1211.7 827.23 1211.7 828.23"/>
        <line class="mi" x1="1211.7" y1="829.17" x2="1211.7" y2="851.27"/>
        <polyline class="mg" points="1211.7 851.75 1211.7 852.75 1212.7 852.75"/>
        <path class="mh" d="M1213.69,852.75h15.02c7.04,0,12.76-5.71,12.76-12.76s-5.71-12.76-12.76-12.76h-15.51"/>
      </g>
    </g>
    <g id="cg" data-name="LWPOLYLINE">
      <g>
        <polyline class="mg" points="1059.48 635.18 1059.48 636.18 1060.48 636.18"/>
        <line class="mi" x1="1061.42" y1="636.18" x2="1083.52" y2="636.18"/>
        <polyline class="mg" points="1083.99 636.18 1084.99 636.18 1084.99 635.18"/>
        <path class="mh" d="M1084.99,634.19v-15.02c0-7.04-5.71-12.76-12.76-12.76s-12.76,5.71-12.76,12.76v15.51"/>
      </g>
    </g>
    <g id="ch" data-name="LWPOLYLINE">
      <g>
        <polyline class="mg" points="1059.48 710.88 1059.48 709.88 1060.48 709.88"/>
        <line class="mi" x1="1061.42" y1="709.88" x2="1083.52" y2="709.88"/>
        <polyline class="mg" points="1083.99 709.88 1084.99 709.88 1084.99 710.88"/>
        <path class="mh" d="M1084.99,711.87v15.02c0,7.04-5.71,12.76-12.76,12.76s-12.76-5.71-12.76-12.76v-15.51"/>
      </g>
    </g>
    <g id="ci" data-name="LWPOLYLINE">
      <g>
        <polyline class="mg" points="1127.51 635.18 1127.51 636.18 1128.51 636.18"/>
        <line class="mi" x1="1129.45" y1="636.18" x2="1151.56" y2="636.18"/>
        <polyline class="mg" points="1152.03 636.18 1153.03 636.18 1153.03 635.18"/>
        <path class="mh" d="M1153.03,634.19v-15.02c0-7.04-5.71-12.76-12.76-12.76s-12.76,5.71-12.76,12.76v15.51"/>
      </g>
    </g>
    <g id="cj" data-name="LWPOLYLINE">
      <g>
        <polyline class="mg" points="1127.51 710.88 1127.51 709.88 1128.51 709.88"/>
        <line class="mi" x1="1129.45" y1="709.88" x2="1151.56" y2="709.88"/>
        <polyline class="mg" points="1152.03 709.88 1153.03 709.88 1153.03 710.88"/>
        <path class="mh" d="M1153.03,711.87v15.02c0,7.04-5.71,12.76-12.76,12.76s-12.76-5.71-12.76-12.76v-15.51"/>
      </g>
    </g>
    <g id="ck" data-name="LWPOLYLINE">
      <g>
        <polyline class="mg" points="1207.87 639.02 1208.87 639.02 1208.87 640.02"/>
        <line class="mm" x1="1208.87" y1="641" x2="1208.87" y2="705.55"/>
        <polyline class="mg" points="1208.87 706.05 1208.87 707.05 1207.87 707.05"/>
        <line class="mn" x1="1206.87" y1="707.05" x2="1040.29" y2="707.05"/>
        <polyline class="mg" points="1039.79 707.05 1038.79 707.05 1038.79 706.05"/>
        <line class="mm" x1="1038.79" y1="705.06" x2="1038.79" y2="640.51"/>
        <polyline class="mg" points="1038.79 640.02 1038.79 639.02 1039.79 639.02"/>
        <line class="mn" x1="1040.78" y1="639.02" x2="1207.37" y2="639.02"/>
      </g>
    </g>
    <g id="cl" data-name="LWPOLYLINE">
      <g>
        <polyline class="mg" points="1212.7 659.71 1211.7 659.71 1211.7 660.71"/>
        <line class="mi" x1="1211.7" y1="661.65" x2="1211.7" y2="683.75"/>
        <polyline class="mg" points="1211.7 684.22 1211.7 685.22 1212.7 685.22"/>
        <path class="mh" d="M1213.69,685.22h15.02c7.04,0,12.76-5.71,12.76-12.76s-5.71-12.76-12.76-12.76h-15.51"/>
      </g>
    </g>
    <g id="cm" data-name="LINE">
      <g>
        <line class="mg" x1="997.98" y1="840.56" x2="996.98" y2="840.56"/>
        <line class="mv" x1="995.97" y1="840.56" x2="863.42" y2="840.56"/>
        <line class="mg" x1="862.91" y1="840.56" x2="861.91" y2="840.56"/>
      </g>
    </g>
    <g id="cn" data-name="LINE">
      <g>
        <line class="mg" x1="929.95" y1="874.57" x2="929.95" y2="873.57"/>
        <line class="mm" x1="929.95" y1="872.59" x2="929.95" y2="808.03"/>
        <line class="mg" x1="929.95" y1="807.54" x2="929.95" y2="806.54"/>
      </g>
    </g>
    <g id="co" data-name="LWPOLYLINE">
      <g>
        <polyline class="mg" points="950.64 802.71 950.64 803.71 951.64 803.71"/>
        <line class="mi" x1="952.58" y1="803.71" x2="974.68" y2="803.71"/>
        <polyline class="mg" points="975.15 803.71 976.15 803.71 976.15 802.71"/>
        <path class="mh" d="M976.15,801.72v-15.02c0-7.04-5.71-12.76-12.76-12.76s-12.76,5.71-12.76,12.76v15.51"/>
      </g>
    </g>
    <g id="cp" data-name="LWPOLYLINE">
      <g>
        <polyline class="mg" points="950.64 878.41 950.64 877.41 951.64 877.41"/>
        <line class="mi" x1="952.58" y1="877.41" x2="974.68" y2="877.41"/>
        <polyline class="mg" points="975.15 877.41 976.15 877.41 976.15 878.41"/>
        <path class="mh" d="M976.15,879.39v15.02c0,7.04-5.71,12.76-12.76,12.76s-12.76-5.71-12.76-12.76v-15.51"/>
      </g>
    </g>
    <g id="cq" data-name="LWPOLYLINE">
      <g>
        <polyline class="mg" points="996.98 806.54 997.98 806.54 997.98 807.54"/>
        <polyline class="mm" points="997.98 808.53 997.98 840.56 997.98 873.08"/>
        <polyline class="mg" points="997.98 873.57 997.98 874.57 996.98 874.57"/>
        <polyline class="mv" points="995.97 874.57 929.95 874.57 863.42 874.57"/>
        <polyline class="mg" points="862.91 874.57 861.91 874.57 861.91 873.57"/>
        <polyline class="mm" points="861.91 872.59 861.91 840.56 861.91 808.03"/>
        <polyline class="mg" points="861.91 807.54 861.91 806.54 862.91 806.54"/>
        <polyline class="mv" points="863.92 806.54 929.95 806.54 996.47 806.54"/>
      </g>
    </g>
    <g id="cr" data-name="LWPOLYLINE">
      <g>
        <polyline class="mg" points="882.61 802.71 882.61 803.71 883.61 803.71"/>
        <line class="mi" x1="884.55" y1="803.71" x2="906.65" y2="803.71"/>
        <polyline class="mg" points="907.12 803.71 908.12 803.71 908.12 802.71"/>
        <path class="mh" d="M908.12,801.72v-15.02c0-7.04-5.71-12.76-12.76-12.76s-12.76,5.71-12.76,12.76v15.51"/>
      </g>
    </g>
    <g id="cs" data-name="LWPOLYLINE">
      <g>
        <polyline class="mg" points="882.61 878.41 882.61 877.41 883.61 877.41"/>
        <line class="mi" x1="884.55" y1="877.41" x2="906.65" y2="877.41"/>
        <polyline class="mg" points="907.12 877.41 908.12 877.41 908.12 878.41"/>
        <path class="mh" d="M908.12,879.39v15.02c0,7.04-5.71,12.76-12.76,12.76s-12.76-5.71-12.76-12.76v-15.51"/>
      </g>
    </g>
    <g id="ct" data-name="LINE">
      <g>
        <line class="mg" x1="1174.85" y1="840.56" x2="1173.85" y2="840.56"/>
        <line class="mv" x1="1172.84" y1="840.56" x2="1040.29" y2="840.56"/>
        <line class="mg" x1="1039.79" y1="840.56" x2="1038.79" y2="840.56"/>
      </g>
    </g>
    <g id="cu" data-name="LINE">
      <g>
        <line class="mg" x1="1106.82" y1="874.57" x2="1106.82" y2="873.57"/>
        <line class="mm" x1="1106.82" y1="872.59" x2="1106.82" y2="808.03"/>
        <line class="mg" x1="1106.82" y1="807.54" x2="1106.82" y2="806.54"/>
      </g>
    </g>
    <g id="cv" data-name="LWPOLYLINE">
      <g>
        <polyline class="mg" points="1207.87 806.54 1208.87 806.54 1208.87 807.54"/>
        <polyline class="mm" points="1208.87 808.53 1208.87 840.56 1208.87 873.08"/>
        <polyline class="mg" points="1208.87 873.57 1208.87 874.57 1207.87 874.57"/>
        <polyline class="mn" points="1206.87 874.57 1106.82 874.57 1040.29 874.57"/>
        <polyline class="mg" points="1039.79 874.57 1038.79 874.57 1038.79 873.57"/>
        <polyline class="mm" points="1038.79 872.59 1038.79 840.56 1038.79 808.03"/>
        <polyline class="mg" points="1038.79 807.54 1038.79 806.54 1039.79 806.54"/>
        <polyline class="mn" points="1040.78 806.54 1106.82 806.54 1207.37 806.54"/>
      </g>
    </g>
    <g id="cw" data-name="LINE">
      <g>
        <line class="mg" x1="1174.85" y1="673.03" x2="1173.85" y2="673.03"/>
        <line class="mv" x1="1172.84" y1="673.03" x2="1040.29" y2="673.03"/>
        <line class="mg" x1="1039.79" y1="673.03" x2="1038.79" y2="673.03"/>
      </g>
    </g>
    <g id="cx" data-name="LINE">
      <g>
        <line class="mg" x1="1106.82" y1="707.05" x2="1106.82" y2="706.05"/>
        <line class="mm" x1="1106.82" y1="705.06" x2="1106.82" y2="640.51"/>
        <line class="mg" x1="1106.82" y1="640.02" x2="1106.82" y2="639.02"/>
      </g>
    </g>
    <g id="cy" data-name="LINE">
      <g>
        <line class="mg" x1="1174.85" y1="707.05" x2="1174.85" y2="706.05"/>
        <line class="mm" x1="1174.85" y1="705.06" x2="1174.85" y2="640.51"/>
        <line class="mg" x1="1174.85" y1="640.02" x2="1174.85" y2="639.02"/>
      </g>
    </g>
    <g id="cz" data-name="LWPOLYLINE">
      <rect class="mg" x="770.35" y="688.62" width="1.98" height="170.08"/>
    </g>
    <g id="da" data-name="LWPOLYLINE">
      <rect class="mg" x="778" y="692.59" width="1.98" height="166.11"/>
    </g>
    <g id="db" data-name="LINE">
      <line class="mg" x1="775.17" y1="722.07" x2="772.33" y2="722.07"/>
    </g>
    <g id="dc" data-name="LINE">
      <line class="mg" x1="770.35" y1="722.07" x2="721.31" y2="722.07"/>
    </g>
    <g id="dd" data-name="LINE">
      <line class="mg" x1="775.17" y1="707.33" x2="772.33" y2="707.33"/>
    </g>
    <g id="de" data-name="LINE">
      <line class="mg" x1="770.35" y1="707.33" x2="721.31" y2="707.33"/>
    </g>
    <g id="df" data-name="LINE">
      <line class="mg" x1="775.17" y1="692.59" x2="772.33" y2="692.59"/>
    </g>
    <g id="dg" data-name="LINE">
      <line class="mg" x1="770.35" y1="692.59" x2="721.31" y2="692.59"/>
    </g>
    <g id="dh" data-name="LINE">
      <line class="mg" x1="775.17" y1="736.81" x2="772.33" y2="736.81"/>
    </g>
    <g id="di" data-name="LINE">
      <line class="mg" x1="770.35" y1="736.81" x2="721.31" y2="736.81"/>
    </g>
    <g id="dj" data-name="LINE">
      <line class="mg" x1="775.17" y1="751.55" x2="772.33" y2="751.55"/>
    </g>
    <g id="dk" data-name="LINE">
      <line class="mg" x1="770.35" y1="751.55" x2="721.31" y2="751.55"/>
    </g>
    <g id="dl" data-name="LINE">
      <line class="mg" x1="775.17" y1="766.29" x2="772.33" y2="766.29"/>
    </g>
    <g id="dm" data-name="LINE">
      <line class="mg" x1="770.35" y1="766.29" x2="721.31" y2="766.29"/>
    </g>
    <g id="dn" data-name="LINE">
      <line class="mg" x1="775.17" y1="781.03" x2="772.33" y2="781.03"/>
    </g>
    <g id="do" data-name="LINE">
      <line class="mg" x1="770.35" y1="781.03" x2="721.31" y2="781.03"/>
    </g>
    <g id="dp" data-name="LINE">
      <line class="mg" x1="775.17" y1="795.77" x2="772.33" y2="795.77"/>
    </g>
    <g id="dq" data-name="LINE">
      <line class="mg" x1="770.35" y1="795.77" x2="721.31" y2="795.77"/>
    </g>
    <g id="dr" data-name="LINE">
      <line class="mg" x1="775.17" y1="810.51" x2="772.33" y2="810.51"/>
    </g>
    <g id="ds" data-name="LINE">
      <line class="mg" x1="770.35" y1="810.51" x2="721.31" y2="810.51"/>
    </g>
    <g id="dt" data-name="LINE">
      <line class="mg" x1="775.17" y1="825.25" x2="772.33" y2="825.25"/>
    </g>
    <g id="du" data-name="LINE">
      <line class="mg" x1="770.35" y1="825.25" x2="721.31" y2="825.25"/>
    </g>
    <g id="dv" data-name="LINE">
      <line class="mg" x1="775.17" y1="839.99" x2="772.33" y2="839.99"/>
    </g>
    <g id="dw" data-name="LINE">
      <line class="mg" x1="770.35" y1="839.99" x2="721.31" y2="839.99"/>
    </g>
    <g id="dx" data-name="LINE">
      <line class="mg" x1="775.17" y1="854.73" x2="772.33" y2="854.73"/>
    </g>
    <g id="dy" data-name="LINE">
      <line class="mg" x1="770.35" y1="854.73" x2="721.31" y2="854.73"/>
    </g>
    <g id="dz" data-name="LINE">
      <line class="mg" x1="775.17" y1="692.59" x2="775.17" y2="854.73"/>
    </g>
    <g id="ea" data-name="LINE">
      <line class="mg" x1="775.17" y1="854.73" x2="772.33" y2="857.86"/>
    </g>
    <g id="eb" data-name="LINE">
      <line class="mg" x1="771.58" y1="858.7" x2="721.31" y2="914.26"/>
    </g>
    <g id="ec" data-name="LINE">
      <line class="mg" x1="775.17" y1="854.73" x2="775.17" y2="914.26"/>
    </g>
    <g id="ed" data-name="LINE">
      <line class="mg" x1="775.17" y1="854.73" x2="778" y2="854.73"/>
    </g>
    <g id="ee" data-name="LINE">
      <line class="mg" x1="775.17" y1="839.99" x2="778" y2="839.99"/>
    </g>
    <g id="ef" data-name="LINE">
      <line class="mg" x1="775.17" y1="825.25" x2="778" y2="825.25"/>
    </g>
    <g id="eg" data-name="LINE">
      <line class="mg" x1="775.17" y1="692.59" x2="775.17" y2="633.63"/>
    </g>
    <g id="eh" data-name="LINE">
      <line class="mg" x1="775.17" y1="692.59" x2="772.33" y2="689.48"/>
    </g>
    <g id="ei" data-name="LINE">
      <line class="mg" x1="771.54" y1="688.62" x2="721.31" y2="633.63"/>
    </g>
    <g id="ej" data-name="LWPOLYLINE">
      <rect class="mg" x="827.89" y="710.16" width="2.83" height="8.5"/>
    </g>
    <g id="ek" data-name="LWPOLYLINE">
      <rect class="mg" x="829.02" y="676.15" width="5.67" height="2.83"/>
    </g>
    <g id="el" data-name="LWPOLYLINE">
      <rect class="mg" x="829.02" y="633.63" width="5.67" height="2.83"/>
    </g>
    <g id="em" data-name="LWPOLYLINE">
      <rect class="mg" x="829.02" y="636.46" width="1.7" height="39.69"/>
    </g>
    <g id="en" data-name="LWPOLYLINE">
      <rect class="mg" x="925.4" y="619.45" width="2.83" height="8.5"/>
    </g>
    <g id="eo" data-name="LWPOLYLINE">
      <rect class="mg" x="962.25" y="619.45" width="2.83" height="8.5"/>
    </g>
    <g id="ep" data-name="LWPOLYLINE">
      <rect class="mg" x="928.24" y="619.45" width="34.02" height="1.7"/>
    </g>
    <g id="eq" data-name="LWPOLYLINE">
      <rect class="mg" x="789.34" y="619.45" width="2.83" height="14.17"/>
    </g>
    <g id="er" data-name="LWPOLYLINE">
      <rect class="mg" x="826.19" y="619.45" width="2.83" height="14.17"/>
    </g>
    <g id="es" data-name="LWPOLYLINE">
      <rect class="mg" x="792.17" y="619.45" width="34.02" height="1.7"/>
    </g>
    <g id="et" data-name="LWPOLYLINE">
      <rect class="mg" x="691.54" y="931.26" width="2.83" height="5.67"/>
    </g>
    <g id="eu" data-name="LWPOLYLINE">
      <polyline class="mg" points="692.39 936.93 692.39 938.07 693.53 938.07 693.53 936.93"/>
    </g>
    <g id="ev" data-name="LINE">
      <line class="mg" x1="692.96" y1="938.07" x2="692.96" y2="939.77"/>
    </g>
    <g id="ew" data-name="LWPOLYLINE">
      <polyline class="mg" points="691.54 939.07 691.54 939.77 694.38 939.77 694.38 939.08"/>
    </g>
    <g id="ex" data-name="LWPOLYLINE">
      <rect class="mg" x="1280.3" y="571.26" width="5.67" height="2.83"/>
    </g>
    <g id="ey" data-name="LWPOLYLINE">
      <polyline class="mg" points="1285.97 573.25 1287.1 573.25 1287.1 572.12 1285.97 572.12"/>
    </g>
    <g id="ez" data-name="LINE">
      <line class="mg" x1="1287.1" y1="572.68" x2="1288.8" y2="572.68"/>
    </g>
    <g id="fa" data-name="LWPOLYLINE">
      <polyline class="mg" points="1288.1 574.1 1288.8 574.1 1288.8 571.26 1288.11 571.26"/>
    </g>
    <g id="fb" data-name="LWPOLYLINE">
      <rect class="mg" x="848.87" y="931.26" width="2.83" height="5.67"/>
    </g>
    <g id="fc" data-name="LWPOLYLINE">
      <polyline class="mg" points="849.72 936.93 849.72 938.07 850.85 938.07 850.85 936.93"/>
    </g>
    <g id="fd" data-name="LINE">
      <line class="mg" x1="850.28" y1="938.07" x2="850.28" y2="939.77"/>
    </g>
    <g id="fe" data-name="LWPOLYLINE">
      <polyline class="mg" points="848.87 939.07 848.87 939.77 851.7 939.77 851.7 939.08"/>
    </g>
    <g id="ff" data-name="LWPOLYLINE">
      <rect class="mg" x="976.43" y="931.26" width="2.83" height="5.67"/>
    </g>
    <g id="fg" data-name="LWPOLYLINE">
      <polyline class="mg" points="977.28 936.93 977.28 938.07 978.41 938.07 978.41 936.93"/>
    </g>
    <g id="fh" data-name="LINE">
      <line class="mg" x1="977.84" y1="938.07" x2="977.84" y2="939.77"/>
    </g>
    <g id="fi" data-name="LWPOLYLINE">
      <polyline class="mg" points="976.43 939.07 976.43 939.77 979.26 939.77 979.26 939.08"/>
    </g>
    <g id="fj" data-name="LWPOLYLINE">
      <rect class="mg" x="1160.68" y="931.26" width="2.83" height="5.67"/>
    </g>
    <g id="fk" data-name="LWPOLYLINE">
      <polyline class="mg" points="1161.53 936.93 1161.53 938.07 1162.66 938.07 1162.66 936.93"/>
    </g>
    <g id="fl" data-name="LINE">
      <line class="mg" x1="1162.1" y1="938.07" x2="1162.1" y2="939.77"/>
    </g>
    <g id="fm" data-name="LWPOLYLINE">
      <polyline class="mg" points="1160.68 939.07 1160.68 939.77 1163.51 939.77 1163.51 939.08"/>
    </g>
    <g id="fn" data-name="LWPOLYLINE">
      <rect class="mg" x="1187.76" y="931.74" width="2.83" height="5.67" transform="translate(-320.93 1019.16) rotate(-41.37)"/>
    </g>
    <g id="fo" data-name="LWPOLYLINE">
      <polyline class="mg" points="1190.63 937.08 1191.38 937.93 1192.23 937.18 1191.48 936.33"/>
    </g>
    <g id="fp" data-name="LINE">
      <line class="mg" x1="1191.8" y1="937.56" x2="1192.92" y2="938.83"/>
    </g>
    <g id="fq" data-name="LWPOLYLINE">
      <polyline class="mg" points="1191.4 939.24 1191.86 939.77 1193.99 937.9 1193.53 937.38"/>
    </g>
    <g id="fr" data-name="LWPOLYLINE">
      <rect class="mg" x="1007.61" y="931.26" width="2.83" height="5.67"/>
    </g>
    <g id="fs" data-name="LWPOLYLINE">
      <polyline class="mg" points="1008.46 936.93 1008.46 938.07 1009.59 938.07 1009.59 936.93"/>
    </g>
    <g id="ft" data-name="LINE">
      <line class="mg" x1="1009.02" y1="938.07" x2="1009.02" y2="939.77"/>
    </g>
    <g id="fu" data-name="LWPOLYLINE">
      <polyline class="mg" points="1007.61 939.07 1007.61 939.77 1010.44 939.77 1010.44 939.08"/>
    </g>
    <g id="fv" data-name="LWPOLYLINE">
      <rect class="mg" x="1282.58" y="848.58" width="2.83" height="5.67" transform="translate(-242.3 1061.07) rotate(-41.37)"/>
    </g>
    <g id="fw" data-name="LWPOLYLINE">
      <polyline class="mg" points="1285.44 853.91 1286.19 854.76 1287.04 854.02 1286.29 853.16"/>
    </g>
    <g id="fx" data-name="LINE">
      <line class="mg" x1="1286.62" y1="854.39" x2="1287.74" y2="855.67"/>
    </g>
    <g id="fy" data-name="LWPOLYLINE">
      <polyline class="mg" points="1286.21 856.08 1286.68 856.6 1288.8 854.73 1288.35 854.21"/>
    </g>
    <g id="fz" data-name="LWPOLYLINE">
      <rect class="mg" x="932.21" y="931.26" width="2.83" height="5.67"/>
    </g>
    <g id="ga" data-name="LWPOLYLINE">
      <polyline class="mg" points="933.06 936.93 933.06 938.07 934.19 938.07 934.19 936.93"/>
    </g>
    <g id="gb" data-name="LINE">
      <line class="mg" x1="933.62" y1="938.07" x2="933.62" y2="939.77"/>
    </g>
    <g id="gc" data-name="LWPOLYLINE">
      <polyline class="mg" points="932.21 939.07 932.21 939.77 935.04 939.77 935.04 939.08"/>
    </g>
    <g id="gd" data-name="LWPOLYLINE">
      <rect class="mg" x="817.69" y="931.26" width="2.83" height="5.67"/>
    </g>
    <g id="ge" data-name="LWPOLYLINE">
      <polyline class="mg" points="818.54 936.93 818.54 938.07 819.67 938.07 819.67 936.93"/>
    </g>
    <g id="gf" data-name="LINE">
      <line class="mg" x1="819.1" y1="938.07" x2="819.1" y2="939.77"/>
    </g>
    <g id="gg" data-name="LWPOLYLINE">
      <polyline class="mg" points="817.69 939.07 817.69 939.77 820.52 939.77 820.52 939.08"/>
    </g>
    <g id="gh" data-name="LWPOLYLINE">
      <rect class="mg" x="1280.3" y="823.55" width="5.67" height="2.83"/>
    </g>
    <g id="gi" data-name="LWPOLYLINE">
      <polyline class="mg" points="1285.97 825.53 1287.1 825.53 1287.1 824.4 1285.97 824.4"/>
    </g>
    <g id="gj" data-name="LINE">
      <line class="mg" x1="1287.1" y1="824.97" x2="1288.8" y2="824.97"/>
    </g>
    <g id="gk" data-name="LWPOLYLINE">
      <polyline class="mg" points="1288.1 826.38 1288.8 826.38 1288.8 823.55 1288.11 823.55"/>
    </g>
    <g id="gl" data-name="LWPOLYLINE">
      <rect class="mg" x="1280.3" y="682.1" width="5.67" height="2.83"/>
    </g>
    <g id="gm" data-name="LWPOLYLINE">
      <polyline class="mg" points="1285.97 684.08 1287.1 684.08 1287.1 682.95 1285.97 682.95"/>
    </g>
    <g id="gn" data-name="LINE">
      <line class="mg" x1="1287.1" y1="683.52" x2="1288.8" y2="683.52"/>
    </g>
    <g id="go" data-name="LWPOLYLINE">
      <polyline class="mg" points="1288.1 684.93 1288.8 684.93 1288.8 682.1 1288.11 682.1"/>
    </g>
    <g id="gp" data-name="LWPOLYLINE">
      <rect class="mg" x="1280.3" y="713.28" width="5.67" height="2.83"/>
    </g>
    <g id="gq" data-name="LWPOLYLINE">
      <polyline class="mg" points="1285.97 715.26 1287.1 715.26 1287.1 714.13 1285.97 714.13"/>
    </g>
    <g id="gr" data-name="LINE">
      <line class="mg" x1="1287.1" y1="714.7" x2="1288.8" y2="714.7"/>
    </g>
    <g id="gs" data-name="LWPOLYLINE">
      <polyline class="mg" points="1288.1 716.12 1288.8 716.12 1288.8 713.28 1288.11 713.28"/>
    </g>
    <g id="gt" data-name="LINE">
      <line class="mg" x1="851.7" y1="931.26" x2="932.21" y2="931.26"/>
    </g>
    <g id="gu" data-name="LINE">
      <line class="mg" x1="935.04" y1="931.26" x2="976.43" y2="931.26"/>
    </g>
    <g id="gv" data-name="LINE">
      <line class="mg" x1="851.7" y1="939.77" x2="932.21" y2="939.77"/>
    </g>
    <g id="gw" data-name="LINE">
      <line class="mg" x1="935.04" y1="939.77" x2="976.43" y2="939.77"/>
    </g>
    <g id="gx" data-name="LINE">
      <line class="mg" x1="1010.44" y1="931.26" x2="1160.68" y2="931.26"/>
    </g>
    <g id="gy" data-name="LINE">
      <line class="mg" x1="1010.44" y1="939.77" x2="1160.68" y2="939.77"/>
    </g>
    <g id="gz" data-name="LINE">
      <line class="mg" x1="1188.37" y1="931.51" x2="1281.06" y2="850.22"/>
    </g>
    <g id="ha" data-name="LINE">
      <line class="mg" x1="1286.68" y1="856.6" x2="1193.99" y2="937.9"/>
    </g>
    <g id="hb" data-name="LINE">
      <line class="mg" x1="702.88" y1="931.26" x2="817.69" y2="931.26"/>
    </g>
    <g id="hc" data-name="LINE">
      <line class="mg" x1="694.38" y1="939.77" x2="817.69" y2="939.77"/>
    </g>
    <g id="hd" data-name="LINE">
      <line class="mg" x1="1280.3" y1="682.1" x2="1280.3" y2="574.1"/>
    </g>
    <g id="he" data-name="LINE">
      <line class="mg" x1="1288.8" y1="682.1" x2="1288.8" y2="574.1"/>
    </g>
    <g id="hf" data-name="LINE">
      <line class="mg" x1="1280.3" y1="823.55" x2="1280.3" y2="716.12"/>
    </g>
    <g id="hg" data-name="LINE">
      <line class="mg" x1="1288.8" y1="823.55" x2="1288.8" y2="716.12"/>
    </g>
    <g id="hh" data-name="LWPOLYLINE">
      <g>
        <line class="lz" x1="829.59" y1="710.16" x2="830.59" y2="710.16"/>
        <line class="mo" x1="831.59" y1="710.16" x2="879.11" y2="710.16"/>
        <polyline class="lz" points="879.61 710.16 880.61 710.16 880.61 710.73 879.61 710.73"/>
        <line class="mo" x1="878.61" y1="710.73" x2="831.09" y2="710.73"/>
        <line class="lz" x1="830.59" y1="710.73" x2="829.59" y2="710.73"/>
      </g>
    </g>
    <g id="hi" data-name="ARC">
      <g>
        <path class="lz" d="M829.59,761.19c.33,0,.67,0,1,0"/>
        <path class="mc" d="M831.58,761.15c26.76-1.03,48.24-22.66,49.01-49.49"/>
        <path class="lz" d="M880.61,711.16c0-.33,0-.67,0-1"/>
      </g>
    </g>
    <g id="hj" data-name="LWPOLYLINE">
      <g>
        <polyline class="lz" points="828.02 636.46 829.02 636.46 829.02 638.16 828.02 638.16"/>
        <line class="mj" x1="827.01" y1="638.16" x2="790.85" y2="638.16"/>
        <polyline class="lz" points="790.34 638.16 789.34 638.16 789.34 636.46 790.34 636.46"/>
        <line class="mj" x1="791.36" y1="636.46" x2="827.52" y2="636.46"/>
      </g>
    </g>
    <g id="hk" data-name="ARC">
      <g>
        <path class="lz" d="M789.34,636.46c0,.33,0,.67.01,1"/>
        <path class="mr" d="M789.39,638.45c1.01,20.5,17.58,36.91,38.14,37.67"/>
        <path class="lz" d="M828.02,676.13c.33,0,.67.01,1,.01"/>
      </g>
    </g>
    <g id="hl" data-name="LWPOLYLINE">
      <g>
        <polyline class="lz" points="961.39 618.95 962.25 619.45 961.4 620.93 960.54 620.43"/>
        <line class="mw" x1="959.64" y1="619.91" x2="933.26" y2="604.68"/>
        <polyline class="lz" points="932.81 604.42 931.94 603.92 932.79 602.45 933.66 602.95"/>
        <line class="mw" x1="934.55" y1="603.46" x2="960.94" y2="618.7"/>
      </g>
    </g>
    <g id="hm" data-name="ARC">
      <g>
        <path class="lz" d="M932.79,602.45c-.17.29-.33.58-.49.88"/>
        <path class="mt" d="M931.85,604.2c-2.15,4.28-3.37,8.98-3.58,13.77"/>
        <path class="lz" d="M928.25,618.45c0,.33-.01.67-.01,1"/>
      </g>
    </g>
    <g id="hn" data-name="LWPOLYLINE">
      <g>
        <polyline class="lz" points="792.17 618.45 792.17 619.45 793.87 619.45 793.87 618.45"/>
        <line class="mw" x1="793.87" y1="617.42" x2="793.87" y2="586.95"/>
        <polyline class="lz" points="793.87 586.44 793.87 585.44 792.17 585.44 792.17 586.44"/>
        <line class="mw" x1="792.17" y1="587.47" x2="792.17" y2="617.94"/>
      </g>
    </g>
    <g id="ho" data-name="ARC">
      <g>
        <path class="lz" d="M826.19,619.45c0-.33,0-.67-.01-1"/>
        <path class="mu" d="M826.13,617.47c-1-17.37-15.03-31.24-32.46-32"/>
        <path class="lz" d="M793.17,585.45c-.33,0-.67-.01-1-.01"/>
      </g>
    </g>
    <g id="hp" data-name="LWPOLYLINE">
      <polyline class="lz" points="781.92 818.94 751.67 811.37 748.77 815.66 747.7 805.36 744.8 809.65 714.55 802.08"/>
    </g>
    <g id="hq" data-name="CIRCLE">
      <circle class="lz" cx="775.17" cy="663.11" r="1.42"/>
    </g>
    <g id="hr" data-name="LWPOLYLINE">
      <polyline class="lz" points="748.24 800.3 748.24 663.11 775.17 663.11"/>
    </g>
    <g id="hs" data-name="LWPOLYLINE">
      <polyline class="lz" points="748.24 820.71 748.24 884.49 750.03 886.48 775.17 886.48"/>
    </g>
    <g id="ht" data-name="LWPOLYLINE">
      <polyline class="lz" points="751.44 797.1 748.24 800.3 745.03 797.1"/>
    </g>
    <g id="hu" data-name="LWPOLYLINE">
      <polyline class="lz" points="751.44 823.92 748.24 820.71 745.03 823.92"/>
    </g>
    <g id="hv" data-name="CIRCLE">
      <circle class="lz" cx="775.17" cy="886.48" r="1.42"/>
    </g>
    <g id="hw" data-name="LWPOLYLINE">
      <path class="lz" d="M904.16,683.57h-9.13v2.72h9.13c.75,0,1.36-.61,1.36-1.36s-.61-1.36-1.36-1.36Z"/>
    </g>
    <g id="hx" data-name="LWPOLYLINE">
      <polyline class="lz" points="900.7 686.29 900.7 701.66 933.58 701.66 933.58 678.98 900.7 678.98 900.7 683.57"/>
    </g>
    <g id="hy" data-name="LINE">
      <line class="lz" x1="834.64" y1="676.15" x2="885.66" y2="676.15"/>
    </g>
    <g id="hz" data-name="LWPOLYLINE">
      <rect class="lz" x="845.83" y="686.38" width="8.5" height="2.27"/>
    </g>
    <g id="ia" data-name="LWPOLYLINE">
      <path class="lz" d="M889.4,638.23h28.63v24.38h-28.63c-6.73,0-12.19-5.46-12.19-12.19s5.46-12.19,12.19-12.19Z"/>
    </g>
    <g id="ib" data-name="LWPOLYLINE">
      <polyline class="lz" points="848.67 686.38 848.67 677.88 877.01 677.88 877.01 697.15 848.67 697.15 848.67 688.65"/>
    </g>
    <g id="ic" data-name="LINE">
      <line class="lz" x1="999.1" y1="633.63" x2="999.1" y2="667.64"/>
    </g>
    <g id="id" data-name="LWPOLYLINE">
      <polyline class="lz" points="984.93 581.47 687.58 581.47 687.58 619.45"/>
    </g>
    <g id="ie" data-name="LWPOLYLINE">
      <polyline class="lz" points="984.93 583.17 689.28 583.17 689.28 619.45"/>
    </g>
    <g id="if" data-name="LINE">
      <line class="lz" x1="829.02" y1="914.26" x2="721.31" y2="914.26"/>
    </g>
    <g id="ig" data-name="LINE">
      <line class="lz" x1="721.31" y1="914.26" x2="721.31" y2="633.63"/>
    </g>
    <g id="ih" data-name="LINE">
      <line class="lz" x1="709.97" y1="633.63" x2="709.97" y2="914.26"/>
    </g>
    <g id="ii" data-name="LINE">
      <line class="lz" x1="891.39" y1="704.49" x2="986.35" y2="704.49"/>
    </g>
    <g id="ij" data-name="LINE">
      <line class="lz" x1="1263.29" y1="590.43" x2="999.1" y2="590.43"/>
    </g>
    <g id="ik" data-name="LINE">
      <line class="lz" x1="1263.97" y1="591.11" x2="1263.97" y2="693.15"/>
    </g>
    <g id="il" data-name="LINE">
      <line class="lz" x1="829.02" y1="925.6" x2="721.31" y2="925.6"/>
    </g>
    <g id="im" data-name="LINE">
      <line class="lz" x1="1273.95" y1="591.11" x2="1273.95" y2="693.15"/>
    </g>
    <g id="in" data-name="LINE">
      <line class="lz" x1="1263.29" y1="580.45" x2="999.1" y2="580.45"/>
    </g>
    <g id="io" data-name="LINE">
      <line class="lz" x1="1277.47" y1="684.93" x2="1277.47" y2="576.93"/>
    </g>
    <g id="ip" data-name="LINE">
      <line class="lz" x1="1263.97" y1="642.13" x2="1273.95" y2="642.13"/>
    </g>
    <g id="iq" data-name="LINE">
      <line class="lz" x1="1131.2" y1="590.43" x2="1131.2" y2="580.45"/>
    </g>
    <g id="ir" data-name="LINE">
      <line class="lz" x1="775.17" y1="925.6" x2="775.17" y2="914.26"/>
    </g>
    <g id="is" data-name="LINE">
      <line class="lz" x1="709.97" y1="773.94" x2="721.31" y2="773.94"/>
    </g>
    <g id="it" data-name="LINE">
      <line class="lz" x1="979.26" y1="928.43" x2="848.87" y2="928.43"/>
    </g>
    <g id="iu" data-name="LINE">
      <line class="lz" x1="1007.61" y1="928.43" x2="1163.51" y2="928.43"/>
    </g>
    <g id="iv" data-name="LINE">
      <line class="lz" x1="1277.47" y1="826.38" x2="1277.47" y2="713.28"/>
    </g>
    <g id="iw" data-name="LINE">
      <line class="lz" x1="1187.58" y1="928.43" x2="1277.47" y2="849.6"/>
    </g>
    <g id="ix" data-name="LWPOLYLINE">
      <rect class="mq" x="829.02" y="622.29" width="11.34" height="11.34"/>
    </g>
    <g id="iy" data-name="LWPOLYLINE">
      <rect class="mq" x="829.7" y="622.97" width="9.98" height="9.98"/>
    </g>
    <g id="iz" data-name="LWPOLYLINE">
      <rect class="mq" x="987.76" y="914.26" width="11.34" height="11.34"/>
    </g>
    <g id="ja" data-name="LWPOLYLINE">
      <rect class="mq" x="988.44" y="914.94" width="9.98" height="9.98"/>
    </g>
    <g id="jb" data-name="LWPOLYLINE">
      <rect class="mq" x="1172.02" y="914.26" width="11.34" height="11.34"/>
    </g>
    <g id="jc" data-name="LWPOLYLINE">
      <rect class="mq" x="1172.7" y="914.94" width="9.98" height="9.98"/>
    </g>
    <g id="jd" data-name="LWPOLYLINE">
      <rect class="mq" x="1263.29" y="834.89" width="11.34" height="11.34"/>
    </g>
    <g id="je" data-name="LWPOLYLINE">
      <rect class="mq" x="1263.97" y="835.57" width="9.98" height="9.98"/>
    </g>
    <g id="jf" data-name="LWPOLYLINE">
      <rect class="mq" x="1263.29" y="693.15" width="11.34" height="11.34"/>
    </g>
    <g id="jg" data-name="LWPOLYLINE">
      <rect class="mq" x="1263.97" y="693.83" width="9.98" height="9.98"/>
    </g>
    <g id="jh" data-name="LWPOLYLINE">
      <rect class="mq" x="1263.29" y="579.77" width="11.34" height="11.34"/>
    </g>
    <g id="ji" data-name="LWPOLYLINE">
      <rect class="mq" x="1263.97" y="580.45" width="9.98" height="9.98"/>
    </g>
    <g id="jj" data-name="LWPOLYLINE">
      <rect class="mq" x="987.76" y="579.77" width="11.34" height="11.34"/>
    </g>
    <g id="jk" data-name="LWPOLYLINE">
      <rect class="mq" x="988.44" y="580.45" width="9.98" height="9.98"/>
    </g>
    <g id="jl" data-name="LWPOLYLINE">
      <rect class="mq" x="986.35" y="691.74" width="14.17" height="14.17"/>
    </g>
    <g id="jm" data-name="LWPOLYLINE">
      <rect class="mq" x="987.03" y="692.42" width="12.81" height="12.81"/>
    </g>
    <g id="jn" data-name="LWPOLYLINE">
      <rect class="mq" x="829.02" y="693.15" width="11.34" height="11.34"/>
    </g>
    <g id="jo" data-name="LWPOLYLINE">
      <rect class="mq" x="829.7" y="693.83" width="9.98" height="9.98"/>
    </g>
    <g id="jp" data-name="LWPOLYLINE">
      <rect class="mq" x="709.97" y="622.29" width="11.34" height="11.34"/>
    </g>
    <g id="jq" data-name="LWPOLYLINE">
      <rect class="mq" x="710.65" y="622.97" width="9.98" height="9.98"/>
    </g>
    <g id="jr" data-name="LWPOLYLINE">
      <rect class="mq" x="709.97" y="914.26" width="11.34" height="11.34"/>
    </g>
    <g id="js" data-name="LWPOLYLINE">
      <rect class="mq" x="710.65" y="914.94" width="9.98" height="9.98"/>
    </g>
    <g id="jt" data-name="LWPOLYLINE">
      <rect class="mq" x="829.02" y="914.26" width="11.34" height="11.34"/>
    </g>
    <g id="ju" data-name="LWPOLYLINE">
      <rect class="mq" x="829.7" y="914.94" width="9.98" height="9.98"/>
    </g>
    <g id="jv" data-name="LWPOLYLINE">
      <rect class="mq" x="979.26" y="939.77" width="28.35" height="14.17"/>
    </g>
    <g id="jw" data-name="LWPOLYLINE">
      <rect class="mq" x="1163.51" y="939.77" width="28.35" height="14.17"/>
    </g>
    <g id="jx" data-name="LWPOLYLINE">
      <rect class="mq" x="820.52" y="939.77" width="28.35" height="14.17"/>
    </g>
    <g id="jy" data-name="LWPOLYLINE">
      <rect class="mq" x="1288.8" y="826.38" width="14.17" height="28.35"/>
    </g>
    <g id="jz" data-name="LWPOLYLINE">
      <rect class="mq" x="1288.8" y="684.93" width="14.17" height="28.35"/>
    </g>
    <g id="ka" data-name="LINE">
      <line class="ma" x1="721.31" y1="622.29" x2="789.34" y2="622.29"/>
    </g>
    <g id="kb" data-name="LINE">
      <line class="ma" x1="789.34" y1="627.96" x2="721.31" y2="627.96"/>
    </g>
    <g id="kc" data-name="LINE">
      <line class="ma" x1="709.97" y1="622.29" x2="702.88" y2="622.29"/>
    </g>
    <g id="kd" data-name="LINE">
      <line class="ma" x1="709.97" y1="627.96" x2="702.88" y2="627.96"/>
    </g>
    <g id="ke" data-name="LWPOLYLINE">
      <polyline class="ma" points="987.76 591.11 987.76 622.29 965.09 622.29"/>
    </g>
    <g id="kf" data-name="LWPOLYLINE">
      <polyline class="ma" points="993.43 591.11 993.43 627.96 965.09 627.96"/>
    </g>
    <g id="kg" data-name="LINE">
      <line class="ma" x1="840.36" y1="622.29" x2="925.4" y2="622.29"/>
    </g>
    <g id="kh" data-name="LINE">
      <line class="ma" x1="840.36" y1="627.96" x2="925.4" y2="627.96"/>
    </g>
    <g id="ki" data-name="LWPOLYLINE">
      <polyline class="ma" points="987.76 579.77 987.76 565.6 1288.8 565.6"/>
    </g>
    <g id="kj" data-name="LWPOLYLINE">
      <polyline class="ma" points="993.43 579.77 993.43 571.26 1280.3 571.26"/>
    </g>
    <g id="kk" data-name="LWPOLYLINE">
      <rect class="mb" x="691.54" y="622.29" width="11.34" height="308.98"/>
    </g>
    <g id="kl" data-name="LWPOLYLINE">
      <rect class="mb" x="1280.87" y="686.63" width="7.94" height="24.94"/>
    </g>
    <g id="km" data-name="LWPOLYLINE">
      <rect class="mb" x="980.96" y="931.83" width="24.94" height="7.94"/>
    </g>
    <g id="kn" data-name="LWPOLYLINE">
      <rect class="mb" x="822.22" y="931.83" width="24.94" height="7.94"/>
    </g>
    <g id="ko" data-name="LWPOLYLINE">
      <rect class="mb" x="1165.22" y="931.83" width="21.03" height="7.94"/>
    </g>
    <g id="kp" data-name="LWPOLYLINE">
      <rect class="mb" x="1280.87" y="828.08" width="7.94" height="20.26"/>
    </g>
    <g id="kq" data-name="LINE">
      <line class="ms" x1="829.02" y1="678.98" x2="829.02" y2="693.15"/>
    </g>
    <g id="kr" data-name="LINE">
      <line class="ms" x1="834.69" y1="678.98" x2="834.69" y2="693.15"/>
    </g>
    <g id="ks" data-name="LWPOLYLINE">
      <polyline class="ms" points="840.36 704.49 891.39 704.49 891.39 673.31 986.35 673.31 986.35 691.74"/>
    </g>
    <g id="kt" data-name="LWPOLYLINE">
      <polyline class="ms" points="925.4 627.96 925.4 667.64 965.09 667.64 965.09 627.96"/>
    </g>
    <g id="ku" data-name="LWPOLYLINE">
      <polyline class="ms" points="999.1 591.11 999.1 633.63 970.76 633.63 970.76 667.64 999.1 667.64 999.1 691.74"/>
    </g>
    <g id="kv" data-name="LINE">
      <line class="ms" x1="829.02" y1="619.45" x2="925.4" y2="619.45"/>
    </g>
    <g id="kw" data-name="LWPOLYLINE">
      <polyline class="ms" points="840.36 633.63 919.73 633.63 919.73 667.64 885.72 667.64 885.72 698.82 840.36 698.82"/>
    </g>
    <g id="kx" data-name="LINE">
      <line class="ms" x1="789.34" y1="633.63" x2="721.31" y2="633.63"/>
    </g>
    <g id="ky" data-name="LINE">
      <line class="ms" x1="709.97" y1="633.63" x2="702.88" y2="633.63"/>
    </g>
    <g id="kz" data-name="LWPOLYLINE">
      <polyline class="ms" points="999.1 579.77 999.1 576.93 1280.3 576.93 1280.3 571.26 1288.8 571.26 1288.8 562.76 984.93 562.76 984.93 619.45 965.09 619.45"/>
    </g>
    <g id="la" data-name="LWPOLYLINE">
      <polyline class="ms" points="789.34 619.45 685.87 619.45 685.87 939.77 691.54 939.77 691.54 931.26"/>
    </g>
    <g id="lb" data-name="LWPOLYLINE">
      <polyline class="ms" points="1007.61 939.77 1007.61 928.43 979.26 928.43 979.26 939.77"/>
    </g>
    <g id="lc" data-name="LWPOLYLINE">
      <polyline class="ms" points="1288.8 713.28 1277.47 713.28 1277.47 684.93 1288.8 684.93"/>
    </g>
    <g id="ld" data-name="LWPOLYLINE">
      <polyline class="ms" points="848.87 939.77 848.87 928.43 820.52 928.43 820.52 939.77"/>
    </g>
    <g id="le" data-name="LWPOLYLINE">
      <polyline class="ms" points="1288.8 826.38 1277.47 826.38 1277.47 849.6 1281.76 849.6"/>
    </g>
    <g id="lf" data-name="LWPOLYLINE">
      <polyline class="ms" points="1187.58 932.2 1187.58 928.43 1163.51 928.43 1163.51 939.77"/>
    </g>
  </g>
  <g id="ll" data-name="SCALE">
    <g>
      <g id="lm" data-name="CIRCLE">
        <circle class="lz" cx="214.88" cy="1280.43" r="14.88"/>
      </g>
      <g id="ln" data-name="TEXT">
        <path class="mf" d="M224.5,1264.9l-.86-.35-1.27-8.05-2.62,6.47-.84-.34,3.28-8.1.87.35,1.26,8.02,2.61-6.45.84.34-3.28,8.1Z"/>
      </g>
      <g id="lo" data-name="HATCH">
        <path class="ly" d="M220.46,1266.63c-.23-.09-.46-.18-.7-.26l-5.57,13.78.69.28,5.58-13.8Z"/>
      </g>
      <g id="lp" data-name="HATCH">
        <path class="ly" d="M221.15,1266.93c-.23-.1-.45-.2-.69-.3l-5.58,13.8.69.28,5.57-13.78Z"/>
      </g>
      <g id="lq" data-name="LINE">
        <line class="ml" x1="219.76" y1="1266.37" x2="214.19" y2="1280.14"/>
      </g>
      <g id="lr" data-name="LINE">
        <line class="ml" x1="221.15" y1="1266.93" x2="215.57" y2="1280.71"/>
      </g>
      <g id="ls" data-name="LINE">
        <line class="ml" x1="214.88" y1="1280.43" x2="220.46" y2="1266.63"/>
      </g>
      <g id="lt" data-name="MTEXT">
        <path class="mf" d="M281.36,1295.9c-.63-.5-1.13-1.2-1.49-2.1-.36-.9-.54-1.92-.54-3.06s.18-2.14.54-3.04c.36-.9.85-1.59,1.49-2.1.63-.5,1.36-.75,2.17-.75s1.53.25,2.17.75c.63.5,1.13,1.2,1.49,2.1.36.9.54,1.91.54,3.04s-.18,2.16-.54,3.05c-.36.89-.85,1.59-1.49,2.1s-1.36.76-2.17.76-1.53-.25-2.17-.75ZM285.01,1294.86c.44-.41.78-.96,1.02-1.67.24-.71.36-1.52.36-2.44s-.12-1.73-.36-2.45c-.24-.71-.58-1.27-1.02-1.67-.44-.4-.93-.6-1.49-.6s-1.05.2-1.48.6c-.43.4-.77.96-1.02,1.67-.25.71-.37,1.53-.37,2.43s.12,1.75.37,2.46c.25.71.58,1.27,1.02,1.67s.93.61,1.48.61,1.05-.2,1.49-.61Z"/>
      </g>
      <g id="lu" data-name="MTEXT">
        <path class="mf" d="M393.68,1294.72c.19-.17.42-.38.71-.64.93-.85,1.67-1.57,2.24-2.15.57-.58,1.05-1.17,1.44-1.78s.59-1.16.59-1.67c0-.48-.09-.9-.28-1.27s-.45-.66-.78-.86-.71-.31-1.15-.31c-.47,0-.93.16-1.37.48-.44.32-.78.73-1,1.23l-1.2-.51c.3-.7.78-1.28,1.46-1.73.67-.45,1.38-.67,2.11-.67.69,0,1.31.16,1.85.46.54.31.96.74,1.26,1.29.3.55.45,1.18.45,1.9s-.22,1.41-.67,2.14c-.45.73-.98,1.41-1.6,2.04-.62.63-1.42,1.39-2.42,2.27-.49.45-.95.88-1.39,1.3l-.94-.85c.28-.27.51-.49.7-.66ZM392.98,1295.38h7.22v1.18h-7.04l-.18-1.18Z"/>
      </g>
      <g id="lv" data-name="MTEXT">
        <path class="mf" d="M340.34,1296.54h-1.34v-10.08l-1.86,1.2-.67-1.07,2.54-1.62h1.33v11.57Z"/>
      </g>
      <g id="lw" data-name="MTEXT">
        <g>
          <path class="mf" d="M558.55,1289.31c.55-.25,1.08-.38,1.59-.38.77,0,1.45.16,2.06.49.6.33,1.07.78,1.41,1.35s.5,1.24.5,1.98-.17,1.43-.5,2.02-.8,1.05-1.4,1.38-1.29.5-2.07.5c-.6,0-1.16-.12-1.69-.38-.53-.25-.98-.6-1.34-1.05-.37-.45-.62-.95-.74-1.52l1.3-.3c.13.59.42,1.06.89,1.43.46.37.99.55,1.59.55.5,0,.95-.11,1.35-.34.4-.22.71-.54.94-.94.23-.41.34-.86.34-1.36s-.11-.95-.34-1.34c-.23-.39-.54-.69-.94-.91-.4-.22-.85-.33-1.35-.33-.33,0-.68.09-1.04.26-.36.18-.66.4-.9.68l-.99-.86c.34-.38.79-.7,1.34-.95ZM556.87,1290.93l.37-6.03h5.92v1.18h-4.64l-.32,5.04-1.33-.19Z"/>
          <path class="mf" d="M575.28,1290.76c-.29-.34-.67-.5-1.13-.5-.35,0-.66.07-.94.22-.27.14-.49.34-.65.6-.16.26-.24.55-.24.88v4.58h-1.33v-4.45c0-.54-.14-.98-.43-1.32s-.66-.5-1.12-.5c-.34,0-.65.09-.94.26s-.5.42-.66.72c-.15.3-.23.63-.23.98v4.3h-1.33v-7.46h1.33v1.31l-.14-.05c.22-.37.52-.68.9-.91.37-.23.75-.35,1.14-.35.46,0,.9.13,1.32.38.42.26.74.59.95.99.25-.41.59-.74,1.04-.99.45-.26.9-.38,1.36-.38.55,0,1.05.13,1.49.38.44.25.78.59,1.02,1.02.25.43.37.93.37,1.5v4.56h-1.34v-4.45c0-.54-.15-.98-.44-1.32Z"/>
        </g>
      </g>
      <g id="lx" data-name="LWPOLYLINE">
        <polyline class="lz" points="566.32 1280.89 566.32 1263.88 396.24 1263.88 396.24 1280.89 339.55 1280.89 339.55 1263.88 282.85 1263.88 282.85 1280.89"/>
      </g>
    </g>
    <path class="me" d="M755.15,605.35c.17-.16.37-.35.58-.56.72-.68,1.3-1.25,1.73-1.7.44-.46.81-.93,1.12-1.43.31-.5.47-.96.47-1.38s-.08-.77-.24-1.09c-.16-.32-.38-.57-.67-.75-.28-.18-.61-.27-.97-.27-.4,0-.78.14-1.15.41-.36.28-.64.63-.82,1.06l-.54-.23c.22-.52.57-.94,1.03-1.27.46-.33.96-.49,1.48-.49.47,0,.89.11,1.26.34s.66.54.87.94c.21.4.32.85.32,1.36s-.16,1.01-.49,1.55-.72,1.05-1.18,1.54c-.46.48-1.06,1.07-1.79,1.76-.5.47-.89.84-1.16,1.12l-.41-.34c.2-.21.39-.39.56-.56ZM754.6,605.91h5.16v.5h-5.09l-.07-.5Z"/>
    <g>
      <g>
        <path class="me" d="M1769.61,1251.04v2.45c0,.78-.16,1.57-.48,2.34-.32.78-.74,1.48-1.26,2.09s-1.06,1.09-1.62,1.41l-.42-.53c.52-.28,1.04-.7,1.54-1.27s.92-1.21,1.23-1.93c.32-.71.48-1.42.48-2.12v-2.45h.53ZM1769.69,1251.04v2.45c0,.67.16,1.35.48,2.04.32.69.74,1.3,1.24,1.84.5.54,1.02.95,1.55,1.22l-.42.5c-.57-.31-1.11-.76-1.63-1.34-.52-.59-.94-1.26-1.27-2-.33-.75-.49-1.5-.49-2.25v-2.45h.53ZM1775.08,1249.9v12.08h-.64v-12.08h.64ZM1777.24,1254.97v.57h-2.31v-.57h2.31Z"/>
        <path class="me" d="M1789.11,1257.11v.56h-10.95v-.56h10.95ZM1787.61,1250.64v4.58h-7.97v-4.58h7.97ZM1780.28,1251.19v3.51h6.71v-3.51h-6.71ZM1783.93,1257.42v4.56h-.63v-4.56h.63Z"/>
        <path class="me" d="M1794.32,1250.31v.92c0,.72-.15,1.4-.46,2.03-.31.63-.72,1.19-1.23,1.67-.51.48-1.08.84-1.69,1.11l-.35-.53c.57-.21,1.1-.54,1.58-.97.49-.43.88-.93,1.17-1.5.29-.57.44-1.17.44-1.8v-.92h.54ZM1800.19,1256.93v2.63h-6.96v1.97h-.62v-2.49h6.94v-1.55h-6.99v-.56h7.62ZM1800.67,1261.26v.55h-8.06v-.55h8.06ZM1794.4,1250.31v.92c0,.59.15,1.16.45,1.7.3.55.7,1.02,1.19,1.42.49.4,1.02.71,1.58.92l-.34.52c-.62-.24-1.2-.59-1.71-1.04s-.93-.97-1.24-1.58c-.31-.61-.46-1.25-.46-1.95v-.92h.53ZM1800.19,1249.9v6.36h-.64v-6.36h.64Z"/>
        <path class="me" d="M1767.2,1268.38v1.96h4.16v-1.96h.63v5.25h-5.43v-5.25h.64ZM1767.2,1273.07h4.16v-2.18h-4.16v2.18ZM1775.22,1274.87v2.66h-6.78v2.09h-.63v-2.6h6.78v-1.6h-6.82v-.55h7.45ZM1775.71,1279.26v.55h-7.9v-.55h7.9ZM1775.22,1267.9v6.3h-.64v-6.3h.64ZM1777.13,1270.7v.56h-2.24v-.56h2.24Z"/>
        <path class="me" d="M1789.07,1277.58v.56h-10.91v-.56h10.91ZM1787.14,1272.59l-7.8.46-.11-.6,7.91-.36v.5ZM1787.22,1269.2v.56h-7.7v-.56h7.7ZM1783.33,1274.29v3.5h-.64v-3.5h.64ZM1787.57,1269.2v1.2c0,1.01-.03,1.91-.08,2.7-.05.79-.18,1.71-.38,2.76l-.64-.1c.21-1,.34-1.89.39-2.67.06-.78.08-1.68.08-2.69v-1.2h.63Z"/>
        <path class="me" d="M1791.9,1269.12v7.45h-.63v-7.45h.63ZM1798.03,1275.59l.1.59c-1.04.21-2.03.35-2.99.45-.96.09-1.94.14-2.95.14h-.92v-.57h.92c2.04,0,3.99-.2,5.84-.6ZM1800.13,1267.9v12.08h-.63v-12.08h.63Z"/>
        <path class="me" d="M1770.53,1290.45c-.34.95-.85,1.84-1.53,2.67-.69.83-1.54,1.57-2.57,2.19l-.39-.5c.94-.57,1.74-1.24,2.39-2,.65-.76,1.15-1.59,1.48-2.47.33-.88.5-1.79.5-2.72v-.1h.63c0,1.01-.17,1.99-.5,2.93ZM1770.73,1287.51v.56h-4.28v-.56h4.28ZM1773.47,1292.43v.55h-2.95v-.55h2.95ZM1773.47,1289.39v.55h-2.84v-.55h2.84ZM1773.71,1286.25v11.05h-.63v-11.05h.63ZM1776.09,1285.9v12.08h-.64v-12.08h.64Z"/>
        <path class="me" d="M1784.1,1286.99v.57h-4.63v4.56h-.64v-5.14h5.28ZM1782.8,1291.75c.82-.06,1.64-.17,2.47-.34l.1.56c-.88.17-1.73.29-2.56.35-.83.07-1.87.1-3.11.1h-.88v-.57h.88c1.25,0,2.28-.03,3.1-.09ZM1780.78,1293.81v3.5h-.64v-3.5h.64ZM1788.08,1297.1v.56h-7.94v-.56h7.94ZM1787.46,1285.89v8.76h-.64v-8.76h.64ZM1789.38,1289.7v.55h-2.16v-.55h2.16Z"/>
        <path class="me" d="M1794.32,1286.31v.92c0,.72-.15,1.4-.46,2.03-.31.63-.72,1.19-1.23,1.67-.51.48-1.08.84-1.69,1.11l-.35-.53c.57-.21,1.1-.54,1.58-.97.49-.43.88-.93,1.17-1.5.29-.57.44-1.17.44-1.8v-.92h.54ZM1800.19,1292.93v2.63h-6.96v1.97h-.62v-2.49h6.94v-1.55h-6.99v-.56h7.62ZM1800.67,1297.26v.55h-8.06v-.55h8.06ZM1794.4,1286.31v.92c0,.59.15,1.16.45,1.7.3.55.7,1.02,1.19,1.42.49.4,1.02.71,1.58.92l-.34.52c-.62-.24-1.2-.59-1.71-1.04s-.93-.97-1.24-1.58c-.31-.61-.46-1.25-.46-1.95v-.92h.53ZM1800.19,1285.9v6.36h-.64v-6.36h.64Z"/>
        <path class="me" d="M1769.97,1312.81c1.27-.05,2.46-.15,3.58-.32l.06.5c-1.17.2-2.37.32-3.61.38-1.24.06-2.6.09-4.07.09l-.14-.59c1.52,0,2.92-.02,4.19-.07ZM1773.28,1305.47v.55h-7.29v-.55h7.29ZM1771.09,1307.16c.42.18.74.44.97.78s.35.73.35,1.18-.12.82-.35,1.15c-.23.33-.56.59-.97.77-.42.18-.9.27-1.45.27s-1.03-.09-1.45-.27c-.42-.18-.74-.44-.97-.77-.23-.33-.34-.72-.34-1.15s.12-.84.34-1.18.55-.59.97-.78c.42-.18.9-.27,1.45-.27s1.03.09,1.45.27ZM1768.08,1307.88c-.4.31-.59.72-.59,1.21s.2.9.59,1.2.92.46,1.56.46,1.17-.15,1.56-.46.59-.71.59-1.2-.2-.9-.59-1.21-.92-.47-1.56-.47-1.16.16-1.56.47ZM1769.97,1303.89v1.85h-.66v-1.85h.66ZM1769.97,1311.14v1.96h-.66v-1.96h.66ZM1775.03,1303.9v12.08h-.64v-12.08h.64ZM1777.17,1309.19v.57h-2.3v-.57h2.3Z"/>
        <path class="me" d="M1781.89,1305.16v1.13c0,.7-.15,1.35-.44,1.96s-.7,1.13-1.2,1.58-1.07.78-1.69,1.01l-.34-.52c.57-.21,1.09-.51,1.57-.9s.86-.87,1.15-1.41c.29-.54.43-1.12.43-1.72v-1.13h.52ZM1784.87,1304.85v.56h-6.41v-.56h6.41ZM1785.74,1311.92c.58.16,1.03.4,1.34.72s.47.7.47,1.15c0,.68-.34,1.21-1.03,1.59s-1.64.57-2.86.57c-.8,0-1.5-.08-2.08-.25-.58-.17-1.03-.42-1.34-.74-.31-.33-.46-.71-.46-1.16s.15-.83.46-1.15.75-.56,1.34-.72c.58-.16,1.28-.25,2.08-.25s1.5.08,2.08.25ZM1781.95,1312.41c-.49.13-.87.31-1.13.55s-.4.51-.4.83c0,.49.29.89.88,1.18s1.38.43,2.37.43,1.78-.14,2.37-.43.89-.68.89-1.18c0-.32-.14-.59-.41-.83-.27-.23-.65-.42-1.14-.55-.49-.13-1.06-.2-1.72-.2s-1.22.07-1.71.2ZM1781.99,1305.16v1.12c0,.54.14,1.06.41,1.56.28.5.64.94,1.11,1.31.46.37.97.66,1.52.87l-.31.5c-.61-.22-1.16-.55-1.65-.97-.49-.42-.89-.91-1.18-1.47s-.43-1.16-.43-1.81v-1.12h.53ZM1787.45,1303.9v7.36h-.64v-7.36h.64ZM1789.36,1307.18v.56h-2.1v-.56h2.1Z"/>
        <path class="me" d="M1794.32,1304.31v.92c0,.72-.15,1.4-.46,2.03-.31.63-.72,1.19-1.23,1.67-.51.48-1.08.84-1.69,1.11l-.35-.53c.57-.21,1.1-.54,1.58-.97.49-.43.88-.93,1.17-1.5.29-.57.44-1.17.44-1.8v-.92h.54ZM1800.19,1310.93v2.63h-6.96v1.97h-.62v-2.49h6.94v-1.55h-6.99v-.56h7.62ZM1800.67,1315.26v.55h-8.06v-.55h8.06ZM1794.4,1304.31v.92c0,.59.15,1.16.45,1.7.3.55.7,1.02,1.19,1.42.49.4,1.02.71,1.58.92l-.34.52c-.62-.24-1.2-.59-1.71-1.04s-.93-.97-1.24-1.58c-.31-.61-.46-1.25-.46-1.95v-.92h.53ZM1800.19,1303.9v6.36h-.64v-6.36h.64Z"/>
      </g>
      <g>
        <path class="me" d="M1755.03,1261.05h-.67v-9.35l-1.26.87-.36-.49,1.62-1.13h.67v10.11Z"/>
        <path class="me" d="M1751.93,1277.81c.2-.19.43-.41.68-.65.84-.79,1.51-1.46,2.02-1.99.51-.53.94-1.09,1.31-1.67s.55-1.12.55-1.61-.09-.9-.28-1.27-.45-.67-.78-.88c-.33-.21-.71-.32-1.13-.32-.47,0-.91.16-1.34.48-.42.32-.75.73-.96,1.24l-.63-.27c.26-.61.66-1.1,1.2-1.48.54-.38,1.12-.57,1.72-.57.55,0,1.04.13,1.47.39.43.26.77.63,1.01,1.09.25.47.37.99.37,1.58s-.19,1.18-.57,1.81-.84,1.23-1.38,1.79c-.54.56-1.23,1.25-2.09,2.05-.59.55-1.04.98-1.36,1.3l-.48-.39c.23-.24.45-.46.65-.65ZM1751.27,1278.46h6.02v.59h-5.94l-.08-.59Z"/>
        <path class="me" d="M1756.95,1292.75c.33.44.5.92.5,1.43,0,.57-.14,1.08-.41,1.53s-.65.8-1.13,1.06-1.03.38-1.64.38-1.17-.13-1.65-.38-.86-.6-1.13-1.06-.41-.96-.41-1.53h.67c0,.46.11.87.32,1.23s.51.64.9.84c.38.2.81.3,1.29.3s.92-.1,1.3-.29.68-.46.89-.79.32-.72.32-1.16-.11-.8-.32-1.13-.5-.59-.88-.78c-.38-.19-.8-.28-1.28-.28h-.41v-.62h.39c.45,0,.85-.09,1.21-.26s.64-.41.84-.72c.2-.31.3-.66.3-1.05,0-.6-.21-1.09-.64-1.47-.43-.38-.98-.57-1.65-.57-.44,0-.83.09-1.19.27-.36.18-.63.44-.82.77-.19.33-.29.71-.29,1.13h-.67c0-.53.13-1.01.38-1.43s.6-.75,1.05-.99c.45-.24.96-.36,1.54-.36s1.09.12,1.54.36c.45.24.8.57,1.05.99.25.42.38.9.38,1.43,0,.43-.15.85-.45,1.27s-.69.73-1.16.94c.5.19.92.5,1.25.94Z"/>
        <path class="me" d="M1756.13,1311.48h1.64v.6h-1.64v2.97h-.67v-2.97h-4.61l-.1-.62,4.7-6.52h.67v6.54ZM1755.46,1311.48v-5.38l-3.88,5.38h3.88Z"/>
      </g>
    </g>
    <path class="me" d="M1020.44,769.67h-.58v-8.02l-1.08.74-.31-.42,1.39-.97h.58v8.66Z"/>
    <path class="me" d="M801.43,751.76c.28.38.43.78.43,1.22,0,.49-.12.93-.35,1.31-.23.39-.55.69-.97.91-.41.22-.88.32-1.41.32s-1-.11-1.41-.32-.73-.52-.97-.91c-.23-.39-.35-.83-.35-1.31h.58c0,.39.09.74.28,1.05.18.31.44.55.77.72.33.17.7.26,1.1.26s.79-.08,1.12-.25.58-.39.76-.68c.18-.29.27-.62.27-1s-.09-.68-.27-.97c-.18-.28-.43-.51-.76-.67-.32-.16-.69-.24-1.1-.24h-.35v-.53h.34c.38,0,.73-.07,1.04-.22.31-.15.55-.35.72-.62.17-.26.26-.56.26-.9,0-.51-.18-.93-.55-1.26-.37-.33-.84-.49-1.42-.49-.38,0-.72.08-1.02.23-.3.16-.54.38-.7.66-.16.28-.25.61-.25.97h-.58c0-.46.11-.86.32-1.22.22-.36.52-.64.9-.85.38-.2.82-.31,1.32-.31s.94.1,1.32.31c.38.2.68.49.9.85.22.36.32.77.32,1.22,0,.37-.13.73-.38,1.09-.26.36-.59.63-1,.81.43.16.79.43,1.07.8Z"/>
    <path class="me" d="M861.47,658.63h1.4v.52h-1.4v2.54h-.58v-2.54h-3.95l-.08-.53,4.03-5.59h.58v5.6ZM860.89,658.63v-4.61l-3.32,4.61h3.32Z"/>
  </g>
</svg>