<?xml version="1.0" encoding="UTF-8"?>
<svg xmlns="http://www.w3.org/2000/svg" viewBox="0 0 2000 1250">
  <defs>
    <style>
      .nk, .nl, .nm, .nn, .no, .np, .nq, .nr, .ns, .nt, .nu, .nv, .nw, .nx, .ny, .nz, .oa {
        stroke: #000;
      }

      .nk, .nl, .nn, .no, .np, .nq, .nr, .nt, .nu, .nv, .nw, .nx, .ny, .nz {
        fill: none;
      }

      .nk, .nl, .nn, .no, .np, .nq, .nr, .nt, .nu, .nv, .nw, .nx, .ny, .nz, .oa {
        stroke-miterlimit: 10;
      }

      .nk, .ns {
        stroke-width: .5px;
      }

      .nm {
        stroke-width: .34px;
      }

      .nn {
        stroke-width: .75px;
      }

      .no {
        stroke-width: .85px;
      }

      .np {
        stroke-dasharray: 2 1;
      }

      .np, .nt, .nw, .nz {
        stroke-width: .25px;
      }

      .nq {
        stroke-dasharray: 1.97 .98;
      }

      .nq, .nu {
        stroke-width: .4px;
      }

      .nr, .oa {
        stroke-width: .15px;
      }

      .nt {
        stroke-dasharray: 1.98 .99;
      }

      .nv {
        stroke-width: 2px;
      }

      .nx {
        stroke-width: .6px;
      }

      .ny {
        stroke-width: .9px;
      }

      .nz {
        stroke-dasharray: 2.01 1;
      }

      .oa {
        fill: #d6d6d6;
        fill-rule: evenodd;
      }
    </style>
  </defs>
  <g id="aw" data-name="sec">
    <g id="ax" data-name="HATCH">
      <path class="oa" d="M791.65,512.4h368.5v-13.04h-5.67v5.67h-357.17v-5.67h-5.67v13.04M791.65,349.13h368.5s0-7.37,0-7.37h-52.44v-10.77h-11.34v10.77h-144.57v-10.77h-8.5v10.77h-145.98v-5.67h-5.67v13.04M1154.49,659.81h-357.17s0-5.67,0-5.67h-5.67v13.04h19.84v20.98h17.01v-20.98h192.76v20.98h17.01v-20.98h130.39v20.98s17.01,0,17.01,0v-34.02h-31.18v5.67M1186.09,825.92h-397.28v185.95s17.01,0,17.01,0v-17.01h215.43v17.01h17.01v-17.01h218.27v17.01h17.01v-185.95h-11.34v111.97h-19.46v8.5h-53.67v8.5s-15.02,0-15.02,0v8.5s-15.02,0-15.02,0v8.5h-15.02v11.62h-335.34v-7.09h-5.67v7.09h-2.83v-150.24h221.1v20.98h17.01v-20.98h147.83v-7.37M1159.86,983.52l45.07-28.63h57.27v28.63h-102.34M951.81,190.39h-160.16v-5.67h160.16v5.67Z"/>
    </g>
    <g id="ay" data-name="HATCH">
      <path class="nr" d="M1104.88,265.22h-5.67v65.76s5.67,0,5.67,0v-65.76M797.32,190.39h-5.67v25.51s5.67,0,5.67,0v-25.51M797.32,349.13h-5.67v26.65s5.67,0,5.67,0v-26.65M797.32,459.68h-5.67v39.69h5.67v-39.69M791.65,530.55h5.67v-18.14h-5.67v18.14M791.65,654.14h5.67v-39.69h-5.67v39.69M791.65,687.02h5.67v-19.84h-5.67v19.84M802.99,976.44h5.67v-143.15h-5.67v143.15M1273.54,661.08h-11.34v164.84s11.34,0,11.34,0v-164.84Z"/>
      <path class="nr" d="M791.65,190.77l.38-.38M791.65,195.86l5.47-5.47M791.65,200.95l5.67-5.67M791.65,206.05l5.67-5.67M791.65,211.14l5.67-5.67M791.98,215.9l5.34-5.34M797.07,215.9l.25-.25M791.65,353.69l4.56-4.56M791.65,358.78l5.67-5.67M791.65,363.87l5.67-5.67M791.65,368.96l5.67-5.67M791.65,374.05l5.67-5.67M795.02,375.78l2.3-2.3M791.65,460.6l.92-.92M791.65,465.7l5.67-5.67M791.65,470.79l5.67-5.67M791.65,475.88l5.67-5.67M791.65,480.97l5.67-5.67M791.65,486.06l5.67-5.67M791.65,491.15l5.67-5.67M791.65,496.24l5.67-5.67M793.62,499.37l3.7-3.7M791.65,516.61l4.2-4.2M791.65,521.7l5.67-5.67M791.65,526.79l5.67-5.67M792.99,530.55l4.34-4.34M1099.21,270.14l4.92-4.92M1099.21,275.23l5.67-5.67M1099.21,280.32l5.67-5.67M1099.21,285.42l5.67-5.67M1099.21,290.51l5.67-5.67M1099.21,295.6l5.67-5.67M1099.21,300.69l5.67-5.67M1099.21,305.78l5.67-5.67M791.65,618.43l3.98-3.98M1099.21,310.87l5.67-5.67M791.65,623.52l5.67-5.67M1099.21,315.96l5.67-5.67M791.65,628.61l5.67-5.67M1099.21,321.05l5.67-5.67M791.65,633.7l5.67-5.67M1099.21,326.15l5.67-5.67M791.65,638.8l5.67-5.67M1099.46,330.99l5.42-5.42M791.65,643.89l5.67-5.67M1104.55,330.99l.33-.33M791.65,648.98l5.67-5.67M791.65,654.07l5.67-5.67M796.68,654.14l.65-.65M791.65,669.34l2.17-2.17M791.65,674.43l5.67-5.67M791.65,679.52l5.67-5.67M791.65,684.62l5.67-5.67M794.34,687.02l2.98-2.98M802.99,836.19l2.91-2.91M802.99,841.29l5.67-5.67M802.99,846.38l5.67-5.67M802.99,851.47l5.67-5.67M802.99,856.56l5.67-5.67M802.99,861.65l5.67-5.67M802.99,866.74l5.67-5.67M802.99,871.83l5.67-5.67M802.99,876.92l5.67-5.67M802.99,882.02l5.67-5.67M802.99,887.11l5.67-5.67M802.99,892.2l5.67-5.67M802.99,897.29l5.67-5.67M802.99,902.38l5.67-5.67M802.99,907.47l5.67-5.67M802.99,912.56l5.67-5.67M802.99,917.65l5.67-5.67M802.99,922.74l5.67-5.67M802.99,927.84l5.67-5.67M802.99,932.93l5.67-5.67M802.99,938.02l5.67-5.67M802.99,943.11l5.67-5.67M802.99,948.2l5.67-5.67M802.99,953.29l5.67-5.67M802.99,958.38l5.67-5.67M802.99,963.47l5.67-5.67M802.99,968.57l5.67-5.67M802.99,973.66l5.67-5.67M805.3,976.44l3.36-3.36M1262.2,662.09l1.01-1.01M1262.2,667.18l6.1-6.1M1262.2,672.27l11.19-11.19M1262.2,677.36l11.34-11.34M1262.2,682.45l11.34-11.34M1262.2,687.54l11.34-11.34M1262.2,692.63l11.34-11.34M1262.2,697.73l11.34-11.34M1262.2,702.82l11.34-11.34M1262.2,707.91l11.34-11.34M1262.2,713l11.34-11.34M1262.2,718.09l11.34-11.34M1262.2,723.18l11.34-11.34M1262.2,728.27l11.34-11.34M1262.2,733.36l11.34-11.34M1262.2,738.46l11.34-11.34M1262.2,743.55l11.34-11.34M1262.2,748.64l11.34-11.34M1262.2,753.73l11.34-11.34M1262.2,758.82l11.34-11.34M1262.2,763.91l11.34-11.34M1262.2,769l11.34-11.34M1262.2,774.09l11.34-11.34M1262.2,779.18l11.34-11.34M1262.2,784.28l11.34-11.34M1262.2,789.37l11.34-11.34M1262.2,794.46l11.34-11.34M1262.2,799.55l11.34-11.34M1262.2,804.64l11.34-11.34M1262.2,809.73l11.34-11.34M1262.2,814.82l11.34-11.34M1262.2,819.91l11.34-11.34M1262.2,825l11.34-11.34M1266.38,825.92l7.16-7.16M1271.48,825.92l2.07-2.07"/>
    </g>
    <g id="az" data-name="LWPOLYLINE">
      <polyline class="nw" points="1187.37 832.15 1187.37 781.13 1186.8 781.13 1186.8 832.15"/>
    </g>
    <g id="ba" data-name="LWPOLYLINE">
      <rect class="nw" x="1033.73" y="688.72" width=".57" height="134.93"/>
    </g>
    <g id="bb" data-name="LINE">
      <line class="nw" x1="791.09" y1="609.63" x2="791.09" y2="535.37"/>
    </g>
    <g id="bc" data-name="LINE">
      <line class="nw" x1="789.52" y1="608.78" x2="789.51" y2="536.22"/>
    </g>
    <g id="bd" data-name="LWPOLYLINE">
      <rect class="nw" x="1111.4" y="845.19" width=".57" height="130.11"/>
    </g>
    <g id="be" data-name="LWPOLYLINE">
      <line class="nw" x1="1184.97" y1="648.1" x2="1262.16" y2="655.34"/>
    </g>
    <g id="bf" data-name="LWPOLYLINE">
      <line class="nw" x1="1183.66" y1="649.86" x2="1263.12" y2="657.31"/>
    </g>
    <g id="bg" data-name="LINE">
      <line class="nw" x1="791.09" y1="823.93" x2="791.09" y2="689"/>
    </g>
    <g id="bh" data-name="LINE">
      <line class="nw" x1="789.52" y1="823.08" x2="789.52" y2="689.85"/>
    </g>
    <g id="bi" data-name="LINE">
      <line class="nw" x1="791.09" y1="454.86" x2="791.09" y2="380.59"/>
    </g>
    <g id="bj" data-name="LINE">
      <line class="nw" x1="789.52" y1="454.01" x2="789.51" y2="381.44"/>
    </g>
    <g id="bk" data-name="LINE">
      <line class="nw" x1="949.54" y1="329" x2="949.54" y2="192.37"/>
    </g>
    <g id="bl" data-name="LINE">
      <line class="nw" x1="951.12" y1="193.22" x2="951.12" y2="328.15"/>
    </g>
    <g id="bm" data-name="LINE">
      <line class="nw" x1="791.09" y1="334.11" x2="791.09" y2="292.72"/>
    </g>
    <g id="bn" data-name="LINE">
      <line class="nw" x1="791.09" y1="291.59" x2="791.09" y2="219.59"/>
    </g>
    <g id="bo" data-name="LINE">
      <line class="nw" x1="789.52" y1="333.26" x2="789.52" y2="293.57"/>
    </g>
    <g id="bp" data-name="LINE">
      <line class="nw" x1="789.52" y1="290.74" x2="789.52" y2="220.44"/>
    </g>
    <g id="bq" data-name="LWPOLYLINE">
      <polyline class="nw" points="1273.54 661.08 1284.88 661.08 1284.88 829.89"/>
    </g>
    <g id="br" data-name="LWPOLYLINE">
      <polyline class="nw" points="1034.3 798.7 1039.02 798.7 1039.02 730.67 1034.3 730.67"/>
    </g>
    <g id="bs" data-name="LWPOLYLINE">
      <polyline class="nw" points="1034.3 732.09 1037.61 732.09 1037.61 797.29 1034.3 797.29"/>
    </g>
    <g id="bt" data-name="LWPOLYLINE">
      <polyline class="nw" points="1033.73 732.09 1030.42 732.09 1030.42 797.29 1033.73 797.29"/>
    </g>
    <g id="bu" data-name="LWPOLYLINE">
      <polyline class="nw" points="1033.73 798.7 1029.01 798.7 1029.01 730.67 1033.73 730.67"/>
    </g>
    <g id="bv" data-name="LWPOLYLINE">
      <polyline class="nw" points="1111.97 941.85 1116.69 941.85 1116.69 873.82 1111.97 873.82"/>
    </g>
    <g id="bw" data-name="LWPOLYLINE">
      <polyline class="nw" points="1111.97 875.24 1115.28 875.24 1115.28 940.44 1111.97 940.44"/>
    </g>
    <g id="bx" data-name="LWPOLYLINE">
      <polyline class="nw" points="1111.4 875.24 1108.09 875.24 1108.09 940.44 1111.4 940.44"/>
    </g>
    <g id="by" data-name="LWPOLYLINE">
      <polyline class="nw" points="1111.4 941.85 1106.68 941.85 1106.68 873.82 1111.4 873.82"/>
    </g>
    <g id="bz" data-name="LWPOLYLINE">
      <rect class="nw" x="1009.92" y="655.27" width="8.5" height="2.83"/>
    </g>
    <g id="ca" data-name="LWPOLYLINE">
      <polyline class="nw" points="1018.99 523.18 1018.99 657.54 1022.68 657.54"/>
    </g>
    <g id="cb" data-name="LWPOLYLINE">
      <polyline class="nw" points="814.33 657.54 864.22 657.54 864.22 523.18"/>
    </g>
    <g id="cc" data-name="LWPOLYLINE">
      <polyline class="nw" points="915.24 523.18 915.24 657.54 865.35 657.54 865.35 523.18"/>
    </g>
    <g id="cd" data-name="LWPOLYLINE">
      <line class="nw" x1="1018.43" y1="526.01" x2="1018.43" y2="655.27"/>
    </g>
    <g id="ce" data-name="LWPOLYLINE">
      <polyline class="nw" points="1009.92 657.54 967.4 657.54 967.4 523.18"/>
    </g>
    <g id="cf" data-name="LWPOLYLINE">
      <polyline class="nw" points="966.27 523.18 966.27 657.54 916.38 657.54 916.38 523.18"/>
    </g>
    <g id="cg" data-name="LWPOLYLINE">
      <rect class="nw" x="1009.92" y="523.18" width="8.5" height="2.83"/>
    </g>
    <g id="ch" data-name="LWPOLYLINE">
      <rect class="nw" x="970.99" y="556.34" width="1.42" height="68.03"/>
    </g>
    <g id="ci" data-name="LWPOLYLINE">
      <line class="nw" x1="859.69" y1="778.86" x2="859.69" y2="688.15"/>
    </g>
    <g id="cj" data-name="LWPOLYLINE">
      <line class="nw" x1="892.57" y1="778.86" x2="892.57" y2="688.15"/>
    </g>
    <g id="ck" data-name="LWPOLYLINE">
      <line class="nw" x1="829.64" y1="696.66" x2="859.69" y2="696.66"/>
    </g>
    <g id="cl" data-name="LWPOLYLINE">
      <line class="nw" x1="859.69" y1="815.71" x2="829.64" y2="815.71"/>
    </g>
    <g id="cm" data-name="LWPOLYLINE">
      <polyline class="nw" points="829.64 698.36 857.98 698.36 857.98 814.01 829.64 814.01"/>
    </g>
    <g id="cn" data-name="LWPOLYLINE">
      <polyline class="nw" points="1018.99 368.4 1018.99 502.77 1022.68 502.77"/>
    </g>
    <g id="co" data-name="LWPOLYLINE">
      <polyline class="nw" points="814.33 502.77 864.22 502.77 864.22 368.4"/>
    </g>
    <g id="cp" data-name="LWPOLYLINE">
      <polyline class="nw" points="915.24 368.4 915.24 502.77 865.35 502.77 865.35 368.4"/>
    </g>
    <g id="cq" data-name="LWPOLYLINE">
      <line class="nw" x1="1018.43" y1="371.24" x2="1018.43" y2="500.5"/>
    </g>
    <g id="cr" data-name="LWPOLYLINE">
      <polyline class="nw" points="1009.92 502.77 967.4 502.77 967.4 368.4"/>
    </g>
    <g id="cs" data-name="LWPOLYLINE">
      <polyline class="nw" points="966.27 368.4 966.27 502.77 916.38 502.77 916.38 368.4"/>
    </g>
    <g id="ct" data-name="LWPOLYLINE">
      <rect class="nw" x="1009.92" y="368.4" width="8.5" height="2.83"/>
    </g>
    <g id="cu" data-name="LWPOLYLINE">
      <rect class="nw" x="970.99" y="401.57" width="1.42" height="68.03"/>
    </g>
    <g id="cv" data-name="LWPOLYLINE">
      <rect class="nw" x="1009.92" y="500.5" width="8.5" height="2.83"/>
    </g>
    <g id="cw" data-name="LINE">
      <line class="nw" x1="1094.96" y1="263.52" x2="951.81" y2="263.52"/>
    </g>
    <g id="cx" data-name="LINE">
      <line class="nw" x1="1094.96" y1="265.22" x2="951.81" y2="265.22"/>
    </g>
    <g id="cy" data-name="LWPOLYLINE">
      <line class="nw" x1="1038.27" y1="856.81" x2="1089.29" y2="856.81"/>
    </g>
    <g id="cz" data-name="LWPOLYLINE">
      <rect class="nw" x="1039.97" y="858.52" width="47.62" height="115.65"/>
    </g>
    <g id="da" data-name="LWPOLYLINE">
      <rect class="nw" x="1043.37" y="861.92" width="40.82" height="108.85"/>
    </g>
    <g id="db" data-name="LWPOLYLINE">
      <g>
        <line class="nw" x1="1039.97" y1="858.52" x2="1040.6" y2="859.29"/>
        <line class="np" x1="1041.24" y1="860.06" x2="1086.64" y2="915.18"/>
        <polyline class="nw" points="1086.95 915.57 1087.59 916.34 1086.95 917.11"/>
        <line class="np" x1="1086.32" y1="917.88" x2="1040.92" y2="973.01"/>
        <line class="nw" x1="1040.6" y1="973.4" x2="1039.97" y2="974.17"/>
      </g>
    </g>
    <g id="dc" data-name="LWPOLYLINE">
      <g>
        <line class="nw" x1="829.64" y1="714.28" x2="830.2" y2="715.11"/>
        <line class="nt" x1="830.75" y1="715.93" x2="857.15" y2="754.95"/>
        <polyline class="nw" points="857.42 755.36 857.98 756.18 857.42 757.01"/>
        <line class="nt" x1="856.87" y1="757.83" x2="830.48" y2="796.85"/>
        <line class="nw" x1="830.2" y1="797.26" x2="829.64" y2="798.09"/>
      </g>
    </g>
    <g id="dd" data-name="LWPOLYLINE">
      <g>
        <line class="nw" x1="967.4" y1="523.18" x2="968.01" y2="523.97"/>
        <line class="nz" x1="968.61" y1="524.77" x2="1017.52" y2="589.16"/>
        <polyline class="nw" points="1017.82 589.56 1018.43 590.36 1017.82 591.15"/>
        <line class="nz" x1="1017.21" y1="591.95" x2="968.31" y2="656.34"/>
        <line class="nw" x1="968.01" y1="656.74" x2="967.4" y2="657.54"/>
      </g>
    </g>
    <g id="de" data-name="LWPOLYLINE">
      <g>
        <line class="nw" x1="967.4" y1="368.41" x2="968.01" y2="369.2"/>
        <line class="nz" x1="968.61" y1="370" x2="1017.52" y2="434.39"/>
        <polyline class="nw" points="1017.82 434.79 1018.43 435.59 1017.82 436.38"/>
        <line class="nz" x1="1017.21" y1="437.18" x2="968.31" y2="501.57"/>
        <line class="nw" x1="968.01" y1="501.97" x2="967.4" y2="502.77"/>
      </g>
    </g>
    <g id="df" data-name="LWPOLYLINE">
      <rect class="nw" x="914.96" y="336.66" width="8.5" height="2.83"/>
    </g>
    <g id="dg" data-name="LINE">
      <line class="nw" x1="923.46" y1="207.4" x2="923.46" y2="336.66"/>
    </g>
    <g id="dh" data-name="LWPOLYLINE">
      <rect class="nw" x="914.96" y="204.56" width="8.5" height="2.83"/>
    </g>
    <g id="di" data-name="LWPOLYLINE">
      <polyline class="nw" points="914.96 339.49 878.11 339.49 878.11 204.56 914.96 204.56"/>
    </g>
    <g id="dj" data-name="LWPOLYLINE">
      <rect class="nw" x="881.7" y="238.29" width="1.42" height="68.03"/>
    </g>
    <g id="dk" data-name="LWPOLYLINE">
      <polyline class="nw" points="929.13 204.56 924.03 204.56 924.03 339.49 929.13 339.49"/>
    </g>
    <g id="dl" data-name="LWPOLYLINE">
      <polyline class="nw" points="812.91 339.49 835.02 339.49 835.02 204.56 812.91 204.56"/>
    </g>
    <g id="dm" data-name="LWPOLYLINE">
      <rect class="nw" x="1120.47" y="858.52" width="50.46" height="81.64"/>
    </g>
    <g id="dn" data-name="LINE">
      <line class="nw" x1="1097.8" y1="859.65" x2="1097.8" y2="939.02"/>
    </g>
    <g id="do" data-name="LWPOLYLINE">
      <rect class="nw" x="1123.87" y="861.92" width="43.65" height="74.83"/>
    </g>
    <g id="dp" data-name="LWPOLYLINE">
      <rect class="nu" x="791.65" y="608.78" width="5.67" height="2.83"/>
    </g>
    <g id="dq" data-name="LWPOLYLINE">
      <polyline class="nu" points="791.65 609.63 790.52 609.63 790.52 610.77 791.65 610.77"/>
    </g>
    <g id="dr" data-name="LINE">
      <line class="nu" x1="790.52" y1="610.2" x2="788.82" y2="610.2"/>
    </g>
    <g id="ds" data-name="LWPOLYLINE">
      <polyline class="nu" points="789.52 608.78 788.82 608.78 788.82 611.62 789.51 611.62"/>
    </g>
    <g id="dt" data-name="LWPOLYLINE">
      <rect class="nu" x="791.65" y="687.02" width="5.67" height="2.83"/>
    </g>
    <g id="du" data-name="LWPOLYLINE">
      <polyline class="nu" points="791.65 687.87 790.52 687.87 790.52 689 791.65 689"/>
    </g>
    <g id="dv" data-name="LINE">
      <line class="nu" x1="790.52" y1="688.44" x2="788.82" y2="688.44"/>
    </g>
    <g id="dw" data-name="LWPOLYLINE">
      <polyline class="nu" points="789.52 687.02 788.82 687.02 788.82 689.85 789.51 689.85"/>
    </g>
    <g id="dx" data-name="LWPOLYLINE">
      <rect class="nu" x="791.65" y="823.08" width="5.67" height="2.83"/>
    </g>
    <g id="dy" data-name="LWPOLYLINE">
      <polyline class="nu" points="791.65 823.93 790.52 823.93 790.52 825.07 791.65 825.07"/>
    </g>
    <g id="dz" data-name="LINE">
      <line class="nu" x1="790.52" y1="824.5" x2="788.82" y2="824.5"/>
    </g>
    <g id="ea" data-name="LWPOLYLINE">
      <polyline class="nu" points="789.52 823.08 788.82 823.08 788.82 825.92 789.51 825.92"/>
    </g>
    <g id="eb" data-name="LWPOLYLINE">
      <rect class="nu" x="791.65" y="533.38" width="5.67" height="2.83"/>
    </g>
    <g id="ec" data-name="LWPOLYLINE">
      <polyline class="nu" points="791.65 534.23 790.52 534.23 790.52 535.37 791.65 535.37"/>
    </g>
    <g id="ed" data-name="LINE">
      <line class="nu" x1="790.52" y1="534.8" x2="788.82" y2="534.8"/>
    </g>
    <g id="ee" data-name="LWPOLYLINE">
      <polyline class="nu" points="789.52 533.38 788.82 533.38 788.82 536.22 789.51 536.22"/>
    </g>
    <g id="ef" data-name="LWPOLYLINE">
      <rect class="nu" x="791.65" y="454.01" width="5.67" height="2.83"/>
    </g>
    <g id="eg" data-name="LWPOLYLINE">
      <polyline class="nu" points="791.65 454.86 790.52 454.86 790.52 456 791.65 456"/>
    </g>
    <g id="eh" data-name="LINE">
      <line class="nu" x1="790.52" y1="455.43" x2="788.82" y2="455.43"/>
    </g>
    <g id="ei" data-name="LWPOLYLINE">
      <polyline class="nu" points="789.52 454.01 788.82 454.01 788.82 456.85 789.51 456.85"/>
    </g>
    <g id="ej" data-name="LWPOLYLINE">
      <rect class="nu" x="791.65" y="378.61" width="5.67" height="2.83"/>
    </g>
    <g id="ek" data-name="LWPOLYLINE">
      <polyline class="nu" points="791.65 379.46 790.52 379.46 790.52 380.59 791.65 380.59"/>
    </g>
    <g id="el" data-name="LINE">
      <line class="nu" x1="790.52" y1="380.03" x2="788.82" y2="380.03"/>
    </g>
    <g id="em" data-name="LWPOLYLINE">
      <polyline class="nu" points="789.52 378.61 788.82 378.61 788.82 381.44 789.51 381.44"/>
    </g>
    <g id="en" data-name="LWPOLYLINE">
      <rect class="nu" x="943.31" y="328.15" width="5.67" height="2.83"/>
    </g>
    <g id="eo" data-name="LWPOLYLINE">
      <polyline class="nu" points="948.98 330.14 950.11 330.14 950.11 329 948.98 329"/>
    </g>
    <g id="ep" data-name="LINE">
      <line class="nu" x1="950.11" y1="329.57" x2="951.81" y2="329.57"/>
    </g>
    <g id="eq" data-name="LWPOLYLINE">
      <polyline class="nu" points="951.11 330.99 951.81 330.99 951.81 328.15 951.12 328.15"/>
    </g>
    <g id="er" data-name="LWPOLYLINE">
      <rect class="nu" x="943.31" y="190.39" width="5.67" height="2.83"/>
    </g>
    <g id="es" data-name="LWPOLYLINE">
      <polyline class="nu" points="948.98 192.37 950.11 192.37 950.11 191.24 948.98 191.24"/>
    </g>
    <g id="et" data-name="LINE">
      <line class="nu" x1="950.11" y1="191.81" x2="951.81" y2="191.81"/>
    </g>
    <g id="eu" data-name="LWPOLYLINE">
      <polyline class="nu" points="951.11 193.22 951.81 193.22 951.81 190.39 951.12 190.39"/>
    </g>
    <g id="ev" data-name="LWPOLYLINE">
      <rect class="nu" x="791.65" y="333.26" width="5.67" height="2.83"/>
    </g>
    <g id="ew" data-name="LWPOLYLINE">
      <polyline class="nu" points="791.65 334.11 790.52 334.11 790.52 335.24 791.65 335.24"/>
    </g>
    <g id="ex" data-name="LINE">
      <line class="nu" x1="790.52" y1="334.67" x2="788.82" y2="334.67"/>
    </g>
    <g id="ey" data-name="LWPOLYLINE">
      <polyline class="nu" points="789.52 333.26 788.82 333.26 788.82 336.09 789.51 336.09"/>
    </g>
    <g id="ez" data-name="LWPOLYLINE">
      <rect class="nu" x="791.65" y="218.74" width="5.67" height="2.83"/>
    </g>
    <g id="fa" data-name="LWPOLYLINE">
      <polyline class="nu" points="791.65 219.59 790.52 219.59 790.52 220.72 791.65 220.72"/>
    </g>
    <g id="fb" data-name="LINE">
      <line class="nu" x1="790.52" y1="220.15" x2="788.82" y2="220.15"/>
    </g>
    <g id="fc" data-name="LWPOLYLINE">
      <polyline class="nu" points="789.52 218.74 788.82 218.74 788.82 221.57 789.51 221.57"/>
    </g>
    <g id="fd" data-name="LWPOLYLINE">
      <rect class="nu" x="791.65" y="290.74" width="5.67" height="2.83"/>
    </g>
    <g id="fe" data-name="LWPOLYLINE">
      <polyline class="nu" points="791.65 291.59 790.52 291.59 790.52 292.72 791.65 292.72"/>
    </g>
    <g id="ff" data-name="LINE">
      <line class="nu" x1="790.52" y1="292.15" x2="788.82" y2="292.15"/>
    </g>
    <g id="fg" data-name="LWPOLYLINE">
      <polyline class="nu" points="789.52 290.74 788.82 290.74 788.82 293.57 789.51 293.57"/>
    </g>
    <g id="fh" data-name="LINE">
      <line class="nu" x1="797.32" y1="536.22" x2="797.32" y2="608.78"/>
    </g>
    <g id="fi" data-name="LINE">
      <line class="nu" x1="788.82" y1="536.22" x2="788.82" y2="608.78"/>
    </g>
    <g id="fj" data-name="LINE">
      <line class="nu" x1="797.32" y1="689.85" x2="797.32" y2="823.08"/>
    </g>
    <g id="fk" data-name="LINE">
      <line class="nu" x1="788.82" y1="689.85" x2="788.82" y2="823.08"/>
    </g>
    <g id="fl" data-name="LINE">
      <line class="nu" x1="797.32" y1="381.44" x2="797.32" y2="454.01"/>
    </g>
    <g id="fm" data-name="LINE">
      <line class="nu" x1="788.82" y1="381.44" x2="788.82" y2="454.01"/>
    </g>
    <g id="fn" data-name="LINE">
      <line class="nu" x1="943.31" y1="328.15" x2="943.31" y2="204"/>
    </g>
    <g id="fo" data-name="LINE">
      <line class="nu" x1="951.81" y1="328.15" x2="951.81" y2="193.22"/>
    </g>
    <g id="fp" data-name="LINE">
      <line class="nu" x1="797.32" y1="220.44" x2="797.32" y2="290.74"/>
    </g>
    <g id="fq" data-name="LINE">
      <line class="nu" x1="797.32" y1="293.57" x2="797.32" y2="333.26"/>
    </g>
    <g id="fr" data-name="LINE">
      <line class="nu" x1="788.82" y1="220.44" x2="788.82" y2="290.74"/>
    </g>
    <g id="fs" data-name="LINE">
      <line class="nu" x1="788.82" y1="293.57" x2="788.82" y2="333.26"/>
    </g>
    <g id="ft" data-name="LWPOLYLINE">
      <polyline class="nu" points="774.65 688.15 774.65 824.22 788.82 824.22"/>
    </g>
    <g id="fu" data-name="LINE">
      <line class="nu" x1="1137.48" y1="658.11" x2="1137.48" y2="512.4"/>
    </g>
    <g id="fv" data-name="LINE">
      <line class="nu" x1="1148.82" y1="658.11" x2="1148.82" y2="512.69"/>
    </g>
    <g id="fw" data-name="LWPOLYLINE">
      <polyline class="nu" points="788.82 648.47 774.65 648.47 774.65 533.38"/>
    </g>
    <g id="fx" data-name="LWPOLYLINE">
      <polyline class="nu" points="1003.12 778.86 859.69 778.86 859.69 824.22"/>
    </g>
    <g id="fy" data-name="LINE">
      <line class="nu" x1="1003.12" y1="780" x2="859.69" y2="780"/>
    </g>
    <g id="fz" data-name="LINE">
      <line class="nu" x1="860.82" y1="780" x2="860.82" y2="824.22"/>
    </g>
    <g id="ga" data-name="LWPOLYLINE">
      <path class="nu" d="M1000.79,778.86v-10.77c0-1.39-1.13-2.52-2.52-2.52h-6.24c-1.39,0-2.52,1.13-2.52,2.52v1.51h1.11v-1.23c0-.94.76-1.7,1.7-1.7h5.67c.94,0,1.7.76,1.7,1.7v10.49"/>
    </g>
    <g id="gb" data-name="LINE">
      <line class="nu" x1="1137.48" y1="503.33" x2="1137.48" y2="349.71"/>
    </g>
    <g id="gc" data-name="LINE">
      <line class="nu" x1="1148.82" y1="503.33" x2="1148.82" y2="349.71"/>
    </g>
    <g id="gd" data-name="LWPOLYLINE">
      <polyline class="nu" points="788.82 493.7 774.65 493.7 774.65 370.11"/>
    </g>
    <g id="ge" data-name="LINE">
      <line class="nu" x1="868.19" y1="975.87" x2="868.19" y2="854.26"/>
    </g>
    <g id="gf" data-name="LINE">
      <line class="nu" x1="860.82" y1="818.55" x2="1003.12" y2="818.55"/>
    </g>
    <g id="gg" data-name="LINE">
      <line class="nu" x1="980.44" y1="818.55" x2="980.44" y2="780"/>
    </g>
    <g id="gh" data-name="LINE">
      <line class="nu" x1="957.76" y1="818.55" x2="957.76" y2="780"/>
    </g>
    <g id="gi" data-name="LINE">
      <line class="nu" x1="935.09" y1="818.55" x2="935.09" y2="780"/>
    </g>
    <g id="gj" data-name="LINE">
      <line class="nu" x1="912.41" y1="818.55" x2="912.41" y2="780"/>
    </g>
    <g id="gk" data-name="LINE">
      <line class="nu" x1="902.2" y1="931.65" x2="902.2" y2="975.87"/>
    </g>
    <g id="gl" data-name="LINE">
      <line class="nu" x1="902.2" y1="970.2" x2="1004.25" y2="970.2"/>
    </g>
    <g id="gm" data-name="LWPOLYLINE">
      <polyline class="nu" points="1004.25 930.52 902.2 930.52 902.2 931.65 1004.25 931.65"/>
    </g>
    <g id="gn" data-name="LINE">
      <line class="nu" x1="936.98" y1="970.2" x2="936.98" y2="931.65"/>
    </g>
    <g id="go" data-name="LINE">
      <line class="nu" x1="970.61" y1="970.2" x2="970.61" y2="931.65"/>
    </g>
    <g id="gp" data-name="LWPOLYLINE">
      <polyline class="nu" points="774.65 218.74 774.65 330.42 788.82 330.42"/>
    </g>
    <g id="gq" data-name="LWPOLYLINE">
      <path class="nu" d="M971.08,930.52v-10.77c0-1.39-1.13-2.52-2.52-2.52h-6.24c-1.39,0-2.52,1.13-2.52,2.52v1.51h1.11v-1.23c0-.94.76-1.7,1.7-1.7h5.67c.94,0,1.7.76,1.7,1.7v10.49"/>
    </g>
    <g id="gr" data-name="LINE">
      <line class="nu" x1="902.2" y1="930.52" x2="902.2" y2="854.26"/>
    </g>
    <g id="gs" data-name="LINE">
      <line class="nu" x1="1089.29" y1="859.65" x2="1089.29" y2="939.02"/>
    </g>
    <g id="gt" data-name="LWPOLYLINE">
      <polyline class="nu" points="1107.43 873.82 1107.43 859.65 1089.29 859.65 1089.29 856.81 1110.27 856.81"/>
    </g>
    <g id="gu" data-name="LWPOLYLINE">
      <polyline class="nu" points="1106.68 941.85 1089.29 941.85 1089.29 939.02 1106.68 939.02"/>
    </g>
    <g id="gv" data-name="LWPOLYLINE">
      <g>
        <line class="nu" x1="1120.47" y1="858.52" x2="1121.25" y2="859.14"/>
        <line class="nq" x1="1122.01" y1="859.76" x2="1169.77" y2="898.4"/>
        <polyline class="nu" points="1170.15 898.71 1170.93 899.33 1170.15 899.96"/>
        <line class="nq" x1="1169.39" y1="900.58" x2="1121.63" y2="939.21"/>
        <line class="nu" x1="1121.25" y1="939.52" x2="1120.47" y2="940.15"/>
      </g>
    </g>
    <g id="gw" data-name="LWPOLYLINE">
      <polyline class="nw" points="878.11 205.13 923.46 272.03 878.11 339.49"/>
    </g>
    <g id="gx" data-name="LINE">
      <line class="nk" x1="1188.08" y1="833.29" x2="1259.37" y2="833.29"/>
    </g>
    <g id="gy" data-name="LWPOLYLINE">
      <polygon class="nk" points="1189.64 814.58 1189.64 657.25 1256.54 663.53 1256.54 814.58 1189.64 814.58"/>
    </g>
    <g id="gz" data-name="LWPOLYLINE">
      <polyline class="nk" points="1259.37 817.41 1188.08 817.41 1188.08 824.22"/>
    </g>
    <g id="ha" data-name="LINE">
      <line class="nk" x1="1038.27" y1="812.88" x2="1168.66" y2="812.88"/>
    </g>
    <g id="hb" data-name="LINE">
      <line class="nk" x1="1097.23" y1="812.88" x2="1097.23" y2="711.96"/>
    </g>
    <g id="hc" data-name="LINE">
      <line class="nk" x1="1168.66" y1="711.96" x2="1038.27" y2="711.96"/>
    </g>
    <g id="hd" data-name="LINE">
      <line class="nk" x1="1067.75" y1="711.96" x2="1067.75" y2="812.88"/>
    </g>
    <g id="he" data-name="LWPOLYLINE">
      <rect class="nk" x="1032.6" y="821.38" width="2.83" height="2.83"/>
    </g>
    <g id="hf" data-name="LWPOLYLINE">
      <rect class="nk" x="1032.6" y="688.15" width="2.83" height="2.83"/>
    </g>
    <g id="hg" data-name="LWPOLYLINE">
      <rect class="nk" x="1110.27" y="973.03" width="2.83" height="2.83"/>
    </g>
    <g id="hh" data-name="LWPOLYLINE">
      <rect class="nk" x="1110.27" y="844.63" width="2.83" height="2.83"/>
    </g>
    <g id="hi" data-name="LINE">
      <line class="nk" x1="1060.94" y1="658.11" x2="1060.94" y2="523.18"/>
    </g>
    <g id="hj" data-name="LINE">
      <line class="nk" x1="1103.46" y1="523.18" x2="1103.46" y2="658.11"/>
    </g>
    <g id="hk" data-name="LINE">
      <line class="nk" x1="1082.2" y1="523.18" x2="1082.2" y2="658.11"/>
    </g>
    <g id="hl" data-name="LINE">
      <line class="nk" x1="1060.94" y1="503.33" x2="1060.94" y2="368.4"/>
    </g>
    <g id="hm" data-name="LINE">
      <line class="nk" x1="1103.46" y1="368.4" x2="1103.46" y2="503.33"/>
    </g>
    <g id="hn" data-name="LINE">
      <line class="nk" x1="1082.2" y1="368.42" x2="1082.2" y2="503.33"/>
    </g>
    <g id="ho" data-name="LINE">
      <line class="nk" x1="835.59" y1="204" x2="835.59" y2="340.06"/>
    </g>
    <g id="hp" data-name="LINE">
      <line class="nk" x1="877.54" y1="204" x2="877.54" y2="340.06"/>
    </g>
    <g id="hq" data-name="LINE">
      <line class="nk" x1="1089.29" y1="844.63" x2="1089.29" y2="859.65"/>
    </g>
    <g id="hr" data-name="LINE">
      <line class="nk" x1="1089.29" y1="941.85" x2="1089.29" y2="975.87"/>
    </g>
    <g id="hs" data-name="LINE">
      <line class="nk" x1="1118.77" y1="941.85" x2="1116.69" y2="941.85"/>
    </g>
    <g id="ht" data-name="LINE">
      <line class="nk" x1="1110.27" y1="856.81" x2="1118.77" y2="856.81"/>
    </g>
    <g id="hu" data-name="LINE">
      <line class="nk" x1="1172.63" y1="856.81" x2="1172.63" y2="844.63"/>
    </g>
    <g id="hv" data-name="LINE">
      <line class="nk" x1="1172.63" y1="941.85" x2="1172.63" y2="950.36"/>
    </g>
    <g id="hw" data-name="LWPOLYLINE">
      <line class="nk" x1="783.72" y1="183.59" x2="945.01" y2="183.59"/>
    </g>
    <g id="hx" data-name="LWPOLYLINE">
      <line class="nk" x1="783.72" y1="183.02" x2="945.01" y2="183.02"/>
    </g>
    <g id="hy" data-name="LWPOLYLINE">
      <line class="nk" x1="783.72" y1="184.72" x2="783.72" y2="180.18"/>
    </g>
    <g id="hz" data-name="LWPOLYLINE">
      <line class="nk" x1="782.58" y1="184.72" x2="782.58" y2="180.18"/>
    </g>
    <g id="ia" data-name="LWPOLYLINE">
      <line class="nk" x1="946.14" y1="184.72" x2="946.14" y2="180.18"/>
    </g>
    <g id="ib" data-name="LWPOLYLINE">
      <line class="nk" x1="945.01" y1="184.72" x2="945.01" y2="180.18"/>
    </g>
    <g id="ic" data-name="LWPOLYLINE">
      <line class="nk" x1="1107.72" y1="333.82" x2="1175.46" y2="333.82"/>
    </g>
    <g id="id" data-name="LWPOLYLINE">
      <line class="nk" x1="1107.72" y1="332.12" x2="1175.46" y2="332.12"/>
    </g>
    <g id="ie" data-name="LWPOLYLINE">
      <line class="nk" x1="1175.46" y1="336.09" x2="1175.46" y2="329.85"/>
    </g>
    <g id="if" data-name="LWPOLYLINE">
      <line class="nk" x1="1176.6" y1="336.09" x2="1176.6" y2="329.85"/>
    </g>
    <g id="ig" data-name="LWPOLYLINE">
      <polyline class="nk" points="1186.09 833.29 1188.08 833.29 1188.08 824.22 1187.51 824.22 1187.51 832.15 1186.66 832.15 1186.66 824.22 1186.09 824.22 1186.09 825.92"/>
    </g>
    <g id="ih" data-name="LWPOLYLINE">
      <rect class="nk" x="1118.77" y="856.81" width="53.86" height="85.04"/>
    </g>
    <g id="ii" data-name="LWPOLYLINE">
      <polygon class="nx" points="1184.72 650.13 1184.74 649.96 1185.86 650.06 1185.49 654.02 1185.32 654 1185.68 650.22 1184.72 650.13"/>
    </g>
    <g id="ij" data-name="LWPOLYLINE">
      <polygon class="nx" points="1188.11 650.45 1188.12 650.28 1186.99 650.17 1186.62 654.12 1186.79 654.14 1187.15 650.36 1188.11 650.45"/>
    </g>
    <g id="ik" data-name="LWPOLYLINE">
      <polygon class="nx" points="1258.75 657.07 1258.77 656.9 1259.9 657.01 1259.53 660.96 1259.36 660.94 1259.71 657.16 1258.75 657.07"/>
    </g>
    <g id="il" data-name="LWPOLYLINE">
      <polygon class="nx" points="1262.14 657.39 1262.16 657.22 1261.03 657.11 1260.66 661.06 1260.83 661.08 1261.18 657.3 1262.14 657.39"/>
    </g>
    <g id="im" data-name="LWPOLYLINE">
      <polygon class="nx" points="1263.23 657.32 1263.12 657.31 1263.29 655.44 1262.16 655.34 1262.17 655.23 1263.41 655.34 1263.23 657.32"/>
    </g>
    <g id="in" data-name="LWPOLYLINE">
      <polygon class="nx" points="1183.55 649.85 1183.66 649.86 1183.84 648 1184.97 648.1 1184.98 647.99 1183.74 647.87 1183.55 649.85"/>
    </g>
    <g id="io" data-name="LWPOLYLINE">
      <polygon class="nx" points="1262.53 657.68 1262.53 661.08 1268.2 661.08 1268.2 657.68 1268.03 657.68 1268.03 660.91 1262.7 660.91 1262.7 657.68 1262.53 657.68"/>
    </g>
    <g id="ip" data-name="LWPOLYLINE">
      <polygon class="nx" points="1178.81 650.74 1178.81 654.14 1184.47 654.14 1184.47 650.74 1184.3 650.74 1184.3 653.97 1178.98 653.97 1178.98 650.74 1178.81 650.74"/>
    </g>
    <g id="iq" data-name="LWPOLYLINE">
      <path class="nx" d="M1143.35,513.6v8.96c0,.34.28.62.62.62h4.85v.57h-11.34v-.57h4.85c.34,0,.62-.28.62-.62v-8.96c0-.34-.28-.62-.62-.62h-4.85s0-.57,0-.57h11.34v.57h-4.85c-.34,0-.62.28-.62.62Z"/>
    </g>
    <g id="ir" data-name="LWPOLYLINE">
      <path class="nx" d="M808.86,513.6v8.96c0,.34.28.62.62.62h4.85v.57h-11.34v-.57h4.85c.34,0,.62-.28.62-.62v-8.96c0-.34-.28-.62-.62-.62h-4.85v-.57h11.34v.57h-4.85c-.34,0-.62.28-.62.62Z"/>
    </g>
    <g id="is" data-name="LWPOLYLINE">
      <path class="nx" d="M1022.68,512.4h14.17v.57h-6.26c-.34,0-.62.28-.62.62v11.79c0,.34.28.62.62.62h6.26v.57h-14.17v-.57h6.26c.34,0,.62-.28.62-.62v-11.79c0-.34-.28-.62-.62-.62h-6.26v-.57Z"/>
    </g>
    <g id="it" data-name="LWPOLYLINE">
      <path class="nx" d="M1143.35,350.33v8.96c0,.34.28.62.62.62h4.85v.57h-11.34v-.57h4.85c.34,0,.62-.28.62-.62v-8.96c0-.34-.28-.62-.62-.62h-4.85v-.57h11.34v.57h-4.85c-.34,0-.62.28-.62.62Z"/>
    </g>
    <g id="iu" data-name="LWPOLYLINE">
      <path class="nx" d="M808.86,350.33v8.96c0,.34.28.62.62.62h4.85v.57h-11.34v-.57h4.85c.34,0,.62-.28.62-.62v-8.96c0-.34-.28-.62-.62-.62h-4.85v-.57h11.34v.57h-4.85c-.34,0-.62.28-.62.62Z"/>
    </g>
    <g id="iv" data-name="LWPOLYLINE">
      <path class="nx" d="M1022.68,349.14h14.17v.57h-6.26c-.34,0-.62.28-.62.62v11.79c0,.34.28.62.62.62h6.26v.57h-14.17v-.57h6.26c.34,0,.62-.28.62-.62v-11.79c0-.34-.28-.62-.62-.62h-6.26v-.57Z"/>
    </g>
    <g id="iw" data-name="LWPOLYLINE">
      <path class="nx" d="M934.21,190.96c-.34,0-.62.28-.62.62v6.12c0,.34.28.62.62.62h3.43v.57h-8.5v-.57h3.43c.34,0,.62-.28.62-.62v-6.12c0-.34-.28-.62-.62-.62h-3.43v-.57h8.5v.57h-3.43Z"/>
    </g>
    <g id="ix" data-name="LWPOLYLINE">
      <path class="nx" d="M809.48,190.96c-.34,0-.62.28-.62.62v6.12c0,.34.28.62.62.62h3.43v.57h-8.5v-.57h3.43c.34,0,.62-.28.62-.62v-6.12c0-.34-.28-.62-.62-.62h-3.43v-.57h8.5v.57h-3.43Z"/>
    </g>
    <g id="iy" data-name="LWPOLYLINE">
      <path class="nx" d="M1143.97,407.82c-.34,0-.62.28-.62.62v6.12c0,.34.28.62.62.62h3.43v.57h-8.5v-.57h3.43c.34,0,.62-.28.62-.62v-6.12c0-.34-.28-.62-.62-.62h-3.43v-.57h8.5v.57h-3.43Z"/>
    </g>
    <g id="iz" data-name="LWPOLYLINE">
      <path class="nx" d="M1143.97,448.63c-.34,0-.62.28-.62.62v6.12c0,.34.28.62.62.62h3.43v.57h-8.5v-.57h3.43c.34,0,.62-.28.62-.62v-6.12c0-.34-.28-.62-.62-.62h-3.43v-.57h8.5v.57h-3.43Z"/>
    </g>
    <g id="ja" data-name="LWPOLYLINE">
      <path class="nx" d="M1143.97,559.74c-.34,0-.62.28-.62.62v6.12c0,.34.28.62.62.62h3.43v.57h-8.5v-.57h3.43c.34,0,.62-.28.62-.62v-6.12c0-.34-.28-.62-.62-.62h-3.43v-.57h8.5v.57h-3.43Z"/>
    </g>
    <g id="jb" data-name="LWPOLYLINE">
      <path class="nx" d="M1143.97,603.4c-.34,0-.62.28-.62.62v6.12c0,.34.28.62.62.62h3.43v.57h-8.5v-.57h3.43c.34,0,.62-.28.62-.62v-6.12c0-.34-.28-.62-.62-.62h-3.43v-.57h8.5v.57h-3.43Z"/>
    </g>
    <g id="jc" data-name="LWPOLYLINE">
      <polyline class="nx" points="1140.6 975.87 1140.6 967.37 1155.62 967.37 1155.62 958.86 1170.65 958.86 1170.65 950.36 1185.67 950.36 1185.67 941.85 1239.34 941.85 1239.34 933.35 1259.37 933.35"/>
    </g>
    <g id="jd" data-name="LWPOLYLINE">
      <polyline class="nx" points="1142.3 975.87 1142.3 969.07 1157.32 969.07 1157.32 960.56 1172.35 960.56 1172.35 952.06 1187.37 952.06 1187.37 943.55 1241.04 943.55 1241.04 935.05 1259.37 935.05"/>
    </g>
    <g id="je" data-name="LWPOLYLINE">
      <polyline class="nx" points="788.82 687.02 788.82 688.15 774.65 688.15 774.65 654.14 788.82 654.14"/>
    </g>
    <g id="jf" data-name="LWPOLYLINE">
      <polyline class="nx" points="791.65 533.38 774.65 533.38 774.65 499.37 788.82 499.37"/>
    </g>
    <g id="jg" data-name="LWPOLYLINE">
      <polyline class="nx" points="788.82 370.11 774.65 370.11 774.65 336.09 788.82 336.09"/>
    </g>
    <g id="jh" data-name="LWPOLYLINE">
      <polyline class="nx" points="1166.96 533.38 1181.13 533.38 1181.13 499.37 1166.96 499.37"/>
    </g>
    <g id="ji" data-name="LWPOLYLINE">
      <polyline class="nx" points="1166.96 370.11 1181.13 370.11 1181.13 336.09 1166.96 336.09 1166.96 341.76"/>
    </g>
    <g id="jj" data-name="LWPOLYLINE">
      <polyline class="nx" points="788.82 218.74 774.65 218.74 774.65 184.72 791.65 184.72"/>
    </g>
    <g id="jk" data-name="LWPOLYLINE">
      <rect class="nx" x="774.65" y="179.05" width="183.23" height="1.13"/>
    </g>
    <g id="jl" data-name="LINE">
      <line class="nx" x1="951.81" y1="330.99" x2="1096.38" y2="330.99"/>
    </g>
    <g id="jm" data-name="LWPOLYLINE">
      <polyline class="nx" points="1107.72 328.72 1181.13 328.72 1181.13 329.85 1107.72 329.85"/>
    </g>
    <g id="jn" data-name="LWPOLYLINE">
      <line class="nx" x1="1186.8" y1="654.02" x2="1259.37" y2="660.83"/>
    </g>
    <g id="jo" data-name="LWPOLYLINE">
      <line class="nx" x1="1187.15" y1="650.36" x2="1259.71" y2="657.16"/>
    </g>
    <g id="jp" data-name="LINE">
      <line class="nx" x1="1168.66" y1="688.15" x2="1168.66" y2="824.22"/>
    </g>
    <g id="jq" data-name="LINE">
      <line class="nx" x1="1186.79" y1="654.14" x2="1186.8" y2="781.13"/>
    </g>
    <g id="jr" data-name="LINE">
      <line class="nx" x1="1168.66" y1="689.29" x2="1038.27" y2="689.29"/>
    </g>
    <g id="js" data-name="LINE">
      <line class="nx" x1="1038.27" y1="688.15" x2="1038.27" y2="730.67"/>
    </g>
    <g id="jt" data-name="LINE">
      <line class="nx" x1="1038.27" y1="798.7" x2="1038.27" y2="824.22"/>
    </g>
    <g id="ju" data-name="LINE">
      <line class="nx" x1="1003.12" y1="688.15" x2="1003.12" y2="824.22"/>
    </g>
    <g id="jv" data-name="LINE">
      <line class="nx" x1="1021.83" y1="688.15" x2="828.5" y2="688.15"/>
    </g>
    <g id="jw" data-name="LINE">
      <line class="nx" x1="829.64" y1="688.15" x2="829.64" y2="824.22"/>
    </g>
    <g id="jx" data-name="LINE">
      <line class="nx" x1="1036.85" y1="512.97" x2="1036.85" y2="658.11"/>
    </g>
    <g id="jy" data-name="LINE">
      <line class="nx" x1="1022.68" y1="512.97" x2="1022.68" y2="658.11"/>
    </g>
    <g id="jz" data-name="LINE">
      <line class="nx" x1="814.33" y1="523.18" x2="1022.68" y2="523.18"/>
    </g>
    <g id="ka" data-name="LINE">
      <line class="nx" x1="1137.48" y1="523.18" x2="1036.85" y2="523.18"/>
    </g>
    <g id="kb" data-name="LINE">
      <line class="nx" x1="814.33" y1="512.97" x2="814.33" y2="658.11"/>
    </g>
    <g id="kc" data-name="LINE">
      <line class="nx" x1="802.99" y1="512.97" x2="802.99" y2="658.11"/>
    </g>
    <g id="kd" data-name="LINE">
      <line class="nx" x1="1036.85" y1="349.13" x2="1036.85" y2="503.33"/>
    </g>
    <g id="ke" data-name="LINE">
      <line class="nx" x1="1022.68" y1="349.13" x2="1022.68" y2="503.33"/>
    </g>
    <g id="kf" data-name="LINE">
      <line class="nx" x1="814.33" y1="359.91" x2="1022.68" y2="359.91"/>
    </g>
    <g id="kg" data-name="LINE">
      <line class="nx" x1="1137.48" y1="359.91" x2="1036.85" y2="359.91"/>
    </g>
    <g id="kh" data-name="LINE">
      <line class="nx" x1="814.33" y1="349.71" x2="814.33" y2="503.33"/>
    </g>
    <g id="ki" data-name="LINE">
      <line class="nx" x1="802.99" y1="349.71" x2="802.99" y2="503.33"/>
    </g>
    <g id="kj" data-name="LINE">
      <line class="nx" x1="812.91" y1="198.33" x2="929.18" y2="198.33"/>
    </g>
    <g id="kk" data-name="LINE">
      <line class="nx" x1="929.13" y1="191" x2="929.13" y2="340.06"/>
    </g>
    <g id="kl" data-name="LINE">
      <line class="nx" x1="812.91" y1="190.96" x2="812.91" y2="340.06"/>
    </g>
    <g id="km" data-name="LINE">
      <line class="nx" x1="804.41" y1="190.96" x2="804.41" y2="340.06"/>
    </g>
    <g id="kn" data-name="LINE">
      <line class="nx" x1="828.5" y1="854.26" x2="828.5" y2="975.87"/>
    </g>
    <g id="ko" data-name="LINE">
      <line class="nx" x1="1038.27" y1="854.26" x2="1038.27" y2="975.87"/>
    </g>
    <g id="kp" data-name="LINE">
      <line class="nx" x1="1004.25" y1="975.87" x2="1004.25" y2="854.26"/>
    </g>
    <g id="kq" data-name="LINE">
      <line class="nx" x1="1021.26" y1="854.26" x2="808.66" y2="854.26"/>
    </g>
    <g id="kr" data-name="LINE">
      <line class="nx" x1="1138.9" y1="567.68" x2="1138.9" y2="523.74"/>
    </g>
    <g id="ks" data-name="LINE">
      <line class="nx" x1="1147.4" y1="567.11" x2="1147.4" y2="523.74"/>
    </g>
    <g id="kt" data-name="LINE">
      <line class="nx" x1="1138.9" y1="602.83" x2="1138.9" y2="658.11"/>
    </g>
    <g id="ku" data-name="LINE">
      <line class="nx" x1="1147.4" y1="602.83" x2="1147.4" y2="658.11"/>
    </g>
    <g id="kv" data-name="LINE">
      <line class="nx" x1="1147.4" y1="448.06" x2="1147.4" y2="503.33"/>
    </g>
    <g id="kw" data-name="LINE">
      <line class="nx" x1="1138.9" y1="448.06" x2="1138.9" y2="503.33"/>
    </g>
    <g id="kx" data-name="LINE">
      <line class="nx" x1="1147.4" y1="415.76" x2="1147.4" y2="368.42"/>
    </g>
    <g id="ky" data-name="LINE">
      <line class="nx" x1="1138.9" y1="415.76" x2="1138.9" y2="368.42"/>
    </g>
    <g id="kz" data-name="LINE">
      <line class="nx" x1="937.64" y1="191" x2="937.64" y2="340.06"/>
    </g>
    <g id="la" data-name="LINE">
      <line class="nx" x1="808.66" y1="975.87" x2="1144" y2="975.87"/>
    </g>
    <g id="lb" data-name="LINE">
      <line class="nx" x1="808.66" y1="976.44" x2="1144" y2="976.44"/>
    </g>
    <g id="lc" data-name="LWPOLYLINE">
      <polyline class="nx" points="1172.63 833.29 1172.63 844.63 1043.94 844.63 1043.94 838.96 1038.27 838.96"/>
    </g>
    <g id="ld" data-name="LWPOLYLINE">
      <polyline class="nx" points="1171.5 833.29 1171.5 843.49 1045.07 843.49 1045.07 837.82 1038.27 837.82"/>
    </g>
    <g id="le" data-name="LINE">
      <line class="nx" x1="801.86" y1="658.11" x2="1151.65" y2="658.11"/>
    </g>
    <g id="lf" data-name="LINE">
      <line class="nx" x1="797.32" y1="824.22" x2="1186.09" y2="824.22"/>
    </g>
    <g id="lg" data-name="LWPOLYLINE">
      <line class="nx" x1="800.16" y1="503.33" x2="1151.65" y2="503.33"/>
    </g>
    <g id="lh" data-name="LINE">
      <line class="nx" x1="800.16" y1="340.06" x2="943.31" y2="340.06"/>
    </g>
    <g id="li" data-name="LWPOLYLINE">
      <polyline class="nx" points="801.86 204 943.31 204 943.31 190.39"/>
    </g>
    <g id="lj" data-name="LWPOLYLINE">
      <polyline class="nx" points="801.86 202.86 942.17 202.86 942.17 190.39"/>
    </g>
    <g id="lk" data-name="LINE">
      <line class="nx" x1="814.33" y1="368.42" x2="1036.85" y2="368.42"/>
    </g>
    <g id="ll" data-name="LINE">
      <line class="nx" x1="814.33" y1="367.12" x2="1037.15" y2="367.12"/>
    </g>
    <g id="lm" data-name="LINE">
      <line class="nx" x1="1151.65" y1="368.42" x2="1036.85" y2="368.42"/>
    </g>
    <g id="ln" data-name="LINE">
      <line class="nx" x1="1151.65" y1="367.12" x2="1036.85" y2="367.12"/>
    </g>
    <g id="lo" data-name="LINE">
      <line class="nx" x1="1096.38" y1="330.99" x2="1096.38" y2="265.22"/>
    </g>
    <g id="lp" data-name="LINE">
      <line class="nx" x1="1107.72" y1="265.22" x2="1107.72" y2="330.99"/>
    </g>
    <g id="lq" data-name="LWPOLYLINE">
      <rect class="nx" x="1094.96" y="263.52" width="14.17" height="1.7"/>
    </g>
    <g id="lr" data-name="LWPOLYLINE">
      <polyline class="nx" points="1259.37 937.89 1259.37 661.08 1262.2 661.08"/>
    </g>
    <g id="ls" data-name="LINE">
      <line class="nx" x1="1151.65" y1="659.81" x2="1151.65" y2="512.4"/>
    </g>
    <g id="lt" data-name="LWPOLYLINE">
      <line class="nx" x1="951.81" y1="332.12" x2="1096.38" y2="332.12"/>
    </g>
    <g id="lu" data-name="LINE">
      <line class="nx" x1="1151.65" y1="505.03" x2="1151.65" y2="349.13"/>
    </g>
    <g id="lv" data-name="LINE">
      <line class="nn" x1="1154.49" y1="499.37" x2="1154.49" y2="349.13"/>
    </g>
    <g id="lw" data-name="LINE">
      <line class="nn" x1="1160.16" y1="499.37" x2="1160.16" y2="349.13"/>
    </g>
    <g id="lx" data-name="LINE">
      <line class="nn" x1="1154.49" y1="654.14" x2="1154.49" y2="512.4"/>
    </g>
    <g id="ly" data-name="LINE">
      <line class="nn" x1="1160.16" y1="654.14" x2="1160.16" y2="512.4"/>
    </g>
    <g id="lz" data-name="LINE">
      <line class="no" x1="808.66" y1="976.44" x2="808.66" y2="833.29"/>
    </g>
    <g id="ma" data-name="LINE">
      <line class="no" x1="802.99" y1="976.44" x2="802.99" y2="833.29"/>
    </g>
    <g id="mb" data-name="LWPOLYLINE">
      <polyline class="no" points="1262.2 825.92 1262.2 661.08 1273.54 661.08 1273.54 825.92"/>
    </g>
    <g id="mc" data-name="LWPOLYLINE">
      <polyline class="no" points="1099.21 330.99 1099.21 265.22 1104.88 265.22 1104.88 330.99"/>
    </g>
    <g id="md" data-name="LWPOLYLINE">
      <polyline class="no" points="791.65 667.18 791.65 687.02 797.32 687.02 797.32 667.18"/>
    </g>
    <g id="me" data-name="LWPOLYLINE">
      <polyline class="no" points="791.65 654.14 791.65 614.45 797.32 614.45 797.32 654.14"/>
    </g>
    <g id="mf" data-name="LWPOLYLINE">
      <polyline class="no" points="791.65 512.4 791.65 530.55 797.32 530.55 797.32 512.4"/>
    </g>
    <g id="mg" data-name="LWPOLYLINE">
      <polyline class="no" points="791.65 499.37 791.65 459.68 797.32 459.68 797.32 499.37"/>
    </g>
    <g id="mh" data-name="LWPOLYLINE">
      <polyline class="no" points="791.65 349.13 791.65 375.78 797.32 375.78 797.32 349.13"/>
    </g>
    <g id="mi" data-name="LWPOLYLINE">
      <polyline class="no" points="791.65 190.39 791.65 215.9 797.32 215.9 797.32 190.39"/>
    </g>
    <g id="mj" data-name="LINE">
      <line class="ny" x1="1166.96" y1="654.14" x2="1166.96" y2="533.38"/>
    </g>
    <g id="mk" data-name="LWPOLYLINE">
      <polyline class="ny" points="788.82 654.14 788.82 611.62 801.86 611.62 801.86 659.81"/>
    </g>
    <g id="ml" data-name="LWPOLYLINE">
      <polyline class="ny" points="797.32 534.8 801.86 534.8 801.86 512.4"/>
    </g>
    <g id="mm" data-name="LINE">
      <line class="ny" x1="1166.96" y1="499.37" x2="1166.96" y2="370.11"/>
    </g>
    <g id="mn" data-name="LWPOLYLINE">
      <rect class="ny" x="791.65" y="184.72" width="160.16" height="5.67"/>
    </g>
    <g id="mo" data-name="LINE">
      <line class="ny" x1="788.82" y1="499.37" x2="788.82" y2="456.85"/>
    </g>
    <g id="mp" data-name="LWPOLYLINE">
      <polyline class="ny" points="797.32 455.43 800.16 455.43 800.16 505.03"/>
    </g>
    <g id="mq" data-name="LINE">
      <line class="ny" x1="788.82" y1="370.11" x2="788.82" y2="378.61"/>
    </g>
    <g id="mr" data-name="LWPOLYLINE">
      <polyline class="ny" points="797.32 380.03 800.16 380.03 800.16 349.13"/>
    </g>
    <g id="ms" data-name="LWPOLYLINE">
      <polyline class="ny" points="797.32 334.67 800.16 334.67 800.16 341.76"/>
    </g>
    <g id="mt" data-name="LWPOLYLINE">
      <polyline class="ny" points="797.32 220.15 801.86 220.15 801.86 190.39"/>
    </g>
    <g id="mu" data-name="LINE">
      <line class="ny" x1="1158.46" y1="341.76" x2="1166.96" y2="341.76"/>
    </g>
    <g id="mv" data-name="LWPOLYLINE">
      <polygon class="nl" points="1262.2 954.89 1204.93 954.89 1159.86 983.52 1262.2 983.52 1262.2 954.89"/>
    </g>
    <g id="mw" data-name="LWPOLYLINE">
      <polygon class="nl" points="1262.2 937.89 1242.74 937.89 1242.74 946.39 1189.07 946.39 1189.07 954.89 1174.05 954.89 1174.05 963.4 1159.02 963.4 1159.02 971.9 1144 971.9 1144 983.52 808.66 983.52 808.66 976.44 802.99 976.44 802.99 983.52 800.16 983.52 800.16 833.29 1021.26 833.29 1021.26 854.26 1038.27 854.26 1038.27 833.29 1186.09 833.29 1186.09 825.92 788.82 825.92 788.82 1011.87 805.83 1011.87 805.83 994.86 1021.26 994.86 1021.26 1011.87 1038.27 1011.87 1038.27 994.86 1256.54 994.86 1256.54 1011.87 1273.54 1011.87 1273.54 825.92 1262.2 825.92 1262.2 937.89"/>
    </g>
    <g id="mx" data-name="LWPOLYLINE">
      <polyline class="nl" points="1021.26 667.18 1021.26 688.15 1038.27 688.15 1038.27 667.18 1168.66 667.18 1168.66 688.15 1185.67 688.15 1185.67 654.14 1154.49 654.14 1154.49 659.81 797.32 659.81 797.32 654.14 791.65 654.14 791.65 667.18 811.5 667.18 811.5 688.15 828.5 688.15 828.5 667.18 1021.26 667.18"/>
    </g>
    <g id="my" data-name="LWPOLYLINE">
      <polygon class="nl" points="1096.38 341.76 1096.38 330.99 1107.72 330.99 1107.72 341.76 1160.16 341.76 1160.16 349.13 791.65 349.13 791.65 336.09 797.32 336.09 797.32 341.76 943.31 341.76 943.31 330.99 951.81 330.99 951.81 341.76 1096.38 341.76"/>
    </g>
    <g id="mz" data-name="LWPOLYLINE">
      <polygon class="nl" points="1160.16 499.37 1154.49 499.37 1154.49 505.03 797.32 505.03 797.32 499.37 791.65 499.37 791.65 512.4 1160.16 512.4 1160.16 499.37"/>
    </g>
    <g id="na" data-name="LINE">
      <line class="nv" x1="788.82" y1="829.89" x2="-200" y2="829.89"/>
    </g>
    <g id="nb" data-name="LINE">
      <line class="nv" x1="2200" y1="829.89" x2="1273.54" y2="829.89"/>
    </g>
  </g>
  <g id="ne" data-name="SCALE">
    <g>
      <g id="nf" data-name="MTEXT">
        <path class="ns" d="M281.36,1108.4c-.63-.5-1.13-1.2-1.49-2.1-.36-.9-.54-1.92-.54-3.06s.18-2.14.54-3.04c.36-.9.85-1.59,1.49-2.1.63-.5,1.36-.75,2.17-.75s1.53.25,2.17.75c.63.5,1.13,1.2,1.49,2.1.36.9.54,1.91.54,3.04s-.18,2.16-.54,3.05-.85,1.59-1.49,2.1-1.36.76-2.17.76-1.53-.25-2.17-.75ZM285.01,1107.36c.44-.41.78-.96,1.02-1.67.24-.71.36-1.52.36-2.44s-.12-1.73-.36-2.45c-.24-.71-.58-1.27-1.02-1.67-.44-.4-.93-.6-1.49-.6s-1.05.2-1.48.6c-.43.4-.77.96-1.02,1.67-.24.71-.37,1.53-.37,2.43s.12,1.75.37,2.46c.25.71.58,1.27,1.02,1.67s.92.61,1.48.61,1.05-.2,1.49-.61Z"/>
      </g>
      <g id="ng" data-name="MTEXT">
        <path class="ns" d="M393.68,1107.22c.19-.17.42-.38.71-.64.93-.85,1.67-1.57,2.24-2.15.57-.58,1.04-1.17,1.44-1.78s.59-1.16.59-1.67c0-.48-.09-.9-.28-1.27s-.45-.66-.78-.86c-.33-.21-.71-.31-1.15-.31-.47,0-.93.16-1.37.48-.44.32-.78.73-1,1.23l-1.2-.51c.3-.7.78-1.28,1.46-1.73.67-.45,1.38-.67,2.11-.67.69,0,1.31.16,1.85.46.54.31.96.74,1.26,1.29.3.55.45,1.18.45,1.9s-.22,1.41-.67,2.14-.98,1.41-1.6,2.04c-.62.63-1.42,1.39-2.42,2.27-.49.45-.95.88-1.39,1.3l-.94-.85c.28-.27.51-.49.7-.66ZM392.98,1107.88h7.22v1.18h-7.04l-.18-1.18Z"/>
      </g>
      <g id="nh" data-name="MTEXT">
        <path class="ns" d="M340.34,1109.04h-1.34v-10.08l-1.86,1.2-.67-1.07,2.54-1.62h1.33v11.57Z"/>
      </g>
      <g id="ni" data-name="MTEXT">
        <g>
          <path class="ns" d="M558.55,1101.81c.55-.25,1.08-.38,1.59-.38.77,0,1.45.16,2.06.49.6.33,1.07.78,1.41,1.35s.5,1.24.5,1.98-.17,1.43-.5,2.02-.8,1.05-1.4,1.38c-.6.34-1.29.5-2.07.5-.6,0-1.16-.12-1.69-.38-.53-.25-.98-.6-1.34-1.05s-.62-.95-.74-1.52l1.3-.3c.13.59.42,1.06.89,1.43.46.37.99.55,1.59.55.5,0,.95-.11,1.35-.34.4-.22.71-.54.94-.94s.34-.86.34-1.36-.11-.95-.34-1.34c-.23-.39-.54-.69-.94-.91s-.85-.33-1.35-.33c-.33,0-.68.09-1.04.26s-.66.4-.9.68l-.99-.86c.34-.38.79-.7,1.34-.95ZM556.88,1103.43l.37-6.03h5.92v1.18h-4.64l-.32,5.04-1.33-.19Z"/>
          <path class="ns" d="M575.28,1103.26c-.29-.34-.67-.5-1.13-.5-.35,0-.66.07-.94.22-.27.14-.49.34-.65.6s-.24.55-.24.88v4.58h-1.33v-4.45c0-.54-.14-.98-.43-1.32s-.66-.5-1.12-.5c-.34,0-.65.09-.94.26-.28.18-.5.42-.66.72-.16.3-.23.63-.23.98v4.3h-1.33v-7.46h1.33v1.31l-.14-.05c.22-.37.52-.68.9-.91.37-.23.75-.35,1.13-.35.46,0,.9.13,1.32.38.42.26.74.59.95.99.25-.41.59-.74,1.04-.99.45-.26.9-.38,1.36-.38.55,0,1.05.13,1.49.38.44.25.78.59,1.02,1.02.25.43.37.93.37,1.5v4.56h-1.34v-4.45c0-.54-.15-.98-.44-1.32Z"/>
        </g>
      </g>
      <g id="nj" data-name="LWPOLYLINE">
        <polyline class="nk" points="566.32 1093.39 566.32 1076.38 396.24 1076.38 396.24 1093.39 339.55 1093.39 339.55 1076.38 282.85 1076.38 282.85 1093.39"/>
      </g>
    </g>
    <g>
      <g>
        <path class="nm" d="M1776.83,1069.46v.56h-10.91v-.56h10.91ZM1771.61,1063.51v.62c0,.68-.24,1.31-.72,1.88s-1.08,1.04-1.8,1.41-1.44.63-2.16.78l-.28-.55c.63-.1,1.28-.32,1.96-.66s1.26-.76,1.72-1.26c.47-.5.7-1.04.7-1.61v-.62h.57ZM1775.74,1063.26v.55h-8.74v-.55h8.74ZM1771.7,1069.75v4.72h-.64v-4.72h.64ZM1771.72,1063.51v.62c0,.57.23,1.11.7,1.61.47.5,1.04.92,1.73,1.26s1.34.55,1.95.66l-.27.55c-.73-.15-1.45-.41-2.16-.78-.71-.37-1.31-.84-1.79-1.41-.48-.57-.72-1.19-.72-1.88v-.62h.56Z"/>
        <path class="nm" d="M1781.86,1065.09v1.33c0,.81-.15,1.59-.46,2.34-.31.75-.71,1.41-1.22,1.98s-1.05,1.01-1.64,1.33l-.41-.5c.56-.27,1.08-.67,1.57-1.2s.88-1.14,1.18-1.83.45-1.4.45-2.13v-1.33h.53ZM1784.83,1064.59v.55h-6.41v-.55h6.41ZM1781.96,1062.58v2.35h-.64v-2.35h.64ZM1781.94,1065.09v1.33c0,.67.14,1.33.43,1.99s.67,1.23,1.14,1.74c.48.51.98.9,1.53,1.18l-.39.5c-.58-.3-1.11-.73-1.6-1.28-.49-.55-.88-1.19-1.18-1.91-.29-.72-.44-1.46-.44-2.23v-1.33h.52ZM1787.32,1062.4v12.08h-.64v-12.08h.64ZM1789.47,1067.57v.55h-2.31v-.55h2.31Z"/>
        <path class="nm" d="M1794.12,1063.66v1.13c0,.7-.15,1.35-.44,1.96-.29.61-.7,1.13-1.2,1.58-.51.44-1.07.78-1.69,1.01l-.34-.52c.57-.21,1.09-.51,1.57-.9.48-.4.86-.87,1.15-1.41.29-.54.43-1.12.43-1.72v-1.13h.52ZM1797.11,1063.35v.56h-6.41v-.56h6.41ZM1797.98,1070.42c.58.16,1.03.4,1.34.72s.47.7.47,1.15c0,.68-.34,1.21-1.03,1.59-.69.38-1.64.57-2.86.57-.8,0-1.5-.08-2.08-.25-.58-.17-1.03-.42-1.34-.74-.31-.33-.46-.71-.46-1.16s.15-.83.46-1.15c.31-.32.75-.56,1.34-.72.58-.16,1.28-.25,2.08-.25s1.5.08,2.08.25ZM1794.19,1070.91c-.49.13-.87.31-1.13.55-.27.23-.4.51-.4.83,0,.49.29.89.88,1.18s1.38.43,2.37.43,1.78-.14,2.37-.43c.59-.29.89-.68.89-1.18,0-.32-.14-.59-.41-.83s-.65-.42-1.14-.55c-.49-.13-1.06-.2-1.72-.2s-1.22.07-1.71.2ZM1794.22,1063.66v1.12c0,.54.14,1.06.41,1.56.27.5.64.94,1.11,1.31.46.37.97.66,1.52.87l-.31.5c-.61-.22-1.16-.55-1.65-.97s-.89-.91-1.18-1.47-.43-1.16-.43-1.81v-1.12h.53ZM1799.68,1062.4v7.36h-.64v-7.36h.64ZM1801.6,1065.68v.56h-2.1v-.56h2.1Z"/>
        <path class="nm" d="M1807.39,1063.44v10.11h-.48v-10.11h.48Z"/>
        <path class="nm" d="M1823.84,1068.73v.53h-10.91v-.53h10.91ZM1823.17,1063.34v.53h-9.62v-.53h9.62ZM1822.39,1070.23v2.24h-7.39v1.51h-.64v-2.03h7.39v-1.19h-7.43v-.53h8.08ZM1822.78,1073.77v.53h-8.43v-.53h8.43ZM1821.21,1064.89c.65.27.97.67.97,1.2s-.33.92-.97,1.18c-.65.27-1.58.4-2.81.4s-2.17-.13-2.83-.4c-.65-.27-.98-.66-.98-1.18s.32-.93.97-1.2c.65-.27,1.59-.41,2.82-.41s2.17.13,2.82.41ZM1816.09,1065.28c-.55.2-.83.48-.83.83s.27.61.83.8,1.32.29,2.31.29,1.74-.1,2.29-.29.82-.46.82-.8-.28-.63-.83-.83c-.55-.2-1.32-.3-2.3-.3s-1.75.1-2.3.3ZM1818.72,1062.14v1.58h-.64v-1.58h.64ZM1818.72,1067.53v1.43h-.64v-1.43h.64Z"/>
        <path class="nm" d="M1771.78,1081.61v4.07h-4.7v3.51h-.63v-4.09h4.7v-2.94h-4.75v-.56h5.38ZM1770.58,1088.83c.87-.07,1.75-.18,2.66-.35l.07.56c-.94.17-1.85.29-2.73.35-.88.07-1.95.1-3.22.1h-.91v-.56h.91c1.28,0,2.35-.03,3.22-.1ZM1775.1,1080.4v12.08h-.64v-12.08h.64ZM1777.24,1085.37v.57h-2.31v-.57h2.31Z"/>
        <path class="nm" d="M1789.11,1086.72v.56h-10.95v-.56h10.95ZM1785.81,1081.05c.63.2,1.11.47,1.45.83s.5.78.5,1.25-.17.91-.5,1.26c-.34.36-.82.63-1.45.82-.63.19-1.37.29-2.21.29s-1.56-.1-2.18-.29c-.63-.19-1.11-.46-1.45-.82-.34-.35-.51-.77-.51-1.26s.17-.89.51-1.25c.34-.36.82-.64,1.45-.83.62-.2,1.35-.29,2.18-.29s1.57.1,2.21.29ZM1780.28,1088.7v3.08h-.63v-3.08h.63ZM1787.89,1091.59v.59h-8.25v-.59h8.25ZM1781.8,1081.56c-.53.15-.94.37-1.23.64-.29.27-.43.59-.43.95s.14.67.43.95c.29.28.7.49,1.23.63.53.14,1.13.22,1.81.22s1.3-.07,1.82-.22c.52-.14.93-.35,1.22-.63s.44-.59.44-.96-.15-.67-.44-.94c-.29-.27-.7-.48-1.22-.64-.52-.15-1.13-.23-1.82-.23s-1.29.08-1.81.23ZM1784.04,1087.05v2.94h-.66v-2.94h.66Z"/>
        <path class="nm" d="M1794.35,1082.01v2.39c0,.76-.17,1.52-.52,2.28-.35.77-.79,1.45-1.32,2.06s-1.09,1.06-1.66,1.37l-.39-.52c.52-.27,1.04-.69,1.56-1.25.52-.56.95-1.19,1.28-1.9s.5-1.39.5-2.05v-2.39h.55ZM1797.51,1081.69v.56h-6.73v-.56h6.73ZM1794.43,1082.01v2.39c0,.67.17,1.34.51,2,.34.66.77,1.25,1.29,1.76.52.51,1.06.89,1.61,1.14l-.41.53c-.59-.3-1.16-.73-1.7-1.29-.55-.56-.99-1.2-1.34-1.92-.34-.72-.52-1.46-.52-2.22v-2.39h.55ZM1800.16,1080.4v12.08h-.64v-12.08h.64Z"/>
        <path class="nm" d="M1769.61,1099.54v2.45c0,.78-.16,1.57-.48,2.34-.32.78-.74,1.48-1.26,2.09s-1.06,1.09-1.62,1.41l-.42-.53c.52-.28,1.04-.7,1.54-1.27s.92-1.21,1.23-1.93c.32-.71.48-1.42.48-2.12v-2.45h.53ZM1769.69,1099.54v2.45c0,.67.16,1.35.48,2.04.32.69.74,1.3,1.24,1.84.5.54,1.02.95,1.55,1.22l-.42.5c-.57-.31-1.11-.76-1.63-1.34-.52-.59-.94-1.26-1.27-2-.33-.75-.49-1.5-.49-2.25v-2.45h.53ZM1775.08,1098.4v12.08h-.64v-12.08h.64ZM1777.24,1103.47v.57h-2.31v-.57h2.31Z"/>
        <path class="nm" d="M1789.11,1105.61v.56h-10.95v-.56h10.95ZM1787.61,1099.14v4.58h-7.97v-4.58h7.97ZM1780.28,1099.69v3.51h6.71v-3.51h-6.71ZM1783.93,1105.92v4.56h-.63v-4.56h.63Z"/>
        <path class="nm" d="M1794.32,1098.81v.92c0,.72-.15,1.4-.46,2.03-.31.63-.72,1.19-1.23,1.67-.51.48-1.08.84-1.69,1.11l-.35-.53c.57-.21,1.1-.54,1.58-.97.49-.43.88-.93,1.17-1.5.29-.57.44-1.17.44-1.8v-.92h.54ZM1800.19,1105.43v2.63h-6.96v1.97h-.62v-2.49h6.94v-1.55h-6.99v-.56h7.62ZM1800.67,1109.76v.55h-8.06v-.55h8.06ZM1794.4,1098.81v.92c0,.59.15,1.16.45,1.7.3.55.7,1.02,1.19,1.42.49.4,1.02.71,1.58.92l-.34.52c-.62-.24-1.2-.59-1.71-1.04s-.93-.97-1.24-1.58c-.31-.61-.46-1.25-.46-1.95v-.92h.53ZM1800.19,1098.4v6.36h-.64v-6.36h.64Z"/>
        <path class="nm" d="M1770.94,1117.93v.55h-3.85v6.51h-.64v-7.06h4.49ZM1769.73,1124.68c.66-.05,1.31-.15,1.97-.3l.1.56c-.68.15-1.36.25-2.02.3-.67.05-1.53.08-2.6.08h-.73v-.56h.73c1.04,0,1.9-.03,2.55-.08ZM1773.3,1116.72v11.1h-.62v-11.1h.62ZM1775.66,1121.39v.56h-2.56v-.56h2.56ZM1776.08,1116.4v12.08h-.63v-12.08h.63Z"/>
        <path class="nm" d="M1789.12,1126.34v.56h-10.96v-.56h10.96ZM1788.01,1117.63v.56h-8.79v-.56h8.79ZM1788.01,1122.49v.56h-8.78v-.56h8.78ZM1781.92,1118.05v4.62h-.66v-4.62h.66ZM1782.11,1122.93v3.58h-.66v-3.58h.66ZM1785.77,1122.93v3.58h-.64v-3.58h.64ZM1785.95,1118.05v4.62h-.63v-4.62h.63Z"/>
        <path class="nm" d="M1794.32,1116.81v.92c0,.72-.15,1.4-.46,2.03-.31.63-.72,1.19-1.23,1.67-.51.48-1.08.84-1.69,1.11l-.35-.53c.57-.21,1.1-.54,1.58-.97.49-.43.88-.93,1.17-1.5.29-.57.44-1.17.44-1.8v-.92h.54ZM1800.19,1123.43v2.63h-6.96v1.97h-.62v-2.49h6.94v-1.55h-6.99v-.56h7.62ZM1800.67,1127.76v.55h-8.06v-.55h8.06ZM1794.4,1116.81v.92c0,.59.15,1.16.45,1.7.3.55.7,1.02,1.19,1.42.49.4,1.02.71,1.58.92l-.34.52c-.62-.24-1.2-.59-1.71-1.04s-.93-.97-1.24-1.58c-.31-.61-.46-1.25-.46-1.95v-.92h.53ZM1800.19,1116.4v6.36h-.64v-6.36h.64Z"/>
      </g>
      <g>
        <path class="nm" d="M1755.03,1073.55h-.67v-9.35l-1.26.87-.36-.49,1.62-1.13h.67v10.11Z"/>
        <path class="nm" d="M1751.93,1090.31c.2-.19.43-.41.68-.65.84-.79,1.51-1.46,2.02-1.99.51-.53.94-1.09,1.31-1.67s.55-1.12.55-1.61-.09-.9-.28-1.27-.45-.67-.78-.88c-.33-.21-.71-.32-1.13-.32-.47,0-.91.16-1.34.48-.42.32-.75.73-.96,1.24l-.63-.27c.26-.61.66-1.1,1.2-1.48.54-.38,1.12-.57,1.72-.57.55,0,1.04.13,1.47.39.43.26.77.63,1.01,1.09.25.47.37.99.37,1.58s-.19,1.18-.57,1.81-.84,1.23-1.38,1.79c-.54.56-1.23,1.25-2.09,2.05-.59.55-1.04.98-1.36,1.3l-.48-.39c.23-.24.45-.46.65-.65ZM1751.27,1090.96h6.02v.59h-5.94l-.08-.59Z"/>
        <path class="nm" d="M1756.95,1105.25c.33.44.5.92.5,1.43,0,.57-.14,1.08-.41,1.53s-.65.8-1.13,1.06-1.03.38-1.64.38-1.17-.13-1.65-.38-.86-.6-1.13-1.06-.41-.96-.41-1.53h.67c0,.46.11.87.32,1.23s.51.64.9.84c.38.2.81.3,1.29.3s.92-.1,1.3-.29.68-.46.89-.79.32-.72.32-1.16-.11-.8-.32-1.13-.5-.59-.88-.78c-.38-.19-.8-.28-1.28-.28h-.41v-.62h.39c.45,0,.85-.09,1.21-.26s.64-.41.84-.72c.2-.31.3-.66.3-1.05,0-.6-.21-1.09-.64-1.47-.43-.38-.98-.57-1.65-.57-.44,0-.83.09-1.19.27-.36.18-.63.44-.82.77-.19.33-.29.71-.29,1.13h-.67c0-.53.13-1.01.38-1.43s.6-.75,1.05-.99c.45-.24.96-.36,1.54-.36s1.09.12,1.54.36c.45.24.8.57,1.05.99.25.42.38.9.38,1.43,0,.43-.15.85-.45,1.27s-.69.73-1.16.94c.5.19.92.5,1.25.94Z"/>
        <path class="nm" d="M1756.13,1123.98h1.64v.6h-1.64v2.97h-.67v-2.97h-4.61l-.1-.62,4.7-6.52h.67v6.54ZM1755.46,1123.98v-5.38l-3.88,5.38h3.88Z"/>
      </g>
    </g>
    <path class="nm" d="M1111.12,754.14h-.58v-8.02l-1.08.74-.31-.42,1.39-.97h.58v8.66Z"/>
    <path class="nm" d="M923.17,753.08c.17-.16.37-.35.58-.56.72-.68,1.3-1.25,1.73-1.7.44-.46.81-.93,1.12-1.43.31-.5.47-.96.47-1.38s-.08-.77-.24-1.09c-.16-.32-.38-.57-.67-.75-.28-.18-.61-.27-.97-.27-.4,0-.78.14-1.15.41-.36.28-.64.63-.82,1.06l-.54-.23c.22-.52.57-.94,1.03-1.27.46-.33.96-.49,1.48-.49.47,0,.89.11,1.26.34s.66.54.87.94c.21.4.32.85.32,1.36s-.16,1.01-.49,1.55c-.33.54-.72,1.05-1.18,1.54-.46.48-1.06,1.07-1.79,1.76-.5.47-.89.84-1.16,1.12l-.41-.34c.2-.21.39-.39.56-.56ZM922.62,753.64h5.16v.5h-5.09l-.07-.5Z"/>
    <path class="nm" d="M892.66,595.16c.28.38.43.78.43,1.22,0,.49-.12.93-.35,1.31-.23.39-.55.69-.97.91-.41.22-.88.32-1.41.32s-1-.11-1.41-.32-.73-.52-.97-.91c-.23-.39-.35-.83-.35-1.31h.58c0,.39.09.74.28,1.05.18.31.44.55.77.72.33.17.7.26,1.1.26s.79-.08,1.12-.25.58-.39.76-.68c.18-.29.27-.62.27-1s-.09-.68-.27-.97c-.18-.28-.43-.51-.76-.67-.32-.16-.69-.24-1.1-.24h-.35v-.53h.34c.38,0,.73-.07,1.04-.22.31-.15.55-.35.72-.62.17-.26.26-.56.26-.9,0-.51-.18-.93-.55-1.26s-.84-.49-1.42-.49c-.38,0-.72.08-1.02.23-.3.16-.54.38-.7.66-.16.28-.25.61-.25.97h-.58c0-.46.11-.86.32-1.22.22-.36.52-.64.9-.85.38-.2.82-.31,1.32-.31s.94.1,1.32.31.68.49.9.85c.22.36.32.77.32,1.22,0,.37-.13.73-.38,1.09-.26.36-.59.63-1,.81.43.16.79.43,1.07.8Z"/>
    <path class="nm" d="M855.62,274.43h1.4v.52h-1.4v2.54h-.58v-2.54h-3.95l-.08-.53,4.03-5.59h.58v5.6ZM855.05,274.43v-4.61l-3.32,4.61h3.32Z"/>
    <path class="nm" d="M892.66,440.71c.28.38.43.78.43,1.22,0,.49-.12.93-.35,1.31-.23.39-.55.69-.97.91-.41.22-.88.32-1.41.32s-1-.11-1.41-.32-.73-.52-.97-.91c-.23-.39-.35-.83-.35-1.31h.58c0,.39.09.74.28,1.05.18.31.44.55.77.72.33.17.7.26,1.1.26s.79-.08,1.12-.25.58-.39.76-.68c.18-.29.27-.62.27-1s-.09-.68-.27-.97c-.18-.28-.43-.51-.76-.67-.32-.16-.69-.24-1.1-.24h-.35v-.53h.34c.38,0,.73-.07,1.04-.22.31-.15.55-.35.72-.62.17-.26.26-.56.26-.9,0-.51-.18-.93-.55-1.26s-.84-.49-1.42-.49c-.38,0-.72.08-1.02.23-.3.16-.54.38-.7.66-.16.28-.25.61-.25.97h-.58c0-.46.11-.86.32-1.22.22-.36.52-.64.9-.85.38-.2.82-.31,1.32-.31s.94.1,1.32.31.68.49.9.85c.22.36.32.77.32,1.22,0,.37-.13.73-.38,1.09-.26.36-.59.63-1,.81.43.16.79.43,1.07.8Z"/>
    <path class="nm" d="M923.17,904.57c.17-.16.37-.35.58-.56.72-.68,1.3-1.25,1.73-1.7.44-.46.81-.93,1.12-1.43.31-.5.47-.96.47-1.38s-.08-.77-.24-1.09c-.16-.32-.38-.57-.67-.75-.28-.18-.61-.27-.97-.27-.4,0-.78.14-1.15.41-.36.28-.64.63-.82,1.06l-.54-.23c.22-.52.57-.94,1.03-1.27.46-.33.96-.49,1.48-.49.47,0,.89.11,1.26.34s.66.54.87.94c.21.4.32.85.32,1.36s-.16,1.01-.49,1.55c-.33.54-.72,1.05-1.18,1.54-.46.48-1.06,1.07-1.79,1.76-.5.47-.89.84-1.16,1.12l-.41-.34c.2-.21.39-.39.56-.56ZM922.62,905.12h5.16v.5h-5.09l-.07-.5Z"/>
  </g>
</svg>