<?xml version="1.0" encoding="UTF-8"?>
<svg xmlns="http://www.w3.org/2000/svg" viewBox="0 0 2000 1250">
  <defs>
    <style>
      .nk, .nl, .nm, .nn, .no, .np, .nq, .nr, .ns, .nt, .nu, .nv, .nw, .nx, .ny, .nz, .oa {
        stroke: #000;
      }

      .nk, .nl, .nn, .no, .np, .nq, .nr, .nt, .nu, .nv, .nw, .nx, .ny, .nz {
        fill: none;
      }

      .nk, .nl, .nn, .no, .np, .nq, .nr, .nt, .nu, .nv, .nw, .nx, .ny, .nz, .oa {
        stroke-miterlimit: 10;
      }

      .nk, .ns {
        stroke-width: .5px;
      }

      .nm {
        stroke-width: .34px;
      }

      .nn {
        stroke-width: .75px;
      }

      .no {
        stroke-width: .85px;
      }

      .np {
        stroke-dasharray: 2 1;
      }

      .np, .nt, .nw, .nz {
        stroke-width: .25px;
      }

      .nq {
        stroke-dasharray: 1.97 .98;
      }

      .nq, .nu {
        stroke-width: .4px;
      }

      .nr, .oa {
        stroke-width: .15px;
      }

      .nt {
        stroke-dasharray: 1.98 .99;
      }

      .nv {
        stroke-width: 2px;
      }

      .nx {
        stroke-width: .6px;
      }

      .ny {
        stroke-width: .9px;
      }

      .nz {
        stroke-dasharray: 2.01 1;
      }

      .oa {
        fill: #d6d6d6;
        fill-rule: evenodd;
      }
    </style>
  </defs>
  <g id="aw" data-name="sec">
    <g id="ax" data-name="HATCH">
      <path class="oa" d="M791.65,494.9h368.5v-13.04h-5.67v5.67h-357.17v-5.67h-5.67v13.04M791.65,331.63h368.5s0-7.37,0-7.37h-52.44v-10.77h-11.34v10.77h-144.57v-10.77h-8.5v10.77h-145.98v-5.67h-5.67v13.04M1154.49,642.31h-357.17s0-5.67,0-5.67h-5.67v13.04h19.84v20.98h17.01v-20.98h192.76v20.98h17.01v-20.98h130.39v20.98s17.01,0,17.01,0v-34.02h-31.18v5.67M1186.09,808.42h-397.28v185.95s17.01,0,17.01,0v-17.01h215.43v17.01h17.01v-17.01h218.27v17.01h17.01v-185.95h-11.34v111.97h-19.46v8.5h-53.67v8.5s-15.02,0-15.02,0v8.5s-15.02,0-15.02,0v8.5h-15.02v11.62h-335.34v-7.09h-5.67v7.09h-2.83v-150.24h221.1v20.98h17.01v-20.98h147.83v-7.37M1159.86,966.02l45.07-28.63h57.27v28.63h-102.34M951.81,172.89h-160.16v-5.67h160.16v5.67Z"/>
    </g>
    <g id="ay" data-name="HATCH">
      <path class="nr" d="M1104.88,247.72h-5.67v65.76s5.67,0,5.67,0v-65.76M797.32,172.89h-5.67v25.51s5.67,0,5.67,0v-25.51M797.32,331.63h-5.67v26.65s5.67,0,5.67,0v-26.65M797.32,442.18h-5.67v39.69h5.67v-39.69M791.65,513.05h5.67v-18.14h-5.67v18.14M791.65,636.64h5.67v-39.69h-5.67v39.69M791.65,669.52h5.67v-19.84h-5.67v19.84M802.99,958.94h5.67v-143.15h-5.67v143.15M1273.54,643.58h-11.34v164.84s11.34,0,11.34,0v-164.84Z"/>
      <path class="nr" d="M791.65,173.27l.38-.38M791.65,178.36l5.47-5.47M791.65,183.45l5.67-5.67M791.65,188.55l5.67-5.67M791.65,193.64l5.67-5.67M791.98,198.4l5.34-5.34M797.07,198.4l.25-.25M791.65,336.19l4.56-4.56M791.65,341.28l5.67-5.67M791.65,346.37l5.67-5.67M791.65,351.46l5.67-5.67M791.65,356.55l5.67-5.67M795.02,358.28l2.3-2.3M791.65,443.1l.92-.92M791.65,448.2l5.67-5.67M791.65,453.29l5.67-5.67M791.65,458.38l5.67-5.67M791.65,463.47l5.67-5.67M791.65,468.56l5.67-5.67M791.65,473.65l5.67-5.67M791.65,478.74l5.67-5.67M793.62,481.87l3.7-3.7M791.65,499.11l4.2-4.2M791.65,504.2l5.67-5.67M791.65,509.29l5.67-5.67M792.99,513.05l4.34-4.34M1099.21,252.64l4.92-4.92M1099.21,257.73l5.67-5.67M1099.21,262.82l5.67-5.67M1099.21,267.92l5.67-5.67M1099.21,273.01l5.67-5.67M1099.21,278.1l5.67-5.67M1099.21,283.19l5.67-5.67M1099.21,288.28l5.67-5.67M791.65,600.93l3.98-3.98M1099.21,293.37l5.67-5.67M791.65,606.02l5.67-5.67M1099.21,298.46l5.67-5.67M791.65,611.11l5.67-5.67M1099.21,303.55l5.67-5.67M791.65,616.2l5.67-5.67M1099.21,308.65l5.67-5.67M791.65,621.3l5.67-5.67M1099.46,313.49l5.42-5.42M791.65,626.39l5.67-5.67M1104.55,313.49l.33-.33M791.65,631.48l5.67-5.67M791.65,636.57l5.67-5.67M796.68,636.64l.65-.65M791.65,651.84l2.17-2.17M791.65,656.93l5.67-5.67M791.65,662.02l5.67-5.67M791.65,667.12l5.67-5.67M794.34,669.52l2.98-2.98M802.99,818.69l2.91-2.91M802.99,823.79l5.67-5.67M802.99,828.88l5.67-5.67M802.99,833.97l5.67-5.67M802.99,839.06l5.67-5.67M802.99,844.15l5.67-5.67M802.99,849.24l5.67-5.67M802.99,854.33l5.67-5.67M802.99,859.42l5.67-5.67M802.99,864.52l5.67-5.67M802.99,869.61l5.67-5.67M802.99,874.7l5.67-5.67M802.99,879.79l5.67-5.67M802.99,884.88l5.67-5.67M802.99,889.97l5.67-5.67M802.99,895.06l5.67-5.67M802.99,900.15l5.67-5.67M802.99,905.24l5.67-5.67M802.99,910.34l5.67-5.67M802.99,915.43l5.67-5.67M802.99,920.52l5.67-5.67M802.99,925.61l5.67-5.67M802.99,930.7l5.67-5.67M802.99,935.79l5.67-5.67M802.99,940.88l5.67-5.67M802.99,945.97l5.67-5.67M802.99,951.07l5.67-5.67M802.99,956.16l5.67-5.67M805.3,958.94l3.36-3.36M1262.2,644.59l1.01-1.01M1262.2,649.68l6.1-6.1M1262.2,654.77l11.19-11.19M1262.2,659.86l11.34-11.34M1262.2,664.95l11.34-11.34M1262.2,670.04l11.34-11.34M1262.2,675.13l11.34-11.34M1262.2,680.23l11.34-11.34M1262.2,685.32l11.34-11.34M1262.2,690.41l11.34-11.34M1262.2,695.5l11.34-11.34M1262.2,700.59l11.34-11.34M1262.2,705.68l11.34-11.34M1262.2,710.77l11.34-11.34M1262.2,715.86l11.34-11.34M1262.2,720.96l11.34-11.34M1262.2,726.05l11.34-11.34M1262.2,731.14l11.34-11.34M1262.2,736.23l11.34-11.34M1262.2,741.32l11.34-11.34M1262.2,746.41l11.34-11.34M1262.2,751.5l11.34-11.34M1262.2,756.59l11.34-11.34M1262.2,761.68l11.34-11.34M1262.2,766.78l11.34-11.34M1262.2,771.87l11.34-11.34M1262.2,776.96l11.34-11.34M1262.2,782.05l11.34-11.34M1262.2,787.14l11.34-11.34M1262.2,792.23l11.34-11.34M1262.2,797.32l11.34-11.34M1262.2,802.41l11.34-11.34M1262.2,807.5l11.34-11.34M1266.38,808.42l7.16-7.16M1271.48,808.42l2.07-2.07"/>
    </g>
    <g id="az" data-name="LWPOLYLINE">
      <polyline class="nw" points="1187.37 814.65 1187.37 763.63 1186.8 763.63 1186.8 814.65"/>
    </g>
    <g id="ba" data-name="LWPOLYLINE">
      <rect class="nw" x="1033.73" y="671.22" width=".57" height="134.93"/>
    </g>
    <g id="bb" data-name="LINE">
      <line class="nw" x1="791.09" y1="592.13" x2="791.09" y2="517.87"/>
    </g>
    <g id="bc" data-name="LINE">
      <line class="nw" x1="789.52" y1="591.28" x2="789.51" y2="518.72"/>
    </g>
    <g id="bd" data-name="LWPOLYLINE">
      <rect class="nw" x="1111.4" y="827.69" width=".57" height="130.11"/>
    </g>
    <g id="be" data-name="LWPOLYLINE">
      <line class="nw" x1="1184.97" y1="630.6" x2="1262.16" y2="637.84"/>
    </g>
    <g id="bf" data-name="LWPOLYLINE">
      <line class="nw" x1="1183.66" y1="632.36" x2="1263.12" y2="639.81"/>
    </g>
    <g id="bg" data-name="LINE">
      <line class="nw" x1="791.09" y1="806.43" x2="791.09" y2="671.5"/>
    </g>
    <g id="bh" data-name="LINE">
      <line class="nw" x1="789.52" y1="805.58" x2="789.52" y2="672.35"/>
    </g>
    <g id="bi" data-name="LINE">
      <line class="nw" x1="791.09" y1="437.36" x2="791.09" y2="363.09"/>
    </g>
    <g id="bj" data-name="LINE">
      <line class="nw" x1="789.52" y1="436.51" x2="789.51" y2="363.94"/>
    </g>
    <g id="bk" data-name="LINE">
      <line class="nw" x1="949.54" y1="311.5" x2="949.54" y2="174.87"/>
    </g>
    <g id="bl" data-name="LINE">
      <line class="nw" x1="951.12" y1="175.72" x2="951.12" y2="310.65"/>
    </g>
    <g id="bm" data-name="LINE">
      <line class="nw" x1="791.09" y1="316.61" x2="791.09" y2="275.22"/>
    </g>
    <g id="bn" data-name="LINE">
      <line class="nw" x1="791.09" y1="274.09" x2="791.09" y2="202.09"/>
    </g>
    <g id="bo" data-name="LINE">
      <line class="nw" x1="789.52" y1="315.76" x2="789.52" y2="276.07"/>
    </g>
    <g id="bp" data-name="LINE">
      <line class="nw" x1="789.52" y1="273.24" x2="789.52" y2="202.94"/>
    </g>
    <g id="bq" data-name="LWPOLYLINE">
      <polyline class="nw" points="1273.54 643.58 1284.88 643.58 1284.88 812.39"/>
    </g>
    <g id="br" data-name="LWPOLYLINE">
      <polyline class="nw" points="1034.3 781.2 1039.02 781.2 1039.02 713.17 1034.3 713.17"/>
    </g>
    <g id="bs" data-name="LWPOLYLINE">
      <polyline class="nw" points="1034.3 714.59 1037.61 714.59 1037.61 779.79 1034.3 779.79"/>
    </g>
    <g id="bt" data-name="LWPOLYLINE">
      <polyline class="nw" points="1033.73 714.59 1030.42 714.59 1030.42 779.79 1033.73 779.79"/>
    </g>
    <g id="bu" data-name="LWPOLYLINE">
      <polyline class="nw" points="1033.73 781.2 1029.01 781.2 1029.01 713.17 1033.73 713.17"/>
    </g>
    <g id="bv" data-name="LWPOLYLINE">
      <polyline class="nw" points="1111.97 924.35 1116.69 924.35 1116.69 856.32 1111.97 856.32"/>
    </g>
    <g id="bw" data-name="LWPOLYLINE">
      <polyline class="nw" points="1111.97 857.74 1115.28 857.74 1115.28 922.94 1111.97 922.94"/>
    </g>
    <g id="bx" data-name="LWPOLYLINE">
      <polyline class="nw" points="1111.4 857.74 1108.09 857.74 1108.09 922.94 1111.4 922.94"/>
    </g>
    <g id="by" data-name="LWPOLYLINE">
      <polyline class="nw" points="1111.4 924.35 1106.68 924.35 1106.68 856.32 1111.4 856.32"/>
    </g>
    <g id="bz" data-name="LWPOLYLINE">
      <rect class="nw" x="1009.92" y="637.77" width="8.5" height="2.83"/>
    </g>
    <g id="ca" data-name="LWPOLYLINE">
      <polyline class="nw" points="1018.99 505.68 1018.99 640.04 1022.68 640.04"/>
    </g>
    <g id="cb" data-name="LWPOLYLINE">
      <polyline class="nw" points="814.33 640.04 864.22 640.04 864.22 505.68"/>
    </g>
    <g id="cc" data-name="LWPOLYLINE">
      <polyline class="nw" points="915.24 505.68 915.24 640.04 865.35 640.04 865.35 505.68"/>
    </g>
    <g id="cd" data-name="LWPOLYLINE">
      <line class="nw" x1="1018.43" y1="508.51" x2="1018.43" y2="637.77"/>
    </g>
    <g id="ce" data-name="LWPOLYLINE">
      <polyline class="nw" points="1009.92 640.04 967.4 640.04 967.4 505.68"/>
    </g>
    <g id="cf" data-name="LWPOLYLINE">
      <polyline class="nw" points="966.27 505.68 966.27 640.04 916.38 640.04 916.38 505.68"/>
    </g>
    <g id="cg" data-name="LWPOLYLINE">
      <rect class="nw" x="1009.92" y="505.68" width="8.5" height="2.83"/>
    </g>
    <g id="ch" data-name="LWPOLYLINE">
      <rect class="nw" x="970.99" y="538.84" width="1.42" height="68.03"/>
    </g>
    <g id="ci" data-name="LWPOLYLINE">
      <line class="nw" x1="859.69" y1="761.36" x2="859.69" y2="670.65"/>
    </g>
    <g id="cj" data-name="LWPOLYLINE">
      <line class="nw" x1="892.57" y1="761.36" x2="892.57" y2="670.65"/>
    </g>
    <g id="ck" data-name="LWPOLYLINE">
      <line class="nw" x1="829.64" y1="679.16" x2="859.69" y2="679.16"/>
    </g>
    <g id="cl" data-name="LWPOLYLINE">
      <line class="nw" x1="859.69" y1="798.21" x2="829.64" y2="798.21"/>
    </g>
    <g id="cm" data-name="LWPOLYLINE">
      <polyline class="nw" points="829.64 680.86 857.98 680.86 857.98 796.51 829.64 796.51"/>
    </g>
    <g id="cn" data-name="LWPOLYLINE">
      <polyline class="nw" points="1018.99 350.9 1018.99 485.27 1022.68 485.27"/>
    </g>
    <g id="co" data-name="LWPOLYLINE">
      <polyline class="nw" points="814.33 485.27 864.22 485.27 864.22 350.9"/>
    </g>
    <g id="cp" data-name="LWPOLYLINE">
      <polyline class="nw" points="915.24 350.9 915.24 485.27 865.35 485.27 865.35 350.9"/>
    </g>
    <g id="cq" data-name="LWPOLYLINE">
      <line class="nw" x1="1018.43" y1="353.74" x2="1018.43" y2="483"/>
    </g>
    <g id="cr" data-name="LWPOLYLINE">
      <polyline class="nw" points="1009.92 485.27 967.4 485.27 967.4 350.9"/>
    </g>
    <g id="cs" data-name="LWPOLYLINE">
      <polyline class="nw" points="966.27 350.9 966.27 485.27 916.38 485.27 916.38 350.9"/>
    </g>
    <g id="ct" data-name="LWPOLYLINE">
      <rect class="nw" x="1009.92" y="350.9" width="8.5" height="2.83"/>
    </g>
    <g id="cu" data-name="LWPOLYLINE">
      <rect class="nw" x="970.99" y="384.07" width="1.42" height="68.03"/>
    </g>
    <g id="cv" data-name="LWPOLYLINE">
      <rect class="nw" x="1009.92" y="483" width="8.5" height="2.83"/>
    </g>
    <g id="cw" data-name="LINE">
      <line class="nw" x1="1094.96" y1="246.02" x2="951.81" y2="246.02"/>
    </g>
    <g id="cx" data-name="LINE">
      <line class="nw" x1="1094.96" y1="247.72" x2="951.81" y2="247.72"/>
    </g>
    <g id="cy" data-name="LWPOLYLINE">
      <line class="nw" x1="1038.27" y1="839.31" x2="1089.29" y2="839.31"/>
    </g>
    <g id="cz" data-name="LWPOLYLINE">
      <rect class="nw" x="1039.97" y="841.02" width="47.62" height="115.65"/>
    </g>
    <g id="da" data-name="LWPOLYLINE">
      <rect class="nw" x="1043.37" y="844.42" width="40.82" height="108.85"/>
    </g>
    <g id="db" data-name="LWPOLYLINE">
      <g>
        <line class="nw" x1="1039.97" y1="841.02" x2="1040.6" y2="841.79"/>
        <line class="np" x1="1041.24" y1="842.56" x2="1086.64" y2="897.68"/>
        <polyline class="nw" points="1086.95 898.07 1087.59 898.84 1086.95 899.61"/>
        <line class="np" x1="1086.32" y1="900.38" x2="1040.92" y2="955.51"/>
        <line class="nw" x1="1040.6" y1="955.9" x2="1039.97" y2="956.67"/>
      </g>
    </g>
    <g id="dc" data-name="LWPOLYLINE">
      <g>
        <line class="nw" x1="829.64" y1="696.78" x2="830.2" y2="697.61"/>
        <line class="nt" x1="830.75" y1="698.43" x2="857.15" y2="737.45"/>
        <polyline class="nw" points="857.42 737.86 857.98 738.68 857.42 739.51"/>
        <line class="nt" x1="856.87" y1="740.33" x2="830.48" y2="779.35"/>
        <line class="nw" x1="830.2" y1="779.76" x2="829.64" y2="780.59"/>
      </g>
    </g>
    <g id="dd" data-name="LWPOLYLINE">
      <g>
        <line class="nw" x1="967.4" y1="505.68" x2="968.01" y2="506.47"/>
        <line class="nz" x1="968.61" y1="507.27" x2="1017.52" y2="571.66"/>
        <polyline class="nw" points="1017.82 572.06 1018.43 572.86 1017.82 573.65"/>
        <line class="nz" x1="1017.21" y1="574.45" x2="968.31" y2="638.84"/>
        <line class="nw" x1="968.01" y1="639.24" x2="967.4" y2="640.04"/>
      </g>
    </g>
    <g id="de" data-name="LWPOLYLINE">
      <g>
        <line class="nw" x1="967.4" y1="350.91" x2="968.01" y2="351.7"/>
        <line class="nz" x1="968.61" y1="352.5" x2="1017.52" y2="416.89"/>
        <polyline class="nw" points="1017.82 417.29 1018.43 418.09 1017.82 418.88"/>
        <line class="nz" x1="1017.21" y1="419.68" x2="968.31" y2="484.07"/>
        <line class="nw" x1="968.01" y1="484.47" x2="967.4" y2="485.27"/>
      </g>
    </g>
    <g id="df" data-name="LWPOLYLINE">
      <rect class="nw" x="914.96" y="319.16" width="8.5" height="2.83"/>
    </g>
    <g id="dg" data-name="LINE">
      <line class="nw" x1="923.46" y1="189.9" x2="923.46" y2="319.16"/>
    </g>
    <g id="dh" data-name="LWPOLYLINE">
      <rect class="nw" x="914.96" y="187.06" width="8.5" height="2.83"/>
    </g>
    <g id="di" data-name="LWPOLYLINE">
      <polyline class="nw" points="914.96 321.99 878.11 321.99 878.11 187.06 914.96 187.06"/>
    </g>
    <g id="dj" data-name="LWPOLYLINE">
      <rect class="nw" x="881.7" y="220.79" width="1.42" height="68.03"/>
    </g>
    <g id="dk" data-name="LWPOLYLINE">
      <polyline class="nw" points="929.13 187.06 924.03 187.06 924.03 321.99 929.13 321.99"/>
    </g>
    <g id="dl" data-name="LWPOLYLINE">
      <polyline class="nw" points="812.91 321.99 835.02 321.99 835.02 187.06 812.91 187.06"/>
    </g>
    <g id="dm" data-name="LWPOLYLINE">
      <rect class="nw" x="1120.47" y="841.02" width="50.46" height="81.64"/>
    </g>
    <g id="dn" data-name="LINE">
      <line class="nw" x1="1097.8" y1="842.15" x2="1097.8" y2="921.52"/>
    </g>
    <g id="do" data-name="LWPOLYLINE">
      <rect class="nw" x="1123.87" y="844.42" width="43.65" height="74.83"/>
    </g>
    <g id="dp" data-name="LWPOLYLINE">
      <rect class="nu" x="791.65" y="591.28" width="5.67" height="2.83"/>
    </g>
    <g id="dq" data-name="LWPOLYLINE">
      <polyline class="nu" points="791.65 592.13 790.52 592.13 790.52 593.27 791.65 593.27"/>
    </g>
    <g id="dr" data-name="LINE">
      <line class="nu" x1="790.52" y1="592.7" x2="788.82" y2="592.7"/>
    </g>
    <g id="ds" data-name="LWPOLYLINE">
      <polyline class="nu" points="789.52 591.28 788.82 591.28 788.82 594.12 789.51 594.12"/>
    </g>
    <g id="dt" data-name="LWPOLYLINE">
      <rect class="nu" x="791.65" y="669.52" width="5.67" height="2.83"/>
    </g>
    <g id="du" data-name="LWPOLYLINE">
      <polyline class="nu" points="791.65 670.37 790.52 670.37 790.52 671.5 791.65 671.5"/>
    </g>
    <g id="dv" data-name="LINE">
      <line class="nu" x1="790.52" y1="670.94" x2="788.82" y2="670.94"/>
    </g>
    <g id="dw" data-name="LWPOLYLINE">
      <polyline class="nu" points="789.52 669.52 788.82 669.52 788.82 672.35 789.51 672.35"/>
    </g>
    <g id="dx" data-name="LWPOLYLINE">
      <rect class="nu" x="791.65" y="805.58" width="5.67" height="2.83"/>
    </g>
    <g id="dy" data-name="LWPOLYLINE">
      <polyline class="nu" points="791.65 806.43 790.52 806.43 790.52 807.57 791.65 807.57"/>
    </g>
    <g id="dz" data-name="LINE">
      <line class="nu" x1="790.52" y1="807" x2="788.82" y2="807"/>
    </g>
    <g id="ea" data-name="LWPOLYLINE">
      <polyline class="nu" points="789.52 805.58 788.82 805.58 788.82 808.42 789.51 808.42"/>
    </g>
    <g id="eb" data-name="LWPOLYLINE">
      <rect class="nu" x="791.65" y="515.88" width="5.67" height="2.83"/>
    </g>
    <g id="ec" data-name="LWPOLYLINE">
      <polyline class="nu" points="791.65 516.73 790.52 516.73 790.52 517.87 791.65 517.87"/>
    </g>
    <g id="ed" data-name="LINE">
      <line class="nu" x1="790.52" y1="517.3" x2="788.82" y2="517.3"/>
    </g>
    <g id="ee" data-name="LWPOLYLINE">
      <polyline class="nu" points="789.52 515.88 788.82 515.88 788.82 518.72 789.51 518.72"/>
    </g>
    <g id="ef" data-name="LWPOLYLINE">
      <rect class="nu" x="791.65" y="436.51" width="5.67" height="2.83"/>
    </g>
    <g id="eg" data-name="LWPOLYLINE">
      <polyline class="nu" points="791.65 437.36 790.52 437.36 790.52 438.5 791.65 438.5"/>
    </g>
    <g id="eh" data-name="LINE">
      <line class="nu" x1="790.52" y1="437.93" x2="788.82" y2="437.93"/>
    </g>
    <g id="ei" data-name="LWPOLYLINE">
      <polyline class="nu" points="789.52 436.51 788.82 436.51 788.82 439.35 789.51 439.35"/>
    </g>
    <g id="ej" data-name="LWPOLYLINE">
      <rect class="nu" x="791.65" y="361.11" width="5.67" height="2.83"/>
    </g>
    <g id="ek" data-name="LWPOLYLINE">
      <polyline class="nu" points="791.65 361.96 790.52 361.96 790.52 363.09 791.65 363.09"/>
    </g>
    <g id="el" data-name="LINE">
      <line class="nu" x1="790.52" y1="362.53" x2="788.82" y2="362.53"/>
    </g>
    <g id="em" data-name="LWPOLYLINE">
      <polyline class="nu" points="789.52 361.11 788.82 361.11 788.82 363.94 789.51 363.94"/>
    </g>
    <g id="en" data-name="LWPOLYLINE">
      <rect class="nu" x="943.31" y="310.65" width="5.67" height="2.83"/>
    </g>
    <g id="eo" data-name="LWPOLYLINE">
      <polyline class="nu" points="948.98 312.64 950.11 312.64 950.11 311.5 948.98 311.5"/>
    </g>
    <g id="ep" data-name="LINE">
      <line class="nu" x1="950.11" y1="312.07" x2="951.81" y2="312.07"/>
    </g>
    <g id="eq" data-name="LWPOLYLINE">
      <polyline class="nu" points="951.11 313.49 951.81 313.49 951.81 310.65 951.12 310.65"/>
    </g>
    <g id="er" data-name="LWPOLYLINE">
      <rect class="nu" x="943.31" y="172.89" width="5.67" height="2.83"/>
    </g>
    <g id="es" data-name="LWPOLYLINE">
      <polyline class="nu" points="948.98 174.87 950.11 174.87 950.11 173.74 948.98 173.74"/>
    </g>
    <g id="et" data-name="LINE">
      <line class="nu" x1="950.11" y1="174.31" x2="951.81" y2="174.31"/>
    </g>
    <g id="eu" data-name="LWPOLYLINE">
      <polyline class="nu" points="951.11 175.72 951.81 175.72 951.81 172.89 951.12 172.89"/>
    </g>
    <g id="ev" data-name="LWPOLYLINE">
      <rect class="nu" x="791.65" y="315.76" width="5.67" height="2.83"/>
    </g>
    <g id="ew" data-name="LWPOLYLINE">
      <polyline class="nu" points="791.65 316.61 790.52 316.61 790.52 317.74 791.65 317.74"/>
    </g>
    <g id="ex" data-name="LINE">
      <line class="nu" x1="790.52" y1="317.17" x2="788.82" y2="317.17"/>
    </g>
    <g id="ey" data-name="LWPOLYLINE">
      <polyline class="nu" points="789.52 315.76 788.82 315.76 788.82 318.59 789.51 318.59"/>
    </g>
    <g id="ez" data-name="LWPOLYLINE">
      <rect class="nu" x="791.65" y="201.24" width="5.67" height="2.83"/>
    </g>
    <g id="fa" data-name="LWPOLYLINE">
      <polyline class="nu" points="791.65 202.09 790.52 202.09 790.52 203.22 791.65 203.22"/>
    </g>
    <g id="fb" data-name="LINE">
      <line class="nu" x1="790.52" y1="202.65" x2="788.82" y2="202.65"/>
    </g>
    <g id="fc" data-name="LWPOLYLINE">
      <polyline class="nu" points="789.52 201.24 788.82 201.24 788.82 204.07 789.51 204.07"/>
    </g>
    <g id="fd" data-name="LWPOLYLINE">
      <rect class="nu" x="791.65" y="273.24" width="5.67" height="2.83"/>
    </g>
    <g id="fe" data-name="LWPOLYLINE">
      <polyline class="nu" points="791.65 274.09 790.52 274.09 790.52 275.22 791.65 275.22"/>
    </g>
    <g id="ff" data-name="LINE">
      <line class="nu" x1="790.52" y1="274.65" x2="788.82" y2="274.65"/>
    </g>
    <g id="fg" data-name="LWPOLYLINE">
      <polyline class="nu" points="789.52 273.24 788.82 273.24 788.82 276.07 789.51 276.07"/>
    </g>
    <g id="fh" data-name="LINE">
      <line class="nu" x1="797.32" y1="518.72" x2="797.32" y2="591.28"/>
    </g>
    <g id="fi" data-name="LINE">
      <line class="nu" x1="788.82" y1="518.72" x2="788.82" y2="591.28"/>
    </g>
    <g id="fj" data-name="LINE">
      <line class="nu" x1="797.32" y1="672.35" x2="797.32" y2="805.58"/>
    </g>
    <g id="fk" data-name="LINE">
      <line class="nu" x1="788.82" y1="672.35" x2="788.82" y2="805.58"/>
    </g>
    <g id="fl" data-name="LINE">
      <line class="nu" x1="797.32" y1="363.94" x2="797.32" y2="436.51"/>
    </g>
    <g id="fm" data-name="LINE">
      <line class="nu" x1="788.82" y1="363.94" x2="788.82" y2="436.51"/>
    </g>
    <g id="fn" data-name="LINE">
      <line class="nu" x1="943.31" y1="310.65" x2="943.31" y2="186.5"/>
    </g>
    <g id="fo" data-name="LINE">
      <line class="nu" x1="951.81" y1="310.65" x2="951.81" y2="175.72"/>
    </g>
    <g id="fp" data-name="LINE">
      <line class="nu" x1="797.32" y1="202.94" x2="797.32" y2="273.24"/>
    </g>
    <g id="fq" data-name="LINE">
      <line class="nu" x1="797.32" y1="276.07" x2="797.32" y2="315.76"/>
    </g>
    <g id="fr" data-name="LINE">
      <line class="nu" x1="788.82" y1="202.94" x2="788.82" y2="273.24"/>
    </g>
    <g id="fs" data-name="LINE">
      <line class="nu" x1="788.82" y1="276.07" x2="788.82" y2="315.76"/>
    </g>
    <g id="ft" data-name="LWPOLYLINE">
      <polyline class="nu" points="774.65 670.65 774.65 806.72 788.82 806.72"/>
    </g>
    <g id="fu" data-name="LINE">
      <line class="nu" x1="1137.48" y1="640.61" x2="1137.48" y2="494.9"/>
    </g>
    <g id="fv" data-name="LINE">
      <line class="nu" x1="1148.82" y1="640.61" x2="1148.82" y2="495.19"/>
    </g>
    <g id="fw" data-name="LWPOLYLINE">
      <polyline class="nu" points="788.82 630.97 774.65 630.97 774.65 515.88"/>
    </g>
    <g id="fx" data-name="LWPOLYLINE">
      <polyline class="nu" points="1003.12 761.36 859.69 761.36 859.69 806.72"/>
    </g>
    <g id="fy" data-name="LINE">
      <line class="nu" x1="1003.12" y1="762.5" x2="859.69" y2="762.5"/>
    </g>
    <g id="fz" data-name="LINE">
      <line class="nu" x1="860.82" y1="762.5" x2="860.82" y2="806.72"/>
    </g>
    <g id="ga" data-name="LWPOLYLINE">
      <path class="nu" d="M1000.79,761.36v-10.77c0-1.39-1.13-2.52-2.52-2.52h-6.24c-1.39,0-2.52,1.13-2.52,2.52v1.51h1.11v-1.23c0-.94.76-1.7,1.7-1.7h5.67c.94,0,1.7.76,1.7,1.7v10.49"/>
    </g>
    <g id="gb" data-name="LINE">
      <line class="nu" x1="1137.48" y1="485.83" x2="1137.48" y2="332.21"/>
    </g>
    <g id="gc" data-name="LINE">
      <line class="nu" x1="1148.82" y1="485.83" x2="1148.82" y2="332.21"/>
    </g>
    <g id="gd" data-name="LWPOLYLINE">
      <polyline class="nu" points="788.82 476.2 774.65 476.2 774.65 352.61"/>
    </g>
    <g id="ge" data-name="LINE">
      <line class="nu" x1="868.19" y1="958.37" x2="868.19" y2="836.76"/>
    </g>
    <g id="gf" data-name="LINE">
      <line class="nu" x1="860.82" y1="801.05" x2="1003.12" y2="801.05"/>
    </g>
    <g id="gg" data-name="LINE">
      <line class="nu" x1="980.44" y1="801.05" x2="980.44" y2="762.5"/>
    </g>
    <g id="gh" data-name="LINE">
      <line class="nu" x1="957.76" y1="801.05" x2="957.76" y2="762.5"/>
    </g>
    <g id="gi" data-name="LINE">
      <line class="nu" x1="935.09" y1="801.05" x2="935.09" y2="762.5"/>
    </g>
    <g id="gj" data-name="LINE">
      <line class="nu" x1="912.41" y1="801.05" x2="912.41" y2="762.5"/>
    </g>
    <g id="gk" data-name="LINE">
      <line class="nu" x1="902.2" y1="914.15" x2="902.2" y2="958.37"/>
    </g>
    <g id="gl" data-name="LINE">
      <line class="nu" x1="902.2" y1="952.7" x2="1004.25" y2="952.7"/>
    </g>
    <g id="gm" data-name="LWPOLYLINE">
      <polyline class="nu" points="1004.25 913.02 902.2 913.02 902.2 914.15 1004.25 914.15"/>
    </g>
    <g id="gn" data-name="LINE">
      <line class="nu" x1="936.98" y1="952.7" x2="936.98" y2="914.15"/>
    </g>
    <g id="go" data-name="LINE">
      <line class="nu" x1="970.61" y1="952.7" x2="970.61" y2="914.15"/>
    </g>
    <g id="gp" data-name="LWPOLYLINE">
      <polyline class="nu" points="774.65 201.24 774.65 312.92 788.82 312.92"/>
    </g>
    <g id="gq" data-name="LWPOLYLINE">
      <path class="nu" d="M971.08,913.02v-10.77c0-1.39-1.13-2.52-2.52-2.52h-6.24c-1.39,0-2.52,1.13-2.52,2.52v1.51h1.11v-1.23c0-.94.76-1.7,1.7-1.7h5.67c.94,0,1.7.76,1.7,1.7v10.49"/>
    </g>
    <g id="gr" data-name="LINE">
      <line class="nu" x1="902.2" y1="913.02" x2="902.2" y2="836.76"/>
    </g>
    <g id="gs" data-name="LINE">
      <line class="nu" x1="1089.29" y1="842.15" x2="1089.29" y2="921.52"/>
    </g>
    <g id="gt" data-name="LWPOLYLINE">
      <polyline class="nu" points="1107.43 856.32 1107.43 842.15 1089.29 842.15 1089.29 839.31 1110.27 839.31"/>
    </g>
    <g id="gu" data-name="LWPOLYLINE">
      <polyline class="nu" points="1106.68 924.35 1089.29 924.35 1089.29 921.52 1106.68 921.52"/>
    </g>
    <g id="gv" data-name="LWPOLYLINE">
      <g>
        <line class="nu" x1="1120.47" y1="841.02" x2="1121.25" y2="841.64"/>
        <line class="nq" x1="1122.01" y1="842.26" x2="1169.77" y2="880.9"/>
        <polyline class="nu" points="1170.15 881.21 1170.93 881.83 1170.15 882.46"/>
        <line class="nq" x1="1169.39" y1="883.08" x2="1121.63" y2="921.71"/>
        <line class="nu" x1="1121.25" y1="922.02" x2="1120.47" y2="922.65"/>
      </g>
    </g>
    <g id="gw" data-name="LWPOLYLINE">
      <polyline class="nw" points="878.11 187.63 923.46 254.53 878.11 321.99"/>
    </g>
    <g id="gx" data-name="LINE">
      <line class="nk" x1="1188.08" y1="815.79" x2="1259.37" y2="815.79"/>
    </g>
    <g id="gy" data-name="LWPOLYLINE">
      <polygon class="nk" points="1189.64 797.08 1189.64 639.75 1256.54 646.03 1256.54 797.08 1189.64 797.08"/>
    </g>
    <g id="gz" data-name="LWPOLYLINE">
      <polyline class="nk" points="1259.37 799.91 1188.08 799.91 1188.08 806.72"/>
    </g>
    <g id="ha" data-name="LINE">
      <line class="nk" x1="1038.27" y1="795.38" x2="1168.66" y2="795.38"/>
    </g>
    <g id="hb" data-name="LINE">
      <line class="nk" x1="1097.23" y1="795.38" x2="1097.23" y2="694.46"/>
    </g>
    <g id="hc" data-name="LINE">
      <line class="nk" x1="1168.66" y1="694.46" x2="1038.27" y2="694.46"/>
    </g>
    <g id="hd" data-name="LINE">
      <line class="nk" x1="1067.75" y1="694.46" x2="1067.75" y2="795.38"/>
    </g>
    <g id="he" data-name="LWPOLYLINE">
      <rect class="nk" x="1032.6" y="803.88" width="2.83" height="2.83"/>
    </g>
    <g id="hf" data-name="LWPOLYLINE">
      <rect class="nk" x="1032.6" y="670.65" width="2.83" height="2.83"/>
    </g>
    <g id="hg" data-name="LWPOLYLINE">
      <rect class="nk" x="1110.27" y="955.53" width="2.83" height="2.83"/>
    </g>
    <g id="hh" data-name="LWPOLYLINE">
      <rect class="nk" x="1110.27" y="827.13" width="2.83" height="2.83"/>
    </g>
    <g id="hi" data-name="LINE">
      <line class="nk" x1="1060.94" y1="640.61" x2="1060.94" y2="505.68"/>
    </g>
    <g id="hj" data-name="LINE">
      <line class="nk" x1="1103.46" y1="505.68" x2="1103.46" y2="640.61"/>
    </g>
    <g id="hk" data-name="LINE">
      <line class="nk" x1="1082.2" y1="505.68" x2="1082.2" y2="640.61"/>
    </g>
    <g id="hl" data-name="LINE">
      <line class="nk" x1="1060.94" y1="485.83" x2="1060.94" y2="350.9"/>
    </g>
    <g id="hm" data-name="LINE">
      <line class="nk" x1="1103.46" y1="350.9" x2="1103.46" y2="485.83"/>
    </g>
    <g id="hn" data-name="LINE">
      <line class="nk" x1="1082.2" y1="350.92" x2="1082.2" y2="485.83"/>
    </g>
    <g id="ho" data-name="LINE">
      <line class="nk" x1="835.59" y1="186.5" x2="835.59" y2="322.56"/>
    </g>
    <g id="hp" data-name="LINE">
      <line class="nk" x1="877.54" y1="186.5" x2="877.54" y2="322.56"/>
    </g>
    <g id="hq" data-name="LINE">
      <line class="nk" x1="1089.29" y1="827.13" x2="1089.29" y2="842.15"/>
    </g>
    <g id="hr" data-name="LINE">
      <line class="nk" x1="1089.29" y1="924.35" x2="1089.29" y2="958.37"/>
    </g>
    <g id="hs" data-name="LINE">
      <line class="nk" x1="1118.77" y1="924.35" x2="1116.69" y2="924.35"/>
    </g>
    <g id="ht" data-name="LINE">
      <line class="nk" x1="1110.27" y1="839.31" x2="1118.77" y2="839.31"/>
    </g>
    <g id="hu" data-name="LINE">
      <line class="nk" x1="1172.63" y1="839.31" x2="1172.63" y2="827.13"/>
    </g>
    <g id="hv" data-name="LINE">
      <line class="nk" x1="1172.63" y1="924.35" x2="1172.63" y2="932.86"/>
    </g>
    <g id="hw" data-name="LWPOLYLINE">
      <line class="nk" x1="783.72" y1="166.09" x2="945.01" y2="166.09"/>
    </g>
    <g id="hx" data-name="LWPOLYLINE">
      <line class="nk" x1="783.72" y1="165.52" x2="945.01" y2="165.52"/>
    </g>
    <g id="hy" data-name="LWPOLYLINE">
      <line class="nk" x1="783.72" y1="167.22" x2="783.72" y2="162.68"/>
    </g>
    <g id="hz" data-name="LWPOLYLINE">
      <line class="nk" x1="782.58" y1="167.22" x2="782.58" y2="162.68"/>
    </g>
    <g id="ia" data-name="LWPOLYLINE">
      <line class="nk" x1="946.14" y1="167.22" x2="946.14" y2="162.68"/>
    </g>
    <g id="ib" data-name="LWPOLYLINE">
      <line class="nk" x1="945.01" y1="167.22" x2="945.01" y2="162.68"/>
    </g>
    <g id="ic" data-name="LWPOLYLINE">
      <line class="nk" x1="1107.72" y1="316.32" x2="1175.46" y2="316.32"/>
    </g>
    <g id="id" data-name="LWPOLYLINE">
      <line class="nk" x1="1107.72" y1="314.62" x2="1175.46" y2="314.62"/>
    </g>
    <g id="ie" data-name="LWPOLYLINE">
      <line class="nk" x1="1175.46" y1="318.59" x2="1175.46" y2="312.35"/>
    </g>
    <g id="if" data-name="LWPOLYLINE">
      <line class="nk" x1="1176.6" y1="318.59" x2="1176.6" y2="312.35"/>
    </g>
    <g id="ig" data-name="LWPOLYLINE">
      <polyline class="nk" points="1186.09 815.79 1188.08 815.79 1188.08 806.72 1187.51 806.72 1187.51 814.65 1186.66 814.65 1186.66 806.72 1186.09 806.72 1186.09 808.42"/>
    </g>
    <g id="ih" data-name="LWPOLYLINE">
      <rect class="nk" x="1118.77" y="839.31" width="53.86" height="85.04"/>
    </g>
    <g id="ii" data-name="LWPOLYLINE">
      <polygon class="nx" points="1184.72 632.63 1184.74 632.46 1185.86 632.56 1185.49 636.52 1185.32 636.5 1185.68 632.72 1184.72 632.63"/>
    </g>
    <g id="ij" data-name="LWPOLYLINE">
      <polygon class="nx" points="1188.11 632.95 1188.12 632.78 1186.99 632.67 1186.62 636.62 1186.79 636.64 1187.15 632.86 1188.11 632.95"/>
    </g>
    <g id="ik" data-name="LWPOLYLINE">
      <polygon class="nx" points="1258.75 639.57 1258.77 639.4 1259.9 639.51 1259.53 643.46 1259.36 643.44 1259.71 639.66 1258.75 639.57"/>
    </g>
    <g id="il" data-name="LWPOLYLINE">
      <polygon class="nx" points="1262.14 639.89 1262.16 639.72 1261.03 639.61 1260.66 643.56 1260.83 643.58 1261.18 639.8 1262.14 639.89"/>
    </g>
    <g id="im" data-name="LWPOLYLINE">
      <polygon class="nx" points="1263.23 639.82 1263.12 639.81 1263.29 637.94 1262.16 637.84 1262.17 637.73 1263.41 637.84 1263.23 639.82"/>
    </g>
    <g id="in" data-name="LWPOLYLINE">
      <polygon class="nx" points="1183.55 632.35 1183.66 632.36 1183.84 630.5 1184.97 630.6 1184.98 630.49 1183.74 630.37 1183.55 632.35"/>
    </g>
    <g id="io" data-name="LWPOLYLINE">
      <polygon class="nx" points="1262.53 640.18 1262.53 643.58 1268.2 643.58 1268.2 640.18 1268.03 640.18 1268.03 643.41 1262.7 643.41 1262.7 640.18 1262.53 640.18"/>
    </g>
    <g id="ip" data-name="LWPOLYLINE">
      <polygon class="nx" points="1178.81 633.24 1178.81 636.64 1184.47 636.64 1184.47 633.24 1184.3 633.24 1184.3 636.47 1178.98 636.47 1178.98 633.24 1178.81 633.24"/>
    </g>
    <g id="iq" data-name="LWPOLYLINE">
      <path class="nx" d="M1143.35,496.1v8.96c0,.34.28.62.62.62h4.85v.57h-11.34v-.57h4.85c.34,0,.62-.28.62-.62v-8.96c0-.34-.28-.62-.62-.62h-4.85s0-.57,0-.57h11.34v.57h-4.85c-.34,0-.62.28-.62.62Z"/>
    </g>
    <g id="ir" data-name="LWPOLYLINE">
      <path class="nx" d="M808.86,496.1v8.96c0,.34.28.62.62.62h4.85v.57h-11.34v-.57h4.85c.34,0,.62-.28.62-.62v-8.96c0-.34-.28-.62-.62-.62h-4.85v-.57h11.34v.57h-4.85c-.34,0-.62.28-.62.62Z"/>
    </g>
    <g id="is" data-name="LWPOLYLINE">
      <path class="nx" d="M1022.68,494.9h14.17v.57h-6.26c-.34,0-.62.28-.62.62v11.79c0,.34.28.62.62.62h6.26v.57h-14.17v-.57h6.26c.34,0,.62-.28.62-.62v-11.79c0-.34-.28-.62-.62-.62h-6.26v-.57Z"/>
    </g>
    <g id="it" data-name="LWPOLYLINE">
      <path class="nx" d="M1143.35,332.83v8.96c0,.34.28.62.62.62h4.85v.57h-11.34v-.57h4.85c.34,0,.62-.28.62-.62v-8.96c0-.34-.28-.62-.62-.62h-4.85v-.57h11.34v.57h-4.85c-.34,0-.62.28-.62.62Z"/>
    </g>
    <g id="iu" data-name="LWPOLYLINE">
      <path class="nx" d="M808.86,332.83v8.96c0,.34.28.62.62.62h4.85v.57h-11.34v-.57h4.85c.34,0,.62-.28.62-.62v-8.96c0-.34-.28-.62-.62-.62h-4.85v-.57h11.34v.57h-4.85c-.34,0-.62.28-.62.62Z"/>
    </g>
    <g id="iv" data-name="LWPOLYLINE">
      <path class="nx" d="M1022.68,331.64h14.17v.57h-6.26c-.34,0-.62.28-.62.62v11.79c0,.34.28.62.62.62h6.26v.57h-14.17v-.57h6.26c.34,0,.62-.28.62-.62v-11.79c0-.34-.28-.62-.62-.62h-6.26v-.57Z"/>
    </g>
    <g id="iw" data-name="LWPOLYLINE">
      <path class="nx" d="M934.21,173.46c-.34,0-.62.28-.62.62v6.12c0,.34.28.62.62.62h3.43v.57h-8.5v-.57h3.43c.34,0,.62-.28.62-.62v-6.12c0-.34-.28-.62-.62-.62h-3.43v-.57h8.5v.57h-3.43Z"/>
    </g>
    <g id="ix" data-name="LWPOLYLINE">
      <path class="nx" d="M809.48,173.46c-.34,0-.62.28-.62.62v6.12c0,.34.28.62.62.62h3.43v.57h-8.5v-.57h3.43c.34,0,.62-.28.62-.62v-6.12c0-.34-.28-.62-.62-.62h-3.43v-.57h8.5v.57h-3.43Z"/>
    </g>
    <g id="iy" data-name="LWPOLYLINE">
      <path class="nx" d="M1143.97,390.32c-.34,0-.62.28-.62.62v6.12c0,.34.28.62.62.62h3.43v.57h-8.5v-.57h3.43c.34,0,.62-.28.62-.62v-6.12c0-.34-.28-.62-.62-.62h-3.43v-.57h8.5v.57h-3.43Z"/>
    </g>
    <g id="iz" data-name="LWPOLYLINE">
      <path class="nx" d="M1143.97,431.13c-.34,0-.62.28-.62.62v6.12c0,.34.28.62.62.62h3.43v.57h-8.5v-.57h3.43c.34,0,.62-.28.62-.62v-6.12c0-.34-.28-.62-.62-.62h-3.43v-.57h8.5v.57h-3.43Z"/>
    </g>
    <g id="ja" data-name="LWPOLYLINE">
      <path class="nx" d="M1143.97,542.24c-.34,0-.62.28-.62.62v6.12c0,.34.28.62.62.62h3.43v.57h-8.5v-.57h3.43c.34,0,.62-.28.62-.62v-6.12c0-.34-.28-.62-.62-.62h-3.43v-.57h8.5v.57h-3.43Z"/>
    </g>
    <g id="jb" data-name="LWPOLYLINE">
      <path class="nx" d="M1143.97,585.9c-.34,0-.62.28-.62.62v6.12c0,.34.28.62.62.62h3.43v.57h-8.5v-.57h3.43c.34,0,.62-.28.62-.62v-6.12c0-.34-.28-.62-.62-.62h-3.43v-.57h8.5v.57h-3.43Z"/>
    </g>
    <g id="jc" data-name="LWPOLYLINE">
      <polyline class="nx" points="1140.6 958.37 1140.6 949.87 1155.62 949.87 1155.62 941.36 1170.65 941.36 1170.65 932.86 1185.67 932.86 1185.67 924.35 1239.34 924.35 1239.34 915.85 1259.37 915.85"/>
    </g>
    <g id="jd" data-name="LWPOLYLINE">
      <polyline class="nx" points="1142.3 958.37 1142.3 951.57 1157.32 951.57 1157.32 943.06 1172.35 943.06 1172.35 934.56 1187.37 934.56 1187.37 926.05 1241.04 926.05 1241.04 917.55 1259.37 917.55"/>
    </g>
    <g id="je" data-name="LWPOLYLINE">
      <polyline class="nx" points="788.82 669.52 788.82 670.65 774.65 670.65 774.65 636.64 788.82 636.64"/>
    </g>
    <g id="jf" data-name="LWPOLYLINE">
      <polyline class="nx" points="791.65 515.88 774.65 515.88 774.65 481.87 788.82 481.87"/>
    </g>
    <g id="jg" data-name="LWPOLYLINE">
      <polyline class="nx" points="788.82 352.61 774.65 352.61 774.65 318.59 788.82 318.59"/>
    </g>
    <g id="jh" data-name="LWPOLYLINE">
      <polyline class="nx" points="1166.96 515.88 1181.13 515.88 1181.13 481.87 1166.96 481.87"/>
    </g>
    <g id="ji" data-name="LWPOLYLINE">
      <polyline class="nx" points="1166.96 352.61 1181.13 352.61 1181.13 318.59 1166.96 318.59 1166.96 324.26"/>
    </g>
    <g id="jj" data-name="LWPOLYLINE">
      <polyline class="nx" points="788.82 201.24 774.65 201.24 774.65 167.22 791.65 167.22"/>
    </g>
    <g id="jk" data-name="LWPOLYLINE">
      <rect class="nx" x="774.65" y="161.55" width="183.23" height="1.13"/>
    </g>
    <g id="jl" data-name="LINE">
      <line class="nx" x1="951.81" y1="313.49" x2="1096.38" y2="313.49"/>
    </g>
    <g id="jm" data-name="LWPOLYLINE">
      <polyline class="nx" points="1107.72 311.22 1181.13 311.22 1181.13 312.35 1107.72 312.35"/>
    </g>
    <g id="jn" data-name="LWPOLYLINE">
      <line class="nx" x1="1186.8" y1="636.52" x2="1259.37" y2="643.33"/>
    </g>
    <g id="jo" data-name="LWPOLYLINE">
      <line class="nx" x1="1187.15" y1="632.86" x2="1259.71" y2="639.66"/>
    </g>
    <g id="jp" data-name="LINE">
      <line class="nx" x1="1168.66" y1="670.65" x2="1168.66" y2="806.72"/>
    </g>
    <g id="jq" data-name="LINE">
      <line class="nx" x1="1186.79" y1="636.64" x2="1186.8" y2="763.63"/>
    </g>
    <g id="jr" data-name="LINE">
      <line class="nx" x1="1168.66" y1="671.79" x2="1038.27" y2="671.79"/>
    </g>
    <g id="js" data-name="LINE">
      <line class="nx" x1="1038.27" y1="670.65" x2="1038.27" y2="713.17"/>
    </g>
    <g id="jt" data-name="LINE">
      <line class="nx" x1="1038.27" y1="781.2" x2="1038.27" y2="806.72"/>
    </g>
    <g id="ju" data-name="LINE">
      <line class="nx" x1="1003.12" y1="670.65" x2="1003.12" y2="806.72"/>
    </g>
    <g id="jv" data-name="LINE">
      <line class="nx" x1="1021.83" y1="670.65" x2="828.5" y2="670.65"/>
    </g>
    <g id="jw" data-name="LINE">
      <line class="nx" x1="829.64" y1="670.65" x2="829.64" y2="806.72"/>
    </g>
    <g id="jx" data-name="LINE">
      <line class="nx" x1="1036.85" y1="495.47" x2="1036.85" y2="640.61"/>
    </g>
    <g id="jy" data-name="LINE">
      <line class="nx" x1="1022.68" y1="495.47" x2="1022.68" y2="640.61"/>
    </g>
    <g id="jz" data-name="LINE">
      <line class="nx" x1="814.33" y1="505.68" x2="1022.68" y2="505.68"/>
    </g>
    <g id="ka" data-name="LINE">
      <line class="nx" x1="1137.48" y1="505.68" x2="1036.85" y2="505.68"/>
    </g>
    <g id="kb" data-name="LINE">
      <line class="nx" x1="814.33" y1="495.47" x2="814.33" y2="640.61"/>
    </g>
    <g id="kc" data-name="LINE">
      <line class="nx" x1="802.99" y1="495.47" x2="802.99" y2="640.61"/>
    </g>
    <g id="kd" data-name="LINE">
      <line class="nx" x1="1036.85" y1="331.63" x2="1036.85" y2="485.83"/>
    </g>
    <g id="ke" data-name="LINE">
      <line class="nx" x1="1022.68" y1="331.63" x2="1022.68" y2="485.83"/>
    </g>
    <g id="kf" data-name="LINE">
      <line class="nx" x1="814.33" y1="342.41" x2="1022.68" y2="342.41"/>
    </g>
    <g id="kg" data-name="LINE">
      <line class="nx" x1="1137.48" y1="342.41" x2="1036.85" y2="342.41"/>
    </g>
    <g id="kh" data-name="LINE">
      <line class="nx" x1="814.33" y1="332.21" x2="814.33" y2="485.83"/>
    </g>
    <g id="ki" data-name="LINE">
      <line class="nx" x1="802.99" y1="332.21" x2="802.99" y2="485.83"/>
    </g>
    <g id="kj" data-name="LINE">
      <line class="nx" x1="812.91" y1="180.83" x2="929.18" y2="180.83"/>
    </g>
    <g id="kk" data-name="LINE">
      <line class="nx" x1="929.13" y1="173.5" x2="929.13" y2="322.56"/>
    </g>
    <g id="kl" data-name="LINE">
      <line class="nx" x1="812.91" y1="173.46" x2="812.91" y2="322.56"/>
    </g>
    <g id="km" data-name="LINE">
      <line class="nx" x1="804.41" y1="173.46" x2="804.41" y2="322.56"/>
    </g>
    <g id="kn" data-name="LINE">
      <line class="nx" x1="828.5" y1="836.76" x2="828.5" y2="958.37"/>
    </g>
    <g id="ko" data-name="LINE">
      <line class="nx" x1="1038.27" y1="836.76" x2="1038.27" y2="958.37"/>
    </g>
    <g id="kp" data-name="LINE">
      <line class="nx" x1="1004.25" y1="958.37" x2="1004.25" y2="836.76"/>
    </g>
    <g id="kq" data-name="LINE">
      <line class="nx" x1="1021.26" y1="836.76" x2="808.66" y2="836.76"/>
    </g>
    <g id="kr" data-name="LINE">
      <line class="nx" x1="1138.9" y1="550.18" x2="1138.9" y2="506.24"/>
    </g>
    <g id="ks" data-name="LINE">
      <line class="nx" x1="1147.4" y1="549.61" x2="1147.4" y2="506.24"/>
    </g>
    <g id="kt" data-name="LINE">
      <line class="nx" x1="1138.9" y1="585.33" x2="1138.9" y2="640.61"/>
    </g>
    <g id="ku" data-name="LINE">
      <line class="nx" x1="1147.4" y1="585.33" x2="1147.4" y2="640.61"/>
    </g>
    <g id="kv" data-name="LINE">
      <line class="nx" x1="1147.4" y1="430.56" x2="1147.4" y2="485.83"/>
    </g>
    <g id="kw" data-name="LINE">
      <line class="nx" x1="1138.9" y1="430.56" x2="1138.9" y2="485.83"/>
    </g>
    <g id="kx" data-name="LINE">
      <line class="nx" x1="1147.4" y1="398.26" x2="1147.4" y2="350.92"/>
    </g>
    <g id="ky" data-name="LINE">
      <line class="nx" x1="1138.9" y1="398.26" x2="1138.9" y2="350.92"/>
    </g>
    <g id="kz" data-name="LINE">
      <line class="nx" x1="937.64" y1="173.5" x2="937.64" y2="322.56"/>
    </g>
    <g id="la" data-name="LINE">
      <line class="nx" x1="808.66" y1="958.37" x2="1144" y2="958.37"/>
    </g>
    <g id="lb" data-name="LINE">
      <line class="nx" x1="808.66" y1="958.94" x2="1144" y2="958.94"/>
    </g>
    <g id="lc" data-name="LWPOLYLINE">
      <polyline class="nx" points="1172.63 815.79 1172.63 827.13 1043.94 827.13 1043.94 821.46 1038.27 821.46"/>
    </g>
    <g id="ld" data-name="LWPOLYLINE">
      <polyline class="nx" points="1171.5 815.79 1171.5 825.99 1045.07 825.99 1045.07 820.32 1038.27 820.32"/>
    </g>
    <g id="le" data-name="LINE">
      <line class="nx" x1="801.86" y1="640.61" x2="1151.65" y2="640.61"/>
    </g>
    <g id="lf" data-name="LINE">
      <line class="nx" x1="797.32" y1="806.72" x2="1186.09" y2="806.72"/>
    </g>
    <g id="lg" data-name="LWPOLYLINE">
      <line class="nx" x1="800.16" y1="485.83" x2="1151.65" y2="485.83"/>
    </g>
    <g id="lh" data-name="LINE">
      <line class="nx" x1="800.16" y1="322.56" x2="943.31" y2="322.56"/>
    </g>
    <g id="li" data-name="LWPOLYLINE">
      <polyline class="nx" points="801.86 186.5 943.31 186.5 943.31 172.89"/>
    </g>
    <g id="lj" data-name="LWPOLYLINE">
      <polyline class="nx" points="801.86 185.36 942.17 185.36 942.17 172.89"/>
    </g>
    <g id="lk" data-name="LINE">
      <line class="nx" x1="814.33" y1="350.92" x2="1036.85" y2="350.92"/>
    </g>
    <g id="ll" data-name="LINE">
      <line class="nx" x1="814.33" y1="349.62" x2="1037.15" y2="349.62"/>
    </g>
    <g id="lm" data-name="LINE">
      <line class="nx" x1="1151.65" y1="350.92" x2="1036.85" y2="350.92"/>
    </g>
    <g id="ln" data-name="LINE">
      <line class="nx" x1="1151.65" y1="349.62" x2="1036.85" y2="349.62"/>
    </g>
    <g id="lo" data-name="LINE">
      <line class="nx" x1="1096.38" y1="313.49" x2="1096.38" y2="247.72"/>
    </g>
    <g id="lp" data-name="LINE">
      <line class="nx" x1="1107.72" y1="247.72" x2="1107.72" y2="313.49"/>
    </g>
    <g id="lq" data-name="LWPOLYLINE">
      <rect class="nx" x="1094.96" y="246.02" width="14.17" height="1.7"/>
    </g>
    <g id="lr" data-name="LWPOLYLINE">
      <polyline class="nx" points="1259.37 920.39 1259.37 643.58 1262.2 643.58"/>
    </g>
    <g id="ls" data-name="LINE">
      <line class="nx" x1="1151.65" y1="642.31" x2="1151.65" y2="494.9"/>
    </g>
    <g id="lt" data-name="LWPOLYLINE">
      <line class="nx" x1="951.81" y1="314.62" x2="1096.38" y2="314.62"/>
    </g>
    <g id="lu" data-name="LINE">
      <line class="nx" x1="1151.65" y1="487.53" x2="1151.65" y2="331.63"/>
    </g>
    <g id="lv" data-name="LINE">
      <line class="nn" x1="1154.49" y1="481.87" x2="1154.49" y2="331.63"/>
    </g>
    <g id="lw" data-name="LINE">
      <line class="nn" x1="1160.16" y1="481.87" x2="1160.16" y2="331.63"/>
    </g>
    <g id="lx" data-name="LINE">
      <line class="nn" x1="1154.49" y1="636.64" x2="1154.49" y2="494.9"/>
    </g>
    <g id="ly" data-name="LINE">
      <line class="nn" x1="1160.16" y1="636.64" x2="1160.16" y2="494.9"/>
    </g>
    <g id="lz" data-name="LINE">
      <line class="no" x1="808.66" y1="958.94" x2="808.66" y2="815.79"/>
    </g>
    <g id="ma" data-name="LINE">
      <line class="no" x1="802.99" y1="958.94" x2="802.99" y2="815.79"/>
    </g>
    <g id="mb" data-name="LWPOLYLINE">
      <polyline class="no" points="1262.2 808.42 1262.2 643.58 1273.54 643.58 1273.54 808.42"/>
    </g>
    <g id="mc" data-name="LWPOLYLINE">
      <polyline class="no" points="1099.21 313.49 1099.21 247.72 1104.88 247.72 1104.88 313.49"/>
    </g>
    <g id="md" data-name="LWPOLYLINE">
      <polyline class="no" points="791.65 649.68 791.65 669.52 797.32 669.52 797.32 649.68"/>
    </g>
    <g id="me" data-name="LWPOLYLINE">
      <polyline class="no" points="791.65 636.64 791.65 596.95 797.32 596.95 797.32 636.64"/>
    </g>
    <g id="mf" data-name="LWPOLYLINE">
      <polyline class="no" points="791.65 494.9 791.65 513.05 797.32 513.05 797.32 494.9"/>
    </g>
    <g id="mg" data-name="LWPOLYLINE">
      <polyline class="no" points="791.65 481.87 791.65 442.18 797.32 442.18 797.32 481.87"/>
    </g>
    <g id="mh" data-name="LWPOLYLINE">
      <polyline class="no" points="791.65 331.63 791.65 358.28 797.32 358.28 797.32 331.63"/>
    </g>
    <g id="mi" data-name="LWPOLYLINE">
      <polyline class="no" points="791.65 172.89 791.65 198.4 797.32 198.4 797.32 172.89"/>
    </g>
    <g id="mj" data-name="LINE">
      <line class="ny" x1="1166.96" y1="636.64" x2="1166.96" y2="515.88"/>
    </g>
    <g id="mk" data-name="LWPOLYLINE">
      <polyline class="ny" points="788.82 636.64 788.82 594.12 801.86 594.12 801.86 642.31"/>
    </g>
    <g id="ml" data-name="LWPOLYLINE">
      <polyline class="ny" points="797.32 517.3 801.86 517.3 801.86 494.9"/>
    </g>
    <g id="mm" data-name="LINE">
      <line class="ny" x1="1166.96" y1="481.87" x2="1166.96" y2="352.61"/>
    </g>
    <g id="mn" data-name="LWPOLYLINE">
      <rect class="ny" x="791.65" y="167.22" width="160.16" height="5.67"/>
    </g>
    <g id="mo" data-name="LINE">
      <line class="ny" x1="788.82" y1="481.87" x2="788.82" y2="439.35"/>
    </g>
    <g id="mp" data-name="LWPOLYLINE">
      <polyline class="ny" points="797.32 437.93 800.16 437.93 800.16 487.53"/>
    </g>
    <g id="mq" data-name="LINE">
      <line class="ny" x1="788.82" y1="352.61" x2="788.82" y2="361.11"/>
    </g>
    <g id="mr" data-name="LWPOLYLINE">
      <polyline class="ny" points="797.32 362.53 800.16 362.53 800.16 331.63"/>
    </g>
    <g id="ms" data-name="LWPOLYLINE">
      <polyline class="ny" points="797.32 317.17 800.16 317.17 800.16 324.26"/>
    </g>
    <g id="mt" data-name="LWPOLYLINE">
      <polyline class="ny" points="797.32 202.65 801.86 202.65 801.86 172.89"/>
    </g>
    <g id="mu" data-name="LINE">
      <line class="ny" x1="1158.46" y1="324.26" x2="1166.96" y2="324.26"/>
    </g>
    <g id="mv" data-name="LWPOLYLINE">
      <polygon class="nl" points="1262.2 937.39 1204.93 937.39 1159.86 966.02 1262.2 966.02 1262.2 937.39"/>
    </g>
    <g id="mw" data-name="LWPOLYLINE">
      <polygon class="nl" points="1262.2 920.39 1242.74 920.39 1242.74 928.89 1189.07 928.89 1189.07 937.39 1174.05 937.39 1174.05 945.9 1159.02 945.9 1159.02 954.4 1144 954.4 1144 966.02 808.66 966.02 808.66 958.94 802.99 958.94 802.99 966.02 800.16 966.02 800.16 815.79 1021.26 815.79 1021.26 836.76 1038.27 836.76 1038.27 815.79 1186.09 815.79 1186.09 808.42 788.82 808.42 788.82 994.37 805.83 994.37 805.83 977.36 1021.26 977.36 1021.26 994.37 1038.27 994.37 1038.27 977.36 1256.54 977.36 1256.54 994.37 1273.54 994.37 1273.54 808.42 1262.2 808.42 1262.2 920.39"/>
    </g>
    <g id="mx" data-name="LWPOLYLINE">
      <polyline class="nl" points="1021.26 649.68 1021.26 670.65 1038.27 670.65 1038.27 649.68 1168.66 649.68 1168.66 670.65 1185.67 670.65 1185.67 636.64 1154.49 636.64 1154.49 642.31 797.32 642.31 797.32 636.64 791.65 636.64 791.65 649.68 811.5 649.68 811.5 670.65 828.5 670.65 828.5 649.68 1021.26 649.68"/>
    </g>
    <g id="my" data-name="LWPOLYLINE">
      <polygon class="nl" points="1096.38 324.26 1096.38 313.49 1107.72 313.49 1107.72 324.26 1160.16 324.26 1160.16 331.63 791.65 331.63 791.65 318.59 797.32 318.59 797.32 324.26 943.31 324.26 943.31 313.49 951.81 313.49 951.81 324.26 1096.38 324.26"/>
    </g>
    <g id="mz" data-name="LWPOLYLINE">
      <polygon class="nl" points="1160.16 481.87 1154.49 481.87 1154.49 487.53 797.32 487.53 797.32 481.87 791.65 481.87 791.65 494.9 1160.16 494.9 1160.16 481.87"/>
    </g>
    <g id="na" data-name="LINE">
      <line class="nv" x1="788.82" y1="812.39" x2="-200" y2="812.39"/>
    </g>
    <g id="nb" data-name="LINE">
      <line class="nv" x1="2200" y1="812.39" x2="1273.54" y2="812.39"/>
    </g>
  </g>
  <g id="ne" data-name="SCALE">
    <g>
      <g id="nf" data-name="MTEXT">
        <path class="ns" d="M281.36,1070.9c-.63-.5-1.13-1.2-1.49-2.1-.36-.9-.54-1.92-.54-3.06s.18-2.14.54-3.04c.36-.9.85-1.59,1.49-2.1.63-.5,1.36-.75,2.17-.75s1.53.25,2.17.75c.63.5,1.13,1.2,1.49,2.1.36.9.54,1.91.54,3.04s-.18,2.16-.54,3.05-.85,1.59-1.49,2.1-1.36.76-2.17.76-1.53-.25-2.17-.75ZM285.01,1069.86c.44-.41.78-.96,1.02-1.67.24-.71.36-1.52.36-2.44s-.12-1.73-.36-2.45c-.24-.71-.58-1.27-1.02-1.67-.44-.4-.93-.6-1.49-.6s-1.05.2-1.48.6c-.43.4-.77.96-1.02,1.67-.24.71-.37,1.53-.37,2.43s.12,1.75.37,2.46c.25.71.58,1.27,1.02,1.67s.92.61,1.48.61,1.05-.2,1.49-.61Z"/>
      </g>
      <g id="ng" data-name="MTEXT">
        <path class="ns" d="M393.68,1069.72c.19-.17.42-.38.71-.64.93-.85,1.67-1.57,2.24-2.15.57-.58,1.04-1.17,1.44-1.78s.59-1.16.59-1.67c0-.48-.09-.9-.28-1.27s-.45-.66-.78-.86c-.33-.21-.71-.31-1.15-.31-.47,0-.93.16-1.37.48-.44.32-.78.73-1,1.23l-1.2-.51c.3-.7.78-1.28,1.46-1.73.67-.45,1.38-.67,2.11-.67.69,0,1.31.16,1.85.46.54.31.96.74,1.26,1.29.3.55.45,1.18.45,1.9s-.22,1.41-.67,2.14-.98,1.41-1.6,2.04c-.62.63-1.42,1.39-2.42,2.27-.49.45-.95.88-1.39,1.3l-.94-.85c.28-.27.51-.49.7-.66ZM392.98,1070.38h7.22v1.18h-7.04l-.18-1.18Z"/>
      </g>
      <g id="nh" data-name="MTEXT">
        <path class="ns" d="M340.34,1071.54h-1.34v-10.08l-1.86,1.2-.67-1.07,2.54-1.62h1.33v11.57Z"/>
      </g>
      <g id="ni" data-name="MTEXT">
        <g>
          <path class="ns" d="M558.55,1064.31c.55-.25,1.08-.38,1.59-.38.77,0,1.45.16,2.06.49.6.33,1.07.78,1.41,1.35s.5,1.24.5,1.98-.17,1.43-.5,2.02-.8,1.05-1.4,1.38c-.6.34-1.29.5-2.07.5-.6,0-1.16-.12-1.69-.38-.53-.25-.98-.6-1.34-1.05s-.62-.95-.74-1.52l1.3-.3c.13.59.42,1.06.89,1.43.46.37.99.55,1.59.55.5,0,.95-.11,1.35-.34.4-.22.71-.54.94-.94s.34-.86.34-1.36-.11-.95-.34-1.34c-.23-.39-.54-.69-.94-.91s-.85-.33-1.35-.33c-.33,0-.68.09-1.04.26s-.66.4-.9.68l-.99-.86c.34-.38.79-.7,1.34-.95ZM556.88,1065.93l.37-6.03h5.92v1.18h-4.64l-.32,5.04-1.33-.19Z"/>
          <path class="ns" d="M575.28,1065.76c-.29-.34-.67-.5-1.13-.5-.35,0-.66.07-.94.22-.27.14-.49.34-.65.6s-.24.55-.24.88v4.58h-1.33v-4.45c0-.54-.14-.98-.43-1.32s-.66-.5-1.12-.5c-.34,0-.65.09-.94.26-.28.18-.5.42-.66.72-.16.3-.23.63-.23.98v4.3h-1.33v-7.46h1.33v1.31l-.14-.05c.22-.37.52-.68.9-.91.37-.23.75-.35,1.13-.35.46,0,.9.13,1.32.38.42.26.74.59.95.99.25-.41.59-.74,1.04-.99.45-.26.9-.38,1.36-.38.55,0,1.05.13,1.49.38.44.25.78.59,1.02,1.02.25.43.37.93.37,1.5v4.56h-1.34v-4.45c0-.54-.15-.98-.44-1.32Z"/>
        </g>
      </g>
      <g id="nj" data-name="LWPOLYLINE">
        <polyline class="nk" points="566.32 1055.89 566.32 1038.88 396.24 1038.88 396.24 1055.89 339.55 1055.89 339.55 1038.88 282.85 1038.88 282.85 1055.89"/>
      </g>
    </g>
    <g>
      <g>
        <path class="nm" d="M1776.83,1031.96v.56h-10.91v-.56h10.91ZM1771.61,1026.01v.62c0,.68-.24,1.31-.72,1.88s-1.08,1.04-1.8,1.41-1.44.63-2.16.78l-.28-.55c.63-.1,1.28-.32,1.96-.66s1.26-.76,1.72-1.26c.47-.5.7-1.04.7-1.61v-.62h.57ZM1775.74,1025.76v.55h-8.74v-.55h8.74ZM1771.7,1032.25v4.72h-.64v-4.72h.64ZM1771.72,1026.01v.62c0,.57.23,1.11.7,1.61.47.5,1.04.92,1.73,1.26s1.34.55,1.95.66l-.27.55c-.73-.15-1.45-.41-2.16-.78-.71-.37-1.31-.84-1.79-1.41-.48-.57-.72-1.19-.72-1.88v-.62h.56Z"/>
        <path class="nm" d="M1781.86,1027.59v1.33c0,.81-.15,1.59-.46,2.34-.31.75-.71,1.41-1.22,1.98s-1.05,1.01-1.64,1.33l-.41-.5c.56-.27,1.08-.67,1.57-1.2s.88-1.14,1.18-1.83.45-1.4.45-2.13v-1.33h.53ZM1784.83,1027.09v.55h-6.41v-.55h6.41ZM1781.96,1025.08v2.35h-.64v-2.35h.64ZM1781.94,1027.59v1.33c0,.67.14,1.33.43,1.99s.67,1.23,1.14,1.74c.48.51.98.9,1.53,1.18l-.39.5c-.58-.3-1.11-.73-1.6-1.28-.49-.55-.88-1.19-1.18-1.91-.29-.72-.44-1.46-.44-2.23v-1.33h.52ZM1787.32,1024.9v12.08h-.64v-12.08h.64ZM1789.47,1030.07v.55h-2.31v-.55h2.31Z"/>
        <path class="nm" d="M1794.12,1026.16v1.13c0,.7-.15,1.35-.44,1.96-.29.61-.7,1.13-1.2,1.58-.51.44-1.07.78-1.69,1.01l-.34-.52c.57-.21,1.09-.51,1.57-.9.48-.4.86-.87,1.15-1.41.29-.54.43-1.12.43-1.72v-1.13h.52ZM1797.11,1025.85v.56h-6.41v-.56h6.41ZM1797.98,1032.92c.58.16,1.03.4,1.34.72s.47.7.47,1.15c0,.68-.34,1.21-1.03,1.59-.69.38-1.64.57-2.86.57-.8,0-1.5-.08-2.08-.25-.58-.17-1.03-.42-1.34-.74-.31-.33-.46-.71-.46-1.16s.15-.83.46-1.15c.31-.32.75-.56,1.34-.72.58-.16,1.28-.25,2.08-.25s1.5.08,2.08.25ZM1794.19,1033.41c-.49.13-.87.31-1.13.55-.27.23-.4.51-.4.83,0,.49.29.89.88,1.18s1.38.43,2.37.43,1.78-.14,2.37-.43c.59-.29.89-.68.89-1.18,0-.32-.14-.59-.41-.83s-.65-.42-1.14-.55c-.49-.13-1.06-.2-1.72-.2s-1.22.07-1.71.2ZM1794.22,1026.16v1.12c0,.54.14,1.06.41,1.56.27.5.64.94,1.11,1.31.46.37.97.66,1.52.87l-.31.5c-.61-.22-1.16-.55-1.65-.97s-.89-.91-1.18-1.47-.43-1.16-.43-1.81v-1.12h.53ZM1799.68,1024.9v7.36h-.64v-7.36h.64ZM1801.6,1028.18v.56h-2.1v-.56h2.1Z"/>
        <path class="nm" d="M1807.39,1025.94v10.11h-.48v-10.11h.48Z"/>
        <path class="nm" d="M1823.84,1031.23v.53h-10.91v-.53h10.91ZM1823.17,1025.84v.53h-9.62v-.53h9.62ZM1822.39,1032.73v2.24h-7.39v1.51h-.64v-2.03h7.39v-1.19h-7.43v-.53h8.08ZM1822.78,1036.27v.53h-8.43v-.53h8.43ZM1821.21,1027.39c.65.27.97.67.97,1.2s-.33.92-.97,1.18c-.65.27-1.58.4-2.81.4s-2.17-.13-2.83-.4c-.65-.27-.98-.66-.98-1.18s.32-.93.97-1.2c.65-.27,1.59-.41,2.82-.41s2.17.13,2.82.41ZM1816.09,1027.78c-.55.2-.83.48-.83.83s.27.61.83.8,1.32.29,2.31.29,1.74-.1,2.29-.29.82-.46.82-.8-.28-.63-.83-.83c-.55-.2-1.32-.3-2.3-.3s-1.75.1-2.3.3ZM1818.72,1024.64v1.58h-.64v-1.58h.64ZM1818.72,1030.03v1.43h-.64v-1.43h.64Z"/>
        <path class="nm" d="M1771.78,1044.11v4.07h-4.7v3.51h-.63v-4.09h4.7v-2.94h-4.75v-.56h5.38ZM1770.58,1051.33c.87-.07,1.75-.18,2.66-.35l.07.56c-.94.17-1.85.29-2.73.35-.88.07-1.95.1-3.22.1h-.91v-.56h.91c1.28,0,2.35-.03,3.22-.1ZM1775.1,1042.9v12.08h-.64v-12.08h.64ZM1777.24,1047.87v.57h-2.31v-.57h2.31Z"/>
        <path class="nm" d="M1789.11,1049.22v.56h-10.95v-.56h10.95ZM1785.81,1043.55c.63.2,1.11.47,1.45.83s.5.78.5,1.25-.17.91-.5,1.26c-.34.36-.82.63-1.45.82-.63.19-1.37.29-2.21.29s-1.56-.1-2.18-.29c-.63-.19-1.11-.46-1.45-.82-.34-.35-.51-.77-.51-1.26s.17-.89.51-1.25c.34-.36.82-.64,1.45-.83.62-.2,1.35-.29,2.18-.29s1.57.1,2.21.29ZM1780.28,1051.2v3.08h-.63v-3.08h.63ZM1787.89,1054.09v.59h-8.25v-.59h8.25ZM1781.8,1044.06c-.53.15-.94.37-1.23.64-.29.27-.43.59-.43.95s.14.67.43.95c.29.28.7.49,1.23.63.53.14,1.13.22,1.81.22s1.3-.07,1.82-.22c.52-.14.93-.35,1.22-.63s.44-.59.44-.96-.15-.67-.44-.94c-.29-.27-.7-.48-1.22-.64-.52-.15-1.13-.23-1.82-.23s-1.29.08-1.81.23ZM1784.04,1049.55v2.94h-.66v-2.94h.66Z"/>
        <path class="nm" d="M1794.35,1044.51v2.39c0,.76-.17,1.52-.52,2.28-.35.77-.79,1.45-1.32,2.06s-1.09,1.06-1.66,1.37l-.39-.52c.52-.27,1.04-.69,1.56-1.25.52-.56.95-1.19,1.28-1.9s.5-1.39.5-2.05v-2.39h.55ZM1797.51,1044.19v.56h-6.73v-.56h6.73ZM1794.43,1044.51v2.39c0,.67.17,1.34.51,2,.34.66.77,1.25,1.29,1.76.52.51,1.06.89,1.61,1.14l-.41.53c-.59-.3-1.16-.73-1.7-1.29-.55-.56-.99-1.2-1.34-1.92-.34-.72-.52-1.46-.52-2.22v-2.39h.55ZM1800.16,1042.9v12.08h-.64v-12.08h.64Z"/>
        <path class="nm" d="M1769.61,1062.04v2.45c0,.78-.16,1.57-.48,2.34-.32.78-.74,1.48-1.26,2.09s-1.06,1.09-1.62,1.41l-.42-.53c.52-.28,1.04-.7,1.54-1.27s.92-1.21,1.23-1.93c.32-.71.48-1.42.48-2.12v-2.45h.53ZM1769.69,1062.04v2.45c0,.67.16,1.35.48,2.04.32.69.74,1.3,1.24,1.84.5.54,1.02.95,1.55,1.22l-.42.5c-.57-.31-1.11-.76-1.63-1.34-.52-.59-.94-1.26-1.27-2-.33-.75-.49-1.5-.49-2.25v-2.45h.53ZM1775.08,1060.9v12.08h-.64v-12.08h.64ZM1777.24,1065.97v.57h-2.31v-.57h2.31Z"/>
        <path class="nm" d="M1789.11,1068.11v.56h-10.95v-.56h10.95ZM1787.61,1061.64v4.58h-7.97v-4.58h7.97ZM1780.28,1062.19v3.51h6.71v-3.51h-6.71ZM1783.93,1068.42v4.56h-.63v-4.56h.63Z"/>
        <path class="nm" d="M1794.32,1061.31v.92c0,.72-.15,1.4-.46,2.03-.31.63-.72,1.19-1.23,1.67-.51.48-1.08.84-1.69,1.11l-.35-.53c.57-.21,1.1-.54,1.58-.97.49-.43.88-.93,1.17-1.5.29-.57.44-1.17.44-1.8v-.92h.54ZM1800.19,1067.93v2.63h-6.96v1.97h-.62v-2.49h6.94v-1.55h-6.99v-.56h7.62ZM1800.67,1072.26v.55h-8.06v-.55h8.06ZM1794.4,1061.31v.92c0,.59.15,1.16.45,1.7.3.55.7,1.02,1.19,1.42.49.4,1.02.71,1.58.92l-.34.52c-.62-.24-1.2-.59-1.71-1.04s-.93-.97-1.24-1.58c-.31-.61-.46-1.25-.46-1.95v-.92h.53ZM1800.19,1060.9v6.36h-.64v-6.36h.64Z"/>
        <path class="nm" d="M1770.94,1080.43v.55h-3.85v6.51h-.64v-7.06h4.49ZM1769.73,1087.18c.66-.05,1.31-.15,1.97-.3l.1.56c-.68.15-1.36.25-2.02.3-.67.05-1.53.08-2.6.08h-.73v-.56h.73c1.04,0,1.9-.03,2.55-.08ZM1773.3,1079.22v11.1h-.62v-11.1h.62ZM1775.66,1083.89v.56h-2.56v-.56h2.56ZM1776.08,1078.9v12.08h-.63v-12.08h.63Z"/>
        <path class="nm" d="M1789.12,1088.84v.56h-10.96v-.56h10.96ZM1788.01,1080.13v.56h-8.79v-.56h8.79ZM1788.01,1084.99v.56h-8.78v-.56h8.78ZM1781.92,1080.55v4.62h-.66v-4.62h.66ZM1782.11,1085.43v3.58h-.66v-3.58h.66ZM1785.77,1085.43v3.58h-.64v-3.58h.64ZM1785.95,1080.55v4.62h-.63v-4.62h.63Z"/>
        <path class="nm" d="M1794.32,1079.31v.92c0,.72-.15,1.4-.46,2.03-.31.63-.72,1.19-1.23,1.67-.51.48-1.08.84-1.69,1.11l-.35-.53c.57-.21,1.1-.54,1.58-.97.49-.43.88-.93,1.17-1.5.29-.57.44-1.17.44-1.8v-.92h.54ZM1800.19,1085.93v2.63h-6.96v1.97h-.62v-2.49h6.94v-1.55h-6.99v-.56h7.62ZM1800.67,1090.26v.55h-8.06v-.55h8.06ZM1794.4,1079.31v.92c0,.59.15,1.16.45,1.7.3.55.7,1.02,1.19,1.42.49.4,1.02.71,1.58.92l-.34.52c-.62-.24-1.2-.59-1.71-1.04s-.93-.97-1.24-1.58c-.31-.61-.46-1.25-.46-1.95v-.92h.53ZM1800.19,1078.9v6.36h-.64v-6.36h.64Z"/>
      </g>
      <g>
        <path class="nm" d="M1755.03,1036.05h-.67v-9.35l-1.26.87-.36-.49,1.62-1.13h.67v10.11Z"/>
        <path class="nm" d="M1751.93,1052.81c.2-.19.43-.41.68-.65.84-.79,1.51-1.46,2.02-1.99.51-.53.94-1.09,1.31-1.67s.55-1.12.55-1.61-.09-.9-.28-1.27-.45-.67-.78-.88c-.33-.21-.71-.32-1.13-.32-.47,0-.91.16-1.34.48-.42.32-.75.73-.96,1.24l-.63-.27c.26-.61.66-1.1,1.2-1.48.54-.38,1.12-.57,1.72-.57.55,0,1.04.13,1.47.39.43.26.77.63,1.01,1.09.25.47.37.99.37,1.58s-.19,1.18-.57,1.81-.84,1.23-1.38,1.79c-.54.56-1.23,1.25-2.09,2.05-.59.55-1.04.98-1.36,1.3l-.48-.39c.23-.24.45-.46.65-.65ZM1751.27,1053.46h6.02v.59h-5.94l-.08-.59Z"/>
        <path class="nm" d="M1756.95,1067.75c.33.44.5.92.5,1.43,0,.57-.14,1.08-.41,1.53s-.65.8-1.13,1.06-1.03.38-1.64.38-1.17-.13-1.65-.38-.86-.6-1.13-1.06-.41-.96-.41-1.53h.67c0,.46.11.87.32,1.23s.51.64.9.84c.38.2.81.3,1.29.3s.92-.1,1.3-.29.68-.46.89-.79.32-.72.32-1.16-.11-.8-.32-1.13-.5-.59-.88-.78c-.38-.19-.8-.28-1.28-.28h-.41v-.62h.39c.45,0,.85-.09,1.21-.26s.64-.41.84-.72c.2-.31.3-.66.3-1.05,0-.6-.21-1.09-.64-1.47-.43-.38-.98-.57-1.65-.57-.44,0-.83.09-1.19.27-.36.18-.63.44-.82.77-.19.33-.29.71-.29,1.13h-.67c0-.53.13-1.01.38-1.43s.6-.75,1.05-.99c.45-.24.96-.36,1.54-.36s1.09.12,1.54.36c.45.24.8.57,1.05.99.25.42.38.9.38,1.43,0,.43-.15.85-.45,1.27s-.69.73-1.16.94c.5.19.92.5,1.25.94Z"/>
        <path class="nm" d="M1756.13,1086.48h1.64v.6h-1.64v2.97h-.67v-2.97h-4.61l-.1-.62,4.7-6.52h.67v6.54ZM1755.46,1086.48v-5.38l-3.88,5.38h3.88Z"/>
      </g>
    </g>
    <path class="nm" d="M1111.12,736.64h-.58v-8.02l-1.08.74-.31-.42,1.39-.97h.58v8.66Z"/>
    <path class="nm" d="M923.17,735.58c.17-.16.37-.35.58-.56.72-.68,1.3-1.25,1.73-1.7.44-.46.81-.93,1.12-1.43.31-.5.47-.96.47-1.38s-.08-.77-.24-1.09c-.16-.32-.38-.57-.67-.75-.28-.18-.61-.27-.97-.27-.4,0-.78.14-1.15.41-.36.28-.64.63-.82,1.06l-.54-.23c.22-.52.57-.94,1.03-1.27.46-.33.96-.49,1.48-.49.47,0,.89.11,1.26.34s.66.54.87.94c.21.4.32.85.32,1.36s-.16,1.01-.49,1.55c-.33.54-.72,1.05-1.18,1.54-.46.48-1.06,1.07-1.79,1.76-.5.47-.89.84-1.16,1.12l-.41-.34c.2-.21.39-.39.56-.56ZM922.62,736.14h5.16v.5h-5.09l-.07-.5Z"/>
    <path class="nm" d="M892.66,577.66c.28.38.43.78.43,1.22,0,.49-.12.93-.35,1.31-.23.39-.55.69-.97.91-.41.22-.88.32-1.41.32s-1-.11-1.41-.32-.73-.52-.97-.91c-.23-.39-.35-.83-.35-1.31h.58c0,.39.09.74.28,1.05.18.31.44.55.77.72.33.17.7.26,1.1.26s.79-.08,1.12-.25.58-.39.76-.68c.18-.29.27-.62.27-1s-.09-.68-.27-.97c-.18-.28-.43-.51-.76-.67-.32-.16-.69-.24-1.1-.24h-.35v-.53h.34c.38,0,.73-.07,1.04-.22.31-.15.55-.35.72-.62.17-.26.26-.56.26-.9,0-.51-.18-.93-.55-1.26s-.84-.49-1.42-.49c-.38,0-.72.08-1.02.23-.3.16-.54.38-.7.66-.16.28-.25.61-.25.97h-.58c0-.46.11-.86.32-1.22.22-.36.52-.64.9-.85.38-.2.82-.31,1.32-.31s.94.1,1.32.31.68.49.9.85c.22.36.32.77.32,1.22,0,.37-.13.73-.38,1.09-.26.36-.59.63-1,.81.43.16.79.43,1.07.8Z"/>
    <path class="nm" d="M855.62,256.93h1.4v.52h-1.4v2.54h-.58v-2.54h-3.95l-.08-.53,4.03-5.59h.58v5.6ZM855.05,256.93v-4.61l-3.32,4.61h3.32Z"/>
    <path class="nm" d="M892.66,423.21c.28.38.43.78.43,1.22,0,.49-.12.93-.35,1.31-.23.39-.55.69-.97.91-.41.22-.88.32-1.41.32s-1-.11-1.41-.32-.73-.52-.97-.91c-.23-.39-.35-.83-.35-1.31h.58c0,.39.09.74.28,1.05.18.31.44.55.77.72.33.17.7.26,1.1.26s.79-.08,1.12-.25.58-.39.76-.68c.18-.29.27-.62.27-1s-.09-.68-.27-.97c-.18-.28-.43-.51-.76-.67-.32-.16-.69-.24-1.1-.24h-.35v-.53h.34c.38,0,.73-.07,1.04-.22.31-.15.55-.35.72-.62.17-.26.26-.56.26-.9,0-.51-.18-.93-.55-1.26s-.84-.49-1.42-.49c-.38,0-.72.08-1.02.23-.3.16-.54.38-.7.66-.16.28-.25.61-.25.97h-.58c0-.46.11-.86.32-1.22.22-.36.52-.64.9-.85.38-.2.82-.31,1.32-.31s.94.1,1.32.31.68.49.9.85c.22.36.32.77.32,1.22,0,.37-.13.73-.38,1.09-.26.36-.59.63-1,.81.43.16.79.43,1.07.8Z"/>
    <path class="nm" d="M923.17,887.07c.17-.16.37-.35.58-.56.72-.68,1.3-1.25,1.73-1.7.44-.46.81-.93,1.12-1.43.31-.5.47-.96.47-1.38s-.08-.77-.24-1.09c-.16-.32-.38-.57-.67-.75-.28-.18-.61-.27-.97-.27-.4,0-.78.14-1.15.41-.36.28-.64.63-.82,1.06l-.54-.23c.22-.52.57-.94,1.03-1.27.46-.33.96-.49,1.48-.49.47,0,.89.11,1.26.34s.66.54.87.94c.21.4.32.85.32,1.36s-.16,1.01-.49,1.55c-.33.54-.72,1.05-1.18,1.54-.46.48-1.06,1.07-1.79,1.76-.5.47-.89.84-1.16,1.12l-.41-.34c.2-.21.39-.39.56-.56ZM922.62,887.62h5.16v.5h-5.09l-.07-.5Z"/>
  </g>
</svg>