<?xml version="1.0" encoding="UTF-8"?>
<svg xmlns="http://www.w3.org/2000/svg" viewBox="0 0 2000 1500">
  <defs>
    <style>
      .hz {
        stroke-width: .18px;
      }

      .hz, .ia, .ib, .ic, .id, .ie, .if, .ig, .ih, .ii, .ij, .ik, .il, .im, .in, .io, .ip, .iq, .ir, .is, .it {
        stroke: #000;
      }

      .hz, .ia, .ib, .ic, .id, .ie, .if, .ig, .ih, .ii, .ij, .ik, .im, .in, .io, .ip, .iq, .is, .it {
        stroke-miterlimit: 10;
      }

      .hz, .ia, .ib, .id, .ie, .if, .ig, .ih, .ii, .ij, .ik, .im, .in, .io, .ip, .iq, .is, .it {
        fill: none;
      }

      .ia, .ic, .il, .ir {
        stroke-width: .5px;
      }

      .ib {
        stroke-dasharray: 1.98 .99;
      }

      .ib, .ie, .ig, .ii, .im, .in, .it {
        stroke-width: .3px;
      }

      .ic {
        fill-rule: evenodd;
      }

      .ic, .il, .ir {
        fill: #040000;
      }

      .id {
        stroke-width: .8px;
      }

      .ie {
        stroke-dasharray: 2.02 1.01;
      }

      .if {
        stroke-dasharray: 1.88 .94;
      }

      .if, .ij, .ik, .ip, .is {
        stroke-width: .25px;
      }

      .ig {
        stroke-dasharray: 2 1;
      }

      .ih {
        stroke-width: .4px;
      }

      .ii {
        stroke-dasharray: 1.98 .99;
      }

      .ik, .im {
        stroke-dasharray: 2.07 1.03;
      }

      .il {
        font-family: ArialMT, Arial;
        font-size: 16.01px;
      }

      .io {
        stroke-width: .6px;
      }

      .ip {
        stroke-dasharray: 1.97 .99;
      }

      .iq {
        stroke-width: .1px;
      }

      .ir {
        font-family: MalgunGothic, 'Malgun Gothic';
        font-size: 11.26px;
      }

      .is {
        stroke-dasharray: 1.97 .99;
      }

      .it {
        stroke-dasharray: 1.98 .99;
      }
    </style>
  </defs>
  <g id="e" data-name="F5">
    <g id="f" data-name="HATCH">
      <path class="iq" d="M1058.35,632.16h217.42M780.84,668.16h494.93M780.84,704.16h494.93M780.84,740.16h494.93M780.84,776.16h494.93M802.36,776.78v-143.15M838.36,776.78v-143.15M874.36,776.78v-143.15M910.36,776.78v-143.15M946.36,776.78v-143.15M982.36,776.78v-143.15M1018.36,776.78v-143.15M1054.36,776.78v-143.15M1090.36,776.78v-157.32M1126.36,776.78v-157.32M1162.36,776.78v-157.32M1198.36,776.78v-157.32M1234.36,776.78v-157.32M1270.36,776.78v-157.32"/>
    </g>
    <g id="g" data-name="HATCH">
      <rect class="iq" x="685.87" y="619.45" width="94.96" height="157.32"/>
      <path class="iq" d="M687.34,776.78v-157.32M693.36,776.78v-157.32M699.37,776.78v-157.32M705.38,776.78v-157.32M711.4,776.78v-157.32M717.41,776.78v-157.32M723.42,776.78v-157.32M729.44,776.78v-157.32M735.45,776.78v-157.32M741.46,776.78v-157.32M747.48,776.78v-157.32M753.49,776.78v-157.32M759.5,776.78v-157.32M765.52,776.78v-157.32M771.53,776.78v-157.32M777.54,776.78v-157.32"/>
    </g>
    <g id="h" data-name="HATCH">
      <polygon class="iq" points="1044.17 619.45 1044.17 605.28 1288.8 605.28 1288.8 548.02 685.87 548.02 685.87 619.45 780.84 619.45 1044.17 619.45"/>
      <path class="iq" d="M687.77,619.45v-71.43M695.78,619.45v-71.43M703.8,619.45v-71.43M711.82,619.45v-71.43M719.84,619.45v-71.43M727.85,619.45v-71.43M735.87,619.45v-71.43M743.89,619.45v-71.43M751.91,619.45v-71.43M759.92,619.45v-71.43M767.94,619.45v-71.43M775.96,619.45v-71.43M783.98,619.45v-71.43M791.99,619.45v-71.43M800.01,619.45v-71.43M808.03,619.45v-71.43M816.05,619.45v-71.43M824.06,619.45v-71.43M832.08,619.45v-71.43M840.1,619.45v-71.43M848.12,619.45v-71.43M856.13,619.45v-71.43M864.15,619.45v-71.43M872.17,619.45v-71.43M880.19,619.45v-71.43M888.2,619.45v-71.43M896.22,619.45v-71.43M904.24,619.45v-71.43M912.26,619.45v-71.43M920.28,619.45v-71.43M928.29,619.45v-71.43M936.31,619.45v-71.43M944.33,619.45v-71.43M952.35,619.45v-71.43M960.36,619.45v-71.43M968.38,619.45v-71.43M976.4,619.45v-71.43M984.42,619.45v-71.43M992.43,619.45v-71.43M1000.45,619.45v-71.43M1008.47,619.45v-71.43M1016.49,619.45v-71.43M1024.5,619.45v-71.43M1032.52,619.45v-71.43M1040.54,619.45v-71.43M1048.56,605.28v-57.26M1056.57,605.28v-57.26M1064.59,605.28v-57.26M1072.61,605.28v-57.26M1080.63,605.28v-57.26M1088.64,605.28v-57.26M1096.66,605.28v-57.26M1104.68,605.28v-57.26M1112.7,605.28v-57.26M1120.72,605.28v-57.26M1128.73,605.28v-57.26M1136.75,605.28v-57.26M1144.77,605.28v-57.26M1152.79,605.28v-57.26M1160.8,605.28v-57.26M1168.82,605.28v-57.26M1176.84,605.28v-57.26M1184.86,605.28v-57.26M1192.87,605.28v-57.26M1200.89,605.28v-57.26M1208.91,605.28v-57.26M1216.93,605.28v-57.26M1224.94,605.28v-57.26M1232.96,605.28v-57.26M1240.98,605.28v-57.26M1249,605.28v-57.26M1257.01,605.28v-57.26M1265.03,605.28v-57.26M1273.05,605.28v-57.26M1281.07,605.28v-57.26"/>
    </g>
    <g id="i" data-name="LWPOLYLINE">
      <polyline class="hz" points="823.36 951.67 685.87 951.67 685.87 939.77"/>
    </g>
    <g id="j" data-name="LWPOLYLINE">
      <polyline class="hz" points="1288.8 766.29 1300.71 766.29 1300.71 548.02 685.87 548.02 685.87 619.45"/>
    </g>
    <g id="k" data-name="LINE">
      <line class="hz" x1="1288.8" y1="605.28" x2="1288.8" y2="548.02"/>
    </g>
    <g id="l" data-name="LINE">
      <line class="hz" x1="982.1" y1="951.67" x2="916.9" y2="951.67"/>
    </g>
    <g id="m" data-name="LINE">
      <line class="hz" x1="911.23" y1="951.67" x2="846.03" y2="951.67"/>
    </g>
    <g id="n" data-name="LINE">
      <line class="hz" x1="1300.71" y1="771.96" x2="1300.71" y2="829.22"/>
    </g>
    <g id="o" data-name="LWPOLYLINE">
      <polyline class="hz" points="1189.02 951.67 1193.52 951.67 1244.99 906.35 1237.12 897.41"/>
    </g>
    <g id="p" data-name="LWPOLYLINE">
      <polyline class="hz" points="1241.37 893.67 1249.24 902.6 1300.71 857.27 1300.71 851.89"/>
    </g>
    <g id="q" data-name="LINE">
      <line class="hz" x1="1300.71" y1="771.96" x2="1288.8" y2="771.96"/>
    </g>
    <g id="r" data-name="LINE">
      <line class="hz" x1="911.23" y1="951.67" x2="911.23" y2="939.77"/>
    </g>
    <g id="s" data-name="LINE">
      <line class="hz" x1="916.9" y1="951.67" x2="916.9" y2="939.77"/>
    </g>
    <g id="t" data-name="LWPOLYLINE">
      <polyline class="hz" points="1166.35 951.67 1088.39 951.67 1088.39 939.77"/>
    </g>
    <g id="u" data-name="LWPOLYLINE">
      <polyline class="hz" points="1004.77 951.67 1082.73 951.67 1082.73 939.77"/>
    </g>
    <g id="v" data-name="LWPOLYLINE">
      <path class="hz" d="M903.54,818.53h-9.13v2.72h9.13c.75,0,1.36-.61,1.36-1.36s-.61-1.36-1.36-1.36Z"/>
    </g>
    <g id="w" data-name="LWPOLYLINE">
      <polyline class="hz" points="897.53 818.53 897.53 802.03 923.04 802.03 923.04 837.75 897.53 837.75 897.53 821.25"/>
    </g>
    <g id="x" data-name="LWPOLYLINE">
      <polyline class="hz" points="891.86 850.48 925.87 850.48 925.87 785.28"/>
    </g>
    <g id="y" data-name="LWPOLYLINE">
      <path class="hz" d="M811.17,830.07h-28.63v-24.38h28.63c6.73,0,12.19,5.46,12.19,12.19s-5.46,12.19-12.19,12.19Z"/>
    </g>
    <g id="z" data-name="LINE">
      <line class="hz" x1="860.68" y1="844.81" x2="860.68" y2="790.95"/>
    </g>
    <g id="aa" data-name="LWPOLYLINE">
      <rect class="hz" x="867.48" y="830.92" width="2.27" height="8.5"/>
    </g>
    <g id="ab" data-name="LWPOLYLINE">
      <polyline class="hz" points="869.75 836.59 877.12 836.59 877.12 810.51 861.81 810.51 861.81 836.59 867.48 836.59"/>
    </g>
    <g id="ac" data-name="LWPOLYLINE">
      <polyline class="hz" points="869.75 835.45 875.98 835.45 875.98 811.64 862.95 811.64 862.95 835.45 867.48 835.45"/>
    </g>
    <g id="ad" data-name="LWPOLYLINE">
      <polygon class="hz" points="1287.1 771.96 1287.1 606.98 1045.31 606.98 1045.31 609.25 1284.84 609.25 1284.84 771.96 1287.1 771.96"/>
    </g>
    <g id="ae" data-name="LINE">
      <line class="hz" x1="980.11" y1="937.5" x2="934.19" y2="937.5"/>
    </g>
    <g id="af" data-name="LINE">
      <line class="hz" x1="933.06" y1="937.5" x2="848.02" y2="937.5"/>
    </g>
    <g id="ag" data-name="LINE">
      <line class="hz" x1="979.26" y1="939.07" x2="935.04" y2="939.07"/>
    </g>
    <g id="ah" data-name="LINE">
      <line class="hz" x1="932.21" y1="939.07" x2="848.87" y2="939.07"/>
    </g>
    <g id="ai" data-name="LINE">
      <line class="hz" x1="1164.36" y1="937.5" x2="1006.76" y2="937.5"/>
    </g>
    <g id="aj" data-name="LINE">
      <line class="hz" x1="1163.51" y1="939.07" x2="1007.61" y2="939.07"/>
    </g>
    <g id="ak" data-name="LINE">
      <line class="hz" x1="1189.01" y1="936.76" x2="1285.82" y2="851.5"/>
    </g>
    <g id="al" data-name="LINE">
      <line class="hz" x1="1286.22" y1="853.25" x2="1190.69" y2="937.38"/>
    </g>
    <g id="am" data-name="LINE">
      <line class="hz" x1="821.37" y1="937.5" x2="693.53" y2="937.5"/>
    </g>
    <g id="an" data-name="LINE">
      <line class="hz" x1="820.52" y1="939.07" x2="694.38" y2="939.08"/>
    </g>
    <g id="ao" data-name="LINE">
      <line class="hz" x1="1177.12" y1="779.04" x2="994" y2="779.04"/>
    </g>
    <g id="ap" data-name="LINE">
      <line class="hz" x1="994.85" y1="777.48" x2="1176.27" y2="777.47"/>
    </g>
    <g id="aq" data-name="LWPOLYLINE">
      <polyline class="hz" points="989.18 799.45 989.18 804.56 989.75 804.56 989.75 799.45"/>
    </g>
    <g id="ar" data-name="LWPOLYLINE">
      <polyline class="hz" points="989.75 805.12 989.75 850.48 989.18 850.48 989.18 805.12"/>
    </g>
    <g id="as" data-name="LWPOLYLINE">
      <polyline class="hz" points="989.18 926.73 989.18 893.56 988.61 893.56 988.61 926.73"/>
    </g>
    <g id="at" data-name="LINE">
      <line class="hz" x1="941.56" y1="778.48" x2="985.78" y2="778.48"/>
    </g>
    <g id="au" data-name="LINE">
      <line class="hz" x1="933.34" y1="779.04" x2="893.84" y2="779.04"/>
    </g>
    <g id="av" data-name="LINE">
      <line class="hz" x1="894.69" y1="777.48" x2="932.49" y2="777.48"/>
    </g>
    <g id="aw" data-name="LWPOLYLINE">
      <polyline class="hz" points="1179.1 777.48 1288.1 777.48 1288.1 826.38"/>
    </g>
    <g id="ax" data-name="LWPOLYLINE">
      <polyline class="hz" points="1178.25 779.04 1286.54 779.04 1286.54 827.23"/>
    </g>
    <g id="ay" data-name="CIRCLE">
      <circle class="ij" cx="775.17" cy="884.49" r="1.42"/>
    </g>
    <g id="az" data-name="LWPOLYLINE">
      <polyline class="ij" points="748.24 798.6 748.24 884.49 775.17 884.49"/>
    </g>
    <g id="ba" data-name="LWPOLYLINE">
      <polyline class="ij" points="751.44 801.81 748.24 798.6 745.03 801.81"/>
    </g>
    <g id="bb" data-name="LINE">
      <line class="ij" x1="1275.76" y1="847.39" x2="1185.53" y2="926.73"/>
    </g>
    <g id="bc" data-name="LINE">
      <line class="ij" x1="1166.35" y1="926.73" x2="1004.77" y2="926.73"/>
    </g>
    <g id="bd" data-name="LINE">
      <line class="ij" x1="982.1" y1="926.73" x2="846.03" y2="926.73"/>
    </g>
    <g id="be" data-name="LINE">
      <line class="ij" x1="1275.76" y1="829.22" x2="1275.76" y2="785.28"/>
    </g>
    <g id="bf" data-name="LINE">
      <line class="ij" x1="989.18" y1="785.28" x2="938.16" y2="785.28"/>
    </g>
    <g id="bg" data-name="LINE">
      <line class="ij" x1="719.89" y1="923.5" x2="830.44" y2="923.5"/>
    </g>
    <g id="bh" data-name="LINE">
      <line class="ij" x1="719.89" y1="916.35" x2="830.44" y2="916.35"/>
    </g>
    <g id="bi" data-name="LINE">
      <line class="ij" x1="712.07" y1="799.45" x2="712.07" y2="915.67"/>
    </g>
    <g id="bj" data-name="LINE">
      <line class="ij" x1="719.21" y1="799.45" x2="719.21" y2="915.67"/>
    </g>
    <g id="bk" data-name="LINE">
      <line class="ij" x1="775.17" y1="795.77" x2="772.33" y2="795.77"/>
    </g>
    <g id="bl" data-name="LINE">
      <line class="ij" x1="770.35" y1="795.77" x2="721.31" y2="795.77"/>
    </g>
    <g id="bm" data-name="LINE">
      <line class="ij" x1="775.17" y1="810.51" x2="772.33" y2="810.51"/>
    </g>
    <g id="bn" data-name="LINE">
      <line class="ij" x1="770.35" y1="810.51" x2="721.31" y2="810.51"/>
    </g>
    <g id="bo" data-name="LINE">
      <line class="ij" x1="775.17" y1="825.25" x2="772.33" y2="825.25"/>
    </g>
    <g id="bp" data-name="LINE">
      <line class="ij" x1="770.35" y1="825.25" x2="721.31" y2="825.25"/>
    </g>
    <g id="bq" data-name="LINE">
      <line class="ij" x1="775.17" y1="839.99" x2="772.33" y2="839.99"/>
    </g>
    <g id="br" data-name="LINE">
      <line class="ij" x1="770.35" y1="839.99" x2="721.31" y2="839.99"/>
    </g>
    <g id="bs" data-name="LINE">
      <line class="ij" x1="775.17" y1="854.73" x2="772.33" y2="854.73"/>
    </g>
    <g id="bt" data-name="LINE">
      <line class="ij" x1="770.35" y1="854.73" x2="721.31" y2="854.73"/>
    </g>
    <g id="bu" data-name="LINE">
      <line class="ij" x1="775.17" y1="854.73" x2="773.37" y2="856.71"/>
    </g>
    <g id="bv" data-name="LINE">
      <line class="ij" x1="771.58" y1="858.7" x2="721.31" y2="914.26"/>
    </g>
    <g id="bw" data-name="LINE">
      <line class="ij" x1="775.17" y1="850.48" x2="775.17" y2="856.71"/>
    </g>
    <g id="bx" data-name="LINE">
      <line class="ij" x1="775.17" y1="858.7" x2="775.17" y2="914.26"/>
    </g>
    <g id="by" data-name="LWPOLYLINE">
      <polyline class="ij" points="772.33 790.95 772.33 856.71 786.5 856.71 786.5 858.7 770.35 858.7 770.35 790.95"/>
    </g>
    <g id="bz" data-name="LWPOLYLINE">
      <polyline class="ij" points="721.31 790.95 721.31 914.26 775.17 914.26"/>
    </g>
    <g id="ca" data-name="LWPOLYLINE">
      <g>
        <polyline class="ij" points="1048.71 841.56 1048.71 840.56 1049.71 840.56"/>
        <line class="ip" x1="1050.69" y1="840.56" x2="1115.25" y2="840.56"/>
        <polyline class="ij" points="1115.74 840.56 1116.74 840.56 1116.74 841.56"/>
        <line class="ik" x1="1116.74" y1="842.59" x2="1116.74" y2="873.06"/>
        <polyline class="ij" points="1116.74 873.57 1116.74 874.57 1115.74 874.57"/>
        <line class="ip" x1="1114.76" y1="874.57" x2="1050.2" y2="874.57"/>
        <polyline class="ij" points="1049.71 874.57 1048.71 874.57 1048.71 873.57"/>
        <line class="ik" x1="1048.71" y1="872.54" x2="1048.71" y2="842.07"/>
      </g>
    </g>
    <g id="cb" data-name="LWPOLYLINE">
      <g>
        <polyline class="ij" points="1069.4 878.41 1069.4 877.41 1070.4 877.41"/>
        <line class="if" x1="1071.34" y1="877.41" x2="1093.44" y2="877.41"/>
        <polyline class="ij" points="1093.91 877.41 1094.91 877.41 1094.91 878.41"/>
        <path class="is" d="M1094.91,879.39v15.02c0,7.04-5.71,12.76-12.76,12.76s-12.76-5.71-12.76-12.76v-15.51"/>
      </g>
    </g>
    <g id="cc" data-name="LWPOLYLINE">
      <g>
        <polyline class="ij" points="1116.74 841.56 1116.74 840.56 1117.74 840.56"/>
        <line class="ip" x1="1118.73" y1="840.56" x2="1183.28" y2="840.56"/>
        <polyline class="ij" points="1183.77 840.56 1184.77 840.56 1184.77 841.56"/>
        <line class="ik" x1="1184.77" y1="842.59" x2="1184.77" y2="873.06"/>
        <polyline class="ij" points="1184.77 873.57 1184.77 874.57 1183.77 874.57"/>
        <line class="ip" x1="1182.79" y1="874.57" x2="1118.23" y2="874.57"/>
        <polyline class="ij" points="1117.74 874.57 1116.74 874.57 1116.74 873.57"/>
        <line class="ik" x1="1116.74" y1="872.54" x2="1116.74" y2="842.07"/>
      </g>
    </g>
    <g id="cd" data-name="LWPOLYLINE">
      <g>
        <polyline class="ij" points="1137.43 878.41 1137.43 877.41 1138.43 877.41"/>
        <line class="if" x1="1139.37" y1="877.41" x2="1161.48" y2="877.41"/>
        <polyline class="ij" points="1161.95 877.41 1162.95 877.41 1162.95 878.41"/>
        <path class="is" d="M1162.95,879.39v15.02c0,7.04-5.71,12.76-12.76,12.76s-12.76-5.71-12.76-12.76v-15.51"/>
      </g>
    </g>
    <g id="ce" data-name="LWPOLYLINE">
      <g>
        <line class="in" x1="989.75" y1="805.12" x2="990.75" y2="805.12"/>
        <line class="ie" x1="991.76" y1="805.12" x2="1033.6" y2="805.12"/>
        <polyline class="in" points="1034.1 805.12 1035.1 805.12 1035.1 805.69 1034.1 805.69"/>
        <line class="ie" x1="1033.09" y1="805.69" x2="991.25" y2="805.69"/>
        <line class="in" x1="990.75" y1="805.69" x2="989.75" y2="805.69"/>
      </g>
    </g>
    <g id="cf" data-name="ARC">
      <g>
        <path class="in" d="M989.75,850.48c.33,0,.67,0,1-.01"/>
        <path class="ii" d="M991.74,850.43c23.63-1.02,42.57-20.12,43.34-43.82"/>
        <path class="in" d="M1035.09,806.12c0-.33.01-.67.01-1"/>
      </g>
    </g>
    <g id="cg" data-name="LWPOLYLINE">
      <g>
        <polyline class="in" points="989.18 775.78 989.18 776.78 988.18 776.78"/>
        <polyline class="in" points="986.78 776.78 985.78 776.78 985.78 775.78"/>
        <line class="ig" x1="985.78" y1="774.78" x2="985.78" y2="727.25"/>
        <polyline class="in" points="985.78 726.75 985.78 725.75 986.78 725.75"/>
        <polyline class="in" points="988.18 725.75 989.18 725.75 989.18 726.75"/>
        <line class="ig" x1="989.18" y1="727.75" x2="989.18" y2="775.28"/>
      </g>
    </g>
    <g id="ch" data-name="ARC">
      <g>
        <path class="in" d="M989.18,725.75c-.33,0-.67,0-1,0"/>
        <path class="it" d="M987.19,725.79c-26.76,1.03-48.24,22.66-49.01,49.49"/>
        <path class="in" d="M938.17,775.78c0,.33,0,.67,0,1"/>
      </g>
    </g>
    <g id="ci" data-name="LWPOLYLINE">
      <g>
        <polyline class="in" points="857.84 843.81 857.84 844.81 856.14 844.81 856.14 843.81"/>
        <line class="im" x1="856.14" y1="842.78" x2="856.14" y2="812.31"/>
        <polyline class="in" points="856.14 811.79 856.14 810.79 857.84 810.79 857.84 811.79"/>
        <line class="im" x1="857.84" y1="812.83" x2="857.84" y2="843.29"/>
      </g>
    </g>
    <g id="cj" data-name="ARC">
      <g>
        <path class="in" d="M857.84,810.79c-.33,0-.67,0-1,.01"/>
        <path class="ib" d="M855.86,810.85c-17.37,1-31.24,15.03-32,32.46"/>
        <path class="in" d="M823.84,843.81c0,.33-.01.67-.01,1"/>
      </g>
    </g>
    <g id="ck" data-name="LINE">
      <line class="in" x1="848.87" y1="931.26" x2="932.21" y2="931.26"/>
    </g>
    <g id="cl" data-name="LINE">
      <line class="in" x1="935.04" y1="931.26" x2="979.26" y2="931.26"/>
    </g>
    <g id="cm" data-name="LINE">
      <line class="in" x1="848.87" y1="939.77" x2="932.21" y2="939.77"/>
    </g>
    <g id="cn" data-name="LINE">
      <line class="in" x1="935.04" y1="939.77" x2="979.26" y2="939.77"/>
    </g>
    <g id="co" data-name="LINE">
      <line class="in" x1="1007.61" y1="931.26" x2="1163.51" y2="931.26"/>
    </g>
    <g id="cp" data-name="LINE">
      <line class="in" x1="1007.61" y1="939.77" x2="1163.51" y2="939.77"/>
    </g>
    <g id="cq" data-name="LINE">
      <line class="in" x1="1185.53" y1="931.51" x2="1281.06" y2="847.39"/>
    </g>
    <g id="cr" data-name="LINE">
      <line class="in" x1="1286.68" y1="853.77" x2="1191.15" y2="937.9"/>
    </g>
    <g id="cs" data-name="LINE">
      <line class="in" x1="702.88" y1="931.26" x2="820.52" y2="931.26"/>
    </g>
    <g id="ct" data-name="LINE">
      <line class="in" x1="694.38" y1="939.77" x2="820.52" y2="939.77"/>
    </g>
    <g id="cu" data-name="LWPOLYLINE">
      <polyline class="in" points="1179.1 785.28 1280.3 785.28 1280.3 826.38"/>
    </g>
    <g id="cv" data-name="LINE">
      <line class="in" x1="1176.27" y1="785.28" x2="994.85" y2="785.28"/>
    </g>
    <g id="cw" data-name="LINE">
      <line class="in" x1="1176.27" y1="776.78" x2="994.85" y2="776.78"/>
    </g>
    <g id="cx" data-name="LINE">
      <line class="in" x1="941.56" y1="776.78" x2="985.78" y2="776.78"/>
    </g>
    <g id="cy" data-name="LINE">
      <line class="in" x1="985.78" y1="780.18" x2="941.56" y2="780.18"/>
    </g>
    <g id="cz" data-name="LINE">
      <line class="in" x1="932.49" y1="785.28" x2="894.69" y2="785.28"/>
    </g>
    <g id="da" data-name="LINE">
      <line class="in" x1="932.49" y1="776.78" x2="894.69" y2="776.78"/>
    </g>
    <g id="db" data-name="LWPOLYLINE">
      <polyline class="in" points="1179.1 776.78 1288.8 776.78 1288.8 826.38"/>
    </g>
    <g id="dc" data-name="LWPOLYLINE">
      <polyline class="in" points="780.84 776.78 780.84 619.45 685.87 619.45 685.87 776.78"/>
    </g>
    <g id="dd" data-name="LWPOLYLINE">
      <polyline class="in" points="1288.8 776.78 1288.8 605.28 1044.17 605.28 1044.17 619.45"/>
    </g>
    <g id="de" data-name="LWPOLYLINE">
      <polyline class="in" points="780.84 633.63 1058.35 633.63 1058.35 619.45 780.84 619.45"/>
    </g>
    <g id="df" data-name="LWPOLYLINE">
      <rect class="ih" x="846.03" y="931.26" width="2.83" height="5.67"/>
    </g>
    <g id="dg" data-name="LWPOLYLINE">
      <polyline class="ih" points="846.88 936.93 846.88 938.07 848.02 938.07 848.02 936.93"/>
    </g>
    <g id="dh" data-name="LINE">
      <line class="ih" x1="847.45" y1="938.07" x2="847.45" y2="939.77"/>
    </g>
    <g id="di" data-name="LWPOLYLINE">
      <polyline class="ih" points="846.03 939.07 846.03 939.77 848.87 939.77 848.87 939.08"/>
    </g>
    <g id="dj" data-name="LWPOLYLINE">
      <rect class="ih" x="979.26" y="931.26" width="2.83" height="5.67"/>
    </g>
    <g id="dk" data-name="LWPOLYLINE">
      <polyline class="ih" points="980.11 936.93 980.11 938.07 981.24 938.07 981.24 936.93"/>
    </g>
    <g id="dl" data-name="LINE">
      <line class="ih" x1="980.68" y1="938.07" x2="980.68" y2="939.77"/>
    </g>
    <g id="dm" data-name="LWPOLYLINE">
      <polyline class="ih" points="979.26 939.07 979.26 939.77 982.1 939.77 982.1 939.08"/>
    </g>
    <g id="dn" data-name="LWPOLYLINE">
      <rect class="ih" x="1163.51" y="931.26" width="2.83" height="5.67"/>
    </g>
    <g id="do" data-name="LWPOLYLINE">
      <polyline class="ih" points="1164.36 936.93 1164.36 938.07 1165.5 938.07 1165.5 936.93"/>
    </g>
    <g id="dp" data-name="LINE">
      <line class="ih" x1="1164.93" y1="938.07" x2="1164.93" y2="939.77"/>
    </g>
    <g id="dq" data-name="LWPOLYLINE">
      <polyline class="ih" points="1163.51 939.07 1163.51 939.77 1166.35 939.77 1166.35 939.08"/>
    </g>
    <g id="dr" data-name="LWPOLYLINE">
      <rect class="ih" x="1184.92" y="931.74" width="2.83" height="5.67" transform="translate(-321.64 1017.29) rotate(-41.37)"/>
    </g>
    <g id="ds" data-name="LWPOLYLINE">
      <polyline class="ih" points="1187.79 937.08 1188.54 937.93 1189.39 937.18 1188.64 936.33"/>
    </g>
    <g id="dt" data-name="LINE">
      <line class="ih" x1="1188.96" y1="937.56" x2="1190.09" y2="938.83"/>
    </g>
    <g id="du" data-name="LWPOLYLINE">
      <polyline class="ih" points="1188.56 939.24 1189.02 939.77 1191.15 937.9 1190.69 937.38"/>
    </g>
    <g id="dv" data-name="LWPOLYLINE">
      <rect class="ih" x="1004.77" y="931.26" width="2.83" height="5.67"/>
    </g>
    <g id="dw" data-name="LWPOLYLINE">
      <polyline class="ih" points="1005.62 936.93 1005.62 938.07 1006.76 938.07 1006.76 936.93"/>
    </g>
    <g id="dx" data-name="LINE">
      <line class="ih" x1="1006.19" y1="938.07" x2="1006.19" y2="939.77"/>
    </g>
    <g id="dy" data-name="LWPOLYLINE">
      <polyline class="ih" points="1004.77 939.07 1004.77 939.77 1007.61 939.77 1007.61 939.08"/>
    </g>
    <g id="dz" data-name="LWPOLYLINE">
      <rect class="ih" x="1282.58" y="845.74" width="2.83" height="5.67" transform="translate(-240.43 1060.37) rotate(-41.37)"/>
    </g>
    <g id="ea" data-name="LWPOLYLINE">
      <polyline class="ih" points="1285.44 851.08 1286.19 851.93 1287.04 851.18 1286.29 850.33"/>
    </g>
    <g id="eb" data-name="LINE">
      <line class="ih" x1="1286.62" y1="851.56" x2="1287.74" y2="852.83"/>
    </g>
    <g id="ec" data-name="LWPOLYLINE">
      <polyline class="ih" points="1286.21 853.24 1286.68 853.77 1288.8 851.89 1288.35 851.38"/>
    </g>
    <g id="ed" data-name="LWPOLYLINE">
      <rect class="ih" x="1280.3" y="826.38" width="5.67" height="2.83"/>
    </g>
    <g id="ee" data-name="LWPOLYLINE">
      <polyline class="ih" points="1285.97 828.37 1287.1 828.37 1287.1 827.23 1285.97 827.23"/>
    </g>
    <g id="ef" data-name="LINE">
      <line class="ih" x1="1287.1" y1="827.8" x2="1288.8" y2="827.8"/>
    </g>
    <g id="eg" data-name="LWPOLYLINE">
      <polyline class="ih" points="1288.1 829.22 1288.8 829.22 1288.8 826.38 1288.11 826.38"/>
    </g>
    <g id="eh" data-name="LWPOLYLINE">
      <rect class="ih" x="932.21" y="931.26" width="2.83" height="5.67"/>
    </g>
    <g id="ei" data-name="LWPOLYLINE">
      <polyline class="ih" points="933.06 936.93 933.06 938.07 934.19 938.07 934.19 936.93"/>
    </g>
    <g id="ej" data-name="LINE">
      <line class="ih" x1="933.62" y1="938.07" x2="933.62" y2="939.77"/>
    </g>
    <g id="ek" data-name="LWPOLYLINE">
      <polyline class="ih" points="932.21 939.07 932.21 939.77 935.04 939.77 935.04 939.08"/>
    </g>
    <g id="el" data-name="LWPOLYLINE">
      <rect class="ih" x="1176.27" y="779.61" width="2.83" height="5.67"/>
    </g>
    <g id="em" data-name="LWPOLYLINE">
      <polyline class="ih" points="1178.25 779.61 1178.25 778.48 1177.12 778.48 1177.12 779.61"/>
    </g>
    <g id="en" data-name="LINE">
      <line class="ih" x1="1177.69" y1="778.48" x2="1177.69" y2="776.78"/>
    </g>
    <g id="eo" data-name="LWPOLYLINE">
      <polyline class="ih" points="1179.1 777.48 1179.1 776.78 1176.27 776.78 1176.27 777.47"/>
    </g>
    <g id="ep" data-name="LWPOLYLINE">
      <rect class="ih" x="992.02" y="779.61" width="2.83" height="5.67"/>
    </g>
    <g id="eq" data-name="LWPOLYLINE">
      <polyline class="ih" points="994 779.61 994 778.48 992.87 778.48 992.87 779.61"/>
    </g>
    <g id="er" data-name="LINE">
      <line class="ih" x1="993.43" y1="778.48" x2="993.43" y2="776.78"/>
    </g>
    <g id="es" data-name="LWPOLYLINE">
      <polyline class="ih" points="994.85 777.48 994.85 776.78 992.02 776.78 992.02 777.47"/>
    </g>
    <g id="et" data-name="LWPOLYLINE">
      <rect class="ih" x="891.86" y="779.61" width="2.83" height="5.67"/>
    </g>
    <g id="eu" data-name="LWPOLYLINE">
      <polyline class="ih" points="893.84 779.61 893.84 778.48 892.71 778.48 892.71 779.61"/>
    </g>
    <g id="ev" data-name="LINE">
      <line class="ih" x1="893.28" y1="778.48" x2="893.28" y2="776.78"/>
    </g>
    <g id="ew" data-name="LWPOLYLINE">
      <polyline class="ih" points="894.69 777.48 894.69 776.78 891.86 776.78 891.86 777.47"/>
    </g>
    <g id="ex" data-name="LWPOLYLINE">
      <rect class="ih" x="691.54" y="931.26" width="2.83" height="5.67"/>
    </g>
    <g id="ey" data-name="LWPOLYLINE">
      <polyline class="ih" points="692.39 936.93 692.39 938.07 693.53 938.07 693.53 936.93"/>
    </g>
    <g id="ez" data-name="LINE">
      <line class="ih" x1="692.96" y1="938.07" x2="692.96" y2="939.77"/>
    </g>
    <g id="fa" data-name="LWPOLYLINE">
      <polyline class="ih" points="691.54 939.07 691.54 939.77 694.38 939.77 694.38 939.08"/>
    </g>
    <g id="fb" data-name="LWPOLYLINE">
      <rect class="ih" x="820.52" y="931.26" width="2.83" height="5.67"/>
    </g>
    <g id="fc" data-name="LWPOLYLINE">
      <polyline class="ih" points="821.37 936.93 821.37 938.07 822.5 938.07 822.5 936.93"/>
    </g>
    <g id="fd" data-name="LINE">
      <line class="ih" x1="821.94" y1="938.07" x2="821.94" y2="939.77"/>
    </g>
    <g id="fe" data-name="LWPOLYLINE">
      <polyline class="ih" points="820.52 939.07 820.52 939.77 823.36 939.77 823.36 939.08"/>
    </g>
    <g id="ff" data-name="LWPOLYLINE">
      <rect class="ih" x="932.49" y="779.61" width="2.83" height="5.67"/>
    </g>
    <g id="fg" data-name="LWPOLYLINE">
      <polyline class="ih" points="934.47 779.61 934.47 778.48 933.34 778.48 933.34 779.61"/>
    </g>
    <g id="fh" data-name="LINE">
      <line class="ih" x1="933.91" y1="778.48" x2="933.91" y2="776.78"/>
    </g>
    <g id="fi" data-name="LWPOLYLINE">
      <polyline class="ih" points="935.32 777.48 935.32 776.78 932.49 776.78 932.49 777.47"/>
    </g>
    <g id="fj" data-name="LWPOLYLINE">
      <rect class="ih" x="985.78" y="776.78" width="3.4" height="3.4"/>
    </g>
    <g id="fk" data-name="LWPOLYLINE">
      <rect class="ih" x="938.16" y="776.78" width="3.4" height="3.4"/>
    </g>
    <g id="fl" data-name="LWPOLYLINE">
      <rect class="ih" x="935.32" y="779.61" width="2.83" height="5.67"/>
    </g>
    <g id="fm" data-name="LWPOLYLINE">
      <polyline class="ih" points="937.31 779.61 937.31 778.48 936.17 778.48 936.17 779.61"/>
    </g>
    <g id="fn" data-name="LINE">
      <line class="ih" x1="936.74" y1="778.48" x2="936.74" y2="776.78"/>
    </g>
    <g id="fo" data-name="LWPOLYLINE">
      <polyline class="ih" points="938.16 777.48 938.16 776.78 935.32 776.78 935.32 777.47"/>
    </g>
    <g id="fp" data-name="LWPOLYLINE">
      <rect class="ih" x="989.18" y="779.61" width="2.83" height="5.67"/>
    </g>
    <g id="fq" data-name="LWPOLYLINE">
      <polyline class="ih" points="991.17 779.61 991.17 778.48 990.03 778.48 990.03 779.61"/>
    </g>
    <g id="fr" data-name="LINE">
      <line class="ih" x1="990.6" y1="778.48" x2="990.6" y2="776.78"/>
    </g>
    <g id="fs" data-name="LWPOLYLINE">
      <polyline class="ih" points="992.02 777.48 992.02 776.78 989.18 776.78 989.18 777.47"/>
    </g>
    <g id="ft" data-name="LWPOLYLINE">
      <rect class="ih" x="988.05" y="805.12" width="2.83" height="8.5"/>
    </g>
    <g id="fu" data-name="LWPOLYLINE">
      <rect class="ih" x="820.99" y="844.81" width="2.83" height="5.67"/>
    </g>
    <g id="fv" data-name="LWPOLYLINE">
      <rect class="ih" x="857.84" y="844.81" width="2.83" height="5.67"/>
    </g>
    <g id="fw" data-name="LWPOLYLINE">
      <rect class="ih" x="823.83" y="844.81" width="34.02" height="1.7"/>
    </g>
    <g id="fx" data-name="LWPOLYLINE">
      <polyline class="ih" points="891.86 776.78 685.87 776.78 685.87 939.77 691.54 939.77"/>
    </g>
    <g id="fy" data-name="LWPOLYLINE">
      <polyline class="ih" points="1288.8 829.22 1275.76 829.22 1275.76 847.39 1281.06 847.39"/>
    </g>
    <g id="fz" data-name="LWPOLYLINE">
      <polyline class="ih" points="1166.35 939.77 1166.35 926.73 1185.53 926.73 1185.53 931.51"/>
    </g>
    <g id="ga" data-name="LWPOLYLINE">
      <polyline class="ih" points="1004.77 939.77 1004.77 926.73 982.1 926.73 982.1 939.77"/>
    </g>
    <g id="gb" data-name="LWPOLYLINE">
      <polyline class="ih" points="846.03 939.77 846.03 926.73 823.36 926.73 823.36 939.77"/>
    </g>
    <g id="gc" data-name="LWPOLYLINE">
      <rect class="ih" x="988.61" y="851.04" width="5.67" height="42.52"/>
    </g>
    <g id="gd" data-name="LWPOLYLINE">
      <polyline class="ih" points="820.99 844.81 780.84 844.81 780.84 790.95 886.19 790.95 886.19 844.81 860.68 844.81"/>
    </g>
    <g id="ge" data-name="LWPOLYLINE">
      <polyline class="ih" points="860.68 850.48 891.86 850.48 891.86 785.28"/>
    </g>
    <g id="gf" data-name="LWPOLYLINE">
      <polyline class="ih" points="702.88 790.95 775.17 790.95 775.17 850.48 820.99 850.48"/>
    </g>
    <g id="gg" data-name="LWPOLYLINE">
      <rect class="ia" x="982.1" y="939.77" width="22.68" height="11.91"/>
    </g>
    <g id="gh" data-name="LWPOLYLINE">
      <rect class="ia" x="1166.35" y="939.77" width="22.68" height="11.91"/>
    </g>
    <g id="gi" data-name="LWPOLYLINE">
      <rect class="ia" x="823.36" y="939.77" width="22.68" height="11.91"/>
    </g>
    <g id="gj" data-name="LWPOLYLINE">
      <rect class="ia" x="1288.8" y="829.22" width="11.91" height="22.68"/>
    </g>
    <g id="gk" data-name="LINE">
      <line class="io" x1="702.88" y1="779.61" x2="891.86" y2="779.61"/>
    </g>
    <g id="gl" data-name="LINE">
      <line class="io" x1="702.88" y1="785.28" x2="891.86" y2="785.28"/>
    </g>
    <g id="gm" data-name="LWPOLYLINE">
      <rect class="io" x="989.18" y="915.67" width="8.5" height="8.5"/>
    </g>
    <g id="gn" data-name="LWPOLYLINE">
      <rect class="io" x="1173.43" y="915.67" width="8.5" height="8.5"/>
    </g>
    <g id="go" data-name="LWPOLYLINE">
      <rect class="io" x="1264.71" y="836.3" width="8.5" height="8.5"/>
    </g>
    <g id="gp" data-name="LWPOLYLINE">
      <rect class="io" x="711.39" y="915.67" width="8.5" height="8.5"/>
    </g>
    <g id="gq" data-name="LWPOLYLINE">
      <rect class="io" x="830.44" y="915.67" width="8.5" height="8.5"/>
    </g>
    <g id="gr" data-name="LWPOLYLINE">
      <rect class="io" x="1264.71" y="790.95" width="8.5" height="8.5"/>
    </g>
    <g id="gs" data-name="LWPOLYLINE">
      <rect class="io" x="1173.43" y="790.95" width="8.5" height="8.5"/>
    </g>
    <g id="gt" data-name="LWPOLYLINE">
      <rect class="io" x="989.18" y="790.95" width="8.5" height="8.5"/>
    </g>
    <g id="gu" data-name="LWPOLYLINE">
      <rect class="io" x="830.44" y="790.95" width="8.5" height="8.5"/>
    </g>
    <g id="gv" data-name="LWPOLYLINE">
      <rect class="io" x="711.39" y="790.95" width="8.5" height="8.5"/>
    </g>
    <g id="gw" data-name="LWPOLYLINE">
      <rect class="io" x="831.12" y="916.35" width="7.14" height="7.14"/>
    </g>
    <g id="gx" data-name="LWPOLYLINE">
      <rect class="io" x="712.07" y="916.35" width="7.14" height="7.14"/>
    </g>
    <g id="gy" data-name="LWPOLYLINE">
      <rect class="io" x="712.07" y="791.63" width="7.14" height="7.14"/>
    </g>
    <g id="gz" data-name="LWPOLYLINE">
      <rect class="io" x="831.12" y="791.63" width="7.14" height="7.14"/>
    </g>
    <g id="ha" data-name="LWPOLYLINE">
      <rect class="io" x="989.86" y="791.63" width="7.14" height="7.14"/>
    </g>
    <g id="hb" data-name="LWPOLYLINE">
      <rect class="io" x="989.86" y="916.35" width="7.14" height="7.14"/>
    </g>
    <g id="hc" data-name="LWPOLYLINE">
      <rect class="io" x="1174.11" y="916.35" width="7.14" height="7.14"/>
    </g>
    <g id="hd" data-name="LWPOLYLINE">
      <rect class="io" x="1265.39" y="836.98" width="7.14" height="7.14"/>
    </g>
    <g id="he" data-name="LWPOLYLINE">
      <rect class="io" x="1265.39" y="791.63" width="7.14" height="7.14"/>
    </g>
    <g id="hf" data-name="LWPOLYLINE">
      <rect class="io" x="1174.11" y="791.63" width="7.14" height="7.14"/>
    </g>
    <g id="hg" data-name="LWPOLYLINE">
      <rect class="id" x="691.54" y="779.61" width="11.34" height="151.65"/>
    </g>
    <g id="hh" data-name="LWPOLYLINE">
      <polyline class="in" points="1275.76 776.78 1275.76 619.45 1058.35 619.45"/>
    </g>
  </g>
  <g id="hm" data-name="SCALE">
    <g>
      <g id="hn" data-name="CIRCLE">
        <circle class="ia" cx="209.01" cy="1387.34" r="14.88"/>
      </g>
      <g id="ho" data-name="TEXT">
        <text class="ir" transform="translate(212.22 1369.19) rotate(22.03) scale(.9 1)"><tspan x="0" y="0">N</tspan></text>
      </g>
      <g id="hp" data-name="HATCH">
        <path class="ic" d="M214.59,1373.55c-.23-.09-.46-.18-.7-.26l-5.57,13.78.69.28,5.58-13.8Z"/>
      </g>
      <g id="hq" data-name="HATCH">
        <path class="ic" d="M215.27,1373.84c-.23-.1-.45-.2-.69-.3l-5.58,13.8.69.28,5.57-13.78Z"/>
      </g>
      <g id="hr" data-name="LINE">
        <line class="ia" x1="213.89" y1="1373.28" x2="208.31" y2="1387.06"/>
      </g>
      <g id="hs" data-name="LINE">
        <line class="ia" x1="215.27" y1="1373.84" x2="209.7" y2="1387.62"/>
      </g>
      <g id="ht" data-name="LINE">
        <line class="ia" x1="209.01" y1="1387.34" x2="214.59" y2="1373.55"/>
      </g>
      <g id="hu" data-name="MTEXT">
        <text class="il" transform="translate(272.62 1403.44)"><tspan x="0" y="0">0</tspan></text>
      </g>
      <g id="hv" data-name="MTEXT">
        <text class="il" transform="translate(386.14 1403.44)"><tspan x="0" y="0">2</tspan></text>
      </g>
      <g id="hw" data-name="MTEXT">
        <text class="il" transform="translate(329.86 1403.44)"><tspan x="0" y="0">1</tspan></text>
      </g>
      <g id="hx" data-name="MTEXT">
        <text class="il" transform="translate(549.62 1403.4)"><tspan x="0" y="0">5m</tspan></text>
      </g>
      <g id="hy" data-name="LWPOLYLINE">
        <polyline class="ia" points="560.44 1387.81 560.44 1370.8 390.36 1370.8 390.36 1387.81 333.67 1387.81 333.67 1370.8 276.98 1370.8 276.98 1387.81"/>
      </g>
    </g>
  </g>
</svg>