<?xml version="1.0" encoding="UTF-8"?>
<svg xmlns="http://www.w3.org/2000/svg" viewBox="0 0 2400 1500">
  <defs>
    <style>
      .mm {
        fill-rule: evenodd;
      }

      .mm, .mn, .mo, .mp, .mq, .mr, .ms, .mt, .mu, .mv, .mw, .mx, .my, .mz, .na, .nb, .nc, .nd, .ne, .nf, .ng, .nh, .ni, .nj, .nk, .nl, .nm, .nn, .no, .np, .nq, .nr, .ns, .nt, .nu, .nv, .nw, .nx, .ny, .nz, .oa, .ob {
        stroke: #000;
      }

      .mm, .mn, .mo, .mp, .mq, .ms, .mt, .mu, .mv, .mw, .my, .mz, .na, .nb, .nc, .nd, .ne, .nf, .ng, .nh, .ni, .nj, .nk, .nl, .nm, .nn, .no, .np, .nq, .nr, .ns, .nt, .nu, .nv, .nw, .nx, .ny, .nz, .oa, .ob {
        stroke-miterlimit: 10;
      }

      .mm, .mn, .mv, .mw, .mx, .ne, .nf, .ni, .nj, .no, .np, .nu, .nv, .nx, .ny {
        stroke-width: .5px;
      }

      .mn, .mo, .mp, .mq, .ms, .mt, .mu, .mv, .mw, .my, .mz, .na, .nb, .nc, .nd, .ne, .nf, .ng, .nh, .nj, .nk, .nl, .nm, .nn, .no, .np, .nq, .nr, .ns, .nt, .nu, .nv, .nw, .nx, .ny, .nz, .oa, .ob {
        fill: none;
      }

      .mo {
        stroke-dasharray: 4.52 2.26;
      }

      .mo, .ms, .my, .na, .nd, .nh, .ns {
        stroke-width: .75px;
      }

      .mp {
        stroke-dasharray: 3.07 1.54;
      }

      .mp, .mu, .mz, .nb, .nc, .nk, .nl, .nm, .nq, .nt, .nw, .nz, .oa, .ob {
        stroke-width: .4px;
      }

      .mr {
        stroke-width: .34px;
      }

      .mt {
        stroke-width: .85px;
      }

      .mu {
        stroke-dasharray: 1.03;
      }

      .mv {
        stroke-dasharray: 2.02 1.01;
      }

      .mw {
        stroke-dasharray: 2.02 1.01;
      }

      .my {
        stroke-dasharray: 3.93 1.97;
      }

      .na {
        stroke-dasharray: 4.08 2.04;
      }

      .nb {
        stroke-dasharray: 1.97 .99;
      }

      .nc {
        stroke-dasharray: 1.88 .94;
      }

      .nd {
        stroke-dasharray: 4.52 2.26;
      }

      .ne {
        stroke-dasharray: 2.04 1.02;
      }

      .nf {
        stroke-dasharray: 2.01 1;
      }

      .ng {
        stroke-width: .25px;
      }

      .nh {
        stroke-dasharray: 3.89 1.95;
      }

      .nj {
        stroke-dasharray: 2.04 1.02;
      }

      .nk {
        stroke-dasharray: 1.97 .99;
      }

      .nl {
        stroke-dasharray: 1.99 .99;
      }

      .nm {
        stroke-dasharray: 1.98 .99;
      }

      .nn {
        stroke-width: .6px;
      }

      .no {
        stroke-dasharray: 1.98 .99;
      }

      .np {
        stroke-dasharray: 1.98 .99;
      }

      .nq {
        stroke-dasharray: 2.03 1.01;
      }

      .nr {
        stroke-width: .9px;
      }

      .ns {
        stroke-dasharray: 4.08 2.04;
      }

      .nt {
        stroke-dasharray: 3.04 1.52;
      }

      .nu {
        stroke-dasharray: 1.98 .99;
      }

      .nv {
        stroke-dasharray: 1.98 .99;
      }

      .nw {
        stroke-dasharray: 2.02 1.01;
      }

      .nx {
        stroke-dasharray: 2.07 1.03;
      }

      .ny {
        stroke-dasharray: 1.99 1;
      }

      .nz {
        stroke-dasharray: 3.08 1.54;
      }

      .oa {
        stroke-dasharray: 3.04 1.52;
      }

      .ob {
        stroke-dasharray: 3.03 1.51;
      }
    </style>
  </defs>
  <g id="aq" data-name="f B1">
    <g id="ar" data-name="LWPOLYLINE">
      <polyline class="ng" points="1225.75 618.32 1270.54 618.32 1270.54 617.75 1225.75 617.75"/>
    </g>
    <g id="as" data-name="LINE">
      <line class="ng" x1="1218.95" y1="604.71" x2="1218.95" y2="563.33"/>
    </g>
    <g id="at" data-name="LINE">
      <line class="ng" x1="1076.08" y1="632.49" x2="1137.87" y2="632.49"/>
    </g>
    <g id="au" data-name="LINE">
      <line class="ng" x1="1144.11" y1="684.08" x2="1144.11" y2="645.53"/>
    </g>
    <g id="av" data-name="LWPOLYLINE">
      <polyline class="ng" points="1217.95 622.29 1217.95 631.48 1153.75 631.48"/>
    </g>
    <g id="aw" data-name="LWPOLYLINE">
      <polyline class="ng" points="1152.9 633.06 1219.51 633.06 1219.51 621.44"/>
    </g>
    <g id="ax" data-name="CIRCLE">
      <circle class="nm" cx="1271.97" cy="747.65" r="11.33"/>
    </g>
    <g id="ay" data-name="CIRCLE">
      <circle class="nm" cx="1302.75" cy="776.36" r="11.33"/>
    </g>
    <g id="az" data-name="CIRCLE">
      <circle class="nm" cx="1331.46" cy="745.57" r="11.33"/>
    </g>
    <g id="ba" data-name="CIRCLE">
      <circle class="nm" cx="1300.68" cy="716.86" r="11.33"/>
    </g>
    <g id="bb" data-name="LINE">
      <g>
        <line class="mz" x1="1026" y1="737.38" x2="1026" y2="738.38"/>
        <line class="nw" x1="1026" y1="739.38" x2="1026" y2="871.93"/>
        <line class="mz" x1="1026" y1="872.44" x2="1026" y2="873.44"/>
      </g>
    </g>
    <g id="bc" data-name="LINE">
      <g>
        <line class="mz" x1="1060.01" y1="805.41" x2="1059.01" y2="805.41"/>
        <line class="nk" x1="1058.03" y1="805.41" x2="993.47" y2="805.41"/>
        <line class="mz" x1="992.98" y1="805.41" x2="991.98" y2="805.41"/>
      </g>
    </g>
    <g id="bd" data-name="LINE">
      <g>
        <line class="mz" x1="1060.01" y1="737.38" x2="1059.01" y2="737.38"/>
        <line class="nk" x1="1058.03" y1="737.38" x2="993.47" y2="737.38"/>
        <line class="mz" x1="992.98" y1="737.38" x2="991.98" y2="737.38"/>
      </g>
    </g>
    <g id="be" data-name="ARC">
      <g>
        <path class="mz" d="M1336.23,756.98c.14.32.38.57.67.71"/>
        <path class="mz" d="M1337.21,757.81c.27.06.56.04.83-.08.05-.02.09-.04.14-.07"/>
      </g>
    </g>
    <g id="bf" data-name="LINE">
      <line class="mu" x1="1335.83" y1="756.03" x2="1336.23" y2="756.98"/>
    </g>
    <g id="bg" data-name="ARC">
      <g>
        <path class="mz" d="M1338.19,757.66c.29-.16.58-.34.86-.52"/>
        <path class="nq" d="M1339.87,756.56c5.37-4.1,7.07-11.63,3.68-17.71-1.17-2.1-2.86-3.85-4.9-5.09"/>
        <path class="mz" d="M1338.22,733.5c-.29-.16-.59-.31-.89-.46"/>
      </g>
    </g>
    <g id="bh" data-name="ARC">
      <g>
        <path class="mz" d="M1337.33,733.04c-.32-.15-.67-.17-.98-.08"/>
        <path class="mz" d="M1336.04,733.1c-.24.14-.44.35-.57.62-.02.05-.04.1-.06.14"/>
      </g>
    </g>
    <g id="bi" data-name="LINE">
      <line class="mu" x1="1335.09" y1="734.84" x2="1335.42" y2="733.86"/>
    </g>
    <g id="bj" data-name="ARC">
      <g>
        <path class="mz" d="M1336.23,756.98c.14.32.38.57.67.71"/>
        <path class="mz" d="M1337.21,757.81c.27.06.56.04.83-.08.05-.02.09-.04.14-.07"/>
      </g>
    </g>
    <g id="bk" data-name="LINE">
      <line class="mu" x1="1335.83" y1="756.03" x2="1336.23" y2="756.98"/>
    </g>
    <g id="bl" data-name="ARC">
      <g>
        <path class="mz" d="M1337.33,733.04c-.32-.15-.67-.17-.98-.08"/>
        <path class="mz" d="M1336.04,733.1c-.24.14-.44.35-.57.62-.02.05-.04.1-.06.14"/>
      </g>
    </g>
    <g id="bm" data-name="LINE">
      <line class="mu" x1="1335.09" y1="734.84" x2="1335.42" y2="733.86"/>
    </g>
    <g id="bn" data-name="LWPOLYLINE">
      <g>
        <polyline class="mz" points="1314.06 734.42 1314.02 733.42 1313.02 733.45"/>
        <line class="nc" x1="1312.08" y1="733.48" x2="1289.99" y2="734.25"/>
        <polyline class="mz" points="1289.52 734.27 1288.52 734.31 1288.56 735.31"/>
        <line class="nc" x1="1288.59" y1="736.25" x2="1289.36" y2="758.33"/>
        <polyline class="mz" points="1289.38 758.8 1289.41 759.8 1290.41 759.77"/>
        <line class="nc" x1="1291.35" y1="759.73" x2="1313.44" y2="758.96"/>
        <polyline class="mz" points="1313.91 758.95 1314.91 758.91 1314.88 757.91"/>
        <line class="nc" x1="1314.84" y1="756.97" x2="1314.07" y2="734.89"/>
      </g>
    </g>
    <g id="bo" data-name="ARC">
      <g>
        <path class="mz" d="M1266.11,760.18c.32.15.67.17.98.08"/>
        <path class="mz" d="M1267.39,760.12c.24-.14.44-.35.57-.62.02-.05.04-.1.06-.14"/>
      </g>
    </g>
    <g id="bp" data-name="LINE">
      <line class="mu" x1="1268.35" y1="758.38" x2="1268.01" y2="759.36"/>
    </g>
    <g id="bq" data-name="ARC">
      <g>
        <path class="mz" d="M1265.25,735.56c-.29.16-.58.34-.86.52"/>
        <path class="nq" d="M1263.56,736.66c-5.37,4.1-7.07,11.63-3.68,17.71,1.17,2.1,2.86,3.85,4.9,5.09"/>
        <path class="mz" d="M1265.22,759.72c.29.16.59.31.89.46"/>
      </g>
    </g>
    <g id="br" data-name="ARC">
      <g>
        <path class="mz" d="M1267.21,736.24c-.14-.32-.38-.57-.67-.71"/>
        <path class="mz" d="M1266.22,735.41c-.27-.06-.56-.04-.83.08-.05.02-.09.04-.14.07"/>
      </g>
    </g>
    <g id="bs" data-name="LINE">
      <line class="mu" x1="1267.61" y1="737.19" x2="1267.21" y2="736.24"/>
    </g>
    <g id="bt" data-name="ARC">
      <g>
        <path class="mz" d="M1266.11,760.18c.32.15.67.17.98.08"/>
        <path class="mz" d="M1267.39,760.12c.24-.14.44-.35.57-.62.02-.05.04-.1.06-.14"/>
      </g>
    </g>
    <g id="bu" data-name="LINE">
      <line class="mu" x1="1268.35" y1="758.38" x2="1268.01" y2="759.36"/>
    </g>
    <g id="bv" data-name="ARC">
      <g>
        <path class="mz" d="M1267.21,736.24c-.14-.32-.38-.57-.67-.71"/>
        <path class="mz" d="M1266.22,735.41c-.27-.06-.56-.04-.83.08-.05.02-.09.04-.14.07"/>
      </g>
    </g>
    <g id="bw" data-name="LINE">
      <line class="mu" x1="1267.61" y1="737.19" x2="1267.21" y2="736.24"/>
    </g>
    <g id="bx" data-name="ARC">
      <g>
        <path class="mz" d="M1312.09,712.1c.32-.14.57-.38.71-.67"/>
        <path class="mz" d="M1312.91,711.11c.06-.27.04-.56-.08-.83-.02-.05-.04-.09-.07-.14"/>
      </g>
    </g>
    <g id="by" data-name="LINE">
      <line class="mu" x1="1311.14" y1="712.5" x2="1312.09" y2="712.1"/>
    </g>
    <g id="bz" data-name="ARC">
      <g>
        <path class="mz" d="M1312.77,710.14c-.16-.29-.34-.58-.52-.86"/>
        <path class="nq" d="M1311.67,708.46c-4.1-5.37-11.63-7.07-17.71-3.68-2.1,1.17-3.85,2.86-5.09,4.9"/>
        <path class="mz" d="M1288.61,710.11c-.16.29-.31.59-.46.89"/>
      </g>
    </g>
    <g id="ca" data-name="ARC">
      <g>
        <path class="mz" d="M1288.15,711c-.15.32-.17.67-.08.98"/>
        <path class="mz" d="M1288.2,712.28c.14.24.35.44.62.57.05.02.1.04.14.06"/>
      </g>
    </g>
    <g id="cb" data-name="LINE">
      <line class="mu" x1="1289.95" y1="713.24" x2="1288.97" y2="712.91"/>
    </g>
    <g id="cc" data-name="ARC">
      <g>
        <path class="mz" d="M1312.09,712.1c.32-.14.57-.38.71-.67"/>
        <path class="mz" d="M1312.91,711.11c.06-.27.04-.56-.08-.83-.02-.05-.04-.09-.07-.14"/>
      </g>
    </g>
    <g id="cd" data-name="LINE">
      <line class="mu" x1="1311.14" y1="712.5" x2="1312.09" y2="712.1"/>
    </g>
    <g id="ce" data-name="ARC">
      <g>
        <path class="mz" d="M1288.15,711c-.15.32-.17.67-.08.98"/>
        <path class="mz" d="M1288.2,712.28c.14.24.35.44.62.57.05.02.1.04.14.06"/>
      </g>
    </g>
    <g id="cf" data-name="LINE">
      <line class="mu" x1="1289.95" y1="713.24" x2="1288.97" y2="712.91"/>
    </g>
    <g id="cg" data-name="ARC">
      <g>
        <path class="mz" d="M1315.28,782.22c.15-.32.17-.67.08-.98"/>
        <path class="mz" d="M1315.23,780.94c-.14-.24-.35-.44-.62-.57-.05-.02-.1-.04-.14-.06"/>
      </g>
    </g>
    <g id="ch" data-name="LINE">
      <line class="mu" x1="1313.49" y1="779.98" x2="1314.47" y2="780.31"/>
    </g>
    <g id="ci" data-name="ARC">
      <g>
        <path class="mz" d="M1290.66,783.08c.16.29.34.58.52.86"/>
        <path class="nq" d="M1291.77,784.76c4.1,5.37,11.63,7.07,17.71,3.68,2.1-1.17,3.85-2.86,5.09-4.9"/>
        <path class="mz" d="M1314.83,783.11c.16-.29.31-.59.46-.89"/>
      </g>
    </g>
    <g id="cj" data-name="ARC">
      <g>
        <path class="mz" d="M1291.34,781.12c-.32.14-.57.38-.71.67"/>
        <path class="mz" d="M1290.52,782.1c-.06.27-.04.56.08.83.02.05.04.09.07.14"/>
      </g>
    </g>
    <g id="ck" data-name="LINE">
      <line class="mu" x1="1292.3" y1="780.72" x2="1291.34" y2="781.12"/>
    </g>
    <g id="cl" data-name="ARC">
      <g>
        <path class="mz" d="M1315.28,782.22c.15-.32.17-.67.08-.98"/>
        <path class="mz" d="M1315.23,780.94c-.14-.24-.35-.44-.62-.57-.05-.02-.1-.04-.14-.06"/>
      </g>
    </g>
    <g id="cm" data-name="LINE">
      <line class="mu" x1="1313.49" y1="779.98" x2="1314.47" y2="780.31"/>
    </g>
    <g id="cn" data-name="ARC">
      <g>
        <path class="mz" d="M1291.34,781.12c-.32.14-.57.38-.71.67"/>
        <path class="mz" d="M1290.52,782.1c-.06.27-.04.56.08.83.02.05.04.09.07.14"/>
      </g>
    </g>
    <g id="co" data-name="LINE">
      <line class="mu" x1="1292.3" y1="780.72" x2="1291.34" y2="781.12"/>
    </g>
    <g id="cp" data-name="CIRCLE">
      <circle class="nm" cx="1367.68" cy="819.03" r="11.33"/>
    </g>
    <g id="cq" data-name="CIRCLE">
      <circle class="nm" cx="1405.96" cy="836.54" r="11.33"/>
    </g>
    <g id="cr" data-name="CIRCLE">
      <path class="nm" d="M1434.8,798.27c0-6.26-5.07-11.33-11.33-11.33s-11.33,5.07-11.33,11.33,5.07,11.33,11.33,11.33,11.33-5.07,11.33-11.33Z"/>
    </g>
    <g id="cs" data-name="CIRCLE">
      <path class="nm" d="M1396.52,780.76c0-6.26-5.07-11.33-11.33-11.33s-11.33,5.07-11.33,11.33,5.07,11.33,11.33,11.33,11.33-5.07,11.33-11.33Z"/>
    </g>
    <g id="ct" data-name="ARC">
      <g>
        <path class="mz" d="M1431.59,807.59c.23.27.54.42.86.46"/>
        <path class="mz" d="M1432.79,808.06c.27-.03.54-.14.77-.33.04-.03.08-.07.11-.11"/>
      </g>
    </g>
    <g id="cu" data-name="LINE">
      <line class="mu" x1="1430.91" y1="806.81" x2="1431.59" y2="807.59"/>
    </g>
    <g id="cv" data-name="ARC">
      <g>
        <path class="mz" d="M1433.67,807.61c.23-.25.44-.5.65-.76"/>
        <path class="nq" d="M1434.92,806.04c3.8-5.59,3.03-13.27-2.1-17.97-1.77-1.62-3.93-2.75-6.25-3.29"/>
        <path class="mz" d="M1426.06,784.68c-.33-.06-.66-.11-.99-.15"/>
      </g>
    </g>
    <g id="cw" data-name="ARC">
      <g>
        <path class="mz" d="M1425.07,784.53c-.35-.04-.68.05-.95.24"/>
        <path class="mz" d="M1423.87,784.98c-.18.21-.31.47-.34.76,0,.05,0,.1,0,.16"/>
      </g>
    </g>
    <g id="cx" data-name="LINE">
      <line class="mu" x1="1423.52" y1="786.94" x2="1423.52" y2="785.9"/>
    </g>
    <g id="cy" data-name="ARC">
      <g>
        <path class="mz" d="M1431.59,807.59c.23.27.54.42.86.46"/>
        <path class="mz" d="M1432.79,808.06c.27-.03.54-.14.77-.33.04-.03.08-.07.11-.11"/>
      </g>
    </g>
    <g id="cz" data-name="LINE">
      <line class="mu" x1="1430.91" y1="806.81" x2="1431.59" y2="807.59"/>
    </g>
    <g id="da" data-name="ARC">
      <g>
        <path class="mz" d="M1425.07,784.53c-.35-.04-.68.05-.95.24"/>
        <path class="mz" d="M1423.87,784.98c-.18.21-.31.47-.34.76,0,.05,0,.1,0,.16"/>
      </g>
    </g>
    <g id="db" data-name="LINE">
      <line class="mu" x1="1423.52" y1="786.94" x2="1423.52" y2="785.9"/>
    </g>
    <g id="dc" data-name="LWPOLYLINE">
      <g>
        <polyline class="mz" points="1403.43 793.18 1403.08 792.25 1402.14 792.59"/>
        <line class="nc" x1="1401.26" y1="792.92" x2="1380.55" y2="800.63"/>
        <polyline class="mz" points="1380.11 800.8 1379.17 801.15 1379.52 802.08"/>
        <line class="nc" x1="1379.85" y1="802.96" x2="1387.56" y2="823.68"/>
        <polyline class="mz" points="1387.72 824.12 1388.07 825.05 1389.01 824.71"/>
        <line class="nc" x1="1389.89" y1="824.38" x2="1410.6" y2="816.67"/>
        <polyline class="mz" points="1411.04 816.5 1411.98 816.15 1411.63 815.22"/>
        <line class="nc" x1="1411.3" y1="814.34" x2="1403.59" y2="793.62"/>
      </g>
    </g>
    <g id="dd" data-name="ARC">
      <g>
        <path class="mz" d="M1366.07,832.77c.35.04.68-.05.95-.24"/>
        <path class="mz" d="M1367.27,832.32c.18-.21.31-.47.34-.76,0-.05,0-.1,0-.16"/>
      </g>
    </g>
    <g id="de" data-name="LINE">
      <line class="mu" x1="1367.63" y1="830.36" x2="1367.63" y2="831.4"/>
    </g>
    <g id="df" data-name="ARC">
      <g>
        <path class="mz" d="M1357.48,809.69c-.23.25-.44.5-.65.76"/>
        <path class="nq" d="M1356.23,811.26c-3.8,5.59-3.03,13.27,2.1,17.97,1.77,1.62,3.93,2.75,6.25,3.29"/>
        <path class="mz" d="M1365.08,832.62c.33.06.66.11.99.15"/>
      </g>
    </g>
    <g id="dg" data-name="ARC">
      <g>
        <path class="mz" d="M1359.55,809.71c-.23-.27-.54-.42-.86-.46"/>
        <path class="mz" d="M1358.36,809.24c-.27.03-.54.14-.77.33-.04.03-.08.07-.11.11"/>
      </g>
    </g>
    <g id="dh" data-name="LINE">
      <line class="mu" x1="1360.23" y1="810.49" x2="1359.55" y2="809.71"/>
    </g>
    <g id="di" data-name="ARC">
      <g>
        <path class="mz" d="M1366.07,832.77c.35.04.68-.05.95-.24"/>
        <path class="mz" d="M1367.27,832.32c.18-.21.31-.47.34-.76,0-.05,0-.1,0-.16"/>
      </g>
    </g>
    <g id="dj" data-name="LINE">
      <line class="mu" x1="1367.63" y1="830.36" x2="1367.63" y2="831.4"/>
    </g>
    <g id="dk" data-name="ARC">
      <g>
        <path class="mz" d="M1359.55,809.71c-.23-.27-.54-.42-.86-.46"/>
        <path class="mz" d="M1358.36,809.24c-.27.03-.54.14-.77.33-.04.03-.08.07-.11.11"/>
      </g>
    </g>
    <g id="dl" data-name="LINE">
      <line class="mu" x1="1360.23" y1="810.49" x2="1359.55" y2="809.71"/>
    </g>
    <g id="dm" data-name="ARC">
      <g>
        <path class="mz" d="M1394.51,772.63c.27-.23.42-.54.46-.86"/>
        <path class="mz" d="M1394.98,771.44c-.03-.27-.14-.54-.33-.77-.03-.04-.07-.08-.11-.11"/>
      </g>
    </g>
    <g id="dn" data-name="LINE">
      <line class="mu" x1="1393.73" y1="773.31" x2="1394.51" y2="772.63"/>
    </g>
    <g id="do" data-name="ARC">
      <g>
        <path class="mz" d="M1394.54,770.56c-.25-.23-.5-.44-.76-.65"/>
        <path class="nq" d="M1392.96,769.31c-5.59-3.8-13.27-3.03-17.97,2.1-1.62,1.77-2.75,3.93-3.29,6.25"/>
        <path class="mz" d="M1371.6,778.16c-.06.33-.11.66-.15.99"/>
      </g>
    </g>
    <g id="dp" data-name="ARC">
      <g>
        <path class="mz" d="M1371.45,779.15c-.04.35.05.68.24.95"/>
        <path class="mz" d="M1371.91,780.35c.21.18.47.31.76.34.05,0,.1,0,.16,0"/>
      </g>
    </g>
    <g id="dq" data-name="LINE">
      <line class="mu" x1="1373.86" y1="780.71" x2="1372.82" y2="780.7"/>
    </g>
    <g id="dr" data-name="ARC">
      <g>
        <path class="mz" d="M1394.51,772.63c.27-.23.42-.54.46-.86"/>
        <path class="mz" d="M1394.98,771.44c-.03-.27-.14-.54-.33-.77-.03-.04-.07-.08-.11-.11"/>
      </g>
    </g>
    <g id="ds" data-name="LINE">
      <line class="mu" x1="1393.73" y1="773.31" x2="1394.51" y2="772.63"/>
    </g>
    <g id="dt" data-name="ARC">
      <g>
        <path class="mz" d="M1371.45,779.15c-.04.35.05.68.24.95"/>
        <path class="mz" d="M1371.91,780.35c.21.18.47.31.76.34.05,0,.1,0,.16,0"/>
      </g>
    </g>
    <g id="du" data-name="LINE">
      <line class="mu" x1="1373.86" y1="780.71" x2="1372.82" y2="780.7"/>
    </g>
    <g id="dv" data-name="ARC">
      <g>
        <path class="mz" d="M1419.7,838.15c.04-.35-.05-.68-.24-.95"/>
        <path class="mz" d="M1419.24,836.95c-.21-.18-.47-.31-.76-.34-.05,0-.1,0-.16,0"/>
      </g>
    </g>
    <g id="dw" data-name="LINE">
      <line class="mu" x1="1417.29" y1="836.59" x2="1418.32" y2="836.6"/>
    </g>
    <g id="dx" data-name="ARC">
      <g>
        <path class="mz" d="M1396.61,846.74c.25.23.5.44.76.65"/>
        <path class="nq" d="M1398.19,847.99c5.59,3.8,13.27,3.03,17.97-2.1,1.62-1.77,2.75-3.93,3.29-6.25"/>
        <path class="mz" d="M1419.54,839.14c.06-.33.11-.66.15-.99"/>
      </g>
    </g>
    <g id="dy" data-name="ARC">
      <g>
        <path class="mz" d="M1396.63,844.67c-.27.23-.42.54-.46.86"/>
        <path class="mz" d="M1396.16,845.86c.03.27.14.54.33.77.03.04.07.08.11.11"/>
      </g>
    </g>
    <g id="dz" data-name="LINE">
      <line class="mu" x1="1397.41" y1="843.99" x2="1396.63" y2="844.67"/>
    </g>
    <g id="ea" data-name="ARC">
      <g>
        <path class="mz" d="M1419.7,838.15c.04-.35-.05-.68-.24-.95"/>
        <path class="mz" d="M1419.24,836.95c-.21-.18-.47-.31-.76-.34-.05,0-.1,0-.16,0"/>
      </g>
    </g>
    <g id="eb" data-name="LINE">
      <line class="mu" x1="1417.29" y1="836.59" x2="1418.32" y2="836.6"/>
    </g>
    <g id="ec" data-name="ARC">
      <g>
        <path class="mz" d="M1396.63,844.67c-.27.23-.42.54-.46.86"/>
        <path class="mz" d="M1396.16,845.86c.03.27.14.54.33.77.03.04.07.08.11.11"/>
      </g>
    </g>
    <g id="ed" data-name="LINE">
      <line class="mu" x1="1397.41" y1="843.99" x2="1396.63" y2="844.67"/>
    </g>
    <g id="ee" data-name="LWPOLYLINE">
      <g>
        <polyline class="mz" points="1013.24 700.66 1013.24 701.66 1014.24 701.66"/>
        <line class="nc" x1="1015.18" y1="701.66" x2="1037.28" y2="701.66"/>
        <polyline class="mz" points="1037.75 701.66 1038.75 701.66 1038.75 700.66"/>
        <path class="nb" d="M1038.75,699.67v-15.02c0-7.04-5.71-12.76-12.76-12.76s-12.76,5.71-12.76,12.76v15.51"/>
      </g>
    </g>
    <g id="ef" data-name="LWPOLYLINE">
      <g>
        <polyline class="mz" points="989.28 733.12 990.28 733.12 990.28 732.12"/>
        <line class="nc" x1="990.28" y1="731.18" x2="990.28" y2="709.08"/>
        <polyline class="mz" points="990.28 708.61 990.28 707.61 989.28 707.61"/>
        <path class="nb" d="M988.29,707.61h-15.02c-7.04,0-12.76,5.71-12.76,12.76s5.71,12.76,12.76,12.76h15.51"/>
      </g>
    </g>
    <g id="eg" data-name="LWPOLYLINE">
      <g>
        <polyline class="mz" points="1062.71 707.61 1061.71 707.61 1061.71 708.61"/>
        <line class="nc" x1="1061.71" y1="709.55" x2="1061.71" y2="731.65"/>
        <polyline class="mz" points="1061.71 732.12 1061.71 733.12 1062.71 733.12"/>
        <path class="nb" d="M1063.7,733.12h15.02c7.04,0,12.76-5.71,12.76-12.76s-5.71-12.76-12.76-12.76h-15.51"/>
      </g>
    </g>
    <g id="eh" data-name="LWPOLYLINE">
      <g>
        <polyline class="mz" points="989.28 767.14 990.28 767.14 990.28 766.14"/>
        <line class="nc" x1="990.28" y1="765.2" x2="990.28" y2="743.1"/>
        <polyline class="mz" points="990.28 742.63 990.28 741.63 989.28 741.63"/>
        <path class="nb" d="M988.29,741.63h-15.02c-7.04,0-12.76,5.71-12.76,12.76s5.71,12.76,12.76,12.76h15.51"/>
      </g>
    </g>
    <g id="ei" data-name="LWPOLYLINE">
      <g>
        <polyline class="mz" points="1062.71 741.63 1061.71 741.63 1061.71 742.63"/>
        <line class="nc" x1="1061.71" y1="743.57" x2="1061.71" y2="765.67"/>
        <polyline class="mz" points="1061.71 766.14 1061.71 767.14 1062.71 767.14"/>
        <path class="nb" d="M1063.7,767.14h15.02c7.04,0,12.76-5.71,12.76-12.76s-5.71-12.76-12.76-12.76h-15.51"/>
      </g>
    </g>
    <g id="ej" data-name="LWPOLYLINE">
      <g>
        <polyline class="mz" points="989.28 801.15 990.28 801.15 990.28 800.15"/>
        <line class="nc" x1="990.28" y1="799.21" x2="990.28" y2="777.11"/>
        <polyline class="mz" points="990.28 776.64 990.28 775.64 989.28 775.64"/>
        <path class="nb" d="M988.29,775.64h-15.02c-7.04,0-12.76,5.71-12.76,12.76s5.71,12.76,12.76,12.76h15.51"/>
      </g>
    </g>
    <g id="ek" data-name="LWPOLYLINE">
      <g>
        <polyline class="mz" points="1062.71 775.64 1061.71 775.64 1061.71 776.64"/>
        <line class="nc" x1="1061.71" y1="777.58" x2="1061.71" y2="799.68"/>
        <polyline class="mz" points="1061.71 800.15 1061.71 801.15 1062.71 801.15"/>
        <path class="nb" d="M1063.7,801.15h15.02c7.04,0,12.76-5.71,12.76-12.76s-5.71-12.76-12.76-12.76h-15.51"/>
      </g>
    </g>
    <g id="el" data-name="LWPOLYLINE">
      <g>
        <polyline class="mz" points="989.28 835.17 990.28 835.17 990.28 834.17"/>
        <line class="nc" x1="990.28" y1="833.23" x2="990.28" y2="811.13"/>
        <polyline class="mz" points="990.28 810.66 990.28 809.66 989.28 809.66"/>
        <path class="nb" d="M988.29,809.66h-15.02c-7.04,0-12.76,5.71-12.76,12.76s5.71,12.76,12.76,12.76h15.51"/>
      </g>
    </g>
    <g id="em" data-name="LWPOLYLINE">
      <g>
        <polyline class="mz" points="1062.71 809.66 1061.71 809.66 1061.71 810.66"/>
        <line class="nc" x1="1061.71" y1="811.6" x2="1061.71" y2="833.7"/>
        <polyline class="mz" points="1061.71 834.17 1061.71 835.17 1062.71 835.17"/>
        <path class="nb" d="M1063.7,835.17h15.02c7.04,0,12.76-5.71,12.76-12.76s-5.71-12.76-12.76-12.76h-15.51"/>
      </g>
    </g>
    <g id="en" data-name="LWPOLYLINE">
      <g>
        <polyline class="mz" points="989.28 869.19 990.28 869.19 990.28 868.19"/>
        <line class="nc" x1="990.28" y1="867.25" x2="990.28" y2="845.14"/>
        <polyline class="mz" points="990.28 844.67 990.28 843.67 989.28 843.67"/>
        <path class="nb" d="M988.29,843.67h-15.02c-7.04,0-12.76,5.71-12.76,12.76s5.71,12.76,12.76,12.76h15.51"/>
      </g>
    </g>
    <g id="eo" data-name="LWPOLYLINE">
      <g>
        <polyline class="mz" points="1062.71 843.67 1061.71 843.67 1061.71 844.67"/>
        <line class="nc" x1="1061.71" y1="845.61" x2="1061.71" y2="867.72"/>
        <polyline class="mz" points="1061.71 868.19 1061.71 869.19 1062.71 869.19"/>
        <path class="nb" d="M1063.7,869.19h15.02c7.04,0,12.76-5.71,12.76-12.76s-5.71-12.76-12.76-12.76h-15.51"/>
      </g>
    </g>
    <g id="ep" data-name="LWPOLYLINE">
      <g>
        <polyline class="mz" points="1060.01 872.44 1060.01 873.44 1059.01 873.44"/>
        <line class="nk" x1="1058.03" y1="873.44" x2="993.47" y2="873.44"/>
        <polyline class="mz" points="992.98 873.44 991.98 873.44 991.98 872.44"/>
        <line class="nl" x1="991.98" y1="871.44" x2="991.98" y2="704.86"/>
        <polyline class="mz" points="991.98 704.36 991.98 703.36 992.98 703.36"/>
        <line class="nk" x1="993.97" y1="703.36" x2="1058.52" y2="703.36"/>
        <polyline class="mz" points="1059.01 703.36 1060.01 703.36 1060.01 704.36"/>
        <line class="nl" x1="1060.01" y1="705.35" x2="1060.01" y2="871.94"/>
      </g>
    </g>
    <g id="eq" data-name="CIRCLE">
      <path class="nm" d="M1318.73,861.02c0-6.26-5.07-11.33-11.33-11.33s-11.33,5.07-11.33,11.33,5.07,11.33,11.33,11.33,11.33-5.07,11.33-11.33Z"/>
    </g>
    <g id="er" data-name="CIRCLE">
      <path class="nm" d="M1293.86,827.06c0-6.26-5.07-11.33-11.33-11.33s-11.33,5.07-11.33,11.33,5.07,11.33,11.33,11.33,11.33-5.07,11.33-11.33Z"/>
    </g>
    <g id="es" data-name="CIRCLE">
      <path class="nm" d="M1259.9,851.93c0-6.26-5.07-11.33-11.33-11.33s-11.33,5.07-11.33,11.33,5.07,11.33,11.33,11.33,11.33-5.07,11.33-11.33Z"/>
    </g>
    <g id="et" data-name="CIRCLE">
      <path class="nm" d="M1284.77,885.89c0-6.26-5.07-11.33-11.33-11.33s-11.33,5.07-11.33,11.33,5.07,11.33,11.33,11.33,11.33-5.07,11.33-11.33Z"/>
    </g>
    <g id="eu" data-name="ARC">
      <g>
        <path class="mz" d="M1246.02,839.83c-.07-.34-.27-.63-.53-.83"/>
        <path class="mz" d="M1245.21,838.84c-.25-.11-.54-.14-.83-.08-.05.01-.1.02-.15.04"/>
      </g>
    </g>
    <g id="ev" data-name="LINE">
      <line class="mu" x1="1246.24" y1="840.85" x2="1246.02" y2="839.83"/>
    </g>
    <g id="ew" data-name="ARC">
      <g>
        <path class="mz" d="M1244.22,838.8c-.32.11-.63.22-.94.35"/>
        <path class="nq" d="M1242.36,839.57c-6.05,3.02-9.11,10.1-6.93,16.71.75,2.28,2.09,4.32,3.86,5.92"/>
        <path class="mz" d="M1239.68,862.53c.25.21.52.42.79.61"/>
      </g>
    </g>
    <g id="ex" data-name="ARC">
      <g>
        <path class="mz" d="M1240.47,863.15c.29.21.62.29.95.26"/>
        <path class="mz" d="M1241.74,863.33c.26-.09.5-.26.67-.5.03-.04.06-.09.08-.13"/>
      </g>
    </g>
    <g id="ey" data-name="LINE">
      <line class="mu" x1="1243" y1="861.8" x2="1242.49" y2="862.7"/>
    </g>
    <g id="ez" data-name="ARC">
      <g>
        <path class="mz" d="M1246.02,839.83c-.07-.34-.27-.63-.53-.83"/>
        <path class="mz" d="M1245.21,838.84c-.25-.11-.54-.14-.83-.08-.05.01-.1.02-.15.04"/>
      </g>
    </g>
    <g id="fa" data-name="LINE">
      <line class="mu" x1="1246.24" y1="840.85" x2="1246.02" y2="839.83"/>
    </g>
    <g id="fb" data-name="ARC">
      <g>
        <path class="mz" d="M1240.47,863.15c.29.21.62.29.95.26"/>
        <path class="mz" d="M1241.74,863.33c.26-.09.5-.26.67-.5.03-.04.06-.09.08-.13"/>
      </g>
    </g>
    <g id="fc" data-name="LINE">
      <line class="mu" x1="1243" y1="861.8" x2="1242.49" y2="862.7"/>
    </g>
    <g id="fd" data-name="LWPOLYLINE">
      <g>
        <polyline class="mz" points="1263.58 866.15 1263.43 867.14 1264.42 867.29"/>
        <line class="nc" x1="1265.35" y1="867.43" x2="1287.19" y2="870.8"/>
        <polyline class="mz" points="1287.66 870.88 1288.64 871.03 1288.8 870.04"/>
        <line class="nc" x1="1288.94" y1="869.11" x2="1292.31" y2="847.27"/>
        <polyline class="mz" points="1292.38 846.8 1292.54 845.82 1291.55 845.66"/>
        <line class="nc" x1="1290.62" y1="845.52" x2="1268.78" y2="842.15"/>
        <polyline class="mz" points="1268.31 842.08 1267.32 841.92 1267.17 842.91"/>
        <line class="nc" x1="1267.03" y1="843.84" x2="1263.66" y2="865.68"/>
      </g>
    </g>
    <g id="fe" data-name="ARC">
      <g>
        <path class="mz" d="M1315.5,849.8c-.29-.21-.62-.29-.95-.26"/>
        <path class="mz" d="M1314.23,849.62c-.26.09-.5.26-.67.5-.03.04-.06.09-.08.13"/>
      </g>
    </g>
    <g id="ff" data-name="LINE">
      <line class="mu" x1="1312.97" y1="851.15" x2="1313.48" y2="850.25"/>
    </g>
    <g id="fg" data-name="ARC">
      <g>
        <path class="mz" d="M1311.74,874.15c.32-.11.63-.22.94-.35"/>
        <path class="nq" d="M1313.6,873.38c6.05-3.02,9.11-10.1,6.93-16.71-.75-2.28-2.09-4.32-3.86-5.92"/>
        <path class="mz" d="M1316.29,850.42c-.25-.21-.52-.42-.79-.61"/>
      </g>
    </g>
    <g id="fh" data-name="ARC">
      <g>
        <path class="mz" d="M1309.95,873.12c.07.34.27.63.53.83"/>
        <path class="mz" d="M1310.76,874.11c.25.11.54.14.83.08.05-.01.1-.02.15-.04"/>
      </g>
    </g>
    <g id="fi" data-name="LINE">
      <line class="mu" x1="1309.73" y1="872.1" x2="1309.95" y2="873.12"/>
    </g>
    <g id="fj" data-name="ARC">
      <g>
        <path class="mz" d="M1315.5,849.8c-.29-.21-.62-.29-.95-.26"/>
        <path class="mz" d="M1314.23,849.62c-.26.09-.5.26-.67.5-.03.04-.06.09-.08.13"/>
      </g>
    </g>
    <g id="fk" data-name="LINE">
      <line class="mu" x1="1312.97" y1="851.15" x2="1313.48" y2="850.25"/>
    </g>
    <g id="fl" data-name="ARC">
      <g>
        <path class="mz" d="M1309.95,873.12c.07.34.27.63.53.83"/>
        <path class="mz" d="M1310.76,874.11c.25.11.54.14.83.08.05-.01.1-.02.15-.04"/>
      </g>
    </g>
    <g id="fm" data-name="LINE">
      <line class="mu" x1="1309.73" y1="872.1" x2="1309.95" y2="873.12"/>
    </g>
    <g id="fn" data-name="ARC">
      <g>
        <path class="mz" d="M1261.34,888.44c-.34.07-.63.27-.83.53"/>
        <path class="mz" d="M1260.35,889.25c-.11.25-.14.54-.08.83.01.05.02.1.04.15"/>
      </g>
    </g>
    <g id="fo" data-name="LINE">
      <line class="mu" x1="1262.36" y1="888.22" x2="1261.34" y2="888.44"/>
    </g>
    <g id="fp" data-name="ARC">
      <g>
        <path class="mz" d="M1260.31,890.24c.11.32.22.63.35.94"/>
        <path class="nq" d="M1261.08,892.1c3.02,6.05,10.1,9.11,16.71,6.93,2.28-.75,4.32-2.09,5.92-3.86"/>
        <path class="mz" d="M1284.04,894.78c.21-.25.42-.52.61-.79"/>
      </g>
    </g>
    <g id="fq" data-name="ARC">
      <g>
        <path class="mz" d="M1284.66,893.99c.21-.29.29-.62.26-.95"/>
        <path class="mz" d="M1284.84,892.72c-.09-.26-.26-.5-.5-.67-.04-.03-.09-.06-.13-.08"/>
      </g>
    </g>
    <g id="fr" data-name="LINE">
      <line class="mu" x1="1283.31" y1="891.46" x2="1284.21" y2="891.97"/>
    </g>
    <g id="fs" data-name="ARC">
      <g>
        <path class="mz" d="M1261.34,888.44c-.34.07-.63.27-.83.53"/>
        <path class="mz" d="M1260.35,889.25c-.11.25-.14.54-.08.83.01.05.02.1.04.15"/>
      </g>
    </g>
    <g id="ft" data-name="LINE">
      <line class="mu" x1="1262.36" y1="888.22" x2="1261.34" y2="888.44"/>
    </g>
    <g id="fu" data-name="ARC">
      <g>
        <path class="mz" d="M1284.66,893.99c.21-.29.29-.62.26-.95"/>
        <path class="mz" d="M1284.84,892.72c-.09-.26-.26-.5-.5-.67-.04-.03-.09-.06-.13-.08"/>
      </g>
    </g>
    <g id="fv" data-name="LINE">
      <line class="mu" x1="1283.31" y1="891.46" x2="1284.21" y2="891.97"/>
    </g>
    <g id="fw" data-name="ARC">
      <g>
        <path class="mz" d="M1271.31,818.96c-.21.29-.29.62-.26.95"/>
        <path class="mz" d="M1271.13,820.23c.09.26.26.5.5.67.04.03.09.06.13.08"/>
      </g>
    </g>
    <g id="fx" data-name="LINE">
      <line class="mu" x1="1272.66" y1="821.49" x2="1271.76" y2="820.98"/>
    </g>
    <g id="fy" data-name="ARC">
      <g>
        <path class="mz" d="M1295.66,822.72c-.11-.32-.22-.63-.35-.94"/>
        <path class="nq" d="M1294.89,820.86c-3.02-6.05-10.1-9.11-16.71-6.93-2.28.75-4.32,2.09-5.92,3.86"/>
        <path class="mz" d="M1271.93,818.17c-.21.25-.42.52-.61.79"/>
      </g>
    </g>
    <g id="fz" data-name="ARC">
      <g>
        <path class="mz" d="M1294.63,824.51c.34-.07.63-.27.83-.53"/>
        <path class="mz" d="M1295.62,823.7c.11-.25.14-.54.08-.83-.01-.05-.02-.1-.04-.15"/>
      </g>
    </g>
    <g id="ga" data-name="LINE">
      <line class="mu" x1="1293.61" y1="824.73" x2="1294.63" y2="824.51"/>
    </g>
    <g id="gb" data-name="ARC">
      <g>
        <path class="mz" d="M1271.31,818.96c-.21.29-.29.62-.26.95"/>
        <path class="mz" d="M1271.13,820.23c.09.26.26.5.5.67.04.03.09.06.13.08"/>
      </g>
    </g>
    <g id="gc" data-name="LINE">
      <line class="mu" x1="1272.66" y1="821.49" x2="1271.76" y2="820.98"/>
    </g>
    <g id="gd" data-name="ARC">
      <g>
        <path class="mz" d="M1294.63,824.51c.34-.07.63-.27.83-.53"/>
        <path class="mz" d="M1295.62,823.7c.11-.25.14-.54.08-.83-.01-.05-.02-.1-.04-.15"/>
      </g>
    </g>
    <g id="ge" data-name="LINE">
      <line class="mu" x1="1293.61" y1="824.73" x2="1294.63" y2="824.51"/>
    </g>
    <g id="gf" data-name="LINE">
      <line class="mz" x1="1353.02" y1="469.22" x2="1353.02" y2="506.07"/>
    </g>
    <g id="gg" data-name="LINE">
      <line class="mz" x1="1338" y1="469.22" x2="1338" y2="542.92"/>
    </g>
    <g id="gh" data-name="LINE">
      <line class="mz" x1="1322.98" y1="469.22" x2="1322.98" y2="542.92"/>
    </g>
    <g id="gi" data-name="LINE">
      <line class="mz" x1="1307.95" y1="469.22" x2="1307.95" y2="542.92"/>
    </g>
    <g id="gj" data-name="LINE">
      <line class="mz" x1="1292.93" y1="469.22" x2="1292.93" y2="542.92"/>
    </g>
    <g id="gk" data-name="LINE">
      <line class="mz" x1="1277.91" y1="469.22" x2="1277.91" y2="542.92"/>
    </g>
    <g id="gl" data-name="LINE">
      <line class="mz" x1="1225.75" y1="469.22" x2="1277.91" y2="542.92"/>
    </g>
    <g id="gm" data-name="LINE">
      <line class="mz" x1="1225.75" y1="542.92" x2="1270.54" y2="542.92"/>
    </g>
    <g id="gn" data-name="LINE">
      <line class="mz" x1="1225.75" y1="557.94" x2="1270.54" y2="557.94"/>
    </g>
    <g id="go" data-name="LINE">
      <line class="mz" x1="1225.75" y1="572.97" x2="1270.54" y2="572.97"/>
    </g>
    <g id="gp" data-name="LINE">
      <line class="mz" x1="1225.75" y1="587.99" x2="1270.54" y2="587.99"/>
    </g>
    <g id="gq" data-name="LINE">
      <g>
        <line class="mz" x1="1398.1" y1="469.22" x2="1398.1" y2="470.72"/>
        <line class="mp" x1="1398.1" y1="472.25" x2="1398.1" y2="540.65"/>
        <line class="mz" x1="1398.1" y1="541.42" x2="1398.1" y2="542.92"/>
      </g>
    </g>
    <g id="gr" data-name="LINE">
      <g>
        <line class="mz" x1="1383.07" y1="469.22" x2="1383.07" y2="470.72"/>
        <line class="mp" x1="1383.07" y1="472.25" x2="1383.07" y2="540.65"/>
        <line class="mz" x1="1383.07" y1="541.42" x2="1383.07" y2="542.92"/>
      </g>
    </g>
    <g id="gs" data-name="LINE">
      <g>
        <line class="mz" x1="1368.05" y1="469.22" x2="1368.05" y2="470.72"/>
        <line class="mp" x1="1368.05" y1="472.25" x2="1368.05" y2="540.65"/>
        <line class="mz" x1="1368.05" y1="541.42" x2="1368.05" y2="542.92"/>
      </g>
    </g>
    <g id="gt" data-name="LINE">
      <g>
        <line class="mz" x1="1449.12" y1="469.22" x2="1449.12" y2="470.72"/>
        <line class="mp" x1="1449.12" y1="472.25" x2="1449.12" y2="540.65"/>
        <line class="mz" x1="1449.12" y1="541.42" x2="1449.12" y2="542.92"/>
      </g>
    </g>
    <g id="gu" data-name="LINE">
      <g>
        <line class="mz" x1="1353.02" y1="506.07" x2="1353.02" y2="507.57"/>
        <line class="nz" x1="1353.02" y1="509.11" x2="1353.02" y2="540.65"/>
        <line class="mz" x1="1353.02" y1="541.42" x2="1353.02" y2="542.92"/>
      </g>
    </g>
    <g id="gv" data-name="LWPOLYLINE">
      <g>
        <line class="mz" x1="1074.38" y1="559.93" x2="1074.38" y2="561.43"/>
        <line class="ob" x1="1074.38" y1="562.94" x2="1074.38" y2="603.02"/>
        <polyline class="mz" points="1074.38 603.78 1074.38 605.28 1075.88 605.28"/>
        <line class="nt" x1="1077.4" y1="605.28" x2="1181.54" y2="605.28"/>
        <polyline class="mz" points="1182.3 605.28 1183.8 605.28 1183.8 603.78"/>
        <line class="ob" x1="1183.8" y1="602.27" x2="1183.8" y2="562.18"/>
        <line class="mz" x1="1183.8" y1="561.43" x2="1183.8" y2="559.93"/>
      </g>
    </g>
    <g id="gw" data-name="LINE">
      <g>
        <line class="mz" x1="1183.8" y1="605.28" x2="1182.41" y2="604.71"/>
        <line class="oa" x1="1181.01" y1="604.12" x2="1076.47" y2="560.79"/>
        <line class="mz" x1="1075.76" y1="560.5" x2="1074.38" y2="559.93"/>
      </g>
    </g>
    <g id="gx" data-name="LINE">
      <g>
        <line class="mz" x1="1183.8" y1="559.93" x2="1182.41" y2="560.5"/>
        <line class="oa" x1="1181.01" y1="561.08" x2="1076.47" y2="604.42"/>
        <line class="mz" x1="1075.76" y1="604.71" x2="1074.38" y2="605.28"/>
      </g>
    </g>
    <g id="gy" data-name="LWPOLYLINE">
      <rect class="mz" x="1217.24" y="559.93" width="3.4" height="3.4"/>
    </g>
    <g id="gz" data-name="LWPOLYLINE">
      <rect class="mz" x="1225.75" y="616.62" width="8.5" height="2.83"/>
    </g>
    <g id="ha" data-name="LWPOLYLINE">
      <rect class="mz" x="1217.24" y="604.71" width="3.4" height="3.4"/>
    </g>
    <g id="hb" data-name="LWPOLYLINE">
      <rect class="mz" x="1074.38" y="630.79" width="1.7" height="5.67"/>
    </g>
    <g id="hc" data-name="LWPOLYLINE">
      <rect class="mz" x="1137.87" y="630.79" width="1.7" height="5.67"/>
    </g>
    <g id="hd" data-name="LWPOLYLINE">
      <rect class="mz" x="1142.41" y="639.3" width="5.67" height="2.83"/>
    </g>
    <g id="he" data-name="LWPOLYLINE">
      <rect class="mz" x="1142.41" y="687.49" width="5.67" height="2.83"/>
    </g>
    <g id="hf" data-name="LWPOLYLINE">
      <rect class="mz" x="1142.41" y="642.13" width="3.4" height="3.4"/>
    </g>
    <g id="hg" data-name="LWPOLYLINE">
      <rect class="mz" x="1142.41" y="684.08" width="3.4" height="3.4"/>
    </g>
    <g id="hh" data-name="LWPOLYLINE">
      <rect class="mz" x="1353.87" y="633.63" width="2.83" height="5.67"/>
    </g>
    <g id="hi" data-name="LWPOLYLINE">
      <rect class="mz" x="1396.39" y="633.63" width="2.83" height="5.67"/>
    </g>
    <g id="hj" data-name="LWPOLYLINE">
      <rect class="mz" x="1356.71" y="633.63" width="39.69" height="1.7"/>
    </g>
    <g id="hk" data-name="LWPOLYLINE">
      <rect class="mz" x="1301.72" y="593.94" width="5.67" height="2.83"/>
    </g>
    <g id="hl" data-name="LWPOLYLINE">
      <rect class="mz" x="1301.72" y="630.79" width="5.67" height="2.83"/>
    </g>
    <g id="hm" data-name="LWPOLYLINE">
      <rect class="mz" x="1305.69" y="596.78" width="1.7" height="34.02"/>
    </g>
    <g id="hn" data-name="LWPOLYLINE">
      <rect class="mz" x="1408.87" y="593.94" width="5.67" height="2.83"/>
    </g>
    <g id="ho" data-name="LWPOLYLINE">
      <rect class="mz" x="1408.87" y="630.79" width="5.67" height="2.83"/>
    </g>
    <g id="hp" data-name="LWPOLYLINE">
      <rect class="mz" x="1412.84" y="596.78" width="1.7" height="34.02"/>
    </g>
    <g id="hq" data-name="LWPOLYLINE">
      <rect class="mz" x="1220.08" y="619.45" width="5.67" height="2.83"/>
    </g>
    <g id="hr" data-name="LWPOLYLINE">
      <polyline class="mz" points="1220.08 621.44 1218.95 621.44 1218.95 620.3 1220.08 620.3"/>
    </g>
    <g id="hs" data-name="LINE">
      <line class="mz" x1="1218.95" y1="620.87" x2="1217.24" y2="620.87"/>
    </g>
    <g id="ht" data-name="LWPOLYLINE">
      <polyline class="mz" points="1217.95 622.29 1217.24 622.29 1217.24 619.45 1217.94 619.45"/>
    </g>
    <g id="hu" data-name="LWPOLYLINE">
      <rect class="mz" x="1150.91" y="633.63" width="2.83" height="5.67"/>
    </g>
    <g id="hv" data-name="LWPOLYLINE">
      <polyline class="mz" points="1151.76 633.63 1151.76 632.49 1152.9 632.49 1152.9 633.63"/>
    </g>
    <g id="hw" data-name="LINE">
      <line class="mz" x1="1152.33" y1="632.49" x2="1152.33" y2="630.79"/>
    </g>
    <g id="hx" data-name="LWPOLYLINE">
      <polyline class="mz" points="1150.91 631.49 1150.91 630.79 1153.75 630.79 1153.75 631.48"/>
    </g>
    <g id="hy" data-name="LWPOLYLINE">
      <rect class="mz" x="1139.58" y="633.63" width="2.83" height="5.67"/>
    </g>
    <g id="hz" data-name="LWPOLYLINE">
      <polyline class="mz" points="1140.43 633.63 1140.43 632.49 1141.56 632.49 1141.56 633.63"/>
    </g>
    <g id="ia" data-name="LINE">
      <line class="mz" x1="1140.99" y1="632.49" x2="1140.99" y2="630.79"/>
    </g>
    <g id="ib" data-name="LWPOLYLINE">
      <polyline class="mz" points="1139.58 631.49 1139.58 630.79 1142.41 630.79 1142.41 631.48"/>
    </g>
    <g id="ic" data-name="LWPOLYLINE">
      <rect class="mz" x="1071.54" y="633.63" width="2.83" height="5.67"/>
    </g>
    <g id="id" data-name="LWPOLYLINE">
      <polyline class="mz" points="1072.39 633.63 1072.39 632.49 1073.53 632.49 1073.53 633.63"/>
    </g>
    <g id="ie" data-name="LINE">
      <line class="mz" x1="1072.96" y1="632.49" x2="1072.96" y2="630.79"/>
    </g>
    <g id="if" data-name="LWPOLYLINE">
      <polyline class="mz" points="1071.54 631.49 1071.54 630.79 1074.38 630.79 1074.38 631.48"/>
    </g>
    <g id="ig" data-name="LWPOLYLINE">
      <rect class="mz" x="1220.08" y="608.12" width="5.67" height="2.83"/>
    </g>
    <g id="ih" data-name="LWPOLYLINE">
      <polyline class="mz" points="1220.08 610.1 1218.95 610.1 1218.95 608.97 1220.08 608.97"/>
    </g>
    <g id="ii" data-name="LINE">
      <line class="mz" x1="1218.95" y1="609.53" x2="1217.24" y2="609.53"/>
    </g>
    <g id="ij" data-name="LWPOLYLINE">
      <polyline class="mz" points="1217.95 610.95 1217.24 610.95 1217.24 608.12 1217.94 608.12"/>
    </g>
    <g id="ik" data-name="LWPOLYLINE">
      <rect class="mz" x="1220.08" y="557.09" width="5.67" height="2.83"/>
    </g>
    <g id="il" data-name="LWPOLYLINE">
      <polyline class="mz" points="1220.08 559.08 1218.95 559.08 1218.95 557.94 1220.08 557.94"/>
    </g>
    <g id="im" data-name="LINE">
      <line class="mz" x1="1218.95" y1="558.51" x2="1217.24" y2="558.51"/>
    </g>
    <g id="in" data-name="LWPOLYLINE">
      <polyline class="mz" points="1217.95 559.93 1217.24 559.93 1217.24 557.09 1217.94 557.09"/>
    </g>
    <g id="io" data-name="LINE">
      <line class="mz" x1="1076.08" y1="630.79" x2="1137.87" y2="630.79"/>
    </g>
    <g id="ip" data-name="LINE">
      <line class="mz" x1="1076.08" y1="636.46" x2="1137.87" y2="636.46"/>
    </g>
    <g id="iq" data-name="LINE">
      <line class="mz" x1="1217.24" y1="604.71" x2="1217.24" y2="563.33"/>
    </g>
    <g id="ir" data-name="LINE">
      <line class="mz" x1="1220.65" y1="563.33" x2="1220.65" y2="604.71"/>
    </g>
    <g id="is" data-name="LINE">
      <line class="mz" x1="1142.41" y1="684.08" x2="1142.41" y2="645.53"/>
    </g>
    <g id="it" data-name="LINE">
      <line class="mz" x1="1145.81" y1="645.53" x2="1145.81" y2="684.08"/>
    </g>
    <g id="iu" data-name="LWPOLYLINE">
      <polyline class="mz" points="1153.75 630.79 1217.24 630.79 1217.24 622.29"/>
    </g>
    <g id="iv" data-name="LWPOLYLINE">
      <polyline class="mz" points="1153.75 639.3 1225.75 639.3 1225.75 622.29"/>
    </g>
    <g id="iw" data-name="LWPOLYLINE">
      <g>
        <polyline class="mn" points="1216.24 559.93 1217.24 559.93 1217.24 560.93"/>
        <polyline class="mn" points="1217.24 562.33 1217.24 563.33 1216.24 563.33"/>
        <line class="nf" x1="1215.24" y1="563.33" x2="1170.56" y2="563.33"/>
        <polyline class="mn" points="1170.06 563.33 1169.06 563.33 1169.06 562.33"/>
        <polyline class="mn" points="1169.06 560.93 1169.06 559.93 1170.06 559.93"/>
        <line class="nf" x1="1171.06" y1="559.93" x2="1215.74" y2="559.93"/>
      </g>
    </g>
    <g id="ix" data-name="ARC">
      <g>
        <path class="mn" d="M1169.06,559.93c0,.33,0,.67.01,1"/>
        <path class="mw" d="M1169.1,561.94c1.03,25.18,21.39,45.38,46.64,46.16"/>
        <path class="mn" d="M1216.24,608.1c.33,0,.67.01,1,.01"/>
      </g>
    </g>
    <g id="iy" data-name="LWPOLYLINE">
      <g>
        <line class="mn" x1="1225.75" y1="618.32" x2="1225.75" y2="619.32"/>
        <line class="ny" x1="1225.75" y1="620.31" x2="1225.75" y2="661.61"/>
        <polyline class="mn" points="1225.75 662.11 1225.75 663.11 1226.32 663.11 1226.32 662.11"/>
        <line class="ny" x1="1226.32" y1="661.11" x2="1226.32" y2="619.82"/>
        <line class="mn" x1="1226.32" y1="619.32" x2="1226.32" y2="618.32"/>
      </g>
    </g>
    <g id="iz" data-name="ARC">
      <g>
        <path class="mn" d="M1225.75,663.11c.33,0,.67,0,1-.01"/>
        <path class="nj" d="M1227.77,663.06c23.3-1.03,41.97-19.87,42.74-43.23"/>
        <path class="mn" d="M1270.53,619.32c0-.33.01-.67.01-1"/>
      </g>
    </g>
    <g id="ja" data-name="LWPOLYLINE">
      <g>
        <polyline class="mn" points="1141.41 642.13 1142.41 642.13 1142.41 643.13"/>
        <polyline class="mn" points="1142.41 644.53 1142.41 645.53 1141.41 645.53"/>
        <line class="mv" x1="1140.4" y1="645.53" x2="1098.56" y2="645.53"/>
        <polyline class="mn" points="1098.06 645.53 1097.06 645.53 1097.06 644.53"/>
        <polyline class="mn" points="1097.06 643.13 1097.06 642.13 1098.06 642.13"/>
        <line class="mv" x1="1099.06" y1="642.13" x2="1140.91" y2="642.13"/>
      </g>
    </g>
    <g id="jb" data-name="ARC">
      <g>
        <path class="mn" d="M1097.06,642.13c0,.33,0,.67.01,1"/>
        <path class="np" d="M1097.1,644.12c1.02,23.63,20.12,42.57,43.82,43.34"/>
        <path class="mn" d="M1141.41,687.47c.33,0,.67.01,1,.01"/>
      </g>
    </g>
    <g id="jc" data-name="LWPOLYLINE">
      <g>
        <polyline class="mn" points="1396.39 632.63 1396.39 633.63 1394.69 633.63 1394.69 632.63"/>
        <line class="ne" x1="1394.69" y1="631.61" x2="1394.69" y2="595.45"/>
        <polyline class="mn" points="1394.69 594.94 1394.69 593.94 1396.39 593.94 1396.39 594.94"/>
        <line class="ne" x1="1396.39" y1="595.96" x2="1396.39" y2="632.12"/>
      </g>
    </g>
    <g id="jd" data-name="LWPOLYLINE">
      <g>
        <polyline class="mn" points="1307.89 629.93 1307.39 630.79 1305.91 629.94 1306.41 629.08"/>
        <line class="nx" x1="1306.93" y1="628.18" x2="1322.16" y2="601.8"/>
        <polyline class="mn" points="1322.42 601.35 1322.92 600.48 1324.39 601.33 1323.89 602.2"/>
        <line class="nx" x1="1323.38" y1="603.09" x2="1308.14" y2="629.48"/>
      </g>
    </g>
    <g id="je" data-name="ARC">
      <g>
        <path class="mn" d="M1324.39,601.33c-.29-.17-.58-.33-.88-.49"/>
        <path class="nu" d="M1322.64,600.39c-4.28-2.15-8.98-3.37-13.77-3.58"/>
        <path class="mn" d="M1308.39,596.79c-.33-.01-.67-.01-1-.01"/>
      </g>
    </g>
    <g id="jf" data-name="ARC">
      <g>
        <path class="mn" d="M1396.39,593.94c-.33,0-.67,0-1,.01"/>
        <path class="no" d="M1394.41,593.99c-20.5,1.01-36.91,17.58-37.67,38.14"/>
        <path class="mn" d="M1356.72,632.63c0,.33-.01.67-.01,1"/>
      </g>
    </g>
    <g id="jg" data-name="LWPOLYLINE">
      <g>
        <polyline class="mn" points="1415.54 630.79 1414.54 630.79 1414.54 629.09 1415.54 629.09"/>
        <line class="nx" x1="1416.57" y1="629.09" x2="1447.04" y2="629.09"/>
        <polyline class="mn" points="1447.55 629.09 1448.55 629.09 1448.55 630.79 1447.55 630.79"/>
        <line class="nx" x1="1446.52" y1="630.79" x2="1416.05" y2="630.79"/>
      </g>
    </g>
    <g id="jh" data-name="ARC">
      <g>
        <path class="mn" d="M1448.55,630.79c0-.33,0-.67-.01-1"/>
        <path class="nv" d="M1448.49,628.8c-1-17.37-15.03-31.24-32.46-32"/>
        <path class="mn" d="M1415.54,596.79c-.33,0-.67-.01-1-.01"/>
      </g>
    </g>
    <g id="ji" data-name="LWPOLYLINE">
      <polyline class="mn" points="1364.9 458.63 1353.88 502.63 1358.18 505.53 1347.87 506.6 1352.16 509.51 1341.15 553.5"/>
    </g>
    <g id="jj" data-name="CIRCLE">
      <circle class="mn" cx="1248.14" cy="587.99" r="1.42"/>
    </g>
    <g id="jk" data-name="LWPOLYLINE">
      <polyline class="mn" points="1342.54 506.07 1251.83 506.07 1248.14 508.68 1248.14 587.99"/>
    </g>
    <g id="jl" data-name="LWPOLYLINE">
      <polyline class="mn" points="1339.33 502.86 1342.54 506.07 1339.33 509.27"/>
    </g>
    <g id="jm" data-name="LWPOLYLINE">
      <polyline class="mn" points="1148.08 860.4 1184.93 860.4 1184.93 900.08"/>
    </g>
    <g id="jn" data-name="LINE">
      <line class="mn" x1="1148.08" y1="690.32" x2="1184.93" y2="690.32"/>
    </g>
    <g id="jo" data-name="LWPOLYLINE">
      <polyline class="mn" points="1156.58 756.87 1156.58 740.37 1182.1 740.37 1182.1 776.09 1156.58 776.09 1156.58 759.59"/>
    </g>
    <g id="jp" data-name="LWPOLYLINE">
      <path class="mn" d="M1319.01,590.26v-28.63h24.38v28.63c0,6.73-5.46,12.19-12.19,12.19s-12.19-5.46-12.19-12.19Z"/>
    </g>
    <g id="jq" data-name="LWPOLYLINE">
      <rect class="mn" x="1375.42" y="561.49" width="2.27" height="8.5"/>
    </g>
    <g id="jr" data-name="LWPOLYLINE">
      <path class="mn" d="M1359.54,559.93v22.82c0,.63.51,1.13,1.13,1.13h31.75c.63,0,1.13-.51,1.13-1.13v-22.82"/>
    </g>
    <g id="js" data-name="LWPOLYLINE">
      <polyline class="mn" points="1375.42 565.74 1363.51 565.74 1363.51 582.75 1389.59 582.75 1389.59 565.74 1377.69 565.74"/>
    </g>
    <g id="jt" data-name="LWPOLYLINE">
      <path class="mn" d="M1161.46,756.87h-9.13v2.72h9.13c.75,0,1.36-.61,1.36-1.36s-.61-1.36-1.36-1.36Z"/>
    </g>
    <g id="ju" data-name="LINE">
      <line class="mn" x1="1071.54" y1="639.3" x2="1142.41" y2="639.3"/>
    </g>
    <g id="jv" data-name="LINE">
      <line class="mn" x1="1225.75" y1="559.93" x2="1225.75" y2="608.12"/>
    </g>
    <g id="jw" data-name="LINE">
      <line class="mn" x1="1184.93" y1="724.34" x2="1184.93" y2="860.4"/>
    </g>
    <g id="jx" data-name="LWPOLYLINE">
      <rect class="nn" x="1142.41" y="630.79" width="8.5" height="8.5"/>
    </g>
    <g id="jy" data-name="LWPOLYLINE">
      <rect class="nn" x="1217.24" y="610.95" width="8.5" height="8.5"/>
    </g>
    <g id="jz" data-name="LINE">
      <line class="mt" x1="1369.18" y1="919.93" x2="1201.94" y2="919.93"/>
    </g>
    <g id="ka" data-name="LINE">
      <line class="mt" x1="1369.18" y1="925.6" x2="1201.94" y2="925.6"/>
    </g>
    <g id="kb" data-name="LINE">
      <line class="mt" x1="1184.93" y1="925.6" x2="912.8" y2="925.6"/>
    </g>
    <g id="kc" data-name="LINE">
      <line class="mt" x1="1468.96" y1="832.05" x2="1468.96" y2="707.33"/>
    </g>
    <g id="kd" data-name="LINE">
      <line class="mt" x1="1474.63" y1="832.05" x2="1474.63" y2="707.33"/>
    </g>
    <g id="ke" data-name="LINE">
      <line class="mt" x1="907.14" y1="724.34" x2="907.14" y2="900.08"/>
    </g>
    <g id="kf" data-name="LINE">
      <line class="mt" x1="1468.96" y1="690.32" x2="1468.96" y2="557.09"/>
    </g>
    <g id="kg" data-name="LINE">
      <line class="mt" x1="1474.63" y1="690.32" x2="1474.63" y2="557.09"/>
    </g>
    <g id="kh" data-name="LINE">
      <line class="mt" x1="1386.19" y1="915.82" x2="1462" y2="849.06"/>
    </g>
    <g id="ki" data-name="LINE">
      <line class="mt" x1="1386.19" y1="923.38" x2="1470.58" y2="849.06"/>
    </g>
    <g id="kj" data-name="LWPOLYLINE">
      <line class="mt" x1="912.8" y1="724.34" x2="912.8" y2="900.08"/>
    </g>
    <g id="kk" data-name="LWPOLYLINE">
      <polyline class="mt" points="912.8 690.32 912.81 639.3 1071.54 639.3"/>
    </g>
    <g id="kl" data-name="LWPOLYLINE">
      <polyline class="mt" points="907.14 690.32 907.14 633.63 1071.54 633.63"/>
    </g>
    <g id="km" data-name="LWPOLYLINE">
      <polyline class="mt" points="912.8 919.93 1142.41 919.93 1142.41 690.32"/>
    </g>
    <g id="kn" data-name="LWPOLYLINE">
      <polyline class="mt" points="1184.93 919.93 1148.08 919.93 1148.08 690.32"/>
    </g>
    <g id="ko" data-name="LWPOLYLINE">
      <polyline class="nr" points="1488.8 466.38 1488.8 469.22 1225.75 469.22 1225.75 557.09"/>
    </g>
    <g id="kp" data-name="LINE">
      <line class="nr" x1="1148.08" y1="718.67" x2="1184.93" y2="718.67"/>
    </g>
    <g id="kq" data-name="LINE">
      <line class="nr" x1="1148.08" y1="724.34" x2="1184.93" y2="724.34"/>
    </g>
    <g id="kr" data-name="LWPOLYLINE">
      <polyline class="nr" points="1301.72 593.94 1301.72 559.93 1276.21 559.93 1276.21 633.63 1353.87 633.63"/>
    </g>
    <g id="ks" data-name="LINE">
      <line class="nr" x1="1399.23" y1="639.3" x2="1468.96" y2="639.3"/>
    </g>
    <g id="kt" data-name="LWPOLYLINE">
      <polyline class="nr" points="1399.23 633.63 1467.26 633.63 1467.26 559.93 1414.54 559.93 1414.54 593.94 1397.53 593.94 1397.53 559.93 1307.39 559.93 1307.39 593.94"/>
    </g>
    <g id="ku" data-name="LWPOLYLINE">
      <polyline class="nr" points="1488.8 545.75 1488.8 542.92 1270.54 542.92 1270.54 639.3 1353.87 639.3"/>
    </g>
    <g id="kv" data-name="LWPOLYLINE">
      <polyline class="nr" points="1071.54 630.79 1071.54 559.93 1217.24 559.93"/>
    </g>
    <g id="kw" data-name="LWPOLYLINE">
      <rect class="mq" x="1184.93" y="690.32" width="17.01" height="34.02"/>
    </g>
    <g id="kx" data-name="LWPOLYLINE">
      <rect class="mq" x="892.96" y="690.32" width="19.84" height="34.02"/>
    </g>
    <g id="ky" data-name="LWPOLYLINE">
      <rect class="mq" x="1449.12" y="690.32" width="39.69" height="17.01"/>
    </g>
    <g id="kz" data-name="LWPOLYLINE">
      <rect class="mq" x="1449.12" y="832.05" width="39.69" height="17.01"/>
    </g>
    <g id="la" data-name="LWPOLYLINE">
      <rect class="mq" x="1184.93" y="900.08" width="17.01" height="39.69"/>
    </g>
    <g id="lb" data-name="LWPOLYLINE">
      <rect class="mq" x="1369.18" y="900.08" width="17.01" height="39.69"/>
    </g>
    <g id="lc" data-name="LWPOLYLINE">
      <rect class="mq" x="892.96" y="900.08" width="19.84" height="39.69"/>
    </g>
    <g id="ld" data-name="LINE">
      <line class="mq" x1="1369.18" y1="939.77" x2="1201.94" y2="939.77"/>
    </g>
    <g id="le" data-name="LINE">
      <line class="mq" x1="1369.18" y1="928.43" x2="1201.94" y2="928.43"/>
    </g>
    <g id="lf" data-name="LINE">
      <line class="mq" x1="1184.93" y1="939.77" x2="912.8" y2="939.77"/>
    </g>
    <g id="lg" data-name="LINE">
      <line class="mq" x1="1184.93" y1="928.43" x2="912.8" y2="928.43"/>
    </g>
    <g id="lh" data-name="LINE">
      <line class="mq" x1="1488.8" y1="832.05" x2="1488.8" y2="707.33"/>
    </g>
    <g id="li" data-name="LINE">
      <line class="mq" x1="1477.47" y1="832.05" x2="1477.47" y2="707.33"/>
    </g>
    <g id="lj" data-name="LINE">
      <line class="mq" x1="892.96" y1="724.34" x2="892.96" y2="900.75"/>
    </g>
    <g id="lk" data-name="LINE">
      <line class="mq" x1="904.3" y1="724.34" x2="904.3" y2="900.08"/>
    </g>
    <g id="ll" data-name="LWPOLYLINE">
      <polyline class="mq" points="1477.47 690.32 1477.47 557.09 1411.7 557.09 1411.7 591.11 1400.36 591.11 1400.36 557.09 1273.37 557.09 1273.37 545.75 1488.8 545.75 1488.8 690.32"/>
    </g>
    <g id="lm" data-name="LWPOLYLINE">
      <polyline class="mq" points="1386.19 939.77 1389.02 939.77 1488.8 851.89 1488.8 849.06"/>
    </g>
    <g id="ln" data-name="LINE">
      <line class="mq" x1="1386.19" y1="927.16" x2="1474.87" y2="849.06"/>
    </g>
    <g id="lo" data-name="LWPOLYLINE">
      <polyline class="mq" points="904.3 690.32 904.3 630.79 1068.71 630.79 1068.71 557.09 1222.91 557.09 1222.91 466.38 1488.8 466.38 1488.8 455.04 1211.58 455.04 1211.58 545.75 1057.37 545.75 1057.37 619.45 892.96 619.45 892.96 690.32"/>
    </g>
    <g id="lp" data-name="LWPOLYLINE">
      <g>
        <line class="ms" x1="892.96" y1="738.51" x2="890.96" y2="738.51"/>
        <line class="nd" x1="888.7" y1="738.51" x2="883.05" y2="738.51"/>
        <polyline class="ms" points="881.92 738.51 879.92 738.51 879.92 740.51"/>
        <line class="my" x1="879.92" y1="742.48" x2="879.92" y2="806.39"/>
        <polyline class="ms" points="879.92 807.38 879.92 809.38 881.92 809.38"/>
        <line class="mo" x1="884.18" y1="809.38" x2="889.83" y2="809.38"/>
        <line class="ms" x1="890.96" y1="809.38" x2="892.96" y2="809.38"/>
      </g>
    </g>
    <g id="lq" data-name="LWPOLYLINE">
      <g>
        <line class="ms" x1="892.96" y1="727.17" x2="890.96" y2="727.17"/>
        <line class="na" x1="888.92" y1="727.17" x2="871.6" y2="727.17"/>
        <polyline class="ms" points="870.58 727.17 868.58 727.17 868.58 729.17"/>
        <line class="nh" x1="868.58" y1="731.12" x2="868.58" y2="817.74"/>
        <polyline class="ms" points="868.58 818.71 868.58 820.71 870.58 820.71"/>
        <line class="ns" x1="872.62" y1="820.71" x2="889.94" y2="820.71"/>
        <line class="ms" x1="890.96" y1="820.71" x2="892.96" y2="820.71"/>
      </g>
    </g>
  </g>
  <g id="lz" data-name="SCALE">
    <g>
      <g>
        <path class="mr" d="M1969.97,1258.8c1.32-.05,2.57-.15,3.75-.3l.04.5c-1.21.19-2.47.31-3.78.37s-2.71.09-4.21.09l-.13-.59c1.57,0,3.01-.03,4.33-.08ZM1973.31,1251.48v.56h-7.38v-.56h7.38ZM1971.09,1253.16c.43.18.76.44.99.78s.35.73.35,1.18-.12.82-.35,1.15c-.23.33-.56.59-.99.77-.43.18-.92.27-1.48.27s-1.06-.09-1.48-.27c-.42-.18-.75-.44-.98-.77-.23-.33-.35-.72-.35-1.15s.12-.84.35-1.18c.23-.34.56-.59.98-.78.42-.18.91-.27,1.48-.27s1.05.09,1.48.27ZM1968.01,1253.89c-.41.32-.62.72-.62,1.22s.21.88.62,1.19.94.46,1.6.46,1.2-.15,1.6-.46c.41-.31.61-.7.61-1.19s-.2-.91-.61-1.23c-.41-.31-.94-.47-1.6-.47s-1.19.16-1.6.48ZM1969.95,1249.87v1.88h-.64v-1.88h.64ZM1969.96,1257.08v2h-.66v-2h.66ZM1975.25,1249.9v12.08h-.66v-12.08h.66Z"/>
        <path class="mr" d="M1982.27,1258.54c1.27-.05,2.5-.16,3.69-.35l.06.49c-1.22.22-2.47.37-3.73.43-1.26.06-2.69.09-4.29.09l-.11-.59c1.65,0,3.11-.02,4.39-.07ZM1983.39,1251.18c.48.23.85.55,1.12.97.27.42.4.89.4,1.44s-.13,1.02-.4,1.43c-.27.42-.64.74-1.12.97-.48.23-1.02.34-1.63.34s-1.18-.11-1.66-.34c-.48-.23-.85-.55-1.12-.97-.27-.42-.4-.89-.4-1.43s.13-1.02.4-1.44c.27-.42.64-.74,1.12-.97.48-.23,1.03-.34,1.66-.34s1.15.11,1.63.34ZM1980.45,1251.69c-.38.19-.68.45-.9.78-.22.33-.33.7-.33,1.11s.11.78.33,1.11c.22.33.52.59.91.78.39.19.82.28,1.31.28s.92-.09,1.3-.28c.38-.19.68-.45.9-.78.21-.33.32-.7.32-1.11s-.11-.78-.32-1.11c-.21-.33-.51-.59-.9-.78-.38-.19-.82-.28-1.3-.28s-.93.09-1.32.28ZM1987.49,1249.9v12.08h-.66v-12.08h.66Z"/>
        <path class="mr" d="M1993.98,1250.31v.92c0,.72-.15,1.4-.46,2.03s-.72,1.19-1.23,1.67c-.51.48-1.08.84-1.69,1.11l-.35-.53c.57-.21,1.1-.54,1.58-.97.49-.43.88-.93,1.17-1.5.29-.57.44-1.17.44-1.8v-.92h.55ZM1999.85,1256.93v2.63h-6.96v1.97h-.62v-2.49h6.94v-1.55h-6.99v-.56h7.62ZM2000.34,1261.26v.55h-8.06v-.55h8.06ZM1994.07,1250.31v.92c0,.59.15,1.16.45,1.7.3.55.7,1.02,1.19,1.42.49.4,1.02.71,1.58.92l-.34.52c-.63-.24-1.2-.59-1.71-1.04-.52-.45-.93-.97-1.24-1.58-.31-.61-.46-1.25-.46-1.95v-.92h.53ZM1999.85,1249.9v6.36h-.64v-6.36h.64Z"/>
        <path class="mr" d="M1971.44,1269.11v4.07h-4.7v3.51h-.63v-4.09h4.7v-2.94h-4.75v-.56h5.38ZM1970.24,1276.33c.87-.07,1.75-.18,2.66-.35l.07.56c-.94.17-1.85.29-2.73.35-.88.07-1.95.1-3.22.1h-.91v-.56h.91c1.28,0,2.35-.03,3.22-.1ZM1974.76,1267.9v12.08h-.64v-12.08h.64ZM1976.9,1272.87v.57h-2.31v-.57h2.31Z"/>
        <path class="mr" d="M1988.78,1274.22v.56h-10.95v-.56h10.95ZM1985.48,1268.55c.63.2,1.11.47,1.45.83s.5.78.5,1.25-.17.91-.5,1.26c-.34.36-.82.63-1.45.82-.63.19-1.36.29-2.2.29s-1.56-.1-2.18-.29c-.63-.19-1.11-.46-1.45-.82-.34-.35-.51-.77-.51-1.26s.17-.89.51-1.25.82-.64,1.45-.83c.62-.2,1.35-.29,2.18-.29s1.57.1,2.2.29ZM1979.94,1276.2v3.08h-.63v-3.08h.63ZM1987.56,1279.09v.59h-8.25v-.59h8.25ZM1981.46,1269.06c-.53.15-.94.37-1.23.64-.29.27-.43.59-.43.95s.14.67.43.95c.29.28.7.49,1.23.63.53.14,1.13.22,1.81.22s1.3-.07,1.82-.22c.52-.14.93-.35,1.23-.63s.44-.59.44-.96-.15-.67-.44-.94c-.29-.27-.7-.48-1.23-.64-.52-.15-1.13-.23-1.82-.23s-1.29.08-1.81.23ZM1983.71,1274.55v2.94h-.66v-2.94h.66Z"/>
        <path class="mr" d="M1994.01,1269.51v2.39c0,.76-.17,1.52-.52,2.28-.35.77-.79,1.45-1.32,2.06s-1.09,1.06-1.66,1.37l-.39-.52c.52-.27,1.04-.69,1.56-1.25.52-.56.94-1.19,1.28-1.9s.5-1.39.5-2.05v-2.39h.55ZM1997.18,1269.19v.56h-6.73v-.56h6.73ZM1994.1,1269.51v2.39c0,.67.17,1.34.51,2,.34.66.77,1.25,1.29,1.76.52.51,1.06.89,1.61,1.14l-.41.53c-.59-.3-1.15-.73-1.7-1.29-.55-.56-.99-1.2-1.34-1.92s-.52-1.46-.52-2.22v-2.39h.55ZM1999.82,1267.9v12.08h-.64v-12.08h.64Z"/>
        <path class="mr" d="M1969.64,1294.81c1.27-.05,2.46-.15,3.58-.32l.06.5c-1.17.2-2.37.32-3.61.38-1.24.06-2.6.09-4.07.09l-.14-.59c1.52,0,2.92-.02,4.19-.07ZM1972.94,1287.47v.55h-7.29v-.55h7.29ZM1970.75,1289.16c.42.18.74.44.97.78.23.34.35.73.35,1.18s-.12.82-.35,1.15c-.23.33-.56.59-.97.77-.42.18-.9.27-1.45.27s-1.03-.09-1.45-.27c-.42-.18-.74-.44-.97-.77-.23-.33-.34-.72-.34-1.15s.11-.84.34-1.18c.23-.34.55-.59.97-.78.42-.18.9-.27,1.45-.27s1.03.09,1.45.27ZM1967.74,1289.88c-.4.31-.59.72-.59,1.21s.2.9.59,1.2c.4.31.92.46,1.56.46s1.16-.15,1.56-.46.6-.71.6-1.2-.2-.9-.6-1.21-.92-.47-1.56-.47-1.16.16-1.56.47ZM1969.64,1285.89v1.85h-.66v-1.85h.66ZM1969.64,1293.14v1.96h-.66v-1.96h.66ZM1974.69,1285.9v12.08h-.64v-12.08h.64ZM1976.83,1291.19v.57h-2.3v-.57h2.3Z"/>
        <path class="mr" d="M1981.55,1287.16v1.13c0,.7-.15,1.35-.44,1.96s-.7,1.13-1.2,1.58-1.07.78-1.69,1.01l-.34-.52c.57-.21,1.09-.51,1.57-.9s.86-.87,1.15-1.41c.29-.54.43-1.12.43-1.72v-1.13h.52ZM1984.53,1286.85v.56h-6.41v-.56h6.41ZM1985.41,1293.92c.58.16,1.03.4,1.34.72.31.32.47.7.47,1.15,0,.68-.34,1.21-1.03,1.59s-1.64.57-2.86.57c-.8,0-1.5-.08-2.08-.25-.58-.17-1.03-.42-1.34-.74-.31-.33-.46-.71-.46-1.16s.15-.83.46-1.15c.31-.32.75-.56,1.34-.72.58-.16,1.28-.25,2.08-.25s1.5.08,2.08.25ZM1981.61,1294.41c-.49.13-.87.31-1.13.55-.27.23-.4.51-.4.83,0,.49.29.89.88,1.18s1.38.43,2.37.43,1.78-.14,2.37-.43.89-.68.89-1.18c0-.32-.14-.59-.41-.83-.27-.23-.65-.42-1.14-.55-.49-.13-1.06-.2-1.72-.2s-1.22.07-1.71.2ZM1981.65,1287.16v1.12c0,.54.14,1.06.41,1.56.27.5.64.94,1.11,1.31.46.37.97.66,1.52.87l-.31.5c-.61-.22-1.16-.55-1.65-.97s-.89-.91-1.18-1.47c-.29-.56-.43-1.16-.43-1.81v-1.12h.53ZM1987.11,1285.9v7.36h-.64v-7.36h.64ZM1989.03,1289.18v.56h-2.1v-.56h2.1Z"/>
        <path class="mr" d="M1993.98,1286.31v.92c0,.72-.15,1.4-.46,2.03s-.72,1.19-1.23,1.67c-.51.48-1.08.84-1.69,1.11l-.35-.53c.57-.21,1.1-.54,1.58-.97.49-.43.88-.93,1.17-1.5.29-.57.44-1.17.44-1.8v-.92h.55ZM1999.85,1292.93v2.63h-6.96v1.97h-.62v-2.49h6.94v-1.55h-6.99v-.56h7.62ZM2000.34,1297.26v.55h-8.06v-.55h8.06ZM1994.07,1286.31v.92c0,.59.15,1.16.45,1.7.3.55.7,1.02,1.19,1.42.49.4,1.02.71,1.58.92l-.34.52c-.63-.24-1.2-.59-1.71-1.04-.52-.45-.93-.97-1.24-1.58-.31-.61-.46-1.25-.46-1.95v-.92h.53ZM1999.85,1285.9v6.36h-.64v-6.36h.64Z"/>
      </g>
      <g>
        <path class="mr" d="M1954.69,1261.05h-.67v-9.35l-1.26.87-.36-.49,1.62-1.13h.67v10.11Z"/>
        <path class="mr" d="M1951.59,1277.81c.2-.19.43-.41.68-.65.84-.79,1.51-1.46,2.02-1.99.51-.53.94-1.09,1.31-1.67s.55-1.12.55-1.61-.09-.9-.28-1.27-.45-.67-.78-.88c-.33-.21-.71-.32-1.13-.32-.47,0-.91.16-1.34.48-.42.32-.75.73-.96,1.24l-.63-.27c.26-.61.66-1.1,1.2-1.48.54-.38,1.12-.57,1.72-.57.55,0,1.04.13,1.47.39.43.26.77.63,1.01,1.09.25.47.37.99.37,1.58s-.19,1.18-.57,1.81-.84,1.23-1.38,1.79c-.54.56-1.23,1.25-2.09,2.05-.59.55-1.04.98-1.36,1.3l-.48-.39c.23-.24.45-.46.65-.65ZM1950.94,1278.46h6.02v.59h-5.94l-.08-.59Z"/>
        <path class="mr" d="M1956.62,1292.75c.33.44.5.92.5,1.43,0,.57-.14,1.08-.41,1.53s-.65.8-1.13,1.06-1.03.38-1.64.38-1.17-.13-1.65-.38-.86-.6-1.13-1.06-.41-.96-.41-1.53h.67c0,.46.11.87.32,1.23s.51.64.9.84c.38.2.81.3,1.29.3s.92-.1,1.3-.29.68-.46.89-.79.32-.72.32-1.16-.11-.8-.32-1.13-.5-.59-.88-.78c-.38-.19-.8-.28-1.28-.28h-.41v-.62h.39c.45,0,.85-.09,1.21-.26s.64-.41.84-.72c.2-.31.3-.66.3-1.05,0-.6-.21-1.09-.64-1.47-.43-.38-.98-.57-1.65-.57-.44,0-.83.09-1.19.27-.36.18-.63.44-.82.77-.19.33-.29.71-.29,1.13h-.67c0-.53.13-1.01.38-1.43s.6-.75,1.05-.99c.45-.24.96-.36,1.54-.36s1.09.12,1.54.36c.45.24.8.57,1.05.99.25.42.38.9.38,1.43,0,.43-.15.85-.45,1.27s-.69.73-1.16.94c.5.19.92.5,1.25.94Z"/>
      </g>
    </g>
    <g>
      <g id="ma" data-name="CIRCLE">
        <circle class="mn" cx="414.88" cy="1280.43" r="14.88"/>
      </g>
      <g id="mb" data-name="TEXT">
        <path class="mx" d="M424.5,1264.9l-.86-.35-1.27-8.05-2.62,6.47-.84-.34,3.28-8.1.87.35,1.26,8.02,2.61-6.45.84.34-3.28,8.1Z"/>
      </g>
      <g id="mc" data-name="HATCH">
        <path class="mm" d="M420.46,1266.63c-.23-.09-.46-.18-.7-.26l-5.57,13.78.69.28,5.58-13.8Z"/>
      </g>
      <g id="md" data-name="HATCH">
        <path class="mm" d="M421.15,1266.93c-.23-.1-.45-.2-.69-.3l-5.58,13.8.69.28,5.57-13.78Z"/>
      </g>
      <g id="me" data-name="LINE">
        <line class="ni" x1="419.76" y1="1266.37" x2="414.19" y2="1280.14"/>
      </g>
      <g id="mf" data-name="LINE">
        <line class="ni" x1="421.15" y1="1266.93" x2="415.57" y2="1280.71"/>
      </g>
      <g id="mg" data-name="LINE">
        <line class="ni" x1="414.88" y1="1280.43" x2="420.46" y2="1266.63"/>
      </g>
      <g id="mh" data-name="MTEXT">
        <path class="mx" d="M481.36,1295.9c-.63-.5-1.13-1.2-1.49-2.1-.36-.9-.54-1.92-.54-3.06s.18-2.14.54-3.04c.36-.9.85-1.59,1.49-2.1.63-.5,1.36-.75,2.17-.75s1.53.25,2.17.75c.63.5,1.13,1.2,1.49,2.1.36.9.54,1.91.54,3.04s-.18,2.16-.54,3.05c-.36.89-.85,1.59-1.49,2.1s-1.36.76-2.17.76-1.53-.25-2.17-.75ZM485.01,1294.86c.44-.41.78-.96,1.02-1.67.24-.71.36-1.52.36-2.44s-.12-1.73-.36-2.45c-.24-.71-.58-1.27-1.02-1.67-.44-.4-.93-.6-1.49-.6s-1.05.2-1.48.6c-.43.4-.77.96-1.02,1.67-.25.71-.37,1.53-.37,2.43s.12,1.75.37,2.46c.25.71.58,1.27,1.02,1.67s.93.61,1.48.61,1.05-.2,1.49-.61Z"/>
      </g>
      <g id="mi" data-name="MTEXT">
        <path class="mx" d="M593.68,1294.72c.19-.17.42-.38.71-.64.93-.85,1.67-1.57,2.24-2.15.57-.58,1.05-1.17,1.44-1.78s.59-1.16.59-1.67c0-.48-.09-.9-.28-1.27s-.45-.66-.78-.86-.71-.31-1.15-.31c-.47,0-.93.16-1.37.48-.44.32-.78.73-1,1.23l-1.2-.51c.3-.7.78-1.28,1.46-1.73.67-.45,1.38-.67,2.11-.67.69,0,1.31.16,1.85.46.54.31.96.74,1.26,1.29.3.55.45,1.18.45,1.9s-.22,1.41-.67,2.14c-.45.73-.98,1.41-1.6,2.04-.62.63-1.42,1.39-2.42,2.27-.49.45-.95.88-1.39,1.3l-.94-.85c.28-.27.51-.49.7-.66ZM592.98,1295.38h7.22v1.18h-7.04l-.18-1.18Z"/>
      </g>
      <g id="mj" data-name="MTEXT">
        <path class="mx" d="M540.34,1296.54h-1.34v-10.08l-1.86,1.2-.67-1.07,2.54-1.62h1.33v11.57Z"/>
      </g>
      <g id="mk" data-name="MTEXT">
        <g>
          <path class="mx" d="M758.31,1289.42s.21-3.34.21-3.34h4.64v-1.18h-5.92l-.37,6.03,1.33.19c.23-.28.53-.5.9-.68.36-.18.71-.26,1.04-.26.5,0,.95.11,1.35.33.4.22.71.52.94.91.23.39.34.83.34,1.34s-.11.95-.34,1.36c-.23.41-.54.72-.94.94-.4.22-.85.34-1.35.34-.6,0-1.13-.18-1.59-.55-.46-.37-.76-.85-.89-1.43l-1.3.3c.13.57.38,1.07.74,1.52.37.45.82.8,1.34,1.05.53.25,1.09.38,1.69.38.78,0,1.47-.17,2.07-.5s1.07-.8,1.4-1.38.5-1.26.5-2.02-.17-1.41-.5-1.98-.81-1.03-1.41-1.35c-.6-.33-1.29-.49-2.06-.49-.51,0-1.04.12-1.59.38-.08.04-.16.08-.24.12Z"/>
          <path class="mx" d="M775.28,1290.76c-.29-.34-.67-.5-1.13-.5-.35,0-.66.07-.94.22-.27.14-.49.34-.65.6-.16.26-.24.55-.24.88v4.58h-1.33v-4.45c0-.54-.14-.98-.43-1.32s-.66-.5-1.12-.5c-.34,0-.65.09-.94.26s-.5.42-.66.72c-.15.3-.23.63-.23.98v4.3h-1.33v-7.46h1.33v1.31l-.14-.05c.22-.37.52-.68.9-.91.37-.23.75-.35,1.14-.35.46,0,.9.13,1.32.38.42.26.74.59.95.99.25-.41.59-.74,1.04-.99.45-.26.9-.38,1.36-.38.55,0,1.05.13,1.49.38.44.25.78.59,1.02,1.02.25.43.37.93.37,1.5v4.56h-1.34v-4.45c0-.54-.15-.98-.44-1.32Z"/>
        </g>
      </g>
      <g id="ml" data-name="LWPOLYLINE">
        <polyline class="mn" points="766.32 1280.89 766.32 1263.88 596.24 1263.88 596.24 1280.89 539.55 1280.89 539.55 1263.88 482.85 1263.88 482.85 1280.89"/>
      </g>
    </g>
    <path class="mr" d="M942.46,772.48h-.58v-8.02l-1.08.74-.31-.42,1.39-.97h.58v8.66Z"/>
    <path class="mr" d="M1353.79,604.43c.28.38.43.78.43,1.22,0,.49-.12.93-.35,1.31-.23.39-.55.69-.97.91-.41.22-.88.32-1.41.32s-1-.11-1.41-.32-.73-.52-.97-.91c-.23-.39-.35-.83-.35-1.31h.58c0,.39.09.74.28,1.05.18.31.44.55.77.72.33.17.7.26,1.1.26s.79-.08,1.12-.25.58-.39.76-.68c.18-.29.27-.62.27-1s-.09-.68-.27-.97c-.18-.28-.43-.51-.76-.67-.32-.16-.69-.24-1.1-.24h-.35v-.53h.34c.38,0,.73-.07,1.04-.22.31-.15.55-.35.72-.62.17-.26.26-.56.26-.9,0-.51-.18-.93-.55-1.26-.37-.33-.84-.49-1.42-.49-.38,0-.72.08-1.02.23-.3.16-.54.38-.7.66-.16.28-.25.61-.25.97h-.58c0-.46.11-.86.32-1.22.22-.36.52-.64.9-.85.38-.2.82-.31,1.32-.31s.94.1,1.32.31c.38.2.68.49.9.85.22.36.32.77.32,1.22,0,.37-.13.73-.38,1.09-.26.36-.59.63-1,.81.43.16.79.43,1.07.8Z"/>
    <path class="mr" d="M1225.44,794.07c.17-.16.37-.35.58-.56.72-.68,1.3-1.25,1.73-1.7s.81-.93,1.12-1.43.47-.96.47-1.38-.08-.77-.24-1.09c-.16-.32-.38-.57-.67-.75-.28-.18-.61-.27-.97-.27-.4,0-.78.14-1.15.41-.36.28-.64.63-.82,1.06l-.54-.23c.22-.52.57-.94,1.03-1.27.46-.33.96-.49,1.48-.49.47,0,.89.11,1.26.34s.66.54.87.94c.21.4.32.85.32,1.36s-.16,1.01-.49,1.55c-.33.54-.72,1.05-1.18,1.54-.46.48-1.06,1.07-1.79,1.76-.5.47-.89.84-1.16,1.12l-.41-.34c.2-.21.39-.39.56-.56ZM1224.89,794.62h5.16v.5h-5.09l-.07-.5Z"/>
  </g>
</svg>