<?xml version="1.0" encoding="UTF-8"?>
<svg xmlns="http://www.w3.org/2000/svg" viewBox="0 0 2000 1250">
  <defs>
    <style>
      .mn {
        fill-rule: evenodd;
      }

      .mn, .mo, .mp, .mq, .mr, .ms, .mt, .mu, .mv, .mw, .mx, .my, .mz, .na, .nb, .nc, .nd, .ne, .nf, .ng, .nh, .ni, .nj, .nk, .nl {
        stroke: #000;
      }

      .mn, .mo, .mq, .mr, .ms, .mt, .mv, .mw, .mx, .my, .mz, .na, .nb, .nc, .nd, .ne, .nf, .ng, .nh, .ni, .nj, .nk, .nl {
        stroke-miterlimit: 10;
      }

      .mn, .mo, .ms, .mu, .my, .na, .nd, .ng, .ni, .nj, .nl {
        stroke-width: .5px;
      }

      .mo, .mq, .mr, .ms, .mt, .mv, .mw, .mx, .my, .mz, .nb, .nc, .nd, .ne, .nf, .ng, .nh, .ni, .nj, .nk, .nl {
        fill: none;
      }

      .mp {
        stroke-width: .34px;
      }

      .mq {
        stroke-width: .75px;
      }

      .mr {
        stroke-width: .85px;
      }

      .ms {
        stroke-dasharray: 1.98 .99;
      }

      .mt {
        stroke-width: .15px;
      }

      .mv, .mw, .mx, .nb, .nc, .nk {
        stroke-width: .4px;
      }

      .mw {
        stroke-dasharray: 1.97 .99;
      }

      .mx {
        stroke-dasharray: 1.88 .94;
      }

      .my {
        stroke-dasharray: 2.04 1.02;
      }

      .mz {
        stroke-width: .25px;
      }

      .nb {
        stroke-dasharray: 1.97 .99;
      }

      .nc {
        stroke-dasharray: 1.99 .99;
      }

      .nd {
        stroke-dasharray: 2 1;
      }

      .ne {
        stroke-width: .3px;
      }

      .nf {
        stroke-width: .6px;
      }

      .ng {
        stroke-dasharray: 1.98 .99;
      }

      .nh {
        stroke-width: .9px;
      }

      .ni {
        stroke-dasharray: 1.98 .99;
      }

      .nj {
        stroke-dasharray: 1.98 .99;
      }

      .nk {
        stroke-dasharray: 2.02 1.01;
      }

      .nl {
        stroke-dasharray: 2.07 1.03;
      }
    </style>
  </defs>
  <g id="as" data-name="f2">
    <g id="at" data-name="HATCH">
      <path class="mt" d="M692.72,431.95v-36.28M696.32,431.95v-36.28M699.92,431.95v-36.28M703.52,431.95v-36.28M707.12,431.95v-36.28M710.72,431.95v-36.28M714.32,431.95v-36.28M717.92,431.95v-36.28M721.52,431.95v-36.28M725.12,431.95v-36.28M728.72,431.95v-36.28M732.32,431.95v-36.28M735.92,431.95v-36.28M739.52,431.95v-36.28M743.12,431.95v-36.28M746.72,431.95v-36.28M750.32,431.95v-36.28M753.92,431.95v-36.28M757.52,431.95v-36.28M761.12,431.95v-36.28M764.72,431.95v-36.28M768.32,431.95v-36.28M771.92,431.95v-36.28M775.52,431.95v-36.28M779.12,431.95v-36.28M782.72,431.95v-36.28M786.32,431.95v-36.28M789.92,431.95v-36.28M793.52,431.95v-36.28M797.12,431.95v-36.28M800.72,431.95v-36.28M804.32,431.95v-36.28M807.92,431.95v-36.28M811.52,431.95v-36.28M815.12,431.95v-36.28M818.72,431.95v-36.28M822.32,431.95v-36.28M825.92,431.95v-36.28M829.52,431.95v-36.28M833.12,431.95v-36.28M836.72,431.95v-36.28M840.32,431.95v-36.28M843.92,431.95v-36.28M847.52,431.95v-36.28M851.12,431.95v-36.28M854.72,431.95v-36.28M858.32,431.95v-36.28M861.92,431.95v-36.28M865.52,431.95v-36.28M869.12,431.95v-36.28M872.72,431.95v-36.28M876.32,431.95v-36.28M879.92,431.95v-36.28M883.52,431.95v-36.28M887.12,431.95v-36.28M890.72,431.95v-36.28M894.32,431.95v-36.28M897.92,431.95v-36.28M901.52,431.95v-36.28M905.12,431.95v-36.28M908.72,431.95v-36.28M912.32,431.95v-36.28M915.92,431.95v-36.28M919.52,431.95v-36.28M923.12,431.95v-36.28M926.72,431.95v-36.28M930.32,431.95v-36.28M933.92,431.95v-36.28M937.52,431.95v-36.28M941.12,431.95v-36.28M944.72,431.95v-36.28M948.32,431.95v-36.28M951.92,431.95v-36.28M955.52,431.95v-36.28M959.12,431.95v-36.28M962.72,431.95v-36.28M966.32,431.95v-36.28M969.92,431.95v-36.28M973.52,431.95v-36.28M977.12,431.95v-36.28M980.72,431.95v-36.28M984.93,423.77h-295.65M984.93,409.37h-295.65"/>
    </g>
    <g id="au" data-name="LWPOLYLINE">
      <polyline class="mz" points="987.76 375.26 987.76 358.56 997.4 358.56"/>
    </g>
    <g id="av" data-name="LWPOLYLINE">
      <polyline class="mz" points="1288.8 278.88 997.4 278.88 997.4 358.56 1288.8 358.56"/>
    </g>
    <g id="aw" data-name="LWPOLYLINE">
      <rect class="mz" x="1000.8" y="280.58" width="53.18" height="76.28"/>
    </g>
    <g id="ax" data-name="LWPOLYLINE">
      <rect class="mz" x="1057.38" y="280.58" width="54.88" height="76.28"/>
    </g>
    <g id="ay" data-name="LWPOLYLINE">
      <rect class="mz" x="1115.66" y="280.58" width="54.88" height="76.28"/>
    </g>
    <g id="az" data-name="LWPOLYLINE">
      <rect class="mz" x="1173.94" y="280.58" width="54.88" height="76.28"/>
    </g>
    <g id="ba" data-name="LWPOLYLINE">
      <rect class="mz" x="1232.22" y="280.58" width="53.18" height="76.28"/>
    </g>
    <g id="bb" data-name="LWPOLYLINE">
      <polyline class="mz" points="619.26 690.47 619.26 260.74 1006.19 260.74 1006.19 267.54 989.18 267.54 989.18 278.88 997.4 278.88"/>
    </g>
    <g id="bc" data-name="LWPOLYLINE">
      <polyline class="mz" points="1288.8 267.54 1017.53 267.54 1017.53 260.74 1049.56 260.74 1049.56 249.4 607.92 249.4 607.92 766.44 619.26 766.44 619.26 696.14"/>
    </g>
    <g id="bd" data-name="LWPOLYLINE">
      <rect class="mz" x="619.26" y="690.47" width="51.02" height="5.67"/>
    </g>
    <g id="be" data-name="LINE">
      <line class="mz" x1="670.28" y1="696.14" x2="685.87" y2="696.14"/>
    </g>
    <g id="bf" data-name="LINE">
      <line class="mz" x1="670.28" y1="690.47" x2="685.87" y2="690.47"/>
    </g>
    <g id="bg" data-name="LWPOLYLINE">
      <polyline class="mz" points="987.76 372.43 874.38 372.43 874.38 392.27"/>
    </g>
    <g id="bh" data-name="LWPOLYLINE">
      <polyline class="mz" points="987.76 371.29 873.24 371.29 873.24 392.27"/>
    </g>
    <g id="bi" data-name="LWPOLYLINE">
      <polyline class="mz" points="829.02 516.99 829.02 522.1 829.59 522.1 829.59 516.99"/>
    </g>
    <g id="bj" data-name="LWPOLYLINE">
      <polyline class="mz" points="829.59 726.76 829.59 676.87 829.02 676.87 829.02 726.76"/>
    </g>
    <g id="bk" data-name="LWPOLYLINE">
      <rect class="mz" x="829.02" y="625.84" width=".57" height="49.89"/>
    </g>
    <g id="bl" data-name="LWPOLYLINE">
      <polyline class="mz" points="829.59 522.66 829.59 573.69 829.02 573.69 829.02 522.66"/>
    </g>
    <g id="bm" data-name="LWPOLYLINE">
      <rect class="mz" x="829.02" y="574.82" width=".57" height="49.89"/>
    </g>
    <g id="bn" data-name="LINE">
      <line class="mz" x1="977.28" y1="750" x2="934.19" y2="750"/>
    </g>
    <g id="bo" data-name="LINE">
      <line class="mz" x1="933.06" y1="750" x2="850.85" y2="750"/>
    </g>
    <g id="bp" data-name="LINE">
      <line class="mz" x1="976.43" y1="751.57" x2="935.04" y2="751.57"/>
    </g>
    <g id="bq" data-name="LINE">
      <line class="mz" x1="932.21" y1="751.57" x2="851.7" y2="751.58"/>
    </g>
    <g id="br" data-name="LINE">
      <line class="mz" x1="1161.53" y1="750" x2="1009.59" y2="750"/>
    </g>
    <g id="bs" data-name="LINE">
      <line class="mz" x1="1160.68" y1="751.57" x2="1010.44" y2="751.57"/>
    </g>
    <g id="bt" data-name="LINE">
      <line class="mz" x1="1191.85" y1="749.26" x2="1285.82" y2="666.84"/>
    </g>
    <g id="bu" data-name="LINE">
      <line class="mz" x1="1286.21" y1="668.58" x2="1193.53" y2="749.88"/>
    </g>
    <g id="bv" data-name="LINE">
      <line class="mz" x1="818.54" y1="750" x2="693.53" y2="750"/>
    </g>
    <g id="bw" data-name="LINE">
      <line class="mz" x1="817.69" y1="751.58" x2="694.38" y2="751.58"/>
    </g>
    <g id="bx" data-name="LINE">
      <line class="mz" x1="1286.54" y1="385.75" x2="1286.54" y2="495.45"/>
    </g>
    <g id="by" data-name="LINE">
      <line class="mz" x1="1288.1" y1="386.6" x2="1288.1" y2="494.6"/>
    </g>
    <g id="bz" data-name="LINE">
      <line class="mz" x1="1286.54" y1="527.76" x2="1286.54" y2="636.9"/>
    </g>
    <g id="ca" data-name="LINE">
      <line class="mz" x1="1288.1" y1="528.62" x2="1288.1" y2="636.05"/>
    </g>
    <g id="cb" data-name="LWPOLYLINE">
      <polyline class="ne" points="984.93 392.27 685.87 392.27 685.87 431.95"/>
    </g>
    <g id="cc" data-name="LWPOLYLINE">
      <polyline class="ne" points="820.52 766.44 685.87 766.44 685.87 752.27"/>
    </g>
    <g id="cd" data-name="LWPOLYLINE">
      <polyline class="ne" points="1163.51 766.44 1088.39 766.44 1088.39 752.27"/>
    </g>
    <g id="ce" data-name="LWPOLYLINE">
      <polyline class="ne" points="1007.61 766.44 1082.73 766.44 1082.73 752.27"/>
    </g>
    <g id="cf" data-name="LWPOLYLINE">
      <polyline class="ne" points="911.23 752.27 911.23 766.44 848.87 766.44"/>
    </g>
    <g id="cg" data-name="LWPOLYLINE">
      <polyline class="ne" points="979.26 766.44 916.9 766.44 916.9 752.27"/>
    </g>
    <g id="ch" data-name="LWPOLYLINE">
      <polyline class="ne" points="1302.98 638.88 1302.98 584.46 1288.8 584.46"/>
    </g>
    <g id="ci" data-name="LWPOLYLINE">
      <polyline class="ne" points="1302.98 667.23 1302.98 673.66 1252.21 718.18 1242.87 707.52"/>
    </g>
    <g id="cj" data-name="LWPOLYLINE">
      <polyline class="ne" points="1191.86 766.44 1197.19 766.44 1247.95 721.92 1238.61 711.26"/>
    </g>
    <g id="ck" data-name="LWPOLYLINE">
      <polyline class="ne" points="1302.98 497.43 1302.98 440.46 1288.8 440.46"/>
    </g>
    <g id="cl" data-name="LWPOLYLINE">
      <polyline class="ne" points="1302.98 525.78 1302.98 578.79 1288.8 578.79"/>
    </g>
    <g id="cm" data-name="LWPOLYLINE">
      <polyline class="ne" points="1288.8 434.79 1302.98 434.79 1302.98 267.54 1288.8 267.54 1288.8 375.26"/>
    </g>
    <g id="cn" data-name="LWPOLYLINE">
      <g>
        <polyline class="mv" points="1059.48 615.21 1059.48 616.21 1060.48 616.21"/>
        <line class="mx" x1="1061.42" y1="616.21" x2="1083.52" y2="616.21"/>
        <polyline class="mv" points="1083.99 616.21 1084.99 616.21 1084.99 615.21"/>
        <path class="mw" d="M1084.99,614.22v-15.02c0-7.04-5.71-12.76-12.76-12.76s-12.76,5.71-12.76,12.76v15.51"/>
      </g>
    </g>
    <g id="co" data-name="LWPOLYLINE">
      <g>
        <polyline class="mv" points="1059.48 690.91 1059.48 689.91 1060.48 689.91"/>
        <line class="mx" x1="1061.42" y1="689.91" x2="1083.52" y2="689.91"/>
        <polyline class="mv" points="1083.99 689.91 1084.99 689.91 1084.99 690.91"/>
        <path class="mw" d="M1084.99,691.89v15.02c0,7.04-5.71,12.76-12.76,12.76s-12.76-5.71-12.76-12.76v-15.51"/>
      </g>
    </g>
    <g id="cp" data-name="LWPOLYLINE">
      <g>
        <polyline class="mv" points="1127.51 615.21 1127.51 616.21 1128.51 616.21"/>
        <line class="mx" x1="1129.45" y1="616.21" x2="1151.56" y2="616.21"/>
        <polyline class="mv" points="1152.03 616.21 1153.03 616.21 1153.03 615.21"/>
        <path class="mw" d="M1153.03,614.22v-15.02c0-7.04-5.71-12.76-12.76-12.76s-12.76,5.71-12.76,12.76v15.51"/>
      </g>
    </g>
    <g id="cq" data-name="LWPOLYLINE">
      <g>
        <polyline class="mv" points="1127.51 690.91 1127.51 689.91 1128.51 689.91"/>
        <line class="mx" x1="1129.45" y1="689.91" x2="1151.56" y2="689.91"/>
        <polyline class="mv" points="1152.03 689.91 1153.03 689.91 1153.03 690.91"/>
        <path class="mw" d="M1153.03,691.89v15.02c0,7.04-5.71,12.76-12.76,12.76s-12.76-5.71-12.76-12.76v-15.51"/>
      </g>
    </g>
    <g id="cr" data-name="LINE">
      <g>
        <line class="mv" x1="1174.85" y1="687.07" x2="1174.85" y2="686.07"/>
        <line class="nb" x1="1174.85" y1="685.09" x2="1174.85" y2="620.53"/>
        <line class="mv" x1="1174.85" y1="620.04" x2="1174.85" y2="619.04"/>
      </g>
    </g>
    <g id="cs" data-name="LWPOLYLINE">
      <g>
        <polyline class="mv" points="1212.7 639.73 1211.7 639.73 1211.7 640.73"/>
        <line class="mx" x1="1211.7" y1="641.67" x2="1211.7" y2="663.77"/>
        <polyline class="mv" points="1211.7 664.25 1211.7 665.25 1212.7 665.25"/>
        <path class="mw" d="M1213.69,665.25h15.02c7.04,0,12.76-5.71,12.76-12.76s-5.71-12.76-12.76-12.76h-15.51"/>
      </g>
    </g>
    <g id="ct" data-name="LWPOLYLINE">
      <g>
        <polyline class="mv" points="1059.48 447.68 1059.48 448.68 1060.48 448.68"/>
        <line class="mx" x1="1061.42" y1="448.68" x2="1083.52" y2="448.68"/>
        <polyline class="mv" points="1083.99 448.68 1084.99 448.68 1084.99 447.68"/>
        <path class="mw" d="M1084.99,446.69v-15.02c0-7.04-5.71-12.76-12.76-12.76s-12.76,5.71-12.76,12.76v15.51"/>
      </g>
    </g>
    <g id="cu" data-name="LWPOLYLINE">
      <g>
        <polyline class="mv" points="1059.48 523.38 1059.48 522.38 1060.48 522.38"/>
        <line class="mx" x1="1061.42" y1="522.38" x2="1083.52" y2="522.38"/>
        <polyline class="mv" points="1083.99 522.38 1084.99 522.38 1084.99 523.38"/>
        <path class="mw" d="M1084.99,524.37v15.02c0,7.04-5.71,12.76-12.76,12.76s-12.76-5.71-12.76-12.76v-15.51"/>
      </g>
    </g>
    <g id="cv" data-name="LWPOLYLINE">
      <g>
        <polyline class="mv" points="1127.51 447.68 1127.51 448.68 1128.51 448.68"/>
        <line class="mx" x1="1129.45" y1="448.68" x2="1151.56" y2="448.68"/>
        <polyline class="mv" points="1152.03 448.68 1153.03 448.68 1153.03 447.68"/>
        <path class="mw" d="M1153.03,446.69v-15.02c0-7.04-5.71-12.76-12.76-12.76s-12.76,5.71-12.76,12.76v15.51"/>
      </g>
    </g>
    <g id="cw" data-name="LWPOLYLINE">
      <g>
        <polyline class="mv" points="1127.51 523.38 1127.51 522.38 1128.51 522.38"/>
        <line class="mx" x1="1129.45" y1="522.38" x2="1151.56" y2="522.38"/>
        <polyline class="mv" points="1152.03 522.38 1153.03 522.38 1153.03 523.38"/>
        <path class="mw" d="M1153.03,524.37v15.02c0,7.04-5.71,12.76-12.76,12.76s-12.76-5.71-12.76-12.76v-15.51"/>
      </g>
    </g>
    <g id="cx" data-name="LWPOLYLINE">
      <g>
        <polyline class="mv" points="1207.87 451.52 1208.87 451.52 1208.87 452.52"/>
        <line class="nb" x1="1208.87" y1="453.5" x2="1208.87" y2="518.05"/>
        <polyline class="mv" points="1208.87 518.55 1208.87 519.55 1207.87 519.55"/>
        <line class="nc" x1="1206.87" y1="519.55" x2="1040.29" y2="519.55"/>
        <polyline class="mv" points="1039.79 519.55 1038.79 519.55 1038.79 518.55"/>
        <line class="nb" x1="1038.79" y1="517.56" x2="1038.79" y2="453.01"/>
        <polyline class="mv" points="1038.79 452.52 1038.79 451.52 1039.79 451.52"/>
        <line class="nc" x1="1040.78" y1="451.52" x2="1207.37" y2="451.52"/>
      </g>
    </g>
    <g id="cy" data-name="LWPOLYLINE">
      <g>
        <polyline class="mv" points="1212.7 472.21 1211.7 472.21 1211.7 473.21"/>
        <line class="mx" x1="1211.7" y1="474.15" x2="1211.7" y2="496.25"/>
        <polyline class="mv" points="1211.7 496.72 1211.7 497.72 1212.7 497.72"/>
        <path class="mw" d="M1213.69,497.72h15.02c7.04,0,12.76-5.71,12.76-12.76s-5.71-12.76-12.76-12.76h-15.51"/>
      </g>
    </g>
    <g id="cz" data-name="LINE">
      <g>
        <line class="mv" x1="997.98" y1="653.06" x2="996.98" y2="653.06"/>
        <line class="nk" x1="995.97" y1="653.06" x2="863.42" y2="653.06"/>
        <line class="mv" x1="862.91" y1="653.06" x2="861.91" y2="653.06"/>
      </g>
    </g>
    <g id="da" data-name="LINE">
      <g>
        <line class="mv" x1="929.95" y1="687.07" x2="929.95" y2="686.07"/>
        <line class="nb" x1="929.95" y1="685.09" x2="929.95" y2="620.53"/>
        <line class="mv" x1="929.95" y1="620.04" x2="929.95" y2="619.04"/>
      </g>
    </g>
    <g id="db" data-name="LWPOLYLINE">
      <g>
        <polyline class="mv" points="950.64 615.21 950.64 616.21 951.64 616.21"/>
        <line class="mx" x1="952.58" y1="616.21" x2="974.68" y2="616.21"/>
        <polyline class="mv" points="975.15 616.21 976.15 616.21 976.15 615.21"/>
        <path class="mw" d="M976.15,614.22v-15.02c0-7.04-5.71-12.76-12.76-12.76s-12.76,5.71-12.76,12.76v15.51"/>
      </g>
    </g>
    <g id="dc" data-name="LWPOLYLINE">
      <g>
        <polyline class="mv" points="950.64 690.91 950.64 689.91 951.64 689.91"/>
        <line class="mx" x1="952.58" y1="689.91" x2="974.68" y2="689.91"/>
        <polyline class="mv" points="975.15 689.91 976.15 689.91 976.15 690.91"/>
        <path class="mw" d="M976.15,691.89v15.02c0,7.04-5.71,12.76-12.76,12.76s-12.76-5.71-12.76-12.76v-15.51"/>
      </g>
    </g>
    <g id="dd" data-name="LWPOLYLINE">
      <g>
        <polyline class="mv" points="996.98 619.04 997.98 619.04 997.98 620.04"/>
        <polyline class="nb" points="997.98 621.03 997.98 653.06 997.98 685.58"/>
        <polyline class="mv" points="997.98 686.07 997.98 687.07 996.98 687.07"/>
        <polyline class="nk" points="995.97 687.07 929.95 687.07 863.42 687.07"/>
        <polyline class="mv" points="862.91 687.07 861.91 687.07 861.91 686.07"/>
        <polyline class="nb" points="861.91 685.09 861.91 653.06 861.91 620.53"/>
        <polyline class="mv" points="861.91 620.04 861.91 619.04 862.91 619.04"/>
        <polyline class="nk" points="863.92 619.04 929.95 619.04 996.47 619.04"/>
      </g>
    </g>
    <g id="de" data-name="LWPOLYLINE">
      <g>
        <polyline class="mv" points="882.61 615.21 882.61 616.21 883.61 616.21"/>
        <line class="mx" x1="884.55" y1="616.21" x2="906.65" y2="616.21"/>
        <polyline class="mv" points="907.12 616.21 908.12 616.21 908.12 615.21"/>
        <path class="mw" d="M908.12,614.22v-15.02c0-7.04-5.71-12.76-12.76-12.76s-12.76,5.71-12.76,12.76v15.51"/>
      </g>
    </g>
    <g id="df" data-name="LWPOLYLINE">
      <g>
        <polyline class="mv" points="882.61 690.91 882.61 689.91 883.61 689.91"/>
        <line class="mx" x1="884.55" y1="689.91" x2="906.65" y2="689.91"/>
        <polyline class="mv" points="907.12 689.91 908.12 689.91 908.12 690.91"/>
        <path class="mw" d="M908.12,691.89v15.02c0,7.04-5.71,12.76-12.76,12.76s-12.76-5.71-12.76-12.76v-15.51"/>
      </g>
    </g>
    <g id="dg" data-name="LINE">
      <g>
        <line class="mv" x1="1174.85" y1="653.06" x2="1173.85" y2="653.06"/>
        <line class="nk" x1="1172.84" y1="653.06" x2="1040.29" y2="653.06"/>
        <line class="mv" x1="1039.79" y1="653.06" x2="1038.79" y2="653.06"/>
      </g>
    </g>
    <g id="dh" data-name="LINE">
      <g>
        <line class="mv" x1="1106.82" y1="687.07" x2="1106.82" y2="686.07"/>
        <line class="nb" x1="1106.82" y1="685.09" x2="1106.82" y2="620.53"/>
        <line class="mv" x1="1106.82" y1="620.04" x2="1106.82" y2="619.04"/>
      </g>
    </g>
    <g id="di" data-name="LWPOLYLINE">
      <g>
        <polyline class="mv" points="1207.87 619.04 1208.87 619.04 1208.87 620.04"/>
        <polyline class="nb" points="1208.87 621.03 1208.87 653.06 1208.87 685.58"/>
        <polyline class="mv" points="1208.87 686.07 1208.87 687.07 1207.87 687.07"/>
        <polyline class="nc" points="1206.87 687.07 1106.82 687.07 1040.29 687.07"/>
        <polyline class="mv" points="1039.79 687.07 1038.79 687.07 1038.79 686.07"/>
        <polyline class="nb" points="1038.79 685.09 1038.79 653.06 1038.79 620.53"/>
        <polyline class="mv" points="1038.79 620.04 1038.79 619.04 1039.79 619.04"/>
        <polyline class="nc" points="1040.78 619.04 1106.82 619.04 1207.37 619.04"/>
      </g>
    </g>
    <g id="dj" data-name="LINE">
      <g>
        <line class="mv" x1="1174.85" y1="485.53" x2="1173.85" y2="485.53"/>
        <line class="nk" x1="1172.84" y1="485.53" x2="1040.29" y2="485.53"/>
        <line class="mv" x1="1039.79" y1="485.53" x2="1038.79" y2="485.53"/>
      </g>
    </g>
    <g id="dk" data-name="LINE">
      <g>
        <line class="mv" x1="1106.82" y1="519.55" x2="1106.82" y2="518.55"/>
        <line class="nb" x1="1106.82" y1="517.56" x2="1106.82" y2="453.01"/>
        <line class="mv" x1="1106.82" y1="452.52" x2="1106.82" y2="451.52"/>
      </g>
    </g>
    <g id="dl" data-name="LINE">
      <g>
        <line class="mv" x1="1174.85" y1="519.55" x2="1174.85" y2="518.55"/>
        <line class="nb" x1="1174.85" y1="517.56" x2="1174.85" y2="453.01"/>
        <line class="mv" x1="1174.85" y1="452.52" x2="1174.85" y2="451.52"/>
      </g>
    </g>
    <g id="dm" data-name="LWPOLYLINE">
      <rect class="mv" x="770.35" y="501.12" width="1.98" height="170.08"/>
    </g>
    <g id="dn" data-name="LWPOLYLINE">
      <rect class="mv" x="778" y="505.09" width="1.98" height="166.11"/>
    </g>
    <g id="do" data-name="LINE">
      <line class="mv" x1="775.17" y1="534.57" x2="772.33" y2="534.57"/>
    </g>
    <g id="dp" data-name="LINE">
      <line class="mv" x1="770.35" y1="534.57" x2="721.31" y2="534.57"/>
    </g>
    <g id="dq" data-name="LINE">
      <line class="mv" x1="775.17" y1="519.83" x2="772.33" y2="519.83"/>
    </g>
    <g id="dr" data-name="LINE">
      <line class="mv" x1="770.35" y1="519.83" x2="721.31" y2="519.83"/>
    </g>
    <g id="ds" data-name="LINE">
      <line class="mv" x1="775.17" y1="505.09" x2="772.33" y2="505.09"/>
    </g>
    <g id="dt" data-name="LINE">
      <line class="mv" x1="770.35" y1="505.09" x2="721.31" y2="505.09"/>
    </g>
    <g id="du" data-name="LINE">
      <line class="mv" x1="775.17" y1="549.31" x2="772.33" y2="549.31"/>
    </g>
    <g id="dv" data-name="LINE">
      <line class="mv" x1="770.35" y1="549.31" x2="721.31" y2="549.31"/>
    </g>
    <g id="dw" data-name="LINE">
      <line class="mv" x1="775.17" y1="564.05" x2="772.33" y2="564.05"/>
    </g>
    <g id="dx" data-name="LINE">
      <line class="mv" x1="770.35" y1="564.05" x2="721.31" y2="564.05"/>
    </g>
    <g id="dy" data-name="LINE">
      <line class="mv" x1="775.17" y1="578.79" x2="772.33" y2="578.79"/>
    </g>
    <g id="dz" data-name="LINE">
      <line class="mv" x1="770.35" y1="578.79" x2="721.31" y2="578.79"/>
    </g>
    <g id="ea" data-name="LINE">
      <line class="mv" x1="775.17" y1="593.53" x2="772.33" y2="593.53"/>
    </g>
    <g id="eb" data-name="LINE">
      <line class="mv" x1="770.35" y1="593.53" x2="721.31" y2="593.53"/>
    </g>
    <g id="ec" data-name="LINE">
      <line class="mv" x1="775.17" y1="608.27" x2="772.33" y2="608.27"/>
    </g>
    <g id="ed" data-name="LINE">
      <line class="mv" x1="770.35" y1="608.27" x2="721.31" y2="608.27"/>
    </g>
    <g id="ee" data-name="LINE">
      <line class="mv" x1="775.17" y1="623.01" x2="772.33" y2="623.01"/>
    </g>
    <g id="ef" data-name="LINE">
      <line class="mv" x1="770.35" y1="623.01" x2="721.31" y2="623.01"/>
    </g>
    <g id="eg" data-name="LINE">
      <line class="mv" x1="775.17" y1="637.75" x2="772.33" y2="637.75"/>
    </g>
    <g id="eh" data-name="LINE">
      <line class="mv" x1="770.35" y1="637.75" x2="721.31" y2="637.75"/>
    </g>
    <g id="ei" data-name="LINE">
      <line class="mv" x1="775.17" y1="652.49" x2="772.33" y2="652.49"/>
    </g>
    <g id="ej" data-name="LINE">
      <line class="mv" x1="770.35" y1="652.49" x2="721.31" y2="652.49"/>
    </g>
    <g id="ek" data-name="LINE">
      <line class="mv" x1="775.17" y1="667.23" x2="772.33" y2="667.23"/>
    </g>
    <g id="el" data-name="LINE">
      <line class="mv" x1="770.35" y1="667.23" x2="721.31" y2="667.23"/>
    </g>
    <g id="em" data-name="LINE">
      <line class="mv" x1="775.17" y1="505.09" x2="775.17" y2="667.23"/>
    </g>
    <g id="en" data-name="LINE">
      <line class="mv" x1="775.17" y1="667.23" x2="772.33" y2="670.36"/>
    </g>
    <g id="eo" data-name="LINE">
      <line class="mv" x1="771.58" y1="671.2" x2="721.31" y2="726.76"/>
    </g>
    <g id="ep" data-name="LINE">
      <line class="mv" x1="775.17" y1="667.23" x2="775.17" y2="726.76"/>
    </g>
    <g id="eq" data-name="LINE">
      <line class="mv" x1="775.17" y1="667.23" x2="778" y2="667.23"/>
    </g>
    <g id="er" data-name="LINE">
      <line class="mv" x1="775.17" y1="652.49" x2="778" y2="652.49"/>
    </g>
    <g id="es" data-name="LINE">
      <line class="mv" x1="775.17" y1="637.75" x2="778" y2="637.75"/>
    </g>
    <g id="et" data-name="LINE">
      <line class="mv" x1="775.17" y1="505.09" x2="775.17" y2="446.13"/>
    </g>
    <g id="eu" data-name="LINE">
      <line class="mv" x1="779.98" y1="667.23" x2="829.02" y2="667.23"/>
    </g>
    <g id="ev" data-name="LINE">
      <line class="mv" x1="779.98" y1="652.49" x2="829.02" y2="652.49"/>
    </g>
    <g id="ew" data-name="LINE">
      <line class="mv" x1="779.98" y1="637.75" x2="829.02" y2="637.75"/>
    </g>
    <g id="ex" data-name="LWPOLYLINE">
      <rect class="mv" x="827.89" y="522.66" width="2.83" height="8.5"/>
    </g>
    <g id="ey" data-name="LWPOLYLINE">
      <rect class="mv" x="829.02" y="488.65" width="5.67" height="2.83"/>
    </g>
    <g id="ez" data-name="LWPOLYLINE">
      <rect class="mv" x="829.02" y="446.13" width="5.67" height="2.83"/>
    </g>
    <g id="fa" data-name="LWPOLYLINE">
      <rect class="mv" x="829.02" y="448.96" width="1.7" height="39.69"/>
    </g>
    <g id="fb" data-name="LWPOLYLINE">
      <rect class="mv" x="925.4" y="431.95" width="2.83" height="8.5"/>
    </g>
    <g id="fc" data-name="LWPOLYLINE">
      <rect class="mv" x="962.25" y="431.95" width="2.83" height="8.5"/>
    </g>
    <g id="fd" data-name="LWPOLYLINE">
      <rect class="mv" x="928.24" y="431.95" width="34.02" height="1.7"/>
    </g>
    <g id="fe" data-name="LWPOLYLINE">
      <rect class="mv" x="789.34" y="431.95" width="2.83" height="14.17"/>
    </g>
    <g id="ff" data-name="LWPOLYLINE">
      <rect class="mv" x="826.19" y="431.95" width="2.83" height="14.17"/>
    </g>
    <g id="fg" data-name="LWPOLYLINE">
      <rect class="mv" x="792.17" y="431.95" width="34.02" height="1.7"/>
    </g>
    <g id="fh" data-name="LWPOLYLINE">
      <rect class="mv" x="691.54" y="743.76" width="2.83" height="5.67"/>
    </g>
    <g id="fi" data-name="LWPOLYLINE">
      <polyline class="mv" points="692.39 749.43 692.39 750.57 693.53 750.57 693.53 749.43"/>
    </g>
    <g id="fj" data-name="LINE">
      <line class="mv" x1="692.96" y1="750.57" x2="692.96" y2="752.27"/>
    </g>
    <g id="fk" data-name="LWPOLYLINE">
      <polyline class="mv" points="691.54 751.57 691.54 752.27 694.38 752.27 694.38 751.58"/>
    </g>
    <g id="fl" data-name="LWPOLYLINE">
      <rect class="mv" x="1280.3" y="383.76" width="5.67" height="2.83"/>
    </g>
    <g id="fm" data-name="LWPOLYLINE">
      <polyline class="mv" points="1285.97 385.75 1287.1 385.75 1287.1 384.62 1285.97 384.62"/>
    </g>
    <g id="fn" data-name="LINE">
      <line class="mv" x1="1287.1" y1="385.18" x2="1288.8" y2="385.18"/>
    </g>
    <g id="fo" data-name="LWPOLYLINE">
      <polyline class="mv" points="1288.1 386.6 1288.8 386.6 1288.8 383.76 1288.11 383.76"/>
    </g>
    <g id="fp" data-name="LWPOLYLINE">
      <rect class="mv" x="848.87" y="743.76" width="2.83" height="5.67"/>
    </g>
    <g id="fq" data-name="LWPOLYLINE">
      <polyline class="mv" points="849.72 749.43 849.72 750.57 850.85 750.57 850.85 749.43"/>
    </g>
    <g id="fr" data-name="LINE">
      <line class="mv" x1="850.28" y1="750.57" x2="850.28" y2="752.27"/>
    </g>
    <g id="fs" data-name="LWPOLYLINE">
      <polyline class="mv" points="848.87 751.57 848.87 752.27 851.7 752.27 851.7 751.58"/>
    </g>
    <g id="ft" data-name="LWPOLYLINE">
      <rect class="mv" x="976.43" y="743.76" width="2.83" height="5.67"/>
    </g>
    <g id="fu" data-name="LWPOLYLINE">
      <polyline class="mv" points="977.28 749.43 977.28 750.57 978.41 750.57 978.41 749.43"/>
    </g>
    <g id="fv" data-name="LINE">
      <line class="mv" x1="977.84" y1="750.57" x2="977.84" y2="752.27"/>
    </g>
    <g id="fw" data-name="LWPOLYLINE">
      <polyline class="mv" points="976.43 751.57 976.43 752.27 979.26 752.27 979.26 751.58"/>
    </g>
    <g id="fx" data-name="LWPOLYLINE">
      <rect class="mv" x="1160.68" y="743.76" width="2.83" height="5.67"/>
    </g>
    <g id="fy" data-name="LWPOLYLINE">
      <polyline class="mv" points="1161.53 749.43 1161.53 750.57 1162.66 750.57 1162.66 749.43"/>
    </g>
    <g id="fz" data-name="LINE">
      <line class="mv" x1="1162.1" y1="750.57" x2="1162.1" y2="752.27"/>
    </g>
    <g id="ga" data-name="LWPOLYLINE">
      <polyline class="mv" points="1160.68 751.57 1160.68 752.27 1163.51 752.27 1163.51 751.58"/>
    </g>
    <g id="gb" data-name="LWPOLYLINE">
      <rect class="mv" x="1187.76" y="744.24" width="2.83" height="5.67" transform="translate(-197.01 972.37) rotate(-41.37)"/>
    </g>
    <g id="gc" data-name="LWPOLYLINE">
      <polyline class="mv" points="1190.63 749.58 1191.38 750.43 1192.23 749.68 1191.48 748.83"/>
    </g>
    <g id="gd" data-name="LINE">
      <line class="mv" x1="1191.8" y1="750.06" x2="1192.92" y2="751.33"/>
    </g>
    <g id="ge" data-name="LWPOLYLINE">
      <polyline class="mv" points="1191.4 751.74 1191.86 752.27 1193.99 750.4 1193.53 749.88"/>
    </g>
    <g id="gf" data-name="LWPOLYLINE">
      <rect class="mv" x="1007.61" y="743.76" width="2.83" height="5.67"/>
    </g>
    <g id="gg" data-name="LWPOLYLINE">
      <polyline class="mv" points="1008.46 749.43 1008.46 750.57 1009.59 750.57 1009.59 749.43"/>
    </g>
    <g id="gh" data-name="LINE">
      <line class="mv" x1="1009.02" y1="750.57" x2="1009.02" y2="752.27"/>
    </g>
    <g id="gi" data-name="LWPOLYLINE">
      <polyline class="mv" points="1007.61 751.57 1007.61 752.27 1010.44 752.27 1010.44 751.58"/>
    </g>
    <g id="gj" data-name="LWPOLYLINE">
      <rect class="mv" x="1282.58" y="661.08" width="2.83" height="5.67" transform="translate(-118.38 1014.28) rotate(-41.37)"/>
    </g>
    <g id="gk" data-name="LWPOLYLINE">
      <polyline class="mv" points="1285.44 666.41 1286.19 667.26 1287.04 666.52 1286.29 665.66"/>
    </g>
    <g id="gl" data-name="LINE">
      <line class="mv" x1="1286.62" y1="666.89" x2="1287.74" y2="668.17"/>
    </g>
    <g id="gm" data-name="LWPOLYLINE">
      <polyline class="mv" points="1286.21 668.58 1286.68 669.1 1288.8 667.23 1288.35 666.71"/>
    </g>
    <g id="gn" data-name="LWPOLYLINE">
      <rect class="mv" x="932.21" y="743.76" width="2.83" height="5.67"/>
    </g>
    <g id="go" data-name="LWPOLYLINE">
      <polyline class="mv" points="933.06 749.43 933.06 750.57 934.19 750.57 934.19 749.43"/>
    </g>
    <g id="gp" data-name="LINE">
      <line class="mv" x1="933.62" y1="750.57" x2="933.62" y2="752.27"/>
    </g>
    <g id="gq" data-name="LWPOLYLINE">
      <polyline class="mv" points="932.21 751.57 932.21 752.27 935.04 752.27 935.04 751.58"/>
    </g>
    <g id="gr" data-name="LWPOLYLINE">
      <rect class="mv" x="817.69" y="743.76" width="2.83" height="5.67"/>
    </g>
    <g id="gs" data-name="LWPOLYLINE">
      <polyline class="mv" points="818.54 749.43 818.54 750.57 819.67 750.57 819.67 749.43"/>
    </g>
    <g id="gt" data-name="LINE">
      <line class="mv" x1="819.1" y1="750.57" x2="819.1" y2="752.27"/>
    </g>
    <g id="gu" data-name="LWPOLYLINE">
      <polyline class="mv" points="817.69 751.57 817.69 752.27 820.52 752.27 820.52 751.58"/>
    </g>
    <g id="gv" data-name="LWPOLYLINE">
      <rect class="mv" x="1280.3" y="636.05" width="5.67" height="2.83"/>
    </g>
    <g id="gw" data-name="LWPOLYLINE">
      <polyline class="mv" points="1285.97 638.03 1287.1 638.03 1287.1 636.9 1285.97 636.9"/>
    </g>
    <g id="gx" data-name="LINE">
      <line class="mv" x1="1287.1" y1="637.47" x2="1288.8" y2="637.47"/>
    </g>
    <g id="gy" data-name="LWPOLYLINE">
      <polyline class="mv" points="1288.1 638.88 1288.8 638.88 1288.8 636.05 1288.11 636.05"/>
    </g>
    <g id="gz" data-name="LWPOLYLINE">
      <rect class="mv" x="1280.3" y="494.6" width="5.67" height="2.83"/>
    </g>
    <g id="ha" data-name="LWPOLYLINE">
      <polyline class="mv" points="1285.97 496.58 1287.1 496.58 1287.1 495.45 1285.97 495.45"/>
    </g>
    <g id="hb" data-name="LINE">
      <line class="mv" x1="1287.1" y1="496.02" x2="1288.8" y2="496.02"/>
    </g>
    <g id="hc" data-name="LWPOLYLINE">
      <polyline class="mv" points="1288.1 497.43 1288.8 497.43 1288.8 494.6 1288.11 494.6"/>
    </g>
    <g id="hd" data-name="LWPOLYLINE">
      <rect class="mv" x="1280.3" y="525.78" width="5.67" height="2.83"/>
    </g>
    <g id="he" data-name="LWPOLYLINE">
      <polyline class="mv" points="1285.97 527.76 1287.1 527.76 1287.1 526.63 1285.97 526.63"/>
    </g>
    <g id="hf" data-name="LINE">
      <line class="mv" x1="1287.1" y1="527.2" x2="1288.8" y2="527.2"/>
    </g>
    <g id="hg" data-name="LWPOLYLINE">
      <polyline class="mv" points="1288.1 528.62 1288.8 528.62 1288.8 525.78 1288.11 525.78"/>
    </g>
    <g id="hh" data-name="LINE">
      <line class="mv" x1="851.7" y1="743.76" x2="932.21" y2="743.76"/>
    </g>
    <g id="hi" data-name="LINE">
      <line class="mv" x1="935.04" y1="743.76" x2="976.43" y2="743.76"/>
    </g>
    <g id="hj" data-name="LINE">
      <line class="mv" x1="851.7" y1="752.27" x2="932.21" y2="752.27"/>
    </g>
    <g id="hk" data-name="LINE">
      <line class="mv" x1="935.04" y1="752.27" x2="976.43" y2="752.27"/>
    </g>
    <g id="hl" data-name="LINE">
      <line class="mv" x1="1010.44" y1="743.76" x2="1160.68" y2="743.76"/>
    </g>
    <g id="hm" data-name="LINE">
      <line class="mv" x1="1010.44" y1="752.27" x2="1160.68" y2="752.27"/>
    </g>
    <g id="hn" data-name="LINE">
      <line class="mv" x1="1188.37" y1="744.01" x2="1281.06" y2="662.72"/>
    </g>
    <g id="ho" data-name="LINE">
      <line class="mv" x1="1286.68" y1="669.1" x2="1193.99" y2="750.4"/>
    </g>
    <g id="hp" data-name="LINE">
      <line class="mv" x1="702.88" y1="743.76" x2="817.69" y2="743.76"/>
    </g>
    <g id="hq" data-name="LINE">
      <line class="mv" x1="694.38" y1="752.27" x2="817.69" y2="752.27"/>
    </g>
    <g id="hr" data-name="LINE">
      <line class="mv" x1="1280.3" y1="494.6" x2="1280.3" y2="386.6"/>
    </g>
    <g id="hs" data-name="LINE">
      <line class="mv" x1="1288.8" y1="494.6" x2="1288.8" y2="386.6"/>
    </g>
    <g id="ht" data-name="LINE">
      <line class="mv" x1="1280.3" y1="636.05" x2="1280.3" y2="528.62"/>
    </g>
    <g id="hu" data-name="LINE">
      <line class="mv" x1="1288.8" y1="636.05" x2="1288.8" y2="528.62"/>
    </g>
    <g id="hv" data-name="LWPOLYLINE">
      <g>
        <line class="mo" x1="829.59" y1="522.66" x2="830.59" y2="522.66"/>
        <line class="nd" x1="831.59" y1="522.66" x2="879.11" y2="522.66"/>
        <polyline class="mo" points="879.61 522.66 880.61 522.66 880.61 523.23 879.61 523.23"/>
        <line class="nd" x1="878.61" y1="523.23" x2="831.09" y2="523.23"/>
        <line class="mo" x1="830.59" y1="523.23" x2="829.59" y2="523.23"/>
      </g>
    </g>
    <g id="hw" data-name="ARC">
      <g>
        <path class="mo" d="M829.59,573.69c.33,0,.67,0,1,0"/>
        <path class="ms" d="M831.58,573.65c26.76-1.03,48.24-22.66,49.01-49.49"/>
        <path class="mo" d="M880.61,523.66c0-.33,0-.67,0-1"/>
      </g>
    </g>
    <g id="hx" data-name="LWPOLYLINE">
      <g>
        <polyline class="mo" points="828.02 448.96 829.02 448.96 829.02 450.66 828.02 450.66"/>
        <line class="my" x1="827.01" y1="450.66" x2="790.85" y2="450.66"/>
        <polyline class="mo" points="790.34 450.66 789.34 450.66 789.34 448.96 790.34 448.96"/>
        <line class="my" x1="791.36" y1="448.96" x2="827.52" y2="448.96"/>
      </g>
    </g>
    <g id="hy" data-name="ARC">
      <g>
        <path class="mo" d="M789.34,448.96c0,.33,0,.67.01,1"/>
        <path class="ng" d="M789.39,450.95c1.01,20.5,17.58,36.91,38.14,37.67"/>
        <path class="mo" d="M828.02,488.63c.33,0,.67.01,1,.01"/>
      </g>
    </g>
    <g id="hz" data-name="LWPOLYLINE">
      <g>
        <polyline class="mo" points="961.39 431.45 962.25 431.95 961.4 433.43 960.54 432.93"/>
        <line class="nl" x1="959.64" y1="432.41" x2="933.26" y2="417.18"/>
        <polyline class="mo" points="932.81 416.92 931.94 416.42 932.79 414.95 933.66 415.45"/>
        <line class="nl" x1="934.55" y1="415.96" x2="960.94" y2="431.2"/>
      </g>
    </g>
    <g id="ia" data-name="ARC">
      <g>
        <path class="mo" d="M932.79,414.95c-.17.29-.33.58-.49.88"/>
        <path class="ni" d="M931.85,416.7c-2.15,4.28-3.37,8.98-3.58,13.77"/>
        <path class="mo" d="M928.25,430.95c0,.33-.01.67-.01,1"/>
      </g>
    </g>
    <g id="ib" data-name="LWPOLYLINE">
      <g>
        <polyline class="mo" points="792.17 430.95 792.17 431.95 793.87 431.95 793.87 430.95"/>
        <line class="nl" x1="793.87" y1="429.92" x2="793.87" y2="399.45"/>
        <polyline class="mo" points="793.87 398.94 793.87 397.94 792.17 397.94 792.17 398.94"/>
        <line class="nl" x1="792.17" y1="399.97" x2="792.17" y2="430.44"/>
      </g>
    </g>
    <g id="ic" data-name="ARC">
      <g>
        <path class="mo" d="M826.19,431.95c0-.33,0-.67-.01-1"/>
        <path class="nj" d="M826.13,429.97c-1-17.37-15.03-31.24-32.46-32"/>
        <path class="mo" d="M793.17,397.95c-.33,0-.67-.01-1-.01"/>
      </g>
    </g>
    <g id="id" data-name="LWPOLYLINE">
      <polyline class="mo" points="781.92 631.44 751.67 623.87 748.77 628.16 747.7 617.86 744.8 622.15 714.55 614.58"/>
    </g>
    <g id="ie" data-name="CIRCLE">
      <circle class="mo" cx="775.17" cy="475.61" r="1.42"/>
    </g>
    <g id="if" data-name="LWPOLYLINE">
      <polyline class="mo" points="751.44 609.6 748.24 612.8 745.03 609.6"/>
    </g>
    <g id="ig" data-name="CIRCLE">
      <circle class="mo" cx="804.5" cy="637.75" r="1.42"/>
    </g>
    <g id="ih" data-name="LWPOLYLINE">
      <polyline class="mo" points="748.24 633.21 748.24 696.99 750.03 698.98 804.5 698.98 804.5 637.75"/>
    </g>
    <g id="ii" data-name="LWPOLYLINE">
      <polyline class="mo" points="751.44 636.42 748.24 633.21 745.03 636.42"/>
    </g>
    <g id="ij" data-name="LWPOLYLINE">
      <polyline class="mo" points="748.24 612.8 748.24 475.61 775.17 475.61"/>
    </g>
    <g id="ik" data-name="LWPOLYLINE">
      <path class="mo" d="M904.16,496.07h-9.13v2.72h9.13c.75,0,1.36-.61,1.36-1.36s-.61-1.36-1.36-1.36Z"/>
    </g>
    <g id="il" data-name="LWPOLYLINE">
      <polyline class="mo" points="900.7 498.79 900.7 514.16 933.58 514.16 933.58 491.48 900.7 491.48 900.7 496.07"/>
    </g>
    <g id="im" data-name="LINE">
      <line class="mo" x1="834.64" y1="488.65" x2="885.66" y2="488.65"/>
    </g>
    <g id="in" data-name="LWPOLYLINE">
      <rect class="mo" x="845.83" y="498.88" width="8.5" height="2.27"/>
    </g>
    <g id="io" data-name="LWPOLYLINE">
      <path class="mo" d="M889.4,450.73h28.63v24.38h-28.63c-6.73,0-12.19-5.46-12.19-12.19s5.46-12.19,12.19-12.19Z"/>
    </g>
    <g id="ip" data-name="LWPOLYLINE">
      <polyline class="mo" points="848.67 498.88 848.67 490.38 877.01 490.38 877.01 509.65 848.67 509.65 848.67 501.15"/>
    </g>
    <g id="iq" data-name="LINE">
      <line class="mo" x1="999.1" y1="446.13" x2="999.1" y2="480.14"/>
    </g>
    <g id="ir" data-name="LWPOLYLINE">
      <polyline class="mo" points="984.93 393.97 687.58 393.97 687.58 431.95"/>
    </g>
    <g id="is" data-name="LWPOLYLINE">
      <polyline class="mo" points="984.93 395.67 689.28 395.67 689.28 431.95"/>
    </g>
    <g id="it" data-name="LINE">
      <line class="mo" x1="829.02" y1="726.76" x2="721.31" y2="726.76"/>
    </g>
    <g id="iu" data-name="LINE">
      <line class="mo" x1="721.31" y1="726.76" x2="721.31" y2="446.13"/>
    </g>
    <g id="iv" data-name="LINE">
      <line class="mo" x1="709.97" y1="446.13" x2="709.97" y2="726.76"/>
    </g>
    <g id="iw" data-name="LINE">
      <line class="mo" x1="891.39" y1="516.99" x2="986.35" y2="516.99"/>
    </g>
    <g id="ix" data-name="LINE">
      <line class="mo" x1="1263.29" y1="402.93" x2="999.1" y2="402.93"/>
    </g>
    <g id="iy" data-name="LINE">
      <line class="mo" x1="1263.97" y1="403.61" x2="1263.97" y2="505.65"/>
    </g>
    <g id="iz" data-name="LINE">
      <line class="mo" x1="829.02" y1="738.1" x2="721.31" y2="738.1"/>
    </g>
    <g id="ja" data-name="LINE">
      <line class="mo" x1="1273.95" y1="403.61" x2="1273.95" y2="505.65"/>
    </g>
    <g id="jb" data-name="LINE">
      <line class="mo" x1="1263.29" y1="392.95" x2="999.1" y2="392.95"/>
    </g>
    <g id="jc" data-name="LINE">
      <line class="mo" x1="1277.47" y1="497.43" x2="1277.47" y2="389.43"/>
    </g>
    <g id="jd" data-name="LINE">
      <line class="mo" x1="1263.97" y1="454.63" x2="1273.95" y2="454.63"/>
    </g>
    <g id="je" data-name="LINE">
      <line class="mo" x1="1131.2" y1="402.93" x2="1131.2" y2="392.95"/>
    </g>
    <g id="jf" data-name="LINE">
      <line class="mo" x1="775.17" y1="738.1" x2="775.17" y2="726.76"/>
    </g>
    <g id="jg" data-name="LINE">
      <line class="mo" x1="709.97" y1="586.44" x2="721.31" y2="586.44"/>
    </g>
    <g id="jh" data-name="LINE">
      <line class="mo" x1="1187.58" y1="740.93" x2="1277.47" y2="662.1"/>
    </g>
    <g id="ji" data-name="LINE">
      <line class="mo" x1="979.26" y1="740.93" x2="848.87" y2="740.93"/>
    </g>
    <g id="jj" data-name="LINE">
      <line class="mo" x1="1007.61" y1="740.93" x2="1163.51" y2="740.93"/>
    </g>
    <g id="jk" data-name="LINE">
      <line class="mo" x1="1277.47" y1="638.88" x2="1277.47" y2="525.78"/>
    </g>
    <g id="jl" data-name="LWPOLYLINE">
      <rect class="nf" x="829.02" y="434.79" width="11.34" height="11.34"/>
    </g>
    <g id="jm" data-name="LWPOLYLINE">
      <rect class="nf" x="829.7" y="435.47" width="9.98" height="9.98"/>
    </g>
    <g id="jn" data-name="LWPOLYLINE">
      <rect class="nf" x="987.76" y="726.76" width="11.34" height="11.34"/>
    </g>
    <g id="jo" data-name="LWPOLYLINE">
      <rect class="nf" x="988.44" y="727.44" width="9.98" height="9.98"/>
    </g>
    <g id="jp" data-name="LWPOLYLINE">
      <rect class="nf" x="1172.02" y="726.76" width="11.34" height="11.34"/>
    </g>
    <g id="jq" data-name="LWPOLYLINE">
      <rect class="nf" x="1172.7" y="727.44" width="9.98" height="9.98"/>
    </g>
    <g id="jr" data-name="LWPOLYLINE">
      <rect class="nf" x="1263.29" y="647.39" width="11.34" height="11.34"/>
    </g>
    <g id="js" data-name="LWPOLYLINE">
      <rect class="nf" x="1263.97" y="648.07" width="9.98" height="9.98"/>
    </g>
    <g id="jt" data-name="LWPOLYLINE">
      <rect class="nf" x="1263.29" y="505.65" width="11.34" height="11.34"/>
    </g>
    <g id="ju" data-name="LWPOLYLINE">
      <rect class="nf" x="1263.97" y="506.33" width="9.98" height="9.98"/>
    </g>
    <g id="jv" data-name="LWPOLYLINE">
      <rect class="nf" x="1263.29" y="392.27" width="11.34" height="11.34"/>
    </g>
    <g id="jw" data-name="LWPOLYLINE">
      <rect class="nf" x="1263.97" y="392.95" width="9.98" height="9.98"/>
    </g>
    <g id="jx" data-name="LWPOLYLINE">
      <rect class="nf" x="987.76" y="392.27" width="11.34" height="11.34"/>
    </g>
    <g id="jy" data-name="LWPOLYLINE">
      <rect class="nf" x="988.44" y="392.95" width="9.98" height="9.98"/>
    </g>
    <g id="jz" data-name="LWPOLYLINE">
      <rect class="nf" x="986.35" y="504.24" width="14.17" height="14.17"/>
    </g>
    <g id="ka" data-name="LWPOLYLINE">
      <rect class="nf" x="987.03" y="504.92" width="12.81" height="12.81"/>
    </g>
    <g id="kb" data-name="LWPOLYLINE">
      <rect class="nf" x="829.02" y="505.65" width="11.34" height="11.34"/>
    </g>
    <g id="kc" data-name="LWPOLYLINE">
      <rect class="nf" x="829.7" y="506.33" width="9.98" height="9.98"/>
    </g>
    <g id="kd" data-name="LWPOLYLINE">
      <rect class="nf" x="709.97" y="434.79" width="11.34" height="11.34"/>
    </g>
    <g id="ke" data-name="LWPOLYLINE">
      <rect class="nf" x="710.65" y="435.47" width="9.98" height="9.98"/>
    </g>
    <g id="kf" data-name="LWPOLYLINE">
      <rect class="nf" x="709.97" y="726.76" width="11.34" height="11.34"/>
    </g>
    <g id="kg" data-name="LWPOLYLINE">
      <rect class="nf" x="710.65" y="727.44" width="9.98" height="9.98"/>
    </g>
    <g id="kh" data-name="LWPOLYLINE">
      <rect class="nf" x="829.02" y="726.76" width="11.34" height="11.34"/>
    </g>
    <g id="ki" data-name="LWPOLYLINE">
      <rect class="nf" x="829.7" y="727.44" width="9.98" height="9.98"/>
    </g>
    <g id="kj" data-name="LWPOLYLINE">
      <rect class="nf" x="979.26" y="752.27" width="28.35" height="14.17"/>
    </g>
    <g id="kk" data-name="LWPOLYLINE">
      <rect class="nf" x="1163.51" y="752.27" width="28.35" height="14.17"/>
    </g>
    <g id="kl" data-name="LWPOLYLINE">
      <rect class="nf" x="820.52" y="752.27" width="28.35" height="14.17"/>
    </g>
    <g id="km" data-name="LWPOLYLINE">
      <rect class="nf" x="1288.8" y="638.88" width="14.17" height="28.35"/>
    </g>
    <g id="kn" data-name="LWPOLYLINE">
      <rect class="nf" x="1288.8" y="497.43" width="14.17" height="28.35"/>
    </g>
    <g id="ko" data-name="LINE">
      <line class="mq" x1="721.31" y1="434.79" x2="789.34" y2="434.79"/>
    </g>
    <g id="kp" data-name="LINE">
      <line class="mq" x1="789.34" y1="440.46" x2="721.31" y2="440.46"/>
    </g>
    <g id="kq" data-name="LINE">
      <line class="mq" x1="709.97" y1="434.79" x2="702.88" y2="434.79"/>
    </g>
    <g id="kr" data-name="LINE">
      <line class="mq" x1="709.97" y1="440.46" x2="702.88" y2="440.46"/>
    </g>
    <g id="ks" data-name="LWPOLYLINE">
      <polyline class="mq" points="987.76 403.61 987.76 434.79 965.09 434.79"/>
    </g>
    <g id="kt" data-name="LWPOLYLINE">
      <polyline class="mq" points="993.43 403.61 993.43 440.46 965.09 440.46"/>
    </g>
    <g id="ku" data-name="LINE">
      <line class="mq" x1="840.36" y1="434.79" x2="925.4" y2="434.79"/>
    </g>
    <g id="kv" data-name="LINE">
      <line class="mq" x1="840.36" y1="440.46" x2="925.4" y2="440.46"/>
    </g>
    <g id="kw" data-name="LWPOLYLINE">
      <polyline class="mq" points="987.76 392.27 987.76 378.1 1288.8 378.1"/>
    </g>
    <g id="kx" data-name="LWPOLYLINE">
      <polyline class="mq" points="993.43 392.27 993.43 383.76 1280.3 383.76"/>
    </g>
    <g id="ky" data-name="LWPOLYLINE">
      <rect class="mr" x="691.54" y="434.79" width="11.34" height="308.98"/>
    </g>
    <g id="kz" data-name="LWPOLYLINE">
      <rect class="mr" x="1280.87" y="499.13" width="7.94" height="24.94"/>
    </g>
    <g id="la" data-name="LWPOLYLINE">
      <rect class="mr" x="980.96" y="744.33" width="24.94" height="7.94"/>
    </g>
    <g id="lb" data-name="LWPOLYLINE">
      <rect class="mr" x="822.22" y="744.33" width="24.94" height="7.94"/>
    </g>
    <g id="lc" data-name="LWPOLYLINE">
      <rect class="mr" x="1165.22" y="744.33" width="21.03" height="7.94"/>
    </g>
    <g id="ld" data-name="LWPOLYLINE">
      <rect class="mr" x="1280.87" y="640.58" width="7.94" height="20.26"/>
    </g>
    <g id="le" data-name="LINE">
      <line class="nh" x1="829.02" y1="491.48" x2="829.02" y2="505.65"/>
    </g>
    <g id="lf" data-name="LINE">
      <line class="nh" x1="834.69" y1="491.48" x2="834.69" y2="505.65"/>
    </g>
    <g id="lg" data-name="LWPOLYLINE">
      <polyline class="nh" points="840.36 516.99 891.39 516.99 891.39 485.81 986.35 485.81 986.35 504.24"/>
    </g>
    <g id="lh" data-name="LWPOLYLINE">
      <polyline class="nh" points="925.4 440.46 925.4 480.14 965.09 480.14 965.09 440.46"/>
    </g>
    <g id="li" data-name="LWPOLYLINE">
      <polyline class="nh" points="999.1 403.61 999.1 446.13 970.76 446.13 970.76 480.14 999.1 480.14 999.1 504.24"/>
    </g>
    <g id="lj" data-name="LINE">
      <line class="nh" x1="829.02" y1="431.95" x2="925.4" y2="431.95"/>
    </g>
    <g id="lk" data-name="LWPOLYLINE">
      <polyline class="nh" points="840.36 446.13 919.73 446.13 919.73 480.14 885.72 480.14 885.72 511.32 840.36 511.32"/>
    </g>
    <g id="ll" data-name="LINE">
      <line class="nh" x1="789.34" y1="446.13" x2="721.31" y2="446.13"/>
    </g>
    <g id="lm" data-name="LINE">
      <line class="nh" x1="709.97" y1="446.13" x2="702.88" y2="446.13"/>
    </g>
    <g id="ln" data-name="LWPOLYLINE">
      <polyline class="nh" points="999.1 392.27 999.1 389.43 1280.3 389.43 1280.3 383.76 1288.8 383.76 1288.8 375.26 984.93 375.26 984.93 431.95 965.09 431.95"/>
    </g>
    <g id="lo" data-name="LWPOLYLINE">
      <polyline class="nh" points="789.34 431.95 685.87 431.95 685.87 752.27 691.54 752.27 691.54 743.76"/>
    </g>
    <g id="lp" data-name="LWPOLYLINE">
      <polyline class="nh" points="1007.61 752.27 1007.61 740.93 979.26 740.93 979.26 752.27"/>
    </g>
    <g id="lq" data-name="LWPOLYLINE">
      <polyline class="nh" points="1288.8 525.78 1277.47 525.78 1277.47 497.43 1288.8 497.43"/>
    </g>
    <g id="lr" data-name="LWPOLYLINE">
      <polyline class="nh" points="848.87 752.27 848.87 740.93 820.52 740.93 820.52 752.27"/>
    </g>
    <g id="ls" data-name="LWPOLYLINE">
      <polyline class="nh" points="1187.58 744.7 1187.58 740.93 1163.51 740.93 1163.51 752.27"/>
    </g>
    <g id="lt" data-name="LWPOLYLINE">
      <polyline class="nh" points="1288.8 638.88 1277.47 638.88 1277.47 662.1 1281.76 662.1"/>
    </g>
  </g>
  <g id="ma" data-name="SCALE">
    <g>
      <g id="mb" data-name="CIRCLE">
        <circle class="mo" cx="214.88" cy="1092.93" r="14.88"/>
      </g>
      <g id="mc" data-name="TEXT">
        <path class="mu" d="M224.5,1077.4l-.86-.35-1.27-8.05-2.62,6.47-.84-.34,3.28-8.1.87.35,1.26,8.02,2.61-6.45.84.34-3.28,8.1Z"/>
      </g>
      <g id="md" data-name="HATCH">
        <path class="mn" d="M220.46,1079.13c-.23-.09-.46-.18-.7-.26l-5.57,13.78.69.28,5.58-13.8Z"/>
      </g>
      <g id="me" data-name="HATCH">
        <path class="mn" d="M221.15,1079.43c-.23-.1-.45-.2-.69-.3l-5.58,13.8.69.28,5.57-13.78Z"/>
      </g>
      <g id="mf" data-name="LINE">
        <line class="na" x1="219.76" y1="1078.87" x2="214.19" y2="1092.64"/>
      </g>
      <g id="mg" data-name="LINE">
        <line class="na" x1="221.15" y1="1079.43" x2="215.57" y2="1093.21"/>
      </g>
      <g id="mh" data-name="LINE">
        <line class="na" x1="214.88" y1="1092.93" x2="220.46" y2="1079.13"/>
      </g>
      <g id="mi" data-name="MTEXT">
        <path class="mu" d="M281.36,1108.4c-.63-.5-1.13-1.2-1.49-2.1-.36-.9-.54-1.92-.54-3.06s.18-2.14.54-3.04c.36-.9.85-1.59,1.49-2.1.63-.5,1.36-.75,2.17-.75s1.53.25,2.17.75c.63.5,1.13,1.2,1.49,2.1.36.9.54,1.91.54,3.04s-.18,2.16-.54,3.05c-.36.89-.85,1.59-1.49,2.1s-1.36.76-2.17.76-1.53-.25-2.17-.75ZM285.01,1107.36c.44-.41.78-.96,1.02-1.67.24-.71.36-1.52.36-2.44s-.12-1.73-.36-2.45c-.24-.71-.58-1.27-1.02-1.67-.44-.4-.93-.6-1.49-.6s-1.05.2-1.48.6c-.43.4-.77.96-1.02,1.67-.25.71-.37,1.53-.37,2.43s.12,1.75.37,2.46c.25.71.58,1.27,1.02,1.67s.93.61,1.48.61,1.05-.2,1.49-.61Z"/>
      </g>
      <g id="mj" data-name="MTEXT">
        <path class="mu" d="M393.68,1107.22c.19-.17.42-.38.71-.64.93-.85,1.67-1.57,2.24-2.15.57-.58,1.05-1.17,1.44-1.78s.59-1.16.59-1.67c0-.48-.09-.9-.28-1.27s-.45-.66-.78-.86-.71-.31-1.15-.31c-.47,0-.93.16-1.37.48-.44.32-.78.73-1,1.23l-1.2-.51c.3-.7.78-1.28,1.46-1.73.67-.45,1.38-.67,2.11-.67.69,0,1.31.16,1.85.46.54.31.96.74,1.26,1.29.3.55.45,1.18.45,1.9s-.22,1.41-.67,2.14c-.45.73-.98,1.41-1.6,2.04-.62.63-1.42,1.39-2.42,2.27-.49.45-.95.88-1.39,1.3l-.94-.85c.28-.27.51-.49.7-.66ZM392.98,1107.88h7.22v1.18h-7.04l-.18-1.18Z"/>
      </g>
      <g id="mk" data-name="MTEXT">
        <path class="mu" d="M340.34,1109.04h-1.34v-10.08l-1.86,1.2-.67-1.07,2.54-1.62h1.33v11.57Z"/>
      </g>
      <g id="ml" data-name="MTEXT">
        <g>
          <path class="mu" d="M558.55,1101.81c.55-.25,1.08-.38,1.59-.38.77,0,1.45.16,2.06.49.6.33,1.07.78,1.41,1.35s.5,1.24.5,1.98-.17,1.43-.5,2.02-.8,1.05-1.4,1.38-1.29.5-2.07.5c-.6,0-1.16-.12-1.69-.38-.53-.25-.98-.6-1.34-1.05-.37-.45-.62-.95-.74-1.52l1.3-.3c.13.59.42,1.06.89,1.43.46.37.99.55,1.59.55.5,0,.95-.11,1.35-.34.4-.22.71-.54.94-.94.23-.41.34-.86.34-1.36s-.11-.95-.34-1.34c-.23-.39-.54-.69-.94-.91-.4-.22-.85-.33-1.35-.33-.33,0-.68.09-1.04.26-.36.18-.66.4-.9.68l-.99-.86c.34-.38.79-.7,1.34-.95ZM556.87,1103.43l.37-6.03h5.92v1.18h-4.64l-.32,5.04-1.33-.19Z"/>
          <path class="mu" d="M575.28,1103.26c-.29-.34-.67-.5-1.13-.5-.35,0-.66.07-.94.22-.27.14-.49.34-.65.6-.16.26-.24.55-.24.88v4.58h-1.33v-4.45c0-.54-.14-.98-.43-1.32s-.66-.5-1.12-.5c-.34,0-.65.09-.94.26s-.5.42-.66.72c-.15.3-.23.63-.23.98v4.3h-1.33v-7.46h1.33v1.31l-.14-.05c.22-.37.52-.68.9-.91.37-.23.75-.35,1.14-.35.46,0,.9.13,1.32.38.42.26.74.59.95.99.25-.41.59-.74,1.04-.99.45-.26.9-.38,1.36-.38.55,0,1.05.13,1.49.38.44.25.78.59,1.02,1.02.25.43.37.93.37,1.5v4.56h-1.34v-4.45c0-.54-.15-.98-.44-1.32Z"/>
        </g>
      </g>
      <g id="mm" data-name="LWPOLYLINE">
        <polyline class="mo" points="566.32 1093.39 566.32 1076.38 396.24 1076.38 396.24 1093.39 339.55 1093.39 339.55 1076.38 282.85 1076.38 282.85 1093.39"/>
      </g>
    </g>
    <g>
      <g>
        <path class="mp" d="M1769.61,1063.54v2.45c0,.78-.16,1.57-.48,2.34-.32.78-.74,1.48-1.26,2.09s-1.06,1.09-1.62,1.41l-.42-.53c.52-.28,1.04-.7,1.54-1.27.5-.57.92-1.21,1.23-1.93.32-.71.48-1.42.48-2.12v-2.45h.53ZM1769.69,1063.54v2.45c0,.67.16,1.35.48,2.04.32.69.73,1.3,1.24,1.84.5.54,1.02.95,1.55,1.22l-.42.5c-.57-.31-1.11-.76-1.63-1.34s-.94-1.26-1.27-2c-.33-.75-.49-1.5-.49-2.25v-2.45h.53ZM1775.08,1062.4v12.08h-.64v-12.08h.64ZM1777.24,1067.47v.57h-2.31v-.57h2.31Z"/>
        <path class="mp" d="M1789.11,1069.61v.56h-10.95v-.56h10.95ZM1787.61,1063.14v4.58h-7.97v-4.58h7.97ZM1780.28,1063.69v3.51h6.71v-3.51h-6.71ZM1783.93,1069.92v4.56h-.63v-4.56h.63Z"/>
        <path class="mp" d="M1794.32,1062.81v.92c0,.72-.15,1.4-.46,2.03s-.72,1.19-1.23,1.67c-.51.48-1.08.84-1.69,1.11l-.35-.53c.57-.21,1.1-.54,1.58-.97.49-.43.88-.93,1.17-1.5.29-.57.44-1.17.44-1.8v-.92h.55ZM1800.19,1069.43v2.63h-6.96v1.97h-.62v-2.49h6.94v-1.55h-6.99v-.56h7.62ZM1800.67,1073.76v.55h-8.06v-.55h8.06ZM1794.4,1062.81v.92c0,.59.15,1.16.45,1.7.3.55.7,1.02,1.19,1.42.49.4,1.02.71,1.58.92l-.34.52c-.63-.24-1.2-.59-1.71-1.04-.52-.45-.93-.97-1.24-1.58-.31-.61-.46-1.25-.46-1.95v-.92h.53ZM1800.19,1062.4v6.36h-.64v-6.36h.64Z"/>
        <path class="mp" d="M1767.2,1080.88v1.96h4.16v-1.96h.63v5.25h-5.43v-5.25h.64ZM1767.2,1085.57h4.16v-2.18h-4.16v2.18ZM1775.22,1087.37v2.66h-6.78v2.09h-.63v-2.6h6.78v-1.6h-6.82v-.55h7.45ZM1775.71,1091.76v.55h-7.9v-.55h7.9ZM1775.22,1080.4v6.3h-.64v-6.3h.64ZM1777.13,1083.2v.56h-2.24v-.56h2.24Z"/>
        <path class="mp" d="M1789.07,1090.08v.56h-10.91v-.56h10.91ZM1787.14,1085.09l-7.8.46-.11-.6,7.91-.36v.5ZM1787.22,1081.7v.56h-7.7v-.56h7.7ZM1783.33,1086.79v3.5h-.64v-3.5h.64ZM1787.57,1081.7v1.2c0,1.01-.03,1.91-.08,2.7-.05.79-.18,1.71-.38,2.76l-.64-.1c.21-1,.34-1.89.39-2.67.06-.78.08-1.68.08-2.69v-1.2h.63Z"/>
        <path class="mp" d="M1791.9,1081.62v7.45h-.63v-7.45h.63ZM1798.03,1088.09l.1.59c-1.04.21-2.03.35-2.99.45-.96.09-1.94.14-2.95.14h-.92v-.57h.92c2.04,0,3.99-.2,5.84-.6ZM1800.13,1080.4v12.08h-.63v-12.08h.63Z"/>
        <path class="mp" d="M1770.53,1102.95c-.34.95-.85,1.84-1.53,2.67s-1.54,1.57-2.57,2.19l-.39-.5c.94-.57,1.74-1.24,2.39-2,.65-.76,1.15-1.59,1.48-2.47.33-.88.5-1.79.5-2.72v-.1h.63c0,1.01-.17,1.99-.5,2.93ZM1770.73,1100.01v.56h-4.28v-.56h4.28ZM1773.47,1104.93v.55h-2.95v-.55h2.95ZM1773.47,1101.89v.55h-2.84v-.55h2.84ZM1773.71,1098.75v11.05h-.63v-11.05h.63ZM1776.09,1098.4v12.08h-.64v-12.08h.64Z"/>
        <path class="mp" d="M1784.1,1099.49v.57h-4.63v4.56h-.64v-5.14h5.28ZM1782.8,1104.25c.82-.06,1.64-.17,2.47-.34l.1.56c-.88.17-1.73.29-2.56.35-.83.07-1.87.1-3.11.1h-.88v-.57h.88c1.25,0,2.28-.03,3.1-.09ZM1780.78,1106.31v3.5h-.64v-3.5h.64ZM1788.08,1109.6v.56h-7.94v-.56h7.94ZM1787.46,1098.39v8.76h-.64v-8.76h.64ZM1789.38,1102.2v.55h-2.16v-.55h2.16Z"/>
        <path class="mp" d="M1794.32,1098.81v.92c0,.72-.15,1.4-.46,2.03s-.72,1.19-1.23,1.67c-.51.48-1.08.84-1.69,1.11l-.35-.53c.57-.21,1.1-.54,1.58-.97.49-.43.88-.93,1.17-1.5.29-.57.44-1.17.44-1.8v-.92h.55ZM1800.19,1105.43v2.63h-6.96v1.97h-.62v-2.49h6.94v-1.55h-6.99v-.56h7.62ZM1800.67,1109.76v.55h-8.06v-.55h8.06ZM1794.4,1098.81v.92c0,.59.15,1.16.45,1.7.3.55.7,1.02,1.19,1.42.49.4,1.02.71,1.58.92l-.34.52c-.63-.24-1.2-.59-1.71-1.04-.52-.45-.93-.97-1.24-1.58-.31-.61-.46-1.25-.46-1.95v-.92h.53ZM1800.19,1098.4v6.36h-.64v-6.36h.64Z"/>
        <path class="mp" d="M1769.97,1125.31c1.27-.05,2.46-.15,3.58-.32l.06.5c-1.17.2-2.37.32-3.61.38-1.24.06-2.6.09-4.07.09l-.14-.59c1.52,0,2.92-.02,4.19-.07ZM1773.28,1117.97v.55h-7.29v-.55h7.29ZM1771.09,1119.66c.42.18.74.44.97.78.23.34.35.73.35,1.18s-.12.82-.35,1.15c-.23.33-.56.59-.97.77-.42.18-.9.27-1.45.27s-1.03-.09-1.45-.27c-.42-.18-.74-.44-.97-.77-.23-.33-.34-.72-.34-1.15s.11-.84.34-1.18c.23-.34.55-.59.97-.78.42-.18.9-.27,1.45-.27s1.03.09,1.45.27ZM1768.08,1120.38c-.4.31-.59.72-.59,1.21s.2.9.59,1.2c.4.31.92.46,1.56.46s1.16-.15,1.56-.46.6-.71.6-1.2-.2-.9-.6-1.21-.92-.47-1.56-.47-1.16.16-1.56.47ZM1769.97,1116.39v1.85h-.66v-1.85h.66ZM1769.97,1123.64v1.96h-.66v-1.96h.66ZM1775.03,1116.4v12.08h-.64v-12.08h.64ZM1777.17,1121.69v.57h-2.3v-.57h2.3Z"/>
        <path class="mp" d="M1781.89,1117.66v1.13c0,.7-.15,1.35-.44,1.96s-.7,1.13-1.2,1.58-1.07.78-1.69,1.01l-.34-.52c.57-.21,1.09-.51,1.57-.9s.86-.87,1.15-1.41c.29-.54.43-1.12.43-1.72v-1.13h.52ZM1784.87,1117.35v.56h-6.41v-.56h6.41ZM1785.74,1124.42c.58.16,1.03.4,1.34.72.31.32.47.7.47,1.15,0,.68-.34,1.21-1.03,1.59s-1.64.57-2.86.57c-.8,0-1.5-.08-2.08-.25-.58-.17-1.03-.42-1.34-.74-.31-.33-.46-.71-.46-1.16s.15-.83.46-1.15c.31-.32.75-.56,1.34-.72.58-.16,1.28-.25,2.08-.25s1.5.08,2.08.25ZM1781.95,1124.91c-.49.13-.87.31-1.13.55-.27.23-.4.51-.4.83,0,.49.29.89.88,1.18s1.38.43,2.37.43,1.78-.14,2.37-.43.89-.68.89-1.18c0-.32-.14-.59-.41-.83-.27-.23-.65-.42-1.14-.55-.49-.13-1.06-.2-1.72-.2s-1.22.07-1.71.2ZM1781.99,1117.66v1.12c0,.54.14,1.06.41,1.56.27.5.64.94,1.11,1.31.46.37.97.66,1.52.87l-.31.5c-.61-.22-1.16-.55-1.65-.97s-.89-.91-1.18-1.47c-.29-.56-.43-1.16-.43-1.81v-1.12h.53ZM1787.45,1116.4v7.36h-.64v-7.36h.64ZM1789.36,1119.68v.56h-2.1v-.56h2.1Z"/>
        <path class="mp" d="M1794.32,1116.81v.92c0,.72-.15,1.4-.46,2.03s-.72,1.19-1.23,1.67c-.51.48-1.08.84-1.69,1.11l-.35-.53c.57-.21,1.1-.54,1.58-.97.49-.43.88-.93,1.17-1.5.29-.57.44-1.17.44-1.8v-.92h.55ZM1800.19,1123.43v2.63h-6.96v1.97h-.62v-2.49h6.94v-1.55h-6.99v-.56h7.62ZM1800.67,1127.76v.55h-8.06v-.55h8.06ZM1794.4,1116.81v.92c0,.59.15,1.16.45,1.7.3.55.7,1.02,1.19,1.42.49.4,1.02.71,1.58.92l-.34.52c-.63-.24-1.2-.59-1.71-1.04-.52-.45-.93-.97-1.24-1.58-.31-.61-.46-1.25-.46-1.95v-.92h.53ZM1800.19,1116.4v6.36h-.64v-6.36h.64Z"/>
      </g>
      <g>
        <path class="mp" d="M1755.03,1073.55h-.67v-9.35l-1.26.87-.36-.49,1.62-1.13h.67v10.11Z"/>
        <path class="mp" d="M1751.93,1090.31c.2-.19.43-.41.68-.65.84-.79,1.51-1.46,2.02-1.99.51-.53.94-1.09,1.31-1.67s.55-1.12.55-1.61-.09-.9-.28-1.27-.45-.67-.78-.88c-.33-.21-.71-.32-1.13-.32-.47,0-.91.16-1.34.48-.42.32-.75.73-.96,1.24l-.63-.27c.26-.61.66-1.1,1.2-1.48.54-.38,1.12-.57,1.72-.57.55,0,1.04.13,1.47.39.43.26.77.63,1.01,1.09.25.47.37.99.37,1.58s-.19,1.18-.57,1.81-.84,1.23-1.38,1.79c-.54.56-1.23,1.25-2.09,2.05-.59.55-1.04.98-1.36,1.3l-.48-.39c.23-.24.45-.46.65-.65ZM1751.27,1090.96h6.02v.59h-5.94l-.08-.59Z"/>
        <path class="mp" d="M1756.95,1105.25c.33.44.5.92.5,1.43,0,.57-.14,1.08-.41,1.53s-.65.8-1.13,1.06-1.03.38-1.64.38-1.17-.13-1.65-.38-.86-.6-1.13-1.06-.41-.96-.41-1.53h.67c0,.46.11.87.32,1.23s.51.64.9.84c.38.2.81.3,1.29.3s.92-.1,1.3-.29.68-.46.89-.79.32-.72.32-1.16-.11-.8-.32-1.13-.5-.59-.88-.78c-.38-.19-.8-.28-1.28-.28h-.41v-.62h.39c.45,0,.85-.09,1.21-.26s.64-.41.84-.72c.2-.31.3-.66.3-1.05,0-.6-.21-1.09-.64-1.47-.43-.38-.98-.57-1.65-.57-.44,0-.83.09-1.19.27-.36.18-.63.44-.82.77-.19.33-.29.71-.29,1.13h-.67c0-.53.13-1.01.38-1.43s.6-.75,1.05-.99c.45-.24.96-.36,1.54-.36s1.09.12,1.54.36c.45.24.8.57,1.05.99.25.42.38.9.38,1.43,0,.43-.15.85-.45,1.27s-.69.73-1.16.94c.5.19.92.5,1.25.94Z"/>
        <path class="mp" d="M1756.13,1123.98h1.64v.6h-1.64v2.97h-.67v-2.97h-4.61l-.1-.62,4.7-6.52h.67v6.54ZM1755.46,1123.98v-5.38l-3.88,5.38h3.88Z"/>
      </g>
    </g>
    <path class="mp" d="M1020.44,582.17h-.58v-8.02l-1.08.74-.31-.42,1.39-.97h.58v8.66Z"/>
    <path class="mp" d="M755.15,417.86c.17-.16.37-.35.58-.56.72-.68,1.3-1.25,1.73-1.7.44-.46.81-.93,1.12-1.43.31-.5.47-.96.47-1.38s-.08-.77-.24-1.09c-.16-.32-.38-.57-.67-.75-.28-.18-.61-.27-.97-.27-.4,0-.78.14-1.15.41-.36.28-.64.63-.82,1.06l-.54-.23c.22-.52.57-.94,1.03-1.27.46-.33.96-.49,1.48-.49.47,0,.89.11,1.26.34s.66.54.87.94c.21.4.32.85.32,1.36s-.16,1.01-.49,1.55-.72,1.05-1.18,1.54c-.46.48-1.06,1.07-1.79,1.76-.5.47-.89.84-1.16,1.12l-.41-.34c.2-.21.39-.39.56-.56ZM754.6,418.41h5.16v.5h-5.09l-.07-.5Z"/>
    <path class="mp" d="M801.43,564.26c.28.38.43.78.43,1.22,0,.49-.12.93-.35,1.31-.23.39-.55.69-.97.91-.41.22-.88.32-1.41.32s-1-.11-1.41-.32-.73-.52-.97-.91c-.23-.39-.35-.83-.35-1.31h.58c0,.39.09.74.28,1.05.18.31.44.55.77.72.33.17.7.26,1.1.26s.79-.08,1.12-.25.58-.39.76-.68c.18-.29.27-.62.27-1s-.09-.68-.27-.97c-.18-.28-.43-.51-.76-.67-.32-.16-.69-.24-1.1-.24h-.35v-.53h.34c.38,0,.73-.07,1.04-.22.31-.15.55-.35.72-.62.17-.26.26-.56.26-.9,0-.51-.18-.93-.55-1.26-.37-.33-.84-.49-1.42-.49-.38,0-.72.08-1.02.23-.3.16-.54.38-.7.66-.16.28-.25.61-.25.97h-.58c0-.46.11-.86.32-1.22.22-.36.52-.64.9-.85.38-.2.82-.31,1.32-.31s.94.1,1.32.31c.38.2.68.49.9.85.22.36.32.77.32,1.22,0,.37-.13.73-.38,1.09-.26.36-.59.63-1,.81.43.16.79.43,1.07.8Z"/>
    <path class="mp" d="M861.47,471.13h1.4v.52h-1.4v2.54h-.58v-2.54h-3.95l-.08-.53,4.03-5.59h.58v5.6ZM860.89,471.13v-4.61l-3.32,4.61h3.32Z"/>
  </g>
</svg>