<?xml version="1.0" encoding="UTF-8"?>
<svg xmlns="http://www.w3.org/2000/svg" viewBox="0 0 2400 1500">
  <defs>
    <style>
      .ly {
        fill-rule: evenodd;
      }

      .ly, .lz, .ma, .mb, .mc, .md, .me, .mf, .mg, .mh, .mi, .mj, .mk, .ml, .mm, .mn, .mo, .mp, .mq, .mr, .ms, .mt, .mu, .mv, .mw {
        stroke: #000;
      }

      .ly, .lz, .mb, .mc, .md, .me, .mg, .mh, .mi, .mj, .mk, .ml, .mm, .mn, .mo, .mp, .mq, .mr, .ms, .mt, .mu, .mv, .mw {
        stroke-miterlimit: 10;
      }

      .ly, .lz, .md, .mf, .mj, .ml, .mo, .mr, .mt, .mu, .mw {
        stroke-width: .5px;
      }

      .lz, .mb, .mc, .md, .me, .mg, .mh, .mi, .mj, .mk, .mm, .mn, .mo, .mp, .mq, .mr, .ms, .mt, .mu, .mv, .mw {
        fill: none;
      }

      .ma {
        stroke-width: .34px;
      }

      .mb {
        stroke-width: .75px;
      }

      .mc {
        stroke-width: .85px;
      }

      .md {
        stroke-dasharray: 1.98 .99;
      }

      .me {
        stroke-width: .15px;
      }

      .mg, .mh, .mi, .mm, .mn, .mv {
        stroke-width: .4px;
      }

      .mh {
        stroke-dasharray: 1.97 .99;
      }

      .mi {
        stroke-dasharray: 1.88 .94;
      }

      .mj {
        stroke-dasharray: 2.04 1.02;
      }

      .mk {
        stroke-width: .25px;
      }

      .mm {
        stroke-dasharray: 1.97 .99;
      }

      .mn {
        stroke-dasharray: 1.99 .99;
      }

      .mo {
        stroke-dasharray: 2 1;
      }

      .mp {
        stroke-width: .3px;
      }

      .mq {
        stroke-width: .6px;
      }

      .mr {
        stroke-dasharray: 1.98 .99;
      }

      .ms {
        stroke-width: .9px;
      }

      .mt {
        stroke-dasharray: 1.98 .99;
      }

      .mu {
        stroke-dasharray: 1.98 .99;
      }

      .mv {
        stroke-dasharray: 2.02 1.01;
      }

      .mw {
        stroke-dasharray: 2.07 1.03;
      }
    </style>
  </defs>
  <g id="at" data-name="f3">
    <g id="au" data-name="HATCH">
      <path class="me" d="M892.72,619.45v-36.28M896.32,619.45v-36.28M899.92,619.45v-36.28M903.52,619.45v-36.28M907.12,619.45v-36.28M910.72,619.45v-36.28M914.32,619.45v-36.28M917.92,619.45v-36.28M921.52,619.45v-36.28M925.12,619.45v-36.28M928.72,619.45v-36.28M932.32,619.45v-36.28M935.92,619.45v-36.28M939.52,619.45v-36.28M943.12,619.45v-36.28M946.72,619.45v-36.28M950.32,619.45v-36.28M953.92,619.45v-36.28M957.52,619.45v-36.28M961.12,619.45v-36.28M964.72,619.45v-36.28M968.32,619.45v-36.28M971.92,619.45v-36.28M975.52,619.45v-36.28M979.12,619.45v-36.28M982.72,619.45v-36.28M986.32,619.45v-36.28M989.92,619.45v-36.28M993.52,619.45v-36.28M997.12,619.45v-36.28M1000.72,619.45v-36.28M1004.32,619.45v-36.28M1007.92,619.45v-36.28M1011.52,619.45v-36.28M1015.12,619.45v-36.28M1018.72,619.45v-36.28M1022.32,619.45v-36.28M1025.92,619.45v-36.28M1029.52,619.45v-36.28M1033.12,619.45v-36.28M1036.72,619.45v-36.28M1040.32,619.45v-36.28M1043.92,619.45v-36.28M1047.52,619.45v-36.28M1051.12,619.45v-36.28M1054.72,619.45v-36.28M1058.32,619.45v-36.28M1061.92,619.45v-36.28M1065.52,619.45v-36.28M1069.12,619.45v-36.28M1072.72,619.45v-36.28M1076.32,619.45v-36.28M1079.92,619.45v-36.28M1083.52,619.45v-36.28M1087.12,619.45v-36.28M1090.72,619.45v-36.28M1094.32,619.45v-36.28M1097.92,619.45v-36.28M1101.52,619.45v-36.28M1105.12,619.45v-36.28M1108.72,619.45v-36.28M1112.32,619.45v-36.28M1115.92,619.45v-36.28M1119.52,619.45v-36.28M1123.12,619.45v-36.28M1126.72,619.45v-36.28M1130.32,619.45v-36.28M1133.92,619.45v-36.28M1137.52,619.45v-36.28M1141.12,619.45v-36.28M1144.72,619.45v-36.28M1148.32,619.45v-36.28M1151.92,619.45v-36.28M1155.52,619.45v-36.28M1159.12,619.45v-36.28M1162.72,619.45v-36.28M1166.32,619.45v-36.28M1169.92,619.45v-36.28M1173.52,619.45v-36.28M1177.12,619.45v-36.28M1180.72,619.45v-36.28M1184.93,611.27h-295.65M1184.93,596.87h-295.65"/>
    </g>
    <g id="av" data-name="LWPOLYLINE">
      <polyline class="mk" points="1029.02 704.49 1029.02 709.6 1029.59 709.6 1029.59 704.49"/>
    </g>
    <g id="aw" data-name="LWPOLYLINE">
      <polyline class="mk" points="1029.59 914.26 1029.59 864.37 1029.02 864.37 1029.02 914.26"/>
    </g>
    <g id="ax" data-name="LWPOLYLINE">
      <rect class="mk" x="1029.02" y="813.34" width=".57" height="49.89"/>
    </g>
    <g id="ay" data-name="LWPOLYLINE">
      <polyline class="mk" points="1029.59 710.16 1029.59 761.19 1029.02 761.19 1029.02 710.16"/>
    </g>
    <g id="az" data-name="LWPOLYLINE">
      <rect class="mk" x="1029.02" y="762.32" width=".57" height="49.89"/>
    </g>
    <g id="ba" data-name="LINE">
      <line class="mk" x1="1177.28" y1="937.5" x2="1134.19" y2="937.5"/>
    </g>
    <g id="bb" data-name="LINE">
      <line class="mk" x1="1133.06" y1="937.5" x2="1050.85" y2="937.5"/>
    </g>
    <g id="bc" data-name="LINE">
      <line class="mk" x1="1176.43" y1="939.07" x2="1135.04" y2="939.07"/>
    </g>
    <g id="bd" data-name="LINE">
      <line class="mk" x1="1132.21" y1="939.07" x2="1051.7" y2="939.08"/>
    </g>
    <g id="be" data-name="LINE">
      <line class="mk" x1="1361.53" y1="937.5" x2="1209.59" y2="937.5"/>
    </g>
    <g id="bf" data-name="LINE">
      <line class="mk" x1="1360.68" y1="939.07" x2="1210.44" y2="939.07"/>
    </g>
    <g id="bg" data-name="LINE">
      <line class="mk" x1="1391.85" y1="936.76" x2="1485.82" y2="854.34"/>
    </g>
    <g id="bh" data-name="LINE">
      <line class="mk" x1="1486.21" y1="856.08" x2="1393.53" y2="937.38"/>
    </g>
    <g id="bi" data-name="LINE">
      <line class="mk" x1="1018.54" y1="937.5" x2="893.53" y2="937.5"/>
    </g>
    <g id="bj" data-name="LINE">
      <line class="mk" x1="1017.69" y1="939.08" x2="894.38" y2="939.08"/>
    </g>
    <g id="bk" data-name="LINE">
      <line class="mk" x1="1486.54" y1="573.25" x2="1486.54" y2="682.95"/>
    </g>
    <g id="bl" data-name="LINE">
      <line class="mk" x1="1488.1" y1="574.1" x2="1488.1" y2="682.1"/>
    </g>
    <g id="bm" data-name="LINE">
      <line class="mk" x1="1486.54" y1="715.26" x2="1486.54" y2="824.4"/>
    </g>
    <g id="bn" data-name="LINE">
      <line class="mk" x1="1488.1" y1="716.12" x2="1488.1" y2="823.55"/>
    </g>
    <g id="bo" data-name="LWPOLYLINE">
      <polyline class="mp" points="1184.93 579.77 885.87 579.77 885.87 619.45"/>
    </g>
    <g id="bp" data-name="LWPOLYLINE">
      <polyline class="mp" points="1488.8 622.29 1502.98 622.29 1502.98 548.02 1184.93 548.02 1184.93 562.76"/>
    </g>
    <g id="bq" data-name="LWPOLYLINE">
      <polyline class="mp" points="1020.52 953.94 885.87 953.94 885.87 939.77"/>
    </g>
    <g id="br" data-name="LWPOLYLINE">
      <polyline class="mp" points="1363.51 953.94 1288.39 953.94 1288.39 939.77"/>
    </g>
    <g id="bs" data-name="LWPOLYLINE">
      <polyline class="mp" points="1207.61 953.94 1282.73 953.94 1282.73 939.77"/>
    </g>
    <g id="bt" data-name="LWPOLYLINE">
      <polyline class="mp" points="1111.23 939.77 1111.23 953.94 1048.87 953.94"/>
    </g>
    <g id="bu" data-name="LWPOLYLINE">
      <polyline class="mp" points="1179.26 953.94 1116.9 953.94 1116.9 939.77"/>
    </g>
    <g id="bv" data-name="LWPOLYLINE">
      <polyline class="mp" points="1502.98 826.38 1502.98 771.96 1488.8 771.96"/>
    </g>
    <g id="bw" data-name="LWPOLYLINE">
      <polyline class="mp" points="1502.98 854.73 1502.98 861.16 1452.21 905.68 1442.87 895.02"/>
    </g>
    <g id="bx" data-name="LWPOLYLINE">
      <polyline class="mp" points="1391.86 953.94 1397.19 953.94 1447.95 909.42 1438.61 898.76"/>
    </g>
    <g id="by" data-name="LWPOLYLINE">
      <polyline class="mp" points="1502.98 684.93 1502.98 627.96 1488.8 627.96"/>
    </g>
    <g id="bz" data-name="LWPOLYLINE">
      <polyline class="mp" points="1502.98 713.28 1502.98 766.29 1488.8 766.29"/>
    </g>
    <g id="ca" data-name="LWPOLYLINE">
      <g>
        <polyline class="mg" points="1259.48 802.71 1259.48 803.71 1260.48 803.71"/>
        <line class="mi" x1="1261.42" y1="803.71" x2="1283.52" y2="803.71"/>
        <polyline class="mg" points="1283.99 803.71 1284.99 803.71 1284.99 802.71"/>
        <path class="mh" d="M1284.99,801.72v-15.02c0-7.04-5.71-12.76-12.76-12.76s-12.76,5.71-12.76,12.76v15.51"/>
      </g>
    </g>
    <g id="cb" data-name="LWPOLYLINE">
      <g>
        <polyline class="mg" points="1259.48 878.41 1259.48 877.41 1260.48 877.41"/>
        <line class="mi" x1="1261.42" y1="877.41" x2="1283.52" y2="877.41"/>
        <polyline class="mg" points="1283.99 877.41 1284.99 877.41 1284.99 878.41"/>
        <path class="mh" d="M1284.99,879.39v15.02c0,7.04-5.71,12.76-12.76,12.76s-12.76-5.71-12.76-12.76v-15.51"/>
      </g>
    </g>
    <g id="cc" data-name="LWPOLYLINE">
      <g>
        <polyline class="mg" points="1327.51 802.71 1327.51 803.71 1328.51 803.71"/>
        <line class="mi" x1="1329.45" y1="803.71" x2="1351.56" y2="803.71"/>
        <polyline class="mg" points="1352.03 803.71 1353.03 803.71 1353.03 802.71"/>
        <path class="mh" d="M1353.03,801.72v-15.02c0-7.04-5.71-12.76-12.76-12.76s-12.76,5.71-12.76,12.76v15.51"/>
      </g>
    </g>
    <g id="cd" data-name="LWPOLYLINE">
      <g>
        <polyline class="mg" points="1327.51 878.41 1327.51 877.41 1328.51 877.41"/>
        <line class="mi" x1="1329.45" y1="877.41" x2="1351.56" y2="877.41"/>
        <polyline class="mg" points="1352.03 877.41 1353.03 877.41 1353.03 878.41"/>
        <path class="mh" d="M1353.03,879.39v15.02c0,7.04-5.71,12.76-12.76,12.76s-12.76-5.71-12.76-12.76v-15.51"/>
      </g>
    </g>
    <g id="ce" data-name="LINE">
      <g>
        <line class="mg" x1="1374.85" y1="874.57" x2="1374.85" y2="873.57"/>
        <line class="mm" x1="1374.85" y1="872.59" x2="1374.85" y2="808.03"/>
        <line class="mg" x1="1374.85" y1="807.54" x2="1374.85" y2="806.54"/>
      </g>
    </g>
    <g id="cf" data-name="LWPOLYLINE">
      <g>
        <polyline class="mg" points="1412.7 827.23 1411.7 827.23 1411.7 828.23"/>
        <line class="mi" x1="1411.7" y1="829.17" x2="1411.7" y2="851.27"/>
        <polyline class="mg" points="1411.7 851.75 1411.7 852.75 1412.7 852.75"/>
        <path class="mh" d="M1413.69,852.75h15.02c7.04,0,12.76-5.71,12.76-12.76s-5.71-12.76-12.76-12.76h-15.51"/>
      </g>
    </g>
    <g id="cg" data-name="LWPOLYLINE">
      <g>
        <polyline class="mg" points="1259.48 635.18 1259.48 636.18 1260.48 636.18"/>
        <line class="mi" x1="1261.42" y1="636.18" x2="1283.52" y2="636.18"/>
        <polyline class="mg" points="1283.99 636.18 1284.99 636.18 1284.99 635.18"/>
        <path class="mh" d="M1284.99,634.19v-15.02c0-7.04-5.71-12.76-12.76-12.76s-12.76,5.71-12.76,12.76v15.51"/>
      </g>
    </g>
    <g id="ch" data-name="LWPOLYLINE">
      <g>
        <polyline class="mg" points="1259.48 710.88 1259.48 709.88 1260.48 709.88"/>
        <line class="mi" x1="1261.42" y1="709.88" x2="1283.52" y2="709.88"/>
        <polyline class="mg" points="1283.99 709.88 1284.99 709.88 1284.99 710.88"/>
        <path class="mh" d="M1284.99,711.87v15.02c0,7.04-5.71,12.76-12.76,12.76s-12.76-5.71-12.76-12.76v-15.51"/>
      </g>
    </g>
    <g id="ci" data-name="LWPOLYLINE">
      <g>
        <polyline class="mg" points="1327.51 635.18 1327.51 636.18 1328.51 636.18"/>
        <line class="mi" x1="1329.45" y1="636.18" x2="1351.56" y2="636.18"/>
        <polyline class="mg" points="1352.03 636.18 1353.03 636.18 1353.03 635.18"/>
        <path class="mh" d="M1353.03,634.19v-15.02c0-7.04-5.71-12.76-12.76-12.76s-12.76,5.71-12.76,12.76v15.51"/>
      </g>
    </g>
    <g id="cj" data-name="LWPOLYLINE">
      <g>
        <polyline class="mg" points="1327.51 710.88 1327.51 709.88 1328.51 709.88"/>
        <line class="mi" x1="1329.45" y1="709.88" x2="1351.56" y2="709.88"/>
        <polyline class="mg" points="1352.03 709.88 1353.03 709.88 1353.03 710.88"/>
        <path class="mh" d="M1353.03,711.87v15.02c0,7.04-5.71,12.76-12.76,12.76s-12.76-5.71-12.76-12.76v-15.51"/>
      </g>
    </g>
    <g id="ck" data-name="LWPOLYLINE">
      <g>
        <polyline class="mg" points="1407.87 639.02 1408.87 639.02 1408.87 640.02"/>
        <line class="mm" x1="1408.87" y1="641" x2="1408.87" y2="705.55"/>
        <polyline class="mg" points="1408.87 706.05 1408.87 707.05 1407.87 707.05"/>
        <line class="mn" x1="1406.87" y1="707.05" x2="1240.29" y2="707.05"/>
        <polyline class="mg" points="1239.79 707.05 1238.79 707.05 1238.79 706.05"/>
        <line class="mm" x1="1238.79" y1="705.06" x2="1238.79" y2="640.51"/>
        <polyline class="mg" points="1238.79 640.02 1238.79 639.02 1239.79 639.02"/>
        <line class="mn" x1="1240.78" y1="639.02" x2="1407.37" y2="639.02"/>
      </g>
    </g>
    <g id="cl" data-name="LWPOLYLINE">
      <g>
        <polyline class="mg" points="1412.7 659.71 1411.7 659.71 1411.7 660.71"/>
        <line class="mi" x1="1411.7" y1="661.65" x2="1411.7" y2="683.75"/>
        <polyline class="mg" points="1411.7 684.22 1411.7 685.22 1412.7 685.22"/>
        <path class="mh" d="M1413.69,685.22h15.02c7.04,0,12.76-5.71,12.76-12.76s-5.71-12.76-12.76-12.76h-15.51"/>
      </g>
    </g>
    <g id="cm" data-name="LINE">
      <g>
        <line class="mg" x1="1197.98" y1="840.56" x2="1196.98" y2="840.56"/>
        <line class="mv" x1="1195.97" y1="840.56" x2="1063.42" y2="840.56"/>
        <line class="mg" x1="1062.91" y1="840.56" x2="1061.91" y2="840.56"/>
      </g>
    </g>
    <g id="cn" data-name="LINE">
      <g>
        <line class="mg" x1="1129.95" y1="874.57" x2="1129.95" y2="873.57"/>
        <line class="mm" x1="1129.95" y1="872.59" x2="1129.95" y2="808.03"/>
        <line class="mg" x1="1129.95" y1="807.54" x2="1129.95" y2="806.54"/>
      </g>
    </g>
    <g id="co" data-name="LWPOLYLINE">
      <g>
        <polyline class="mg" points="1150.64 802.71 1150.64 803.71 1151.64 803.71"/>
        <line class="mi" x1="1152.58" y1="803.71" x2="1174.68" y2="803.71"/>
        <polyline class="mg" points="1175.15 803.71 1176.15 803.71 1176.15 802.71"/>
        <path class="mh" d="M1176.15,801.72v-15.02c0-7.04-5.71-12.76-12.76-12.76s-12.76,5.71-12.76,12.76v15.51"/>
      </g>
    </g>
    <g id="cp" data-name="LWPOLYLINE">
      <g>
        <polyline class="mg" points="1150.64 878.41 1150.64 877.41 1151.64 877.41"/>
        <line class="mi" x1="1152.58" y1="877.41" x2="1174.68" y2="877.41"/>
        <polyline class="mg" points="1175.15 877.41 1176.15 877.41 1176.15 878.41"/>
        <path class="mh" d="M1176.15,879.39v15.02c0,7.04-5.71,12.76-12.76,12.76s-12.76-5.71-12.76-12.76v-15.51"/>
      </g>
    </g>
    <g id="cq" data-name="LWPOLYLINE">
      <g>
        <polyline class="mg" points="1196.98 806.54 1197.98 806.54 1197.98 807.54"/>
        <polyline class="mm" points="1197.98 808.53 1197.98 840.56 1197.98 873.08"/>
        <polyline class="mg" points="1197.98 873.57 1197.98 874.57 1196.98 874.57"/>
        <polyline class="mv" points="1195.97 874.57 1129.95 874.57 1063.42 874.57"/>
        <polyline class="mg" points="1062.91 874.57 1061.91 874.57 1061.91 873.57"/>
        <polyline class="mm" points="1061.91 872.59 1061.91 840.56 1061.91 808.03"/>
        <polyline class="mg" points="1061.91 807.54 1061.91 806.54 1062.91 806.54"/>
        <polyline class="mv" points="1063.92 806.54 1129.95 806.54 1196.47 806.54"/>
      </g>
    </g>
    <g id="cr" data-name="LWPOLYLINE">
      <g>
        <polyline class="mg" points="1082.61 802.71 1082.61 803.71 1083.61 803.71"/>
        <line class="mi" x1="1084.55" y1="803.71" x2="1106.65" y2="803.71"/>
        <polyline class="mg" points="1107.12 803.71 1108.12 803.71 1108.12 802.71"/>
        <path class="mh" d="M1108.12,801.72v-15.02c0-7.04-5.71-12.76-12.76-12.76s-12.76,5.71-12.76,12.76v15.51"/>
      </g>
    </g>
    <g id="cs" data-name="LWPOLYLINE">
      <g>
        <polyline class="mg" points="1082.61 878.41 1082.61 877.41 1083.61 877.41"/>
        <line class="mi" x1="1084.55" y1="877.41" x2="1106.65" y2="877.41"/>
        <polyline class="mg" points="1107.12 877.41 1108.12 877.41 1108.12 878.41"/>
        <path class="mh" d="M1108.12,879.39v15.02c0,7.04-5.71,12.76-12.76,12.76s-12.76-5.71-12.76-12.76v-15.51"/>
      </g>
    </g>
    <g id="ct" data-name="LINE">
      <g>
        <line class="mg" x1="1374.85" y1="840.56" x2="1373.85" y2="840.56"/>
        <line class="mv" x1="1372.84" y1="840.56" x2="1240.29" y2="840.56"/>
        <line class="mg" x1="1239.79" y1="840.56" x2="1238.79" y2="840.56"/>
      </g>
    </g>
    <g id="cu" data-name="LINE">
      <g>
        <line class="mg" x1="1306.82" y1="874.57" x2="1306.82" y2="873.57"/>
        <line class="mm" x1="1306.82" y1="872.59" x2="1306.82" y2="808.03"/>
        <line class="mg" x1="1306.82" y1="807.54" x2="1306.82" y2="806.54"/>
      </g>
    </g>
    <g id="cv" data-name="LWPOLYLINE">
      <g>
        <polyline class="mg" points="1407.87 806.54 1408.87 806.54 1408.87 807.54"/>
        <polyline class="mm" points="1408.87 808.53 1408.87 840.56 1408.87 873.08"/>
        <polyline class="mg" points="1408.87 873.57 1408.87 874.57 1407.87 874.57"/>
        <polyline class="mn" points="1406.87 874.57 1306.82 874.57 1240.29 874.57"/>
        <polyline class="mg" points="1239.79 874.57 1238.79 874.57 1238.79 873.57"/>
        <polyline class="mm" points="1238.79 872.59 1238.79 840.56 1238.79 808.03"/>
        <polyline class="mg" points="1238.79 807.54 1238.79 806.54 1239.79 806.54"/>
        <polyline class="mn" points="1240.78 806.54 1306.82 806.54 1407.37 806.54"/>
      </g>
    </g>
    <g id="cw" data-name="LINE">
      <g>
        <line class="mg" x1="1374.85" y1="673.03" x2="1373.85" y2="673.03"/>
        <line class="mv" x1="1372.84" y1="673.03" x2="1240.29" y2="673.03"/>
        <line class="mg" x1="1239.79" y1="673.03" x2="1238.79" y2="673.03"/>
      </g>
    </g>
    <g id="cx" data-name="LINE">
      <g>
        <line class="mg" x1="1306.82" y1="707.05" x2="1306.82" y2="706.05"/>
        <line class="mm" x1="1306.82" y1="705.06" x2="1306.82" y2="640.51"/>
        <line class="mg" x1="1306.82" y1="640.02" x2="1306.82" y2="639.02"/>
      </g>
    </g>
    <g id="cy" data-name="LINE">
      <g>
        <line class="mg" x1="1374.85" y1="707.05" x2="1374.85" y2="706.05"/>
        <line class="mm" x1="1374.85" y1="705.06" x2="1374.85" y2="640.51"/>
        <line class="mg" x1="1374.85" y1="640.02" x2="1374.85" y2="639.02"/>
      </g>
    </g>
    <g id="cz" data-name="LWPOLYLINE">
      <rect class="mg" x="970.35" y="688.62" width="1.98" height="170.08"/>
    </g>
    <g id="da" data-name="LWPOLYLINE">
      <rect class="mg" x="978" y="692.59" width="1.98" height="166.11"/>
    </g>
    <g id="db" data-name="LINE">
      <line class="mg" x1="975.17" y1="722.07" x2="972.33" y2="722.07"/>
    </g>
    <g id="dc" data-name="LINE">
      <line class="mg" x1="970.35" y1="722.07" x2="921.31" y2="722.07"/>
    </g>
    <g id="dd" data-name="LINE">
      <line class="mg" x1="975.17" y1="707.33" x2="972.33" y2="707.33"/>
    </g>
    <g id="de" data-name="LINE">
      <line class="mg" x1="970.35" y1="707.33" x2="921.31" y2="707.33"/>
    </g>
    <g id="df" data-name="LINE">
      <line class="mg" x1="975.17" y1="692.59" x2="972.33" y2="692.59"/>
    </g>
    <g id="dg" data-name="LINE">
      <line class="mg" x1="970.35" y1="692.59" x2="921.31" y2="692.59"/>
    </g>
    <g id="dh" data-name="LINE">
      <line class="mg" x1="975.17" y1="736.81" x2="972.33" y2="736.81"/>
    </g>
    <g id="di" data-name="LINE">
      <line class="mg" x1="970.35" y1="736.81" x2="921.31" y2="736.81"/>
    </g>
    <g id="dj" data-name="LINE">
      <line class="mg" x1="975.17" y1="751.55" x2="972.33" y2="751.55"/>
    </g>
    <g id="dk" data-name="LINE">
      <line class="mg" x1="970.35" y1="751.55" x2="921.31" y2="751.55"/>
    </g>
    <g id="dl" data-name="LINE">
      <line class="mg" x1="975.17" y1="766.29" x2="972.33" y2="766.29"/>
    </g>
    <g id="dm" data-name="LINE">
      <line class="mg" x1="970.35" y1="766.29" x2="921.31" y2="766.29"/>
    </g>
    <g id="dn" data-name="LINE">
      <line class="mg" x1="975.17" y1="781.03" x2="972.33" y2="781.03"/>
    </g>
    <g id="do" data-name="LINE">
      <line class="mg" x1="970.35" y1="781.03" x2="921.31" y2="781.03"/>
    </g>
    <g id="dp" data-name="LINE">
      <line class="mg" x1="975.17" y1="795.77" x2="972.33" y2="795.77"/>
    </g>
    <g id="dq" data-name="LINE">
      <line class="mg" x1="970.35" y1="795.77" x2="921.31" y2="795.77"/>
    </g>
    <g id="dr" data-name="LINE">
      <line class="mg" x1="975.17" y1="810.51" x2="972.33" y2="810.51"/>
    </g>
    <g id="ds" data-name="LINE">
      <line class="mg" x1="970.35" y1="810.51" x2="921.31" y2="810.51"/>
    </g>
    <g id="dt" data-name="LINE">
      <line class="mg" x1="975.17" y1="825.25" x2="972.33" y2="825.25"/>
    </g>
    <g id="du" data-name="LINE">
      <line class="mg" x1="970.35" y1="825.25" x2="921.31" y2="825.25"/>
    </g>
    <g id="dv" data-name="LINE">
      <line class="mg" x1="975.17" y1="839.99" x2="972.33" y2="839.99"/>
    </g>
    <g id="dw" data-name="LINE">
      <line class="mg" x1="970.35" y1="839.99" x2="921.31" y2="839.99"/>
    </g>
    <g id="dx" data-name="LINE">
      <line class="mg" x1="975.17" y1="854.73" x2="972.33" y2="854.73"/>
    </g>
    <g id="dy" data-name="LINE">
      <line class="mg" x1="970.35" y1="854.73" x2="921.31" y2="854.73"/>
    </g>
    <g id="dz" data-name="LINE">
      <line class="mg" x1="975.17" y1="692.59" x2="975.17" y2="854.73"/>
    </g>
    <g id="ea" data-name="LINE">
      <line class="mg" x1="975.17" y1="854.73" x2="972.33" y2="857.86"/>
    </g>
    <g id="eb" data-name="LINE">
      <line class="mg" x1="971.58" y1="858.7" x2="921.31" y2="914.26"/>
    </g>
    <g id="ec" data-name="LINE">
      <line class="mg" x1="975.17" y1="854.73" x2="975.17" y2="914.26"/>
    </g>
    <g id="ed" data-name="LINE">
      <line class="mg" x1="975.17" y1="854.73" x2="978" y2="854.73"/>
    </g>
    <g id="ee" data-name="LINE">
      <line class="mg" x1="975.17" y1="839.99" x2="978" y2="839.99"/>
    </g>
    <g id="ef" data-name="LINE">
      <line class="mg" x1="975.17" y1="825.25" x2="978" y2="825.25"/>
    </g>
    <g id="eg" data-name="LINE">
      <line class="mg" x1="975.17" y1="692.59" x2="975.17" y2="633.63"/>
    </g>
    <g id="eh" data-name="LINE">
      <line class="mg" x1="975.17" y1="692.59" x2="972.33" y2="689.48"/>
    </g>
    <g id="ei" data-name="LINE">
      <line class="mg" x1="971.54" y1="688.62" x2="921.31" y2="633.63"/>
    </g>
    <g id="ej" data-name="LWPOLYLINE">
      <rect class="mg" x="1027.89" y="710.16" width="2.83" height="8.5"/>
    </g>
    <g id="ek" data-name="LWPOLYLINE">
      <rect class="mg" x="1029.02" y="676.15" width="5.67" height="2.83"/>
    </g>
    <g id="el" data-name="LWPOLYLINE">
      <rect class="mg" x="1029.02" y="633.63" width="5.67" height="2.83"/>
    </g>
    <g id="em" data-name="LWPOLYLINE">
      <rect class="mg" x="1029.02" y="636.46" width="1.7" height="39.69"/>
    </g>
    <g id="en" data-name="LWPOLYLINE">
      <rect class="mg" x="1125.4" y="619.45" width="2.83" height="8.5"/>
    </g>
    <g id="eo" data-name="LWPOLYLINE">
      <rect class="mg" x="1162.25" y="619.45" width="2.83" height="8.5"/>
    </g>
    <g id="ep" data-name="LWPOLYLINE">
      <rect class="mg" x="1128.24" y="619.45" width="34.02" height="1.7"/>
    </g>
    <g id="eq" data-name="LWPOLYLINE">
      <rect class="mg" x="989.34" y="619.45" width="2.83" height="14.17"/>
    </g>
    <g id="er" data-name="LWPOLYLINE">
      <rect class="mg" x="1026.19" y="619.45" width="2.83" height="14.17"/>
    </g>
    <g id="es" data-name="LWPOLYLINE">
      <rect class="mg" x="992.17" y="619.45" width="34.02" height="1.7"/>
    </g>
    <g id="et" data-name="LWPOLYLINE">
      <rect class="mg" x="891.54" y="931.26" width="2.83" height="5.67"/>
    </g>
    <g id="eu" data-name="LWPOLYLINE">
      <polyline class="mg" points="892.39 936.93 892.39 938.07 893.53 938.07 893.53 936.93"/>
    </g>
    <g id="ev" data-name="LINE">
      <line class="mg" x1="892.96" y1="938.07" x2="892.96" y2="939.77"/>
    </g>
    <g id="ew" data-name="LWPOLYLINE">
      <polyline class="mg" points="891.54 939.07 891.54 939.77 894.38 939.77 894.38 939.08"/>
    </g>
    <g id="ex" data-name="LWPOLYLINE">
      <rect class="mg" x="1480.3" y="571.26" width="5.67" height="2.83"/>
    </g>
    <g id="ey" data-name="LWPOLYLINE">
      <polyline class="mg" points="1485.97 573.25 1487.1 573.25 1487.1 572.12 1485.97 572.12"/>
    </g>
    <g id="ez" data-name="LINE">
      <line class="mg" x1="1487.1" y1="572.68" x2="1488.8" y2="572.68"/>
    </g>
    <g id="fa" data-name="LWPOLYLINE">
      <polyline class="mg" points="1488.1 574.1 1488.8 574.1 1488.8 571.26 1488.11 571.26"/>
    </g>
    <g id="fb" data-name="LWPOLYLINE">
      <rect class="mg" x="1048.87" y="931.26" width="2.83" height="5.67"/>
    </g>
    <g id="fc" data-name="LWPOLYLINE">
      <polyline class="mg" points="1049.72 936.93 1049.72 938.07 1050.85 938.07 1050.85 936.93"/>
    </g>
    <g id="fd" data-name="LINE">
      <line class="mg" x1="1050.28" y1="938.07" x2="1050.28" y2="939.77"/>
    </g>
    <g id="fe" data-name="LWPOLYLINE">
      <polyline class="mg" points="1048.87 939.07 1048.87 939.77 1051.7 939.77 1051.7 939.08"/>
    </g>
    <g id="ff" data-name="LWPOLYLINE">
      <rect class="mg" x="1176.43" y="931.26" width="2.83" height="5.67"/>
    </g>
    <g id="fg" data-name="LWPOLYLINE">
      <polyline class="mg" points="1177.28 936.93 1177.28 938.07 1178.41 938.07 1178.41 936.93"/>
    </g>
    <g id="fh" data-name="LINE">
      <line class="mg" x1="1177.84" y1="938.07" x2="1177.84" y2="939.77"/>
    </g>
    <g id="fi" data-name="LWPOLYLINE">
      <polyline class="mg" points="1176.43 939.07 1176.43 939.77 1179.26 939.77 1179.26 939.08"/>
    </g>
    <g id="fj" data-name="LWPOLYLINE">
      <rect class="mg" x="1360.68" y="931.26" width="2.83" height="5.67"/>
    </g>
    <g id="fk" data-name="LWPOLYLINE">
      <polyline class="mg" points="1361.53 936.93 1361.53 938.07 1362.66 938.07 1362.66 936.93"/>
    </g>
    <g id="fl" data-name="LINE">
      <line class="mg" x1="1362.1" y1="938.07" x2="1362.1" y2="939.77"/>
    </g>
    <g id="fm" data-name="LWPOLYLINE">
      <polyline class="mg" points="1360.68 939.07 1360.68 939.77 1363.51 939.77 1363.51 939.08"/>
    </g>
    <g id="fn" data-name="LWPOLYLINE">
      <rect class="mg" x="1387.76" y="931.74" width="2.83" height="5.67" transform="translate(-271.02 1151.34) rotate(-41.37)"/>
    </g>
    <g id="fo" data-name="LWPOLYLINE">
      <polyline class="mg" points="1390.63 937.08 1391.38 937.93 1392.23 937.18 1391.48 936.33"/>
    </g>
    <g id="fp" data-name="LINE">
      <line class="mg" x1="1391.8" y1="937.56" x2="1392.92" y2="938.83"/>
    </g>
    <g id="fq" data-name="LWPOLYLINE">
      <polyline class="mg" points="1391.4 939.24 1391.86 939.77 1393.99 937.9 1393.53 937.38"/>
    </g>
    <g id="fr" data-name="LWPOLYLINE">
      <rect class="mg" x="1207.61" y="931.26" width="2.83" height="5.67"/>
    </g>
    <g id="fs" data-name="LWPOLYLINE">
      <polyline class="mg" points="1208.46 936.93 1208.46 938.07 1209.59 938.07 1209.59 936.93"/>
    </g>
    <g id="ft" data-name="LINE">
      <line class="mg" x1="1209.02" y1="938.07" x2="1209.02" y2="939.77"/>
    </g>
    <g id="fu" data-name="LWPOLYLINE">
      <polyline class="mg" points="1207.61 939.07 1207.61 939.77 1210.44 939.77 1210.44 939.08"/>
    </g>
    <g id="fv" data-name="LWPOLYLINE">
      <rect class="mg" x="1482.58" y="848.58" width="2.83" height="5.67" transform="translate(-192.4 1193.26) rotate(-41.37)"/>
    </g>
    <g id="fw" data-name="LWPOLYLINE">
      <polyline class="mg" points="1485.44 853.91 1486.19 854.76 1487.04 854.02 1486.29 853.16"/>
    </g>
    <g id="fx" data-name="LINE">
      <line class="mg" x1="1486.62" y1="854.39" x2="1487.74" y2="855.67"/>
    </g>
    <g id="fy" data-name="LWPOLYLINE">
      <polyline class="mg" points="1486.21 856.08 1486.68 856.6 1488.8 854.73 1488.35 854.21"/>
    </g>
    <g id="fz" data-name="LWPOLYLINE">
      <rect class="mg" x="1132.21" y="931.26" width="2.83" height="5.67"/>
    </g>
    <g id="ga" data-name="LWPOLYLINE">
      <polyline class="mg" points="1133.06 936.93 1133.06 938.07 1134.19 938.07 1134.19 936.93"/>
    </g>
    <g id="gb" data-name="LINE">
      <line class="mg" x1="1133.62" y1="938.07" x2="1133.62" y2="939.77"/>
    </g>
    <g id="gc" data-name="LWPOLYLINE">
      <polyline class="mg" points="1132.21 939.07 1132.21 939.77 1135.04 939.77 1135.04 939.08"/>
    </g>
    <g id="gd" data-name="LWPOLYLINE">
      <rect class="mg" x="1017.69" y="931.26" width="2.83" height="5.67"/>
    </g>
    <g id="ge" data-name="LWPOLYLINE">
      <polyline class="mg" points="1018.54 936.93 1018.54 938.07 1019.67 938.07 1019.67 936.93"/>
    </g>
    <g id="gf" data-name="LINE">
      <line class="mg" x1="1019.1" y1="938.07" x2="1019.1" y2="939.77"/>
    </g>
    <g id="gg" data-name="LWPOLYLINE">
      <polyline class="mg" points="1017.69 939.07 1017.69 939.77 1020.52 939.77 1020.52 939.08"/>
    </g>
    <g id="gh" data-name="LWPOLYLINE">
      <rect class="mg" x="1480.3" y="823.55" width="5.67" height="2.83"/>
    </g>
    <g id="gi" data-name="LWPOLYLINE">
      <polyline class="mg" points="1485.97 825.53 1487.1 825.53 1487.1 824.4 1485.97 824.4"/>
    </g>
    <g id="gj" data-name="LINE">
      <line class="mg" x1="1487.1" y1="824.97" x2="1488.8" y2="824.97"/>
    </g>
    <g id="gk" data-name="LWPOLYLINE">
      <polyline class="mg" points="1488.1 826.38 1488.8 826.38 1488.8 823.55 1488.11 823.55"/>
    </g>
    <g id="gl" data-name="LWPOLYLINE">
      <rect class="mg" x="1480.3" y="682.1" width="5.67" height="2.83"/>
    </g>
    <g id="gm" data-name="LWPOLYLINE">
      <polyline class="mg" points="1485.97 684.08 1487.1 684.08 1487.1 682.95 1485.97 682.95"/>
    </g>
    <g id="gn" data-name="LINE">
      <line class="mg" x1="1487.1" y1="683.52" x2="1488.8" y2="683.52"/>
    </g>
    <g id="go" data-name="LWPOLYLINE">
      <polyline class="mg" points="1488.1 684.93 1488.8 684.93 1488.8 682.1 1488.11 682.1"/>
    </g>
    <g id="gp" data-name="LWPOLYLINE">
      <rect class="mg" x="1480.3" y="713.28" width="5.67" height="2.83"/>
    </g>
    <g id="gq" data-name="LWPOLYLINE">
      <polyline class="mg" points="1485.97 715.26 1487.1 715.26 1487.1 714.13 1485.97 714.13"/>
    </g>
    <g id="gr" data-name="LINE">
      <line class="mg" x1="1487.1" y1="714.7" x2="1488.8" y2="714.7"/>
    </g>
    <g id="gs" data-name="LWPOLYLINE">
      <polyline class="mg" points="1488.1 716.12 1488.8 716.12 1488.8 713.28 1488.11 713.28"/>
    </g>
    <g id="gt" data-name="LINE">
      <line class="mg" x1="1051.7" y1="931.26" x2="1132.21" y2="931.26"/>
    </g>
    <g id="gu" data-name="LINE">
      <line class="mg" x1="1135.04" y1="931.26" x2="1176.43" y2="931.26"/>
    </g>
    <g id="gv" data-name="LINE">
      <line class="mg" x1="1051.7" y1="939.77" x2="1132.21" y2="939.77"/>
    </g>
    <g id="gw" data-name="LINE">
      <line class="mg" x1="1135.04" y1="939.77" x2="1176.43" y2="939.77"/>
    </g>
    <g id="gx" data-name="LINE">
      <line class="mg" x1="1210.44" y1="931.26" x2="1360.68" y2="931.26"/>
    </g>
    <g id="gy" data-name="LINE">
      <line class="mg" x1="1210.44" y1="939.77" x2="1360.68" y2="939.77"/>
    </g>
    <g id="gz" data-name="LINE">
      <line class="mg" x1="1388.37" y1="931.51" x2="1481.06" y2="850.22"/>
    </g>
    <g id="ha" data-name="LINE">
      <line class="mg" x1="1486.68" y1="856.6" x2="1393.99" y2="937.9"/>
    </g>
    <g id="hb" data-name="LINE">
      <line class="mg" x1="902.88" y1="931.26" x2="1017.69" y2="931.26"/>
    </g>
    <g id="hc" data-name="LINE">
      <line class="mg" x1="894.38" y1="939.77" x2="1017.69" y2="939.77"/>
    </g>
    <g id="hd" data-name="LINE">
      <line class="mg" x1="1480.3" y1="682.1" x2="1480.3" y2="574.1"/>
    </g>
    <g id="he" data-name="LINE">
      <line class="mg" x1="1488.8" y1="682.1" x2="1488.8" y2="574.1"/>
    </g>
    <g id="hf" data-name="LINE">
      <line class="mg" x1="1480.3" y1="823.55" x2="1480.3" y2="716.12"/>
    </g>
    <g id="hg" data-name="LINE">
      <line class="mg" x1="1488.8" y1="823.55" x2="1488.8" y2="716.12"/>
    </g>
    <g id="hh" data-name="LWPOLYLINE">
      <g>
        <line class="lz" x1="1029.59" y1="710.16" x2="1030.59" y2="710.16"/>
        <line class="mo" x1="1031.59" y1="710.16" x2="1079.11" y2="710.16"/>
        <polyline class="lz" points="1079.61 710.16 1080.61 710.16 1080.61 710.73 1079.61 710.73"/>
        <line class="mo" x1="1078.61" y1="710.73" x2="1031.09" y2="710.73"/>
        <line class="lz" x1="1030.59" y1="710.73" x2="1029.59" y2="710.73"/>
      </g>
    </g>
    <g id="hi" data-name="ARC">
      <g>
        <path class="lz" d="M1029.59,761.19c.33,0,.67,0,1,0"/>
        <path class="md" d="M1031.58,761.15c26.76-1.03,48.24-22.66,49.01-49.49"/>
        <path class="lz" d="M1080.61,711.16c0-.33,0-.67,0-1"/>
      </g>
    </g>
    <g id="hj" data-name="LWPOLYLINE">
      <g>
        <polyline class="lz" points="1028.02 636.46 1029.02 636.46 1029.02 638.16 1028.02 638.16"/>
        <line class="mj" x1="1027.01" y1="638.16" x2="990.85" y2="638.16"/>
        <polyline class="lz" points="990.34 638.16 989.34 638.16 989.34 636.46 990.34 636.46"/>
        <line class="mj" x1="991.36" y1="636.46" x2="1027.52" y2="636.46"/>
      </g>
    </g>
    <g id="hk" data-name="ARC">
      <g>
        <path class="lz" d="M989.34,636.46c0,.33,0,.67.01,1"/>
        <path class="mr" d="M989.39,638.45c1.01,20.5,17.58,36.91,38.14,37.67"/>
        <path class="lz" d="M1028.02,676.13c.33,0,.67.01,1,.01"/>
      </g>
    </g>
    <g id="hl" data-name="LWPOLYLINE">
      <g>
        <polyline class="lz" points="1161.39 618.95 1162.25 619.45 1161.4 620.93 1160.54 620.43"/>
        <line class="mw" x1="1159.64" y1="619.91" x2="1133.26" y2="604.68"/>
        <polyline class="lz" points="1132.81 604.42 1131.94 603.92 1132.79 602.45 1133.66 602.95"/>
        <line class="mw" x1="1134.55" y1="603.46" x2="1160.94" y2="618.7"/>
      </g>
    </g>
    <g id="hm" data-name="ARC">
      <g>
        <path class="lz" d="M1132.79,602.45c-.17.29-.33.58-.49.88"/>
        <path class="mt" d="M1131.85,604.2c-2.15,4.28-3.37,8.98-3.58,13.77"/>
        <path class="lz" d="M1128.25,618.45c0,.33-.01.67-.01,1"/>
      </g>
    </g>
    <g id="hn" data-name="LWPOLYLINE">
      <g>
        <polyline class="lz" points="992.17 618.45 992.17 619.45 993.87 619.45 993.87 618.45"/>
        <line class="mw" x1="993.87" y1="617.42" x2="993.87" y2="586.95"/>
        <polyline class="lz" points="993.87 586.44 993.87 585.44 992.17 585.44 992.17 586.44"/>
        <line class="mw" x1="992.17" y1="587.47" x2="992.17" y2="617.94"/>
      </g>
    </g>
    <g id="ho" data-name="ARC">
      <g>
        <path class="lz" d="M1026.19,619.45c0-.33,0-.67-.01-1"/>
        <path class="mu" d="M1026.13,617.47c-1-17.37-15.03-31.24-32.46-32"/>
        <path class="lz" d="M993.17,585.45c-.33,0-.67-.01-1-.01"/>
      </g>
    </g>
    <g id="hp" data-name="LWPOLYLINE">
      <polyline class="lz" points="981.92 818.94 951.67 811.37 948.77 815.66 947.7 805.36 944.8 809.65 914.55 802.08"/>
    </g>
    <g id="hq" data-name="CIRCLE">
      <circle class="lz" cx="975.17" cy="663.11" r="1.42"/>
    </g>
    <g id="hr" data-name="LWPOLYLINE">
      <polyline class="lz" points="948.24 800.3 948.24 663.11 975.17 663.11"/>
    </g>
    <g id="hs" data-name="LWPOLYLINE">
      <polyline class="lz" points="948.24 820.71 948.24 884.49 950.03 886.48 975.17 886.48"/>
    </g>
    <g id="ht" data-name="LWPOLYLINE">
      <polyline class="lz" points="951.44 797.1 948.24 800.3 945.03 797.1"/>
    </g>
    <g id="hu" data-name="LWPOLYLINE">
      <polyline class="lz" points="951.44 823.92 948.24 820.71 945.03 823.92"/>
    </g>
    <g id="hv" data-name="CIRCLE">
      <circle class="lz" cx="975.17" cy="886.48" r="1.42"/>
    </g>
    <g id="hw" data-name="LWPOLYLINE">
      <path class="lz" d="M1104.16,683.57h-9.13v2.72h9.13c.75,0,1.36-.61,1.36-1.36s-.61-1.36-1.36-1.36Z"/>
    </g>
    <g id="hx" data-name="LWPOLYLINE">
      <polyline class="lz" points="1100.7 686.29 1100.7 701.66 1133.58 701.66 1133.58 678.98 1100.7 678.98 1100.7 683.57"/>
    </g>
    <g id="hy" data-name="LINE">
      <line class="lz" x1="1034.64" y1="676.15" x2="1085.66" y2="676.15"/>
    </g>
    <g id="hz" data-name="LWPOLYLINE">
      <rect class="lz" x="1045.83" y="686.38" width="8.5" height="2.27"/>
    </g>
    <g id="ia" data-name="LWPOLYLINE">
      <path class="lz" d="M1089.4,638.23h28.63v24.38h-28.63c-6.73,0-12.19-5.46-12.19-12.19s5.46-12.19,12.19-12.19Z"/>
    </g>
    <g id="ib" data-name="LWPOLYLINE">
      <polyline class="lz" points="1048.67 686.38 1048.67 677.88 1077.01 677.88 1077.01 697.15 1048.67 697.15 1048.67 688.65"/>
    </g>
    <g id="ic" data-name="LINE">
      <line class="lz" x1="1199.1" y1="633.63" x2="1199.1" y2="667.64"/>
    </g>
    <g id="id" data-name="LWPOLYLINE">
      <polyline class="lz" points="1184.93 581.47 887.58 581.47 887.58 619.45"/>
    </g>
    <g id="ie" data-name="LWPOLYLINE">
      <polyline class="lz" points="1184.93 583.17 889.28 583.17 889.28 619.45"/>
    </g>
    <g id="if" data-name="LINE">
      <line class="lz" x1="1029.02" y1="914.26" x2="921.31" y2="914.26"/>
    </g>
    <g id="ig" data-name="LINE">
      <line class="lz" x1="921.31" y1="914.26" x2="921.31" y2="633.63"/>
    </g>
    <g id="ih" data-name="LINE">
      <line class="lz" x1="909.97" y1="633.63" x2="909.97" y2="914.26"/>
    </g>
    <g id="ii" data-name="LINE">
      <line class="lz" x1="1091.39" y1="704.49" x2="1186.35" y2="704.49"/>
    </g>
    <g id="ij" data-name="LINE">
      <line class="lz" x1="1463.29" y1="590.43" x2="1199.1" y2="590.43"/>
    </g>
    <g id="ik" data-name="LINE">
      <line class="lz" x1="1463.97" y1="591.11" x2="1463.97" y2="693.15"/>
    </g>
    <g id="il" data-name="LINE">
      <line class="lz" x1="1029.02" y1="925.6" x2="921.31" y2="925.6"/>
    </g>
    <g id="im" data-name="LINE">
      <line class="lz" x1="1473.95" y1="591.11" x2="1473.95" y2="693.15"/>
    </g>
    <g id="in" data-name="LINE">
      <line class="lz" x1="1463.29" y1="580.45" x2="1199.1" y2="580.45"/>
    </g>
    <g id="io" data-name="LINE">
      <line class="lz" x1="1477.47" y1="684.93" x2="1477.47" y2="576.93"/>
    </g>
    <g id="ip" data-name="LINE">
      <line class="lz" x1="1463.97" y1="642.13" x2="1473.95" y2="642.13"/>
    </g>
    <g id="iq" data-name="LINE">
      <line class="lz" x1="1331.2" y1="590.43" x2="1331.2" y2="580.45"/>
    </g>
    <g id="ir" data-name="LINE">
      <line class="lz" x1="975.17" y1="925.6" x2="975.17" y2="914.26"/>
    </g>
    <g id="is" data-name="LINE">
      <line class="lz" x1="909.97" y1="773.94" x2="921.31" y2="773.94"/>
    </g>
    <g id="it" data-name="LINE">
      <line class="lz" x1="1179.26" y1="928.43" x2="1048.87" y2="928.43"/>
    </g>
    <g id="iu" data-name="LINE">
      <line class="lz" x1="1207.61" y1="928.43" x2="1363.51" y2="928.43"/>
    </g>
    <g id="iv" data-name="LINE">
      <line class="lz" x1="1477.47" y1="826.38" x2="1477.47" y2="713.28"/>
    </g>
    <g id="iw" data-name="LINE">
      <line class="lz" x1="1387.58" y1="928.43" x2="1477.47" y2="849.6"/>
    </g>
    <g id="ix" data-name="LWPOLYLINE">
      <rect class="mq" x="1029.02" y="622.29" width="11.34" height="11.34"/>
    </g>
    <g id="iy" data-name="LWPOLYLINE">
      <rect class="mq" x="1029.7" y="622.97" width="9.98" height="9.98"/>
    </g>
    <g id="iz" data-name="LWPOLYLINE">
      <rect class="mq" x="1187.76" y="914.26" width="11.34" height="11.34"/>
    </g>
    <g id="ja" data-name="LWPOLYLINE">
      <rect class="mq" x="1188.44" y="914.94" width="9.98" height="9.98"/>
    </g>
    <g id="jb" data-name="LWPOLYLINE">
      <rect class="mq" x="1372.02" y="914.26" width="11.34" height="11.34"/>
    </g>
    <g id="jc" data-name="LWPOLYLINE">
      <rect class="mq" x="1372.7" y="914.94" width="9.98" height="9.98"/>
    </g>
    <g id="jd" data-name="LWPOLYLINE">
      <rect class="mq" x="1463.29" y="834.89" width="11.34" height="11.34"/>
    </g>
    <g id="je" data-name="LWPOLYLINE">
      <rect class="mq" x="1463.97" y="835.57" width="9.98" height="9.98"/>
    </g>
    <g id="jf" data-name="LWPOLYLINE">
      <rect class="mq" x="1463.29" y="693.15" width="11.34" height="11.34"/>
    </g>
    <g id="jg" data-name="LWPOLYLINE">
      <rect class="mq" x="1463.97" y="693.83" width="9.98" height="9.98"/>
    </g>
    <g id="jh" data-name="LWPOLYLINE">
      <rect class="mq" x="1463.29" y="579.77" width="11.34" height="11.34"/>
    </g>
    <g id="ji" data-name="LWPOLYLINE">
      <rect class="mq" x="1463.97" y="580.45" width="9.98" height="9.98"/>
    </g>
    <g id="jj" data-name="LWPOLYLINE">
      <rect class="mq" x="1187.76" y="579.77" width="11.34" height="11.34"/>
    </g>
    <g id="jk" data-name="LWPOLYLINE">
      <rect class="mq" x="1188.44" y="580.45" width="9.98" height="9.98"/>
    </g>
    <g id="jl" data-name="LWPOLYLINE">
      <rect class="mq" x="1186.35" y="691.74" width="14.17" height="14.17"/>
    </g>
    <g id="jm" data-name="LWPOLYLINE">
      <rect class="mq" x="1187.03" y="692.42" width="12.81" height="12.81"/>
    </g>
    <g id="jn" data-name="LWPOLYLINE">
      <rect class="mq" x="1029.02" y="693.15" width="11.34" height="11.34"/>
    </g>
    <g id="jo" data-name="LWPOLYLINE">
      <rect class="mq" x="1029.7" y="693.83" width="9.98" height="9.98"/>
    </g>
    <g id="jp" data-name="LWPOLYLINE">
      <rect class="mq" x="909.97" y="622.29" width="11.34" height="11.34"/>
    </g>
    <g id="jq" data-name="LWPOLYLINE">
      <rect class="mq" x="910.65" y="622.97" width="9.98" height="9.98"/>
    </g>
    <g id="jr" data-name="LWPOLYLINE">
      <rect class="mq" x="909.97" y="914.26" width="11.34" height="11.34"/>
    </g>
    <g id="js" data-name="LWPOLYLINE">
      <rect class="mq" x="910.65" y="914.94" width="9.98" height="9.98"/>
    </g>
    <g id="jt" data-name="LWPOLYLINE">
      <rect class="mq" x="1029.02" y="914.26" width="11.34" height="11.34"/>
    </g>
    <g id="ju" data-name="LWPOLYLINE">
      <rect class="mq" x="1029.7" y="914.94" width="9.98" height="9.98"/>
    </g>
    <g id="jv" data-name="LWPOLYLINE">
      <rect class="mq" x="1179.26" y="939.77" width="28.35" height="14.17"/>
    </g>
    <g id="jw" data-name="LWPOLYLINE">
      <rect class="mq" x="1363.51" y="939.77" width="28.35" height="14.17"/>
    </g>
    <g id="jx" data-name="LWPOLYLINE">
      <rect class="mq" x="1020.52" y="939.77" width="28.35" height="14.17"/>
    </g>
    <g id="jy" data-name="LWPOLYLINE">
      <rect class="mq" x="1488.8" y="826.38" width="14.17" height="28.35"/>
    </g>
    <g id="jz" data-name="LWPOLYLINE">
      <rect class="mq" x="1488.8" y="684.93" width="14.17" height="28.35"/>
    </g>
    <g id="ka" data-name="LINE">
      <line class="mb" x1="921.31" y1="622.29" x2="989.34" y2="622.29"/>
    </g>
    <g id="kb" data-name="LINE">
      <line class="mb" x1="989.34" y1="627.96" x2="921.31" y2="627.96"/>
    </g>
    <g id="kc" data-name="LINE">
      <line class="mb" x1="909.97" y1="622.29" x2="902.88" y2="622.29"/>
    </g>
    <g id="kd" data-name="LINE">
      <line class="mb" x1="909.97" y1="627.96" x2="902.88" y2="627.96"/>
    </g>
    <g id="ke" data-name="LWPOLYLINE">
      <polyline class="mb" points="1187.76 591.11 1187.76 622.29 1165.09 622.29"/>
    </g>
    <g id="kf" data-name="LWPOLYLINE">
      <polyline class="mb" points="1193.43 591.11 1193.43 627.96 1165.09 627.96"/>
    </g>
    <g id="kg" data-name="LINE">
      <line class="mb" x1="1040.36" y1="622.29" x2="1125.4" y2="622.29"/>
    </g>
    <g id="kh" data-name="LINE">
      <line class="mb" x1="1040.36" y1="627.96" x2="1125.4" y2="627.96"/>
    </g>
    <g id="ki" data-name="LWPOLYLINE">
      <polyline class="mb" points="1187.76 579.77 1187.76 565.6 1488.8 565.6"/>
    </g>
    <g id="kj" data-name="LWPOLYLINE">
      <polyline class="mb" points="1193.43 579.77 1193.43 571.26 1480.3 571.26"/>
    </g>
    <g id="kk" data-name="LWPOLYLINE">
      <rect class="mc" x="891.54" y="622.29" width="11.34" height="308.98"/>
    </g>
    <g id="kl" data-name="LWPOLYLINE">
      <rect class="mc" x="1480.87" y="686.63" width="7.94" height="24.94"/>
    </g>
    <g id="km" data-name="LWPOLYLINE">
      <rect class="mc" x="1180.96" y="931.83" width="24.94" height="7.94"/>
    </g>
    <g id="kn" data-name="LWPOLYLINE">
      <rect class="mc" x="1022.22" y="931.83" width="24.94" height="7.94"/>
    </g>
    <g id="ko" data-name="LWPOLYLINE">
      <rect class="mc" x="1365.22" y="931.83" width="21.03" height="7.94"/>
    </g>
    <g id="kp" data-name="LWPOLYLINE">
      <rect class="mc" x="1480.87" y="828.08" width="7.94" height="20.26"/>
    </g>
    <g id="kq" data-name="LINE">
      <line class="ms" x1="1029.02" y1="678.98" x2="1029.02" y2="693.15"/>
    </g>
    <g id="kr" data-name="LINE">
      <line class="ms" x1="1034.69" y1="678.98" x2="1034.69" y2="693.15"/>
    </g>
    <g id="ks" data-name="LWPOLYLINE">
      <polyline class="ms" points="1040.36 704.49 1091.39 704.49 1091.39 673.31 1186.35 673.31 1186.35 691.74"/>
    </g>
    <g id="kt" data-name="LWPOLYLINE">
      <polyline class="ms" points="1125.4 627.96 1125.4 667.64 1165.09 667.64 1165.09 627.96"/>
    </g>
    <g id="ku" data-name="LWPOLYLINE">
      <polyline class="ms" points="1199.1 591.11 1199.1 633.63 1170.76 633.63 1170.76 667.64 1199.1 667.64 1199.1 691.74"/>
    </g>
    <g id="kv" data-name="LINE">
      <line class="ms" x1="1029.02" y1="619.45" x2="1125.4" y2="619.45"/>
    </g>
    <g id="kw" data-name="LWPOLYLINE">
      <polyline class="ms" points="1040.36 633.63 1119.73 633.63 1119.73 667.64 1085.72 667.64 1085.72 698.82 1040.36 698.82"/>
    </g>
    <g id="kx" data-name="LINE">
      <line class="ms" x1="989.34" y1="633.63" x2="921.31" y2="633.63"/>
    </g>
    <g id="ky" data-name="LINE">
      <line class="ms" x1="909.97" y1="633.63" x2="902.88" y2="633.63"/>
    </g>
    <g id="kz" data-name="LWPOLYLINE">
      <polyline class="ms" points="1199.1 579.77 1199.1 576.93 1480.3 576.93 1480.3 571.26 1488.8 571.26 1488.8 562.76 1184.93 562.76 1184.93 619.45 1165.09 619.45"/>
    </g>
    <g id="la" data-name="LWPOLYLINE">
      <polyline class="ms" points="989.34 619.45 885.87 619.45 885.87 939.77 891.54 939.77 891.54 931.26"/>
    </g>
    <g id="lb" data-name="LWPOLYLINE">
      <polyline class="ms" points="1207.61 939.77 1207.61 928.43 1179.26 928.43 1179.26 939.77"/>
    </g>
    <g id="lc" data-name="LWPOLYLINE">
      <polyline class="ms" points="1488.8 713.28 1477.47 713.28 1477.47 684.93 1488.8 684.93"/>
    </g>
    <g id="ld" data-name="LWPOLYLINE">
      <polyline class="ms" points="1048.87 939.77 1048.87 928.43 1020.52 928.43 1020.52 939.77"/>
    </g>
    <g id="le" data-name="LWPOLYLINE">
      <polyline class="ms" points="1488.8 826.38 1477.47 826.38 1477.47 849.6 1481.76 849.6"/>
    </g>
    <g id="lf" data-name="LWPOLYLINE">
      <polyline class="ms" points="1387.58 932.2 1387.58 928.43 1363.51 928.43 1363.51 939.77"/>
    </g>
  </g>
  <g id="ll" data-name="SCALE">
    <g>
      <g id="lm" data-name="CIRCLE">
        <circle class="lz" cx="414.88" cy="1280.43" r="14.88"/>
      </g>
      <g id="ln" data-name="TEXT">
        <path class="mf" d="M424.5,1264.9l-.86-.35-1.27-8.05-2.62,6.47-.84-.34,3.28-8.1.87.35,1.26,8.02,2.61-6.45.84.34-3.28,8.1Z"/>
      </g>
      <g id="lo" data-name="HATCH">
        <path class="ly" d="M420.46,1266.63c-.23-.09-.46-.18-.7-.26l-5.57,13.78.69.28,5.58-13.8Z"/>
      </g>
      <g id="lp" data-name="HATCH">
        <path class="ly" d="M421.15,1266.93c-.23-.1-.45-.2-.69-.3l-5.58,13.8.69.28,5.57-13.78Z"/>
      </g>
      <g id="lq" data-name="LINE">
        <line class="ml" x1="419.76" y1="1266.37" x2="414.19" y2="1280.14"/>
      </g>
      <g id="lr" data-name="LINE">
        <line class="ml" x1="421.15" y1="1266.93" x2="415.57" y2="1280.71"/>
      </g>
      <g id="ls" data-name="LINE">
        <line class="ml" x1="414.88" y1="1280.43" x2="420.46" y2="1266.63"/>
      </g>
      <g id="lt" data-name="MTEXT">
        <path class="mf" d="M481.36,1295.9c-.63-.5-1.13-1.2-1.49-2.1-.36-.9-.54-1.92-.54-3.06s.18-2.14.54-3.04c.36-.9.85-1.59,1.49-2.1.63-.5,1.36-.75,2.17-.75s1.53.25,2.17.75c.63.5,1.13,1.2,1.49,2.1.36.9.54,1.91.54,3.04s-.18,2.16-.54,3.05c-.36.89-.85,1.59-1.49,2.1s-1.36.76-2.17.76-1.53-.25-2.17-.75ZM485.01,1294.86c.44-.41.78-.96,1.02-1.67.24-.71.36-1.52.36-2.44s-.12-1.73-.36-2.45c-.24-.71-.58-1.27-1.02-1.67-.44-.4-.93-.6-1.49-.6s-1.05.2-1.48.6c-.43.4-.77.96-1.02,1.67-.25.71-.37,1.53-.37,2.43s.12,1.75.37,2.46c.25.71.58,1.27,1.02,1.67s.93.61,1.48.61,1.05-.2,1.49-.61Z"/>
      </g>
      <g id="lu" data-name="MTEXT">
        <path class="mf" d="M593.68,1294.72c.19-.17.42-.38.71-.64.93-.85,1.67-1.57,2.24-2.15.57-.58,1.05-1.17,1.44-1.78s.59-1.16.59-1.67c0-.48-.09-.9-.28-1.27s-.45-.66-.78-.86-.71-.31-1.15-.31c-.47,0-.93.16-1.37.48-.44.32-.78.73-1,1.23l-1.2-.51c.3-.7.78-1.28,1.46-1.73.67-.45,1.38-.67,2.11-.67.69,0,1.31.16,1.85.46.54.31.96.74,1.26,1.29.3.55.45,1.18.45,1.9s-.22,1.41-.67,2.14c-.45.73-.98,1.41-1.6,2.04-.62.63-1.42,1.39-2.42,2.27-.49.45-.95.88-1.39,1.3l-.94-.85c.28-.27.51-.49.7-.66ZM592.98,1295.38h7.22v1.18h-7.04l-.18-1.18Z"/>
      </g>
      <g id="lv" data-name="MTEXT">
        <path class="mf" d="M540.34,1296.54h-1.34v-10.08l-1.86,1.2-.67-1.07,2.54-1.62h1.33v11.57Z"/>
      </g>
      <g id="lw" data-name="MTEXT">
        <g>
          <path class="mf" d="M758.55,1289.31c.55-.25,1.08-.38,1.59-.38.77,0,1.45.16,2.06.49.6.33,1.07.78,1.41,1.35s.5,1.24.5,1.98-.17,1.43-.5,2.02-.8,1.05-1.4,1.38-1.29.5-2.07.5c-.6,0-1.16-.12-1.69-.38-.53-.25-.98-.6-1.34-1.05-.37-.45-.62-.95-.74-1.52l1.3-.3c.13.59.42,1.06.89,1.43.46.37.99.55,1.59.55.5,0,.95-.11,1.35-.34.4-.22.71-.54.94-.94.23-.41.34-.86.34-1.36s-.11-.95-.34-1.34c-.23-.39-.54-.69-.94-.91-.4-.22-.85-.33-1.35-.33-.33,0-.68.09-1.04.26-.36.18-.66.4-.9.68l-.99-.86c.34-.38.79-.7,1.34-.95ZM756.87,1290.93l.37-6.03h5.92v1.18h-4.64l-.32,5.04-1.33-.19Z"/>
          <path class="mf" d="M775.28,1290.76c-.29-.34-.67-.5-1.13-.5-.35,0-.66.07-.94.22-.27.14-.49.34-.65.6-.16.26-.24.55-.24.88v4.58h-1.33v-4.45c0-.54-.14-.98-.43-1.32s-.66-.5-1.12-.5c-.34,0-.65.09-.94.26s-.5.42-.66.72c-.15.3-.23.63-.23.98v4.3h-1.33v-7.46h1.33v1.31l-.14-.05c.22-.37.52-.68.9-.91.37-.23.75-.35,1.14-.35.46,0,.9.13,1.32.38.42.26.74.59.95.99.25-.41.59-.74,1.04-.99.45-.26.9-.38,1.36-.38.55,0,1.05.13,1.49.38.44.25.78.59,1.02,1.02.25.43.37.93.37,1.5v4.56h-1.34v-4.45c0-.54-.15-.98-.44-1.32Z"/>
        </g>
      </g>
      <g id="lx" data-name="LWPOLYLINE">
        <polyline class="lz" points="766.32 1280.89 766.32 1263.88 596.24 1263.88 596.24 1280.89 539.55 1280.89 539.55 1263.88 482.85 1263.88 482.85 1280.89"/>
      </g>
    </g>
    <path class="ma" d="M955.15,605.35c.17-.16.37-.35.58-.56.72-.68,1.3-1.25,1.73-1.7.44-.46.81-.93,1.12-1.43.31-.5.47-.96.47-1.38s-.08-.77-.24-1.09c-.16-.32-.38-.57-.67-.75-.28-.18-.61-.27-.97-.27-.4,0-.78.14-1.15.41-.36.28-.64.63-.82,1.06l-.54-.23c.22-.52.57-.94,1.03-1.27.46-.33.96-.49,1.48-.49.47,0,.89.11,1.26.34s.66.54.87.94c.21.4.32.85.32,1.36s-.16,1.01-.49,1.55-.72,1.05-1.18,1.54c-.46.48-1.06,1.07-1.79,1.76-.5.47-.89.84-1.16,1.12l-.41-.34c.2-.21.39-.39.56-.56ZM954.6,605.91h5.16v.5h-5.09l-.07-.5Z"/>
    <g>
      <g>
        <path class="ma" d="M1969.61,1251.04v2.45c0,.78-.16,1.57-.48,2.34-.32.78-.74,1.48-1.26,2.09s-1.06,1.09-1.62,1.41l-.42-.53c.52-.28,1.04-.7,1.54-1.27s.92-1.21,1.23-1.93c.32-.71.48-1.42.48-2.12v-2.45h.53ZM1969.69,1251.04v2.45c0,.67.16,1.35.48,2.04.32.69.74,1.3,1.24,1.84.5.54,1.02.95,1.55,1.22l-.42.5c-.57-.31-1.11-.76-1.63-1.34-.52-.59-.94-1.26-1.27-2-.33-.75-.49-1.5-.49-2.25v-2.45h.53ZM1975.08,1249.9v12.08h-.64v-12.08h.64ZM1977.24,1254.97v.57h-2.31v-.57h2.31Z"/>
        <path class="ma" d="M1989.11,1257.11v.56h-10.95v-.56h10.95ZM1987.61,1250.64v4.58h-7.97v-4.58h7.97ZM1980.28,1251.19v3.51h6.71v-3.51h-6.71ZM1983.93,1257.42v4.56h-.63v-4.56h.63Z"/>
        <path class="ma" d="M1994.32,1250.31v.92c0,.72-.15,1.4-.46,2.03-.31.63-.72,1.19-1.23,1.67-.51.48-1.08.84-1.69,1.11l-.35-.53c.57-.21,1.1-.54,1.58-.97.49-.43.88-.93,1.17-1.5.29-.57.44-1.17.44-1.8v-.92h.54ZM2000.19,1256.93v2.63h-6.96v1.97h-.62v-2.49h6.94v-1.55h-6.99v-.56h7.62ZM2000.67,1261.26v.55h-8.06v-.55h8.06ZM1994.4,1250.31v.92c0,.59.15,1.16.45,1.7.3.55.7,1.02,1.19,1.42.49.4,1.02.71,1.58.92l-.34.52c-.62-.24-1.2-.59-1.71-1.04s-.93-.97-1.24-1.58c-.31-.61-.46-1.25-.46-1.95v-.92h.53ZM2000.19,1249.9v6.36h-.64v-6.36h.64Z"/>
        <path class="ma" d="M1967.2,1268.38v1.96h4.16v-1.96h.63v5.25h-5.43v-5.25h.64ZM1967.2,1273.07h4.16v-2.18h-4.16v2.18ZM1975.22,1274.87v2.66h-6.78v2.09h-.63v-2.6h6.78v-1.6h-6.82v-.55h7.45ZM1975.71,1279.26v.55h-7.9v-.55h7.9ZM1975.22,1267.9v6.3h-.64v-6.3h.64ZM1977.13,1270.7v.56h-2.24v-.56h2.24Z"/>
        <path class="ma" d="M1989.07,1277.58v.56h-10.91v-.56h10.91ZM1987.14,1272.59l-7.8.46-.11-.6,7.91-.36v.5ZM1987.22,1269.2v.56h-7.7v-.56h7.7ZM1983.33,1274.29v3.5h-.64v-3.5h.64ZM1987.57,1269.2v1.2c0,1.01-.03,1.91-.08,2.7-.05.79-.18,1.71-.38,2.76l-.64-.1c.21-1,.34-1.89.39-2.67.06-.78.08-1.68.08-2.69v-1.2h.63Z"/>
        <path class="ma" d="M1991.9,1269.12v7.45h-.63v-7.45h.63ZM1998.03,1275.59l.1.59c-1.04.21-2.03.35-2.99.45-.96.09-1.94.14-2.95.14h-.92v-.57h.92c2.04,0,3.99-.2,5.84-.6ZM2000.13,1267.9v12.08h-.63v-12.08h.63Z"/>
        <path class="ma" d="M1970.53,1290.45c-.34.95-.85,1.84-1.53,2.67-.69.83-1.54,1.57-2.57,2.19l-.39-.5c.94-.57,1.74-1.24,2.39-2,.65-.76,1.15-1.59,1.48-2.47.33-.88.5-1.79.5-2.72v-.1h.63c0,1.01-.17,1.99-.5,2.93ZM1970.73,1287.51v.56h-4.28v-.56h4.28ZM1973.47,1292.43v.55h-2.95v-.55h2.95ZM1973.47,1289.39v.55h-2.84v-.55h2.84ZM1973.71,1286.25v11.05h-.63v-11.05h.63ZM1976.09,1285.9v12.08h-.64v-12.08h.64Z"/>
        <path class="ma" d="M1984.1,1286.99v.57h-4.63v4.56h-.64v-5.14h5.28ZM1982.8,1291.75c.82-.06,1.64-.17,2.47-.34l.1.56c-.88.17-1.73.29-2.56.35-.83.07-1.87.1-3.11.1h-.88v-.57h.88c1.25,0,2.28-.03,3.1-.09ZM1980.78,1293.81v3.5h-.64v-3.5h.64ZM1988.08,1297.1v.56h-7.94v-.56h7.94ZM1987.46,1285.89v8.76h-.64v-8.76h.64ZM1989.38,1289.7v.55h-2.16v-.55h2.16Z"/>
        <path class="ma" d="M1994.32,1286.31v.92c0,.72-.15,1.4-.46,2.03-.31.63-.72,1.19-1.23,1.67-.51.48-1.08.84-1.69,1.11l-.35-.53c.57-.21,1.1-.54,1.58-.97.49-.43.88-.93,1.17-1.5.29-.57.44-1.17.44-1.8v-.92h.54ZM2000.19,1292.93v2.63h-6.96v1.97h-.62v-2.49h6.94v-1.55h-6.99v-.56h7.62ZM2000.67,1297.26v.55h-8.06v-.55h8.06ZM1994.4,1286.31v.92c0,.59.15,1.16.45,1.7.3.55.7,1.02,1.19,1.42.49.4,1.02.71,1.58.92l-.34.52c-.62-.24-1.2-.59-1.71-1.04s-.93-.97-1.24-1.58c-.31-.61-.46-1.25-.46-1.95v-.92h.53ZM2000.19,1285.9v6.36h-.64v-6.36h.64Z"/>
        <path class="ma" d="M1969.97,1312.81c1.27-.05,2.46-.15,3.58-.32l.06.5c-1.17.2-2.37.32-3.61.38-1.24.06-2.6.09-4.07.09l-.14-.59c1.52,0,2.92-.02,4.19-.07ZM1973.28,1305.47v.55h-7.29v-.55h7.29ZM1971.09,1307.16c.42.18.74.44.97.78s.35.73.35,1.18-.12.82-.35,1.15c-.23.33-.56.59-.97.77-.42.18-.9.27-1.45.27s-1.03-.09-1.45-.27c-.42-.18-.74-.44-.97-.77-.23-.33-.34-.72-.34-1.15s.12-.84.34-1.18.55-.59.97-.78c.42-.18.9-.27,1.45-.27s1.03.09,1.45.27ZM1968.08,1307.88c-.4.31-.59.72-.59,1.21s.2.9.59,1.2.92.46,1.56.46,1.17-.15,1.56-.46.59-.71.59-1.2-.2-.9-.59-1.21-.92-.47-1.56-.47-1.16.16-1.56.47ZM1969.97,1303.89v1.85h-.66v-1.85h.66ZM1969.97,1311.14v1.96h-.66v-1.96h.66ZM1975.03,1303.9v12.08h-.64v-12.08h.64ZM1977.17,1309.19v.57h-2.3v-.57h2.3Z"/>
        <path class="ma" d="M1981.89,1305.16v1.13c0,.7-.15,1.35-.44,1.96s-.7,1.13-1.2,1.58-1.07.78-1.69,1.01l-.34-.52c.57-.21,1.09-.51,1.57-.9s.86-.87,1.15-1.41c.29-.54.43-1.12.43-1.72v-1.13h.52ZM1984.87,1304.85v.56h-6.41v-.56h6.41ZM1985.74,1311.92c.58.16,1.03.4,1.34.72s.47.7.47,1.15c0,.68-.34,1.21-1.03,1.59s-1.64.57-2.86.57c-.8,0-1.5-.08-2.08-.25-.58-.17-1.03-.42-1.34-.74-.31-.33-.46-.71-.46-1.16s.15-.83.46-1.15.75-.56,1.34-.72c.58-.16,1.28-.25,2.08-.25s1.5.08,2.08.25ZM1981.95,1312.41c-.49.13-.87.31-1.13.55s-.4.51-.4.83c0,.49.29.89.88,1.18s1.38.43,2.37.43,1.78-.14,2.37-.43.89-.68.89-1.18c0-.32-.14-.59-.41-.83-.27-.23-.65-.42-1.14-.55-.49-.13-1.06-.2-1.72-.2s-1.22.07-1.71.2ZM1981.99,1305.16v1.12c0,.54.14,1.06.41,1.56.28.5.64.94,1.11,1.31.46.37.97.66,1.52.87l-.31.5c-.61-.22-1.16-.55-1.65-.97-.49-.42-.89-.91-1.18-1.47s-.43-1.16-.43-1.81v-1.12h.53ZM1987.45,1303.9v7.36h-.64v-7.36h.64ZM1989.36,1307.18v.56h-2.1v-.56h2.1Z"/>
        <path class="ma" d="M1994.32,1304.31v.92c0,.72-.15,1.4-.46,2.03-.31.63-.72,1.19-1.23,1.67-.51.48-1.08.84-1.69,1.11l-.35-.53c.57-.21,1.1-.54,1.58-.97.49-.43.88-.93,1.17-1.5.29-.57.44-1.17.44-1.8v-.92h.54ZM2000.19,1310.93v2.63h-6.96v1.97h-.62v-2.49h6.94v-1.55h-6.99v-.56h7.62ZM2000.67,1315.26v.55h-8.06v-.55h8.06ZM1994.4,1304.31v.92c0,.59.15,1.16.45,1.7.3.55.7,1.02,1.19,1.42.49.4,1.02.71,1.58.92l-.34.52c-.62-.24-1.2-.59-1.71-1.04s-.93-.97-1.24-1.58c-.31-.61-.46-1.25-.46-1.95v-.92h.53ZM2000.19,1303.9v6.36h-.64v-6.36h.64Z"/>
      </g>
      <g>
        <path class="ma" d="M1955.03,1261.05h-.67v-9.35l-1.26.87-.36-.49,1.62-1.13h.67v10.11Z"/>
        <path class="ma" d="M1951.93,1277.81c.2-.19.43-.41.68-.65.84-.79,1.51-1.46,2.02-1.99.51-.53.94-1.09,1.31-1.67s.55-1.12.55-1.61-.09-.9-.28-1.27-.45-.67-.78-.88c-.33-.21-.71-.32-1.13-.32-.47,0-.91.16-1.34.48-.42.32-.75.73-.96,1.24l-.63-.27c.26-.61.66-1.1,1.2-1.48.54-.38,1.12-.57,1.72-.57.55,0,1.04.13,1.47.39.43.26.77.63,1.01,1.09.25.47.37.99.37,1.58s-.19,1.18-.57,1.81-.84,1.23-1.38,1.79c-.54.56-1.23,1.25-2.09,2.05-.59.55-1.04.98-1.36,1.3l-.48-.39c.23-.24.45-.46.65-.65ZM1951.27,1278.46h6.02v.59h-5.94l-.08-.59Z"/>
        <path class="ma" d="M1956.95,1292.75c.33.44.5.92.5,1.43,0,.57-.14,1.08-.41,1.53s-.65.8-1.13,1.06-1.03.38-1.64.38-1.17-.13-1.65-.38-.86-.6-1.13-1.06-.41-.96-.41-1.53h.67c0,.46.11.87.32,1.23s.51.64.9.84c.38.2.81.3,1.29.3s.92-.1,1.3-.29.68-.46.89-.79.32-.72.32-1.16-.11-.8-.32-1.13-.5-.59-.88-.78c-.38-.19-.8-.28-1.28-.28h-.41v-.62h.39c.45,0,.85-.09,1.21-.26s.64-.41.84-.72c.2-.31.3-.66.3-1.05,0-.6-.21-1.09-.64-1.47-.43-.38-.98-.57-1.65-.57-.44,0-.83.09-1.19.27-.36.18-.63.44-.82.77-.19.33-.29.71-.29,1.13h-.67c0-.53.13-1.01.38-1.43s.6-.75,1.05-.99c.45-.24.96-.36,1.54-.36s1.09.12,1.54.36c.45.24.8.57,1.05.99.25.42.38.9.38,1.43,0,.43-.15.85-.45,1.27s-.69.73-1.16.94c.5.19.92.5,1.25.94Z"/>
        <path class="ma" d="M1956.13,1311.48h1.64v.6h-1.64v2.97h-.67v-2.97h-4.61l-.1-.62,4.7-6.52h.67v6.54ZM1955.46,1311.48v-5.38l-3.88,5.38h3.88Z"/>
      </g>
    </g>
    <path class="ma" d="M1220.44,769.67h-.58v-8.02l-1.08.74-.31-.42,1.39-.97h.58v8.66Z"/>
    <path class="ma" d="M1001.43,751.76c.28.38.43.78.43,1.22,0,.49-.12.93-.35,1.31-.23.39-.55.69-.97.91-.41.22-.88.32-1.41.32s-1-.11-1.41-.32-.73-.52-.97-.91c-.23-.39-.35-.83-.35-1.31h.58c0,.39.09.74.28,1.05.18.31.44.55.77.72.33.17.7.26,1.1.26s.79-.08,1.12-.25.58-.39.76-.68c.18-.29.27-.62.27-1s-.09-.68-.27-.97c-.18-.28-.43-.51-.76-.67-.32-.16-.69-.24-1.1-.24h-.35v-.53h.34c.38,0,.73-.07,1.04-.22.31-.15.55-.35.72-.62.17-.26.26-.56.26-.9,0-.51-.18-.93-.55-1.26-.37-.33-.84-.49-1.42-.49-.38,0-.72.08-1.02.23-.3.16-.54.38-.7.66-.16.28-.25.61-.25.97h-.58c0-.46.11-.86.32-1.22.22-.36.52-.64.9-.85.38-.2.82-.31,1.32-.31s.94.1,1.32.31c.38.2.68.49.9.85.22.36.32.77.32,1.22,0,.37-.13.73-.38,1.09-.26.36-.59.63-1,.81.43.16.79.43,1.07.8Z"/>
    <path class="ma" d="M1061.47,658.63h1.4v.52h-1.4v2.54h-.58v-2.54h-3.95l-.08-.53,4.03-5.59h.58v5.6ZM1060.89,658.63v-4.61l-3.32,4.61h3.32Z"/>
  </g>
</svg>