<?xml version="1.0" encoding="UTF-8"?>
<svg xmlns="http://www.w3.org/2000/svg" viewBox="0 0 2000 1500">
  <defs>
    <style>
      .ls {
        fill-rule: evenodd;
      }

      .ls, .lt, .lu, .lv, .lw, .lx, .ly, .lz, .ma, .mb, .mc, .md, .me, .mf, .mg, .mh, .mi, .mj, .mk, .ml, .mm, .mn, .mo, .mp, .mq, .mr, .ms, .mt, .mu, .mv, .mw, .mx, .my, .mz, .na, .nb, .nc, .nd, .ne, .nf, .ng, .nh, .ni, .nj, .nk, .nl, .nm, .nn, .no, .np {
        stroke: #000;
      }

      .ls, .lt, .lu, .lv, .lw, .lx, .ly, .lz, .ma, .mb, .mc, .md, .me, .mf, .mg, .mh, .mi, .mj, .mk, .mn, .mo, .mp, .mq, .mr, .ms, .mt, .mu, .mv, .mw, .mx, .my, .mz, .na, .nb, .nc, .nd, .ne, .nf, .ng, .nh, .ni, .nj, .nk, .nl, .nm, .nn, .no, .np {
        stroke-miterlimit: 10;
      }

      .ls, .lt, .lw, .mg, .mh, .mi, .mm, .ms, .mt, .mw, .mx, .nb, .ne, .nj, .no {
        stroke-width: .5px;
      }

      .lt, .lu, .lv, .lw, .lx, .ly, .lz, .ma, .mb, .mc, .md, .me, .mf, .mg, .mh, .mi, .mj, .mk, .mn, .mo, .mp, .mq, .mr, .ms, .mt, .mu, .mv, .mw, .my, .mz, .na, .nb, .nc, .nd, .ne, .nf, .ng, .nh, .ni, .nj, .nk, .nl, .nm, .nn, .no, .np {
        fill: none;
      }

      .lu {
        stroke-dasharray: 1.01 2.03;
      }

      .lu, .mb, .mu, .na, .ng {
        stroke-width: .25px;
      }

      .lv {
        stroke-dasharray: 3.24 1.62;
      }

      .lv, .ly, .lz, .ma, .md, .mf, .mk, .mn, .mo, .mp, .mq, .mr, .mv, .my, .mz, .nh, .ni, .nk, .nl, .nm, .nn, .np {
        stroke-width: .4px;
      }

      .lw {
        stroke-dasharray: 2.03 1.02;
      }

      .ly {
        stroke-dasharray: 3.02 1.51;
      }

      .lz {
        stroke-dasharray: 2.02 1.01;
      }

      .ma {
        stroke-dasharray: 3.04 1.52;
      }

      .mb {
        stroke-dasharray: 1.02 2.04;
      }

      .mc {
        stroke-width: .75px;
      }

      .md {
        stroke-dasharray: 1.99 .99;
      }

      .me {
        stroke-width: .85px;
      }

      .mf {
        stroke-dasharray: 3.04 1.52;
      }

      .mg {
        stroke-dasharray: 2.02 1.01;
      }

      .mh {
        stroke-dasharray: 1.98 .99;
      }

      .mi {
        stroke-dasharray: 2.05 1.03;
      }

      .mj {
        stroke-width: .15px;
      }

      .mk {
        stroke-dasharray: 3 1.5;
      }

      .ml {
        stroke-width: .34px;
      }

      .mn {
        stroke-dasharray: 2.95 1.48;
      }

      .mp {
        stroke-dasharray: 1.71 .86;
      }

      .mq {
        stroke-dasharray: 1.97 .99;
      }

      .mr {
        stroke-dasharray: 1.88 .94;
      }

      .ms {
        stroke-dasharray: 1.98 .99;
      }

      .mt {
        stroke-dasharray: 2.03 1.01;
      }

      .mv {
        stroke-dasharray: 3.19 1.6;
      }

      .mw {
        stroke-dasharray: 2.01 1;
      }

      .my {
        stroke-dasharray: 2.01 1.01;
      }

      .mz {
        stroke-dasharray: 3.1 1.55;
      }

      .na {
        stroke-dasharray: 4.07 2.04 1.02 2.04;
      }

      .nb {
        stroke-dasharray: 2 1;
      }

      .nc {
        stroke-width: .3px;
      }

      .nd {
        stroke-width: .6px;
      }

      .ne {
        stroke-dasharray: 1.98 .99;
      }

      .nf {
        stroke-width: .9px;
      }

      .ng {
        stroke-dasharray: 4.05 2.03 1.01 2.03;
      }

      .nh {
        stroke-dasharray: 2.97 1.48;
      }

      .ni {
        stroke-dasharray: 2.96 1.48;
      }

      .nj {
        stroke-dasharray: 2 1;
      }

      .nk {
        stroke-dasharray: 2.01 1;
      }

      .nl {
        stroke-dasharray: 1.99 .99;
      }

      .nm {
        stroke-dasharray: 2.02 1.01;
      }

      .nn {
        stroke-dasharray: 2.04 1.02;
      }

      .no {
        stroke-dasharray: 1.97 .99;
      }

      .np {
        stroke-dasharray: 1.98 .99;
      }
    </style>
  </defs>
  <g id="ar" data-name="f1">
    <g id="as" data-name="LINE">
      <g>
        <line class="mu" x1="983.8" y1="605.28" x2="981.95" y2="604.52"/>
        <line class="lu" x1="980.08" y1="603.74" x2="978.21" y2="602.96"/>
        <line class="ng" x1="977.27" y1="602.58" x2="877.16" y2="561.08"/>
        <line class="mu" x1="876.23" y1="560.69" x2="874.38" y2="559.93"/>
      </g>
    </g>
    <g id="at" data-name="LINE">
      <g>
        <line class="mu" x1="874.38" y1="606.7" x2="876.22" y2="605.91"/>
        <line class="mb" x1="878.09" y1="605.11" x2="879.96" y2="604.31"/>
        <line class="na" x1="880.9" y1="603.91" x2="981.02" y2="561.11"/>
        <line class="mu" x1="981.96" y1="560.71" x2="983.8" y2="559.93"/>
      </g>
    </g>
    <g id="au" data-name="LWPOLYLINE">
      <polyline class="mu" points="1003.07 694.29 1008.17 694.29 1008.17 694.86 1003.07 694.86"/>
    </g>
    <g id="av" data-name="LWPOLYLINE">
      <polyline class="mu" points="1247.98 694.86 1155.01 694.86 1155.01 694.29 1247.98 694.29"/>
    </g>
    <g id="aw" data-name="LWPOLYLINE">
      <rect class="mu" x="1060.9" y="694.29" width="92.98" height=".57"/>
    </g>
    <g id="ax" data-name="LWPOLYLINE">
      <polyline class="mu" points="1008.74 694.86 1059.76 694.86 1059.76 694.29 1008.74 694.29"/>
    </g>
    <g id="ay" data-name="LINE">
      <line class="mu" x1="781.4" y1="608.4" x2="825.62" y2="608.4"/>
    </g>
    <g id="az" data-name="LINE">
      <line class="mu" x1="834.69" y1="609.53" x2="978.13" y2="609.53"/>
    </g>
    <g id="ba" data-name="LINE">
      <line class="mu" x1="995.26" y1="472.05" x2="995.26" y2="538.95"/>
    </g>
    <g id="bb" data-name="LWPOLYLINE">
      <polyline class="mu" points="1003.07 545.75 1059.2 545.75 1059.2 545.19 1003.07 545.19"/>
    </g>
    <g id="bc" data-name="LWPOLYLINE">
      <rect class="mu" x="1060.33" y="545.19" width="55.56" height=".57"/>
    </g>
    <g id="bd" data-name="LWPOLYLINE">
      <rect class="mu" x="1117.02" y="545.19" width="81.07" height=".57"/>
    </g>
    <g id="be" data-name="LWPOLYLINE">
      <polyline class="mu" points="983.8 558.79 873.24 558.79 873.24 606.7"/>
    </g>
    <g id="bf" data-name="LINE">
      <line class="mu" x1="977.28" y1="937.5" x2="850.85" y2="937.5"/>
    </g>
    <g id="bg" data-name="LINE">
      <line class="mu" x1="976.43" y1="939.07" x2="851.7" y2="939.07"/>
    </g>
    <g id="bh" data-name="LINE">
      <line class="mu" x1="1161.53" y1="937.5" x2="1009.59" y2="937.5"/>
    </g>
    <g id="bi" data-name="LINE">
      <line class="mu" x1="1160.68" y1="939.07" x2="1010.44" y2="939.07"/>
    </g>
    <g id="bj" data-name="LINE">
      <line class="mu" x1="1286.54" y1="824.4" x2="1286.54" y2="715.26"/>
    </g>
    <g id="bk" data-name="LINE">
      <line class="mu" x1="1288.1" y1="716.12" x2="1288.1" y2="823.55"/>
    </g>
    <g id="bl" data-name="LINE">
      <line class="mu" x1="1277.47" y1="475.45" x2="1277.47" y2="535.55"/>
    </g>
    <g id="bm" data-name="LINE">
      <line class="mu" x1="713.09" y1="639.86" x2="713.09" y2="684.08"/>
    </g>
    <g id="bn" data-name="LINE">
      <line class="mu" x1="996.84" y1="471.2" x2="996.84" y2="539.8"/>
    </g>
    <g id="bo" data-name="LINE">
      <line class="mu" x1="1191.85" y1="936.76" x2="1285.82" y2="854.34"/>
    </g>
    <g id="bp" data-name="LINE">
      <line class="mu" x1="1286.21" y1="856.08" x2="1193.53" y2="937.38"/>
    </g>
    <g id="bq" data-name="LWPOLYLINE">
      <line class="nc" x1="829.02" y1="633.63" x2="829.02" y2="707.33"/>
    </g>
    <g id="br" data-name="LWPOLYLINE">
      <g>
        <polyline class="mo" points="894.5 883.78 894.5 884.78 895.5 884.78"/>
        <line class="md" x1="896.5" y1="884.78" x2="949.7" y2="884.78"/>
        <polyline class="mo" points="950.2 884.78 951.2 884.78 951.2 883.78"/>
        <line class="nm" x1="951.2" y1="882.77" x2="951.2" y2="750.22"/>
        <polyline class="mo" points="951.2 749.71 951.2 748.71 950.2 748.71"/>
        <line class="md" x1="949.2" y1="748.71" x2="896" y2="748.71"/>
        <polyline class="mo" points="895.5 748.71 894.5 748.71 894.5 749.71"/>
        <line class="nm" x1="894.5" y1="750.72" x2="894.5" y2="883.27"/>
      </g>
    </g>
    <g id="bs" data-name="LWPOLYLINE">
      <g>
        <polyline class="mo" points="891.8 880.52 892.8 880.52 892.8 879.52"/>
        <line class="mr" x1="892.8" y1="878.58" x2="892.8" y2="856.48"/>
        <polyline class="mo" points="892.8 856.01 892.8 855.01 891.8 855.01"/>
        <path class="mq" d="M890.82,855.01h-15.02c-7.04,0-12.76,5.71-12.76,12.76s5.71,12.76,12.76,12.76h15.51"/>
      </g>
    </g>
    <g id="bt" data-name="LWPOLYLINE">
      <g>
        <polyline class="mo" points="891.8 846.51 892.8 846.51 892.8 845.51"/>
        <line class="mr" x1="892.8" y1="844.57" x2="892.8" y2="822.47"/>
        <polyline class="mo" points="892.8 822 892.8 821 891.8 821"/>
        <path class="mq" d="M890.82,821h-15.02c-7.04,0-12.76,5.71-12.76,12.76s5.71,12.76,12.76,12.76h15.51"/>
      </g>
    </g>
    <g id="bu" data-name="LWPOLYLINE">
      <g>
        <polyline class="mo" points="891.8 812.49 892.8 812.49 892.8 811.49"/>
        <line class="mr" x1="892.8" y1="810.55" x2="892.8" y2="788.45"/>
        <polyline class="mo" points="892.8 787.98 892.8 786.98 891.8 786.98"/>
        <path class="mq" d="M890.82,786.98h-15.02c-7.04,0-12.76,5.71-12.76,12.76s5.71,12.76,12.76,12.76h15.51"/>
      </g>
    </g>
    <g id="bv" data-name="LWPOLYLINE">
      <g>
        <polyline class="mo" points="891.8 778.48 892.8 778.48 892.8 777.48"/>
        <line class="mr" x1="892.8" y1="776.54" x2="892.8" y2="754.44"/>
        <polyline class="mo" points="892.8 753.97 892.8 752.97 891.8 752.97"/>
        <path class="mq" d="M890.82,752.97h-15.02c-7.04,0-12.76,5.71-12.76,12.76s5.71,12.76,12.76,12.76h15.51"/>
      </g>
    </g>
    <g id="bw" data-name="LWPOLYLINE">
      <g>
        <polyline class="mo" points="953.9 880.52 952.9 880.52 952.9 879.52"/>
        <line class="mr" x1="952.9" y1="878.58" x2="952.9" y2="856.48"/>
        <polyline class="mo" points="952.9 856.01 952.9 855.01 953.9 855.01"/>
        <path class="mq" d="M954.89,855.01h15.02c7.04,0,12.76,5.71,12.76,12.76s-5.71,12.76-12.76,12.76h-15.51"/>
      </g>
    </g>
    <g id="bx" data-name="LWPOLYLINE">
      <g>
        <polyline class="mo" points="953.9 846.51 952.9 846.51 952.9 845.51"/>
        <line class="mr" x1="952.9" y1="844.57" x2="952.9" y2="822.47"/>
        <polyline class="mo" points="952.9 822 952.9 821 953.9 821"/>
        <path class="mq" d="M954.89,821h15.02c7.04,0,12.76,5.71,12.76,12.76s-5.71,12.76-12.76,12.76h-15.51"/>
      </g>
    </g>
    <g id="by" data-name="LWPOLYLINE">
      <g>
        <polyline class="mo" points="953.9 812.49 952.9 812.49 952.9 811.49"/>
        <line class="mr" x1="952.9" y1="810.55" x2="952.9" y2="788.45"/>
        <polyline class="mo" points="952.9 787.98 952.9 786.98 953.9 786.98"/>
        <path class="mq" d="M954.89,786.98h15.02c7.04,0,12.76,5.71,12.76,12.76s-5.71,12.76-12.76,12.76h-15.51"/>
      </g>
    </g>
    <g id="bz" data-name="LWPOLYLINE">
      <g>
        <polyline class="mo" points="953.9 778.48 952.9 778.48 952.9 777.48"/>
        <line class="mr" x1="952.9" y1="776.54" x2="952.9" y2="754.44"/>
        <polyline class="mo" points="952.9 753.97 952.9 752.97 953.9 752.97"/>
        <path class="mq" d="M954.89,752.97h15.02c7.04,0,12.76,5.71,12.76,12.76s-5.71,12.76-12.76,12.76h-15.51"/>
      </g>
    </g>
    <g id="ca" data-name="LWPOLYLINE">
      <g>
        <line class="mo" x1="1150.41" y1="919.8" x2="1150.41" y2="918.8"/>
        <line class="nk" x1="1150.41" y1="917.8" x2="1150.41" y2="873.12"/>
        <polyline class="mo" points="1150.41 872.61 1150.41 871.61 1149.41 871.61"/>
        <line class="nm" x1="1148.4" y1="871.61" x2="1015.85" y2="871.61"/>
        <polyline class="mo" points="1015.35 871.61 1014.35 871.61 1014.35 872.61"/>
        <line class="nk" x1="1014.35" y1="873.62" x2="1014.35" y2="918.3"/>
        <polyline class="mo" points="1014.35 918.8 1014.35 919.8 1015.35 919.8"/>
        <line class="nm" x1="1016.35" y1="919.8" x2="1148.91" y2="919.8"/>
        <line class="mo" x1="1149.41" y1="919.8" x2="1150.41" y2="919.8"/>
      </g>
    </g>
    <g id="cb" data-name="CIRCLE">
      <circle class="lz" cx="1069.45" cy="796.39" r="25.51" transform="translate(-249.9 989.48) rotate(-45)"/>
    </g>
    <g id="cc" data-name="ARC">
      <g>
        <path class="mo" d="M1094.96,796.01c.28.19.56.37.84.54"/>
        <path class="nl" d="M1096.67,797.03c6.2,3.15,13.93,1.34,18.03-4.52,4.49-6.42,2.92-15.25-3.49-19.74s-15.25-2.92-19.74,3.49c-.62.89-1.14,1.85-1.54,2.86"/>
        <path class="mo" d="M1089.75,779.59c-.11.31-.21.63-.31.95"/>
      </g>
    </g>
    <g id="cd" data-name="CIRCLE">
      <circle class="my" cx="1148.53" cy="798.67" r="28.35" transform="translate(-28.87 1554.14) rotate(-67.5)"/>
    </g>
    <g id="ce" data-name="LWPOLYLINE">
      <g>
        <line class="mo" x1="1022.85" y1="871.61" x2="1022.85" y2="872.61"/>
        <line class="nn" x1="1022.85" y1="873.63" x2="1022.85" y2="909.79"/>
        <polyline class="mo" points="1022.85 910.3 1022.85 911.3 1023.85 911.3"/>
        <line class="np" x1="1024.84" y1="911.3" x2="1140.41" y2="911.3"/>
        <polyline class="mo" points="1140.91 911.3 1141.91 911.3 1141.91 910.3"/>
        <line class="nn" x1="1141.91" y1="909.28" x2="1141.91" y2="873.12"/>
        <line class="mo" x1="1141.91" y1="872.61" x2="1141.91" y2="871.61"/>
      </g>
    </g>
    <g id="cf" data-name="LWPOLYLINE">
      <g>
        <line class="mo" x1="1102.22" y1="911.3" x2="1102.22" y2="910.3"/>
        <line class="nn" x1="1102.22" y1="909.28" x2="1102.22" y2="873.12"/>
        <line class="mo" x1="1102.22" y1="872.61" x2="1102.22" y2="871.61"/>
      </g>
    </g>
    <g id="cg" data-name="LWPOLYLINE">
      <g>
        <line class="mo" x1="1062.54" y1="911.3" x2="1062.54" y2="910.3"/>
        <line class="nn" x1="1062.54" y1="909.28" x2="1062.54" y2="873.12"/>
        <line class="mo" x1="1062.54" y1="872.61" x2="1062.54" y2="871.61"/>
      </g>
    </g>
    <g id="ch" data-name="LWPOLYLINE">
      <g>
        <line class="mo" x1="1270.43" y1="800.25" x2="1269.43" y2="800.25"/>
        <line class="nk" x1="1268.43" y1="800.25" x2="1223.74" y2="800.25"/>
        <polyline class="mo" points="1223.24 800.25 1222.24 800.25 1222.24 799.25"/>
        <line class="md" x1="1222.24" y1="798.26" x2="1222.24" y2="745.06"/>
        <polyline class="mo" points="1222.24 744.56 1222.24 743.56 1223.24 743.56"/>
        <line class="nk" x1="1224.24" y1="743.56" x2="1268.93" y2="743.56"/>
        <polyline class="mo" points="1269.43 743.56 1270.43 743.56 1270.43 744.56"/>
        <line class="md" x1="1270.43" y1="745.55" x2="1270.43" y2="798.76"/>
        <line class="mo" x1="1270.43" y1="799.25" x2="1270.43" y2="800.25"/>
      </g>
    </g>
    <g id="ci" data-name="LWPOLYLINE">
      <g>
        <line class="mo" x1="1222.24" y1="752.06" x2="1223.24" y2="752.06"/>
        <line class="nn" x1="1224.26" y1="752.06" x2="1260.42" y2="752.06"/>
        <polyline class="mo" points="1260.93 752.06 1261.93 752.06 1261.93 753.06"/>
        <line class="nn" x1="1261.93" y1="754.08" x2="1261.93" y2="790.24"/>
        <polyline class="mo" points="1261.93 790.75 1261.93 791.75 1260.93 791.75"/>
        <line class="nn" x1="1259.91" y1="791.75" x2="1223.75" y2="791.75"/>
        <line class="mo" x1="1223.24" y1="791.75" x2="1222.24" y2="791.75"/>
      </g>
    </g>
    <g id="cj" data-name="LWPOLYLINE">
      <g>
        <line class="mo" x1="1202.25" y1="895.06" x2="1201.59" y2="894.31"/>
        <line class="nk" x1="1200.93" y1="893.55" x2="1171.48" y2="859.95"/>
        <polyline class="mo" points="1171.15 859.57 1170.49 858.82 1171.25 858.16"/>
        <line class="md" x1="1171.99" y1="857.5" x2="1212" y2="822.44"/>
        <polyline class="mo" points="1212.38 822.11 1213.13 821.45 1213.79 822.2"/>
        <line class="nk" x1="1214.45" y1="822.96" x2="1243.9" y2="856.56"/>
        <polyline class="mo" points="1244.23 856.94 1244.89 857.69 1244.14 858.35"/>
        <line class="md" x1="1243.39" y1="859.01" x2="1203.38" y2="894.07"/>
        <line class="mo" x1="1203.01" y1="894.4" x2="1202.25" y2="895.06"/>
      </g>
    </g>
    <g id="ck" data-name="LWPOLYLINE">
      <g>
        <line class="mo" x1="1206.74" y1="827.06" x2="1207.39" y2="827.81"/>
        <line class="nn" x1="1208.07" y1="828.57" x2="1231.9" y2="855.77"/>
        <polyline class="mo" points="1232.23 856.15 1232.89 856.9 1232.14 857.56"/>
        <line class="nn" x1="1231.37" y1="858.23" x2="1204.18" y2="882.06"/>
        <polyline class="mo" points="1203.8 882.4 1203.04 883.06 1202.39 882.3"/>
        <line class="nn" x1="1201.71" y1="881.54" x2="1177.88" y2="854.35"/>
        <line class="mo" x1="1177.55" y1="853.96" x2="1176.89" y2="853.21"/>
      </g>
    </g>
    <g id="cl" data-name="LINE">
      <line class="mo" x1="772.33" y1="722.07" x2="721.31" y2="722.07"/>
    </g>
    <g id="cm" data-name="LINE">
      <line class="mo" x1="772.33" y1="736.81" x2="721.31" y2="736.81"/>
    </g>
    <g id="cn" data-name="LINE">
      <line class="mo" x1="772.33" y1="751.55" x2="721.31" y2="751.55"/>
    </g>
    <g id="co" data-name="LINE">
      <line class="mo" x1="772.33" y1="766.29" x2="721.31" y2="766.29"/>
    </g>
    <g id="cp" data-name="LINE">
      <line class="mo" x1="772.33" y1="781.03" x2="750.22" y2="781.03"/>
    </g>
    <g id="cq" data-name="LINE">
      <line class="mo" x1="1198.1" y1="542.92" x2="1198.1" y2="469.22"/>
    </g>
    <g id="cr" data-name="LINE">
      <line class="mo" x1="1183.07" y1="542.92" x2="1183.07" y2="469.22"/>
    </g>
    <g id="cs" data-name="LINE">
      <line class="mo" x1="1168.05" y1="542.92" x2="1168.05" y2="469.22"/>
    </g>
    <g id="ct" data-name="LINE">
      <line class="mo" x1="1153.02" y1="542.92" x2="1153.02" y2="469.22"/>
    </g>
    <g id="cu" data-name="LINE">
      <line class="mo" x1="1138" y1="542.92" x2="1138" y2="469.22"/>
    </g>
    <g id="cv" data-name="LINE">
      <line class="mo" x1="1122.98" y1="542.92" x2="1122.98" y2="469.22"/>
    </g>
    <g id="cw" data-name="LINE">
      <line class="mo" x1="1107.95" y1="542.92" x2="1107.95" y2="469.22"/>
    </g>
    <g id="cx" data-name="LINE">
      <line class="mo" x1="1092.93" y1="542.92" x2="1092.93" y2="469.22"/>
    </g>
    <g id="cy" data-name="LINE">
      <line class="mo" x1="1077.91" y1="542.92" x2="1077.91" y2="469.22"/>
    </g>
    <g id="cz" data-name="LWPOLYLINE">
      <polyline class="mo" points="983.8 559.93 874.38 559.93 874.38 606.7"/>
    </g>
    <g id="da" data-name="LINE">
      <g>
        <line class="mo" x1="772.33" y1="795.77" x2="770.83" y2="795.77"/>
        <line class="mz" x1="769.28" y1="795.77" x2="723.58" y2="795.77"/>
        <line class="mo" x1="722.81" y1="795.77" x2="721.31" y2="795.77"/>
      </g>
    </g>
    <g id="db" data-name="LINE">
      <g>
        <line class="mo" x1="772.33" y1="810.51" x2="770.83" y2="810.51"/>
        <line class="mz" x1="769.28" y1="810.51" x2="723.58" y2="810.51"/>
        <line class="mo" x1="722.81" y1="810.51" x2="721.31" y2="810.51"/>
      </g>
    </g>
    <g id="dc" data-name="LINE">
      <g>
        <line class="mo" x1="772.33" y1="825.25" x2="770.83" y2="825.25"/>
        <line class="mz" x1="769.28" y1="825.25" x2="723.58" y2="825.25"/>
        <line class="mo" x1="722.81" y1="825.25" x2="721.31" y2="825.25"/>
      </g>
    </g>
    <g id="dd" data-name="LINE">
      <g>
        <line class="mo" x1="750.22" y1="781.03" x2="748.72" y2="781.03"/>
        <line class="lv" x1="747.1" y1="781.03" x2="723.62" y2="781.03"/>
        <line class="mo" x1="722.81" y1="781.03" x2="721.31" y2="781.03"/>
      </g>
    </g>
    <g id="de" data-name="LINE">
      <g>
        <line class="mo" x1="848.87" y1="953.94" x2="850.37" y2="953.94"/>
        <line class="mk" x1="851.87" y1="953.94" x2="977.01" y2="953.94"/>
        <line class="mo" x1="977.76" y1="953.94" x2="979.26" y2="953.94"/>
      </g>
    </g>
    <g id="df" data-name="LINE">
      <g>
        <line class="mo" x1="1007.61" y1="953.94" x2="1009.11" y2="953.94"/>
        <line class="nh" x1="1010.59" y1="953.94" x2="1161.27" y2="953.94"/>
        <line class="mo" x1="1162.01" y1="953.94" x2="1163.51" y2="953.94"/>
      </g>
    </g>
    <g id="dg" data-name="LINE">
      <g>
        <line class="mo" x1="1302.98" y1="826.38" x2="1302.98" y2="824.88"/>
        <line class="ly" x1="1302.98" y1="823.37" x2="1302.98" y2="715.53"/>
        <line class="mo" x1="1302.98" y1="714.78" x2="1302.98" y2="713.28"/>
      </g>
    </g>
    <g id="dh" data-name="LINE">
      <g>
        <line class="mo" x1="1302.98" y1="684.93" x2="1302.98" y2="683.43"/>
        <line class="mn" x1="1302.98" y1="681.96" x2="1302.98" y2="567.55"/>
        <line class="mo" x1="1302.98" y1="566.81" x2="1302.98" y2="565.31"/>
      </g>
    </g>
    <g id="di" data-name="LWPOLYLINE">
      <g>
        <line class="mo" x1="1302.98" y1="536.97" x2="1302.98" y2="535.47"/>
        <line class="ma" x1="1302.98" y1="533.95" x2="1302.98" y2="457.3"/>
        <polyline class="mo" points="1302.98 456.54 1302.98 455.04 1301.48 455.04"/>
        <line class="mv" x1="1299.88" y1="455.04" x2="1291.1" y2="455.04"/>
        <line class="mo" x1="1290.3" y1="455.04" x2="1288.8" y2="455.04"/>
      </g>
    </g>
    <g id="dj" data-name="LWPOLYLINE">
      <g>
        <line class="mo" x1="820.52" y1="953.94" x2="819.02" y2="953.94"/>
        <line class="ni" x1="817.54" y1="953.94" x2="689.53" y2="953.94"/>
        <polyline class="mo" points="688.79 953.94 687.29 953.94 687.29 952.44"/>
        <line class="mo" x1="687.29" y1="949.77" x2="687.29" y2="948.27"/>
      </g>
    </g>
    <g id="dk" data-name="LWPOLYLINE">
      <g>
        <line class="mo" x1="1191.86" y1="953.94" x2="1193.36" y2="953.94"/>
        <polyline class="mf" points="1194.88 953.94 1197.19 953.94 1301.28 862.64"/>
        <polyline class="mo" points="1301.85 862.14 1302.98 861.15 1302.98 859.65"/>
        <line class="mp" x1="1302.98" y1="858.79" x2="1302.98" y2="856.66"/>
        <line class="mo" x1="1302.98" y1="856.23" x2="1302.98" y2="854.73"/>
      </g>
    </g>
    <g id="dl" data-name="LWPOLYLINE">
      <rect class="mo" x="1008.74" y="693.15" width="8.5" height="2.83"/>
    </g>
    <g id="dm" data-name="LWPOLYLINE">
      <rect class="mo" x="825.62" y="606.7" width="3.4" height="3.4"/>
    </g>
    <g id="dn" data-name="LWPOLYLINE">
      <rect class="mo" x="778" y="606.7" width="3.4" height="3.4"/>
    </g>
    <g id="do" data-name="LWPOLYLINE">
      <rect class="mo" x="978.13" y="606.7" width="2.83" height="5.67"/>
    </g>
    <g id="dp" data-name="LWPOLYLINE">
      <rect class="mo" x="831.86" y="606.7" width="2.83" height="5.67"/>
    </g>
    <g id="dq" data-name="LWPOLYLINE">
      <rect class="mo" x="997.4" y="538.95" width="5.67" height="2.83"/>
    </g>
    <g id="dr" data-name="LWPOLYLINE">
      <rect class="mo" x="997.4" y="469.22" width="5.67" height="2.83"/>
    </g>
    <g id="ds" data-name="LWPOLYLINE">
      <rect class="mo" x="848.87" y="931.26" width="2.83" height="5.67"/>
    </g>
    <g id="dt" data-name="LWPOLYLINE">
      <rect class="mo" x="976.43" y="931.26" width="2.83" height="5.67"/>
    </g>
    <g id="du" data-name="LWPOLYLINE">
      <rect class="mo" x="1007.61" y="931.26" width="2.83" height="5.67"/>
    </g>
    <g id="dv" data-name="LWPOLYLINE">
      <rect class="mo" x="1160.68" y="931.26" width="2.83" height="5.67"/>
    </g>
    <g id="dw" data-name="LWPOLYLINE">
      <rect class="mo" x="1280.3" y="823.55" width="5.67" height="2.83"/>
    </g>
    <g id="dx" data-name="LWPOLYLINE">
      <rect class="mo" x="1280.3" y="713.28" width="5.67" height="2.83"/>
    </g>
    <g id="dy" data-name="LWPOLYLINE">
      <rect class="mo" x="1233.81" y="690.32" width="14.17" height="2.83"/>
    </g>
    <g id="dz" data-name="LWPOLYLINE">
      <rect class="mo" x="1233.81" y="557.09" width="14.17" height="2.83"/>
    </g>
    <g id="ea" data-name="LWPOLYLINE">
      <rect class="mo" x="1233.81" y="559.93" width="1.7" height="65.2"/>
    </g>
    <g id="eb" data-name="LWPOLYLINE">
      <rect class="mo" x="1233.81" y="625.12" width="1.7" height="65.2"/>
    </g>
    <g id="ec" data-name="LWPOLYLINE">
      <rect class="mo" x="779.13" y="868.9" width="5.67" height="2.83"/>
    </g>
    <g id="ed" data-name="LWPOLYLINE">
      <rect class="mo" x="779.13" y="908.59" width="5.67" height="2.83"/>
    </g>
    <g id="ee" data-name="LWPOLYLINE">
      <rect class="mo" x="783.1" y="871.74" width="1.7" height="36.85"/>
    </g>
    <g id="ef" data-name="LWPOLYLINE">
      <rect class="mo" x="667.45" y="877.97" width="2.83" height="5.67"/>
    </g>
    <g id="eg" data-name="LWPOLYLINE">
      <rect class="mo" x="622.1" y="881.94" width="45.35" height="1.7"/>
    </g>
    <g id="eh" data-name="LWPOLYLINE">
      <polyline class="mo" points="977.28 936.93 977.28 938.07 978.41 938.07 978.41 936.93"/>
    </g>
    <g id="ei" data-name="LINE">
      <line class="mo" x1="977.84" y1="938.07" x2="977.84" y2="939.77"/>
    </g>
    <g id="ej" data-name="LWPOLYLINE">
      <polyline class="mo" points="976.43 939.07 976.43 939.77 979.26 939.77 979.26 939.08"/>
    </g>
    <g id="ek" data-name="LWPOLYLINE">
      <polyline class="mo" points="849.72 936.93 849.72 938.07 850.85 938.07 850.85 936.93"/>
    </g>
    <g id="el" data-name="LINE">
      <line class="mo" x1="850.28" y1="938.07" x2="850.28" y2="939.77"/>
    </g>
    <g id="em" data-name="LWPOLYLINE">
      <polyline class="mo" points="848.87 939.07 848.87 939.77 851.7 939.77 851.7 939.08"/>
    </g>
    <g id="en" data-name="LWPOLYLINE">
      <polyline class="mo" points="1008.46 936.93 1008.46 938.07 1009.59 938.07 1009.59 936.93"/>
    </g>
    <g id="eo" data-name="LINE">
      <line class="mo" x1="1009.02" y1="938.07" x2="1009.02" y2="939.77"/>
    </g>
    <g id="ep" data-name="LWPOLYLINE">
      <polyline class="mo" points="1007.61 939.07 1007.61 939.77 1010.44 939.77 1010.44 939.08"/>
    </g>
    <g id="eq" data-name="LWPOLYLINE">
      <polyline class="mo" points="1161.53 936.93 1161.53 938.07 1162.66 938.07 1162.66 936.93"/>
    </g>
    <g id="er" data-name="LINE">
      <line class="mo" x1="1162.1" y1="938.07" x2="1162.1" y2="939.77"/>
    </g>
    <g id="es" data-name="LWPOLYLINE">
      <polyline class="mo" points="1160.68 939.07 1160.68 939.77 1163.51 939.77 1163.51 939.08"/>
    </g>
    <g id="et" data-name="LWPOLYLINE">
      <polyline class="mo" points="1285.97 825.53 1287.1 825.53 1287.1 824.4 1285.97 824.4"/>
    </g>
    <g id="eu" data-name="LINE">
      <line class="mo" x1="1287.1" y1="824.97" x2="1288.8" y2="824.97"/>
    </g>
    <g id="ev" data-name="LWPOLYLINE">
      <polyline class="mo" points="1288.1 826.38 1288.8 826.38 1288.8 823.55 1288.11 823.55"/>
    </g>
    <g id="ew" data-name="LWPOLYLINE">
      <polyline class="mo" points="1285.97 715.26 1287.1 715.26 1287.1 714.13 1285.97 714.13"/>
    </g>
    <g id="ex" data-name="LINE">
      <line class="mo" x1="1287.1" y1="714.7" x2="1288.8" y2="714.7"/>
    </g>
    <g id="ey" data-name="LWPOLYLINE">
      <polyline class="mo" points="1288.1 716.12 1288.8 716.12 1288.8 713.28 1288.11 713.28"/>
    </g>
    <g id="ez" data-name="LWPOLYLINE">
      <rect class="mo" x="1275.77" y="535.55" width="3.4" height="3.4"/>
    </g>
    <g id="fa" data-name="LWPOLYLINE">
      <rect class="mo" x="1275.76" y="472.05" width="3.4" height="3.4"/>
    </g>
    <g id="fb" data-name="LWPOLYLINE">
      <rect class="mo" x="711.39" y="684.08" width="3.4" height="3.4"/>
    </g>
    <g id="fc" data-name="LWPOLYLINE">
      <rect class="mo" x="711.39" y="636.46" width="3.4" height="3.4"/>
    </g>
    <g id="fd" data-name="LWPOLYLINE">
      <rect class="mo" x="619.26" y="877.97" width="2.83" height="5.67"/>
    </g>
    <g id="fe" data-name="LWPOLYLINE">
      <rect class="mo" x="1271.51" y="538.95" width="5.67" height="2.83"/>
    </g>
    <g id="ff" data-name="LWPOLYLINE">
      <polyline class="mo" points="1277.18 540.93 1278.32 540.93 1278.32 539.8 1277.18 539.8"/>
    </g>
    <g id="fg" data-name="LINE">
      <line class="mo" x1="1278.32" y1="540.37" x2="1280.02" y2="540.37"/>
    </g>
    <g id="fh" data-name="LWPOLYLINE">
      <polyline class="mo" points="1279.32 541.78 1280.02 541.78 1280.02 538.95 1279.33 538.95"/>
    </g>
    <g id="fi" data-name="LWPOLYLINE">
      <rect class="mo" x="1271.51" y="469.22" width="5.67" height="2.83"/>
    </g>
    <g id="fj" data-name="LWPOLYLINE">
      <polyline class="mo" points="1277.18 471.2 1278.32 471.2 1278.32 470.07 1277.18 470.07"/>
    </g>
    <g id="fk" data-name="LINE">
      <line class="mo" x1="1278.32" y1="470.63" x2="1280.02" y2="470.63"/>
    </g>
    <g id="fl" data-name="LWPOLYLINE">
      <polyline class="mo" points="1279.32 472.05 1280.02 472.05 1280.02 469.22 1279.33 469.22"/>
    </g>
    <g id="fm" data-name="LWPOLYLINE">
      <rect class="mo" x="712.8" y="633.63" width="8.5" height="2.83"/>
    </g>
    <g id="fn" data-name="LWPOLYLINE">
      <polyline class="mo" points="712.8 634.48 711.67 634.48 711.67 635.61 712.8 635.61"/>
    </g>
    <g id="fo" data-name="LINE">
      <line class="mo" x1="711.67" y1="635.04" x2="709.97" y2="635.04"/>
    </g>
    <g id="fp" data-name="LWPOLYLINE">
      <polyline class="mo" points="710.67 633.63 709.97 633.63 709.97 636.46 710.66 636.46"/>
    </g>
    <g id="fq" data-name="LWPOLYLINE">
      <rect class="mo" x="712.8" y="687.49" width="8.5" height="2.83"/>
    </g>
    <g id="fr" data-name="LWPOLYLINE">
      <polyline class="mo" points="712.8 688.34 711.67 688.34 711.67 689.47 712.8 689.47"/>
    </g>
    <g id="fs" data-name="LINE">
      <line class="mo" x1="711.67" y1="688.9" x2="709.97" y2="688.9"/>
    </g>
    <g id="ft" data-name="LWPOLYLINE">
      <polyline class="mo" points="710.67 687.49 709.97 687.49 709.97 690.32 710.66 690.32"/>
    </g>
    <g id="fu" data-name="LWPOLYLINE">
      <rect class="mo" x="775.17" y="608.12" width="2.83" height="14.17"/>
    </g>
    <g id="fv" data-name="LWPOLYLINE">
      <polyline class="mo" points="777.15 608.12 777.15 606.98 776.02 606.98 776.02 608.12"/>
    </g>
    <g id="fw" data-name="LINE">
      <line class="mo" x1="776.58" y1="606.98" x2="776.58" y2="605.28"/>
    </g>
    <g id="fx" data-name="LWPOLYLINE">
      <polyline class="mo" points="778 605.98 778 605.28 775.17 605.28 775.17 605.97"/>
    </g>
    <g id="fy" data-name="LWPOLYLINE">
      <rect class="mo" x="829.01" y="608.12" width="2.83" height="14.17"/>
    </g>
    <g id="fz" data-name="LWPOLYLINE">
      <polyline class="mo" points="831 608.12 831 606.98 829.86 606.98 829.86 608.12"/>
    </g>
    <g id="ga" data-name="LINE">
      <line class="mo" x1="830.43" y1="606.98" x2="830.43" y2="605.28"/>
    </g>
    <g id="gb" data-name="LWPOLYLINE">
      <polyline class="mo" points="831.85 605.98 831.85 605.28 829.01 605.28 829.01 605.97"/>
    </g>
    <g id="gc" data-name="LWPOLYLINE">
      <rect class="mo" x="980.95" y="608.12" width="2.83" height="14.17"/>
    </g>
    <g id="gd" data-name="LWPOLYLINE">
      <polyline class="mo" points="982.94 608.12 982.94 606.98 981.8 606.98 981.8 608.12"/>
    </g>
    <g id="ge" data-name="LINE">
      <line class="mo" x1="982.37" y1="606.98" x2="982.37" y2="605.28"/>
    </g>
    <g id="gf" data-name="LWPOLYLINE">
      <polyline class="mo" points="983.79 605.98 983.79 605.28 980.95 605.28 980.95 605.97"/>
    </g>
    <g id="gg" data-name="LWPOLYLINE">
      <rect class="mo" x="997.4" y="538.95" width="5.67" height="2.83"/>
    </g>
    <g id="gh" data-name="LWPOLYLINE">
      <polyline class="mo" points="997.4 540.93 996.27 540.93 996.27 539.8 997.4 539.8"/>
    </g>
    <g id="gi" data-name="LINE">
      <line class="mo" x1="996.27" y1="540.37" x2="994.57" y2="540.37"/>
    </g>
    <g id="gj" data-name="LWPOLYLINE">
      <polyline class="mo" points="995.27 541.78 994.57 541.78 994.57 538.95 995.26 538.95"/>
    </g>
    <g id="gk" data-name="LWPOLYLINE">
      <rect class="mo" x="997.4" y="469.22" width="5.67" height="2.83"/>
    </g>
    <g id="gl" data-name="LWPOLYLINE">
      <polyline class="mo" points="997.4 471.2 996.27 471.2 996.27 470.07 997.4 470.07"/>
    </g>
    <g id="gm" data-name="LINE">
      <line class="mo" x1="996.27" y1="470.63" x2="994.57" y2="470.63"/>
    </g>
    <g id="gn" data-name="LWPOLYLINE">
      <polyline class="mo" points="995.27 472.05 994.57 472.05 994.57 469.22 995.26 469.22"/>
    </g>
    <g id="go" data-name="LWPOLYLINE">
      <rect class="mo" x="1187.76" y="931.74" width="2.83" height="5.67" transform="translate(-320.93 1019.16) rotate(-41.37)"/>
    </g>
    <g id="gp" data-name="LWPOLYLINE">
      <polyline class="mo" points="1190.63 937.08 1191.38 937.93 1192.23 937.18 1191.48 936.33"/>
    </g>
    <g id="gq" data-name="LINE">
      <line class="mo" x1="1191.8" y1="937.56" x2="1192.92" y2="938.83"/>
    </g>
    <g id="gr" data-name="LWPOLYLINE">
      <polyline class="mo" points="1191.4 939.24 1191.86 939.77 1193.99 937.9 1193.53 937.38"/>
    </g>
    <g id="gs" data-name="LWPOLYLINE">
      <rect class="mo" x="1282.58" y="848.58" width="2.83" height="5.67" transform="translate(-242.3 1061.07) rotate(-41.37)"/>
    </g>
    <g id="gt" data-name="LWPOLYLINE">
      <polyline class="mo" points="1285.44 853.91 1286.19 854.76 1287.04 854.02 1286.29 853.16"/>
    </g>
    <g id="gu" data-name="LINE">
      <line class="mo" x1="1286.62" y1="854.39" x2="1287.74" y2="855.67"/>
    </g>
    <g id="gv" data-name="LWPOLYLINE">
      <polyline class="mo" points="1286.21 856.08 1286.68 856.6 1288.8 854.73 1288.35 854.21"/>
    </g>
    <g id="gw" data-name="LINE">
      <line class="mo" x1="825.62" y1="606.7" x2="781.4" y2="606.7"/>
    </g>
    <g id="gx" data-name="LINE">
      <line class="mo" x1="825.62" y1="610.1" x2="781.4" y2="610.1"/>
    </g>
    <g id="gy" data-name="LINE">
      <line class="mo" x1="978.13" y1="606.7" x2="834.69" y2="606.7"/>
    </g>
    <g id="gz" data-name="LINE">
      <line class="mo" x1="978.13" y1="612.37" x2="834.69" y2="612.37"/>
    </g>
    <g id="ha" data-name="LINE">
      <line class="mo" x1="994.57" y1="472.05" x2="994.57" y2="538.95"/>
    </g>
    <g id="hb" data-name="LINE">
      <line class="mo" x1="1003.07" y1="538.95" x2="1003.07" y2="472.05"/>
    </g>
    <g id="hc" data-name="LINE">
      <line class="mo" x1="851.7" y1="931.26" x2="976.43" y2="931.26"/>
    </g>
    <g id="hd" data-name="LINE">
      <line class="mo" x1="851.7" y1="939.77" x2="976.43" y2="939.77"/>
    </g>
    <g id="he" data-name="LINE">
      <line class="mo" x1="1010.44" y1="931.26" x2="1160.68" y2="931.26"/>
    </g>
    <g id="hf" data-name="LINE">
      <line class="mo" x1="1193.99" y1="937.89" x2="1286.67" y2="856.6"/>
    </g>
    <g id="hg" data-name="LINE">
      <line class="mo" x1="1280.3" y1="823.55" x2="1280.3" y2="716.12"/>
    </g>
    <g id="hh" data-name="LINE">
      <line class="mo" x1="1010.44" y1="939.77" x2="1160.68" y2="939.77"/>
    </g>
    <g id="hi" data-name="LINE">
      <line class="mo" x1="1288.8" y1="716.12" x2="1288.8" y2="823.55"/>
    </g>
    <g id="hj" data-name="LINE">
      <line class="mo" x1="1279.17" y1="535.55" x2="1279.17" y2="475.45"/>
    </g>
    <g id="hk" data-name="LINE">
      <line class="mo" x1="1275.76" y1="535.55" x2="1275.76" y2="475.45"/>
    </g>
    <g id="hl" data-name="LINE">
      <line class="mo" x1="714.79" y1="684.08" x2="714.79" y2="639.86"/>
    </g>
    <g id="hm" data-name="LINE">
      <line class="mo" x1="711.39" y1="684.08" x2="711.39" y2="639.86"/>
    </g>
    <g id="hn" data-name="LINE">
      <line class="mo" x1="1188.37" y1="931.51" x2="1281.06" y2="850.22"/>
    </g>
    <g id="ho" data-name="LWPOLYLINE">
      <g>
        <line class="lt" x1="1008.74" y1="694.86" x2="1008.74" y2="695.86"/>
        <line class="nb" x1="1008.74" y1="696.86" x2="1008.74" y2="744.38"/>
        <polyline class="lt" points="1008.74 744.88 1008.74 745.88 1009.31 745.88 1009.31 744.88"/>
        <line class="nb" x1="1009.31" y1="743.88" x2="1009.31" y2="696.36"/>
        <line class="lt" x1="1009.31" y1="695.86" x2="1009.31" y2="694.86"/>
      </g>
    </g>
    <g id="hp" data-name="ARC">
      <g>
        <path class="lt" d="M1008.74,745.88c.33,0,.67,0,1,0"/>
        <path class="mh" d="M1010.73,745.84c26.76-1.03,48.24-22.66,49.01-49.49"/>
        <path class="lt" d="M1059.75,695.86c0-.33,0-.67,0-1"/>
      </g>
    </g>
    <g id="hq" data-name="LWPOLYLINE">
      <g>
        <polyline class="lt" points="779 606.7 778 606.7 778 605.7"/>
        <line class="nb" x1="778" y1="604.7" x2="778" y2="557.18"/>
        <polyline class="lt" points="778 556.67 778 555.67 779 555.67"/>
        <polyline class="lt" points="780.4 555.67 781.4 555.67 781.4 556.67"/>
        <line class="nb" x1="781.4" y1="557.68" x2="781.4" y2="605.2"/>
        <polyline class="lt" points="781.4 605.7 781.4 606.7 780.4 606.7"/>
      </g>
    </g>
    <g id="hr" data-name="ARC">
      <g>
        <path class="lt" d="M829.02,606.7c0-.33,0-.67,0-1"/>
        <path class="ms" d="M828.99,604.71c-1.03-26.76-22.66-48.24-49.49-49.01"/>
        <path class="lt" d="M779,555.68c-.33,0-.67,0-1,0"/>
      </g>
    </g>
    <g id="hs" data-name="LWPOLYLINE">
      <g>
        <polyline class="lt" points="710.39 636.46 711.39 636.46 711.39 637.46"/>
        <polyline class="lt" points="711.39 638.86 711.39 639.86 710.39 639.86"/>
        <line class="nb" x1="709.39" y1="639.86" x2="661.86" y2="639.86"/>
        <polyline class="lt" points="661.36 639.86 660.36 639.86 660.36 638.86"/>
        <polyline class="lt" points="660.36 637.46 660.36 636.46 661.36 636.46"/>
        <line class="nb" x1="662.36" y1="636.46" x2="709.89" y2="636.46"/>
      </g>
    </g>
    <g id="ht" data-name="ARC">
      <g>
        <path class="lt" d="M660.36,636.46c0,.33,0,.67,0,1"/>
        <path class="mh" d="M660.4,638.45c1.03,26.76,22.66,48.24,49.49,49.01"/>
        <path class="lt" d="M710.39,687.48c.33,0,.67,0,1,0"/>
      </g>
    </g>
    <g id="hu" data-name="LWPOLYLINE">
      <g>
        <polyline class="lt" points="1232.81 559.93 1233.81 559.93 1233.81 561.63 1232.81 561.63"/>
        <line class="no" x1="1231.82" y1="561.63" x2="1170.11" y2="561.63"/>
        <polyline class="lt" points="1169.61 561.63 1168.61 561.63 1168.61 559.93 1169.61 559.93"/>
        <line class="no" x1="1170.6" y1="559.93" x2="1232.32" y2="559.93"/>
      </g>
    </g>
    <g id="hv" data-name="LWPOLYLINE">
      <g>
        <polyline class="lt" points="1232.81 690.32 1233.81 690.32 1233.81 688.62 1232.81 688.62"/>
        <line class="no" x1="1231.82" y1="688.62" x2="1170.11" y2="688.62"/>
        <polyline class="lt" points="1169.61 688.62 1168.61 688.62 1168.61 690.32 1169.61 690.32"/>
        <line class="no" x1="1170.6" y1="690.32" x2="1232.32" y2="690.32"/>
      </g>
    </g>
    <g id="hw" data-name="ARC">
      <g>
        <path class="lt" d="M1168.61,559.93c0,.33,0,.67,0,1"/>
        <path class="mw" d="M1168.65,561.93c1.04,34.58,29.02,62.4,63.67,63.18"/>
        <path class="lt" d="M1232.81,625.12c.33,0,.67,0,1,0"/>
      </g>
    </g>
    <g id="hx" data-name="ARC">
      <g>
        <path class="lt" d="M1233.81,625.12c-.33,0-.67,0-1,0"/>
        <path class="mw" d="M1231.81,625.15c-34.58,1.04-62.4,29.02-63.18,63.67"/>
        <path class="lt" d="M1168.62,689.32c0,.33,0,.67,0,1"/>
      </g>
    </g>
    <g id="hy" data-name="LWPOLYLINE">
      <g>
        <polyline class="lt" points="1280.17 475.45 1279.17 475.45 1279.17 474.45"/>
        <polyline class="lt" points="1279.17 473.05 1279.17 472.05 1280.17 472.05"/>
        <line class="mt" x1="1281.18" y1="472.05" x2="1344.56" y2="472.05"/>
        <polyline class="lt" points="1345.06 472.05 1346.06 472.05 1346.06 473.05"/>
        <polyline class="lt" points="1346.06 474.45 1346.06 475.45 1345.06 475.45"/>
        <line class="mt" x1="1344.05" y1="475.45" x2="1280.67" y2="475.45"/>
      </g>
    </g>
    <g id="hz" data-name="ARC">
      <g>
        <path class="lt" d="M1279.17,538.95c.33,0,.67,0,1,0"/>
        <path class="nj" d="M1281.17,538.92c35.53-1.04,64.1-29.78,64.88-65.38"/>
        <path class="lt" d="M1346.06,473.05c0-.33,0-.67,0-1"/>
      </g>
    </g>
    <g id="ia" data-name="LWPOLYLINE">
      <g>
        <polyline class="lt" points="785.8 908.59 784.8 908.59 784.8 906.89 785.8 906.89"/>
        <line class="mi" x1="786.83" y1="906.89" x2="820.14" y2="906.89"/>
        <polyline class="lt" points="820.65 906.89 821.65 906.89 821.65 908.59 820.65 908.59"/>
        <line class="mi" x1="819.63" y1="908.59" x2="786.32" y2="908.59"/>
      </g>
    </g>
    <g id="ib" data-name="ARC">
      <g>
        <path class="lt" d="M821.65,908.59c0-.33,0-.67-.01-1"/>
        <path class="lw" d="M821.6,906.57c-1.02-18.92-16.3-34.04-35.29-34.8"/>
        <path class="lt" d="M785.8,871.75c-.33,0-.67-.01-1-.01"/>
      </g>
    </g>
    <g id="ic" data-name="LWPOLYLINE">
      <g>
        <polyline class="lt" points="622.1 884.64 622.1 883.64 623.8 883.64 623.8 884.64"/>
        <line class="mg" x1="623.8" y1="885.65" x2="623.8" y2="927.49"/>
        <polyline class="lt" points="623.8 928 623.8 929 622.1 929 622.1 928"/>
        <line class="mg" x1="622.1" y1="926.99" x2="622.1" y2="885.15"/>
      </g>
    </g>
    <g id="id" data-name="ARC">
      <g>
        <path class="lt" d="M622.1,929c.33,0,.67,0,1-.01"/>
        <path class="ne" d="M624.08,928.95c23.63-1.02,42.57-20.12,43.34-43.82"/>
        <path class="lt" d="M667.44,884.64c0-.33.01-.67.01-1"/>
      </g>
    </g>
    <g id="ie" data-name="LWPOLYLINE">
      <polyline class="lt" points="783.91 789.46 753.66 781.89 750.76 786.18 749.68 775.88 746.78 780.17 716.54 772.6"/>
    </g>
    <g id="if" data-name="CIRCLE">
      <circle class="lt" cx="829.02" cy="670.48" r="1.42"/>
    </g>
    <g id="ig" data-name="CIRCLE">
      <circle class="lt" cx="1223.04" cy="542.92" r="1.42"/>
    </g>
    <g id="ih" data-name="LWPOLYLINE">
      <polyline class="lt" points="1223.04 542.92 1223.04 506.07 1051.83 506.07 1051.83 540.08"/>
    </g>
    <g id="ii" data-name="LWPOLYLINE">
      <polyline class="lt" points="1055.03 536.88 1051.83 540.08 1048.62 536.88"/>
    </g>
    <g id="ij" data-name="LWPOLYLINE">
      <polyline class="lt" points="829.02 670.48 746.82 670.48 746.82 771.48"/>
    </g>
    <g id="ik" data-name="LWPOLYLINE">
      <polyline class="lt" points="750.03 768.27 746.82 771.48 743.61 768.27"/>
    </g>
    <g id="il" data-name="LWPOLYLINE">
      <polyline class="lt" points="778.01 622.12 778.01 636.29 721.31 636.46"/>
    </g>
    <g id="im" data-name="LWPOLYLINE">
      <polyline class="lt" points="1001.94 690.32 1001.94 631.36 983.8 631.36"/>
    </g>
    <g id="in" data-name="LWPOLYLINE">
      <polyline class="lt" points="800.68 729.49 800.68 713 826.19 713 826.19 748.71 800.68 748.71 800.68 732.22"/>
    </g>
    <g id="io" data-name="LWPOLYLINE">
      <rect class="lt" x="790.47" y="836.02" width="34.02" height="32.88"/>
    </g>
    <g id="ip" data-name="LWPOLYLINE">
      <polyline class="lt" points="784.8 908.87 829.02 908.87 829.02 931.26"/>
    </g>
    <g id="iq" data-name="LWPOLYLINE">
      <path class="lt" d="M743.13,932.68h-28.63v-24.38h28.63c6.73,0,12.19,5.46,12.19,12.19s-5.46,12.19-12.19,12.19Z"/>
    </g>
    <g id="ir" data-name="LWPOLYLINE">
      <rect class="lt" x="735.48" y="843.91" width="1.42" height="10.2"/>
    </g>
    <g id="is" data-name="LWPOLYLINE">
      <polyline class="lt" points="736.9 848.3 752.77 848.3 752.77 867.3 719.61 867.3 719.61 848.3 735.48 848.3"/>
    </g>
    <g id="it" data-name="LINE">
      <line class="lt" x1="761.28" y1="868.9" x2="712.8" y2="868.9"/>
    </g>
    <g id="iu" data-name="LWPOLYLINE">
      <path class="lt" d="M805.55,729.49h-9.13v2.72h9.13c.75,0,1.36-.61,1.36-1.36s-.61-1.36-1.36-1.36Z"/>
    </g>
    <g id="iv" data-name="LWPOLYLINE">
      <polyline class="lt" points="1003.07 542.92 1025.75 542.92 1025.75 469.22"/>
    </g>
    <g id="iw" data-name="LWPOLYLINE">
      <polyline class="lt" points="784.8 707.33 829.02 707.33 829.02 868.9 824.49 868.9"/>
    </g>
    <g id="ix" data-name="LINE">
      <line class="lt" x1="790.47" y1="868.9" x2="784.8" y2="868.9"/>
    </g>
    <g id="iy" data-name="LINE">
      <line class="lt" x1="1025.75" y1="542.92" x2="1247.98" y2="542.92"/>
    </g>
    <g id="iz" data-name="LINE">
      <line class="lt" x1="1249.12" y1="541.78" x2="1249.12" y2="469.22"/>
    </g>
    <g id="ja" data-name="LWPOLYLINE">
      <rect class="nd" x="829.02" y="622.29" width="11.34" height="11.34"/>
    </g>
    <g id="jb" data-name="LWPOLYLINE">
      <rect class="nd" x="829.7" y="622.97" width="9.98" height="9.98"/>
    </g>
    <g id="jc" data-name="LWPOLYLINE">
      <rect class="nd" x="709.97" y="622.29" width="11.34" height="11.34"/>
    </g>
    <g id="jd" data-name="LWPOLYLINE">
      <rect class="nd" x="710.65" y="622.97" width="9.98" height="9.98"/>
    </g>
    <g id="je" data-name="LWPOLYLINE">
      <polyline class="nd" points="984.93 690.32 983.8 690.32 983.8 725.47 1003.07 725.47 1003.07 690.32 1001.94 690.32"/>
    </g>
    <g id="jf" data-name="LWPOLYLINE">
      <polyline class="nd" points="1003.07 931.26 1003.07 898.95 983.8 898.95 983.8 931.26"/>
    </g>
    <g id="jg" data-name="LWPOLYLINE">
      <polyline class="nd" points="1280.3 708.46 1247.98 708.46 1247.98 689.19 1288.8 689.19"/>
    </g>
    <g id="jh" data-name="LWPOLYLINE">
      <polyline class="nd" points="1288.8 541.78 1247.98 541.78 1247.98 561.06 1288.8 561.06"/>
    </g>
    <g id="ji" data-name="LWPOLYLINE">
      <polyline class="nd" points="1001.94 559.93 1003.07 559.93 1003.07 541.78 983.8 541.78 983.8 559.93 984.93 559.93"/>
    </g>
    <g id="jj" data-name="LINE">
      <line class="nd" x1="670.28" y1="883.64" x2="687.29" y2="883.64"/>
    </g>
    <g id="jk" data-name="LINE">
      <line class="nd" x1="670.28" y1="877.97" x2="687.29" y2="877.97"/>
    </g>
    <g id="jl" data-name="LWPOLYLINE">
      <rect class="nd" x="979.26" y="939.77" width="28.35" height="14.17"/>
    </g>
    <g id="jm" data-name="LWPOLYLINE">
      <rect class="nd" x="1163.51" y="939.77" width="28.35" height="14.17"/>
    </g>
    <g id="jn" data-name="LWPOLYLINE">
      <rect class="nd" x="820.52" y="939.77" width="28.35" height="14.17"/>
    </g>
    <g id="jo" data-name="LWPOLYLINE">
      <rect class="nd" x="1288.8" y="826.38" width="14.17" height="28.35"/>
    </g>
    <g id="jp" data-name="LWPOLYLINE">
      <rect class="nd" x="1288.8" y="684.93" width="14.17" height="28.35"/>
    </g>
    <g id="jq" data-name="LWPOLYLINE">
      <rect class="nd" x="1288.8" y="539.8" width="14.17" height="22.68"/>
    </g>
    <g id="jr" data-name="LINE">
      <line class="mc" x1="820.52" y1="939.77" x2="709.97" y2="939.77"/>
    </g>
    <g id="js" data-name="LWPOLYLINE">
      <polyline class="mc" points="692.96 939.77 692.96 945.44 820.52 945.44"/>
    </g>
    <g id="jt" data-name="LWPOLYLINE">
      <polyline class="mc" points="715.64 690.32 715.64 836.59 704.3 836.59"/>
    </g>
    <g id="ju" data-name="LINE">
      <line class="me" x1="692.96" y1="724.34" x2="692.96" y2="900.08"/>
    </g>
    <g id="jv" data-name="LINE">
      <line class="me" x1="704.3" y1="724.34" x2="704.3" y2="900.08"/>
    </g>
    <g id="jw" data-name="LWPOLYLINE">
      <polyline class="me" points="775.17 610.95 692.96 610.95 692.96 633.63 704.3 633.63 704.3 622.29 775.17 622.29"/>
    </g>
    <g id="jx" data-name="LWPOLYLINE">
      <polyline class="me" points="987.76 559.93 987.76 628.52 999.1 628.52 999.1 559.93"/>
    </g>
    <g id="jy" data-name="LWPOLYLINE">
      <polygon class="me" points="619.26 953.94 619.26 448.24 1006.19 448.24 1006.19 455.04 989.18 455.04 989.18 466.38 1288.8 466.38 1288.8 455.04 1017.53 455.04 1017.53 448.24 1049.56 448.24 1049.56 436.9 607.92 436.9 607.92 953.94 619.26 953.94"/>
    </g>
    <g id="jz" data-name="LINE">
      <line class="nf" x1="1001.94" y1="559.93" x2="1001.94" y2="631.36"/>
    </g>
    <g id="ka" data-name="LWPOLYLINE">
      <rect class="nf" x="766.95" y="841.97" width="12.19" height="20.98"/>
    </g>
    <g id="kb" data-name="LWPOLYLINE">
      <polyline class="nf" points="775.17 605.28 687.29 605.28 687.29 636.46 709.97 636.46"/>
    </g>
    <g id="kc" data-name="LWPOLYLINE">
      <polyline class="nf" points="989.18 466.38 989.18 469.22 1288.8 469.22 1288.8 466.38"/>
    </g>
    <g id="kd" data-name="LWPOLYLINE">
      <polyline class="nf" points="820.52 948.27 687.29 948.27 687.29 687.49 709.97 687.49"/>
    </g>
    <g id="ke" data-name="LWPOLYLINE">
      <polyline class="nf" points="779.13 911.42 779.13 936.93 712.8 936.93 712.8 842.26 761.28 842.26 761.28 868.9 784.8 868.9 784.8 707.33 772.33 707.33 772.33 836.59 721.31 836.59 721.31 690.32"/>
    </g>
    <g id="kf" data-name="LINE">
      <line class="nf" x1="983.8" y1="559.93" x2="983.8" y2="690.32"/>
    </g>
    <g id="kg" data-name="LWPOLYLINE">
      <polyline class="nf" points="1288.8 713.28 1280.3 713.28 1280.3 707.33"/>
    </g>
    <g id="kh" data-name="LWPOLYLINE">
      <polyline class="nf" points="1288.8 826.38 1280.3 826.38 1280.3 831.34"/>
    </g>
    <g id="ki" data-name="LWPOLYLINE">
      <polyline class="nf" points="1163.51 939.77 1163.51 931.26 1169.18 931.26"/>
    </g>
    <g id="kj" data-name="LWPOLYLINE">
      <polyline class="nf" points="1007.61 939.77 1007.61 931.26 1001.94 931.26"/>
    </g>
    <g id="kk" data-name="LWPOLYLINE">
      <polyline class="nf" points="979.26 939.77 979.26 931.26 984.93 931.26"/>
    </g>
    <g id="kl" data-name="LWPOLYLINE">
      <polyline class="nf" points="848.87 939.77 848.87 931.26 829.02 931.26 829.02 936.93 784.8 936.93 784.8 911.42"/>
    </g>
    <g id="km" data-name="LINE">
      <line class="nf" x1="1281.06" y1="850.22" x2="1281.06" y2="848.35"/>
    </g>
    <g id="kn" data-name="LINE">
      <line class="nf" x1="1188.37" y1="931.51" x2="1186.19" y2="931.51"/>
    </g>
    <g id="ko" data-name="LWPOLYLINE">
      <rect class="lx" x="984.93" y="690.32" width="17.01" height="34.02"/>
    </g>
    <g id="kp" data-name="LWPOLYLINE">
      <rect class="lx" x="984.93" y="900.08" width="17.01" height="39.69"/>
    </g>
    <g id="kq" data-name="LWPOLYLINE">
      <rect class="lx" x="1169.18" y="900.08" width="17.01" height="39.69"/>
    </g>
    <g id="kr" data-name="LWPOLYLINE">
      <rect class="lx" x="692.96" y="900.08" width="17.01" height="39.69"/>
    </g>
    <g id="ks" data-name="LWPOLYLINE">
      <rect class="lx" x="1249.12" y="831.34" width="39.69" height="17.01"/>
    </g>
    <g id="kt" data-name="LWPOLYLINE">
      <rect class="lx" x="1249.12" y="690.32" width="39.69" height="17.01"/>
    </g>
    <g id="ku" data-name="LWPOLYLINE">
      <rect class="lx" x="1249.12" y="542.92" width="39.69" height="17.01"/>
    </g>
    <g id="kv" data-name="LWPOLYLINE">
      <rect class="lx" x="692.96" y="690.32" width="17.01" height="34.02"/>
    </g>
    <g id="kw" data-name="LWPOLYLINE">
      <rect class="lx" x="984.93" y="542.92" width="17.01" height="17.01"/>
    </g>
    <g id="kx" data-name="HATCH">
      <path class="mj" d="M619.26,452.16h386.93M619.26,488.16h375.31M619.26,524.16h375.31M619.26,560.16h253.98M619.26,596.16h253.98M619.26,632.16h68.03M619.26,668.16h92.13M619.26,704.16h68.03M619.26,740.16h68.03M619.26,776.16h68.03M619.26,812.16h68.03M619.26,848.16h68.03M634.27,881.94v-433.7M670.27,877.97v-429.73M706.27,687.49v-51.02M706.27,605.28v-157.04M742.27,605.28v-157.04M778.27,606.7v-158.46M814.27,606.7v-158.46M850.27,606.7v-158.46M886.27,558.79v-110.55M922.27,558.79v-110.55M958.27,558.79v-110.55M994.27,541.78v-72.57M994.27,455.04v-6.8"/>
    </g>
  </g>
  <g id="lf" data-name="SCALE">
    <g>
      <g id="lg" data-name="CIRCLE">
        <circle class="lt" cx="214.88" cy="1280.43" r="14.88"/>
      </g>
      <g id="lh" data-name="TEXT">
        <path class="mm" d="M224.5,1264.9l-.86-.35-1.27-8.05-2.62,6.47-.84-.34,3.28-8.1.87.35,1.26,8.02,2.61-6.45.84.34-3.28,8.1Z"/>
      </g>
      <g id="li" data-name="HATCH">
        <path class="ls" d="M220.46,1266.63c-.23-.09-.46-.18-.7-.26l-5.57,13.78.69.28,5.58-13.8Z"/>
      </g>
      <g id="lj" data-name="HATCH">
        <path class="ls" d="M221.15,1266.93c-.23-.1-.45-.2-.69-.3l-5.58,13.8.69.28,5.57-13.78Z"/>
      </g>
      <g id="lk" data-name="LINE">
        <line class="mx" x1="219.76" y1="1266.37" x2="214.19" y2="1280.14"/>
      </g>
      <g id="ll" data-name="LINE">
        <line class="mx" x1="221.15" y1="1266.93" x2="215.57" y2="1280.71"/>
      </g>
      <g id="lm" data-name="LINE">
        <line class="mx" x1="214.88" y1="1280.43" x2="220.46" y2="1266.63"/>
      </g>
      <g id="ln" data-name="MTEXT">
        <path class="mm" d="M281.36,1295.9c-.63-.5-1.13-1.2-1.49-2.1-.36-.9-.54-1.92-.54-3.06s.18-2.14.54-3.04c.36-.9.85-1.59,1.49-2.1.63-.5,1.36-.75,2.17-.75s1.53.25,2.17.75c.63.5,1.13,1.2,1.49,2.1.36.9.54,1.91.54,3.04s-.18,2.16-.54,3.05c-.36.89-.85,1.59-1.49,2.1s-1.36.76-2.17.76-1.53-.25-2.17-.75ZM285.01,1294.86c.44-.41.78-.96,1.02-1.67.24-.71.36-1.52.36-2.44s-.12-1.73-.36-2.45c-.24-.71-.58-1.27-1.02-1.67-.44-.4-.93-.6-1.49-.6s-1.05.2-1.48.6c-.43.4-.77.96-1.02,1.67-.25.71-.37,1.53-.37,2.43s.12,1.75.37,2.46c.25.71.58,1.27,1.02,1.67s.93.61,1.48.61,1.05-.2,1.49-.61Z"/>
      </g>
      <g id="lo" data-name="MTEXT">
        <path class="mm" d="M393.68,1294.72c.19-.17.42-.38.71-.64.93-.85,1.67-1.57,2.24-2.15.57-.58,1.05-1.17,1.44-1.78s.59-1.16.59-1.67c0-.48-.09-.9-.28-1.27s-.45-.66-.78-.86-.71-.31-1.15-.31c-.47,0-.93.16-1.37.48-.44.32-.78.73-1,1.23l-1.2-.51c.3-.7.78-1.28,1.46-1.73.67-.45,1.38-.67,2.11-.67.69,0,1.31.16,1.85.46.54.31.96.74,1.26,1.29.3.55.45,1.18.45,1.9s-.22,1.41-.67,2.14c-.45.73-.98,1.41-1.6,2.04-.62.63-1.42,1.39-2.42,2.27-.49.45-.95.88-1.39,1.3l-.94-.85c.28-.27.51-.49.7-.66ZM392.98,1295.38h7.22v1.18h-7.04l-.18-1.18Z"/>
      </g>
      <g id="lp" data-name="MTEXT">
        <path class="mm" d="M340.34,1296.54h-1.34v-10.08l-1.86,1.2-.67-1.07,2.54-1.62h1.33v11.57Z"/>
      </g>
      <g id="lq" data-name="MTEXT">
        <g>
          <path class="mm" d="M558.55,1289.31c.55-.25,1.08-.38,1.59-.38.77,0,1.45.16,2.06.49.6.33,1.07.78,1.41,1.35s.5,1.24.5,1.98-.17,1.43-.5,2.02-.8,1.05-1.4,1.38-1.29.5-2.07.5c-.6,0-1.16-.12-1.69-.38-.53-.25-.98-.6-1.34-1.05-.37-.45-.62-.95-.74-1.52l1.3-.3c.13.59.42,1.06.89,1.43.46.37.99.55,1.59.55.5,0,.95-.11,1.35-.34.4-.22.71-.54.94-.94.23-.41.34-.86.34-1.36s-.11-.95-.34-1.34c-.23-.39-.54-.69-.94-.91-.4-.22-.85-.33-1.35-.33-.33,0-.68.09-1.04.26-.36.18-.66.4-.9.68l-.99-.86c.34-.38.79-.7,1.34-.95ZM556.87,1290.93l.37-6.03h5.92v1.18h-4.64l-.32,5.04-1.33-.19Z"/>
          <path class="mm" d="M575.28,1290.76c-.29-.34-.67-.5-1.13-.5-.35,0-.66.07-.94.22-.27.14-.49.34-.65.6-.16.26-.24.55-.24.88v4.58h-1.33v-4.45c0-.54-.14-.98-.43-1.32s-.66-.5-1.12-.5c-.34,0-.65.09-.94.26s-.5.42-.66.72c-.15.3-.23.63-.23.98v4.3h-1.33v-7.46h1.33v1.31l-.14-.05c.22-.37.52-.68.9-.91.37-.23.75-.35,1.14-.35.46,0,.9.13,1.32.38.42.26.74.59.95.99.25-.41.59-.74,1.04-.99.45-.26.9-.38,1.36-.38.55,0,1.05.13,1.49.38.44.25.78.59,1.02,1.02.25.43.37.93.37,1.5v4.56h-1.34v-4.45c0-.54-.15-.98-.44-1.32Z"/>
        </g>
      </g>
      <g id="lr" data-name="LWPOLYLINE">
        <polyline class="lt" points="566.32 1280.89 566.32 1263.88 396.24 1263.88 396.24 1280.89 339.55 1280.89 339.55 1263.88 282.85 1263.88 282.85 1280.89"/>
      </g>
    </g>
    <g>
      <g>
        <path class="ml" d="M1776.83,1256.96v.56h-10.91v-.56h10.91ZM1771.61,1251.01v.62c0,.68-.24,1.31-.72,1.88-.48.57-1.08,1.04-1.8,1.41s-1.44.63-2.16.78l-.28-.55c.63-.1,1.28-.32,1.96-.66s1.26-.76,1.72-1.26c.47-.5.7-1.04.7-1.61v-.62h.57ZM1775.74,1250.76v.55h-8.74v-.55h8.74ZM1771.7,1257.25v4.72h-.64v-4.72h.64ZM1771.72,1251.01v.62c0,.57.23,1.11.7,1.61.47.5,1.04.92,1.73,1.26s1.34.55,1.95.66l-.27.55c-.73-.15-1.45-.41-2.16-.78s-1.31-.84-1.79-1.41c-.48-.57-.72-1.19-.72-1.88v-.62h.56Z"/>
        <path class="ml" d="M1781.86,1252.59v1.33c0,.81-.15,1.59-.46,2.34-.31.75-.71,1.41-1.22,1.98s-1.05,1.01-1.64,1.33l-.41-.5c.56-.27,1.08-.67,1.57-1.2s.88-1.14,1.18-1.83c.3-.69.45-1.4.45-2.13v-1.33h.53ZM1784.83,1252.09v.55h-6.41v-.55h6.41ZM1781.96,1250.08v2.35h-.64v-2.35h.64ZM1781.94,1252.59v1.33c0,.67.14,1.33.43,1.99s.67,1.23,1.14,1.74.98.9,1.53,1.18l-.39.5c-.58-.3-1.11-.73-1.6-1.28-.49-.55-.88-1.19-1.18-1.91-.29-.72-.44-1.46-.44-2.23v-1.33h.52ZM1787.32,1249.9v12.08h-.64v-12.08h.64ZM1789.48,1255.07v.55h-2.31v-.55h2.31Z"/>
        <path class="ml" d="M1794.12,1251.16v1.13c0,.7-.15,1.35-.44,1.96s-.7,1.13-1.2,1.58-1.07.78-1.69,1.01l-.34-.52c.57-.21,1.09-.51,1.57-.9s.86-.87,1.15-1.41c.29-.54.43-1.12.43-1.72v-1.13h.52ZM1797.1,1250.85v.56h-6.41v-.56h6.41ZM1797.98,1257.92c.58.16,1.03.4,1.34.72.31.32.47.7.47,1.15,0,.68-.34,1.21-1.03,1.59s-1.64.57-2.86.57c-.8,0-1.5-.08-2.08-.25-.58-.17-1.03-.42-1.34-.74-.31-.33-.46-.71-.46-1.16s.15-.83.46-1.15c.31-.32.75-.56,1.34-.72.58-.16,1.28-.25,2.08-.25s1.5.08,2.08.25ZM1794.19,1258.41c-.49.13-.87.31-1.13.55-.27.23-.4.51-.4.83,0,.49.29.89.88,1.18s1.38.43,2.37.43,1.78-.14,2.37-.43.89-.68.89-1.18c0-.32-.14-.59-.41-.83-.27-.23-.65-.42-1.14-.55-.49-.13-1.06-.2-1.72-.2s-1.22.07-1.71.2ZM1794.22,1251.16v1.12c0,.54.14,1.06.41,1.56.27.5.64.94,1.11,1.31.46.37.97.66,1.52.87l-.31.5c-.61-.22-1.16-.55-1.65-.97s-.89-.91-1.18-1.47c-.29-.56-.43-1.16-.43-1.81v-1.12h.53ZM1799.68,1249.9v7.36h-.64v-7.36h.64ZM1801.6,1253.18v.56h-2.1v-.56h2.1Z"/>
        <path class="ml" d="M1807.4,1250.94v10.11h-.48v-10.11h.48Z"/>
        <path class="ml" d="M1823.84,1256.23v.53h-10.91v-.53h10.91ZM1823.17,1250.84v.53h-9.62v-.53h9.62ZM1822.39,1257.73v2.24h-7.39v1.51h-.64v-2.03h7.39v-1.19h-7.43v-.53h8.08ZM1822.78,1261.27v.53h-8.43v-.53h8.43ZM1821.21,1252.39c.65.27.97.67.97,1.2s-.32.92-.97,1.18c-.65.27-1.58.4-2.81.4s-2.17-.13-2.83-.4c-.65-.27-.98-.66-.98-1.18s.32-.93.97-1.2c.65-.27,1.59-.41,2.82-.41s2.17.13,2.82.41ZM1816.09,1252.78c-.55.2-.83.48-.83.83s.27.61.83.8,1.32.29,2.31.29,1.74-.1,2.29-.29.82-.46.82-.8-.28-.63-.83-.83c-.55-.2-1.32-.3-2.3-.3s-1.75.1-2.3.3ZM1818.72,1249.64v1.58h-.64v-1.58h.64ZM1818.72,1255.03v1.43h-.64v-1.43h.64Z"/>
        <path class="ml" d="M1771.78,1269.11v4.07h-4.7v3.51h-.63v-4.09h4.7v-2.94h-4.75v-.56h5.38ZM1770.58,1276.33c.87-.07,1.75-.18,2.66-.35l.07.56c-.94.17-1.85.29-2.73.35-.88.07-1.95.1-3.22.1h-.91v-.56h.91c1.28,0,2.35-.03,3.22-.1ZM1775.1,1267.9v12.08h-.64v-12.08h.64ZM1777.24,1272.87v.57h-2.31v-.57h2.31Z"/>
        <path class="ml" d="M1789.11,1274.22v.56h-10.95v-.56h10.95ZM1785.81,1268.55c.63.2,1.11.47,1.45.83s.5.78.5,1.25-.17.91-.5,1.26c-.34.36-.82.63-1.45.82-.63.19-1.36.29-2.2.29s-1.56-.1-2.18-.29c-.63-.19-1.11-.46-1.45-.82-.34-.35-.51-.77-.51-1.26s.17-.89.51-1.25.82-.64,1.45-.83c.62-.2,1.35-.29,2.18-.29s1.57.1,2.2.29ZM1780.28,1276.2v3.08h-.63v-3.08h.63ZM1787.89,1279.09v.59h-8.25v-.59h8.25ZM1781.8,1269.06c-.53.15-.94.37-1.23.64-.29.27-.43.59-.43.95s.14.67.43.95c.29.28.7.49,1.23.63.53.14,1.13.22,1.81.22s1.3-.07,1.82-.22c.52-.14.93-.35,1.23-.63s.44-.59.44-.96-.15-.67-.44-.94c-.29-.27-.7-.48-1.23-.64-.52-.15-1.13-.23-1.82-.23s-1.29.08-1.81.23ZM1784.04,1274.55v2.94h-.66v-2.94h.66Z"/>
        <path class="ml" d="M1794.35,1269.51v2.39c0,.76-.17,1.52-.52,2.28-.35.77-.79,1.45-1.32,2.06s-1.09,1.06-1.66,1.37l-.39-.52c.52-.27,1.04-.69,1.56-1.25.52-.56.94-1.19,1.28-1.9s.5-1.39.5-2.05v-2.39h.55ZM1797.51,1269.19v.56h-6.73v-.56h6.73ZM1794.43,1269.51v2.39c0,.67.17,1.34.51,2,.34.66.77,1.25,1.29,1.76.52.51,1.06.89,1.61,1.14l-.41.53c-.59-.3-1.15-.73-1.7-1.29-.55-.56-.99-1.2-1.34-1.92s-.52-1.46-.52-2.22v-2.39h.55ZM1800.16,1267.9v12.08h-.64v-12.08h.64Z"/>
        <path class="ml" d="M1769.97,1294.81c1.27-.05,2.46-.15,3.58-.32l.06.5c-1.17.2-2.37.32-3.61.38-1.24.06-2.6.09-4.07.09l-.14-.59c1.52,0,2.92-.02,4.19-.07ZM1773.28,1287.47v.55h-7.29v-.55h7.29ZM1771.09,1289.16c.42.18.74.44.97.78.23.34.35.73.35,1.18s-.12.82-.35,1.15c-.23.33-.56.59-.97.77-.42.18-.9.27-1.45.27s-1.03-.09-1.45-.27c-.42-.18-.74-.44-.97-.77-.23-.33-.34-.72-.34-1.15s.11-.84.34-1.18c.23-.34.55-.59.97-.78.42-.18.9-.27,1.45-.27s1.03.09,1.45.27ZM1768.08,1289.88c-.4.31-.59.72-.59,1.21s.2.9.59,1.2c.4.31.92.46,1.56.46s1.16-.15,1.56-.46.6-.71.6-1.2-.2-.9-.6-1.21-.92-.47-1.56-.47-1.16.16-1.56.47ZM1769.97,1285.89v1.85h-.66v-1.85h.66ZM1769.97,1293.14v1.96h-.66v-1.96h.66ZM1775.03,1285.9v12.08h-.64v-12.08h.64ZM1777.17,1291.19v.57h-2.3v-.57h2.3Z"/>
        <path class="ml" d="M1781.89,1287.16v1.13c0,.7-.15,1.35-.44,1.96s-.7,1.13-1.2,1.58-1.07.78-1.69,1.01l-.34-.52c.57-.21,1.09-.51,1.57-.9s.86-.87,1.15-1.41c.29-.54.43-1.12.43-1.72v-1.13h.52ZM1784.87,1286.85v.56h-6.41v-.56h6.41ZM1785.74,1293.92c.58.16,1.03.4,1.34.72.31.32.47.7.47,1.15,0,.68-.34,1.21-1.03,1.59s-1.64.57-2.86.57c-.8,0-1.5-.08-2.08-.25-.58-.17-1.03-.42-1.34-.74-.31-.33-.46-.71-.46-1.16s.15-.83.46-1.15c.31-.32.75-.56,1.34-.72.58-.16,1.28-.25,2.08-.25s1.5.08,2.08.25ZM1781.95,1294.41c-.49.13-.87.31-1.13.55-.27.23-.4.51-.4.83,0,.49.29.89.88,1.18s1.38.43,2.37.43,1.78-.14,2.37-.43.89-.68.89-1.18c0-.32-.14-.59-.41-.83-.27-.23-.65-.42-1.14-.55-.49-.13-1.06-.2-1.72-.2s-1.22.07-1.71.2ZM1781.99,1287.16v1.12c0,.54.14,1.06.41,1.56.27.5.64.94,1.11,1.31.46.37.97.66,1.52.87l-.31.5c-.61-.22-1.16-.55-1.65-.97s-.89-.91-1.18-1.47c-.29-.56-.43-1.16-.43-1.81v-1.12h.53ZM1787.45,1285.9v7.36h-.64v-7.36h.64ZM1789.36,1289.18v.56h-2.1v-.56h2.1Z"/>
        <path class="ml" d="M1794.32,1286.31v.92c0,.72-.15,1.4-.46,2.03s-.72,1.19-1.23,1.67c-.51.48-1.08.84-1.69,1.11l-.35-.53c.57-.21,1.1-.54,1.58-.97.49-.43.88-.93,1.17-1.5.29-.57.44-1.17.44-1.8v-.92h.55ZM1800.19,1292.93v2.63h-6.96v1.97h-.62v-2.49h6.94v-1.55h-6.99v-.56h7.62ZM1800.67,1297.26v.55h-8.06v-.55h8.06ZM1794.4,1286.31v.92c0,.59.15,1.16.45,1.7.3.55.7,1.02,1.19,1.42.49.4,1.02.71,1.58.92l-.34.52c-.63-.24-1.2-.59-1.71-1.04-.52-.45-.93-.97-1.24-1.58-.31-.61-.46-1.25-.46-1.95v-.92h.53ZM1800.19,1285.9v6.36h-.64v-6.36h.64Z"/>
        <path class="ml" d="M1776.89,1311.76v.55h-10.96v-.55h10.96ZM1776.16,1305.37v.56h-9.62v-.56h9.62ZM1774.15,1307.3c.66.35.99.83.99,1.46s-.33,1.11-.99,1.45c-.66.34-1.58.51-2.76.51s-2.11-.17-2.77-.51-.99-.82-.99-1.45.33-1.11.99-1.46c.66-.34,1.58-.52,2.78-.52s2.11.17,2.77.52ZM1769.12,1307.7c-.56.26-.84.62-.84,1.06s.28.79.84,1.05c.56.26,1.32.39,2.27.39s1.69-.13,2.25-.39c.56-.26.83-.61.83-1.05s-.28-.8-.83-1.06c-.56-.26-1.3-.39-2.25-.39s-1.71.13-2.27.39ZM1771.7,1303.79v1.95h-.63v-1.95h.63ZM1771.7,1312.12v3.88h-.63v-3.88h.63Z"/>
        <path class="ml" d="M1781.99,1305.12v1.15c0,.69-.15,1.34-.46,1.96-.3.62-.71,1.16-1.22,1.62-.51.47-1.07.83-1.69,1.08l-.34-.53c.56-.21,1.08-.53,1.56-.95s.87-.91,1.16-1.46.44-1.12.44-1.72v-1.15h.53ZM1784.94,1304.9v.56h-6.41v-.56h6.41ZM1786.96,1312.15c.69.39,1.04.93,1.04,1.62s-.35,1.22-1.04,1.6c-.69.39-1.65.58-2.88.58s-2.2-.19-2.9-.58c-.7-.39-1.05-.92-1.05-1.6,0-.47.16-.86.47-1.19.31-.33.77-.58,1.36-.76.59-.18,1.3-.27,2.12-.27,1.22,0,2.18.2,2.88.59ZM1782.34,1312.29c-.5.14-.88.33-1.16.59-.27.26-.41.55-.41.89s.14.61.41.86c.27.25.66.44,1.16.57.5.13,1.08.2,1.74.2s1.23-.07,1.73-.2c.5-.14.88-.33,1.16-.57.27-.25.41-.53.41-.86s-.14-.63-.41-.89c-.27-.26-.66-.45-1.16-.59-.5-.13-1.08-.2-1.73-.2s-1.24.07-1.74.2ZM1782.08,1305.12v1.13c0,.54.14,1.06.42,1.57.28.5.65.95,1.12,1.34.47.39.98.68,1.54.88l-.36.53c-.6-.23-1.14-.57-1.64-1-.49-.43-.89-.94-1.18-1.5s-.44-1.17-.44-1.81v-1.13h.55ZM1787.56,1307.19v.56h-3.02v-.56h3.02ZM1787.96,1303.9v7.21h-.64v-7.21h.64Z"/>
      </g>
      <g>
        <path class="ml" d="M1755.03,1261.05h-.67v-9.35l-1.26.87-.36-.49,1.62-1.13h.67v10.11Z"/>
        <path class="ml" d="M1751.93,1277.81c.2-.19.43-.41.68-.65.84-.79,1.51-1.46,2.02-1.99.51-.53.94-1.09,1.31-1.67s.55-1.12.55-1.61-.09-.9-.28-1.27-.45-.67-.78-.88c-.33-.21-.71-.32-1.13-.32-.47,0-.91.16-1.34.48-.42.32-.75.73-.96,1.24l-.63-.27c.26-.61.66-1.1,1.2-1.48.54-.38,1.12-.57,1.72-.57.55,0,1.04.13,1.47.39.43.26.77.63,1.01,1.09.25.47.37.99.37,1.58s-.19,1.18-.57,1.81-.84,1.23-1.38,1.79c-.54.56-1.23,1.25-2.09,2.05-.59.55-1.04.98-1.36,1.3l-.48-.39c.23-.24.45-.46.65-.65ZM1751.27,1278.46h6.02v.59h-5.94l-.08-.59Z"/>
        <path class="ml" d="M1756.95,1292.75c.33.44.5.92.5,1.43,0,.57-.14,1.08-.41,1.53s-.65.8-1.13,1.06-1.03.38-1.64.38-1.17-.13-1.65-.38-.86-.6-1.13-1.06-.41-.96-.41-1.53h.67c0,.46.11.87.32,1.23s.51.64.9.84c.38.2.81.3,1.29.3s.92-.1,1.3-.29.68-.46.89-.79.32-.72.32-1.16-.11-.8-.32-1.13-.5-.59-.88-.78c-.38-.19-.8-.28-1.28-.28h-.41v-.62h.39c.45,0,.85-.09,1.21-.26s.64-.41.84-.72c.2-.31.3-.66.3-1.05,0-.6-.21-1.09-.64-1.47-.43-.38-.98-.57-1.65-.57-.44,0-.83.09-1.19.27-.36.18-.63.44-.82.77-.19.33-.29.71-.29,1.13h-.67c0-.53.13-1.01.38-1.43s.6-.75,1.05-.99c.45-.24.96-.36,1.54-.36s1.09.12,1.54.36c.45.24.8.57,1.05.99.25.42.38.9.38,1.43,0,.43-.15.85-.45,1.27s-.69.73-1.16.94c.5.19.92.5,1.25.94Z"/>
        <path class="ml" d="M1756.13,1311.48h1.64v.6h-1.64v2.97h-.67v-2.97h-4.61l-.1-.62,4.7-6.52h.67v6.54ZM1755.46,1311.48v-5.38l-3.88,5.38h3.88Z"/>
      </g>
    </g>
    <path class="ml" d="M1112.13,625.12h-.58v-8.02l-1.08.74-.31-.42,1.39-.97h.58v8.66Z"/>
    <path class="ml" d="M1015.58,811.91c.17-.16.37-.35.58-.56.72-.68,1.3-1.25,1.73-1.7s.81-.93,1.12-1.43.47-.96.47-1.38-.08-.77-.24-1.09c-.16-.32-.38-.57-.67-.75-.28-.18-.61-.27-.97-.27-.4,0-.78.14-1.15.41-.36.28-.64.63-.82,1.06l-.54-.23c.22-.52.57-.94,1.03-1.27.46-.33.96-.49,1.48-.49.47,0,.89.11,1.26.34s.66.54.87.94c.21.4.32.85.32,1.36s-.16,1.01-.49,1.55c-.33.54-.72,1.05-1.18,1.54-.46.48-1.06,1.07-1.79,1.76-.5.47-.89.84-1.16,1.12l-.41-.34c.2-.21.39-.39.56-.56ZM1015.02,812.47h5.16v.5h-5.09l-.07-.5Z"/>
    <path class="ml" d="M748.23,891.44c.28.38.43.78.43,1.22,0,.49-.12.93-.35,1.31-.23.39-.55.69-.97.91-.41.22-.88.32-1.41.32s-1-.11-1.41-.32-.73-.52-.97-.91c-.23-.39-.35-.83-.35-1.31h.58c0,.39.09.74.28,1.05.18.31.44.55.77.72.33.17.7.26,1.1.26s.79-.08,1.12-.25.58-.39.76-.68c.18-.29.27-.62.27-1s-.09-.68-.27-.97c-.18-.28-.43-.51-.76-.67-.32-.16-.69-.24-1.1-.24h-.35v-.53h.34c.38,0,.73-.07,1.04-.22.31-.15.55-.35.72-.62.17-.26.26-.56.26-.9,0-.51-.18-.93-.55-1.26-.37-.33-.84-.49-1.42-.49-.38,0-.72.08-1.02.23-.3.16-.54.38-.7.66-.16.28-.25.61-.25.97h-.58c0-.46.11-.86.32-1.22.22-.36.52-.64.9-.85.38-.2.82-.31,1.32-.31s.94.1,1.32.31c.38.2.68.49.9.85.22.36.32.77.32,1.22,0,.37-.13.73-.38,1.09-.26.36-.59.63-1,.81.43.16.79.43,1.07.8Z"/>
    <path class="ml" d="M751.51,516.42h1.4v.52h-1.4v2.54h-.58v-2.54h-3.95l-.08-.53,4.03-5.59h.58v5.6ZM750.93,516.42v-4.61l-3.32,4.61h3.32Z"/>
    <polygon class="mm" points="1279.08 625.12 1288.8 630.74 1288.8 619.51 1279.08 625.12"/>
    <polygon class="mm" points="653.28 944.22 647.66 953.94 658.89 953.94 653.28 944.22"/>
  </g>
</svg>