<?xml version="1.0" encoding="UTF-8"?>
<svg xmlns="http://www.w3.org/2000/svg" viewBox="0 0 2400 1500">
  <defs>
    <style>
      .nk, .nl, .nm, .nn, .no, .np, .nq, .nr, .ns, .nt, .nu, .nv, .nw, .nx, .ny, .nz, .oa {
        stroke: #000;
      }

      .nk, .nl, .nn, .no, .np, .nq, .nr, .nt, .nu, .nv, .nw, .nx, .ny, .nz {
        fill: none;
      }

      .nk, .nl, .nn, .no, .np, .nq, .nr, .nt, .nu, .nv, .nw, .nx, .ny, .nz, .oa {
        stroke-miterlimit: 10;
      }

      .nk, .ns {
        stroke-width: .5px;
      }

      .nm {
        stroke-width: .34px;
      }

      .nn {
        stroke-width: .75px;
      }

      .no {
        stroke-width: .85px;
      }

      .np {
        stroke-dasharray: 2 1;
      }

      .np, .nt, .nw, .nz {
        stroke-width: .25px;
      }

      .nq {
        stroke-dasharray: 1.97 .98;
      }

      .nq, .nu {
        stroke-width: .4px;
      }

      .nr, .oa {
        stroke-width: .15px;
      }

      .nt {
        stroke-dasharray: 1.98 .99;
      }

      .nv {
        stroke-width: 2px;
      }

      .nx {
        stroke-width: .6px;
      }

      .ny {
        stroke-width: .9px;
      }

      .nz {
        stroke-dasharray: 2.01 1;
      }

      .oa {
        fill: #d6d6d6;
        fill-rule: evenodd;
      }
    </style>
  </defs>
  <g id="aw" data-name="sec">
    <g id="ax" data-name="HATCH">
      <path class="oa" d="M991.65,649.9h368.5v-13.04h-5.67v5.67h-357.17v-5.67h-5.67v13.04M991.65,486.63h368.5s0-7.37,0-7.37h-52.44v-10.77h-11.34v10.77h-144.57v-10.77h-8.5v10.77h-145.98v-5.67h-5.67v13.04M1354.49,797.31h-357.17s0-5.67,0-5.67h-5.67v13.04h19.84v20.98h17.01v-20.98h192.76v20.98h17.01v-20.98h130.39v20.98s17.01,0,17.01,0v-34.02h-31.18v5.67M1386.09,963.42h-397.28v185.95s17.01,0,17.01,0v-17.01h215.43v17.01h17.01v-17.01h218.27v17.01h17.01v-185.95h-11.34v111.97h-19.46v8.5h-53.67v8.5s-15.02,0-15.02,0v8.5s-15.02,0-15.02,0v8.5h-15.02v11.62h-335.34v-7.09h-5.67v7.09h-2.83v-150.24h221.1v20.98h17.01v-20.98h147.83v-7.37M1359.86,1121.02l45.07-28.63h57.27v28.63h-102.34M1151.81,327.89h-160.16v-5.67h160.16v5.67Z"/>
    </g>
    <g id="ay" data-name="HATCH">
      <path class="nr" d="M1304.88,402.72h-5.67v65.76s5.67,0,5.67,0v-65.76M997.32,327.89h-5.67v25.51s5.67,0,5.67,0v-25.51M997.32,486.63h-5.67v26.65s5.67,0,5.67,0v-26.65M997.32,597.18h-5.67v39.69h5.67v-39.69M991.65,668.05h5.67v-18.14h-5.67v18.14M991.65,791.64h5.67v-39.69h-5.67v39.69M991.65,824.52h5.67v-19.84h-5.67v19.84M1002.99,1113.94h5.67v-143.15h-5.67v143.15M1473.54,798.58h-11.34v164.84s11.34,0,11.34,0v-164.84Z"/>
      <path class="nr" d="M991.65,328.27l.38-.38M991.65,333.36l5.47-5.47M991.65,338.45l5.67-5.67M991.65,343.55l5.67-5.67M991.65,348.64l5.67-5.67M991.98,353.4l5.34-5.34M997.07,353.4l.25-.25M991.65,491.19l4.56-4.56M991.65,496.28l5.67-5.67M991.65,501.37l5.67-5.67M991.65,506.46l5.67-5.67M991.65,511.55l5.67-5.67M995.02,513.28l2.3-2.3M991.65,598.1l.92-.92M991.65,603.2l5.67-5.67M991.65,608.29l5.67-5.67M991.65,613.38l5.67-5.67M991.65,618.47l5.67-5.67M991.65,623.56l5.67-5.67M991.65,628.65l5.67-5.67M991.65,633.74l5.67-5.67M993.62,636.87l3.7-3.7M991.65,654.11l4.2-4.2M991.65,659.2l5.67-5.67M991.65,664.29l5.67-5.67M992.99,668.05l4.34-4.34M1299.21,407.64l4.92-4.92M1299.21,412.73l5.67-5.67M1299.21,417.82l5.67-5.67M1299.21,422.92l5.67-5.67M1299.21,428.01l5.67-5.67M1299.21,433.1l5.67-5.67M1299.21,438.19l5.67-5.67M1299.21,443.28l5.67-5.67M991.65,755.93l3.98-3.98M1299.21,448.37l5.67-5.67M991.65,761.02l5.67-5.67M1299.21,453.46l5.67-5.67M991.65,766.11l5.67-5.67M1299.21,458.55l5.67-5.67M991.65,771.2l5.67-5.67M1299.21,463.65l5.67-5.67M991.65,776.3l5.67-5.67M1299.46,468.49l5.42-5.42M991.65,781.39l5.67-5.67M1304.55,468.49l.33-.33M991.65,786.48l5.67-5.67M991.65,791.57l5.67-5.67M996.68,791.64l.65-.65M991.65,806.84l2.17-2.17M991.65,811.93l5.67-5.67M991.65,817.02l5.67-5.67M991.65,822.12l5.67-5.67M994.34,824.52l2.98-2.98M1002.99,973.69l2.91-2.91M1002.99,978.79l5.67-5.67M1002.99,983.88l5.67-5.67M1002.99,988.97l5.67-5.67M1002.99,994.06l5.67-5.67M1002.99,999.15l5.67-5.67M1002.99,1004.24l5.67-5.67M1002.99,1009.33l5.67-5.67M1002.99,1014.42l5.67-5.67M1002.99,1019.52l5.67-5.67M1002.99,1024.61l5.67-5.67M1002.99,1029.7l5.67-5.67M1002.99,1034.79l5.67-5.67M1002.99,1039.88l5.67-5.67M1002.99,1044.97l5.67-5.67M1002.99,1050.06l5.67-5.67M1002.99,1055.15l5.67-5.67M1002.99,1060.24l5.67-5.67M1002.99,1065.34l5.67-5.67M1002.99,1070.43l5.67-5.67M1002.99,1075.52l5.67-5.67M1002.99,1080.61l5.67-5.67M1002.99,1085.7l5.67-5.67M1002.99,1090.79l5.67-5.67M1002.99,1095.88l5.67-5.67M1002.99,1100.97l5.67-5.67M1002.99,1106.07l5.67-5.67M1002.99,1111.16l5.67-5.67M1005.3,1113.94l3.36-3.36M1462.2,799.59l1.01-1.01M1462.2,804.68l6.1-6.1M1462.2,809.77l11.19-11.19M1462.2,814.86l11.34-11.34M1462.2,819.95l11.34-11.34M1462.2,825.04l11.34-11.34M1462.2,830.13l11.34-11.34M1462.2,835.23l11.34-11.34M1462.2,840.32l11.34-11.34M1462.2,845.41l11.34-11.34M1462.2,850.5l11.34-11.34M1462.2,855.59l11.34-11.34M1462.2,860.68l11.34-11.34M1462.2,865.77l11.34-11.34M1462.2,870.86l11.34-11.34M1462.2,875.96l11.34-11.34M1462.2,881.05l11.34-11.34M1462.2,886.14l11.34-11.34M1462.2,891.23l11.34-11.34M1462.2,896.32l11.34-11.34M1462.2,901.41l11.34-11.34M1462.2,906.5l11.34-11.34M1462.2,911.59l11.34-11.34M1462.2,916.68l11.34-11.34M1462.2,921.78l11.34-11.34M1462.2,926.87l11.34-11.34M1462.2,931.96l11.34-11.34M1462.2,937.05l11.34-11.34M1462.2,942.14l11.34-11.34M1462.2,947.23l11.34-11.34M1462.2,952.32l11.34-11.34M1462.2,957.41l11.34-11.34M1462.2,962.5l11.34-11.34M1466.38,963.42l7.16-7.16M1471.48,963.42l2.07-2.07"/>
    </g>
    <g id="az" data-name="LWPOLYLINE">
      <polyline class="nw" points="1387.37 969.65 1387.37 918.63 1386.8 918.63 1386.8 969.65"/>
    </g>
    <g id="ba" data-name="LWPOLYLINE">
      <rect class="nw" x="1233.73" y="826.22" width=".57" height="134.93"/>
    </g>
    <g id="bb" data-name="LINE">
      <line class="nw" x1="991.09" y1="747.13" x2="991.09" y2="672.87"/>
    </g>
    <g id="bc" data-name="LINE">
      <line class="nw" x1="989.52" y1="746.28" x2="989.51" y2="673.72"/>
    </g>
    <g id="bd" data-name="LWPOLYLINE">
      <rect class="nw" x="1311.4" y="982.69" width=".57" height="130.11"/>
    </g>
    <g id="be" data-name="LWPOLYLINE">
      <line class="nw" x1="1384.97" y1="785.6" x2="1462.16" y2="792.84"/>
    </g>
    <g id="bf" data-name="LWPOLYLINE">
      <line class="nw" x1="1383.66" y1="787.36" x2="1463.12" y2="794.81"/>
    </g>
    <g id="bg" data-name="LINE">
      <line class="nw" x1="991.09" y1="961.43" x2="991.09" y2="826.5"/>
    </g>
    <g id="bh" data-name="LINE">
      <line class="nw" x1="989.52" y1="960.58" x2="989.52" y2="827.35"/>
    </g>
    <g id="bi" data-name="LINE">
      <line class="nw" x1="991.09" y1="592.36" x2="991.09" y2="518.09"/>
    </g>
    <g id="bj" data-name="LINE">
      <line class="nw" x1="989.52" y1="591.51" x2="989.51" y2="518.94"/>
    </g>
    <g id="bk" data-name="LINE">
      <line class="nw" x1="1149.54" y1="466.5" x2="1149.54" y2="329.87"/>
    </g>
    <g id="bl" data-name="LINE">
      <line class="nw" x1="1151.12" y1="330.72" x2="1151.12" y2="465.65"/>
    </g>
    <g id="bm" data-name="LINE">
      <line class="nw" x1="991.09" y1="471.61" x2="991.09" y2="430.22"/>
    </g>
    <g id="bn" data-name="LINE">
      <line class="nw" x1="991.09" y1="429.09" x2="991.09" y2="357.09"/>
    </g>
    <g id="bo" data-name="LINE">
      <line class="nw" x1="989.52" y1="470.76" x2="989.52" y2="431.07"/>
    </g>
    <g id="bp" data-name="LINE">
      <line class="nw" x1="989.52" y1="428.24" x2="989.52" y2="357.94"/>
    </g>
    <g id="bq" data-name="LWPOLYLINE">
      <polyline class="nw" points="1473.54 798.58 1484.88 798.58 1484.88 967.39"/>
    </g>
    <g id="br" data-name="LWPOLYLINE">
      <polyline class="nw" points="1234.3 936.2 1239.02 936.2 1239.02 868.17 1234.3 868.17"/>
    </g>
    <g id="bs" data-name="LWPOLYLINE">
      <polyline class="nw" points="1234.3 869.59 1237.61 869.59 1237.61 934.79 1234.3 934.79"/>
    </g>
    <g id="bt" data-name="LWPOLYLINE">
      <polyline class="nw" points="1233.73 869.59 1230.42 869.59 1230.42 934.79 1233.73 934.79"/>
    </g>
    <g id="bu" data-name="LWPOLYLINE">
      <polyline class="nw" points="1233.73 936.2 1229.01 936.2 1229.01 868.17 1233.73 868.17"/>
    </g>
    <g id="bv" data-name="LWPOLYLINE">
      <polyline class="nw" points="1311.97 1079.35 1316.69 1079.35 1316.69 1011.32 1311.97 1011.32"/>
    </g>
    <g id="bw" data-name="LWPOLYLINE">
      <polyline class="nw" points="1311.97 1012.74 1315.28 1012.74 1315.28 1077.94 1311.97 1077.94"/>
    </g>
    <g id="bx" data-name="LWPOLYLINE">
      <polyline class="nw" points="1311.4 1012.74 1308.09 1012.74 1308.09 1077.94 1311.4 1077.94"/>
    </g>
    <g id="by" data-name="LWPOLYLINE">
      <polyline class="nw" points="1311.4 1079.35 1306.68 1079.35 1306.68 1011.32 1311.4 1011.32"/>
    </g>
    <g id="bz" data-name="LWPOLYLINE">
      <rect class="nw" x="1209.92" y="792.77" width="8.5" height="2.83"/>
    </g>
    <g id="ca" data-name="LWPOLYLINE">
      <polyline class="nw" points="1218.99 660.68 1218.99 795.04 1222.68 795.04"/>
    </g>
    <g id="cb" data-name="LWPOLYLINE">
      <polyline class="nw" points="1014.33 795.04 1064.22 795.04 1064.22 660.68"/>
    </g>
    <g id="cc" data-name="LWPOLYLINE">
      <polyline class="nw" points="1115.24 660.68 1115.24 795.04 1065.35 795.04 1065.35 660.68"/>
    </g>
    <g id="cd" data-name="LWPOLYLINE">
      <line class="nw" x1="1218.43" y1="663.51" x2="1218.43" y2="792.77"/>
    </g>
    <g id="ce" data-name="LWPOLYLINE">
      <polyline class="nw" points="1209.92 795.04 1167.4 795.04 1167.4 660.68"/>
    </g>
    <g id="cf" data-name="LWPOLYLINE">
      <polyline class="nw" points="1166.27 660.68 1166.27 795.04 1116.38 795.04 1116.38 660.68"/>
    </g>
    <g id="cg" data-name="LWPOLYLINE">
      <rect class="nw" x="1209.92" y="660.68" width="8.5" height="2.83"/>
    </g>
    <g id="ch" data-name="LWPOLYLINE">
      <rect class="nw" x="1170.99" y="693.84" width="1.42" height="68.03"/>
    </g>
    <g id="ci" data-name="LWPOLYLINE">
      <line class="nw" x1="1059.69" y1="916.36" x2="1059.69" y2="825.65"/>
    </g>
    <g id="cj" data-name="LWPOLYLINE">
      <line class="nw" x1="1092.57" y1="916.36" x2="1092.57" y2="825.65"/>
    </g>
    <g id="ck" data-name="LWPOLYLINE">
      <line class="nw" x1="1029.64" y1="834.16" x2="1059.69" y2="834.16"/>
    </g>
    <g id="cl" data-name="LWPOLYLINE">
      <line class="nw" x1="1059.69" y1="953.21" x2="1029.64" y2="953.21"/>
    </g>
    <g id="cm" data-name="LWPOLYLINE">
      <polyline class="nw" points="1029.64 835.86 1057.98 835.86 1057.98 951.51 1029.64 951.51"/>
    </g>
    <g id="cn" data-name="LWPOLYLINE">
      <polyline class="nw" points="1218.99 505.9 1218.99 640.27 1222.68 640.27"/>
    </g>
    <g id="co" data-name="LWPOLYLINE">
      <polyline class="nw" points="1014.33 640.27 1064.22 640.27 1064.22 505.9"/>
    </g>
    <g id="cp" data-name="LWPOLYLINE">
      <polyline class="nw" points="1115.24 505.9 1115.24 640.27 1065.35 640.27 1065.35 505.9"/>
    </g>
    <g id="cq" data-name="LWPOLYLINE">
      <line class="nw" x1="1218.43" y1="508.74" x2="1218.43" y2="638"/>
    </g>
    <g id="cr" data-name="LWPOLYLINE">
      <polyline class="nw" points="1209.92 640.27 1167.4 640.27 1167.4 505.9"/>
    </g>
    <g id="cs" data-name="LWPOLYLINE">
      <polyline class="nw" points="1166.27 505.9 1166.27 640.27 1116.38 640.27 1116.38 505.9"/>
    </g>
    <g id="ct" data-name="LWPOLYLINE">
      <rect class="nw" x="1209.92" y="505.9" width="8.5" height="2.83"/>
    </g>
    <g id="cu" data-name="LWPOLYLINE">
      <rect class="nw" x="1170.99" y="539.07" width="1.42" height="68.03"/>
    </g>
    <g id="cv" data-name="LWPOLYLINE">
      <rect class="nw" x="1209.92" y="638" width="8.5" height="2.83"/>
    </g>
    <g id="cw" data-name="LINE">
      <line class="nw" x1="1294.96" y1="401.02" x2="1151.81" y2="401.02"/>
    </g>
    <g id="cx" data-name="LINE">
      <line class="nw" x1="1294.96" y1="402.72" x2="1151.81" y2="402.72"/>
    </g>
    <g id="cy" data-name="LWPOLYLINE">
      <line class="nw" x1="1238.27" y1="994.31" x2="1289.29" y2="994.31"/>
    </g>
    <g id="cz" data-name="LWPOLYLINE">
      <rect class="nw" x="1239.97" y="996.02" width="47.62" height="115.65"/>
    </g>
    <g id="da" data-name="LWPOLYLINE">
      <rect class="nw" x="1243.37" y="999.42" width="40.82" height="108.85"/>
    </g>
    <g id="db" data-name="LWPOLYLINE">
      <g>
        <line class="nw" x1="1239.97" y1="996.02" x2="1240.6" y2="996.79"/>
        <line class="np" x1="1241.24" y1="997.56" x2="1286.64" y2="1052.68"/>
        <polyline class="nw" points="1286.95 1053.07 1287.59 1053.84 1286.95 1054.61"/>
        <line class="np" x1="1286.32" y1="1055.38" x2="1240.92" y2="1110.51"/>
        <line class="nw" x1="1240.6" y1="1110.9" x2="1239.97" y2="1111.67"/>
      </g>
    </g>
    <g id="dc" data-name="LWPOLYLINE">
      <g>
        <line class="nw" x1="1029.64" y1="851.78" x2="1030.2" y2="852.61"/>
        <line class="nt" x1="1030.75" y1="853.43" x2="1057.15" y2="892.45"/>
        <polyline class="nw" points="1057.42 892.86 1057.98 893.68 1057.42 894.51"/>
        <line class="nt" x1="1056.87" y1="895.33" x2="1030.48" y2="934.35"/>
        <line class="nw" x1="1030.2" y1="934.76" x2="1029.64" y2="935.59"/>
      </g>
    </g>
    <g id="dd" data-name="LWPOLYLINE">
      <g>
        <line class="nw" x1="1167.4" y1="660.68" x2="1168.01" y2="661.47"/>
        <line class="nz" x1="1168.61" y1="662.27" x2="1217.52" y2="726.66"/>
        <polyline class="nw" points="1217.82 727.06 1218.43 727.86 1217.82 728.65"/>
        <line class="nz" x1="1217.21" y1="729.45" x2="1168.31" y2="793.84"/>
        <line class="nw" x1="1168.01" y1="794.24" x2="1167.4" y2="795.04"/>
      </g>
    </g>
    <g id="de" data-name="LWPOLYLINE">
      <g>
        <line class="nw" x1="1167.4" y1="505.91" x2="1168.01" y2="506.7"/>
        <line class="nz" x1="1168.61" y1="507.5" x2="1217.52" y2="571.89"/>
        <polyline class="nw" points="1217.82 572.29 1218.43 573.09 1217.82 573.88"/>
        <line class="nz" x1="1217.21" y1="574.68" x2="1168.31" y2="639.07"/>
        <line class="nw" x1="1168.01" y1="639.47" x2="1167.4" y2="640.27"/>
      </g>
    </g>
    <g id="df" data-name="LWPOLYLINE">
      <rect class="nw" x="1114.96" y="474.16" width="8.5" height="2.83"/>
    </g>
    <g id="dg" data-name="LINE">
      <line class="nw" x1="1123.46" y1="344.9" x2="1123.46" y2="474.16"/>
    </g>
    <g id="dh" data-name="LWPOLYLINE">
      <rect class="nw" x="1114.96" y="342.06" width="8.5" height="2.83"/>
    </g>
    <g id="di" data-name="LWPOLYLINE">
      <polyline class="nw" points="1114.96 476.99 1078.11 476.99 1078.11 342.06 1114.96 342.06"/>
    </g>
    <g id="dj" data-name="LWPOLYLINE">
      <rect class="nw" x="1081.7" y="375.79" width="1.42" height="68.03"/>
    </g>
    <g id="dk" data-name="LWPOLYLINE">
      <polyline class="nw" points="1129.13 342.06 1124.03 342.06 1124.03 476.99 1129.13 476.99"/>
    </g>
    <g id="dl" data-name="LWPOLYLINE">
      <polyline class="nw" points="1012.91 476.99 1035.02 476.99 1035.02 342.06 1012.91 342.06"/>
    </g>
    <g id="dm" data-name="LWPOLYLINE">
      <rect class="nw" x="1320.47" y="996.02" width="50.46" height="81.64"/>
    </g>
    <g id="dn" data-name="LINE">
      <line class="nw" x1="1297.8" y1="997.15" x2="1297.8" y2="1076.52"/>
    </g>
    <g id="do" data-name="LWPOLYLINE">
      <rect class="nw" x="1323.87" y="999.42" width="43.65" height="74.83"/>
    </g>
    <g id="dp" data-name="LWPOLYLINE">
      <rect class="nu" x="991.65" y="746.28" width="5.67" height="2.83"/>
    </g>
    <g id="dq" data-name="LWPOLYLINE">
      <polyline class="nu" points="991.65 747.13 990.52 747.13 990.52 748.27 991.65 748.27"/>
    </g>
    <g id="dr" data-name="LINE">
      <line class="nu" x1="990.52" y1="747.7" x2="988.82" y2="747.7"/>
    </g>
    <g id="ds" data-name="LWPOLYLINE">
      <polyline class="nu" points="989.52 746.28 988.82 746.28 988.82 749.12 989.51 749.12"/>
    </g>
    <g id="dt" data-name="LWPOLYLINE">
      <rect class="nu" x="991.65" y="824.52" width="5.67" height="2.83"/>
    </g>
    <g id="du" data-name="LWPOLYLINE">
      <polyline class="nu" points="991.65 825.37 990.52 825.37 990.52 826.5 991.65 826.5"/>
    </g>
    <g id="dv" data-name="LINE">
      <line class="nu" x1="990.52" y1="825.94" x2="988.82" y2="825.94"/>
    </g>
    <g id="dw" data-name="LWPOLYLINE">
      <polyline class="nu" points="989.52 824.52 988.82 824.52 988.82 827.35 989.51 827.35"/>
    </g>
    <g id="dx" data-name="LWPOLYLINE">
      <rect class="nu" x="991.65" y="960.58" width="5.67" height="2.83"/>
    </g>
    <g id="dy" data-name="LWPOLYLINE">
      <polyline class="nu" points="991.65 961.43 990.52 961.43 990.52 962.57 991.65 962.57"/>
    </g>
    <g id="dz" data-name="LINE">
      <line class="nu" x1="990.52" y1="962" x2="988.82" y2="962"/>
    </g>
    <g id="ea" data-name="LWPOLYLINE">
      <polyline class="nu" points="989.52 960.58 988.82 960.58 988.82 963.42 989.51 963.42"/>
    </g>
    <g id="eb" data-name="LWPOLYLINE">
      <rect class="nu" x="991.65" y="670.88" width="5.67" height="2.83"/>
    </g>
    <g id="ec" data-name="LWPOLYLINE">
      <polyline class="nu" points="991.65 671.73 990.52 671.73 990.52 672.87 991.65 672.87"/>
    </g>
    <g id="ed" data-name="LINE">
      <line class="nu" x1="990.52" y1="672.3" x2="988.82" y2="672.3"/>
    </g>
    <g id="ee" data-name="LWPOLYLINE">
      <polyline class="nu" points="989.52 670.88 988.82 670.88 988.82 673.72 989.51 673.72"/>
    </g>
    <g id="ef" data-name="LWPOLYLINE">
      <rect class="nu" x="991.65" y="591.51" width="5.67" height="2.83"/>
    </g>
    <g id="eg" data-name="LWPOLYLINE">
      <polyline class="nu" points="991.65 592.36 990.52 592.36 990.52 593.5 991.65 593.5"/>
    </g>
    <g id="eh" data-name="LINE">
      <line class="nu" x1="990.52" y1="592.93" x2="988.82" y2="592.93"/>
    </g>
    <g id="ei" data-name="LWPOLYLINE">
      <polyline class="nu" points="989.52 591.51 988.82 591.51 988.82 594.35 989.51 594.35"/>
    </g>
    <g id="ej" data-name="LWPOLYLINE">
      <rect class="nu" x="991.65" y="516.11" width="5.67" height="2.83"/>
    </g>
    <g id="ek" data-name="LWPOLYLINE">
      <polyline class="nu" points="991.65 516.96 990.52 516.96 990.52 518.09 991.65 518.09"/>
    </g>
    <g id="el" data-name="LINE">
      <line class="nu" x1="990.52" y1="517.53" x2="988.82" y2="517.53"/>
    </g>
    <g id="em" data-name="LWPOLYLINE">
      <polyline class="nu" points="989.52 516.11 988.82 516.11 988.82 518.94 989.51 518.94"/>
    </g>
    <g id="en" data-name="LWPOLYLINE">
      <rect class="nu" x="1143.31" y="465.65" width="5.67" height="2.83"/>
    </g>
    <g id="eo" data-name="LWPOLYLINE">
      <polyline class="nu" points="1148.98 467.64 1150.11 467.64 1150.11 466.5 1148.98 466.5"/>
    </g>
    <g id="ep" data-name="LINE">
      <line class="nu" x1="1150.11" y1="467.07" x2="1151.81" y2="467.07"/>
    </g>
    <g id="eq" data-name="LWPOLYLINE">
      <polyline class="nu" points="1151.11 468.49 1151.81 468.49 1151.81 465.65 1151.12 465.65"/>
    </g>
    <g id="er" data-name="LWPOLYLINE">
      <rect class="nu" x="1143.31" y="327.89" width="5.67" height="2.83"/>
    </g>
    <g id="es" data-name="LWPOLYLINE">
      <polyline class="nu" points="1148.98 329.87 1150.11 329.87 1150.11 328.74 1148.98 328.74"/>
    </g>
    <g id="et" data-name="LINE">
      <line class="nu" x1="1150.11" y1="329.31" x2="1151.81" y2="329.31"/>
    </g>
    <g id="eu" data-name="LWPOLYLINE">
      <polyline class="nu" points="1151.11 330.72 1151.81 330.72 1151.81 327.89 1151.12 327.89"/>
    </g>
    <g id="ev" data-name="LWPOLYLINE">
      <rect class="nu" x="991.65" y="470.76" width="5.67" height="2.83"/>
    </g>
    <g id="ew" data-name="LWPOLYLINE">
      <polyline class="nu" points="991.65 471.61 990.52 471.61 990.52 472.74 991.65 472.74"/>
    </g>
    <g id="ex" data-name="LINE">
      <line class="nu" x1="990.52" y1="472.17" x2="988.82" y2="472.17"/>
    </g>
    <g id="ey" data-name="LWPOLYLINE">
      <polyline class="nu" points="989.52 470.76 988.82 470.76 988.82 473.59 989.51 473.59"/>
    </g>
    <g id="ez" data-name="LWPOLYLINE">
      <rect class="nu" x="991.65" y="356.24" width="5.67" height="2.83"/>
    </g>
    <g id="fa" data-name="LWPOLYLINE">
      <polyline class="nu" points="991.65 357.09 990.52 357.09 990.52 358.22 991.65 358.22"/>
    </g>
    <g id="fb" data-name="LINE">
      <line class="nu" x1="990.52" y1="357.65" x2="988.82" y2="357.65"/>
    </g>
    <g id="fc" data-name="LWPOLYLINE">
      <polyline class="nu" points="989.52 356.24 988.82 356.24 988.82 359.07 989.51 359.07"/>
    </g>
    <g id="fd" data-name="LWPOLYLINE">
      <rect class="nu" x="991.65" y="428.24" width="5.67" height="2.83"/>
    </g>
    <g id="fe" data-name="LWPOLYLINE">
      <polyline class="nu" points="991.65 429.09 990.52 429.09 990.52 430.22 991.65 430.22"/>
    </g>
    <g id="ff" data-name="LINE">
      <line class="nu" x1="990.52" y1="429.65" x2="988.82" y2="429.65"/>
    </g>
    <g id="fg" data-name="LWPOLYLINE">
      <polyline class="nu" points="989.52 428.24 988.82 428.24 988.82 431.07 989.51 431.07"/>
    </g>
    <g id="fh" data-name="LINE">
      <line class="nu" x1="997.32" y1="673.72" x2="997.32" y2="746.28"/>
    </g>
    <g id="fi" data-name="LINE">
      <line class="nu" x1="988.82" y1="673.72" x2="988.82" y2="746.28"/>
    </g>
    <g id="fj" data-name="LINE">
      <line class="nu" x1="997.32" y1="827.35" x2="997.32" y2="960.58"/>
    </g>
    <g id="fk" data-name="LINE">
      <line class="nu" x1="988.82" y1="827.35" x2="988.82" y2="960.58"/>
    </g>
    <g id="fl" data-name="LINE">
      <line class="nu" x1="997.32" y1="518.94" x2="997.32" y2="591.51"/>
    </g>
    <g id="fm" data-name="LINE">
      <line class="nu" x1="988.82" y1="518.94" x2="988.82" y2="591.51"/>
    </g>
    <g id="fn" data-name="LINE">
      <line class="nu" x1="1143.31" y1="465.65" x2="1143.31" y2="341.5"/>
    </g>
    <g id="fo" data-name="LINE">
      <line class="nu" x1="1151.81" y1="465.65" x2="1151.81" y2="330.72"/>
    </g>
    <g id="fp" data-name="LINE">
      <line class="nu" x1="997.32" y1="357.94" x2="997.32" y2="428.24"/>
    </g>
    <g id="fq" data-name="LINE">
      <line class="nu" x1="997.32" y1="431.07" x2="997.32" y2="470.76"/>
    </g>
    <g id="fr" data-name="LINE">
      <line class="nu" x1="988.82" y1="357.94" x2="988.82" y2="428.24"/>
    </g>
    <g id="fs" data-name="LINE">
      <line class="nu" x1="988.82" y1="431.07" x2="988.82" y2="470.76"/>
    </g>
    <g id="ft" data-name="LWPOLYLINE">
      <polyline class="nu" points="974.65 825.65 974.65 961.72 988.82 961.72"/>
    </g>
    <g id="fu" data-name="LINE">
      <line class="nu" x1="1337.48" y1="795.61" x2="1337.48" y2="649.9"/>
    </g>
    <g id="fv" data-name="LINE">
      <line class="nu" x1="1348.82" y1="795.61" x2="1348.82" y2="650.19"/>
    </g>
    <g id="fw" data-name="LWPOLYLINE">
      <polyline class="nu" points="988.82 785.97 974.65 785.97 974.65 670.88"/>
    </g>
    <g id="fx" data-name="LWPOLYLINE">
      <polyline class="nu" points="1203.12 916.36 1059.69 916.36 1059.69 961.72"/>
    </g>
    <g id="fy" data-name="LINE">
      <line class="nu" x1="1203.12" y1="917.5" x2="1059.69" y2="917.5"/>
    </g>
    <g id="fz" data-name="LINE">
      <line class="nu" x1="1060.82" y1="917.5" x2="1060.82" y2="961.72"/>
    </g>
    <g id="ga" data-name="LWPOLYLINE">
      <path class="nu" d="M1200.79,916.36v-10.77c0-1.39-1.13-2.52-2.52-2.52h-6.24c-1.39,0-2.52,1.13-2.52,2.52v1.51h1.11v-1.23c0-.94.76-1.7,1.7-1.7h5.67c.94,0,1.7.76,1.7,1.7v10.49"/>
    </g>
    <g id="gb" data-name="LINE">
      <line class="nu" x1="1337.48" y1="640.83" x2="1337.48" y2="487.21"/>
    </g>
    <g id="gc" data-name="LINE">
      <line class="nu" x1="1348.82" y1="640.83" x2="1348.82" y2="487.21"/>
    </g>
    <g id="gd" data-name="LWPOLYLINE">
      <polyline class="nu" points="988.82 631.2 974.65 631.2 974.65 507.61"/>
    </g>
    <g id="ge" data-name="LINE">
      <line class="nu" x1="1068.19" y1="1113.37" x2="1068.19" y2="991.76"/>
    </g>
    <g id="gf" data-name="LINE">
      <line class="nu" x1="1060.82" y1="956.05" x2="1203.12" y2="956.05"/>
    </g>
    <g id="gg" data-name="LINE">
      <line class="nu" x1="1180.44" y1="956.05" x2="1180.44" y2="917.5"/>
    </g>
    <g id="gh" data-name="LINE">
      <line class="nu" x1="1157.76" y1="956.05" x2="1157.76" y2="917.5"/>
    </g>
    <g id="gi" data-name="LINE">
      <line class="nu" x1="1135.09" y1="956.05" x2="1135.09" y2="917.5"/>
    </g>
    <g id="gj" data-name="LINE">
      <line class="nu" x1="1112.41" y1="956.05" x2="1112.41" y2="917.5"/>
    </g>
    <g id="gk" data-name="LINE">
      <line class="nu" x1="1102.2" y1="1069.15" x2="1102.2" y2="1113.37"/>
    </g>
    <g id="gl" data-name="LINE">
      <line class="nu" x1="1102.2" y1="1107.7" x2="1204.25" y2="1107.7"/>
    </g>
    <g id="gm" data-name="LWPOLYLINE">
      <polyline class="nu" points="1204.25 1068.02 1102.2 1068.02 1102.2 1069.15 1204.25 1069.15"/>
    </g>
    <g id="gn" data-name="LINE">
      <line class="nu" x1="1136.98" y1="1107.7" x2="1136.98" y2="1069.15"/>
    </g>
    <g id="go" data-name="LINE">
      <line class="nu" x1="1170.61" y1="1107.7" x2="1170.61" y2="1069.15"/>
    </g>
    <g id="gp" data-name="LWPOLYLINE">
      <polyline class="nu" points="974.65 356.24 974.65 467.92 988.82 467.92"/>
    </g>
    <g id="gq" data-name="LWPOLYLINE">
      <path class="nu" d="M1171.08,1068.02v-10.77c0-1.39-1.13-2.52-2.52-2.52h-6.24c-1.39,0-2.52,1.13-2.52,2.52v1.51h1.11v-1.23c0-.94.76-1.7,1.7-1.7h5.67c.94,0,1.7.76,1.7,1.7v10.49"/>
    </g>
    <g id="gr" data-name="LINE">
      <line class="nu" x1="1102.2" y1="1068.02" x2="1102.2" y2="991.76"/>
    </g>
    <g id="gs" data-name="LINE">
      <line class="nu" x1="1289.29" y1="997.15" x2="1289.29" y2="1076.52"/>
    </g>
    <g id="gt" data-name="LWPOLYLINE">
      <polyline class="nu" points="1307.43 1011.32 1307.43 997.15 1289.29 997.15 1289.29 994.31 1310.27 994.31"/>
    </g>
    <g id="gu" data-name="LWPOLYLINE">
      <polyline class="nu" points="1306.68 1079.35 1289.29 1079.35 1289.29 1076.52 1306.68 1076.52"/>
    </g>
    <g id="gv" data-name="LWPOLYLINE">
      <g>
        <line class="nu" x1="1320.47" y1="996.02" x2="1321.25" y2="996.64"/>
        <line class="nq" x1="1322.01" y1="997.26" x2="1369.77" y2="1035.9"/>
        <polyline class="nu" points="1370.15 1036.21 1370.93 1036.83 1370.15 1037.46"/>
        <line class="nq" x1="1369.39" y1="1038.08" x2="1321.63" y2="1076.71"/>
        <line class="nu" x1="1321.25" y1="1077.02" x2="1320.47" y2="1077.65"/>
      </g>
    </g>
    <g id="gw" data-name="LWPOLYLINE">
      <polyline class="nw" points="1078.11 342.63 1123.46 409.53 1078.11 476.99"/>
    </g>
    <g id="gx" data-name="LINE">
      <line class="nk" x1="1388.08" y1="970.79" x2="1459.37" y2="970.79"/>
    </g>
    <g id="gy" data-name="LWPOLYLINE">
      <polygon class="nk" points="1389.64 952.08 1389.64 794.75 1456.54 801.03 1456.54 952.08 1389.64 952.08"/>
    </g>
    <g id="gz" data-name="LWPOLYLINE">
      <polyline class="nk" points="1459.37 954.91 1388.08 954.91 1388.08 961.72"/>
    </g>
    <g id="ha" data-name="LINE">
      <line class="nk" x1="1238.27" y1="950.38" x2="1368.66" y2="950.38"/>
    </g>
    <g id="hb" data-name="LINE">
      <line class="nk" x1="1297.23" y1="950.38" x2="1297.23" y2="849.46"/>
    </g>
    <g id="hc" data-name="LINE">
      <line class="nk" x1="1368.66" y1="849.46" x2="1238.27" y2="849.46"/>
    </g>
    <g id="hd" data-name="LINE">
      <line class="nk" x1="1267.75" y1="849.46" x2="1267.75" y2="950.38"/>
    </g>
    <g id="he" data-name="LWPOLYLINE">
      <rect class="nk" x="1232.6" y="958.88" width="2.83" height="2.83"/>
    </g>
    <g id="hf" data-name="LWPOLYLINE">
      <rect class="nk" x="1232.6" y="825.65" width="2.83" height="2.83"/>
    </g>
    <g id="hg" data-name="LWPOLYLINE">
      <rect class="nk" x="1310.27" y="1110.53" width="2.83" height="2.83"/>
    </g>
    <g id="hh" data-name="LWPOLYLINE">
      <rect class="nk" x="1310.27" y="982.13" width="2.83" height="2.83"/>
    </g>
    <g id="hi" data-name="LINE">
      <line class="nk" x1="1260.94" y1="795.61" x2="1260.94" y2="660.68"/>
    </g>
    <g id="hj" data-name="LINE">
      <line class="nk" x1="1303.46" y1="660.68" x2="1303.46" y2="795.61"/>
    </g>
    <g id="hk" data-name="LINE">
      <line class="nk" x1="1282.2" y1="660.68" x2="1282.2" y2="795.61"/>
    </g>
    <g id="hl" data-name="LINE">
      <line class="nk" x1="1260.94" y1="640.83" x2="1260.94" y2="505.9"/>
    </g>
    <g id="hm" data-name="LINE">
      <line class="nk" x1="1303.46" y1="505.9" x2="1303.46" y2="640.83"/>
    </g>
    <g id="hn" data-name="LINE">
      <line class="nk" x1="1282.2" y1="505.92" x2="1282.2" y2="640.83"/>
    </g>
    <g id="ho" data-name="LINE">
      <line class="nk" x1="1035.59" y1="341.5" x2="1035.59" y2="477.56"/>
    </g>
    <g id="hp" data-name="LINE">
      <line class="nk" x1="1077.54" y1="341.5" x2="1077.54" y2="477.56"/>
    </g>
    <g id="hq" data-name="LINE">
      <line class="nk" x1="1289.29" y1="982.13" x2="1289.29" y2="997.15"/>
    </g>
    <g id="hr" data-name="LINE">
      <line class="nk" x1="1289.29" y1="1079.35" x2="1289.29" y2="1113.37"/>
    </g>
    <g id="hs" data-name="LINE">
      <line class="nk" x1="1318.77" y1="1079.35" x2="1316.69" y2="1079.35"/>
    </g>
    <g id="ht" data-name="LINE">
      <line class="nk" x1="1310.27" y1="994.31" x2="1318.77" y2="994.31"/>
    </g>
    <g id="hu" data-name="LINE">
      <line class="nk" x1="1372.63" y1="994.31" x2="1372.63" y2="982.13"/>
    </g>
    <g id="hv" data-name="LINE">
      <line class="nk" x1="1372.63" y1="1079.35" x2="1372.63" y2="1087.86"/>
    </g>
    <g id="hw" data-name="LWPOLYLINE">
      <line class="nk" x1="983.72" y1="321.09" x2="1145.01" y2="321.09"/>
    </g>
    <g id="hx" data-name="LWPOLYLINE">
      <line class="nk" x1="983.72" y1="320.52" x2="1145.01" y2="320.52"/>
    </g>
    <g id="hy" data-name="LWPOLYLINE">
      <line class="nk" x1="983.72" y1="322.22" x2="983.72" y2="317.68"/>
    </g>
    <g id="hz" data-name="LWPOLYLINE">
      <line class="nk" x1="982.58" y1="322.22" x2="982.58" y2="317.68"/>
    </g>
    <g id="ia" data-name="LWPOLYLINE">
      <line class="nk" x1="1146.14" y1="322.22" x2="1146.14" y2="317.68"/>
    </g>
    <g id="ib" data-name="LWPOLYLINE">
      <line class="nk" x1="1145.01" y1="322.22" x2="1145.01" y2="317.68"/>
    </g>
    <g id="ic" data-name="LWPOLYLINE">
      <line class="nk" x1="1307.72" y1="471.32" x2="1375.46" y2="471.32"/>
    </g>
    <g id="id" data-name="LWPOLYLINE">
      <line class="nk" x1="1307.72" y1="469.62" x2="1375.46" y2="469.62"/>
    </g>
    <g id="ie" data-name="LWPOLYLINE">
      <line class="nk" x1="1375.46" y1="473.59" x2="1375.46" y2="467.35"/>
    </g>
    <g id="if" data-name="LWPOLYLINE">
      <line class="nk" x1="1376.6" y1="473.59" x2="1376.6" y2="467.35"/>
    </g>
    <g id="ig" data-name="LWPOLYLINE">
      <polyline class="nk" points="1386.09 970.79 1388.08 970.79 1388.08 961.72 1387.51 961.72 1387.51 969.65 1386.66 969.65 1386.66 961.72 1386.09 961.72 1386.09 963.42"/>
    </g>
    <g id="ih" data-name="LWPOLYLINE">
      <rect class="nk" x="1318.77" y="994.31" width="53.86" height="85.04"/>
    </g>
    <g id="ii" data-name="LWPOLYLINE">
      <polygon class="nx" points="1384.72 787.63 1384.74 787.46 1385.86 787.56 1385.49 791.52 1385.32 791.5 1385.68 787.72 1384.72 787.63"/>
    </g>
    <g id="ij" data-name="LWPOLYLINE">
      <polygon class="nx" points="1388.11 787.95 1388.12 787.78 1386.99 787.67 1386.62 791.62 1386.79 791.64 1387.15 787.86 1388.11 787.95"/>
    </g>
    <g id="ik" data-name="LWPOLYLINE">
      <polygon class="nx" points="1458.75 794.57 1458.77 794.4 1459.9 794.51 1459.53 798.46 1459.36 798.44 1459.71 794.66 1458.75 794.57"/>
    </g>
    <g id="il" data-name="LWPOLYLINE">
      <polygon class="nx" points="1462.14 794.89 1462.16 794.72 1461.03 794.61 1460.66 798.56 1460.83 798.58 1461.18 794.8 1462.14 794.89"/>
    </g>
    <g id="im" data-name="LWPOLYLINE">
      <polygon class="nx" points="1463.23 794.82 1463.12 794.81 1463.29 792.94 1462.16 792.84 1462.17 792.73 1463.41 792.84 1463.23 794.82"/>
    </g>
    <g id="in" data-name="LWPOLYLINE">
      <polygon class="nx" points="1383.55 787.35 1383.66 787.36 1383.84 785.5 1384.97 785.6 1384.98 785.49 1383.74 785.37 1383.55 787.35"/>
    </g>
    <g id="io" data-name="LWPOLYLINE">
      <polygon class="nx" points="1462.53 795.18 1462.53 798.58 1468.2 798.58 1468.2 795.18 1468.03 795.18 1468.03 798.41 1462.7 798.41 1462.7 795.18 1462.53 795.18"/>
    </g>
    <g id="ip" data-name="LWPOLYLINE">
      <polygon class="nx" points="1378.81 788.24 1378.81 791.64 1384.47 791.64 1384.47 788.24 1384.3 788.24 1384.3 791.47 1378.98 791.47 1378.98 788.24 1378.81 788.24"/>
    </g>
    <g id="iq" data-name="LWPOLYLINE">
      <path class="nx" d="M1343.35,651.1v8.96c0,.34.28.62.62.62h4.85v.57h-11.34v-.57h4.85c.34,0,.62-.28.62-.62v-8.96c0-.34-.28-.62-.62-.62h-4.85s0-.57,0-.57h11.34v.57h-4.85c-.34,0-.62.28-.62.62Z"/>
    </g>
    <g id="ir" data-name="LWPOLYLINE">
      <path class="nx" d="M1008.86,651.1v8.96c0,.34.28.62.62.62h4.85v.57h-11.34v-.57h4.85c.34,0,.62-.28.62-.62v-8.96c0-.34-.28-.62-.62-.62h-4.85v-.57h11.34v.57h-4.85c-.34,0-.62.28-.62.62Z"/>
    </g>
    <g id="is" data-name="LWPOLYLINE">
      <path class="nx" d="M1222.68,649.9h14.17v.57h-6.26c-.34,0-.62.28-.62.62v11.79c0,.34.28.62.62.62h6.26v.57h-14.17v-.57h6.26c.34,0,.62-.28.62-.62v-11.79c0-.34-.28-.62-.62-.62h-6.26v-.57Z"/>
    </g>
    <g id="it" data-name="LWPOLYLINE">
      <path class="nx" d="M1343.35,487.83v8.96c0,.34.28.62.62.62h4.85v.57h-11.34v-.57h4.85c.34,0,.62-.28.62-.62v-8.96c0-.34-.28-.62-.62-.62h-4.85v-.57h11.34v.57h-4.85c-.34,0-.62.28-.62.62Z"/>
    </g>
    <g id="iu" data-name="LWPOLYLINE">
      <path class="nx" d="M1008.86,487.83v8.96c0,.34.28.62.62.62h4.85v.57h-11.34v-.57h4.85c.34,0,.62-.28.62-.62v-8.96c0-.34-.28-.62-.62-.62h-4.85v-.57h11.34v.57h-4.85c-.34,0-.62.28-.62.62Z"/>
    </g>
    <g id="iv" data-name="LWPOLYLINE">
      <path class="nx" d="M1222.68,486.64h14.17v.57h-6.26c-.34,0-.62.28-.62.62v11.79c0,.34.28.62.62.62h6.26v.57h-14.17v-.57h6.26c.34,0,.62-.28.62-.62v-11.79c0-.34-.28-.62-.62-.62h-6.26v-.57Z"/>
    </g>
    <g id="iw" data-name="LWPOLYLINE">
      <path class="nx" d="M1134.21,328.46c-.34,0-.62.28-.62.62v6.12c0,.34.28.62.62.62h3.43v.57h-8.5v-.57h3.43c.34,0,.62-.28.62-.62v-6.12c0-.34-.28-.62-.62-.62h-3.43v-.57h8.5v.57h-3.43Z"/>
    </g>
    <g id="ix" data-name="LWPOLYLINE">
      <path class="nx" d="M1009.48,328.46c-.34,0-.62.28-.62.62v6.12c0,.34.28.62.62.62h3.43v.57h-8.5v-.57h3.43c.34,0,.62-.28.62-.62v-6.12c0-.34-.28-.62-.62-.62h-3.43v-.57h8.5v.57h-3.43Z"/>
    </g>
    <g id="iy" data-name="LWPOLYLINE">
      <path class="nx" d="M1343.97,545.32c-.34,0-.62.28-.62.62v6.12c0,.34.28.62.62.62h3.43v.57h-8.5v-.57h3.43c.34,0,.62-.28.62-.62v-6.12c0-.34-.28-.62-.62-.62h-3.43v-.57h8.5v.57h-3.43Z"/>
    </g>
    <g id="iz" data-name="LWPOLYLINE">
      <path class="nx" d="M1343.97,586.13c-.34,0-.62.28-.62.62v6.12c0,.34.28.62.62.62h3.43v.57h-8.5v-.57h3.43c.34,0,.62-.28.62-.62v-6.12c0-.34-.28-.62-.62-.62h-3.43v-.57h8.5v.57h-3.43Z"/>
    </g>
    <g id="ja" data-name="LWPOLYLINE">
      <path class="nx" d="M1343.97,697.24c-.34,0-.62.28-.62.62v6.12c0,.34.28.62.62.62h3.43v.57h-8.5v-.57h3.43c.34,0,.62-.28.62-.62v-6.12c0-.34-.28-.62-.62-.62h-3.43v-.57h8.5v.57h-3.43Z"/>
    </g>
    <g id="jb" data-name="LWPOLYLINE">
      <path class="nx" d="M1343.97,740.9c-.34,0-.62.28-.62.62v6.12c0,.34.28.62.62.62h3.43v.57h-8.5v-.57h3.43c.34,0,.62-.28.62-.62v-6.12c0-.34-.28-.62-.62-.62h-3.43v-.57h8.5v.57h-3.43Z"/>
    </g>
    <g id="jc" data-name="LWPOLYLINE">
      <polyline class="nx" points="1340.6 1113.37 1340.6 1104.87 1355.62 1104.87 1355.62 1096.36 1370.65 1096.36 1370.65 1087.86 1385.67 1087.86 1385.67 1079.35 1439.34 1079.35 1439.34 1070.85 1459.37 1070.85"/>
    </g>
    <g id="jd" data-name="LWPOLYLINE">
      <polyline class="nx" points="1342.3 1113.37 1342.3 1106.57 1357.32 1106.57 1357.32 1098.06 1372.35 1098.06 1372.35 1089.56 1387.37 1089.56 1387.37 1081.05 1441.04 1081.05 1441.04 1072.55 1459.37 1072.55"/>
    </g>
    <g id="je" data-name="LWPOLYLINE">
      <polyline class="nx" points="988.82 824.52 988.82 825.65 974.65 825.65 974.65 791.64 988.82 791.64"/>
    </g>
    <g id="jf" data-name="LWPOLYLINE">
      <polyline class="nx" points="991.65 670.88 974.65 670.88 974.65 636.87 988.82 636.87"/>
    </g>
    <g id="jg" data-name="LWPOLYLINE">
      <polyline class="nx" points="988.82 507.61 974.65 507.61 974.65 473.59 988.82 473.59"/>
    </g>
    <g id="jh" data-name="LWPOLYLINE">
      <polyline class="nx" points="1366.96 670.88 1381.13 670.88 1381.13 636.87 1366.96 636.87"/>
    </g>
    <g id="ji" data-name="LWPOLYLINE">
      <polyline class="nx" points="1366.96 507.61 1381.13 507.61 1381.13 473.59 1366.96 473.59 1366.96 479.26"/>
    </g>
    <g id="jj" data-name="LWPOLYLINE">
      <polyline class="nx" points="988.82 356.24 974.65 356.24 974.65 322.22 991.65 322.22"/>
    </g>
    <g id="jk" data-name="LWPOLYLINE">
      <rect class="nx" x="974.65" y="316.55" width="183.23" height="1.13"/>
    </g>
    <g id="jl" data-name="LINE">
      <line class="nx" x1="1151.81" y1="468.49" x2="1296.38" y2="468.49"/>
    </g>
    <g id="jm" data-name="LWPOLYLINE">
      <polyline class="nx" points="1307.72 466.22 1381.13 466.22 1381.13 467.35 1307.72 467.35"/>
    </g>
    <g id="jn" data-name="LWPOLYLINE">
      <line class="nx" x1="1386.8" y1="791.52" x2="1459.37" y2="798.33"/>
    </g>
    <g id="jo" data-name="LWPOLYLINE">
      <line class="nx" x1="1387.15" y1="787.86" x2="1459.71" y2="794.66"/>
    </g>
    <g id="jp" data-name="LINE">
      <line class="nx" x1="1368.66" y1="825.65" x2="1368.66" y2="961.72"/>
    </g>
    <g id="jq" data-name="LINE">
      <line class="nx" x1="1386.79" y1="791.64" x2="1386.8" y2="918.63"/>
    </g>
    <g id="jr" data-name="LINE">
      <line class="nx" x1="1368.66" y1="826.79" x2="1238.27" y2="826.79"/>
    </g>
    <g id="js" data-name="LINE">
      <line class="nx" x1="1238.27" y1="825.65" x2="1238.27" y2="868.17"/>
    </g>
    <g id="jt" data-name="LINE">
      <line class="nx" x1="1238.27" y1="936.2" x2="1238.27" y2="961.72"/>
    </g>
    <g id="ju" data-name="LINE">
      <line class="nx" x1="1203.12" y1="825.65" x2="1203.12" y2="961.72"/>
    </g>
    <g id="jv" data-name="LINE">
      <line class="nx" x1="1221.83" y1="825.65" x2="1028.5" y2="825.65"/>
    </g>
    <g id="jw" data-name="LINE">
      <line class="nx" x1="1029.64" y1="825.65" x2="1029.64" y2="961.72"/>
    </g>
    <g id="jx" data-name="LINE">
      <line class="nx" x1="1236.85" y1="650.47" x2="1236.85" y2="795.61"/>
    </g>
    <g id="jy" data-name="LINE">
      <line class="nx" x1="1222.68" y1="650.47" x2="1222.68" y2="795.61"/>
    </g>
    <g id="jz" data-name="LINE">
      <line class="nx" x1="1014.33" y1="660.68" x2="1222.68" y2="660.68"/>
    </g>
    <g id="ka" data-name="LINE">
      <line class="nx" x1="1337.48" y1="660.68" x2="1236.85" y2="660.68"/>
    </g>
    <g id="kb" data-name="LINE">
      <line class="nx" x1="1014.33" y1="650.47" x2="1014.33" y2="795.61"/>
    </g>
    <g id="kc" data-name="LINE">
      <line class="nx" x1="1002.99" y1="650.47" x2="1002.99" y2="795.61"/>
    </g>
    <g id="kd" data-name="LINE">
      <line class="nx" x1="1236.85" y1="486.63" x2="1236.85" y2="640.83"/>
    </g>
    <g id="ke" data-name="LINE">
      <line class="nx" x1="1222.68" y1="486.63" x2="1222.68" y2="640.83"/>
    </g>
    <g id="kf" data-name="LINE">
      <line class="nx" x1="1014.33" y1="497.41" x2="1222.68" y2="497.41"/>
    </g>
    <g id="kg" data-name="LINE">
      <line class="nx" x1="1337.48" y1="497.41" x2="1236.85" y2="497.41"/>
    </g>
    <g id="kh" data-name="LINE">
      <line class="nx" x1="1014.33" y1="487.21" x2="1014.33" y2="640.83"/>
    </g>
    <g id="ki" data-name="LINE">
      <line class="nx" x1="1002.99" y1="487.21" x2="1002.99" y2="640.83"/>
    </g>
    <g id="kj" data-name="LINE">
      <line class="nx" x1="1012.91" y1="335.83" x2="1129.18" y2="335.83"/>
    </g>
    <g id="kk" data-name="LINE">
      <line class="nx" x1="1129.13" y1="328.5" x2="1129.13" y2="477.56"/>
    </g>
    <g id="kl" data-name="LINE">
      <line class="nx" x1="1012.91" y1="328.46" x2="1012.91" y2="477.56"/>
    </g>
    <g id="km" data-name="LINE">
      <line class="nx" x1="1004.41" y1="328.46" x2="1004.41" y2="477.56"/>
    </g>
    <g id="kn" data-name="LINE">
      <line class="nx" x1="1028.5" y1="991.76" x2="1028.5" y2="1113.37"/>
    </g>
    <g id="ko" data-name="LINE">
      <line class="nx" x1="1238.27" y1="991.76" x2="1238.27" y2="1113.37"/>
    </g>
    <g id="kp" data-name="LINE">
      <line class="nx" x1="1204.25" y1="1113.37" x2="1204.25" y2="991.76"/>
    </g>
    <g id="kq" data-name="LINE">
      <line class="nx" x1="1221.26" y1="991.76" x2="1008.66" y2="991.76"/>
    </g>
    <g id="kr" data-name="LINE">
      <line class="nx" x1="1338.9" y1="705.18" x2="1338.9" y2="661.24"/>
    </g>
    <g id="ks" data-name="LINE">
      <line class="nx" x1="1347.4" y1="704.61" x2="1347.4" y2="661.24"/>
    </g>
    <g id="kt" data-name="LINE">
      <line class="nx" x1="1338.9" y1="740.33" x2="1338.9" y2="795.61"/>
    </g>
    <g id="ku" data-name="LINE">
      <line class="nx" x1="1347.4" y1="740.33" x2="1347.4" y2="795.61"/>
    </g>
    <g id="kv" data-name="LINE">
      <line class="nx" x1="1347.4" y1="585.56" x2="1347.4" y2="640.83"/>
    </g>
    <g id="kw" data-name="LINE">
      <line class="nx" x1="1338.9" y1="585.56" x2="1338.9" y2="640.83"/>
    </g>
    <g id="kx" data-name="LINE">
      <line class="nx" x1="1347.4" y1="553.26" x2="1347.4" y2="505.92"/>
    </g>
    <g id="ky" data-name="LINE">
      <line class="nx" x1="1338.9" y1="553.26" x2="1338.9" y2="505.92"/>
    </g>
    <g id="kz" data-name="LINE">
      <line class="nx" x1="1137.64" y1="328.5" x2="1137.64" y2="477.56"/>
    </g>
    <g id="la" data-name="LINE">
      <line class="nx" x1="1008.66" y1="1113.37" x2="1344" y2="1113.37"/>
    </g>
    <g id="lb" data-name="LINE">
      <line class="nx" x1="1008.66" y1="1113.94" x2="1344" y2="1113.94"/>
    </g>
    <g id="lc" data-name="LWPOLYLINE">
      <polyline class="nx" points="1372.63 970.79 1372.63 982.13 1243.94 982.13 1243.94 976.46 1238.27 976.46"/>
    </g>
    <g id="ld" data-name="LWPOLYLINE">
      <polyline class="nx" points="1371.5 970.79 1371.5 980.99 1245.07 980.99 1245.07 975.32 1238.27 975.32"/>
    </g>
    <g id="le" data-name="LINE">
      <line class="nx" x1="1001.86" y1="795.61" x2="1351.65" y2="795.61"/>
    </g>
    <g id="lf" data-name="LINE">
      <line class="nx" x1="997.32" y1="961.72" x2="1386.09" y2="961.72"/>
    </g>
    <g id="lg" data-name="LWPOLYLINE">
      <line class="nx" x1="1000.16" y1="640.83" x2="1351.65" y2="640.83"/>
    </g>
    <g id="lh" data-name="LINE">
      <line class="nx" x1="1000.16" y1="477.56" x2="1143.31" y2="477.56"/>
    </g>
    <g id="li" data-name="LWPOLYLINE">
      <polyline class="nx" points="1001.86 341.5 1143.31 341.5 1143.31 327.89"/>
    </g>
    <g id="lj" data-name="LWPOLYLINE">
      <polyline class="nx" points="1001.86 340.36 1142.17 340.36 1142.17 327.89"/>
    </g>
    <g id="lk" data-name="LINE">
      <line class="nx" x1="1014.33" y1="505.92" x2="1236.85" y2="505.92"/>
    </g>
    <g id="ll" data-name="LINE">
      <line class="nx" x1="1014.33" y1="504.62" x2="1237.15" y2="504.62"/>
    </g>
    <g id="lm" data-name="LINE">
      <line class="nx" x1="1351.65" y1="505.92" x2="1236.85" y2="505.92"/>
    </g>
    <g id="ln" data-name="LINE">
      <line class="nx" x1="1351.65" y1="504.62" x2="1236.85" y2="504.62"/>
    </g>
    <g id="lo" data-name="LINE">
      <line class="nx" x1="1296.38" y1="468.49" x2="1296.38" y2="402.72"/>
    </g>
    <g id="lp" data-name="LINE">
      <line class="nx" x1="1307.72" y1="402.72" x2="1307.72" y2="468.49"/>
    </g>
    <g id="lq" data-name="LWPOLYLINE">
      <rect class="nx" x="1294.96" y="401.02" width="14.17" height="1.7"/>
    </g>
    <g id="lr" data-name="LWPOLYLINE">
      <polyline class="nx" points="1459.37 1075.39 1459.37 798.58 1462.2 798.58"/>
    </g>
    <g id="ls" data-name="LINE">
      <line class="nx" x1="1351.65" y1="797.31" x2="1351.65" y2="649.9"/>
    </g>
    <g id="lt" data-name="LWPOLYLINE">
      <line class="nx" x1="1151.81" y1="469.62" x2="1296.38" y2="469.62"/>
    </g>
    <g id="lu" data-name="LINE">
      <line class="nx" x1="1351.65" y1="642.53" x2="1351.65" y2="486.63"/>
    </g>
    <g id="lv" data-name="LINE">
      <line class="nn" x1="1354.49" y1="636.87" x2="1354.49" y2="486.63"/>
    </g>
    <g id="lw" data-name="LINE">
      <line class="nn" x1="1360.16" y1="636.87" x2="1360.16" y2="486.63"/>
    </g>
    <g id="lx" data-name="LINE">
      <line class="nn" x1="1354.49" y1="791.64" x2="1354.49" y2="649.9"/>
    </g>
    <g id="ly" data-name="LINE">
      <line class="nn" x1="1360.16" y1="791.64" x2="1360.16" y2="649.9"/>
    </g>
    <g id="lz" data-name="LINE">
      <line class="no" x1="1008.66" y1="1113.94" x2="1008.66" y2="970.79"/>
    </g>
    <g id="ma" data-name="LINE">
      <line class="no" x1="1002.99" y1="1113.94" x2="1002.99" y2="970.79"/>
    </g>
    <g id="mb" data-name="LWPOLYLINE">
      <polyline class="no" points="1462.2 963.42 1462.2 798.58 1473.54 798.58 1473.54 963.42"/>
    </g>
    <g id="mc" data-name="LWPOLYLINE">
      <polyline class="no" points="1299.21 468.49 1299.21 402.72 1304.88 402.72 1304.88 468.49"/>
    </g>
    <g id="md" data-name="LWPOLYLINE">
      <polyline class="no" points="991.65 804.68 991.65 824.52 997.32 824.52 997.32 804.68"/>
    </g>
    <g id="me" data-name="LWPOLYLINE">
      <polyline class="no" points="991.65 791.64 991.65 751.95 997.32 751.95 997.32 791.64"/>
    </g>
    <g id="mf" data-name="LWPOLYLINE">
      <polyline class="no" points="991.65 649.9 991.65 668.05 997.32 668.05 997.32 649.9"/>
    </g>
    <g id="mg" data-name="LWPOLYLINE">
      <polyline class="no" points="991.65 636.87 991.65 597.18 997.32 597.18 997.32 636.87"/>
    </g>
    <g id="mh" data-name="LWPOLYLINE">
      <polyline class="no" points="991.65 486.63 991.65 513.28 997.32 513.28 997.32 486.63"/>
    </g>
    <g id="mi" data-name="LWPOLYLINE">
      <polyline class="no" points="991.65 327.89 991.65 353.4 997.32 353.4 997.32 327.89"/>
    </g>
    <g id="mj" data-name="LINE">
      <line class="ny" x1="1366.96" y1="791.64" x2="1366.96" y2="670.88"/>
    </g>
    <g id="mk" data-name="LWPOLYLINE">
      <polyline class="ny" points="988.82 791.64 988.82 749.12 1001.86 749.12 1001.86 797.31"/>
    </g>
    <g id="ml" data-name="LWPOLYLINE">
      <polyline class="ny" points="997.32 672.3 1001.86 672.3 1001.86 649.9"/>
    </g>
    <g id="mm" data-name="LINE">
      <line class="ny" x1="1366.96" y1="636.87" x2="1366.96" y2="507.61"/>
    </g>
    <g id="mn" data-name="LWPOLYLINE">
      <rect class="ny" x="991.65" y="322.22" width="160.16" height="5.67"/>
    </g>
    <g id="mo" data-name="LINE">
      <line class="ny" x1="988.82" y1="636.87" x2="988.82" y2="594.35"/>
    </g>
    <g id="mp" data-name="LWPOLYLINE">
      <polyline class="ny" points="997.32 592.93 1000.16 592.93 1000.16 642.53"/>
    </g>
    <g id="mq" data-name="LINE">
      <line class="ny" x1="988.82" y1="507.61" x2="988.82" y2="516.11"/>
    </g>
    <g id="mr" data-name="LWPOLYLINE">
      <polyline class="ny" points="997.32 517.53 1000.16 517.53 1000.16 486.63"/>
    </g>
    <g id="ms" data-name="LWPOLYLINE">
      <polyline class="ny" points="997.32 472.17 1000.16 472.17 1000.16 479.26"/>
    </g>
    <g id="mt" data-name="LWPOLYLINE">
      <polyline class="ny" points="997.32 357.65 1001.86 357.65 1001.86 327.89"/>
    </g>
    <g id="mu" data-name="LINE">
      <line class="ny" x1="1358.46" y1="479.26" x2="1366.96" y2="479.26"/>
    </g>
    <g id="mv" data-name="LWPOLYLINE">
      <polygon class="nl" points="1462.2 1092.39 1404.93 1092.39 1359.86 1121.02 1462.2 1121.02 1462.2 1092.39"/>
    </g>
    <g id="mw" data-name="LWPOLYLINE">
      <polygon class="nl" points="1462.2 1075.39 1442.74 1075.39 1442.74 1083.89 1389.07 1083.89 1389.07 1092.39 1374.05 1092.39 1374.05 1100.9 1359.02 1100.9 1359.02 1109.4 1344 1109.4 1344 1121.02 1008.66 1121.02 1008.66 1113.94 1002.99 1113.94 1002.99 1121.02 1000.16 1121.02 1000.16 970.79 1221.26 970.79 1221.26 991.76 1238.27 991.76 1238.27 970.79 1386.09 970.79 1386.09 963.42 988.82 963.42 988.82 1149.37 1005.83 1149.37 1005.83 1132.36 1221.26 1132.36 1221.26 1149.37 1238.27 1149.37 1238.27 1132.36 1456.54 1132.36 1456.54 1149.37 1473.54 1149.37 1473.54 963.42 1462.2 963.42 1462.2 1075.39"/>
    </g>
    <g id="mx" data-name="LWPOLYLINE">
      <polyline class="nl" points="1221.26 804.68 1221.26 825.65 1238.27 825.65 1238.27 804.68 1368.66 804.68 1368.66 825.65 1385.67 825.65 1385.67 791.64 1354.49 791.64 1354.49 797.31 997.32 797.31 997.32 791.64 991.65 791.64 991.65 804.68 1011.5 804.68 1011.5 825.65 1028.5 825.65 1028.5 804.68 1221.26 804.68"/>
    </g>
    <g id="my" data-name="LWPOLYLINE">
      <polygon class="nl" points="1296.38 479.26 1296.38 468.49 1307.72 468.49 1307.72 479.26 1360.16 479.26 1360.16 486.63 991.65 486.63 991.65 473.59 997.32 473.59 997.32 479.26 1143.31 479.26 1143.31 468.49 1151.81 468.49 1151.81 479.26 1296.38 479.26"/>
    </g>
    <g id="mz" data-name="LWPOLYLINE">
      <polygon class="nl" points="1360.16 636.87 1354.49 636.87 1354.49 642.53 997.32 642.53 997.32 636.87 991.65 636.87 991.65 649.9 1360.16 649.9 1360.16 636.87"/>
    </g>
    <g id="na" data-name="LINE">
      <line class="nv" x1="988.82" y1="967.39" y2="967.39"/>
    </g>
    <g id="nb" data-name="LINE">
      <line class="nv" x1="2400" y1="967.39" x2="1473.54" y2="967.39"/>
    </g>
  </g>
  <g id="ne" data-name="SCALE">
    <g>
      <g id="nf" data-name="MTEXT">
        <path class="ns" d="M481.36,1295.9c-.63-.5-1.13-1.2-1.49-2.1-.36-.9-.54-1.92-.54-3.06s.18-2.14.54-3.04c.36-.9.85-1.59,1.49-2.1.63-.5,1.36-.75,2.17-.75s1.53.25,2.17.75c.63.5,1.13,1.2,1.49,2.1.36.9.54,1.91.54,3.04s-.18,2.16-.54,3.05-.85,1.59-1.49,2.1-1.36.76-2.17.76-1.53-.25-2.17-.75ZM485.01,1294.86c.44-.41.78-.96,1.02-1.67.24-.71.36-1.52.36-2.44s-.12-1.73-.36-2.45c-.24-.71-.58-1.27-1.02-1.67-.44-.4-.93-.6-1.49-.6s-1.05.2-1.48.6c-.43.4-.77.96-1.02,1.67-.24.71-.37,1.53-.37,2.43s.12,1.75.37,2.46c.25.71.58,1.27,1.02,1.67s.92.61,1.48.61,1.05-.2,1.49-.61Z"/>
      </g>
      <g id="ng" data-name="MTEXT">
        <path class="ns" d="M593.68,1294.72c.19-.17.42-.38.71-.64.93-.85,1.67-1.57,2.24-2.15.57-.58,1.04-1.17,1.44-1.78s.59-1.16.59-1.67c0-.48-.09-.9-.28-1.27s-.45-.66-.78-.86c-.33-.21-.71-.31-1.15-.31-.47,0-.93.16-1.37.48-.44.32-.78.73-1,1.23l-1.2-.51c.3-.7.78-1.28,1.46-1.73.67-.45,1.38-.67,2.11-.67.69,0,1.31.16,1.85.46.54.31.96.74,1.26,1.29.3.55.45,1.18.45,1.9s-.22,1.41-.67,2.14-.98,1.41-1.6,2.04c-.62.63-1.42,1.39-2.42,2.27-.49.45-.95.88-1.39,1.3l-.94-.85c.28-.27.51-.49.7-.66ZM592.98,1295.38h7.22v1.18h-7.04l-.18-1.18Z"/>
      </g>
      <g id="nh" data-name="MTEXT">
        <path class="ns" d="M540.34,1296.54h-1.34v-10.08l-1.86,1.2-.67-1.07,2.54-1.62h1.33v11.57Z"/>
      </g>
      <g id="ni" data-name="MTEXT">
        <g>
          <path class="ns" d="M758.55,1289.31c.55-.25,1.08-.38,1.59-.38.77,0,1.45.16,2.06.49.6.33,1.07.78,1.41,1.35s.5,1.24.5,1.98-.17,1.43-.5,2.02-.8,1.05-1.4,1.38c-.6.34-1.29.5-2.07.5-.6,0-1.16-.12-1.69-.38-.53-.25-.98-.6-1.34-1.05s-.62-.95-.74-1.52l1.3-.3c.13.59.42,1.06.89,1.43.46.37.99.55,1.59.55.5,0,.95-.11,1.35-.34.4-.22.71-.54.94-.94s.34-.86.34-1.36-.11-.95-.34-1.34c-.23-.39-.54-.69-.94-.91s-.85-.33-1.35-.33c-.33,0-.68.09-1.04.26s-.66.4-.9.68l-.99-.86c.34-.38.79-.7,1.34-.95ZM756.88,1290.93l.37-6.03h5.92v1.18h-4.64l-.32,5.04-1.33-.19Z"/>
          <path class="ns" d="M775.28,1290.76c-.29-.34-.67-.5-1.13-.5-.35,0-.66.07-.94.22-.27.14-.49.34-.65.6s-.24.55-.24.88v4.58h-1.33v-4.45c0-.54-.14-.98-.43-1.32s-.66-.5-1.12-.5c-.34,0-.65.09-.94.26-.28.18-.5.42-.66.72-.16.3-.23.63-.23.98v4.3h-1.33v-7.46h1.33v1.31l-.14-.05c.22-.37.52-.68.9-.91.37-.23.75-.35,1.13-.35.46,0,.9.13,1.32.38.42.26.74.59.95.99.25-.41.59-.74,1.04-.99.45-.26.9-.38,1.36-.38.55,0,1.05.13,1.49.38.44.25.78.59,1.02,1.02.25.43.37.93.37,1.5v4.56h-1.34v-4.45c0-.54-.15-.98-.44-1.32Z"/>
        </g>
      </g>
      <g id="nj" data-name="LWPOLYLINE">
        <polyline class="nk" points="766.32 1280.89 766.32 1263.88 596.24 1263.88 596.24 1280.89 539.55 1280.89 539.55 1263.88 482.85 1263.88 482.85 1280.89"/>
      </g>
    </g>
    <g>
      <g>
        <path class="nm" d="M1976.83,1256.96v.56h-10.91v-.56h10.91ZM1971.61,1251.01v.62c0,.68-.24,1.31-.72,1.88s-1.08,1.04-1.8,1.41-1.44.63-2.16.78l-.28-.55c.63-.1,1.28-.32,1.96-.66s1.26-.76,1.72-1.26c.47-.5.7-1.04.7-1.61v-.62h.57ZM1975.74,1250.76v.55h-8.74v-.55h8.74ZM1971.7,1257.25v4.72h-.64v-4.72h.64ZM1971.72,1251.01v.62c0,.57.23,1.11.7,1.61.47.5,1.04.92,1.73,1.26s1.34.55,1.95.66l-.27.55c-.73-.15-1.45-.41-2.16-.78-.71-.37-1.31-.84-1.79-1.41-.48-.57-.72-1.19-.72-1.88v-.62h.56Z"/>
        <path class="nm" d="M1981.86,1252.59v1.33c0,.81-.15,1.59-.46,2.34-.31.75-.71,1.41-1.22,1.98s-1.05,1.01-1.64,1.33l-.41-.5c.56-.27,1.08-.67,1.57-1.2s.88-1.14,1.18-1.83.45-1.4.45-2.13v-1.33h.53ZM1984.83,1252.09v.55h-6.41v-.55h6.41ZM1981.96,1250.08v2.35h-.64v-2.35h.64ZM1981.94,1252.59v1.33c0,.67.14,1.33.43,1.99s.67,1.23,1.14,1.74c.48.51.98.9,1.53,1.18l-.39.5c-.58-.3-1.11-.73-1.6-1.28-.49-.55-.88-1.19-1.18-1.91-.29-.72-.44-1.46-.44-2.23v-1.33h.52ZM1987.32,1249.9v12.08h-.64v-12.08h.64ZM1989.47,1255.07v.55h-2.31v-.55h2.31Z"/>
        <path class="nm" d="M1994.12,1251.16v1.13c0,.7-.15,1.35-.44,1.96-.29.61-.7,1.13-1.2,1.58-.51.44-1.07.78-1.69,1.01l-.34-.52c.57-.21,1.09-.51,1.57-.9.48-.4.86-.87,1.15-1.41.29-.54.43-1.12.43-1.72v-1.13h.52ZM1997.11,1250.85v.56h-6.41v-.56h6.41ZM1997.98,1257.92c.58.16,1.03.4,1.34.72s.47.7.47,1.15c0,.68-.34,1.21-1.03,1.59-.69.38-1.64.57-2.86.57-.8,0-1.5-.08-2.08-.25-.58-.17-1.03-.42-1.34-.74-.31-.33-.46-.71-.46-1.16s.15-.83.46-1.15c.31-.32.75-.56,1.34-.72.58-.16,1.28-.25,2.08-.25s1.5.08,2.08.25ZM1994.19,1258.41c-.49.13-.87.31-1.13.55-.27.23-.4.51-.4.83,0,.49.29.89.88,1.18s1.38.43,2.37.43,1.78-.14,2.37-.43c.59-.29.89-.68.89-1.18,0-.32-.14-.59-.41-.83s-.65-.42-1.14-.55c-.49-.13-1.06-.2-1.72-.2s-1.22.07-1.71.2ZM1994.22,1251.16v1.12c0,.54.14,1.06.41,1.56.27.5.64.94,1.11,1.31.46.37.97.66,1.52.87l-.31.5c-.61-.22-1.16-.55-1.65-.97s-.89-.91-1.18-1.47-.43-1.16-.43-1.81v-1.12h.53ZM1999.68,1249.9v7.36h-.64v-7.36h.64ZM2001.6,1253.18v.56h-2.1v-.56h2.1Z"/>
        <path class="nm" d="M2007.39,1250.94v10.11h-.48v-10.11h.48Z"/>
        <path class="nm" d="M2023.84,1256.23v.53h-10.91v-.53h10.91ZM2023.17,1250.84v.53h-9.62v-.53h9.62ZM2022.39,1257.73v2.24h-7.39v1.51h-.64v-2.03h7.39v-1.19h-7.43v-.53h8.08ZM2022.78,1261.27v.53h-8.43v-.53h8.43ZM2021.21,1252.39c.65.27.97.67.97,1.2s-.33.92-.97,1.18c-.65.27-1.58.4-2.81.4s-2.17-.13-2.83-.4c-.65-.27-.98-.66-.98-1.18s.32-.93.97-1.2c.65-.27,1.59-.41,2.82-.41s2.17.13,2.82.41ZM2016.09,1252.78c-.55.2-.83.48-.83.83s.27.61.83.8,1.32.29,2.31.29,1.74-.1,2.29-.29.82-.46.82-.8-.28-.63-.83-.83c-.55-.2-1.32-.3-2.3-.3s-1.75.1-2.3.3ZM2018.72,1249.64v1.58h-.64v-1.58h.64ZM2018.72,1255.03v1.43h-.64v-1.43h.64Z"/>
        <path class="nm" d="M1971.78,1269.11v4.07h-4.7v3.51h-.63v-4.09h4.7v-2.94h-4.75v-.56h5.38ZM1970.58,1276.33c.87-.07,1.75-.18,2.66-.35l.07.56c-.94.17-1.85.29-2.73.35-.88.07-1.95.1-3.22.1h-.91v-.56h.91c1.28,0,2.35-.03,3.22-.1ZM1975.1,1267.9v12.08h-.64v-12.08h.64ZM1977.24,1272.87v.57h-2.31v-.57h2.31Z"/>
        <path class="nm" d="M1989.11,1274.22v.56h-10.95v-.56h10.95ZM1985.81,1268.55c.63.2,1.11.47,1.45.83s.5.78.5,1.25-.17.91-.5,1.26c-.34.36-.82.63-1.45.82-.63.19-1.37.29-2.21.29s-1.56-.1-2.18-.29c-.63-.19-1.11-.46-1.45-.82-.34-.35-.51-.77-.51-1.26s.17-.89.51-1.25c.34-.36.82-.64,1.45-.83.62-.2,1.35-.29,2.18-.29s1.57.1,2.21.29ZM1980.28,1276.2v3.08h-.63v-3.08h.63ZM1987.89,1279.09v.59h-8.25v-.59h8.25ZM1981.8,1269.06c-.53.15-.94.37-1.23.64-.29.27-.43.59-.43.95s.14.67.43.95c.29.28.7.49,1.23.63.53.14,1.13.22,1.81.22s1.3-.07,1.82-.22c.52-.14.93-.35,1.22-.63s.44-.59.44-.96-.15-.67-.44-.94c-.29-.27-.7-.48-1.22-.64-.52-.15-1.13-.23-1.82-.23s-1.29.08-1.81.23ZM1984.04,1274.55v2.94h-.66v-2.94h.66Z"/>
        <path class="nm" d="M1994.35,1269.51v2.39c0,.76-.17,1.52-.52,2.28-.35.77-.79,1.45-1.32,2.06s-1.09,1.06-1.66,1.37l-.39-.52c.52-.27,1.04-.69,1.56-1.25.52-.56.95-1.19,1.28-1.9s.5-1.39.5-2.05v-2.39h.55ZM1997.51,1269.19v.56h-6.73v-.56h6.73ZM1994.43,1269.51v2.39c0,.67.17,1.34.51,2,.34.66.77,1.25,1.29,1.76.52.51,1.06.89,1.61,1.14l-.41.53c-.59-.3-1.16-.73-1.7-1.29-.55-.56-.99-1.2-1.34-1.92-.34-.72-.52-1.46-.52-2.22v-2.39h.55ZM2000.16,1267.9v12.08h-.64v-12.08h.64Z"/>
        <path class="nm" d="M1969.61,1287.04v2.45c0,.78-.16,1.57-.48,2.34-.32.78-.74,1.48-1.26,2.09s-1.06,1.09-1.62,1.41l-.42-.53c.52-.28,1.04-.7,1.54-1.27s.92-1.21,1.23-1.93c.32-.71.48-1.42.48-2.12v-2.45h.53ZM1969.69,1287.04v2.45c0,.67.16,1.35.48,2.04.32.69.74,1.3,1.24,1.84.5.54,1.02.95,1.55,1.22l-.42.5c-.57-.31-1.11-.76-1.63-1.34-.52-.59-.94-1.26-1.27-2-.33-.75-.49-1.5-.49-2.25v-2.45h.53ZM1975.08,1285.9v12.08h-.64v-12.08h.64ZM1977.24,1290.97v.57h-2.31v-.57h2.31Z"/>
        <path class="nm" d="M1989.11,1293.11v.56h-10.95v-.56h10.95ZM1987.61,1286.64v4.58h-7.97v-4.58h7.97ZM1980.28,1287.19v3.51h6.71v-3.51h-6.71ZM1983.93,1293.42v4.56h-.63v-4.56h.63Z"/>
        <path class="nm" d="M1994.32,1286.31v.92c0,.72-.15,1.4-.46,2.03-.31.63-.72,1.19-1.23,1.67-.51.48-1.08.84-1.69,1.11l-.35-.53c.57-.21,1.1-.54,1.58-.97.49-.43.88-.93,1.17-1.5.29-.57.44-1.17.44-1.8v-.92h.54ZM2000.19,1292.93v2.63h-6.96v1.97h-.62v-2.49h6.94v-1.55h-6.99v-.56h7.62ZM2000.67,1297.26v.55h-8.06v-.55h8.06ZM1994.4,1286.31v.92c0,.59.15,1.16.45,1.7.3.55.7,1.02,1.19,1.42.49.4,1.02.71,1.58.92l-.34.52c-.62-.24-1.2-.59-1.71-1.04s-.93-.97-1.24-1.58c-.31-.61-.46-1.25-.46-1.95v-.92h.53ZM2000.19,1285.9v6.36h-.64v-6.36h.64Z"/>
        <path class="nm" d="M1970.94,1305.43v.55h-3.85v6.51h-.64v-7.06h4.49ZM1969.73,1312.18c.66-.05,1.31-.15,1.97-.3l.1.56c-.68.15-1.36.25-2.02.3-.67.05-1.53.08-2.6.08h-.73v-.56h.73c1.04,0,1.9-.03,2.55-.08ZM1973.3,1304.22v11.1h-.62v-11.1h.62ZM1975.66,1308.89v.56h-2.56v-.56h2.56ZM1976.08,1303.9v12.08h-.63v-12.08h.63Z"/>
        <path class="nm" d="M1989.12,1313.84v.56h-10.96v-.56h10.96ZM1988.01,1305.13v.56h-8.79v-.56h8.79ZM1988.01,1309.99v.56h-8.78v-.56h8.78ZM1981.92,1305.55v4.62h-.66v-4.62h.66ZM1982.11,1310.43v3.58h-.66v-3.58h.66ZM1985.77,1310.43v3.58h-.64v-3.58h.64ZM1985.95,1305.55v4.62h-.63v-4.62h.63Z"/>
        <path class="nm" d="M1994.32,1304.31v.92c0,.72-.15,1.4-.46,2.03-.31.63-.72,1.19-1.23,1.67-.51.48-1.08.84-1.69,1.11l-.35-.53c.57-.21,1.1-.54,1.58-.97.49-.43.88-.93,1.17-1.5.29-.57.44-1.17.44-1.8v-.92h.54ZM2000.19,1310.93v2.63h-6.96v1.97h-.62v-2.49h6.94v-1.55h-6.99v-.56h7.62ZM2000.67,1315.26v.55h-8.06v-.55h8.06ZM1994.4,1304.31v.92c0,.59.15,1.16.45,1.7.3.55.7,1.02,1.19,1.42.49.4,1.02.71,1.58.92l-.34.52c-.62-.24-1.2-.59-1.71-1.04s-.93-.97-1.24-1.58c-.31-.61-.46-1.25-.46-1.95v-.92h.53ZM2000.19,1303.9v6.36h-.64v-6.36h.64Z"/>
      </g>
      <g>
        <path class="nm" d="M1955.03,1261.05h-.67v-9.35l-1.26.87-.36-.49,1.62-1.13h.67v10.11Z"/>
        <path class="nm" d="M1951.93,1277.81c.2-.19.43-.41.68-.65.84-.79,1.51-1.46,2.02-1.99.51-.53.94-1.09,1.31-1.67s.55-1.12.55-1.61-.09-.9-.28-1.27-.45-.67-.78-.88c-.33-.21-.71-.32-1.13-.32-.47,0-.91.16-1.34.48-.42.32-.75.73-.96,1.24l-.63-.27c.26-.61.66-1.1,1.2-1.48.54-.38,1.12-.57,1.72-.57.55,0,1.04.13,1.47.39.43.26.77.63,1.01,1.09.25.47.37.99.37,1.58s-.19,1.18-.57,1.81-.84,1.23-1.38,1.79c-.54.56-1.23,1.25-2.09,2.05-.59.55-1.04.98-1.36,1.3l-.48-.39c.23-.24.45-.46.65-.65ZM1951.27,1278.46h6.02v.59h-5.94l-.08-.59Z"/>
        <path class="nm" d="M1956.95,1292.75c.33.44.5.92.5,1.43,0,.57-.14,1.08-.41,1.53s-.65.8-1.13,1.06-1.03.38-1.64.38-1.17-.13-1.65-.38-.86-.6-1.13-1.06-.41-.96-.41-1.53h.67c0,.46.11.87.32,1.23s.51.64.9.84c.38.2.81.3,1.29.3s.92-.1,1.3-.29.68-.46.89-.79.32-.72.32-1.16-.11-.8-.32-1.13-.5-.59-.88-.78c-.38-.19-.8-.28-1.28-.28h-.41v-.62h.39c.45,0,.85-.09,1.21-.26s.64-.41.84-.72c.2-.31.3-.66.3-1.05,0-.6-.21-1.09-.64-1.47-.43-.38-.98-.57-1.65-.57-.44,0-.83.09-1.19.27-.36.18-.63.44-.82.77-.19.33-.29.71-.29,1.13h-.67c0-.53.13-1.01.38-1.43s.6-.75,1.05-.99c.45-.24.96-.36,1.54-.36s1.09.12,1.54.36c.45.24.8.57,1.05.99.25.42.38.9.38,1.43,0,.43-.15.85-.45,1.27s-.69.73-1.16.94c.5.19.92.5,1.25.94Z"/>
        <path class="nm" d="M1956.13,1311.48h1.64v.6h-1.64v2.97h-.67v-2.97h-4.61l-.1-.62,4.7-6.52h.67v6.54ZM1955.46,1311.48v-5.38l-3.88,5.38h3.88Z"/>
      </g>
    </g>
    <path class="nm" d="M1311.12,891.64h-.58v-8.02l-1.08.74-.31-.42,1.39-.97h.58v8.66Z"/>
    <path class="nm" d="M1123.17,890.58c.17-.16.37-.35.58-.56.72-.68,1.3-1.25,1.73-1.7.44-.46.81-.93,1.12-1.43.31-.5.47-.96.47-1.38s-.08-.77-.24-1.09c-.16-.32-.38-.57-.67-.75-.28-.18-.61-.27-.97-.27-.4,0-.78.14-1.15.41-.36.28-.64.63-.82,1.06l-.54-.23c.22-.52.57-.94,1.03-1.27.46-.33.96-.49,1.48-.49.47,0,.89.11,1.26.34s.66.54.87.94c.21.4.32.85.32,1.36s-.16,1.01-.49,1.55c-.33.54-.72,1.05-1.18,1.54-.46.48-1.06,1.07-1.79,1.76-.5.47-.89.84-1.16,1.12l-.41-.34c.2-.21.39-.39.56-.56ZM1122.62,891.14h5.16v.5h-5.09l-.07-.5Z"/>
    <path class="nm" d="M1092.66,732.66c.28.38.43.78.43,1.22,0,.49-.12.93-.35,1.31-.23.39-.55.69-.97.91-.41.22-.88.32-1.41.32s-1-.11-1.41-.32-.73-.52-.97-.91c-.23-.39-.35-.83-.35-1.31h.58c0,.39.09.74.28,1.05.18.31.44.55.77.72.33.17.7.26,1.1.26s.79-.08,1.12-.25.58-.39.76-.68c.18-.29.27-.62.27-1s-.09-.68-.27-.97c-.18-.28-.43-.51-.76-.67-.32-.16-.69-.24-1.1-.24h-.35v-.53h.34c.38,0,.73-.07,1.04-.22.31-.15.55-.35.72-.62.17-.26.26-.56.26-.9,0-.51-.18-.93-.55-1.26s-.84-.49-1.42-.49c-.38,0-.72.08-1.02.23-.3.16-.54.38-.7.66-.16.28-.25.61-.25.97h-.58c0-.46.11-.86.32-1.22.22-.36.52-.64.9-.85.38-.2.82-.31,1.32-.31s.94.1,1.32.31.68.49.9.85c.22.36.32.77.32,1.22,0,.37-.13.73-.38,1.09-.26.36-.59.63-1,.81.43.16.79.43,1.07.8Z"/>
    <path class="nm" d="M1055.62,411.93h1.4v.52h-1.4v2.54h-.58v-2.54h-3.95l-.08-.53,4.03-5.59h.58v5.6ZM1055.05,411.93v-4.61l-3.32,4.61h3.32Z"/>
    <path class="nm" d="M1092.66,578.21c.28.38.43.78.43,1.22,0,.49-.12.93-.35,1.31-.23.39-.55.69-.97.91-.41.22-.88.32-1.41.32s-1-.11-1.41-.32-.73-.52-.97-.91c-.23-.39-.35-.83-.35-1.31h.58c0,.39.09.74.28,1.05.18.31.44.55.77.72.33.17.7.26,1.1.26s.79-.08,1.12-.25.58-.39.76-.68c.18-.29.27-.62.27-1s-.09-.68-.27-.97c-.18-.28-.43-.51-.76-.67-.32-.16-.69-.24-1.1-.24h-.35v-.53h.34c.38,0,.73-.07,1.04-.22.31-.15.55-.35.72-.62.17-.26.26-.56.26-.9,0-.51-.18-.93-.55-1.26s-.84-.49-1.42-.49c-.38,0-.72.08-1.02.23-.3.16-.54.38-.7.66-.16.28-.25.61-.25.97h-.58c0-.46.11-.86.32-1.22.22-.36.52-.64.9-.85.38-.2.82-.31,1.32-.31s.94.1,1.32.31.68.49.9.85c.22.36.32.77.32,1.22,0,.37-.13.73-.38,1.09-.26.36-.59.63-1,.81.43.16.79.43,1.07.8Z"/>
    <path class="nm" d="M1123.17,1042.07c.17-.16.37-.35.58-.56.72-.68,1.3-1.25,1.73-1.7.44-.46.81-.93,1.12-1.43.31-.5.47-.96.47-1.38s-.08-.77-.24-1.09c-.16-.32-.38-.57-.67-.75-.28-.18-.61-.27-.97-.27-.4,0-.78.14-1.15.41-.36.28-.64.63-.82,1.06l-.54-.23c.22-.52.57-.94,1.03-1.27.46-.33.96-.49,1.48-.49.47,0,.89.11,1.26.34s.66.54.87.94c.21.4.32.85.32,1.36s-.16,1.01-.49,1.55c-.33.54-.72,1.05-1.18,1.54-.46.48-1.06,1.07-1.79,1.76-.5.47-.89.84-1.16,1.12l-.41-.34c.2-.21.39-.39.56-.56ZM1122.62,1042.62h5.16v.5h-5.09l-.07-.5Z"/>
  </g>
</svg>