<?xml version="1.0" encoding="UTF-8"?>
<svg xmlns="http://www.w3.org/2000/svg" viewBox="0 0 2000 1500">
  <defs>
    <style>
      .bx, .by, .bz, .ca, .cb, .cc, .cd {
        stroke: #000;
      }

      .bx, .by, .bz, .cc {
        stroke-width: .5px;
      }

      .bx, .bz, .ca, .cb, .cd {
        stroke-miterlimit: 10;
      }

      .bx, .ca, .cb, .cd {
        fill: none;
      }

      .by {
        fill: #231815;
        font-size: 16px;
      }

      .by, .cc {
        font-family: SUITVariable-Medium, 'SUIT Variable';
        font-variation-settings: 'wght' 500;
        font-weight: 500;
      }

      .bz {
        fill: #040000;
        fill-rule: evenodd;
      }

      .ca {
        stroke-width: .15px;
      }

      .cb {
        stroke-width: .4px;
      }

      .cc {
        font-size: 12px;
      }

      .cd {
        stroke-width: .3px;
      }
    </style>
  </defs>
  <g id="av" data-name="rf">
    <g id="aw" data-name="HATCH">
      <path class="ca" d="M693.36,953.94v-182.55M693.36,619.45v-71.43M701.38,953.94v-182.55M701.38,619.45v-71.43M709.39,953.94v-182.55M709.39,619.45v-71.43M717.41,953.94v-182.55M717.41,619.45v-71.43M725.43,953.94v-182.55M725.43,619.45v-71.43M733.45,953.94v-182.55M733.45,619.45v-71.43M741.46,953.94v-182.55M741.46,619.45v-71.43M749.48,953.94v-182.55M749.48,619.45v-71.43M757.5,953.94v-182.56M757.5,619.45v-71.43M765.52,953.94v-182.56M765.52,619.45v-71.43M773.53,953.94v-182.56M773.53,619.45v-71.43M781.55,953.94v-182.56M781.55,619.45v-71.43M789.57,953.94v-182.56M789.57,619.45v-71.43M797.59,953.94v-182.56M797.59,619.45v-71.43M805.6,953.94v-182.56M805.6,619.45v-71.43M813.62,953.94v-182.56M813.62,619.45v-71.43M821.64,953.94v-182.56M821.64,619.45v-71.43M829.66,953.94v-182.56M829.66,619.45v-71.43M837.67,953.94v-182.56M837.67,619.45v-71.43M845.69,953.94v-182.56M845.69,619.45v-71.43M853.71,953.94v-182.56M853.71,619.45v-71.43M861.73,953.94v-182.57M861.73,619.45v-71.43M869.74,953.94v-182.57M869.74,619.45v-71.43M877.76,953.94v-182.57M877.76,619.45v-71.43M885.78,953.94v-182.57M885.78,619.45v-71.43M893.8,953.94v-182.57M893.8,619.45v-71.43M901.81,953.94v-182.57M901.81,619.45v-71.43M909.83,953.94v-182.57M909.83,619.45v-71.43M917.85,953.94v-182.57M917.85,619.45v-71.43M925.87,953.94v-182.57M925.87,619.45v-71.43M933.89,953.94v-182.57M933.89,619.45v-71.43M941.9,953.94v-182.57M941.9,619.45v-71.43M949.92,953.94v-182.57M949.92,619.45v-71.43M957.94,953.94v-182.57M957.94,619.45v-71.43M965.96,953.94v-182.58M965.96,619.45v-71.43M973.97,953.94v-182.58M973.97,619.45v-71.43M981.99,953.94v-182.58M981.99,619.45v-71.43M990.01,953.94v-182.58M990.01,619.45v-71.43M998.03,953.94v-182.58M998.03,619.45v-71.43M1006.04,953.94v-182.58M1006.04,619.45v-71.43M1014.06,953.94v-182.58M1014.06,619.45v-71.43M1022.08,953.94v-182.58M1022.08,619.45v-71.43M1030.1,953.94v-182.58M1030.1,619.45v-71.43M1038.11,953.94v-182.58M1038.11,619.45v-71.43M1046.13,953.94v-182.58M1046.13,605.28v-57.26M1054.15,953.94v-182.58M1054.15,605.28v-57.26M1062.17,953.94v-182.58M1062.17,605.28v-57.26M1070.18,953.94v-182.58M1070.18,605.28v-57.26M1078.2,953.94v-182.59M1078.2,605.28v-57.26M1086.22,953.94v-182.59M1086.22,605.28v-57.26M1094.24,953.94v-182.59M1094.24,605.28v-57.26M1102.25,953.94v-182.59M1102.25,605.28v-57.26M1110.27,953.94v-182.59M1110.27,605.28v-57.26M1118.29,953.94v-182.59M1118.29,605.28v-57.26M1126.31,953.94v-182.59M1126.31,605.28v-57.26M1134.32,953.94v-182.59M1134.32,605.28v-57.26M1142.34,953.94v-182.59M1142.34,605.28v-57.26M1150.36,953.94v-182.59M1150.36,605.28v-57.26M1158.38,953.94v-182.59M1158.38,605.28v-57.26M1166.4,953.94v-182.59M1166.4,605.28v-57.26M1174.41,953.94v-182.59M1174.41,605.28v-57.26M1182.43,953.94v-182.6M1182.43,605.28v-57.26M1190.45,953.94v-182.6M1190.45,605.28v-57.26M1198.47,952.82v-181.48M1198.47,605.28v-57.26M1206.48,945.79v-174.45M1206.48,605.28v-57.26M1214.5,938.76v-167.42M1214.5,605.28v-57.26M1222.52,931.73v-160.39M1222.52,605.28v-57.26M1230.54,924.69v-153.35M1230.54,605.28v-57.26M1238.55,917.66v-146.32M1238.55,605.28v-57.26M1246.57,910.63v-139.29M1246.57,605.28v-57.26M1254.59,903.6v-132.26M1254.59,605.28v-57.26M1262.61,896.57v-125.23M1262.61,605.28v-57.26M1270.62,889.53v-118.2M1270.62,605.28v-57.26M1278.64,882.5v-111.17M1278.64,605.28v-57.26M1286.66,875.47v-104.14M1286.66,605.28v-57.26M1294.68,868.44v-97.11M1302.69,861.41v-90.07"/>
    </g>
    <g id="ax" data-name="HATCH">
      <path class="ca" d="M687.34,771.39v-151.94M693.36,771.39v-151.94M699.37,771.39v-151.94M705.38,771.39v-151.94M711.4,771.39v-151.93M717.41,771.39v-151.93M723.42,771.39v-151.93M729.44,771.39v-151.93M735.45,771.39v-151.93M741.46,771.39v-151.93M747.48,771.38v-151.93M753.49,771.38v-151.93M759.5,771.38v-151.93M765.52,771.38v-151.93M771.53,771.38v-151.93M777.54,771.38v-151.93"/>
    </g>
    <g id="ay" data-name="HATCH">
      <path class="ca" d="M780.84,635.76h494.93M780.84,671.76h494.93M780.84,707.76h494.93M780.84,743.76h494.93M800.72,771.38v-137.75M836.72,771.38v-137.75M872.72,771.37v-137.75M908.72,771.37v-137.74M944.72,771.37v-137.74M980.72,771.36v-137.74M1016.72,771.36v-137.73M1052.72,771.36v-137.73M1088.72,771.35v-151.9M1124.72,771.35v-151.9M1160.72,771.35v-151.89M1196.72,771.34v-151.89M1232.72,771.34v-151.89M1268.72,771.34v-151.88"/>
    </g>
    <g id="az" data-name="LWPOLYLINE">
      <polygon class="cd" points="1287.1 771.33 1287.1 606.98 1045.31 606.98 1045.31 609.25 1284.84 609.25 1284.84 771.33 1287.1 771.33"/>
    </g>
    <g id="ba" data-name="LWPOLYLINE">
      <polyline class="cd" points="1303 771.39 1303 548.02 685.87 548.02 685.87 619.45"/>
    </g>
    <g id="bb" data-name="LINE">
      <line class="cd" x1="1288.8" y1="605.28" x2="1288.8" y2="548.02"/>
    </g>
    <g id="bc" data-name="LWPOLYLINE">
      <polyline class="cb" points="780.84 619.45 1058.35 619.45 1058.35 633.63 780.84 633.63"/>
    </g>
    <g id="bd" data-name="LWPOLYLINE">
      <polyline class="cb" points="1275.76 771.39 1275.76 619.45 1058.35 619.45"/>
    </g>
    <g id="be" data-name="LWPOLYLINE">
      <polyline class="cb" points="1288.8 771.39 1288.8 605.28 1044.17 605.28 1044.17 619.45"/>
    </g>
    <g id="bf" data-name="LWPOLYLINE">
      <polyline class="cb" points="780.84 771.39 780.84 619.45 685.87 619.45 685.87 771.39"/>
    </g>
    <g id="bg" data-name="LWPOLYLINE">
      <polygon class="bx" points="1197.19 953.94 1303 861.14 1303 771.33 685.87 771.39 685.87 953.94 1197.19 953.94"/>
    </g>
  </g>
  <g id="bk" data-name="SCALE">
    <g>
      <g id="bl" data-name="CIRCLE">
        <circle class="bx" cx="214.88" cy="1280.43" r="14.88"/>
      </g>
      <g id="bm" data-name="TEXT">
        <text class="cc" transform="translate(218.1 1262.27) rotate(22.03) scale(.9 1)"><tspan x="0" y="0">N</tspan></text>
      </g>
      <g id="bn" data-name="HATCH">
        <path class="bz" d="M220.46,1266.63c-.23-.09-.46-.18-.7-.26l-5.57,13.78.69.28,5.58-13.8Z"/>
      </g>
      <g id="bo" data-name="HATCH">
        <path class="bz" d="M221.15,1266.93c-.23-.1-.45-.2-.69-.3l-5.58,13.8.69.28,5.57-13.78Z"/>
      </g>
      <g id="bp" data-name="LINE">
        <line class="bx" x1="219.76" y1="1266.37" x2="214.19" y2="1280.14"/>
      </g>
      <g id="bq" data-name="LINE">
        <line class="bx" x1="221.15" y1="1266.93" x2="215.57" y2="1280.71"/>
      </g>
      <g id="br" data-name="LINE">
        <line class="bx" x1="214.88" y1="1280.43" x2="220.46" y2="1266.63"/>
      </g>
      <g id="bs" data-name="MTEXT">
        <text class="by" transform="translate(278.5 1296.53)"><tspan x="0" y="0">0</tspan></text>
      </g>
      <g id="bt" data-name="MTEXT">
        <text class="by" transform="translate(392.02 1296.53)"><tspan x="0" y="0">2</tspan></text>
      </g>
      <g id="bu" data-name="MTEXT">
        <text class="by" transform="translate(335.73 1296.53)"><tspan x="0" y="0">1</tspan></text>
      </g>
      <g id="bv" data-name="MTEXT">
        <text class="by" transform="translate(555.5 1296.48)"><tspan x="0" y="0">5m</tspan></text>
      </g>
      <g id="bw" data-name="LWPOLYLINE">
        <polyline class="bx" points="566.32 1280.89 566.32 1263.88 396.24 1263.88 396.24 1280.89 339.55 1280.89 339.55 1263.88 282.85 1263.88 282.85 1280.89"/>
      </g>
    </g>
  </g>
</svg>