<?xml version="1.0" encoding="UTF-8"?>
<svg xmlns="http://www.w3.org/2000/svg" viewBox="0 0 2400 1500">
  <defs>
    <style>
      .bx {
        fill-rule: evenodd;
      }

      .bx, .by, .bz, .ca, .cb, .cc, .cd {
        stroke: #000;
      }

      .bx, .by, .bz, .cb, .cc, .cd {
        stroke-miterlimit: 10;
      }

      .bx, .by, .ca, .cc {
        stroke-width: .5px;
      }

      .by, .bz, .cb, .cd {
        fill: none;
      }

      .bz {
        stroke-width: .15px;
      }

      .cb {
        stroke-width: .4px;
      }

      .cd {
        stroke-width: .3px;
      }
    </style>
  </defs>
  <g id="av" data-name="rf">
    <g id="aw" data-name="HATCH">
      <path class="bz" d="M893.36,953.94v-182.55M893.36,619.45v-71.43M901.38,953.94v-182.55M901.38,619.45v-71.43M909.39,953.94v-182.55M909.39,619.45v-71.43M917.41,953.94v-182.55M917.41,619.45v-71.43M925.43,953.94v-182.55M925.43,619.45v-71.43M933.45,953.94v-182.55M933.45,619.45v-71.43M941.46,953.94v-182.55M941.46,619.45v-71.43M949.48,953.94v-182.55M949.48,619.45v-71.43M957.5,953.94v-182.56M957.5,619.45v-71.43M965.52,953.94v-182.56M965.52,619.45v-71.43M973.53,953.94v-182.56M973.53,619.45v-71.43M981.55,953.94v-182.56M981.55,619.45v-71.43M989.57,953.94v-182.56M989.57,619.45v-71.43M997.59,953.94v-182.56M997.59,619.45v-71.43M1005.6,953.94v-182.56M1005.6,619.45v-71.43M1013.62,953.94v-182.56M1013.62,619.45v-71.43M1021.64,953.94v-182.56M1021.64,619.45v-71.43M1029.66,953.94v-182.56M1029.66,619.45v-71.43M1037.67,953.94v-182.56M1037.67,619.45v-71.43M1045.69,953.94v-182.56M1045.69,619.45v-71.43M1053.71,953.94v-182.56M1053.71,619.45v-71.43M1061.73,953.94v-182.57M1061.73,619.45v-71.43M1069.74,953.94v-182.57M1069.74,619.45v-71.43M1077.76,953.94v-182.57M1077.76,619.45v-71.43M1085.78,953.94v-182.57M1085.78,619.45v-71.43M1093.8,953.94v-182.57M1093.8,619.45v-71.43M1101.81,953.94v-182.57M1101.81,619.45v-71.43M1109.83,953.94v-182.57M1109.83,619.45v-71.43M1117.85,953.94v-182.57M1117.85,619.45v-71.43M1125.87,953.94v-182.57M1125.87,619.45v-71.43M1133.89,953.94v-182.57M1133.89,619.45v-71.43M1141.9,953.94v-182.57M1141.9,619.45v-71.43M1149.92,953.94v-182.57M1149.92,619.45v-71.43M1157.94,953.94v-182.57M1157.94,619.45v-71.43M1165.96,953.94v-182.58M1165.96,619.45v-71.43M1173.97,953.94v-182.58M1173.97,619.45v-71.43M1181.99,953.94v-182.58M1181.99,619.45v-71.43M1190.01,953.94v-182.58M1190.01,619.45v-71.43M1198.03,953.94v-182.58M1198.03,619.45v-71.43M1206.04,953.94v-182.58M1206.04,619.45v-71.43M1214.06,953.94v-182.58M1214.06,619.45v-71.43M1222.08,953.94v-182.58M1222.08,619.45v-71.43M1230.1,953.94v-182.58M1230.1,619.45v-71.43M1238.11,953.94v-182.58M1238.11,619.45v-71.43M1246.13,953.94v-182.58M1246.13,605.28v-57.26M1254.15,953.94v-182.58M1254.15,605.28v-57.26M1262.17,953.94v-182.58M1262.17,605.28v-57.26M1270.18,953.94v-182.58M1270.18,605.28v-57.26M1278.2,953.94v-182.59M1278.2,605.28v-57.26M1286.22,953.94v-182.59M1286.22,605.28v-57.26M1294.24,953.94v-182.59M1294.24,605.28v-57.26M1302.25,953.94v-182.59M1302.25,605.28v-57.26M1310.27,953.94v-182.59M1310.27,605.28v-57.26M1318.29,953.94v-182.59M1318.29,605.28v-57.26M1326.31,953.94v-182.59M1326.31,605.28v-57.26M1334.32,953.94v-182.59M1334.32,605.28v-57.26M1342.34,953.94v-182.59M1342.34,605.28v-57.26M1350.36,953.94v-182.59M1350.36,605.28v-57.26M1358.38,953.94v-182.59M1358.38,605.28v-57.26M1366.4,953.94v-182.59M1366.4,605.28v-57.26M1374.41,953.94v-182.59M1374.41,605.28v-57.26M1382.43,953.94v-182.6M1382.43,605.28v-57.26M1390.45,953.94v-182.6M1390.45,605.28v-57.26M1398.47,952.82v-181.48M1398.47,605.28v-57.26M1406.48,945.79v-174.45M1406.48,605.28v-57.26M1414.5,938.76v-167.42M1414.5,605.28v-57.26M1422.52,931.73v-160.39M1422.52,605.28v-57.26M1430.54,924.69v-153.35M1430.54,605.28v-57.26M1438.55,917.66v-146.32M1438.55,605.28v-57.26M1446.57,910.63v-139.29M1446.57,605.28v-57.26M1454.59,903.6v-132.26M1454.59,605.28v-57.26M1462.61,896.57v-125.23M1462.61,605.28v-57.26M1470.62,889.53v-118.2M1470.62,605.28v-57.26M1478.64,882.5v-111.17M1478.64,605.28v-57.26M1486.66,875.47v-104.14M1486.66,605.28v-57.26M1494.68,868.44v-97.11M1502.69,861.41v-90.07"/>
    </g>
    <g id="ax" data-name="HATCH">
      <path class="bz" d="M887.34,771.39v-151.94M893.36,771.39v-151.94M899.37,771.39v-151.94M905.38,771.39v-151.94M911.4,771.39v-151.93M917.41,771.39v-151.93M923.42,771.39v-151.93M929.44,771.39v-151.93M935.45,771.39v-151.93M941.46,771.39v-151.93M947.48,771.38v-151.93M953.49,771.38v-151.93M959.5,771.38v-151.93M965.52,771.38v-151.93M971.53,771.38v-151.93M977.54,771.38v-151.93"/>
    </g>
    <g id="ay" data-name="HATCH">
      <path class="bz" d="M980.84,635.76h494.93M980.84,671.76h494.93M980.84,707.76h494.93M980.84,743.76h494.93M1000.72,771.38v-137.75M1036.72,771.38v-137.75M1072.72,771.37v-137.75M1108.72,771.37v-137.74M1144.72,771.37v-137.74M1180.72,771.36v-137.74M1216.72,771.36v-137.73M1252.72,771.36v-137.73M1288.72,771.35v-151.9M1324.72,771.35v-151.9M1360.72,771.35v-151.89M1396.72,771.34v-151.89M1432.72,771.34v-151.89M1468.72,771.34v-151.88"/>
    </g>
    <g id="az" data-name="LWPOLYLINE">
      <polygon class="cd" points="1487.1 771.33 1487.1 606.98 1245.31 606.98 1245.31 609.25 1484.84 609.25 1484.84 771.33 1487.1 771.33"/>
    </g>
    <g id="ba" data-name="LWPOLYLINE">
      <polyline class="cd" points="1503 771.39 1503 548.02 885.87 548.02 885.87 619.45"/>
    </g>
    <g id="bb" data-name="LINE">
      <line class="cd" x1="1488.8" y1="605.28" x2="1488.8" y2="548.02"/>
    </g>
    <g id="bc" data-name="LWPOLYLINE">
      <polyline class="cb" points="980.84 619.45 1258.35 619.45 1258.35 633.63 980.84 633.63"/>
    </g>
    <g id="bd" data-name="LWPOLYLINE">
      <polyline class="cb" points="1475.76 771.39 1475.76 619.45 1258.35 619.45"/>
    </g>
    <g id="be" data-name="LWPOLYLINE">
      <polyline class="cb" points="1488.8 771.39 1488.8 605.28 1244.17 605.28 1244.17 619.45"/>
    </g>
    <g id="bf" data-name="LWPOLYLINE">
      <polyline class="cb" points="980.84 771.39 980.84 619.45 885.87 619.45 885.87 771.39"/>
    </g>
    <g id="bg" data-name="LWPOLYLINE">
      <polygon class="by" points="1397.19 953.94 1503 861.14 1503 771.33 885.87 771.39 885.87 953.94 1397.19 953.94"/>
    </g>
  </g>
  <g id="bk" data-name="SCALE">
    <g>
      <g id="bl" data-name="CIRCLE">
        <circle class="by" cx="414.88" cy="1280.43" r="14.88"/>
      </g>
      <g id="bm" data-name="TEXT">
        <path class="ca" d="M424.5,1264.9l-.86-.35-1.27-8.05-2.62,6.47-.84-.34,3.28-8.1.87.35,1.26,8.02,2.61-6.45.84.34-3.28,8.1Z"/>
      </g>
      <g id="bn" data-name="HATCH">
        <path class="bx" d="M420.46,1266.63c-.23-.09-.46-.18-.7-.26l-5.57,13.78.69.28,5.58-13.8Z"/>
      </g>
      <g id="bo" data-name="HATCH">
        <path class="bx" d="M421.15,1266.93c-.23-.1-.45-.2-.69-.3l-5.58,13.8.69.28,5.57-13.78Z"/>
      </g>
      <g id="bp" data-name="LINE">
        <line class="cc" x1="419.76" y1="1266.37" x2="414.19" y2="1280.14"/>
      </g>
      <g id="bq" data-name="LINE">
        <line class="cc" x1="421.15" y1="1266.93" x2="415.57" y2="1280.71"/>
      </g>
      <g id="br" data-name="LINE">
        <line class="cc" x1="414.88" y1="1280.43" x2="420.46" y2="1266.63"/>
      </g>
      <g id="bs" data-name="MTEXT">
        <path class="ca" d="M481.36,1295.9c-.63-.5-1.13-1.2-1.49-2.1-.36-.9-.54-1.92-.54-3.06s.18-2.14.54-3.04c.36-.9.85-1.59,1.49-2.1.63-.5,1.36-.75,2.17-.75s1.53.25,2.17.75c.63.5,1.13,1.2,1.49,2.1.36.9.54,1.91.54,3.04s-.18,2.16-.54,3.05c-.36.89-.85,1.59-1.49,2.1s-1.36.76-2.17.76-1.53-.25-2.17-.75ZM485.01,1294.86c.44-.41.78-.96,1.02-1.67.24-.71.36-1.52.36-2.44s-.12-1.73-.36-2.45c-.24-.71-.58-1.27-1.02-1.67-.44-.4-.93-.6-1.49-.6s-1.05.2-1.48.6c-.43.4-.77.96-1.02,1.67-.25.71-.37,1.53-.37,2.43s.12,1.75.37,2.46c.25.71.58,1.27,1.02,1.67s.93.61,1.48.61,1.05-.2,1.49-.61Z"/>
      </g>
      <g id="bt" data-name="MTEXT">
        <path class="ca" d="M593.68,1294.72c.19-.17.42-.38.71-.64.93-.85,1.67-1.57,2.24-2.15.57-.58,1.05-1.17,1.44-1.78s.59-1.16.59-1.67c0-.48-.09-.9-.28-1.27s-.45-.66-.78-.86-.71-.31-1.15-.31c-.47,0-.93.16-1.37.48-.44.32-.78.73-1,1.23l-1.2-.51c.3-.7.78-1.28,1.46-1.73.67-.45,1.38-.67,2.11-.67.69,0,1.31.16,1.85.46.54.31.96.74,1.26,1.29.3.55.45,1.18.45,1.9s-.22,1.41-.67,2.14c-.45.73-.98,1.41-1.6,2.04-.62.63-1.42,1.39-2.42,2.27-.49.45-.95.88-1.39,1.3l-.94-.85c.28-.27.51-.49.7-.66ZM592.98,1295.38h7.22v1.18h-7.04l-.18-1.18Z"/>
      </g>
      <g id="bu" data-name="MTEXT">
        <path class="ca" d="M540.34,1296.54h-1.34v-10.08l-1.86,1.2-.67-1.07,2.54-1.62h1.33v11.57Z"/>
      </g>
      <g id="bv" data-name="MTEXT">
        <g>
          <path class="ca" d="M758.55,1289.31c.55-.25,1.08-.38,1.59-.38.77,0,1.45.16,2.06.49.6.33,1.07.78,1.41,1.35s.5,1.24.5,1.98-.17,1.43-.5,2.02-.8,1.05-1.4,1.38-1.29.5-2.07.5c-.6,0-1.16-.12-1.69-.38-.53-.25-.98-.6-1.34-1.05-.37-.45-.62-.95-.74-1.52l1.3-.3c.13.59.42,1.06.89,1.43.46.37.99.55,1.59.55.5,0,.95-.11,1.35-.34.4-.22.71-.54.94-.94.23-.41.34-.86.34-1.36s-.11-.95-.34-1.34c-.23-.39-.54-.69-.94-.91-.4-.22-.85-.33-1.35-.33-.33,0-.68.09-1.04.26-.36.18-.66.4-.9.68l-.99-.86c.34-.38.79-.7,1.34-.95ZM756.87,1290.93l.37-6.03h5.92v1.18h-4.64l-.32,5.04-1.33-.19Z"/>
          <path class="ca" d="M775.28,1290.76c-.29-.34-.67-.5-1.13-.5-.35,0-.66.07-.94.22-.27.14-.49.34-.65.6-.16.26-.24.55-.24.88v4.58h-1.33v-4.45c0-.54-.14-.98-.43-1.32s-.66-.5-1.12-.5c-.34,0-.65.09-.94.26s-.5.42-.66.72c-.15.3-.23.63-.23.98v4.3h-1.33v-7.46h1.33v1.31l-.14-.05c.22-.37.52-.68.9-.91.37-.23.75-.35,1.14-.35.46,0,.9.13,1.32.38.42.26.74.59.95.99.25-.41.59-.74,1.04-.99.45-.26.9-.38,1.36-.38.55,0,1.05.13,1.49.38.44.25.78.59,1.02,1.02.25.43.37.93.37,1.5v4.56h-1.34v-4.45c0-.54-.15-.98-.44-1.32Z"/>
        </g>
      </g>
      <g id="bw" data-name="LWPOLYLINE">
        <polyline class="by" points="766.32 1280.89 766.32 1263.88 596.24 1263.88 596.24 1280.89 539.55 1280.89 539.55 1263.88 482.85 1263.88 482.85 1280.89"/>
      </g>
    </g>
  </g>
</svg>