<?xml version="1.0" encoding="UTF-8"?>
<svg xmlns="http://www.w3.org/2000/svg" viewBox="0 0 2000 1250">
  <defs>
    <style>
      .jl {
        fill-rule: evenodd;
      }

      .jl, .jm, .jn, .jo, .jp, .jq, .jr, .js, .jt, .ju, .jv, .jw, .jx, .jy, .jz, .ka, .kb, .kc, .kd, .ke, .kf, .kg {
        stroke: #000;
      }

      .jl, .jm, .jo, .jp, .jq, .jr, .jt, .ju, .jv, .jw, .jx, .jy, .jz, .ka, .kb, .kc, .kd, .ke, .kf, .kg {
        stroke-miterlimit: 10;
      }

      .jl, .jm, .jp, .jq, .js, .jx, .jz, .kc, .ke, .kf {
        stroke-width: .5px;
      }

      .jm, .jo, .jp, .jq, .jr, .jt, .ju, .jv, .jw, .jy, .jz, .ka, .kb, .kc, .kd, .ke, .kf, .kg {
        fill: none;
      }

      .jn {
        stroke-width: .34px;
      }

      .jo {
        stroke-width: .75px;
      }

      .jp {
        stroke-dasharray: 2.02 1.01;
      }

      .jq {
        stroke-dasharray: 1.98 .99;
      }

      .jr {
        stroke-width: .15px;
      }

      .jt, .ju, .jv, .jy, .kg {
        stroke-width: .4px;
      }

      .ju {
        stroke-dasharray: 1.97 .99;
      }

      .jv {
        stroke-dasharray: 1.88 .94;
      }

      .jw {
        stroke-width: .25px;
      }

      .jy {
        stroke-dasharray: 1.97 .99;
      }

      .jz {
        stroke-dasharray: 2 1;
      }

      .ka {
        stroke-width: .3px;
      }

      .kb {
        stroke-width: .6px;
      }

      .kc {
        stroke-dasharray: 1.98 .99;
      }

      .kd {
        stroke-width: .9px;
      }

      .ke {
        stroke-dasharray: 1.98 .99;
      }

      .kf, .kg {
        stroke-dasharray: 2.07 1.03;
      }
    </style>
  </defs>
  <g id="au" data-name="f4">
    <g id="av" data-name="HATCH">
      <path class="jr" d="M687.77,430.25v-69.73M695.78,430.25v-69.73M703.8,430.25v-69.73M711.82,430.25v-69.73M719.84,430.25v-69.73M727.85,430.25v-69.73M735.87,430.25v-69.73M743.89,430.25v-69.73M751.91,430.25v-69.73M759.92,430.25v-69.73M767.94,430.25v-69.73M775.96,430.25v-69.73M783.98,430.25v-69.73M791.99,430.25v-69.73M800.01,430.25v-69.73M808.03,430.25v-69.73M816.05,430.25v-69.73M824.06,430.25v-69.73M832.08,430.25v-69.73M840.1,430.25v-69.73M848.12,430.25v-69.73M856.13,430.25v-69.73M864.15,430.25v-69.73M872.17,430.25v-69.73M880.19,430.25v-69.73M888.2,430.25v-69.73M896.22,430.25v-69.73M904.24,430.25v-69.73M912.26,430.25v-69.73M920.28,430.25v-69.73M928.29,430.25v-69.73M936.31,430.25v-69.73M944.33,430.25v-69.73M952.35,430.25v-69.73M960.36,430.25v-69.73M968.38,430.25v-69.73M976.4,430.25v-69.73M984.42,430.25v-69.73M992.43,430.25v-69.73M1000.45,430.25v-69.73M1008.47,430.25v-69.73M1016.49,430.25v-69.73M1024.5,430.25v-69.73M1032.52,430.25v-69.73M1040.54,430.25v-69.73M1048.56,417.78v-57.26M1056.57,417.78v-57.26M1064.59,417.78v-57.26M1072.61,417.78v-57.26M1080.63,417.78v-57.26M1088.64,417.78v-57.26M1096.66,417.78v-57.26M1104.68,417.78v-57.26M1112.7,417.78v-57.26M1120.72,417.78v-57.26M1128.73,417.78v-57.26M1136.75,417.78v-57.26M1144.77,417.78v-57.26M1152.79,417.78v-57.26M1160.8,417.78v-57.26M1168.82,417.78v-57.26M1176.84,417.78v-57.26M1184.86,417.78v-57.26M1192.87,417.78v-57.26M1200.89,417.78v-57.26M1208.91,417.78v-57.26M1216.93,417.78v-57.26M1224.94,417.78v-57.26M1232.96,417.78v-57.26M1240.98,417.78v-57.26M1249,417.78v-57.26M1257.01,417.78v-57.26M1265.03,417.78v-57.26M1273.05,417.78v-57.26M1281.07,417.78v-57.26"/>
    </g>
    <g id="aw" data-name="HATCH">
      <path class="jr" d="M780.84,444.66h496.63M780.84,480.66h496.63M780.84,516.66h496.63M780.84,552.66h496.63M780.84,588.66h496.63M802.36,589.28v-144.85M838.36,589.28v-144.85M874.36,589.28v-144.85M910.36,589.28v-144.85M946.36,589.28v-144.85M982.36,589.28v-144.85M1018.36,589.28v-144.85M1054.36,589.28v-144.85M1090.36,589.28v-159.02M1126.36,589.28v-159.02M1162.36,589.28v-159.02M1198.36,589.28v-159.02M1234.36,589.28v-159.02M1270.36,589.28v-159.02"/>
    </g>
    <g id="ax" data-name="HATCH">
      <path class="jr" d="M687.34,589.28v-159.02M693.36,589.28v-159.02M699.37,589.28v-159.02M705.38,589.28v-159.02M711.4,589.28v-159.02M717.41,589.28v-159.02M723.42,589.28v-159.02M729.44,589.28v-159.02M735.45,589.28v-159.02M741.46,589.28v-159.02M747.48,589.28v-159.02M753.49,589.28v-159.02M759.5,589.28v-159.02M765.52,589.28v-159.02M771.53,589.28v-159.02M777.54,589.28v-159.02"/>
    </g>
    <g id="ay" data-name="LINE">
      <line class="jw" x1="977.28" y1="750" x2="934.19" y2="750"/>
    </g>
    <g id="az" data-name="LINE">
      <line class="jw" x1="933.06" y1="750" x2="850.85" y2="750"/>
    </g>
    <g id="ba" data-name="LINE">
      <line class="jw" x1="976.43" y1="751.57" x2="935.04" y2="751.57"/>
    </g>
    <g id="bb" data-name="LINE">
      <line class="jw" x1="932.21" y1="751.57" x2="851.7" y2="751.58"/>
    </g>
    <g id="bc" data-name="LINE">
      <line class="jw" x1="1161.53" y1="750" x2="1009.59" y2="750"/>
    </g>
    <g id="bd" data-name="LINE">
      <line class="jw" x1="1160.68" y1="751.57" x2="1010.44" y2="751.57"/>
    </g>
    <g id="be" data-name="LINE">
      <line class="jw" x1="1191.85" y1="749.26" x2="1285.82" y2="666.84"/>
    </g>
    <g id="bf" data-name="LINE">
      <line class="jw" x1="1286.21" y1="668.58" x2="1193.53" y2="749.88"/>
    </g>
    <g id="bg" data-name="LINE">
      <line class="jw" x1="818.54" y1="750" x2="693.53" y2="750"/>
    </g>
    <g id="bh" data-name="LINE">
      <line class="jw" x1="817.69" y1="751.58" x2="694.38" y2="751.58"/>
    </g>
    <g id="bi" data-name="LINE">
      <line class="jw" x1="1177.12" y1="591.54" x2="994" y2="591.54"/>
    </g>
    <g id="bj" data-name="LINE">
      <line class="jw" x1="994.85" y1="589.98" x2="1176.27" y2="589.97"/>
    </g>
    <g id="bk" data-name="LWPOLYLINE">
      <polyline class="jw" points="989.18 611.95 989.18 617.06 989.75 617.06 989.75 611.95"/>
    </g>
    <g id="bl" data-name="LWPOLYLINE">
      <polyline class="jw" points="989.75 617.62 989.75 662.98 989.18 662.98 989.18 617.62"/>
    </g>
    <g id="bm" data-name="LWPOLYLINE">
      <polyline class="jw" points="989.18 740.93 989.18 706.06 988.61 706.06 988.61 740.93"/>
    </g>
    <g id="bn" data-name="LINE">
      <line class="jw" x1="941.56" y1="590.98" x2="985.78" y2="590.98"/>
    </g>
    <g id="bo" data-name="LINE">
      <line class="jw" x1="933.34" y1="591.54" x2="893.84" y2="591.54"/>
    </g>
    <g id="bp" data-name="LINE">
      <line class="jw" x1="894.69" y1="589.98" x2="932.49" y2="589.98"/>
    </g>
    <g id="bq" data-name="LWPOLYLINE">
      <polyline class="jw" points="1179.1 589.98 1288.1 589.98 1288.1 636.05"/>
    </g>
    <g id="br" data-name="LWPOLYLINE">
      <polyline class="jw" points="1178.25 591.54 1286.54 591.54 1286.54 636.9"/>
    </g>
    <g id="bs" data-name="LWPOLYLINE">
      <polyline class="ka" points="820.52 766.44 685.87 766.44 685.87 752.27"/>
    </g>
    <g id="bt" data-name="LWPOLYLINE">
      <polyline class="ka" points="1288.8 578.79 1302.98 578.79 1302.98 360.52 685.87 360.52 685.87 431.95"/>
    </g>
    <g id="bu" data-name="LINE">
      <line class="ka" x1="1288.8" y1="417.78" x2="1288.8" y2="360.52"/>
    </g>
    <g id="bv" data-name="LWPOLYLINE">
      <polyline class="ka" points="1163.51 766.44 1088.39 766.44 1088.39 752.27"/>
    </g>
    <g id="bw" data-name="LWPOLYLINE">
      <polyline class="ka" points="1007.61 766.44 1082.73 766.44 1082.73 752.27"/>
    </g>
    <g id="bx" data-name="LWPOLYLINE">
      <polyline class="ka" points="911.23 752.27 911.23 766.44 848.87 766.44"/>
    </g>
    <g id="by" data-name="LWPOLYLINE">
      <polyline class="ka" points="979.26 766.44 916.9 766.44 916.9 752.27"/>
    </g>
    <g id="bz" data-name="LWPOLYLINE">
      <polyline class="ka" points="1302.98 638.88 1302.98 584.46 1288.8 584.46"/>
    </g>
    <g id="ca" data-name="LWPOLYLINE">
      <polyline class="ka" points="1302.98 667.23 1302.98 673.66 1252.21 718.18 1242.87 707.52"/>
    </g>
    <g id="cb" data-name="LWPOLYLINE">
      <polyline class="ka" points="1191.86 766.44 1197.19 766.44 1247.95 721.92 1238.61 711.26"/>
    </g>
    <g id="cc" data-name="LWPOLYLINE">
      <g>
        <polyline class="jt" points="1048.71 654.06 1048.71 653.06 1049.71 653.06"/>
        <line class="jy" x1="1050.69" y1="653.06" x2="1115.25" y2="653.06"/>
        <polyline class="jt" points="1115.74 653.06 1116.74 653.06 1116.74 654.06"/>
        <line class="kg" x1="1116.74" y1="655.09" x2="1116.74" y2="685.56"/>
        <polyline class="jt" points="1116.74 686.07 1116.74 687.07 1115.74 687.07"/>
        <line class="jy" x1="1114.76" y1="687.07" x2="1050.2" y2="687.07"/>
        <polyline class="jt" points="1049.71 687.07 1048.71 687.07 1048.71 686.07"/>
        <line class="kg" x1="1048.71" y1="685.04" x2="1048.71" y2="654.57"/>
      </g>
    </g>
    <g id="cd" data-name="LWPOLYLINE">
      <g>
        <polyline class="jt" points="1069.4 690.91 1069.4 689.91 1070.4 689.91"/>
        <line class="jv" x1="1071.34" y1="689.91" x2="1093.44" y2="689.91"/>
        <polyline class="jt" points="1093.91 689.91 1094.91 689.91 1094.91 690.91"/>
        <path class="ju" d="M1094.91,691.89v15.02c0,7.04-5.71,12.76-12.76,12.76s-12.76-5.71-12.76-12.76v-15.51"/>
      </g>
    </g>
    <g id="ce" data-name="LWPOLYLINE">
      <g>
        <polyline class="jt" points="1116.74 654.06 1116.74 653.06 1117.74 653.06"/>
        <line class="jy" x1="1118.73" y1="653.06" x2="1183.28" y2="653.06"/>
        <polyline class="jt" points="1183.77 653.06 1184.77 653.06 1184.77 654.06"/>
        <line class="kg" x1="1184.77" y1="655.09" x2="1184.77" y2="685.56"/>
        <polyline class="jt" points="1184.77 686.07 1184.77 687.07 1183.77 687.07"/>
        <line class="jy" x1="1182.79" y1="687.07" x2="1118.23" y2="687.07"/>
        <polyline class="jt" points="1117.74 687.07 1116.74 687.07 1116.74 686.07"/>
        <line class="kg" x1="1116.74" y1="685.04" x2="1116.74" y2="654.57"/>
      </g>
    </g>
    <g id="cf" data-name="LWPOLYLINE">
      <g>
        <polyline class="jt" points="1137.43 690.91 1137.43 689.91 1138.43 689.91"/>
        <line class="jv" x1="1139.37" y1="689.91" x2="1161.48" y2="689.91"/>
        <polyline class="jt" points="1161.95 689.91 1162.95 689.91 1162.95 690.91"/>
        <path class="ju" d="M1162.95,691.89v15.02c0,7.04-5.71,12.76-12.76,12.76s-12.76-5.71-12.76-12.76v-15.51"/>
      </g>
    </g>
    <g id="cg" data-name="LINE">
      <line class="jt" x1="775.17" y1="608.27" x2="772.33" y2="608.27"/>
    </g>
    <g id="ch" data-name="LINE">
      <line class="jt" x1="770.35" y1="608.27" x2="721.31" y2="608.27"/>
    </g>
    <g id="ci" data-name="LINE">
      <line class="jt" x1="775.17" y1="623.01" x2="772.33" y2="623.01"/>
    </g>
    <g id="cj" data-name="LINE">
      <line class="jt" x1="770.35" y1="623.01" x2="721.31" y2="623.01"/>
    </g>
    <g id="ck" data-name="LINE">
      <line class="jt" x1="775.17" y1="637.75" x2="772.33" y2="637.75"/>
    </g>
    <g id="cl" data-name="LINE">
      <line class="jt" x1="770.35" y1="637.75" x2="721.31" y2="637.75"/>
    </g>
    <g id="cm" data-name="LINE">
      <line class="jt" x1="775.17" y1="652.49" x2="772.33" y2="652.49"/>
    </g>
    <g id="cn" data-name="LINE">
      <line class="jt" x1="770.35" y1="652.49" x2="721.31" y2="652.49"/>
    </g>
    <g id="co" data-name="LINE">
      <line class="jt" x1="775.17" y1="667.23" x2="772.33" y2="667.23"/>
    </g>
    <g id="cp" data-name="LINE">
      <line class="jt" x1="770.35" y1="667.23" x2="721.31" y2="667.23"/>
    </g>
    <g id="cq" data-name="LINE">
      <line class="jt" x1="775.17" y1="667.23" x2="773.37" y2="669.21"/>
    </g>
    <g id="cr" data-name="LINE">
      <line class="jt" x1="771.58" y1="671.2" x2="721.31" y2="726.76"/>
    </g>
    <g id="cs" data-name="LINE">
      <line class="jt" x1="775.17" y1="662.98" x2="775.17" y2="669.21"/>
    </g>
    <g id="ct" data-name="LINE">
      <line class="jt" x1="775.17" y1="671.2" x2="775.17" y2="726.76"/>
    </g>
    <g id="cu" data-name="LWPOLYLINE">
      <polyline class="jt" points="772.33 603.45 772.33 669.21 786.5 669.21 786.5 671.2 770.35 671.2 770.35 603.45"/>
    </g>
    <g id="cv" data-name="LWPOLYLINE">
      <polyline class="jt" points="721.31 603.45 721.31 726.76 775.17 726.76"/>
    </g>
    <g id="cw" data-name="LWPOLYLINE">
      <rect class="jt" x="848.87" y="743.76" width="2.83" height="5.67"/>
    </g>
    <g id="cx" data-name="LWPOLYLINE">
      <polyline class="jt" points="849.72 749.43 849.72 750.57 850.85 750.57 850.85 749.43"/>
    </g>
    <g id="cy" data-name="LINE">
      <line class="jt" x1="850.28" y1="750.57" x2="850.28" y2="752.27"/>
    </g>
    <g id="cz" data-name="LWPOLYLINE">
      <polyline class="jt" points="848.87 751.57 848.87 752.27 851.7 752.27 851.7 751.58"/>
    </g>
    <g id="da" data-name="LWPOLYLINE">
      <rect class="jt" x="976.43" y="743.76" width="2.83" height="5.67"/>
    </g>
    <g id="db" data-name="LWPOLYLINE">
      <polyline class="jt" points="977.28 749.43 977.28 750.57 978.41 750.57 978.41 749.43"/>
    </g>
    <g id="dc" data-name="LINE">
      <line class="jt" x1="977.84" y1="750.57" x2="977.84" y2="752.27"/>
    </g>
    <g id="dd" data-name="LWPOLYLINE">
      <polyline class="jt" points="976.43 751.57 976.43 752.27 979.26 752.27 979.26 751.58"/>
    </g>
    <g id="de" data-name="LWPOLYLINE">
      <rect class="jt" x="1160.68" y="743.76" width="2.83" height="5.67"/>
    </g>
    <g id="df" data-name="LWPOLYLINE">
      <polyline class="jt" points="1161.53 749.43 1161.53 750.57 1162.66 750.57 1162.66 749.43"/>
    </g>
    <g id="dg" data-name="LINE">
      <line class="jt" x1="1162.1" y1="750.57" x2="1162.1" y2="752.27"/>
    </g>
    <g id="dh" data-name="LWPOLYLINE">
      <polyline class="jt" points="1160.68 751.57 1160.68 752.27 1163.51 752.27 1163.51 751.58"/>
    </g>
    <g id="di" data-name="LWPOLYLINE">
      <rect class="jt" x="1187.76" y="744.24" width="2.83" height="5.67" transform="translate(-197.01 972.37) rotate(-41.37)"/>
    </g>
    <g id="dj" data-name="LWPOLYLINE">
      <polyline class="jt" points="1190.63 749.58 1191.38 750.43 1192.23 749.68 1191.48 748.83"/>
    </g>
    <g id="dk" data-name="LINE">
      <line class="jt" x1="1191.8" y1="750.06" x2="1192.92" y2="751.33"/>
    </g>
    <g id="dl" data-name="LWPOLYLINE">
      <polyline class="jt" points="1191.4 751.74 1191.86 752.27 1193.99 750.4 1193.53 749.88"/>
    </g>
    <g id="dm" data-name="LWPOLYLINE">
      <rect class="jt" x="1007.61" y="743.76" width="2.83" height="5.67"/>
    </g>
    <g id="dn" data-name="LWPOLYLINE">
      <polyline class="jt" points="1008.46 749.43 1008.46 750.57 1009.59 750.57 1009.59 749.43"/>
    </g>
    <g id="do" data-name="LINE">
      <line class="jt" x1="1009.02" y1="750.57" x2="1009.02" y2="752.27"/>
    </g>
    <g id="dp" data-name="LWPOLYLINE">
      <polyline class="jt" points="1007.61 751.57 1007.61 752.27 1010.44 752.27 1010.44 751.58"/>
    </g>
    <g id="dq" data-name="LWPOLYLINE">
      <rect class="jt" x="1282.58" y="661.08" width="2.83" height="5.67" transform="translate(-118.38 1014.28) rotate(-41.37)"/>
    </g>
    <g id="dr" data-name="LWPOLYLINE">
      <polyline class="jt" points="1285.44 666.41 1286.19 667.26 1287.04 666.52 1286.29 665.66"/>
    </g>
    <g id="ds" data-name="LINE">
      <line class="jt" x1="1286.62" y1="666.89" x2="1287.74" y2="668.17"/>
    </g>
    <g id="dt" data-name="LWPOLYLINE">
      <polyline class="jt" points="1286.21 668.58 1286.68 669.1 1288.8 667.23 1288.35 666.71"/>
    </g>
    <g id="du" data-name="LWPOLYLINE">
      <rect class="jt" x="1280.3" y="636.05" width="5.67" height="2.83"/>
    </g>
    <g id="dv" data-name="LWPOLYLINE">
      <polyline class="jt" points="1285.97 638.03 1287.1 638.03 1287.1 636.9 1285.97 636.9"/>
    </g>
    <g id="dw" data-name="LINE">
      <line class="jt" x1="1287.1" y1="637.47" x2="1288.8" y2="637.47"/>
    </g>
    <g id="dx" data-name="LWPOLYLINE">
      <polyline class="jt" points="1288.1 638.88 1288.8 638.88 1288.8 636.05 1288.11 636.05"/>
    </g>
    <g id="dy" data-name="LWPOLYLINE">
      <rect class="jt" x="932.21" y="743.76" width="2.83" height="5.67"/>
    </g>
    <g id="dz" data-name="LWPOLYLINE">
      <polyline class="jt" points="933.06 749.43 933.06 750.57 934.19 750.57 934.19 749.43"/>
    </g>
    <g id="ea" data-name="LINE">
      <line class="jt" x1="933.62" y1="750.57" x2="933.62" y2="752.27"/>
    </g>
    <g id="eb" data-name="LWPOLYLINE">
      <polyline class="jt" points="932.21 751.57 932.21 752.27 935.04 752.27 935.04 751.58"/>
    </g>
    <g id="ec" data-name="LWPOLYLINE">
      <rect class="jt" x="1176.27" y="592.11" width="2.83" height="5.67"/>
    </g>
    <g id="ed" data-name="LWPOLYLINE">
      <polyline class="jt" points="1178.25 592.11 1178.25 590.98 1177.12 590.98 1177.12 592.11"/>
    </g>
    <g id="ee" data-name="LINE">
      <line class="jt" x1="1177.69" y1="590.98" x2="1177.69" y2="589.28"/>
    </g>
    <g id="ef" data-name="LWPOLYLINE">
      <polyline class="jt" points="1179.1 589.98 1179.1 589.28 1176.27 589.28 1176.27 589.97"/>
    </g>
    <g id="eg" data-name="LWPOLYLINE">
      <rect class="jt" x="992.02" y="592.11" width="2.83" height="5.67"/>
    </g>
    <g id="eh" data-name="LWPOLYLINE">
      <polyline class="jt" points="994 592.11 994 590.98 992.87 590.98 992.87 592.11"/>
    </g>
    <g id="ei" data-name="LINE">
      <line class="jt" x1="993.43" y1="590.98" x2="993.43" y2="589.28"/>
    </g>
    <g id="ej" data-name="LWPOLYLINE">
      <polyline class="jt" points="994.85 589.98 994.85 589.28 992.02 589.28 992.02 589.97"/>
    </g>
    <g id="ek" data-name="LWPOLYLINE">
      <rect class="jt" x="891.86" y="592.11" width="2.83" height="5.67"/>
    </g>
    <g id="el" data-name="LWPOLYLINE">
      <polyline class="jt" points="893.84 592.11 893.84 590.98 892.71 590.98 892.71 592.11"/>
    </g>
    <g id="em" data-name="LINE">
      <line class="jt" x1="893.28" y1="590.98" x2="893.28" y2="589.28"/>
    </g>
    <g id="en" data-name="LWPOLYLINE">
      <polyline class="jt" points="894.69 589.98 894.69 589.28 891.86 589.28 891.86 589.97"/>
    </g>
    <g id="eo" data-name="LWPOLYLINE">
      <rect class="jt" x="691.54" y="743.76" width="2.83" height="5.67"/>
    </g>
    <g id="ep" data-name="LWPOLYLINE">
      <polyline class="jt" points="692.39 749.43 692.39 750.57 693.53 750.57 693.53 749.43"/>
    </g>
    <g id="eq" data-name="LINE">
      <line class="jt" x1="692.96" y1="750.57" x2="692.96" y2="752.27"/>
    </g>
    <g id="er" data-name="LWPOLYLINE">
      <polyline class="jt" points="691.54 751.57 691.54 752.27 694.38 752.27 694.38 751.58"/>
    </g>
    <g id="es" data-name="LWPOLYLINE">
      <rect class="jt" x="817.69" y="743.76" width="2.83" height="5.67"/>
    </g>
    <g id="et" data-name="LWPOLYLINE">
      <polyline class="jt" points="818.54 749.43 818.54 750.57 819.67 750.57 819.67 749.43"/>
    </g>
    <g id="eu" data-name="LINE">
      <line class="jt" x1="819.1" y1="750.57" x2="819.1" y2="752.27"/>
    </g>
    <g id="ev" data-name="LWPOLYLINE">
      <polyline class="jt" points="817.69 751.57 817.69 752.27 820.52 752.27 820.52 751.58"/>
    </g>
    <g id="ew" data-name="LWPOLYLINE">
      <rect class="jt" x="988.05" y="617.62" width="2.83" height="8.5"/>
    </g>
    <g id="ex" data-name="LWPOLYLINE">
      <rect class="jt" x="932.49" y="592.11" width="2.83" height="5.67"/>
    </g>
    <g id="ey" data-name="LWPOLYLINE">
      <polyline class="jt" points="934.47 592.11 934.47 590.98 933.34 590.98 933.34 592.11"/>
    </g>
    <g id="ez" data-name="LINE">
      <line class="jt" x1="933.91" y1="590.98" x2="933.91" y2="589.28"/>
    </g>
    <g id="fa" data-name="LWPOLYLINE">
      <polyline class="jt" points="935.32 589.98 935.32 589.28 932.49 589.28 932.49 589.97"/>
    </g>
    <g id="fb" data-name="LWPOLYLINE">
      <rect class="jt" x="985.78" y="589.28" width="3.4" height="3.4"/>
    </g>
    <g id="fc" data-name="LWPOLYLINE">
      <rect class="jt" x="938.16" y="589.28" width="3.4" height="3.4"/>
    </g>
    <g id="fd" data-name="LWPOLYLINE">
      <rect class="jt" x="820.99" y="657.31" width="2.83" height="5.67"/>
    </g>
    <g id="fe" data-name="LWPOLYLINE">
      <rect class="jt" x="857.84" y="657.31" width="2.83" height="5.67"/>
    </g>
    <g id="ff" data-name="LWPOLYLINE">
      <rect class="jt" x="823.83" y="657.31" width="34.02" height="1.7"/>
    </g>
    <g id="fg" data-name="LWPOLYLINE">
      <rect class="jt" x="935.32" y="592.11" width="2.83" height="5.67"/>
    </g>
    <g id="fh" data-name="LWPOLYLINE">
      <polyline class="jt" points="937.31 592.11 937.31 590.98 936.17 590.98 936.17 592.11"/>
    </g>
    <g id="fi" data-name="LINE">
      <line class="jt" x1="936.74" y1="590.98" x2="936.74" y2="589.28"/>
    </g>
    <g id="fj" data-name="LWPOLYLINE">
      <polyline class="jt" points="938.16 589.98 938.16 589.28 935.32 589.28 935.32 589.97"/>
    </g>
    <g id="fk" data-name="LWPOLYLINE">
      <rect class="jt" x="989.18" y="592.11" width="2.83" height="5.67"/>
    </g>
    <g id="fl" data-name="LWPOLYLINE">
      <polyline class="jt" points="991.17 592.11 991.17 590.98 990.03 590.98 990.03 592.11"/>
    </g>
    <g id="fm" data-name="LINE">
      <line class="jt" x1="990.6" y1="590.98" x2="990.6" y2="589.28"/>
    </g>
    <g id="fn" data-name="LWPOLYLINE">
      <polyline class="jt" points="992.02 589.98 992.02 589.28 989.18 589.28 989.18 589.97"/>
    </g>
    <g id="fo" data-name="LINE">
      <line class="jt" x1="851.7" y1="743.76" x2="932.21" y2="743.76"/>
    </g>
    <g id="fp" data-name="LINE">
      <line class="jt" x1="935.04" y1="743.76" x2="976.43" y2="743.76"/>
    </g>
    <g id="fq" data-name="LINE">
      <line class="jt" x1="851.7" y1="752.27" x2="932.21" y2="752.27"/>
    </g>
    <g id="fr" data-name="LINE">
      <line class="jt" x1="935.04" y1="752.27" x2="976.43" y2="752.27"/>
    </g>
    <g id="fs" data-name="LINE">
      <line class="jt" x1="1010.44" y1="743.76" x2="1160.68" y2="743.76"/>
    </g>
    <g id="ft" data-name="LINE">
      <line class="jt" x1="1010.44" y1="752.27" x2="1160.68" y2="752.27"/>
    </g>
    <g id="fu" data-name="LINE">
      <line class="jt" x1="1188.37" y1="744.01" x2="1281.06" y2="662.72"/>
    </g>
    <g id="fv" data-name="LINE">
      <line class="jt" x1="1286.68" y1="669.1" x2="1193.99" y2="750.4"/>
    </g>
    <g id="fw" data-name="LINE">
      <line class="jt" x1="702.88" y1="743.76" x2="817.69" y2="743.76"/>
    </g>
    <g id="fx" data-name="LINE">
      <line class="jt" x1="694.38" y1="752.27" x2="817.69" y2="752.27"/>
    </g>
    <g id="fy" data-name="LWPOLYLINE">
      <polyline class="jt" points="1179.1 597.78 1280.3 597.78 1280.3 636.05"/>
    </g>
    <g id="fz" data-name="LINE">
      <line class="jt" x1="1176.27" y1="597.78" x2="994.85" y2="597.78"/>
    </g>
    <g id="ga" data-name="LINE">
      <line class="jt" x1="1176.27" y1="589.28" x2="994.85" y2="589.28"/>
    </g>
    <g id="gb" data-name="LINE">
      <line class="jt" x1="941.56" y1="589.28" x2="985.78" y2="589.28"/>
    </g>
    <g id="gc" data-name="LINE">
      <line class="jt" x1="985.78" y1="592.68" x2="941.56" y2="592.68"/>
    </g>
    <g id="gd" data-name="LINE">
      <line class="jt" x1="932.49" y1="597.78" x2="894.69" y2="597.78"/>
    </g>
    <g id="ge" data-name="LINE">
      <line class="jt" x1="932.49" y1="589.28" x2="894.69" y2="589.28"/>
    </g>
    <g id="gf" data-name="LWPOLYLINE">
      <polyline class="jt" points="1179.1 589.28 1288.8 589.28 1288.8 636.05"/>
    </g>
    <g id="gg" data-name="LWPOLYLINE">
      <g>
        <line class="jm" x1="989.75" y1="617.62" x2="990.75" y2="617.62"/>
        <line class="jp" x1="991.76" y1="617.62" x2="1033.6" y2="617.62"/>
        <polyline class="jm" points="1034.1 617.62 1035.1 617.62 1035.1 618.19 1034.1 618.19"/>
        <line class="jp" x1="1033.09" y1="618.19" x2="991.25" y2="618.19"/>
        <line class="jm" x1="990.75" y1="618.19" x2="989.75" y2="618.19"/>
      </g>
    </g>
    <g id="gh" data-name="ARC">
      <g>
        <path class="jm" d="M989.75,662.98c.33,0,.67,0,1-.01"/>
        <path class="kc" d="M991.74,662.93c23.63-1.02,42.57-20.12,43.34-43.82"/>
        <path class="jm" d="M1035.09,618.62c0-.33.01-.67.01-1"/>
      </g>
    </g>
    <g id="gi" data-name="LWPOLYLINE">
      <g>
        <polyline class="jm" points="989.18 588.28 989.18 589.28 988.18 589.28"/>
        <polyline class="jm" points="986.78 589.28 985.78 589.28 985.78 588.28"/>
        <line class="jz" x1="985.78" y1="587.28" x2="985.78" y2="539.75"/>
        <polyline class="jm" points="985.78 539.25 985.78 538.25 986.78 538.25"/>
        <polyline class="jm" points="988.18 538.25 989.18 538.25 989.18 539.25"/>
        <line class="jz" x1="989.18" y1="540.25" x2="989.18" y2="587.78"/>
      </g>
    </g>
    <g id="gj" data-name="ARC">
      <g>
        <path class="jm" d="M989.18,538.25c-.33,0-.67,0-1,0"/>
        <path class="jq" d="M987.19,538.29c-26.76,1.03-48.24,22.66-49.01,49.49"/>
        <path class="jm" d="M938.17,588.28c0,.33,0,.67,0,1"/>
      </g>
    </g>
    <g id="gk" data-name="LWPOLYLINE">
      <g>
        <polyline class="jm" points="857.84 656.31 857.84 657.31 856.14 657.31 856.14 656.31"/>
        <line class="kf" x1="856.14" y1="655.28" x2="856.14" y2="624.81"/>
        <polyline class="jm" points="856.14 624.29 856.14 623.29 857.84 623.29 857.84 624.29"/>
        <line class="kf" x1="857.84" y1="625.33" x2="857.84" y2="655.79"/>
      </g>
    </g>
    <g id="gl" data-name="ARC">
      <g>
        <path class="jm" d="M857.84,623.29c-.33,0-.67,0-1,.01"/>
        <path class="ke" d="M855.86,623.35c-17.37,1-31.24,15.03-32,32.46"/>
        <path class="jm" d="M823.84,656.31c0,.33-.01.67-.01,1"/>
      </g>
    </g>
    <g id="gm" data-name="CIRCLE">
      <circle class="jm" cx="775.17" cy="696.99" r="1.42"/>
    </g>
    <g id="gn" data-name="LWPOLYLINE">
      <polyline class="jm" points="748.24 611.1 748.24 696.99 775.17 696.99"/>
    </g>
    <g id="go" data-name="LWPOLYLINE">
      <polyline class="jm" points="751.44 614.31 748.24 611.1 745.03 614.31"/>
    </g>
    <g id="gp" data-name="LWPOLYLINE">
      <path class="jm" d="M903.54,631.03h-9.13v2.72h9.13c.75,0,1.36-.61,1.36-1.36s-.61-1.36-1.36-1.36Z"/>
    </g>
    <g id="gq" data-name="LWPOLYLINE">
      <polyline class="jm" points="897.53 631.03 897.53 614.53 923.04 614.53 923.04 650.25 897.53 650.25 897.53 633.75"/>
    </g>
    <g id="gr" data-name="LWPOLYLINE">
      <polyline class="jm" points="891.86 662.98 925.87 662.98 925.87 597.78"/>
    </g>
    <g id="gs" data-name="LWPOLYLINE">
      <path class="jm" d="M811.17,642.57h-28.63v-24.38h28.63c6.73,0,12.19,5.46,12.19,12.19s-5.46,12.19-12.19,12.19Z"/>
    </g>
    <g id="gt" data-name="LINE">
      <line class="jm" x1="860.68" y1="657.31" x2="860.68" y2="603.45"/>
    </g>
    <g id="gu" data-name="LWPOLYLINE">
      <rect class="jm" x="868.39" y="642.27" width="2.27" height="8.5"/>
    </g>
    <g id="gv" data-name="LWPOLYLINE">
      <polyline class="jm" points="870.66 647.94 878.03 647.94 878.03 621.86 862.72 621.86 862.72 647.94 868.39 647.94"/>
    </g>
    <g id="gw" data-name="LWPOLYLINE">
      <polygon class="jm" points="1287.1 584.46 1287.1 419.48 1045.31 419.48 1045.31 421.75 1284.84 421.75 1284.84 584.46 1287.1 584.46"/>
    </g>
    <g id="gx" data-name="LINE">
      <line class="jm" x1="1163.51" y1="740.93" x2="1007.61" y2="740.93"/>
    </g>
    <g id="gy" data-name="LINE">
      <line class="jm" x1="979.26" y1="740.93" x2="848.87" y2="740.93"/>
    </g>
    <g id="gz" data-name="LINE">
      <line class="jm" x1="1277.47" y1="638.88" x2="1277.47" y2="597.78"/>
    </g>
    <g id="ha" data-name="LINE">
      <line class="jm" x1="989.18" y1="597.78" x2="938.16" y2="597.78"/>
    </g>
    <g id="hb" data-name="LWPOLYLINE">
      <polyline class="jm" points="780.84 589.28 780.84 430.25 685.87 430.25 685.87 589.28"/>
    </g>
    <g id="hc" data-name="LWPOLYLINE">
      <polyline class="jm" points="1288.8 589.28 1288.8 417.78 1044.17 417.78 1044.17 430.25"/>
    </g>
    <g id="hd" data-name="LWPOLYLINE">
      <polyline class="jm" points="780.84 444.43 1058.35 444.43 1058.35 430.25 780.84 430.25"/>
    </g>
    <g id="he" data-name="LINE">
      <line class="jm" x1="719.89" y1="736" x2="830.44" y2="736"/>
    </g>
    <g id="hf" data-name="LINE">
      <line class="jm" x1="719.89" y1="728.85" x2="830.44" y2="728.85"/>
    </g>
    <g id="hg" data-name="LINE">
      <line class="jm" x1="712.07" y1="611.95" x2="712.07" y2="728.17"/>
    </g>
    <g id="hh" data-name="LINE">
      <line class="jm" x1="719.21" y1="611.95" x2="719.21" y2="728.17"/>
    </g>
    <g id="hi" data-name="LWPOLYLINE">
      <polyline class="jm" points="1277.47 589.28 1277.47 430.25 1058.35 430.25"/>
    </g>
    <g id="hj" data-name="LINE">
      <line class="jm" x1="1187.58" y1="740.93" x2="1277.47" y2="662.1"/>
    </g>
    <g id="hk" data-name="LWPOLYLINE">
      <rect class="kb" x="989.18" y="728.17" width="8.5" height="8.5"/>
    </g>
    <g id="hl" data-name="LWPOLYLINE">
      <rect class="kb" x="989.86" y="728.85" width="7.14" height="7.14"/>
    </g>
    <g id="hm" data-name="LWPOLYLINE">
      <rect class="kb" x="1173.43" y="728.17" width="8.5" height="8.5"/>
    </g>
    <g id="hn" data-name="LWPOLYLINE">
      <rect class="kb" x="1174.11" y="728.85" width="7.14" height="7.14"/>
    </g>
    <g id="ho" data-name="LWPOLYLINE">
      <rect class="kb" x="1264.71" y="648.8" width="8.5" height="8.5"/>
    </g>
    <g id="hp" data-name="LWPOLYLINE">
      <rect class="kb" x="1265.39" y="649.48" width="7.14" height="7.14"/>
    </g>
    <g id="hq" data-name="LWPOLYLINE">
      <rect class="kb" x="711.39" y="728.17" width="8.5" height="8.5"/>
    </g>
    <g id="hr" data-name="LWPOLYLINE">
      <rect class="kb" x="712.07" y="728.85" width="7.14" height="7.14"/>
    </g>
    <g id="hs" data-name="LWPOLYLINE">
      <rect class="kb" x="830.44" y="728.17" width="8.5" height="8.5"/>
    </g>
    <g id="ht" data-name="LWPOLYLINE">
      <rect class="kb" x="831.12" y="728.85" width="7.14" height="7.14"/>
    </g>
    <g id="hu" data-name="LWPOLYLINE">
      <rect class="kb" x="1264.71" y="603.45" width="8.5" height="8.5"/>
    </g>
    <g id="hv" data-name="LWPOLYLINE">
      <rect class="kb" x="1265.39" y="604.13" width="7.14" height="7.14"/>
    </g>
    <g id="hw" data-name="LWPOLYLINE">
      <rect class="kb" x="1173.43" y="603.45" width="8.5" height="8.5"/>
    </g>
    <g id="hx" data-name="LWPOLYLINE">
      <rect class="kb" x="1174.11" y="604.13" width="7.14" height="7.14"/>
    </g>
    <g id="hy" data-name="LWPOLYLINE">
      <rect class="kb" x="989.18" y="603.45" width="8.5" height="8.5"/>
    </g>
    <g id="hz" data-name="LWPOLYLINE">
      <rect class="kb" x="989.86" y="604.13" width="7.14" height="7.14"/>
    </g>
    <g id="ia" data-name="LWPOLYLINE">
      <rect class="kb" x="830.44" y="603.45" width="8.5" height="8.5"/>
    </g>
    <g id="ib" data-name="LWPOLYLINE">
      <rect class="kb" x="831.12" y="604.13" width="7.14" height="7.14"/>
    </g>
    <g id="ic" data-name="LWPOLYLINE">
      <rect class="kb" x="711.39" y="603.45" width="8.5" height="8.5"/>
    </g>
    <g id="id" data-name="LWPOLYLINE">
      <rect class="kb" x="712.07" y="604.13" width="7.14" height="7.14"/>
    </g>
    <g id="ie" data-name="LWPOLYLINE">
      <rect class="kb" x="979.26" y="752.27" width="28.35" height="14.17"/>
    </g>
    <g id="if" data-name="LWPOLYLINE">
      <rect class="kb" x="1163.51" y="752.27" width="28.35" height="14.17"/>
    </g>
    <g id="ig" data-name="LWPOLYLINE">
      <rect class="kb" x="820.52" y="752.27" width="28.35" height="14.17"/>
    </g>
    <g id="ih" data-name="LWPOLYLINE">
      <rect class="kb" x="1288.8" y="638.88" width="14.17" height="28.35"/>
    </g>
    <g id="ii" data-name="LINE">
      <line class="jo" x1="702.88" y1="592.11" x2="891.86" y2="592.11"/>
    </g>
    <g id="ij" data-name="LINE">
      <line class="jo" x1="702.88" y1="597.78" x2="891.86" y2="597.78"/>
    </g>
    <g id="ik" data-name="LWPOLYLINE">
      <polyline class="kd" points="891.86 589.28 685.87 589.28 685.87 752.27 691.54 752.27"/>
    </g>
    <g id="il" data-name="LWPOLYLINE">
      <polyline class="kd" points="702.88 603.45 775.17 603.45 775.17 662.98 820.99 662.98"/>
    </g>
    <g id="im" data-name="LWPOLYLINE">
      <polyline class="kd" points="820.99 657.31 780.84 657.31 780.84 603.45 886.19 603.45 886.19 657.31 860.68 657.31"/>
    </g>
    <g id="in" data-name="LWPOLYLINE">
      <polyline class="kd" points="1288.8 638.88 1277.47 638.88 1277.47 662.1 1281.76 662.1"/>
    </g>
    <g id="io" data-name="LWPOLYLINE">
      <polyline class="kd" points="1163.51 752.27 1163.51 740.93 1187.58 740.93 1187.58 744.7"/>
    </g>
    <g id="ip" data-name="LWPOLYLINE">
      <polyline class="kd" points="1007.61 752.27 1007.61 740.93 979.26 740.93 979.26 752.27"/>
    </g>
    <g id="iq" data-name="LWPOLYLINE">
      <rect class="kd" x="988.61" y="663.54" width="5.67" height="42.52"/>
    </g>
    <g id="ir" data-name="LWPOLYLINE">
      <polyline class="kd" points="860.68 662.98 891.86 662.98 891.86 597.78"/>
    </g>
    <g id="is" data-name="LWPOLYLINE">
      <rect class="kd" x="691.54" y="592.11" width="11.34" height="151.65"/>
    </g>
    <g id="it" data-name="LWPOLYLINE">
      <polyline class="kd" points="848.87 752.27 848.87 740.93 820.52 740.93 820.52 752.27"/>
    </g>
  </g>
  <g id="iy" data-name="SCALE">
    <g>
      <g id="iz" data-name="CIRCLE">
        <circle class="jm" cx="214.88" cy="1092.93" r="14.88"/>
      </g>
      <g id="ja" data-name="TEXT">
        <path class="js" d="M224.5,1077.4l-.86-.35-1.27-8.05-2.62,6.47-.84-.34,3.28-8.1.87.35,1.26,8.02,2.61-6.45.84.34-3.28,8.1Z"/>
      </g>
      <g id="jb" data-name="HATCH">
        <path class="jl" d="M220.46,1079.13c-.23-.09-.46-.18-.7-.26l-5.57,13.78.69.28,5.58-13.8Z"/>
      </g>
      <g id="jc" data-name="HATCH">
        <path class="jl" d="M221.15,1079.43c-.23-.1-.45-.2-.69-.3l-5.58,13.8.69.28,5.57-13.78Z"/>
      </g>
      <g id="jd" data-name="LINE">
        <line class="jx" x1="219.76" y1="1078.87" x2="214.19" y2="1092.64"/>
      </g>
      <g id="je" data-name="LINE">
        <line class="jx" x1="221.15" y1="1079.43" x2="215.57" y2="1093.21"/>
      </g>
      <g id="jf" data-name="LINE">
        <line class="jx" x1="214.88" y1="1092.93" x2="220.46" y2="1079.13"/>
      </g>
      <g id="jg" data-name="MTEXT">
        <path class="js" d="M281.36,1108.4c-.63-.5-1.13-1.2-1.49-2.1-.36-.9-.54-1.92-.54-3.06s.18-2.14.54-3.04c.36-.9.85-1.59,1.49-2.1.63-.5,1.36-.75,2.17-.75s1.53.25,2.17.75c.63.5,1.13,1.2,1.49,2.1.36.9.54,1.91.54,3.04s-.18,2.16-.54,3.05c-.36.89-.85,1.59-1.49,2.1s-1.36.76-2.17.76-1.53-.25-2.17-.75ZM285.01,1107.36c.44-.41.78-.96,1.02-1.67.24-.71.36-1.52.36-2.44s-.12-1.73-.36-2.45c-.24-.71-.58-1.27-1.02-1.67-.44-.4-.93-.6-1.49-.6s-1.05.2-1.48.6c-.43.4-.77.96-1.02,1.67-.25.71-.37,1.53-.37,2.43s.12,1.75.37,2.46c.25.71.58,1.27,1.02,1.67s.93.61,1.48.61,1.05-.2,1.49-.61Z"/>
      </g>
      <g id="jh" data-name="MTEXT">
        <path class="js" d="M393.68,1107.22c.19-.17.42-.38.71-.64.93-.85,1.67-1.57,2.24-2.15.57-.58,1.05-1.17,1.44-1.78s.59-1.16.59-1.67c0-.48-.09-.9-.28-1.27s-.45-.66-.78-.86-.71-.31-1.15-.31c-.47,0-.93.16-1.37.48-.44.32-.78.73-1,1.23l-1.2-.51c.3-.7.78-1.28,1.46-1.73.67-.45,1.38-.67,2.11-.67.69,0,1.31.16,1.85.46.54.31.96.74,1.26,1.29.3.55.45,1.18.45,1.9s-.22,1.41-.67,2.14c-.45.73-.98,1.41-1.6,2.04-.62.63-1.42,1.39-2.42,2.27-.49.45-.95.88-1.39,1.3l-.94-.85c.28-.27.51-.49.7-.66ZM392.98,1107.88h7.22v1.18h-7.04l-.18-1.18Z"/>
      </g>
      <g id="ji" data-name="MTEXT">
        <path class="js" d="M340.34,1109.04h-1.34v-10.08l-1.86,1.2-.67-1.07,2.54-1.62h1.33v11.57Z"/>
      </g>
      <g id="jj" data-name="MTEXT">
        <g>
          <path class="js" d="M558.55,1101.81c.55-.25,1.08-.38,1.59-.38.77,0,1.45.16,2.06.49.6.33,1.07.78,1.41,1.35s.5,1.24.5,1.98-.17,1.43-.5,2.02-.8,1.05-1.4,1.38-1.29.5-2.07.5c-.6,0-1.16-.12-1.69-.38-.53-.25-.98-.6-1.34-1.05-.37-.45-.62-.95-.74-1.52l1.3-.3c.13.59.42,1.06.89,1.43.46.37.99.55,1.59.55.5,0,.95-.11,1.35-.34.4-.22.71-.54.94-.94.23-.41.34-.86.34-1.36s-.11-.95-.34-1.34c-.23-.39-.54-.69-.94-.91-.4-.22-.85-.33-1.35-.33-.33,0-.68.09-1.04.26-.36.18-.66.4-.9.68l-.99-.86c.34-.38.79-.7,1.34-.95ZM556.87,1103.43l.37-6.03h5.92v1.18h-4.64l-.32,5.04-1.33-.19Z"/>
          <path class="js" d="M575.28,1103.26c-.29-.34-.67-.5-1.13-.5-.35,0-.66.07-.94.22-.27.14-.49.34-.65.6-.16.26-.24.55-.24.88v4.58h-1.33v-4.45c0-.54-.14-.98-.43-1.32s-.66-.5-1.12-.5c-.34,0-.65.09-.94.26s-.5.42-.66.72c-.15.3-.23.63-.23.98v4.3h-1.33v-7.46h1.33v1.31l-.14-.05c.22-.37.52-.68.9-.91.37-.23.75-.35,1.14-.35.46,0,.9.13,1.32.38.42.26.74.59.95.99.25-.41.59-.74,1.04-.99.45-.26.9-.38,1.36-.38.55,0,1.05.13,1.49.38.44.25.78.59,1.02,1.02.25.43.37.93.37,1.5v4.56h-1.34v-4.45c0-.54-.15-.98-.44-1.32Z"/>
        </g>
      </g>
      <g id="jk" data-name="LWPOLYLINE">
        <polyline class="jm" points="566.32 1093.39 566.32 1076.38 396.24 1076.38 396.24 1093.39 339.55 1093.39 339.55 1076.38 282.85 1076.38 282.85 1093.39"/>
      </g>
    </g>
    <g>
      <g>
        <path class="jn" d="M1770.6,1063.93v.55h-3.85v6.51h-.64v-7.06h4.49ZM1769.39,1070.68c.66-.05,1.31-.15,1.97-.3l.1.56c-.68.15-1.36.25-2.02.3-.67.05-1.53.08-2.6.08h-.73v-.56h.73c1.04,0,1.9-.03,2.55-.08ZM1772.97,1062.72v11.1h-.62v-11.1h.62ZM1775.32,1067.39v.56h-2.56v-.56h2.56ZM1775.74,1062.4v12.08h-.63v-12.08h.63Z"/>
        <path class="jn" d="M1788.79,1072.34v.56h-10.96v-.56h10.96ZM1787.67,1063.63v.56h-8.79v-.56h8.79ZM1787.67,1068.49v.56h-8.78v-.56h8.78ZM1781.58,1064.05v4.62h-.66v-4.62h.66ZM1781.78,1068.93v3.58h-.66v-3.58h.66ZM1785.43,1068.93v3.58h-.64v-3.58h.64ZM1785.61,1064.05v4.62h-.63v-4.62h.63Z"/>
        <path class="jn" d="M1793.98,1062.81v.92c0,.72-.15,1.4-.46,2.03-.31.63-.72,1.19-1.23,1.67-.51.48-1.08.84-1.69,1.11l-.35-.53c.57-.21,1.1-.54,1.58-.97.49-.43.88-.93,1.17-1.5.29-.57.44-1.17.44-1.8v-.92h.54ZM1799.85,1069.43v2.63h-6.96v1.97h-.62v-2.49h6.94v-1.55h-6.99v-.56h7.62ZM1800.34,1073.76v.55h-8.06v-.55h8.06ZM1794.07,1062.81v.92c0,.59.15,1.16.45,1.7.3.55.7,1.02,1.19,1.42.49.4,1.02.71,1.58.92l-.34.52c-.62-.24-1.2-.59-1.71-1.04s-.93-.97-1.24-1.58c-.31-.61-.46-1.25-.46-1.95v-.92h.53ZM1799.85,1062.4v6.36h-.64v-6.36h.64Z"/>
        <path class="jn" d="M1770.59,1081.96v.55h-3.84v6.5h-.64v-7.04h4.48ZM1769.36,1088.78c.63-.05,1.28-.15,1.93-.3l.08.56c-.66.15-1.31.25-1.95.29-.64.05-1.5.07-2.57.07h-.74v-.55h.74c1.04,0,1.87-.03,2.51-.08ZM1769.96,1085.23v.55h-3.43v-.55h3.43ZM1773.05,1085.11v.56h-2.37v-.56h2.37ZM1773.36,1080.74v11.06h-.63v-11.06h.63ZM1775.76,1080.4v12.08h-.63v-12.08h.63Z"/>
        <path class="jn" d="M1783.68,1081.61v4.07h-4.71v3.51h-.63v-4.09h4.7v-2.94h-4.75v-.56h5.38ZM1782.47,1088.83c.87-.07,1.76-.18,2.66-.35l.07.56c-.94.17-1.85.29-2.73.35-.88.07-1.95.1-3.22.1h-.91v-.56h.91c1.28,0,2.35-.03,3.22-.1ZM1787,1080.4v12.08h-.64v-12.08h.64ZM1789.14,1085.37v.57h-2.31v-.57h2.31Z"/>
        <path class="jn" d="M1801.03,1090.17v.56h-10.96v-.56h10.96ZM1795.73,1081.31v.98c0,.81-.25,1.56-.76,2.25s-1.12,1.27-1.86,1.74c-.74.47-1.45.79-2.14.98l-.31-.55c.61-.13,1.26-.41,1.97-.83.7-.42,1.3-.95,1.8-1.58.49-.63.74-1.3.74-2.01v-.98h.56ZM1795.83,1081.31v.98c0,.71.25,1.38.74,2.01s1.1,1.16,1.81,1.59c.71.43,1.37.71,1.97.83l-.32.55c-.69-.19-1.4-.51-2.14-.98-.74-.47-1.36-1.05-1.87-1.74-.51-.69-.76-1.44-.76-2.25v-.98h.57Z"/>
        <path class="jn" d="M1769.64,1107.31c1.27-.05,2.46-.15,3.58-.32l.06.5c-1.17.2-2.37.32-3.61.38-1.24.06-2.6.09-4.07.09l-.14-.59c1.52,0,2.92-.02,4.19-.07ZM1772.94,1099.97v.55h-7.29v-.55h7.29ZM1770.75,1101.66c.42.18.74.44.97.78s.35.73.35,1.18-.12.82-.35,1.15c-.23.33-.56.59-.97.77-.42.18-.9.27-1.45.27s-1.03-.09-1.45-.27c-.42-.18-.74-.44-.97-.77-.23-.33-.34-.72-.34-1.15s.12-.84.34-1.18.55-.59.97-.78c.42-.18.9-.27,1.45-.27s1.03.09,1.45.27ZM1767.74,1102.38c-.4.31-.59.72-.59,1.21s.2.9.59,1.2.92.46,1.56.46,1.17-.15,1.56-.46.59-.71.59-1.2-.2-.9-.59-1.21-.92-.47-1.56-.47-1.16.16-1.56.47ZM1769.64,1098.39v1.85h-.66v-1.85h.66ZM1769.64,1105.64v1.96h-.66v-1.96h.66ZM1774.69,1098.4v12.08h-.64v-12.08h.64ZM1776.83,1103.69v.57h-2.3v-.57h2.3Z"/>
        <path class="jn" d="M1781.55,1099.66v1.13c0,.7-.15,1.35-.44,1.96s-.7,1.13-1.2,1.58-1.07.78-1.69,1.01l-.34-.52c.57-.21,1.09-.51,1.57-.9s.86-.87,1.15-1.41c.29-.54.43-1.12.43-1.72v-1.13h.52ZM1784.53,1099.35v.56h-6.41v-.56h6.41ZM1785.41,1106.42c.58.16,1.03.4,1.34.72s.47.7.47,1.15c0,.68-.34,1.21-1.03,1.59s-1.64.57-2.86.57c-.8,0-1.5-.08-2.08-.25-.58-.17-1.03-.42-1.34-.74-.31-.33-.46-.71-.46-1.16s.15-.83.46-1.15.75-.56,1.34-.72c.58-.16,1.28-.25,2.08-.25s1.5.08,2.08.25ZM1781.61,1106.91c-.49.13-.87.31-1.13.55s-.4.51-.4.83c0,.49.29.89.88,1.18s1.38.43,2.37.43,1.78-.14,2.37-.43.89-.68.89-1.18c0-.32-.14-.59-.41-.83-.27-.23-.65-.42-1.14-.55-.49-.13-1.06-.2-1.72-.2s-1.22.07-1.71.2ZM1781.65,1099.66v1.12c0,.54.14,1.06.41,1.56.28.5.64.94,1.11,1.31.46.37.97.66,1.52.87l-.31.5c-.61-.22-1.16-.55-1.65-.97-.49-.42-.89-.91-1.18-1.47s-.43-1.16-.43-1.81v-1.12h.53ZM1787.11,1098.4v7.36h-.64v-7.36h.64ZM1789.03,1101.68v.56h-2.1v-.56h2.1Z"/>
        <path class="jn" d="M1793.98,1098.81v.92c0,.72-.15,1.4-.46,2.03-.31.63-.72,1.19-1.23,1.67-.51.48-1.08.84-1.69,1.11l-.35-.53c.57-.21,1.1-.54,1.58-.97.49-.43.88-.93,1.17-1.5.29-.57.44-1.17.44-1.8v-.92h.54ZM1799.85,1105.43v2.63h-6.96v1.97h-.62v-2.49h6.94v-1.55h-6.99v-.56h7.62ZM1800.34,1109.76v.55h-8.06v-.55h8.06ZM1794.07,1098.81v.92c0,.59.15,1.16.45,1.7.3.55.7,1.02,1.19,1.42.49.4,1.02.71,1.58.92l-.34.52c-.62-.24-1.2-.59-1.71-1.04s-.93-.97-1.24-1.58c-.31-.61-.46-1.25-.46-1.95v-.92h.53ZM1799.85,1098.4v6.36h-.64v-6.36h.64Z"/>
      </g>
      <g>
        <path class="jn" d="M1754.69,1073.55h-.67v-9.35l-1.26.87-.36-.49,1.62-1.13h.67v10.11Z"/>
        <path class="jn" d="M1751.59,1090.31c.2-.19.43-.41.68-.65.84-.79,1.51-1.46,2.02-1.99.51-.53.94-1.09,1.31-1.67s.55-1.12.55-1.61-.09-.9-.28-1.27-.45-.67-.78-.88c-.33-.21-.71-.32-1.13-.32-.47,0-.91.16-1.34.48-.42.32-.75.73-.96,1.24l-.63-.27c.26-.61.66-1.1,1.2-1.48.54-.38,1.12-.57,1.72-.57.55,0,1.04.13,1.47.39.43.26.77.63,1.01,1.09.25.47.37.99.37,1.58s-.19,1.18-.57,1.81-.84,1.23-1.38,1.79c-.54.56-1.23,1.25-2.09,2.05-.59.55-1.04.98-1.36,1.3l-.48-.39c.23-.24.45-.46.65-.65ZM1750.94,1090.96h6.02v.59h-5.94l-.08-.59Z"/>
        <path class="jn" d="M1756.62,1105.25c.33.44.5.92.5,1.43,0,.57-.14,1.08-.41,1.53s-.65.8-1.13,1.06-1.03.38-1.64.38-1.17-.13-1.65-.38-.86-.6-1.13-1.06-.41-.96-.41-1.53h.67c0,.46.11.87.32,1.23s.51.64.9.84c.38.2.81.3,1.29.3s.92-.1,1.3-.29.68-.46.89-.79.32-.72.32-1.16-.11-.8-.32-1.13-.5-.59-.88-.78c-.38-.19-.8-.28-1.28-.28h-.41v-.62h.39c.45,0,.85-.09,1.21-.26s.64-.41.84-.72c.2-.31.3-.66.3-1.05,0-.6-.21-1.09-.64-1.47-.43-.38-.98-.57-1.65-.57-.44,0-.83.09-1.19.27-.36.18-.63.44-.82.77-.19.33-.29.71-.29,1.13h-.67c0-.53.13-1.01.38-1.43s.6-.75,1.05-.99c.45-.24.96-.36,1.54-.36s1.09.12,1.54.36c.45.24.8.57,1.05.99.25.42.38.9.38,1.43,0,.43-.15.85-.45,1.27s-.69.73-1.16.94c.5.19.92.5,1.25.94Z"/>
      </g>
    </g>
    <path class="jn" d="M1118.47,647.94h-.58v-8.02l-1.08.74-.31-.42,1.39-.97h.58v8.66Z"/>
    <path class="jn" d="M998.92,502.47c.17-.16.37-.35.58-.56.72-.68,1.3-1.25,1.73-1.7.44-.46.81-.93,1.12-1.43.31-.5.47-.96.47-1.38s-.08-.77-.24-1.09c-.16-.32-.38-.57-.67-.75-.28-.18-.61-.27-.97-.27-.4,0-.78.14-1.15.41-.36.28-.64.63-.82,1.06l-.54-.23c.22-.52.57-.94,1.03-1.27.46-.33.96-.49,1.48-.49.47,0,.89.11,1.26.34s.66.54.87.94c.21.4.32.85.32,1.36s-.16,1.01-.49,1.55c-.33.54-.72,1.05-1.18,1.54s-1.06,1.07-1.79,1.76c-.5.47-.89.84-1.16,1.12l-.41-.34c.2-.21.39-.39.56-.56ZM998.36,503.02h5.16v.5h-5.09l-.07-.5Z"/>
    <path class="jn" d="M836.79,623.83c.28.38.43.78.43,1.22,0,.49-.12.93-.35,1.31-.23.39-.55.69-.97.91-.41.22-.88.32-1.41.32s-1-.11-1.41-.32-.73-.52-.97-.91c-.23-.39-.35-.83-.35-1.31h.58c0,.39.09.74.28,1.05.18.31.44.55.77.72.33.17.7.26,1.1.26s.79-.08,1.12-.25.58-.39.76-.68c.18-.29.27-.62.27-1s-.09-.68-.27-.97c-.18-.28-.43-.51-.76-.67-.32-.16-.69-.24-1.1-.24h-.35v-.53h.34c.38,0,.73-.07,1.04-.22.31-.15.55-.35.72-.62.17-.26.26-.56.26-.9,0-.51-.18-.93-.55-1.26-.37-.33-.84-.49-1.42-.49-.38,0-.72.08-1.02.23-.3.16-.54.38-.7.66-.16.28-.25.61-.25.97h-.58c0-.46.11-.86.32-1.22.22-.36.52-.64.9-.85.38-.2.82-.31,1.32-.31s.94.1,1.32.31c.38.2.68.49.9.85.22.36.32.77.32,1.22,0,.37-.13.73-.38,1.09-.26.36-.59.63-1,.81.43.16.79.43,1.07.8Z"/>
  </g>
</svg>