<?xml version="1.0" encoding="UTF-8"?>
<svg xmlns="http://www.w3.org/2000/svg" viewBox="0 0 2000 1250">
  <defs>
    <style>
      .bx {
        fill-rule: evenodd;
      }

      .bx, .by, .bz, .ca, .cb, .cc, .cd {
        stroke: #000;
      }

      .bx, .by, .bz, .cb, .cc, .cd {
        stroke-miterlimit: 10;
      }

      .bx, .by, .ca, .cc {
        stroke-width: .5px;
      }

      .by, .bz, .cb, .cd {
        fill: none;
      }

      .bz {
        stroke-width: .15px;
      }

      .cb {
        stroke-width: .4px;
      }

      .cd {
        stroke-width: .3px;
      }
    </style>
  </defs>
  <g id="av" data-name="rf">
    <g id="aw" data-name="HATCH">
      <path class="bz" d="M693.36,766.44v-182.55M693.36,431.95v-71.43M701.38,766.44v-182.55M701.38,431.95v-71.43M709.39,766.44v-182.55M709.39,431.95v-71.43M717.41,766.44v-182.55M717.41,431.95v-71.43M725.43,766.44v-182.55M725.43,431.95v-71.43M733.45,766.44v-182.55M733.45,431.95v-71.43M741.46,766.44v-182.55M741.46,431.95v-71.43M749.48,766.44v-182.55M749.48,431.95v-71.43M757.5,766.44v-182.56M757.5,431.95v-71.43M765.52,766.44v-182.56M765.52,431.95v-71.43M773.53,766.44v-182.56M773.53,431.95v-71.43M781.55,766.44v-182.56M781.55,431.95v-71.43M789.57,766.44v-182.56M789.57,431.95v-71.43M797.59,766.44v-182.56M797.59,431.95v-71.43M805.6,766.44v-182.56M805.6,431.95v-71.43M813.62,766.44v-182.56M813.62,431.95v-71.43M821.64,766.44v-182.56M821.64,431.95v-71.43M829.66,766.44v-182.56M829.66,431.95v-71.43M837.67,766.44v-182.56M837.67,431.95v-71.43M845.69,766.44v-182.56M845.69,431.95v-71.43M853.71,766.44v-182.56M853.71,431.95v-71.43M861.73,766.44v-182.57M861.73,431.95v-71.43M869.74,766.44v-182.57M869.74,431.95v-71.43M877.76,766.44v-182.57M877.76,431.95v-71.43M885.78,766.44v-182.57M885.78,431.95v-71.43M893.8,766.44v-182.57M893.8,431.95v-71.43M901.81,766.44v-182.57M901.81,431.95v-71.43M909.83,766.44v-182.57M909.83,431.95v-71.43M917.85,766.44v-182.57M917.85,431.95v-71.43M925.87,766.44v-182.57M925.87,431.95v-71.43M933.89,766.44v-182.57M933.89,431.95v-71.43M941.9,766.44v-182.57M941.9,431.95v-71.43M949.92,766.44v-182.57M949.92,431.95v-71.43M957.94,766.44v-182.57M957.94,431.95v-71.43M965.96,766.44v-182.58M965.96,431.95v-71.43M973.97,766.44v-182.58M973.97,431.95v-71.43M981.99,766.44v-182.58M981.99,431.95v-71.43M990.01,766.44v-182.58M990.01,431.95v-71.43M998.03,766.44v-182.58M998.03,431.95v-71.43M1006.04,766.44v-182.58M1006.04,431.95v-71.43M1014.06,766.44v-182.58M1014.06,431.95v-71.43M1022.08,766.44v-182.58M1022.08,431.95v-71.43M1030.1,766.44v-182.58M1030.1,431.95v-71.43M1038.11,766.44v-182.58M1038.11,431.95v-71.43M1046.13,766.44v-182.58M1046.13,417.78v-57.26M1054.15,766.44v-182.58M1054.15,417.78v-57.26M1062.17,766.44v-182.58M1062.17,417.78v-57.26M1070.18,766.44v-182.58M1070.18,417.78v-57.26M1078.2,766.44v-182.59M1078.2,417.78v-57.26M1086.22,766.44v-182.59M1086.22,417.78v-57.26M1094.24,766.44v-182.59M1094.24,417.78v-57.26M1102.25,766.44v-182.59M1102.25,417.78v-57.26M1110.27,766.44v-182.59M1110.27,417.78v-57.26M1118.29,766.44v-182.59M1118.29,417.78v-57.26M1126.31,766.44v-182.59M1126.31,417.78v-57.26M1134.32,766.44v-182.59M1134.32,417.78v-57.26M1142.34,766.44v-182.59M1142.34,417.78v-57.26M1150.36,766.44v-182.59M1150.36,417.78v-57.26M1158.38,766.44v-182.59M1158.38,417.78v-57.26M1166.4,766.44v-182.59M1166.4,417.78v-57.26M1174.41,766.44v-182.59M1174.41,417.78v-57.26M1182.43,766.44v-182.6M1182.43,417.78v-57.26M1190.45,766.44v-182.6M1190.45,417.78v-57.26M1198.47,765.32v-181.48M1198.47,417.78v-57.26M1206.48,758.29v-174.45M1206.48,417.78v-57.26M1214.5,751.26v-167.42M1214.5,417.78v-57.26M1222.52,744.23v-160.39M1222.52,417.78v-57.26M1230.54,737.19v-153.35M1230.54,417.78v-57.26M1238.55,730.16v-146.32M1238.55,417.78v-57.26M1246.57,723.13v-139.29M1246.57,417.78v-57.26M1254.59,716.1v-132.26M1254.59,417.78v-57.26M1262.61,709.07v-125.23M1262.61,417.78v-57.26M1270.62,702.03v-118.2M1270.62,417.78v-57.26M1278.64,695v-111.17M1278.64,417.78v-57.26M1286.66,687.97v-104.14M1286.66,417.78v-57.26M1294.68,680.94v-97.11M1302.69,673.91v-90.07"/>
    </g>
    <g id="ax" data-name="HATCH">
      <path class="bz" d="M687.34,583.89v-151.94M693.36,583.89v-151.94M699.37,583.89v-151.94M705.38,583.89v-151.94M711.4,583.89v-151.93M717.41,583.89v-151.93M723.42,583.89v-151.93M729.44,583.89v-151.93M735.45,583.89v-151.93M741.46,583.89v-151.93M747.48,583.88v-151.93M753.49,583.88v-151.93M759.5,583.88v-151.93M765.52,583.88v-151.93M771.53,583.88v-151.93M777.54,583.88v-151.93"/>
    </g>
    <g id="ay" data-name="HATCH">
      <path class="bz" d="M780.84,448.26h494.93M780.84,484.26h494.93M780.84,520.26h494.93M780.84,556.26h494.93M800.72,583.88v-137.75M836.72,583.88v-137.75M872.72,583.87v-137.75M908.72,583.87v-137.74M944.72,583.87v-137.74M980.72,583.86v-137.74M1016.72,583.86v-137.73M1052.72,583.86v-137.73M1088.72,583.85v-151.9M1124.72,583.85v-151.9M1160.72,583.85v-151.89M1196.72,583.84v-151.89M1232.72,583.84v-151.89M1268.72,583.84v-151.88"/>
    </g>
    <g id="az" data-name="LWPOLYLINE">
      <polygon class="cd" points="1287.1 583.83 1287.1 419.48 1045.31 419.48 1045.31 421.75 1284.84 421.75 1284.84 583.83 1287.1 583.83"/>
    </g>
    <g id="ba" data-name="LWPOLYLINE">
      <polyline class="cd" points="1303 583.89 1303 360.52 685.87 360.52 685.87 431.95"/>
    </g>
    <g id="bb" data-name="LINE">
      <line class="cd" x1="1288.8" y1="417.78" x2="1288.8" y2="360.52"/>
    </g>
    <g id="bc" data-name="LWPOLYLINE">
      <polyline class="cb" points="780.84 431.95 1058.35 431.95 1058.35 446.13 780.84 446.13"/>
    </g>
    <g id="bd" data-name="LWPOLYLINE">
      <polyline class="cb" points="1275.76 583.89 1275.76 431.95 1058.35 431.95"/>
    </g>
    <g id="be" data-name="LWPOLYLINE">
      <polyline class="cb" points="1288.8 583.89 1288.8 417.78 1044.17 417.78 1044.17 431.95"/>
    </g>
    <g id="bf" data-name="LWPOLYLINE">
      <polyline class="cb" points="780.84 583.89 780.84 431.95 685.87 431.95 685.87 583.89"/>
    </g>
    <g id="bg" data-name="LWPOLYLINE">
      <polygon class="by" points="1197.19 766.44 1303 673.64 1303 583.83 685.87 583.89 685.87 766.44 1197.19 766.44"/>
    </g>
  </g>
  <g id="bk" data-name="SCALE">
    <g>
      <g id="bl" data-name="CIRCLE">
        <circle class="by" cx="214.88" cy="1092.93" r="14.88"/>
      </g>
      <g id="bm" data-name="TEXT">
        <path class="ca" d="M224.5,1077.4l-.86-.35-1.27-8.05-2.62,6.47-.84-.34,3.28-8.1.87.35,1.26,8.02,2.61-6.45.84.34-3.28,8.1Z"/>
      </g>
      <g id="bn" data-name="HATCH">
        <path class="bx" d="M220.46,1079.13c-.23-.09-.46-.18-.7-.26l-5.57,13.78.69.28,5.58-13.8Z"/>
      </g>
      <g id="bo" data-name="HATCH">
        <path class="bx" d="M221.15,1079.43c-.23-.1-.45-.2-.69-.3l-5.58,13.8.69.28,5.57-13.78Z"/>
      </g>
      <g id="bp" data-name="LINE">
        <line class="cc" x1="219.76" y1="1078.87" x2="214.19" y2="1092.64"/>
      </g>
      <g id="bq" data-name="LINE">
        <line class="cc" x1="221.15" y1="1079.43" x2="215.57" y2="1093.21"/>
      </g>
      <g id="br" data-name="LINE">
        <line class="cc" x1="214.88" y1="1092.93" x2="220.46" y2="1079.13"/>
      </g>
      <g id="bs" data-name="MTEXT">
        <path class="ca" d="M281.36,1108.4c-.63-.5-1.13-1.2-1.49-2.1-.36-.9-.54-1.92-.54-3.06s.18-2.14.54-3.04c.36-.9.85-1.59,1.49-2.1.63-.5,1.36-.75,2.17-.75s1.53.25,2.17.75c.63.5,1.13,1.2,1.49,2.1.36.9.54,1.91.54,3.04s-.18,2.16-.54,3.05c-.36.89-.85,1.59-1.49,2.1s-1.36.76-2.17.76-1.53-.25-2.17-.75ZM285.01,1107.36c.44-.41.78-.96,1.02-1.67.24-.71.36-1.52.36-2.44s-.12-1.73-.36-2.45c-.24-.71-.58-1.27-1.02-1.67-.44-.4-.93-.6-1.49-.6s-1.05.2-1.48.6c-.43.4-.77.96-1.02,1.67-.25.71-.37,1.53-.37,2.43s.12,1.75.37,2.46c.25.71.58,1.27,1.02,1.67s.93.61,1.48.61,1.05-.2,1.49-.61Z"/>
      </g>
      <g id="bt" data-name="MTEXT">
        <path class="ca" d="M393.68,1107.22c.19-.17.42-.38.71-.64.93-.85,1.67-1.57,2.24-2.15.57-.58,1.05-1.17,1.44-1.78s.59-1.16.59-1.67c0-.48-.09-.9-.28-1.27s-.45-.66-.78-.86-.71-.31-1.15-.31c-.47,0-.93.16-1.37.48-.44.32-.78.73-1,1.23l-1.2-.51c.3-.7.78-1.28,1.46-1.73.67-.45,1.38-.67,2.11-.67.69,0,1.31.16,1.85.46.54.31.96.74,1.26,1.29.3.55.45,1.18.45,1.9s-.22,1.41-.67,2.14c-.45.73-.98,1.41-1.6,2.04-.62.63-1.42,1.39-2.42,2.27-.49.45-.95.88-1.39,1.3l-.94-.85c.28-.27.51-.49.7-.66ZM392.98,1107.88h7.22v1.18h-7.04l-.18-1.18Z"/>
      </g>
      <g id="bu" data-name="MTEXT">
        <path class="ca" d="M340.34,1109.04h-1.34v-10.08l-1.86,1.2-.67-1.07,2.54-1.62h1.33v11.57Z"/>
      </g>
      <g id="bv" data-name="MTEXT">
        <g>
          <path class="ca" d="M558.55,1101.81c.55-.25,1.08-.38,1.59-.38.77,0,1.45.16,2.06.49.6.33,1.07.78,1.41,1.35s.5,1.24.5,1.98-.17,1.43-.5,2.02-.8,1.05-1.4,1.38-1.29.5-2.07.5c-.6,0-1.16-.12-1.69-.38-.53-.25-.98-.6-1.34-1.05-.37-.45-.62-.95-.74-1.52l1.3-.3c.13.59.42,1.06.89,1.43.46.37.99.55,1.59.55.5,0,.95-.11,1.35-.34.4-.22.71-.54.94-.94.23-.41.34-.86.34-1.36s-.11-.95-.34-1.34c-.23-.39-.54-.69-.94-.91-.4-.22-.85-.33-1.35-.33-.33,0-.68.09-1.04.26-.36.18-.66.4-.9.68l-.99-.86c.34-.38.79-.7,1.34-.95ZM556.87,1103.43l.37-6.03h5.92v1.18h-4.64l-.32,5.04-1.33-.19Z"/>
          <path class="ca" d="M575.28,1103.26c-.29-.34-.67-.5-1.13-.5-.35,0-.66.07-.94.22-.27.14-.49.34-.65.6-.16.26-.24.55-.24.88v4.58h-1.33v-4.45c0-.54-.14-.98-.43-1.32s-.66-.5-1.12-.5c-.34,0-.65.09-.94.26s-.5.42-.66.72c-.15.3-.23.63-.23.98v4.3h-1.33v-7.46h1.33v1.31l-.14-.05c.22-.37.52-.68.9-.91.37-.23.75-.35,1.14-.35.46,0,.9.13,1.32.38.42.26.74.59.95.99.25-.41.59-.74,1.04-.99.45-.26.9-.38,1.36-.38.55,0,1.05.13,1.49.38.44.25.78.59,1.02,1.02.25.43.37.93.37,1.5v4.56h-1.34v-4.45c0-.54-.15-.98-.44-1.32Z"/>
        </g>
      </g>
      <g id="bw" data-name="LWPOLYLINE">
        <polyline class="by" points="566.32 1093.39 566.32 1076.38 396.24 1076.38 396.24 1093.39 339.55 1093.39 339.55 1076.38 282.85 1076.38 282.85 1093.39"/>
      </g>
    </g>
  </g>
</svg>