<?xml version="1.0" encoding="UTF-8"?>
<svg xmlns="http://www.w3.org/2000/svg" viewBox="0 0 2000 1250">
  <defs>
    <style>
      .mm {
        fill-rule: evenodd;
      }

      .mm, .mn, .mo, .mp, .mq, .mr, .ms, .mt, .mu, .mv, .mw, .mx, .my, .mz, .na, .nb, .nc, .nd, .ne, .nf, .ng, .nh, .ni, .nj, .nk, .nl, .nm, .nn, .no, .np, .nq, .nr, .ns, .nt, .nu, .nv, .nw, .nx, .ny, .nz, .oa, .ob {
        stroke: #000;
      }

      .mm, .mn, .mo, .mp, .mq, .ms, .mt, .mu, .mv, .mw, .my, .mz, .na, .nb, .nc, .nd, .ne, .nf, .ng, .nh, .ni, .nj, .nk, .nl, .nm, .nn, .no, .np, .nq, .nr, .ns, .nt, .nu, .nv, .nw, .nx, .ny, .nz, .oa, .ob {
        stroke-miterlimit: 10;
      }

      .mm, .mn, .mv, .mw, .mx, .ne, .nf, .ni, .nj, .no, .np, .nu, .nv, .nx, .ny {
        stroke-width: .5px;
      }

      .mn, .mo, .mp, .mq, .ms, .mt, .mu, .mv, .mw, .my, .mz, .na, .nb, .nc, .nd, .ne, .nf, .ng, .nh, .nj, .nk, .nl, .nm, .nn, .no, .np, .nq, .nr, .ns, .nt, .nu, .nv, .nw, .nx, .ny, .nz, .oa, .ob {
        fill: none;
      }

      .mo {
        stroke-dasharray: 4.52 2.26;
      }

      .mo, .ms, .my, .na, .nd, .nh, .ns {
        stroke-width: .75px;
      }

      .mp {
        stroke-dasharray: 3.07 1.54;
      }

      .mp, .mu, .mz, .nb, .nc, .nk, .nl, .nm, .nq, .nt, .nw, .nz, .oa, .ob {
        stroke-width: .4px;
      }

      .mr {
        stroke-width: .34px;
      }

      .mt {
        stroke-width: .85px;
      }

      .mu {
        stroke-dasharray: 1.03;
      }

      .mv {
        stroke-dasharray: 2.02 1.01;
      }

      .mw {
        stroke-dasharray: 2.02 1.01;
      }

      .my {
        stroke-dasharray: 3.93 1.97;
      }

      .na {
        stroke-dasharray: 4.08 2.04;
      }

      .nb {
        stroke-dasharray: 1.97 .99;
      }

      .nc {
        stroke-dasharray: 1.88 .94;
      }

      .nd {
        stroke-dasharray: 4.52 2.26;
      }

      .ne {
        stroke-dasharray: 2.04 1.02;
      }

      .nf {
        stroke-dasharray: 2.01 1;
      }

      .ng {
        stroke-width: .25px;
      }

      .nh {
        stroke-dasharray: 3.89 1.95;
      }

      .nj {
        stroke-dasharray: 2.04 1.02;
      }

      .nk {
        stroke-dasharray: 1.97 .99;
      }

      .nl {
        stroke-dasharray: 1.99 .99;
      }

      .nm {
        stroke-dasharray: 1.98 .99;
      }

      .nn {
        stroke-width: .6px;
      }

      .no {
        stroke-dasharray: 1.98 .99;
      }

      .np {
        stroke-dasharray: 1.98 .99;
      }

      .nq {
        stroke-dasharray: 2.03 1.01;
      }

      .nr {
        stroke-width: .9px;
      }

      .ns {
        stroke-dasharray: 4.08 2.04;
      }

      .nt {
        stroke-dasharray: 3.04 1.52;
      }

      .nu {
        stroke-dasharray: 1.98 .99;
      }

      .nv {
        stroke-dasharray: 1.98 .99;
      }

      .nw {
        stroke-dasharray: 2.02 1.01;
      }

      .nx {
        stroke-dasharray: 2.07 1.03;
      }

      .ny {
        stroke-dasharray: 1.99 1;
      }

      .nz {
        stroke-dasharray: 3.08 1.54;
      }

      .oa {
        stroke-dasharray: 3.04 1.52;
      }

      .ob {
        stroke-dasharray: 3.03 1.51;
      }
    </style>
  </defs>
  <g id="aq" data-name="f B1">
    <g id="ar" data-name="LWPOLYLINE">
      <polyline class="ng" points="1025.75 430.82 1070.54 430.82 1070.54 430.25 1025.75 430.25"/>
    </g>
    <g id="as" data-name="LINE">
      <line class="ng" x1="1018.95" y1="417.21" x2="1018.95" y2="375.83"/>
    </g>
    <g id="at" data-name="LINE">
      <line class="ng" x1="876.08" y1="444.99" x2="937.87" y2="444.99"/>
    </g>
    <g id="au" data-name="LINE">
      <line class="ng" x1="944.11" y1="496.58" x2="944.11" y2="458.03"/>
    </g>
    <g id="av" data-name="LWPOLYLINE">
      <polyline class="ng" points="1017.95 434.79 1017.95 443.98 953.75 443.98"/>
    </g>
    <g id="aw" data-name="LWPOLYLINE">
      <polyline class="ng" points="952.9 445.56 1019.51 445.56 1019.51 433.94"/>
    </g>
    <g id="ax" data-name="CIRCLE">
      <circle class="nm" cx="1071.97" cy="560.15" r="11.33"/>
    </g>
    <g id="ay" data-name="CIRCLE">
      <circle class="nm" cx="1102.75" cy="588.86" r="11.33"/>
    </g>
    <g id="az" data-name="CIRCLE">
      <circle class="nm" cx="1131.46" cy="558.07" r="11.33"/>
    </g>
    <g id="ba" data-name="CIRCLE">
      <circle class="nm" cx="1100.68" cy="529.36" r="11.33"/>
    </g>
    <g id="bb" data-name="LINE">
      <g>
        <line class="mz" x1="826" y1="549.88" x2="826" y2="550.88"/>
        <line class="nw" x1="826" y1="551.88" x2="826" y2="684.43"/>
        <line class="mz" x1="826" y1="684.94" x2="826" y2="685.94"/>
      </g>
    </g>
    <g id="bc" data-name="LINE">
      <g>
        <line class="mz" x1="860.01" y1="617.91" x2="859.01" y2="617.91"/>
        <line class="nk" x1="858.03" y1="617.91" x2="793.47" y2="617.91"/>
        <line class="mz" x1="792.98" y1="617.91" x2="791.98" y2="617.91"/>
      </g>
    </g>
    <g id="bd" data-name="LINE">
      <g>
        <line class="mz" x1="860.01" y1="549.88" x2="859.01" y2="549.88"/>
        <line class="nk" x1="858.03" y1="549.88" x2="793.47" y2="549.88"/>
        <line class="mz" x1="792.98" y1="549.88" x2="791.98" y2="549.88"/>
      </g>
    </g>
    <g id="be" data-name="ARC">
      <g>
        <path class="mz" d="M1136.23,569.48c.14.32.38.57.67.71"/>
        <path class="mz" d="M1137.21,570.31c.27.06.56.04.83-.08.05-.02.09-.04.14-.07"/>
      </g>
    </g>
    <g id="bf" data-name="LINE">
      <line class="mu" x1="1135.83" y1="568.53" x2="1136.23" y2="569.48"/>
    </g>
    <g id="bg" data-name="ARC">
      <g>
        <path class="mz" d="M1138.19,570.16c.29-.16.58-.34.86-.52"/>
        <path class="nq" d="M1139.87,569.06c5.37-4.1,7.07-11.63,3.68-17.71-1.17-2.1-2.86-3.85-4.9-5.09"/>
        <path class="mz" d="M1138.22,546c-.29-.16-.59-.31-.89-.46"/>
      </g>
    </g>
    <g id="bh" data-name="ARC">
      <g>
        <path class="mz" d="M1137.33,545.54c-.32-.15-.67-.17-.98-.08"/>
        <path class="mz" d="M1136.04,545.6c-.24.14-.44.35-.57.62-.02.05-.04.1-.06.14"/>
      </g>
    </g>
    <g id="bi" data-name="LINE">
      <line class="mu" x1="1135.09" y1="547.34" x2="1135.42" y2="546.36"/>
    </g>
    <g id="bj" data-name="ARC">
      <g>
        <path class="mz" d="M1136.23,569.48c.14.32.38.57.67.71"/>
        <path class="mz" d="M1137.21,570.31c.27.06.56.04.83-.08.05-.02.09-.04.14-.07"/>
      </g>
    </g>
    <g id="bk" data-name="LINE">
      <line class="mu" x1="1135.83" y1="568.53" x2="1136.23" y2="569.48"/>
    </g>
    <g id="bl" data-name="ARC">
      <g>
        <path class="mz" d="M1137.33,545.54c-.32-.15-.67-.17-.98-.08"/>
        <path class="mz" d="M1136.04,545.6c-.24.14-.44.35-.57.62-.02.05-.04.1-.06.14"/>
      </g>
    </g>
    <g id="bm" data-name="LINE">
      <line class="mu" x1="1135.09" y1="547.34" x2="1135.42" y2="546.36"/>
    </g>
    <g id="bn" data-name="LWPOLYLINE">
      <g>
        <polyline class="mz" points="1114.06 546.92 1114.02 545.92 1113.02 545.95"/>
        <line class="nc" x1="1112.08" y1="545.98" x2="1089.99" y2="546.75"/>
        <polyline class="mz" points="1089.52 546.77 1088.52 546.81 1088.56 547.81"/>
        <line class="nc" x1="1088.59" y1="548.75" x2="1089.36" y2="570.83"/>
        <polyline class="mz" points="1089.38 571.3 1089.41 572.3 1090.41 572.27"/>
        <line class="nc" x1="1091.35" y1="572.23" x2="1113.44" y2="571.46"/>
        <polyline class="mz" points="1113.91 571.45 1114.91 571.41 1114.88 570.41"/>
        <line class="nc" x1="1114.84" y1="569.47" x2="1114.07" y2="547.39"/>
      </g>
    </g>
    <g id="bo" data-name="ARC">
      <g>
        <path class="mz" d="M1066.11,572.68c.32.15.67.17.98.08"/>
        <path class="mz" d="M1067.39,572.62c.24-.14.44-.35.57-.62.02-.05.04-.1.06-.14"/>
      </g>
    </g>
    <g id="bp" data-name="LINE">
      <line class="mu" x1="1068.35" y1="570.88" x2="1068.01" y2="571.86"/>
    </g>
    <g id="bq" data-name="ARC">
      <g>
        <path class="mz" d="M1065.25,548.06c-.29.16-.58.34-.86.52"/>
        <path class="nq" d="M1063.56,549.16c-5.37,4.1-7.07,11.63-3.68,17.71,1.17,2.1,2.86,3.85,4.9,5.09"/>
        <path class="mz" d="M1065.22,572.22c.29.16.59.31.89.46"/>
      </g>
    </g>
    <g id="br" data-name="ARC">
      <g>
        <path class="mz" d="M1067.21,548.74c-.14-.32-.38-.57-.67-.71"/>
        <path class="mz" d="M1066.22,547.91c-.27-.06-.56-.04-.83.08-.05.02-.09.04-.14.07"/>
      </g>
    </g>
    <g id="bs" data-name="LINE">
      <line class="mu" x1="1067.61" y1="549.69" x2="1067.21" y2="548.74"/>
    </g>
    <g id="bt" data-name="ARC">
      <g>
        <path class="mz" d="M1066.11,572.68c.32.15.67.17.98.08"/>
        <path class="mz" d="M1067.39,572.62c.24-.14.44-.35.57-.62.02-.05.04-.1.06-.14"/>
      </g>
    </g>
    <g id="bu" data-name="LINE">
      <line class="mu" x1="1068.35" y1="570.88" x2="1068.01" y2="571.86"/>
    </g>
    <g id="bv" data-name="ARC">
      <g>
        <path class="mz" d="M1067.21,548.74c-.14-.32-.38-.57-.67-.71"/>
        <path class="mz" d="M1066.22,547.91c-.27-.06-.56-.04-.83.08-.05.02-.09.04-.14.07"/>
      </g>
    </g>
    <g id="bw" data-name="LINE">
      <line class="mu" x1="1067.61" y1="549.69" x2="1067.21" y2="548.74"/>
    </g>
    <g id="bx" data-name="ARC">
      <g>
        <path class="mz" d="M1112.09,524.6c.32-.14.57-.38.71-.67"/>
        <path class="mz" d="M1112.91,523.61c.06-.27.04-.56-.08-.83-.02-.05-.04-.09-.07-.14"/>
      </g>
    </g>
    <g id="by" data-name="LINE">
      <line class="mu" x1="1111.14" y1="525" x2="1112.09" y2="524.6"/>
    </g>
    <g id="bz" data-name="ARC">
      <g>
        <path class="mz" d="M1112.77,522.64c-.16-.29-.34-.58-.52-.86"/>
        <path class="nq" d="M1111.67,520.96c-4.1-5.37-11.63-7.07-17.71-3.68-2.1,1.17-3.85,2.86-5.09,4.9"/>
        <path class="mz" d="M1088.61,522.61c-.16.29-.31.59-.46.89"/>
      </g>
    </g>
    <g id="ca" data-name="ARC">
      <g>
        <path class="mz" d="M1088.15,523.5c-.15.32-.17.67-.08.98"/>
        <path class="mz" d="M1088.2,524.78c.14.24.35.44.62.57.05.02.1.04.14.06"/>
      </g>
    </g>
    <g id="cb" data-name="LINE">
      <line class="mu" x1="1089.95" y1="525.74" x2="1088.97" y2="525.41"/>
    </g>
    <g id="cc" data-name="ARC">
      <g>
        <path class="mz" d="M1112.09,524.6c.32-.14.57-.38.71-.67"/>
        <path class="mz" d="M1112.91,523.61c.06-.27.04-.56-.08-.83-.02-.05-.04-.09-.07-.14"/>
      </g>
    </g>
    <g id="cd" data-name="LINE">
      <line class="mu" x1="1111.14" y1="525" x2="1112.09" y2="524.6"/>
    </g>
    <g id="ce" data-name="ARC">
      <g>
        <path class="mz" d="M1088.15,523.5c-.15.32-.17.67-.08.98"/>
        <path class="mz" d="M1088.2,524.78c.14.24.35.44.62.57.05.02.1.04.14.06"/>
      </g>
    </g>
    <g id="cf" data-name="LINE">
      <line class="mu" x1="1089.95" y1="525.74" x2="1088.97" y2="525.41"/>
    </g>
    <g id="cg" data-name="ARC">
      <g>
        <path class="mz" d="M1115.28,594.72c.15-.32.17-.67.08-.98"/>
        <path class="mz" d="M1115.23,593.44c-.14-.24-.35-.44-.62-.57-.05-.02-.1-.04-.14-.06"/>
      </g>
    </g>
    <g id="ch" data-name="LINE">
      <line class="mu" x1="1113.49" y1="592.48" x2="1114.47" y2="592.81"/>
    </g>
    <g id="ci" data-name="ARC">
      <g>
        <path class="mz" d="M1090.66,595.58c.16.29.34.58.52.86"/>
        <path class="nq" d="M1091.77,597.26c4.1,5.37,11.63,7.07,17.71,3.68,2.1-1.17,3.85-2.86,5.09-4.9"/>
        <path class="mz" d="M1114.83,595.61c.16-.29.31-.59.46-.89"/>
      </g>
    </g>
    <g id="cj" data-name="ARC">
      <g>
        <path class="mz" d="M1091.34,593.62c-.32.14-.57.38-.71.67"/>
        <path class="mz" d="M1090.52,594.6c-.06.27-.04.56.08.83.02.05.04.09.07.14"/>
      </g>
    </g>
    <g id="ck" data-name="LINE">
      <line class="mu" x1="1092.3" y1="593.22" x2="1091.34" y2="593.62"/>
    </g>
    <g id="cl" data-name="ARC">
      <g>
        <path class="mz" d="M1115.28,594.72c.15-.32.17-.67.08-.98"/>
        <path class="mz" d="M1115.23,593.44c-.14-.24-.35-.44-.62-.57-.05-.02-.1-.04-.14-.06"/>
      </g>
    </g>
    <g id="cm" data-name="LINE">
      <line class="mu" x1="1113.49" y1="592.48" x2="1114.47" y2="592.81"/>
    </g>
    <g id="cn" data-name="ARC">
      <g>
        <path class="mz" d="M1091.34,593.62c-.32.14-.57.38-.71.67"/>
        <path class="mz" d="M1090.52,594.6c-.06.27-.04.56.08.83.02.05.04.09.07.14"/>
      </g>
    </g>
    <g id="co" data-name="LINE">
      <line class="mu" x1="1092.3" y1="593.22" x2="1091.34" y2="593.62"/>
    </g>
    <g id="cp" data-name="CIRCLE">
      <circle class="nm" cx="1167.68" cy="631.53" r="11.33"/>
    </g>
    <g id="cq" data-name="CIRCLE">
      <circle class="nm" cx="1205.96" cy="649.04" r="11.33"/>
    </g>
    <g id="cr" data-name="CIRCLE">
      <path class="nm" d="M1234.8,610.77c0-6.26-5.07-11.33-11.33-11.33s-11.33,5.07-11.33,11.33,5.07,11.33,11.33,11.33,11.33-5.07,11.33-11.33Z"/>
    </g>
    <g id="cs" data-name="CIRCLE">
      <path class="nm" d="M1196.52,593.26c0-6.26-5.07-11.33-11.33-11.33s-11.33,5.07-11.33,11.33,5.07,11.33,11.33,11.33,11.33-5.07,11.33-11.33Z"/>
    </g>
    <g id="ct" data-name="ARC">
      <g>
        <path class="mz" d="M1231.59,620.09c.23.27.54.42.86.46"/>
        <path class="mz" d="M1232.79,620.56c.27-.03.54-.14.77-.33.04-.03.08-.07.11-.11"/>
      </g>
    </g>
    <g id="cu" data-name="LINE">
      <line class="mu" x1="1230.91" y1="619.31" x2="1231.59" y2="620.09"/>
    </g>
    <g id="cv" data-name="ARC">
      <g>
        <path class="mz" d="M1233.67,620.11c.23-.25.44-.5.65-.76"/>
        <path class="nq" d="M1234.92,618.54c3.8-5.59,3.03-13.27-2.1-17.97-1.77-1.62-3.93-2.75-6.25-3.29"/>
        <path class="mz" d="M1226.06,597.18c-.33-.06-.66-.11-.99-.15"/>
      </g>
    </g>
    <g id="cw" data-name="ARC">
      <g>
        <path class="mz" d="M1225.07,597.03c-.35-.04-.68.05-.95.24"/>
        <path class="mz" d="M1223.87,597.48c-.18.21-.31.47-.34.76,0,.05,0,.1,0,.16"/>
      </g>
    </g>
    <g id="cx" data-name="LINE">
      <line class="mu" x1="1223.52" y1="599.44" x2="1223.52" y2="598.4"/>
    </g>
    <g id="cy" data-name="ARC">
      <g>
        <path class="mz" d="M1231.59,620.09c.23.27.54.42.86.46"/>
        <path class="mz" d="M1232.79,620.56c.27-.03.54-.14.77-.33.04-.03.08-.07.11-.11"/>
      </g>
    </g>
    <g id="cz" data-name="LINE">
      <line class="mu" x1="1230.91" y1="619.31" x2="1231.59" y2="620.09"/>
    </g>
    <g id="da" data-name="ARC">
      <g>
        <path class="mz" d="M1225.07,597.03c-.35-.04-.68.05-.95.24"/>
        <path class="mz" d="M1223.87,597.48c-.18.21-.31.47-.34.76,0,.05,0,.1,0,.16"/>
      </g>
    </g>
    <g id="db" data-name="LINE">
      <line class="mu" x1="1223.52" y1="599.44" x2="1223.52" y2="598.4"/>
    </g>
    <g id="dc" data-name="LWPOLYLINE">
      <g>
        <polyline class="mz" points="1203.43 605.68 1203.08 604.75 1202.14 605.09"/>
        <line class="nc" x1="1201.26" y1="605.42" x2="1180.55" y2="613.13"/>
        <polyline class="mz" points="1180.11 613.3 1179.17 613.65 1179.52 614.58"/>
        <line class="nc" x1="1179.85" y1="615.46" x2="1187.56" y2="636.18"/>
        <polyline class="mz" points="1187.72 636.62 1188.07 637.55 1189.01 637.21"/>
        <line class="nc" x1="1189.89" y1="636.88" x2="1210.6" y2="629.17"/>
        <polyline class="mz" points="1211.04 629 1211.98 628.65 1211.63 627.72"/>
        <line class="nc" x1="1211.3" y1="626.84" x2="1203.59" y2="606.12"/>
      </g>
    </g>
    <g id="dd" data-name="ARC">
      <g>
        <path class="mz" d="M1166.07,645.27c.35.04.68-.05.95-.24"/>
        <path class="mz" d="M1167.27,644.82c.18-.21.31-.47.34-.76,0-.05,0-.1,0-.16"/>
      </g>
    </g>
    <g id="de" data-name="LINE">
      <line class="mu" x1="1167.63" y1="642.86" x2="1167.63" y2="643.9"/>
    </g>
    <g id="df" data-name="ARC">
      <g>
        <path class="mz" d="M1157.48,622.19c-.23.25-.44.5-.65.76"/>
        <path class="nq" d="M1156.23,623.76c-3.8,5.59-3.03,13.27,2.1,17.97,1.77,1.62,3.93,2.75,6.25,3.29"/>
        <path class="mz" d="M1165.08,645.12c.33.06.66.11.99.15"/>
      </g>
    </g>
    <g id="dg" data-name="ARC">
      <g>
        <path class="mz" d="M1159.55,622.21c-.23-.27-.54-.42-.86-.46"/>
        <path class="mz" d="M1158.36,621.74c-.27.03-.54.14-.77.33-.04.03-.08.07-.11.11"/>
      </g>
    </g>
    <g id="dh" data-name="LINE">
      <line class="mu" x1="1160.23" y1="622.99" x2="1159.55" y2="622.21"/>
    </g>
    <g id="di" data-name="ARC">
      <g>
        <path class="mz" d="M1166.07,645.27c.35.04.68-.05.95-.24"/>
        <path class="mz" d="M1167.27,644.82c.18-.21.31-.47.34-.76,0-.05,0-.1,0-.16"/>
      </g>
    </g>
    <g id="dj" data-name="LINE">
      <line class="mu" x1="1167.63" y1="642.86" x2="1167.63" y2="643.9"/>
    </g>
    <g id="dk" data-name="ARC">
      <g>
        <path class="mz" d="M1159.55,622.21c-.23-.27-.54-.42-.86-.46"/>
        <path class="mz" d="M1158.36,621.74c-.27.03-.54.14-.77.33-.04.03-.08.07-.11.11"/>
      </g>
    </g>
    <g id="dl" data-name="LINE">
      <line class="mu" x1="1160.23" y1="622.99" x2="1159.55" y2="622.21"/>
    </g>
    <g id="dm" data-name="ARC">
      <g>
        <path class="mz" d="M1194.51,585.13c.27-.23.42-.54.46-.86"/>
        <path class="mz" d="M1194.98,583.94c-.03-.27-.14-.54-.33-.77-.03-.04-.07-.08-.11-.11"/>
      </g>
    </g>
    <g id="dn" data-name="LINE">
      <line class="mu" x1="1193.73" y1="585.81" x2="1194.51" y2="585.13"/>
    </g>
    <g id="do" data-name="ARC">
      <g>
        <path class="mz" d="M1194.54,583.06c-.25-.23-.5-.44-.76-.65"/>
        <path class="nq" d="M1192.96,581.81c-5.59-3.8-13.27-3.03-17.97,2.1-1.62,1.77-2.75,3.93-3.29,6.25"/>
        <path class="mz" d="M1171.6,590.66c-.06.33-.11.66-.15.99"/>
      </g>
    </g>
    <g id="dp" data-name="ARC">
      <g>
        <path class="mz" d="M1171.45,591.65c-.04.35.05.68.24.95"/>
        <path class="mz" d="M1171.91,592.85c.21.18.47.31.76.34.05,0,.1,0,.16,0"/>
      </g>
    </g>
    <g id="dq" data-name="LINE">
      <line class="mu" x1="1173.86" y1="593.21" x2="1172.82" y2="593.2"/>
    </g>
    <g id="dr" data-name="ARC">
      <g>
        <path class="mz" d="M1194.51,585.13c.27-.23.42-.54.46-.86"/>
        <path class="mz" d="M1194.98,583.94c-.03-.27-.14-.54-.33-.77-.03-.04-.07-.08-.11-.11"/>
      </g>
    </g>
    <g id="ds" data-name="LINE">
      <line class="mu" x1="1193.73" y1="585.81" x2="1194.51" y2="585.13"/>
    </g>
    <g id="dt" data-name="ARC">
      <g>
        <path class="mz" d="M1171.45,591.65c-.04.35.05.68.24.95"/>
        <path class="mz" d="M1171.91,592.85c.21.18.47.31.76.34.05,0,.1,0,.16,0"/>
      </g>
    </g>
    <g id="du" data-name="LINE">
      <line class="mu" x1="1173.86" y1="593.21" x2="1172.82" y2="593.2"/>
    </g>
    <g id="dv" data-name="ARC">
      <g>
        <path class="mz" d="M1219.7,650.65c.04-.35-.05-.68-.24-.95"/>
        <path class="mz" d="M1219.24,649.45c-.21-.18-.47-.31-.76-.34-.05,0-.1,0-.16,0"/>
      </g>
    </g>
    <g id="dw" data-name="LINE">
      <line class="mu" x1="1217.29" y1="649.09" x2="1218.32" y2="649.1"/>
    </g>
    <g id="dx" data-name="ARC">
      <g>
        <path class="mz" d="M1196.61,659.24c.25.23.5.44.76.65"/>
        <path class="nq" d="M1198.19,660.49c5.59,3.8,13.27,3.03,17.97-2.1,1.62-1.77,2.75-3.93,3.29-6.25"/>
        <path class="mz" d="M1219.54,651.64c.06-.33.11-.66.15-.99"/>
      </g>
    </g>
    <g id="dy" data-name="ARC">
      <g>
        <path class="mz" d="M1196.63,657.17c-.27.23-.42.54-.46.86"/>
        <path class="mz" d="M1196.16,658.36c.03.27.14.54.33.77.03.04.07.08.11.11"/>
      </g>
    </g>
    <g id="dz" data-name="LINE">
      <line class="mu" x1="1197.41" y1="656.49" x2="1196.63" y2="657.17"/>
    </g>
    <g id="ea" data-name="ARC">
      <g>
        <path class="mz" d="M1219.7,650.65c.04-.35-.05-.68-.24-.95"/>
        <path class="mz" d="M1219.24,649.45c-.21-.18-.47-.31-.76-.34-.05,0-.1,0-.16,0"/>
      </g>
    </g>
    <g id="eb" data-name="LINE">
      <line class="mu" x1="1217.29" y1="649.09" x2="1218.32" y2="649.1"/>
    </g>
    <g id="ec" data-name="ARC">
      <g>
        <path class="mz" d="M1196.63,657.17c-.27.23-.42.54-.46.86"/>
        <path class="mz" d="M1196.16,658.36c.03.27.14.54.33.77.03.04.07.08.11.11"/>
      </g>
    </g>
    <g id="ed" data-name="LINE">
      <line class="mu" x1="1197.41" y1="656.49" x2="1196.63" y2="657.17"/>
    </g>
    <g id="ee" data-name="LWPOLYLINE">
      <g>
        <polyline class="mz" points="813.24 513.16 813.24 514.16 814.24 514.16"/>
        <line class="nc" x1="815.18" y1="514.16" x2="837.28" y2="514.16"/>
        <polyline class="mz" points="837.75 514.16 838.75 514.16 838.75 513.16"/>
        <path class="nb" d="M838.75,512.17v-15.02c0-7.04-5.71-12.76-12.76-12.76s-12.76,5.71-12.76,12.76v15.51"/>
      </g>
    </g>
    <g id="ef" data-name="LWPOLYLINE">
      <g>
        <polyline class="mz" points="789.28 545.62 790.28 545.62 790.28 544.62"/>
        <line class="nc" x1="790.28" y1="543.68" x2="790.28" y2="521.58"/>
        <polyline class="mz" points="790.28 521.11 790.28 520.11 789.28 520.11"/>
        <path class="nb" d="M788.29,520.11h-15.02c-7.04,0-12.76,5.71-12.76,12.76s5.71,12.76,12.76,12.76h15.51"/>
      </g>
    </g>
    <g id="eg" data-name="LWPOLYLINE">
      <g>
        <polyline class="mz" points="862.71 520.11 861.71 520.11 861.71 521.11"/>
        <line class="nc" x1="861.71" y1="522.05" x2="861.71" y2="544.15"/>
        <polyline class="mz" points="861.71 544.62 861.71 545.62 862.71 545.62"/>
        <path class="nb" d="M863.7,545.62h15.02c7.04,0,12.76-5.71,12.76-12.76s-5.71-12.76-12.76-12.76h-15.51"/>
      </g>
    </g>
    <g id="eh" data-name="LWPOLYLINE">
      <g>
        <polyline class="mz" points="789.28 579.64 790.28 579.64 790.28 578.64"/>
        <line class="nc" x1="790.28" y1="577.7" x2="790.28" y2="555.6"/>
        <polyline class="mz" points="790.28 555.13 790.28 554.13 789.28 554.13"/>
        <path class="nb" d="M788.29,554.13h-15.02c-7.04,0-12.76,5.71-12.76,12.76s5.71,12.76,12.76,12.76h15.51"/>
      </g>
    </g>
    <g id="ei" data-name="LWPOLYLINE">
      <g>
        <polyline class="mz" points="862.71 554.13 861.71 554.13 861.71 555.13"/>
        <line class="nc" x1="861.71" y1="556.07" x2="861.71" y2="578.17"/>
        <polyline class="mz" points="861.71 578.64 861.71 579.64 862.71 579.64"/>
        <path class="nb" d="M863.7,579.64h15.02c7.04,0,12.76-5.71,12.76-12.76s-5.71-12.76-12.76-12.76h-15.51"/>
      </g>
    </g>
    <g id="ej" data-name="LWPOLYLINE">
      <g>
        <polyline class="mz" points="789.28 613.65 790.28 613.65 790.28 612.65"/>
        <line class="nc" x1="790.28" y1="611.71" x2="790.28" y2="589.61"/>
        <polyline class="mz" points="790.28 589.14 790.28 588.14 789.28 588.14"/>
        <path class="nb" d="M788.29,588.14h-15.02c-7.04,0-12.76,5.71-12.76,12.76s5.71,12.76,12.76,12.76h15.51"/>
      </g>
    </g>
    <g id="ek" data-name="LWPOLYLINE">
      <g>
        <polyline class="mz" points="862.71 588.14 861.71 588.14 861.71 589.14"/>
        <line class="nc" x1="861.71" y1="590.08" x2="861.71" y2="612.18"/>
        <polyline class="mz" points="861.71 612.65 861.71 613.65 862.71 613.65"/>
        <path class="nb" d="M863.7,613.65h15.02c7.04,0,12.76-5.71,12.76-12.76s-5.71-12.76-12.76-12.76h-15.51"/>
      </g>
    </g>
    <g id="el" data-name="LWPOLYLINE">
      <g>
        <polyline class="mz" points="789.28 647.67 790.28 647.67 790.28 646.67"/>
        <line class="nc" x1="790.28" y1="645.73" x2="790.28" y2="623.63"/>
        <polyline class="mz" points="790.28 623.16 790.28 622.16 789.28 622.16"/>
        <path class="nb" d="M788.29,622.16h-15.02c-7.04,0-12.76,5.71-12.76,12.76s5.71,12.76,12.76,12.76h15.51"/>
      </g>
    </g>
    <g id="em" data-name="LWPOLYLINE">
      <g>
        <polyline class="mz" points="862.71 622.16 861.71 622.16 861.71 623.16"/>
        <line class="nc" x1="861.71" y1="624.1" x2="861.71" y2="646.2"/>
        <polyline class="mz" points="861.71 646.67 861.71 647.67 862.71 647.67"/>
        <path class="nb" d="M863.7,647.67h15.02c7.04,0,12.76-5.71,12.76-12.76s-5.71-12.76-12.76-12.76h-15.51"/>
      </g>
    </g>
    <g id="en" data-name="LWPOLYLINE">
      <g>
        <polyline class="mz" points="789.28 681.69 790.28 681.69 790.28 680.69"/>
        <line class="nc" x1="790.28" y1="679.75" x2="790.28" y2="657.64"/>
        <polyline class="mz" points="790.28 657.17 790.28 656.17 789.28 656.17"/>
        <path class="nb" d="M788.29,656.17h-15.02c-7.04,0-12.76,5.71-12.76,12.76s5.71,12.76,12.76,12.76h15.51"/>
      </g>
    </g>
    <g id="eo" data-name="LWPOLYLINE">
      <g>
        <polyline class="mz" points="862.71 656.17 861.71 656.17 861.71 657.17"/>
        <line class="nc" x1="861.71" y1="658.11" x2="861.71" y2="680.22"/>
        <polyline class="mz" points="861.71 680.69 861.71 681.69 862.71 681.69"/>
        <path class="nb" d="M863.7,681.69h15.02c7.04,0,12.76-5.71,12.76-12.76s-5.71-12.76-12.76-12.76h-15.51"/>
      </g>
    </g>
    <g id="ep" data-name="LWPOLYLINE">
      <g>
        <polyline class="mz" points="860.01 684.94 860.01 685.94 859.01 685.94"/>
        <line class="nk" x1="858.03" y1="685.94" x2="793.47" y2="685.94"/>
        <polyline class="mz" points="792.98 685.94 791.98 685.94 791.98 684.94"/>
        <line class="nl" x1="791.98" y1="683.94" x2="791.98" y2="517.36"/>
        <polyline class="mz" points="791.98 516.86 791.98 515.86 792.98 515.86"/>
        <line class="nk" x1="793.97" y1="515.86" x2="858.52" y2="515.86"/>
        <polyline class="mz" points="859.01 515.86 860.01 515.86 860.01 516.86"/>
        <line class="nl" x1="860.01" y1="517.85" x2="860.01" y2="684.44"/>
      </g>
    </g>
    <g id="eq" data-name="CIRCLE">
      <path class="nm" d="M1118.73,673.52c0-6.26-5.07-11.33-11.33-11.33s-11.33,5.07-11.33,11.33,5.07,11.33,11.33,11.33,11.33-5.07,11.33-11.33Z"/>
    </g>
    <g id="er" data-name="CIRCLE">
      <path class="nm" d="M1093.86,639.56c0-6.26-5.07-11.33-11.33-11.33s-11.33,5.07-11.33,11.33,5.07,11.33,11.33,11.33,11.33-5.07,11.33-11.33Z"/>
    </g>
    <g id="es" data-name="CIRCLE">
      <path class="nm" d="M1059.9,664.43c0-6.26-5.07-11.33-11.33-11.33s-11.33,5.07-11.33,11.33,5.07,11.33,11.33,11.33,11.33-5.07,11.33-11.33Z"/>
    </g>
    <g id="et" data-name="CIRCLE">
      <path class="nm" d="M1084.77,698.39c0-6.26-5.07-11.33-11.33-11.33s-11.33,5.07-11.33,11.33,5.07,11.33,11.33,11.33,11.33-5.07,11.33-11.33Z"/>
    </g>
    <g id="eu" data-name="ARC">
      <g>
        <path class="mz" d="M1046.02,652.33c-.07-.34-.27-.63-.53-.83"/>
        <path class="mz" d="M1045.21,651.34c-.25-.11-.54-.14-.83-.08-.05.01-.1.02-.15.04"/>
      </g>
    </g>
    <g id="ev" data-name="LINE">
      <line class="mu" x1="1046.24" y1="653.35" x2="1046.02" y2="652.33"/>
    </g>
    <g id="ew" data-name="ARC">
      <g>
        <path class="mz" d="M1044.22,651.3c-.32.11-.63.22-.94.35"/>
        <path class="nq" d="M1042.36,652.07c-6.05,3.02-9.11,10.1-6.93,16.71.75,2.28,2.09,4.32,3.86,5.92"/>
        <path class="mz" d="M1039.68,675.03c.25.21.52.42.79.61"/>
      </g>
    </g>
    <g id="ex" data-name="ARC">
      <g>
        <path class="mz" d="M1040.47,675.65c.29.21.62.29.95.26"/>
        <path class="mz" d="M1041.74,675.83c.26-.09.5-.26.67-.5.03-.04.06-.09.08-.13"/>
      </g>
    </g>
    <g id="ey" data-name="LINE">
      <line class="mu" x1="1043" y1="674.3" x2="1042.49" y2="675.2"/>
    </g>
    <g id="ez" data-name="ARC">
      <g>
        <path class="mz" d="M1046.02,652.33c-.07-.34-.27-.63-.53-.83"/>
        <path class="mz" d="M1045.21,651.34c-.25-.11-.54-.14-.83-.08-.05.01-.1.02-.15.04"/>
      </g>
    </g>
    <g id="fa" data-name="LINE">
      <line class="mu" x1="1046.24" y1="653.35" x2="1046.02" y2="652.33"/>
    </g>
    <g id="fb" data-name="ARC">
      <g>
        <path class="mz" d="M1040.47,675.65c.29.21.62.29.95.26"/>
        <path class="mz" d="M1041.74,675.83c.26-.09.5-.26.67-.5.03-.04.06-.09.08-.13"/>
      </g>
    </g>
    <g id="fc" data-name="LINE">
      <line class="mu" x1="1043" y1="674.3" x2="1042.49" y2="675.2"/>
    </g>
    <g id="fd" data-name="LWPOLYLINE">
      <g>
        <polyline class="mz" points="1063.58 678.65 1063.43 679.64 1064.42 679.79"/>
        <line class="nc" x1="1065.35" y1="679.93" x2="1087.19" y2="683.3"/>
        <polyline class="mz" points="1087.66 683.38 1088.64 683.53 1088.8 682.54"/>
        <line class="nc" x1="1088.94" y1="681.61" x2="1092.31" y2="659.77"/>
        <polyline class="mz" points="1092.38 659.3 1092.54 658.32 1091.55 658.16"/>
        <line class="nc" x1="1090.62" y1="658.02" x2="1068.78" y2="654.65"/>
        <polyline class="mz" points="1068.31 654.58 1067.32 654.42 1067.17 655.41"/>
        <line class="nc" x1="1067.03" y1="656.34" x2="1063.66" y2="678.18"/>
      </g>
    </g>
    <g id="fe" data-name="ARC">
      <g>
        <path class="mz" d="M1115.5,662.3c-.29-.21-.62-.29-.95-.26"/>
        <path class="mz" d="M1114.23,662.12c-.26.09-.5.26-.67.5-.03.04-.06.09-.08.13"/>
      </g>
    </g>
    <g id="ff" data-name="LINE">
      <line class="mu" x1="1112.97" y1="663.65" x2="1113.48" y2="662.75"/>
    </g>
    <g id="fg" data-name="ARC">
      <g>
        <path class="mz" d="M1111.74,686.65c.32-.11.63-.22.94-.35"/>
        <path class="nq" d="M1113.6,685.88c6.05-3.02,9.11-10.1,6.93-16.71-.75-2.28-2.09-4.32-3.86-5.92"/>
        <path class="mz" d="M1116.29,662.92c-.25-.21-.52-.42-.79-.61"/>
      </g>
    </g>
    <g id="fh" data-name="ARC">
      <g>
        <path class="mz" d="M1109.95,685.62c.07.34.27.63.53.83"/>
        <path class="mz" d="M1110.76,686.61c.25.11.54.14.83.08.05-.01.1-.02.15-.04"/>
      </g>
    </g>
    <g id="fi" data-name="LINE">
      <line class="mu" x1="1109.73" y1="684.6" x2="1109.95" y2="685.62"/>
    </g>
    <g id="fj" data-name="ARC">
      <g>
        <path class="mz" d="M1115.5,662.3c-.29-.21-.62-.29-.95-.26"/>
        <path class="mz" d="M1114.23,662.12c-.26.09-.5.26-.67.5-.03.04-.06.09-.08.13"/>
      </g>
    </g>
    <g id="fk" data-name="LINE">
      <line class="mu" x1="1112.97" y1="663.65" x2="1113.48" y2="662.75"/>
    </g>
    <g id="fl" data-name="ARC">
      <g>
        <path class="mz" d="M1109.95,685.62c.07.34.27.63.53.83"/>
        <path class="mz" d="M1110.76,686.61c.25.11.54.14.83.08.05-.01.1-.02.15-.04"/>
      </g>
    </g>
    <g id="fm" data-name="LINE">
      <line class="mu" x1="1109.73" y1="684.6" x2="1109.95" y2="685.62"/>
    </g>
    <g id="fn" data-name="ARC">
      <g>
        <path class="mz" d="M1061.34,700.94c-.34.07-.63.27-.83.53"/>
        <path class="mz" d="M1060.35,701.75c-.11.25-.14.54-.08.83.01.05.02.1.04.15"/>
      </g>
    </g>
    <g id="fo" data-name="LINE">
      <line class="mu" x1="1062.36" y1="700.72" x2="1061.34" y2="700.94"/>
    </g>
    <g id="fp" data-name="ARC">
      <g>
        <path class="mz" d="M1060.31,702.74c.11.32.22.63.35.94"/>
        <path class="nq" d="M1061.08,704.6c3.02,6.05,10.1,9.11,16.71,6.93,2.28-.75,4.32-2.09,5.92-3.86"/>
        <path class="mz" d="M1084.04,707.28c.21-.25.42-.52.61-.79"/>
      </g>
    </g>
    <g id="fq" data-name="ARC">
      <g>
        <path class="mz" d="M1084.66,706.49c.21-.29.29-.62.26-.95"/>
        <path class="mz" d="M1084.84,705.22c-.09-.26-.26-.5-.5-.67-.04-.03-.09-.06-.13-.08"/>
      </g>
    </g>
    <g id="fr" data-name="LINE">
      <line class="mu" x1="1083.31" y1="703.96" x2="1084.21" y2="704.47"/>
    </g>
    <g id="fs" data-name="ARC">
      <g>
        <path class="mz" d="M1061.34,700.94c-.34.07-.63.27-.83.53"/>
        <path class="mz" d="M1060.35,701.75c-.11.25-.14.54-.08.83.01.05.02.1.04.15"/>
      </g>
    </g>
    <g id="ft" data-name="LINE">
      <line class="mu" x1="1062.36" y1="700.72" x2="1061.34" y2="700.94"/>
    </g>
    <g id="fu" data-name="ARC">
      <g>
        <path class="mz" d="M1084.66,706.49c.21-.29.29-.62.26-.95"/>
        <path class="mz" d="M1084.84,705.22c-.09-.26-.26-.5-.5-.67-.04-.03-.09-.06-.13-.08"/>
      </g>
    </g>
    <g id="fv" data-name="LINE">
      <line class="mu" x1="1083.31" y1="703.96" x2="1084.21" y2="704.47"/>
    </g>
    <g id="fw" data-name="ARC">
      <g>
        <path class="mz" d="M1071.31,631.46c-.21.29-.29.62-.26.95"/>
        <path class="mz" d="M1071.13,632.73c.09.26.26.5.5.67.04.03.09.06.13.08"/>
      </g>
    </g>
    <g id="fx" data-name="LINE">
      <line class="mu" x1="1072.66" y1="633.99" x2="1071.76" y2="633.48"/>
    </g>
    <g id="fy" data-name="ARC">
      <g>
        <path class="mz" d="M1095.66,635.22c-.11-.32-.22-.63-.35-.94"/>
        <path class="nq" d="M1094.89,633.36c-3.02-6.05-10.1-9.11-16.71-6.93-2.28.75-4.32,2.09-5.92,3.86"/>
        <path class="mz" d="M1071.93,630.67c-.21.25-.42.52-.61.79"/>
      </g>
    </g>
    <g id="fz" data-name="ARC">
      <g>
        <path class="mz" d="M1094.63,637.01c.34-.07.63-.27.83-.53"/>
        <path class="mz" d="M1095.62,636.2c.11-.25.14-.54.08-.83-.01-.05-.02-.1-.04-.15"/>
      </g>
    </g>
    <g id="ga" data-name="LINE">
      <line class="mu" x1="1093.61" y1="637.23" x2="1094.63" y2="637.01"/>
    </g>
    <g id="gb" data-name="ARC">
      <g>
        <path class="mz" d="M1071.31,631.46c-.21.29-.29.62-.26.95"/>
        <path class="mz" d="M1071.13,632.73c.09.26.26.5.5.67.04.03.09.06.13.08"/>
      </g>
    </g>
    <g id="gc" data-name="LINE">
      <line class="mu" x1="1072.66" y1="633.99" x2="1071.76" y2="633.48"/>
    </g>
    <g id="gd" data-name="ARC">
      <g>
        <path class="mz" d="M1094.63,637.01c.34-.07.63-.27.83-.53"/>
        <path class="mz" d="M1095.62,636.2c.11-.25.14-.54.08-.83-.01-.05-.02-.1-.04-.15"/>
      </g>
    </g>
    <g id="ge" data-name="LINE">
      <line class="mu" x1="1093.61" y1="637.23" x2="1094.63" y2="637.01"/>
    </g>
    <g id="gf" data-name="LINE">
      <line class="mz" x1="1153.02" y1="281.72" x2="1153.02" y2="318.57"/>
    </g>
    <g id="gg" data-name="LINE">
      <line class="mz" x1="1138" y1="281.72" x2="1138" y2="355.42"/>
    </g>
    <g id="gh" data-name="LINE">
      <line class="mz" x1="1122.98" y1="281.72" x2="1122.98" y2="355.42"/>
    </g>
    <g id="gi" data-name="LINE">
      <line class="mz" x1="1107.95" y1="281.72" x2="1107.95" y2="355.42"/>
    </g>
    <g id="gj" data-name="LINE">
      <line class="mz" x1="1092.93" y1="281.72" x2="1092.93" y2="355.42"/>
    </g>
    <g id="gk" data-name="LINE">
      <line class="mz" x1="1077.91" y1="281.72" x2="1077.91" y2="355.42"/>
    </g>
    <g id="gl" data-name="LINE">
      <line class="mz" x1="1025.75" y1="281.72" x2="1077.91" y2="355.42"/>
    </g>
    <g id="gm" data-name="LINE">
      <line class="mz" x1="1025.75" y1="355.42" x2="1070.54" y2="355.42"/>
    </g>
    <g id="gn" data-name="LINE">
      <line class="mz" x1="1025.75" y1="370.44" x2="1070.54" y2="370.44"/>
    </g>
    <g id="go" data-name="LINE">
      <line class="mz" x1="1025.75" y1="385.47" x2="1070.54" y2="385.47"/>
    </g>
    <g id="gp" data-name="LINE">
      <line class="mz" x1="1025.75" y1="400.49" x2="1070.54" y2="400.49"/>
    </g>
    <g id="gq" data-name="LINE">
      <g>
        <line class="mz" x1="1198.1" y1="281.72" x2="1198.1" y2="283.22"/>
        <line class="mp" x1="1198.1" y1="284.75" x2="1198.1" y2="353.15"/>
        <line class="mz" x1="1198.1" y1="353.92" x2="1198.1" y2="355.42"/>
      </g>
    </g>
    <g id="gr" data-name="LINE">
      <g>
        <line class="mz" x1="1183.07" y1="281.72" x2="1183.07" y2="283.22"/>
        <line class="mp" x1="1183.07" y1="284.75" x2="1183.07" y2="353.15"/>
        <line class="mz" x1="1183.07" y1="353.92" x2="1183.07" y2="355.42"/>
      </g>
    </g>
    <g id="gs" data-name="LINE">
      <g>
        <line class="mz" x1="1168.05" y1="281.72" x2="1168.05" y2="283.22"/>
        <line class="mp" x1="1168.05" y1="284.75" x2="1168.05" y2="353.15"/>
        <line class="mz" x1="1168.05" y1="353.92" x2="1168.05" y2="355.42"/>
      </g>
    </g>
    <g id="gt" data-name="LINE">
      <g>
        <line class="mz" x1="1249.12" y1="281.72" x2="1249.12" y2="283.22"/>
        <line class="mp" x1="1249.12" y1="284.75" x2="1249.12" y2="353.15"/>
        <line class="mz" x1="1249.12" y1="353.92" x2="1249.12" y2="355.42"/>
      </g>
    </g>
    <g id="gu" data-name="LINE">
      <g>
        <line class="mz" x1="1153.02" y1="318.57" x2="1153.02" y2="320.07"/>
        <line class="nz" x1="1153.02" y1="321.61" x2="1153.02" y2="353.15"/>
        <line class="mz" x1="1153.02" y1="353.92" x2="1153.02" y2="355.42"/>
      </g>
    </g>
    <g id="gv" data-name="LWPOLYLINE">
      <g>
        <line class="mz" x1="874.38" y1="372.43" x2="874.38" y2="373.93"/>
        <line class="ob" x1="874.38" y1="375.44" x2="874.38" y2="415.52"/>
        <polyline class="mz" points="874.38 416.28 874.38 417.78 875.88 417.78"/>
        <line class="nt" x1="877.4" y1="417.78" x2="981.54" y2="417.78"/>
        <polyline class="mz" points="982.3 417.78 983.8 417.78 983.8 416.28"/>
        <line class="ob" x1="983.8" y1="414.77" x2="983.8" y2="374.68"/>
        <line class="mz" x1="983.8" y1="373.93" x2="983.8" y2="372.43"/>
      </g>
    </g>
    <g id="gw" data-name="LINE">
      <g>
        <line class="mz" x1="983.8" y1="417.78" x2="982.41" y2="417.21"/>
        <line class="oa" x1="981.01" y1="416.62" x2="876.47" y2="373.29"/>
        <line class="mz" x1="875.76" y1="373" x2="874.38" y2="372.43"/>
      </g>
    </g>
    <g id="gx" data-name="LINE">
      <g>
        <line class="mz" x1="983.8" y1="372.43" x2="982.41" y2="373"/>
        <line class="oa" x1="981.01" y1="373.58" x2="876.47" y2="416.92"/>
        <line class="mz" x1="875.76" y1="417.21" x2="874.38" y2="417.78"/>
      </g>
    </g>
    <g id="gy" data-name="LWPOLYLINE">
      <rect class="mz" x="1017.24" y="372.43" width="3.4" height="3.4"/>
    </g>
    <g id="gz" data-name="LWPOLYLINE">
      <rect class="mz" x="1025.75" y="429.12" width="8.5" height="2.83"/>
    </g>
    <g id="ha" data-name="LWPOLYLINE">
      <rect class="mz" x="1017.24" y="417.21" width="3.4" height="3.4"/>
    </g>
    <g id="hb" data-name="LWPOLYLINE">
      <rect class="mz" x="874.38" y="443.29" width="1.7" height="5.67"/>
    </g>
    <g id="hc" data-name="LWPOLYLINE">
      <rect class="mz" x="937.87" y="443.29" width="1.7" height="5.67"/>
    </g>
    <g id="hd" data-name="LWPOLYLINE">
      <rect class="mz" x="942.41" y="451.8" width="5.67" height="2.83"/>
    </g>
    <g id="he" data-name="LWPOLYLINE">
      <rect class="mz" x="942.41" y="499.99" width="5.67" height="2.83"/>
    </g>
    <g id="hf" data-name="LWPOLYLINE">
      <rect class="mz" x="942.41" y="454.63" width="3.4" height="3.4"/>
    </g>
    <g id="hg" data-name="LWPOLYLINE">
      <rect class="mz" x="942.41" y="496.58" width="3.4" height="3.4"/>
    </g>
    <g id="hh" data-name="LWPOLYLINE">
      <rect class="mz" x="1153.87" y="446.13" width="2.83" height="5.67"/>
    </g>
    <g id="hi" data-name="LWPOLYLINE">
      <rect class="mz" x="1196.39" y="446.13" width="2.83" height="5.67"/>
    </g>
    <g id="hj" data-name="LWPOLYLINE">
      <rect class="mz" x="1156.71" y="446.13" width="39.69" height="1.7"/>
    </g>
    <g id="hk" data-name="LWPOLYLINE">
      <rect class="mz" x="1101.72" y="406.44" width="5.67" height="2.83"/>
    </g>
    <g id="hl" data-name="LWPOLYLINE">
      <rect class="mz" x="1101.72" y="443.29" width="5.67" height="2.83"/>
    </g>
    <g id="hm" data-name="LWPOLYLINE">
      <rect class="mz" x="1105.69" y="409.28" width="1.7" height="34.02"/>
    </g>
    <g id="hn" data-name="LWPOLYLINE">
      <rect class="mz" x="1208.87" y="406.44" width="5.67" height="2.83"/>
    </g>
    <g id="ho" data-name="LWPOLYLINE">
      <rect class="mz" x="1208.87" y="443.29" width="5.67" height="2.83"/>
    </g>
    <g id="hp" data-name="LWPOLYLINE">
      <rect class="mz" x="1212.84" y="409.28" width="1.7" height="34.02"/>
    </g>
    <g id="hq" data-name="LWPOLYLINE">
      <rect class="mz" x="1020.08" y="431.95" width="5.67" height="2.83"/>
    </g>
    <g id="hr" data-name="LWPOLYLINE">
      <polyline class="mz" points="1020.08 433.94 1018.95 433.94 1018.95 432.8 1020.08 432.8"/>
    </g>
    <g id="hs" data-name="LINE">
      <line class="mz" x1="1018.95" y1="433.37" x2="1017.24" y2="433.37"/>
    </g>
    <g id="ht" data-name="LWPOLYLINE">
      <polyline class="mz" points="1017.95 434.79 1017.24 434.79 1017.24 431.95 1017.94 431.95"/>
    </g>
    <g id="hu" data-name="LWPOLYLINE">
      <rect class="mz" x="950.91" y="446.13" width="2.83" height="5.67"/>
    </g>
    <g id="hv" data-name="LWPOLYLINE">
      <polyline class="mz" points="951.76 446.13 951.76 444.99 952.9 444.99 952.9 446.13"/>
    </g>
    <g id="hw" data-name="LINE">
      <line class="mz" x1="952.33" y1="444.99" x2="952.33" y2="443.29"/>
    </g>
    <g id="hx" data-name="LWPOLYLINE">
      <polyline class="mz" points="950.91 443.99 950.91 443.29 953.75 443.29 953.75 443.98"/>
    </g>
    <g id="hy" data-name="LWPOLYLINE">
      <rect class="mz" x="939.58" y="446.13" width="2.83" height="5.67"/>
    </g>
    <g id="hz" data-name="LWPOLYLINE">
      <polyline class="mz" points="940.43 446.13 940.43 444.99 941.56 444.99 941.56 446.13"/>
    </g>
    <g id="ia" data-name="LINE">
      <line class="mz" x1="940.99" y1="444.99" x2="940.99" y2="443.29"/>
    </g>
    <g id="ib" data-name="LWPOLYLINE">
      <polyline class="mz" points="939.58 443.99 939.58 443.29 942.41 443.29 942.41 443.98"/>
    </g>
    <g id="ic" data-name="LWPOLYLINE">
      <rect class="mz" x="871.54" y="446.13" width="2.83" height="5.67"/>
    </g>
    <g id="id" data-name="LWPOLYLINE">
      <polyline class="mz" points="872.39 446.13 872.39 444.99 873.53 444.99 873.53 446.13"/>
    </g>
    <g id="ie" data-name="LINE">
      <line class="mz" x1="872.96" y1="444.99" x2="872.96" y2="443.29"/>
    </g>
    <g id="if" data-name="LWPOLYLINE">
      <polyline class="mz" points="871.54 443.99 871.54 443.29 874.38 443.29 874.38 443.98"/>
    </g>
    <g id="ig" data-name="LWPOLYLINE">
      <rect class="mz" x="1020.08" y="420.62" width="5.67" height="2.83"/>
    </g>
    <g id="ih" data-name="LWPOLYLINE">
      <polyline class="mz" points="1020.08 422.6 1018.95 422.6 1018.95 421.47 1020.08 421.47"/>
    </g>
    <g id="ii" data-name="LINE">
      <line class="mz" x1="1018.95" y1="422.03" x2="1017.24" y2="422.03"/>
    </g>
    <g id="ij" data-name="LWPOLYLINE">
      <polyline class="mz" points="1017.95 423.45 1017.24 423.45 1017.24 420.62 1017.94 420.62"/>
    </g>
    <g id="ik" data-name="LWPOLYLINE">
      <rect class="mz" x="1020.08" y="369.59" width="5.67" height="2.83"/>
    </g>
    <g id="il" data-name="LWPOLYLINE">
      <polyline class="mz" points="1020.08 371.58 1018.95 371.58 1018.95 370.44 1020.08 370.44"/>
    </g>
    <g id="im" data-name="LINE">
      <line class="mz" x1="1018.95" y1="371.01" x2="1017.24" y2="371.01"/>
    </g>
    <g id="in" data-name="LWPOLYLINE">
      <polyline class="mz" points="1017.95 372.43 1017.24 372.43 1017.24 369.59 1017.94 369.59"/>
    </g>
    <g id="io" data-name="LINE">
      <line class="mz" x1="876.08" y1="443.29" x2="937.87" y2="443.29"/>
    </g>
    <g id="ip" data-name="LINE">
      <line class="mz" x1="876.08" y1="448.96" x2="937.87" y2="448.96"/>
    </g>
    <g id="iq" data-name="LINE">
      <line class="mz" x1="1017.24" y1="417.21" x2="1017.24" y2="375.83"/>
    </g>
    <g id="ir" data-name="LINE">
      <line class="mz" x1="1020.65" y1="375.83" x2="1020.65" y2="417.21"/>
    </g>
    <g id="is" data-name="LINE">
      <line class="mz" x1="942.41" y1="496.58" x2="942.41" y2="458.03"/>
    </g>
    <g id="it" data-name="LINE">
      <line class="mz" x1="945.81" y1="458.03" x2="945.81" y2="496.58"/>
    </g>
    <g id="iu" data-name="LWPOLYLINE">
      <polyline class="mz" points="953.75 443.29 1017.24 443.29 1017.24 434.79"/>
    </g>
    <g id="iv" data-name="LWPOLYLINE">
      <polyline class="mz" points="953.75 451.8 1025.75 451.8 1025.75 434.79"/>
    </g>
    <g id="iw" data-name="LWPOLYLINE">
      <g>
        <polyline class="mn" points="1016.24 372.43 1017.24 372.43 1017.24 373.43"/>
        <polyline class="mn" points="1017.24 374.83 1017.24 375.83 1016.24 375.83"/>
        <line class="nf" x1="1015.24" y1="375.83" x2="970.56" y2="375.83"/>
        <polyline class="mn" points="970.06 375.83 969.06 375.83 969.06 374.83"/>
        <polyline class="mn" points="969.06 373.43 969.06 372.43 970.06 372.43"/>
        <line class="nf" x1="971.06" y1="372.43" x2="1015.74" y2="372.43"/>
      </g>
    </g>
    <g id="ix" data-name="ARC">
      <g>
        <path class="mn" d="M969.06,372.43c0,.33,0,.67.01,1"/>
        <path class="mw" d="M969.1,374.44c1.03,25.18,21.39,45.38,46.64,46.16"/>
        <path class="mn" d="M1016.24,420.6c.33,0,.67.01,1,.01"/>
      </g>
    </g>
    <g id="iy" data-name="LWPOLYLINE">
      <g>
        <line class="mn" x1="1025.75" y1="430.82" x2="1025.75" y2="431.82"/>
        <line class="ny" x1="1025.75" y1="432.81" x2="1025.75" y2="474.11"/>
        <polyline class="mn" points="1025.75 474.61 1025.75 475.61 1026.32 475.61 1026.32 474.61"/>
        <line class="ny" x1="1026.32" y1="473.61" x2="1026.32" y2="432.32"/>
        <line class="mn" x1="1026.32" y1="431.82" x2="1026.32" y2="430.82"/>
      </g>
    </g>
    <g id="iz" data-name="ARC">
      <g>
        <path class="mn" d="M1025.75,475.61c.33,0,.67,0,1-.01"/>
        <path class="nj" d="M1027.77,475.56c23.3-1.03,41.97-19.87,42.74-43.23"/>
        <path class="mn" d="M1070.53,431.82c0-.33.01-.67.01-1"/>
      </g>
    </g>
    <g id="ja" data-name="LWPOLYLINE">
      <g>
        <polyline class="mn" points="941.41 454.63 942.41 454.63 942.41 455.63"/>
        <polyline class="mn" points="942.41 457.03 942.41 458.03 941.41 458.03"/>
        <line class="mv" x1="940.4" y1="458.03" x2="898.56" y2="458.03"/>
        <polyline class="mn" points="898.06 458.03 897.06 458.03 897.06 457.03"/>
        <polyline class="mn" points="897.06 455.63 897.06 454.63 898.06 454.63"/>
        <line class="mv" x1="899.06" y1="454.63" x2="940.91" y2="454.63"/>
      </g>
    </g>
    <g id="jb" data-name="ARC">
      <g>
        <path class="mn" d="M897.06,454.63c0,.33,0,.67.01,1"/>
        <path class="np" d="M897.1,456.62c1.02,23.63,20.12,42.57,43.82,43.34"/>
        <path class="mn" d="M941.41,499.97c.33,0,.67.01,1,.01"/>
      </g>
    </g>
    <g id="jc" data-name="LWPOLYLINE">
      <g>
        <polyline class="mn" points="1196.39 445.13 1196.39 446.13 1194.69 446.13 1194.69 445.13"/>
        <line class="ne" x1="1194.69" y1="444.11" x2="1194.69" y2="407.95"/>
        <polyline class="mn" points="1194.69 407.44 1194.69 406.44 1196.39 406.44 1196.39 407.44"/>
        <line class="ne" x1="1196.39" y1="408.46" x2="1196.39" y2="444.62"/>
      </g>
    </g>
    <g id="jd" data-name="LWPOLYLINE">
      <g>
        <polyline class="mn" points="1107.89 442.43 1107.39 443.29 1105.91 442.44 1106.41 441.58"/>
        <line class="nx" x1="1106.93" y1="440.68" x2="1122.16" y2="414.3"/>
        <polyline class="mn" points="1122.42 413.85 1122.92 412.98 1124.39 413.83 1123.89 414.7"/>
        <line class="nx" x1="1123.38" y1="415.59" x2="1108.14" y2="441.98"/>
      </g>
    </g>
    <g id="je" data-name="ARC">
      <g>
        <path class="mn" d="M1124.39,413.83c-.29-.17-.58-.33-.88-.49"/>
        <path class="nu" d="M1122.64,412.89c-4.28-2.15-8.98-3.37-13.77-3.58"/>
        <path class="mn" d="M1108.39,409.29c-.33-.01-.67-.01-1-.01"/>
      </g>
    </g>
    <g id="jf" data-name="ARC">
      <g>
        <path class="mn" d="M1196.39,406.44c-.33,0-.67,0-1,.01"/>
        <path class="no" d="M1194.41,406.49c-20.5,1.01-36.91,17.58-37.67,38.14"/>
        <path class="mn" d="M1156.72,445.13c0,.33-.01.67-.01,1"/>
      </g>
    </g>
    <g id="jg" data-name="LWPOLYLINE">
      <g>
        <polyline class="mn" points="1215.54 443.29 1214.54 443.29 1214.54 441.59 1215.54 441.59"/>
        <line class="nx" x1="1216.57" y1="441.59" x2="1247.04" y2="441.59"/>
        <polyline class="mn" points="1247.55 441.59 1248.55 441.59 1248.55 443.29 1247.55 443.29"/>
        <line class="nx" x1="1246.52" y1="443.29" x2="1216.05" y2="443.29"/>
      </g>
    </g>
    <g id="jh" data-name="ARC">
      <g>
        <path class="mn" d="M1248.55,443.29c0-.33,0-.67-.01-1"/>
        <path class="nv" d="M1248.49,441.3c-1-17.37-15.03-31.24-32.46-32"/>
        <path class="mn" d="M1215.54,409.29c-.33,0-.67-.01-1-.01"/>
      </g>
    </g>
    <g id="ji" data-name="LWPOLYLINE">
      <polyline class="mn" points="1164.9 271.13 1153.88 315.13 1158.18 318.03 1147.87 319.1 1152.16 322.01 1141.15 366"/>
    </g>
    <g id="jj" data-name="CIRCLE">
      <circle class="mn" cx="1048.14" cy="400.49" r="1.42"/>
    </g>
    <g id="jk" data-name="LWPOLYLINE">
      <polyline class="mn" points="1142.54 318.57 1051.83 318.57 1048.14 321.18 1048.14 400.49"/>
    </g>
    <g id="jl" data-name="LWPOLYLINE">
      <polyline class="mn" points="1139.33 315.36 1142.54 318.57 1139.33 321.77"/>
    </g>
    <g id="jm" data-name="LWPOLYLINE">
      <polyline class="mn" points="948.08 672.9 984.93 672.9 984.93 712.58"/>
    </g>
    <g id="jn" data-name="LINE">
      <line class="mn" x1="948.08" y1="502.82" x2="984.93" y2="502.82"/>
    </g>
    <g id="jo" data-name="LWPOLYLINE">
      <polyline class="mn" points="956.58 569.37 956.58 552.87 982.1 552.87 982.1 588.59 956.58 588.59 956.58 572.09"/>
    </g>
    <g id="jp" data-name="LWPOLYLINE">
      <path class="mn" d="M1119.01,402.76v-28.63h24.38v28.63c0,6.73-5.46,12.19-12.19,12.19s-12.19-5.46-12.19-12.19Z"/>
    </g>
    <g id="jq" data-name="LWPOLYLINE">
      <rect class="mn" x="1175.42" y="373.99" width="2.27" height="8.5"/>
    </g>
    <g id="jr" data-name="LWPOLYLINE">
      <path class="mn" d="M1159.54,372.43v22.82c0,.63.51,1.13,1.13,1.13h31.75c.63,0,1.13-.51,1.13-1.13v-22.82"/>
    </g>
    <g id="js" data-name="LWPOLYLINE">
      <polyline class="mn" points="1175.42 378.24 1163.51 378.24 1163.51 395.25 1189.59 395.25 1189.59 378.24 1177.69 378.24"/>
    </g>
    <g id="jt" data-name="LWPOLYLINE">
      <path class="mn" d="M961.46,569.37h-9.13v2.72h9.13c.75,0,1.36-.61,1.36-1.36s-.61-1.36-1.36-1.36Z"/>
    </g>
    <g id="ju" data-name="LINE">
      <line class="mn" x1="871.54" y1="451.8" x2="942.41" y2="451.8"/>
    </g>
    <g id="jv" data-name="LINE">
      <line class="mn" x1="1025.75" y1="372.43" x2="1025.75" y2="420.62"/>
    </g>
    <g id="jw" data-name="LINE">
      <line class="mn" x1="984.93" y1="536.84" x2="984.93" y2="672.9"/>
    </g>
    <g id="jx" data-name="LWPOLYLINE">
      <rect class="nn" x="942.41" y="443.29" width="8.5" height="8.5"/>
    </g>
    <g id="jy" data-name="LWPOLYLINE">
      <rect class="nn" x="1017.24" y="423.45" width="8.5" height="8.5"/>
    </g>
    <g id="jz" data-name="LINE">
      <line class="mt" x1="1169.18" y1="732.43" x2="1001.94" y2="732.43"/>
    </g>
    <g id="ka" data-name="LINE">
      <line class="mt" x1="1169.18" y1="738.1" x2="1001.94" y2="738.1"/>
    </g>
    <g id="kb" data-name="LINE">
      <line class="mt" x1="984.93" y1="738.1" x2="712.8" y2="738.1"/>
    </g>
    <g id="kc" data-name="LINE">
      <line class="mt" x1="1268.96" y1="644.55" x2="1268.96" y2="519.83"/>
    </g>
    <g id="kd" data-name="LINE">
      <line class="mt" x1="1274.63" y1="644.55" x2="1274.63" y2="519.83"/>
    </g>
    <g id="ke" data-name="LINE">
      <line class="mt" x1="707.14" y1="536.84" x2="707.14" y2="712.58"/>
    </g>
    <g id="kf" data-name="LINE">
      <line class="mt" x1="1268.96" y1="502.82" x2="1268.96" y2="369.59"/>
    </g>
    <g id="kg" data-name="LINE">
      <line class="mt" x1="1274.63" y1="502.82" x2="1274.63" y2="369.59"/>
    </g>
    <g id="kh" data-name="LINE">
      <line class="mt" x1="1186.19" y1="728.32" x2="1262" y2="661.56"/>
    </g>
    <g id="ki" data-name="LINE">
      <line class="mt" x1="1186.19" y1="735.88" x2="1270.58" y2="661.56"/>
    </g>
    <g id="kj" data-name="LWPOLYLINE">
      <line class="mt" x1="712.8" y1="536.84" x2="712.8" y2="712.58"/>
    </g>
    <g id="kk" data-name="LWPOLYLINE">
      <polyline class="mt" points="712.8 502.82 712.81 451.8 871.54 451.8"/>
    </g>
    <g id="kl" data-name="LWPOLYLINE">
      <polyline class="mt" points="707.14 502.82 707.14 446.13 871.54 446.13"/>
    </g>
    <g id="km" data-name="LWPOLYLINE">
      <polyline class="mt" points="712.8 732.43 942.41 732.43 942.41 502.82"/>
    </g>
    <g id="kn" data-name="LWPOLYLINE">
      <polyline class="mt" points="984.93 732.43 948.08 732.43 948.08 502.82"/>
    </g>
    <g id="ko" data-name="LWPOLYLINE">
      <polyline class="nr" points="1288.8 278.88 1288.8 281.72 1025.75 281.72 1025.75 369.59"/>
    </g>
    <g id="kp" data-name="LINE">
      <line class="nr" x1="948.08" y1="531.17" x2="984.93" y2="531.17"/>
    </g>
    <g id="kq" data-name="LINE">
      <line class="nr" x1="948.08" y1="536.84" x2="984.93" y2="536.84"/>
    </g>
    <g id="kr" data-name="LWPOLYLINE">
      <polyline class="nr" points="1101.72 406.44 1101.72 372.43 1076.21 372.43 1076.21 446.13 1153.87 446.13"/>
    </g>
    <g id="ks" data-name="LINE">
      <line class="nr" x1="1199.23" y1="451.8" x2="1268.96" y2="451.8"/>
    </g>
    <g id="kt" data-name="LWPOLYLINE">
      <polyline class="nr" points="1199.23 446.13 1267.26 446.13 1267.26 372.43 1214.54 372.43 1214.54 406.44 1197.53 406.44 1197.53 372.43 1107.39 372.43 1107.39 406.44"/>
    </g>
    <g id="ku" data-name="LWPOLYLINE">
      <polyline class="nr" points="1288.8 358.25 1288.8 355.42 1070.54 355.42 1070.54 451.8 1153.87 451.8"/>
    </g>
    <g id="kv" data-name="LWPOLYLINE">
      <polyline class="nr" points="871.54 443.29 871.54 372.43 1017.24 372.43"/>
    </g>
    <g id="kw" data-name="LWPOLYLINE">
      <rect class="mq" x="984.93" y="502.82" width="17.01" height="34.02"/>
    </g>
    <g id="kx" data-name="LWPOLYLINE">
      <rect class="mq" x="692.96" y="502.82" width="19.84" height="34.02"/>
    </g>
    <g id="ky" data-name="LWPOLYLINE">
      <rect class="mq" x="1249.12" y="502.82" width="39.69" height="17.01"/>
    </g>
    <g id="kz" data-name="LWPOLYLINE">
      <rect class="mq" x="1249.12" y="644.55" width="39.69" height="17.01"/>
    </g>
    <g id="la" data-name="LWPOLYLINE">
      <rect class="mq" x="984.93" y="712.58" width="17.01" height="39.69"/>
    </g>
    <g id="lb" data-name="LWPOLYLINE">
      <rect class="mq" x="1169.18" y="712.58" width="17.01" height="39.69"/>
    </g>
    <g id="lc" data-name="LWPOLYLINE">
      <rect class="mq" x="692.96" y="712.58" width="19.84" height="39.69"/>
    </g>
    <g id="ld" data-name="LINE">
      <line class="mq" x1="1169.18" y1="752.27" x2="1001.94" y2="752.27"/>
    </g>
    <g id="le" data-name="LINE">
      <line class="mq" x1="1169.18" y1="740.93" x2="1001.94" y2="740.93"/>
    </g>
    <g id="lf" data-name="LINE">
      <line class="mq" x1="984.93" y1="752.27" x2="712.8" y2="752.27"/>
    </g>
    <g id="lg" data-name="LINE">
      <line class="mq" x1="984.93" y1="740.93" x2="712.8" y2="740.93"/>
    </g>
    <g id="lh" data-name="LINE">
      <line class="mq" x1="1288.8" y1="644.55" x2="1288.8" y2="519.83"/>
    </g>
    <g id="li" data-name="LINE">
      <line class="mq" x1="1277.47" y1="644.55" x2="1277.47" y2="519.83"/>
    </g>
    <g id="lj" data-name="LINE">
      <line class="mq" x1="692.96" y1="536.84" x2="692.96" y2="713.25"/>
    </g>
    <g id="lk" data-name="LINE">
      <line class="mq" x1="704.3" y1="536.84" x2="704.3" y2="712.58"/>
    </g>
    <g id="ll" data-name="LWPOLYLINE">
      <polyline class="mq" points="1277.47 502.82 1277.47 369.59 1211.7 369.59 1211.7 403.61 1200.36 403.61 1200.36 369.59 1073.37 369.59 1073.37 358.25 1288.8 358.25 1288.8 502.82"/>
    </g>
    <g id="lm" data-name="LWPOLYLINE">
      <polyline class="mq" points="1186.19 752.27 1189.02 752.27 1288.8 664.39 1288.8 661.56"/>
    </g>
    <g id="ln" data-name="LINE">
      <line class="mq" x1="1186.19" y1="739.66" x2="1274.87" y2="661.56"/>
    </g>
    <g id="lo" data-name="LWPOLYLINE">
      <polyline class="mq" points="704.3 502.82 704.3 443.29 868.71 443.29 868.71 369.59 1022.91 369.59 1022.91 278.88 1288.8 278.88 1288.8 267.54 1011.58 267.54 1011.58 358.25 857.37 358.25 857.37 431.95 692.96 431.95 692.96 502.82"/>
    </g>
    <g id="lp" data-name="LWPOLYLINE">
      <g>
        <line class="ms" x1="692.96" y1="551.01" x2="690.96" y2="551.01"/>
        <line class="nd" x1="688.7" y1="551.01" x2="683.05" y2="551.01"/>
        <polyline class="ms" points="681.92 551.01 679.92 551.01 679.92 553.01"/>
        <line class="my" x1="679.92" y1="554.98" x2="679.92" y2="618.89"/>
        <polyline class="ms" points="679.92 619.88 679.92 621.88 681.92 621.88"/>
        <line class="mo" x1="684.18" y1="621.88" x2="689.83" y2="621.88"/>
        <line class="ms" x1="690.96" y1="621.88" x2="692.96" y2="621.88"/>
      </g>
    </g>
    <g id="lq" data-name="LWPOLYLINE">
      <g>
        <line class="ms" x1="692.96" y1="539.67" x2="690.96" y2="539.67"/>
        <line class="na" x1="688.92" y1="539.67" x2="671.6" y2="539.67"/>
        <polyline class="ms" points="670.58 539.67 668.58 539.67 668.58 541.67"/>
        <line class="nh" x1="668.58" y1="543.62" x2="668.58" y2="630.24"/>
        <polyline class="ms" points="668.58 631.21 668.58 633.21 670.58 633.21"/>
        <line class="ns" x1="672.62" y1="633.21" x2="689.94" y2="633.21"/>
        <line class="ms" x1="690.96" y1="633.21" x2="692.96" y2="633.21"/>
      </g>
    </g>
  </g>
  <g id="lz" data-name="SCALE">
    <g>
      <g>
        <path class="mr" d="M1769.97,1071.3c1.32-.05,2.57-.15,3.75-.3l.04.5c-1.21.19-2.47.31-3.78.37s-2.71.09-4.21.09l-.13-.59c1.57,0,3.01-.03,4.33-.08ZM1773.31,1063.98v.56h-7.38v-.56h7.38ZM1771.09,1065.66c.43.18.76.44.99.78s.35.73.35,1.18-.12.82-.35,1.15c-.23.33-.56.59-.99.77-.43.18-.92.27-1.48.27s-1.06-.09-1.48-.27c-.42-.18-.75-.44-.98-.77-.23-.33-.35-.72-.35-1.15s.12-.84.35-1.18c.23-.34.56-.59.98-.78.42-.18.91-.27,1.48-.27s1.05.09,1.48.27ZM1768.01,1066.39c-.41.32-.62.72-.62,1.22s.21.88.62,1.19.94.46,1.6.46,1.2-.15,1.6-.46c.41-.31.61-.7.61-1.19s-.2-.91-.61-1.23c-.41-.31-.94-.47-1.6-.47s-1.19.16-1.6.48ZM1769.95,1062.37v1.88h-.64v-1.88h.64ZM1769.96,1069.58v2h-.66v-2h.66ZM1775.25,1062.4v12.08h-.66v-12.08h.66Z"/>
        <path class="mr" d="M1782.27,1071.04c1.27-.05,2.5-.16,3.69-.35l.06.49c-1.22.22-2.47.37-3.73.43-1.26.06-2.69.09-4.29.09l-.11-.59c1.65,0,3.11-.02,4.39-.07ZM1783.39,1063.68c.48.23.85.55,1.12.97.27.42.4.89.4,1.44s-.13,1.02-.4,1.43c-.27.42-.64.74-1.12.97-.48.23-1.02.34-1.63.34s-1.18-.11-1.66-.34c-.48-.23-.85-.55-1.12-.97-.27-.42-.4-.89-.4-1.43s.13-1.02.4-1.44c.27-.42.64-.74,1.12-.97.48-.23,1.03-.34,1.66-.34s1.15.11,1.63.34ZM1780.45,1064.19c-.38.19-.68.45-.9.78-.22.33-.33.7-.33,1.11s.11.78.33,1.11c.22.33.52.59.91.78.39.19.82.28,1.31.28s.92-.09,1.3-.28c.38-.19.68-.45.9-.78.21-.33.32-.7.32-1.11s-.11-.78-.32-1.11c-.21-.33-.51-.59-.9-.78-.38-.19-.82-.28-1.3-.28s-.93.09-1.32.28ZM1787.49,1062.4v12.08h-.66v-12.08h.66Z"/>
        <path class="mr" d="M1793.98,1062.81v.92c0,.72-.15,1.4-.46,2.03s-.72,1.19-1.23,1.67c-.51.48-1.08.84-1.69,1.11l-.35-.53c.57-.21,1.1-.54,1.58-.97.49-.43.88-.93,1.17-1.5.29-.57.44-1.17.44-1.8v-.92h.55ZM1799.85,1069.43v2.63h-6.96v1.97h-.62v-2.49h6.94v-1.55h-6.99v-.56h7.62ZM1800.34,1073.76v.55h-8.06v-.55h8.06ZM1794.07,1062.81v.92c0,.59.15,1.16.45,1.7.3.55.7,1.02,1.19,1.42.49.4,1.02.71,1.58.92l-.34.52c-.63-.24-1.2-.59-1.71-1.04-.52-.45-.93-.97-1.24-1.58-.31-.61-.46-1.25-.46-1.95v-.92h.53ZM1799.85,1062.4v6.36h-.64v-6.36h.64Z"/>
        <path class="mr" d="M1771.44,1081.61v4.07h-4.7v3.51h-.63v-4.09h4.7v-2.94h-4.75v-.56h5.38ZM1770.24,1088.83c.87-.07,1.75-.18,2.66-.35l.07.56c-.94.17-1.85.29-2.73.35-.88.07-1.95.1-3.22.1h-.91v-.56h.91c1.28,0,2.35-.03,3.22-.1ZM1774.76,1080.4v12.08h-.64v-12.08h.64ZM1776.9,1085.37v.57h-2.31v-.57h2.31Z"/>
        <path class="mr" d="M1788.78,1086.72v.56h-10.95v-.56h10.95ZM1785.48,1081.05c.63.2,1.11.47,1.45.83s.5.78.5,1.25-.17.91-.5,1.26c-.34.36-.82.63-1.45.82-.63.19-1.36.29-2.2.29s-1.56-.1-2.18-.29c-.63-.19-1.11-.46-1.45-.82-.34-.35-.51-.77-.51-1.26s.17-.89.51-1.25.82-.64,1.45-.83c.62-.2,1.35-.29,2.18-.29s1.57.1,2.2.29ZM1779.94,1088.7v3.08h-.63v-3.08h.63ZM1787.56,1091.59v.59h-8.25v-.59h8.25ZM1781.46,1081.56c-.53.15-.94.37-1.23.64-.29.27-.43.59-.43.95s.14.67.43.95c.29.28.7.49,1.23.63.53.14,1.13.22,1.81.22s1.3-.07,1.82-.22c.52-.14.93-.35,1.23-.63s.44-.59.44-.96-.15-.67-.44-.94c-.29-.27-.7-.48-1.23-.64-.52-.15-1.13-.23-1.82-.23s-1.29.08-1.81.23ZM1783.71,1087.05v2.94h-.66v-2.94h.66Z"/>
        <path class="mr" d="M1794.01,1082.01v2.39c0,.76-.17,1.52-.52,2.28-.35.77-.79,1.45-1.32,2.06s-1.09,1.06-1.66,1.37l-.39-.52c.52-.27,1.04-.69,1.56-1.25.52-.56.94-1.19,1.28-1.9s.5-1.39.5-2.05v-2.39h.55ZM1797.18,1081.69v.56h-6.73v-.56h6.73ZM1794.1,1082.01v2.39c0,.67.17,1.34.51,2,.34.66.77,1.25,1.29,1.76.52.51,1.06.89,1.61,1.14l-.41.53c-.59-.3-1.15-.73-1.7-1.29-.55-.56-.99-1.2-1.34-1.92s-.52-1.46-.52-2.22v-2.39h.55ZM1799.82,1080.4v12.08h-.64v-12.08h.64Z"/>
        <path class="mr" d="M1769.64,1107.31c1.27-.05,2.46-.15,3.58-.32l.06.5c-1.17.2-2.37.32-3.61.38-1.24.06-2.6.09-4.07.09l-.14-.59c1.52,0,2.92-.02,4.19-.07ZM1772.94,1099.97v.55h-7.29v-.55h7.29ZM1770.75,1101.66c.42.18.74.44.97.78.23.34.35.73.35,1.18s-.12.82-.35,1.15c-.23.33-.56.59-.97.77-.42.18-.9.27-1.45.27s-1.03-.09-1.45-.27c-.42-.18-.74-.44-.97-.77-.23-.33-.34-.72-.34-1.15s.11-.84.34-1.18c.23-.34.55-.59.97-.78.42-.18.9-.27,1.45-.27s1.03.09,1.45.27ZM1767.74,1102.38c-.4.31-.59.72-.59,1.21s.2.9.59,1.2c.4.31.92.46,1.56.46s1.16-.15,1.56-.46.6-.71.6-1.2-.2-.9-.6-1.21-.92-.47-1.56-.47-1.16.16-1.56.47ZM1769.64,1098.39v1.85h-.66v-1.85h.66ZM1769.64,1105.64v1.96h-.66v-1.96h.66ZM1774.69,1098.4v12.08h-.64v-12.08h.64ZM1776.83,1103.69v.57h-2.3v-.57h2.3Z"/>
        <path class="mr" d="M1781.55,1099.66v1.13c0,.7-.15,1.35-.44,1.96s-.7,1.13-1.2,1.58-1.07.78-1.69,1.01l-.34-.52c.57-.21,1.09-.51,1.57-.9s.86-.87,1.15-1.41c.29-.54.43-1.12.43-1.72v-1.13h.52ZM1784.53,1099.35v.56h-6.41v-.56h6.41ZM1785.41,1106.42c.58.16,1.03.4,1.34.72.31.32.47.7.47,1.15,0,.68-.34,1.21-1.03,1.59s-1.64.57-2.86.57c-.8,0-1.5-.08-2.08-.25-.58-.17-1.03-.42-1.34-.74-.31-.33-.46-.71-.46-1.16s.15-.83.46-1.15c.31-.32.75-.56,1.34-.72.58-.16,1.28-.25,2.08-.25s1.5.08,2.08.25ZM1781.61,1106.91c-.49.13-.87.31-1.13.55-.27.23-.4.51-.4.83,0,.49.29.89.88,1.18s1.38.43,2.37.43,1.78-.14,2.37-.43.89-.68.89-1.18c0-.32-.14-.59-.41-.83-.27-.23-.65-.42-1.14-.55-.49-.13-1.06-.2-1.72-.2s-1.22.07-1.71.2ZM1781.65,1099.66v1.12c0,.54.14,1.06.41,1.56.27.5.64.94,1.11,1.31.46.37.97.66,1.52.87l-.31.5c-.61-.22-1.16-.55-1.65-.97s-.89-.91-1.18-1.47c-.29-.56-.43-1.16-.43-1.81v-1.12h.53ZM1787.11,1098.4v7.36h-.64v-7.36h.64ZM1789.03,1101.68v.56h-2.1v-.56h2.1Z"/>
        <path class="mr" d="M1793.98,1098.81v.92c0,.72-.15,1.4-.46,2.03s-.72,1.19-1.23,1.67c-.51.48-1.08.84-1.69,1.11l-.35-.53c.57-.21,1.1-.54,1.58-.97.49-.43.88-.93,1.17-1.5.29-.57.44-1.17.44-1.8v-.92h.55ZM1799.85,1105.43v2.63h-6.96v1.97h-.62v-2.49h6.94v-1.55h-6.99v-.56h7.62ZM1800.34,1109.76v.55h-8.06v-.55h8.06ZM1794.07,1098.81v.92c0,.59.15,1.16.45,1.7.3.55.7,1.02,1.19,1.42.49.4,1.02.71,1.58.92l-.34.52c-.63-.24-1.2-.59-1.71-1.04-.52-.45-.93-.97-1.24-1.58-.31-.61-.46-1.25-.46-1.95v-.92h.53ZM1799.85,1098.4v6.36h-.64v-6.36h.64Z"/>
      </g>
      <g>
        <path class="mr" d="M1754.69,1073.55h-.67v-9.35l-1.26.87-.36-.49,1.62-1.13h.67v10.11Z"/>
        <path class="mr" d="M1751.59,1090.31c.2-.19.43-.41.68-.65.84-.79,1.51-1.46,2.02-1.99.51-.53.94-1.09,1.31-1.67s.55-1.12.55-1.61-.09-.9-.28-1.27-.45-.67-.78-.88c-.33-.21-.71-.32-1.13-.32-.47,0-.91.16-1.34.48-.42.32-.75.73-.96,1.24l-.63-.27c.26-.61.66-1.1,1.2-1.48.54-.38,1.12-.57,1.72-.57.55,0,1.04.13,1.47.39.43.26.77.63,1.01,1.09.25.47.37.99.37,1.58s-.19,1.18-.57,1.81-.84,1.23-1.38,1.79c-.54.56-1.23,1.25-2.09,2.05-.59.55-1.04.98-1.36,1.3l-.48-.39c.23-.24.45-.46.65-.65ZM1750.94,1090.96h6.02v.59h-5.94l-.08-.59Z"/>
        <path class="mr" d="M1756.62,1105.25c.33.44.5.92.5,1.43,0,.57-.14,1.08-.41,1.53s-.65.8-1.13,1.06-1.03.38-1.64.38-1.17-.13-1.65-.38-.86-.6-1.13-1.06-.41-.96-.41-1.53h.67c0,.46.11.87.32,1.23s.51.64.9.84c.38.2.81.3,1.29.3s.92-.1,1.3-.29.68-.46.89-.79.32-.72.32-1.16-.11-.8-.32-1.13-.5-.59-.88-.78c-.38-.19-.8-.28-1.28-.28h-.41v-.62h.39c.45,0,.85-.09,1.21-.26s.64-.41.84-.72c.2-.31.3-.66.3-1.05,0-.6-.21-1.09-.64-1.47-.43-.38-.98-.57-1.65-.57-.44,0-.83.09-1.19.27-.36.18-.63.44-.82.77-.19.33-.29.71-.29,1.13h-.67c0-.53.13-1.01.38-1.43s.6-.75,1.05-.99c.45-.24.96-.36,1.54-.36s1.09.12,1.54.36c.45.24.8.57,1.05.99.25.42.38.9.38,1.43,0,.43-.15.85-.45,1.27s-.69.73-1.16.94c.5.19.92.5,1.25.94Z"/>
      </g>
    </g>
    <g>
      <g id="ma" data-name="CIRCLE">
        <circle class="mn" cx="214.88" cy="1092.93" r="14.88"/>
      </g>
      <g id="mb" data-name="TEXT">
        <path class="mx" d="M224.5,1077.4l-.86-.35-1.27-8.05-2.62,6.47-.84-.34,3.28-8.1.87.35,1.26,8.02,2.61-6.45.84.34-3.28,8.1Z"/>
      </g>
      <g id="mc" data-name="HATCH">
        <path class="mm" d="M220.46,1079.13c-.23-.09-.46-.18-.7-.26l-5.57,13.78.69.28,5.58-13.8Z"/>
      </g>
      <g id="md" data-name="HATCH">
        <path class="mm" d="M221.15,1079.43c-.23-.1-.45-.2-.69-.3l-5.58,13.8.69.28,5.57-13.78Z"/>
      </g>
      <g id="me" data-name="LINE">
        <line class="ni" x1="219.76" y1="1078.87" x2="214.19" y2="1092.64"/>
      </g>
      <g id="mf" data-name="LINE">
        <line class="ni" x1="221.15" y1="1079.43" x2="215.57" y2="1093.21"/>
      </g>
      <g id="mg" data-name="LINE">
        <line class="ni" x1="214.88" y1="1092.93" x2="220.46" y2="1079.13"/>
      </g>
      <g id="mh" data-name="MTEXT">
        <path class="mx" d="M281.36,1108.4c-.63-.5-1.13-1.2-1.49-2.1-.36-.9-.54-1.92-.54-3.06s.18-2.14.54-3.04c.36-.9.85-1.59,1.49-2.1.63-.5,1.36-.75,2.17-.75s1.53.25,2.17.75c.63.5,1.13,1.2,1.49,2.1.36.9.54,1.91.54,3.04s-.18,2.16-.54,3.05c-.36.89-.85,1.59-1.49,2.1s-1.36.76-2.17.76-1.53-.25-2.17-.75ZM285.01,1107.36c.44-.41.78-.96,1.02-1.67.24-.71.36-1.52.36-2.44s-.12-1.73-.36-2.45c-.24-.71-.58-1.27-1.02-1.67-.44-.4-.93-.6-1.49-.6s-1.05.2-1.48.6c-.43.4-.77.96-1.02,1.67-.25.71-.37,1.53-.37,2.43s.12,1.75.37,2.46c.25.71.58,1.27,1.02,1.67s.93.61,1.48.61,1.05-.2,1.49-.61Z"/>
      </g>
      <g id="mi" data-name="MTEXT">
        <path class="mx" d="M393.68,1107.22c.19-.17.42-.38.71-.64.93-.85,1.67-1.57,2.24-2.15.57-.58,1.05-1.17,1.44-1.78s.59-1.16.59-1.67c0-.48-.09-.9-.28-1.27s-.45-.66-.78-.86-.71-.31-1.15-.31c-.47,0-.93.16-1.37.48-.44.32-.78.73-1,1.23l-1.2-.51c.3-.7.78-1.28,1.46-1.73.67-.45,1.38-.67,2.11-.67.69,0,1.31.16,1.85.46.54.31.96.74,1.26,1.29.3.55.45,1.18.45,1.9s-.22,1.41-.67,2.14c-.45.73-.98,1.41-1.6,2.04-.62.63-1.42,1.39-2.42,2.27-.49.45-.95.88-1.39,1.3l-.94-.85c.28-.27.51-.49.7-.66ZM392.98,1107.88h7.22v1.18h-7.04l-.18-1.18Z"/>
      </g>
      <g id="mj" data-name="MTEXT">
        <path class="mx" d="M340.34,1109.04h-1.34v-10.08l-1.86,1.2-.67-1.07,2.54-1.62h1.33v11.57Z"/>
      </g>
      <g id="mk" data-name="MTEXT">
        <g>
          <path class="mx" d="M558.31,1101.92s.21-3.34.21-3.34h4.64v-1.18h-5.92l-.37,6.03,1.33.19c.23-.28.53-.5.9-.68.36-.18.71-.26,1.04-.26.5,0,.95.11,1.35.33.4.22.71.52.94.91.23.39.34.83.34,1.34s-.11.95-.34,1.36c-.23.41-.54.72-.94.94-.4.22-.85.34-1.35.34-.6,0-1.13-.18-1.59-.55-.46-.37-.76-.85-.89-1.43l-1.3.3c.13.57.38,1.07.74,1.52.37.45.82.8,1.34,1.05.53.25,1.09.38,1.69.38.78,0,1.47-.17,2.07-.5s1.07-.8,1.4-1.38.5-1.26.5-2.02-.17-1.41-.5-1.98-.81-1.03-1.41-1.35c-.6-.33-1.29-.49-2.06-.49-.51,0-1.04.12-1.59.38-.08.04-.16.08-.24.12Z"/>
          <path class="mx" d="M575.28,1103.26c-.29-.34-.67-.5-1.13-.5-.35,0-.66.07-.94.22-.27.14-.49.34-.65.6-.16.26-.24.55-.24.88v4.58h-1.33v-4.45c0-.54-.14-.98-.43-1.32s-.66-.5-1.12-.5c-.34,0-.65.09-.94.26s-.5.42-.66.72c-.15.3-.23.63-.23.98v4.3h-1.33v-7.46h1.33v1.31l-.14-.05c.22-.37.52-.68.9-.91.37-.23.75-.35,1.14-.35.46,0,.9.13,1.32.38.42.26.74.59.95.99.25-.41.59-.74,1.04-.99.45-.26.9-.38,1.36-.38.55,0,1.05.13,1.49.38.44.25.78.59,1.02,1.02.25.43.37.93.37,1.5v4.56h-1.34v-4.45c0-.54-.15-.98-.44-1.32Z"/>
        </g>
      </g>
      <g id="ml" data-name="LWPOLYLINE">
        <polyline class="mn" points="566.32 1093.39 566.32 1076.38 396.24 1076.38 396.24 1093.39 339.55 1093.39 339.55 1076.38 282.85 1076.38 282.85 1093.39"/>
      </g>
    </g>
    <path class="mr" d="M742.46,584.98h-.58v-8.02l-1.08.74-.31-.42,1.39-.97h.58v8.66Z"/>
    <path class="mr" d="M1153.79,416.93c.28.38.43.78.43,1.22,0,.49-.12.93-.35,1.31-.23.39-.55.69-.97.91-.41.22-.88.32-1.41.32s-1-.11-1.41-.32-.73-.52-.97-.91c-.23-.39-.35-.83-.35-1.31h.58c0,.39.09.74.28,1.05.18.31.44.55.77.72.33.17.7.26,1.1.26s.79-.08,1.12-.25.58-.39.76-.68c.18-.29.27-.62.27-1s-.09-.68-.27-.97c-.18-.28-.43-.51-.76-.67-.32-.16-.69-.24-1.1-.24h-.35v-.53h.34c.38,0,.73-.07,1.04-.22.31-.15.55-.35.72-.62.17-.26.26-.56.26-.9,0-.51-.18-.93-.55-1.26-.37-.33-.84-.49-1.42-.49-.38,0-.72.08-1.02.23-.3.16-.54.38-.7.66-.16.28-.25.61-.25.97h-.58c0-.46.11-.86.32-1.22.22-.36.52-.64.9-.85.38-.2.82-.31,1.32-.31s.94.1,1.32.31c.38.2.68.49.9.85.22.36.32.77.32,1.22,0,.37-.13.73-.38,1.09-.26.36-.59.63-1,.81.43.16.79.43,1.07.8Z"/>
    <path class="mr" d="M1025.44,606.57c.17-.16.37-.35.58-.56.72-.68,1.3-1.25,1.73-1.7s.81-.93,1.12-1.43.47-.96.47-1.38-.08-.77-.24-1.09c-.16-.32-.38-.57-.67-.75-.28-.18-.61-.27-.97-.27-.4,0-.78.14-1.15.41-.36.28-.64.63-.82,1.06l-.54-.23c.22-.52.57-.94,1.03-1.27.46-.33.96-.49,1.48-.49.47,0,.89.11,1.26.34s.66.54.87.94c.21.4.32.85.32,1.36s-.16,1.01-.49,1.55c-.33.54-.72,1.05-1.18,1.54-.46.48-1.06,1.07-1.79,1.76-.5.47-.89.84-1.16,1.12l-.41-.34c.2-.21.39-.39.56-.56ZM1024.89,607.12h5.16v.5h-5.09l-.07-.5Z"/>
  </g>
</svg>